G04 #@! TF.FileFunction,Legend,Bot*
%FSLAX46Y46*%
G04 Gerber Fmt 4.6, Leading zero omitted, Abs format (unit mm)*
G04 Created by KiCad (PCBNEW 4.0.7-e2-6376~58~ubuntu16.04.1) date Sun Jan 14 12:59:34 2018*
%MOMM*%
%LPD*%
G01*
G04 APERTURE LIST*
%ADD10C,0.100000*%
%ADD11C,0.203200*%
%ADD12C,0.162560*%
%ADD13C,0.127000*%
%ADD14C,0.254000*%
G04 APERTURE END LIST*
D10*
D11*
X45328014Y6288229D02*
X45144167Y5644762D01*
X44960319Y6104381D01*
X44776471Y5644762D01*
X44592624Y6288229D01*
X44316852Y6288229D02*
X44133005Y5644762D01*
X43949157Y6104381D01*
X43765309Y5644762D01*
X43581462Y6288229D01*
X43305690Y6288229D02*
X43121843Y5644762D01*
X42937995Y6104381D01*
X42754147Y5644762D01*
X42570300Y6288229D01*
X42202604Y5736686D02*
X42156643Y5690724D01*
X42202604Y5644762D01*
X42248566Y5690724D01*
X42202604Y5736686D01*
X42202604Y5644762D01*
X41788947Y5690724D02*
X41697024Y5644762D01*
X41513176Y5644762D01*
X41421252Y5690724D01*
X41375290Y5782648D01*
X41375290Y5828610D01*
X41421252Y5920533D01*
X41513176Y5966495D01*
X41651062Y5966495D01*
X41742985Y6012457D01*
X41788947Y6104381D01*
X41788947Y6150343D01*
X41742985Y6242267D01*
X41651062Y6288229D01*
X41513176Y6288229D01*
X41421252Y6242267D01*
X41099519Y6288229D02*
X40731824Y6288229D01*
X40961633Y6609962D02*
X40961633Y5782648D01*
X40915672Y5690724D01*
X40823748Y5644762D01*
X40731824Y5644762D01*
X40410090Y5644762D02*
X40410090Y6288229D01*
X40410090Y6196305D02*
X40364129Y6242267D01*
X40272205Y6288229D01*
X40134319Y6288229D01*
X40042395Y6242267D01*
X39996433Y6150343D01*
X39996433Y5644762D01*
X39996433Y6150343D02*
X39950471Y6242267D01*
X39858548Y6288229D01*
X39720662Y6288229D01*
X39628738Y6242267D01*
X39582776Y6150343D01*
X39582776Y5644762D01*
X39215081Y6609962D02*
X38617577Y6609962D01*
X38939310Y6242267D01*
X38801424Y6242267D01*
X38709500Y6196305D01*
X38663538Y6150343D01*
X38617577Y6058419D01*
X38617577Y5828610D01*
X38663538Y5736686D01*
X38709500Y5690724D01*
X38801424Y5644762D01*
X39077196Y5644762D01*
X39169119Y5690724D01*
X39215081Y5736686D01*
X38249881Y6518038D02*
X38203919Y6564000D01*
X38111996Y6609962D01*
X37882186Y6609962D01*
X37790262Y6564000D01*
X37744300Y6518038D01*
X37698339Y6426114D01*
X37698339Y6334190D01*
X37744300Y6196305D01*
X38295843Y5644762D01*
X37698339Y5644762D01*
X36871024Y5644762D02*
X36871024Y6609962D01*
X36871024Y5690724D02*
X36962948Y5644762D01*
X37146796Y5644762D01*
X37238720Y5690724D01*
X37284681Y5736686D01*
X37330643Y5828610D01*
X37330643Y6104381D01*
X37284681Y6196305D01*
X37238720Y6242267D01*
X37146796Y6288229D01*
X36962948Y6288229D01*
X36871024Y6242267D01*
X35997748Y6288229D02*
X35997748Y5644762D01*
X36411405Y6288229D02*
X36411405Y5782648D01*
X36365444Y5690724D01*
X36273520Y5644762D01*
X36135634Y5644762D01*
X36043710Y5690724D01*
X35997748Y5736686D01*
X35538129Y5644762D02*
X35538129Y6288229D01*
X35538129Y6609962D02*
X35584091Y6564000D01*
X35538129Y6518038D01*
X35492168Y6564000D01*
X35538129Y6609962D01*
X35538129Y6518038D01*
X35078510Y6288229D02*
X35078510Y5644762D01*
X35078510Y6196305D02*
X35032549Y6242267D01*
X34940625Y6288229D01*
X34802739Y6288229D01*
X34710815Y6242267D01*
X34664853Y6150343D01*
X34664853Y5644762D01*
X34067349Y5644762D02*
X34159273Y5690724D01*
X34205234Y5736686D01*
X34251196Y5828610D01*
X34251196Y6104381D01*
X34205234Y6196305D01*
X34159273Y6242267D01*
X34067349Y6288229D01*
X33929463Y6288229D01*
X33837539Y6242267D01*
X33791577Y6196305D01*
X33745615Y6104381D01*
X33745615Y5828610D01*
X33791577Y5736686D01*
X33837539Y5690724D01*
X33929463Y5644762D01*
X34067349Y5644762D01*
X33331958Y5736686D02*
X33285997Y5690724D01*
X33331958Y5644762D01*
X33377920Y5690724D01*
X33331958Y5736686D01*
X33331958Y5644762D01*
X32458682Y5690724D02*
X32550606Y5644762D01*
X32734454Y5644762D01*
X32826378Y5690724D01*
X32872339Y5736686D01*
X32918301Y5828610D01*
X32918301Y6104381D01*
X32872339Y6196305D01*
X32826378Y6242267D01*
X32734454Y6288229D01*
X32550606Y6288229D01*
X32458682Y6242267D01*
X31907140Y5644762D02*
X31999064Y5690724D01*
X32045025Y5736686D01*
X32090987Y5828610D01*
X32090987Y6104381D01*
X32045025Y6196305D01*
X31999064Y6242267D01*
X31907140Y6288229D01*
X31769254Y6288229D01*
X31677330Y6242267D01*
X31631368Y6196305D01*
X31585406Y6104381D01*
X31585406Y5828610D01*
X31631368Y5736686D01*
X31677330Y5690724D01*
X31769254Y5644762D01*
X31907140Y5644762D01*
X31171749Y5644762D02*
X31171749Y6288229D01*
X31171749Y6196305D02*
X31125788Y6242267D01*
X31033864Y6288229D01*
X30895978Y6288229D01*
X30804054Y6242267D01*
X30758092Y6150343D01*
X30758092Y5644762D01*
X30758092Y6150343D02*
X30712130Y6242267D01*
X30620207Y6288229D01*
X30482321Y6288229D01*
X30390397Y6242267D01*
X30344435Y6150343D01*
X30344435Y5644762D01*
X44914357Y10595343D02*
X44776471Y10549381D01*
X44730510Y10503419D01*
X44684548Y10411495D01*
X44684548Y10273610D01*
X44730510Y10181686D01*
X44776471Y10135724D01*
X44868395Y10089762D01*
X45236090Y10089762D01*
X45236090Y11054962D01*
X44914357Y11054962D01*
X44822433Y11009000D01*
X44776471Y10963038D01*
X44730510Y10871114D01*
X44730510Y10779190D01*
X44776471Y10687267D01*
X44822433Y10641305D01*
X44914357Y10595343D01*
X45236090Y10595343D01*
X44133005Y10089762D02*
X44224929Y10135724D01*
X44270890Y10227648D01*
X44270890Y11054962D01*
X43351652Y10733229D02*
X43351652Y10089762D01*
X43765309Y10733229D02*
X43765309Y10227648D01*
X43719348Y10135724D01*
X43627424Y10089762D01*
X43489538Y10089762D01*
X43397614Y10135724D01*
X43351652Y10181686D01*
X42524338Y10135724D02*
X42616262Y10089762D01*
X42800110Y10089762D01*
X42892033Y10135724D01*
X42937995Y10227648D01*
X42937995Y10595343D01*
X42892033Y10687267D01*
X42800110Y10733229D01*
X42616262Y10733229D01*
X42524338Y10687267D01*
X42478376Y10595343D01*
X42478376Y10503419D01*
X42937995Y10411495D01*
X42064719Y10089762D02*
X42064719Y11054962D01*
X41697024Y11054962D01*
X41605100Y11009000D01*
X41559139Y10963038D01*
X41513177Y10871114D01*
X41513177Y10733229D01*
X41559139Y10641305D01*
X41605100Y10595343D01*
X41697024Y10549381D01*
X42064719Y10549381D01*
X41099519Y10089762D02*
X41099519Y10733229D01*
X41099519Y11054962D02*
X41145481Y11009000D01*
X41099519Y10963038D01*
X41053558Y11009000D01*
X41099519Y11054962D01*
X41099519Y10963038D01*
X40502015Y10089762D02*
X40593939Y10135724D01*
X40639900Y10227648D01*
X40639900Y11054962D01*
X39996434Y10089762D02*
X40088358Y10135724D01*
X40134319Y10227648D01*
X40134319Y11054962D01*
X38571615Y10595343D02*
X38893348Y10595343D01*
X38893348Y10089762D02*
X38893348Y11054962D01*
X38433729Y11054962D01*
X37652377Y10733229D02*
X37652377Y10089762D01*
X37882187Y11100924D02*
X38111996Y10411495D01*
X37514492Y10411495D01*
X36135635Y9722067D02*
X36181597Y9768029D01*
X36273521Y9905914D01*
X36319483Y9997838D01*
X36365445Y10135724D01*
X36411406Y10365533D01*
X36411406Y10549381D01*
X36365445Y10779190D01*
X36319483Y10917076D01*
X36273521Y11009000D01*
X36181597Y11146886D01*
X36135635Y11192848D01*
X35354282Y10135724D02*
X35446206Y10089762D01*
X35630054Y10089762D01*
X35721978Y10135724D01*
X35767939Y10181686D01*
X35813901Y10273610D01*
X35813901Y10549381D01*
X35767939Y10641305D01*
X35721978Y10687267D01*
X35630054Y10733229D01*
X35446206Y10733229D01*
X35354282Y10687267D01*
X35032549Y9722067D02*
X34986587Y9768029D01*
X34894664Y9905914D01*
X34848702Y9997838D01*
X34802740Y10135724D01*
X34756778Y10365533D01*
X34756778Y10549381D01*
X34802740Y10779190D01*
X34848702Y10917076D01*
X34894664Y11009000D01*
X34986587Y11146886D01*
X35032549Y11192848D01*
X45282052Y9312038D02*
X45236090Y9358000D01*
X45144167Y9403962D01*
X44914357Y9403962D01*
X44822433Y9358000D01*
X44776471Y9312038D01*
X44730510Y9220114D01*
X44730510Y9128190D01*
X44776471Y8990305D01*
X45328014Y8438762D01*
X44730510Y8438762D01*
X44133005Y9403962D02*
X44041081Y9403962D01*
X43949157Y9358000D01*
X43903195Y9312038D01*
X43857233Y9220114D01*
X43811272Y9036267D01*
X43811272Y8806457D01*
X43857233Y8622610D01*
X43903195Y8530686D01*
X43949157Y8484724D01*
X44041081Y8438762D01*
X44133005Y8438762D01*
X44224929Y8484724D01*
X44270891Y8530686D01*
X44316852Y8622610D01*
X44362814Y8806457D01*
X44362814Y9036267D01*
X44316852Y9220114D01*
X44270891Y9312038D01*
X44224929Y9358000D01*
X44133005Y9403962D01*
X42892034Y8438762D02*
X43443576Y8438762D01*
X43167805Y8438762D02*
X43167805Y9403962D01*
X43259729Y9266076D01*
X43351653Y9174152D01*
X43443576Y9128190D01*
X42570300Y9403962D02*
X41926834Y9403962D01*
X42340491Y8438762D01*
X41559138Y8806457D02*
X40823748Y8806457D01*
X40410090Y9312038D02*
X40364128Y9358000D01*
X40272205Y9403962D01*
X40042395Y9403962D01*
X39950471Y9358000D01*
X39904509Y9312038D01*
X39858548Y9220114D01*
X39858548Y9128190D01*
X39904509Y8990305D01*
X40456052Y8438762D01*
X39858548Y8438762D01*
X39261043Y9403962D02*
X39169119Y9403962D01*
X39077195Y9358000D01*
X39031233Y9312038D01*
X38985271Y9220114D01*
X38939310Y9036267D01*
X38939310Y8806457D01*
X38985271Y8622610D01*
X39031233Y8530686D01*
X39077195Y8484724D01*
X39169119Y8438762D01*
X39261043Y8438762D01*
X39352967Y8484724D01*
X39398929Y8530686D01*
X39444890Y8622610D01*
X39490852Y8806457D01*
X39490852Y9036267D01*
X39444890Y9220114D01*
X39398929Y9312038D01*
X39352967Y9358000D01*
X39261043Y9403962D01*
X38020072Y8438762D02*
X38571614Y8438762D01*
X38295843Y8438762D02*
X38295843Y9403962D01*
X38387767Y9266076D01*
X38479691Y9174152D01*
X38571614Y9128190D01*
X37468529Y8990305D02*
X37560453Y9036267D01*
X37606414Y9082229D01*
X37652376Y9174152D01*
X37652376Y9220114D01*
X37606414Y9312038D01*
X37560453Y9358000D01*
X37468529Y9403962D01*
X37284681Y9403962D01*
X37192757Y9358000D01*
X37146795Y9312038D01*
X37100834Y9220114D01*
X37100834Y9174152D01*
X37146795Y9082229D01*
X37192757Y9036267D01*
X37284681Y8990305D01*
X37468529Y8990305D01*
X37560453Y8944343D01*
X37606414Y8898381D01*
X37652376Y8806457D01*
X37652376Y8622610D01*
X37606414Y8530686D01*
X37560453Y8484724D01*
X37468529Y8438762D01*
X37284681Y8438762D01*
X37192757Y8484724D01*
X37146795Y8530686D01*
X37100834Y8622610D01*
X37100834Y8806457D01*
X37146795Y8898381D01*
X37192757Y8944343D01*
X37284681Y8990305D01*
X44684548Y7006686D02*
X44730510Y6960724D01*
X44868395Y6914762D01*
X44960319Y6914762D01*
X45098205Y6960724D01*
X45190129Y7052648D01*
X45236090Y7144571D01*
X45282052Y7328419D01*
X45282052Y7466305D01*
X45236090Y7650152D01*
X45190129Y7742076D01*
X45098205Y7834000D01*
X44960319Y7879962D01*
X44868395Y7879962D01*
X44730510Y7834000D01*
X44684548Y7788038D01*
X43719348Y7006686D02*
X43765310Y6960724D01*
X43903195Y6914762D01*
X43995119Y6914762D01*
X44133005Y6960724D01*
X44224929Y7052648D01*
X44270890Y7144571D01*
X44316852Y7328419D01*
X44316852Y7466305D01*
X44270890Y7650152D01*
X44224929Y7742076D01*
X44133005Y7834000D01*
X43995119Y7879962D01*
X43903195Y7879962D01*
X43765310Y7834000D01*
X43719348Y7788038D01*
X43305690Y7282457D02*
X42570300Y7282457D01*
X41788947Y7420343D02*
X41651061Y7374381D01*
X41605100Y7328419D01*
X41559138Y7236495D01*
X41559138Y7098610D01*
X41605100Y7006686D01*
X41651061Y6960724D01*
X41742985Y6914762D01*
X42110680Y6914762D01*
X42110680Y7879962D01*
X41788947Y7879962D01*
X41697023Y7834000D01*
X41651061Y7788038D01*
X41605100Y7696114D01*
X41605100Y7604190D01*
X41651061Y7512267D01*
X41697023Y7466305D01*
X41788947Y7420343D01*
X42110680Y7420343D01*
X40961633Y7374381D02*
X40961633Y6914762D01*
X41283366Y7879962D02*
X40961633Y7374381D01*
X40639900Y7879962D01*
X40318166Y7282457D02*
X39582776Y7282457D01*
X39169118Y6960724D02*
X39031233Y6914762D01*
X38801423Y6914762D01*
X38709499Y6960724D01*
X38663537Y7006686D01*
X38617576Y7098610D01*
X38617576Y7190533D01*
X38663537Y7282457D01*
X38709499Y7328419D01*
X38801423Y7374381D01*
X38985271Y7420343D01*
X39077195Y7466305D01*
X39123156Y7512267D01*
X39169118Y7604190D01*
X39169118Y7696114D01*
X39123156Y7788038D01*
X39077195Y7834000D01*
X38985271Y7879962D01*
X38755461Y7879962D01*
X38617576Y7834000D01*
X38249880Y7190533D02*
X37790261Y7190533D01*
X38341804Y6914762D02*
X38020071Y7879962D01*
X37698338Y6914762D01*
X44684548Y11486762D02*
X45006281Y11946381D01*
X45236090Y11486762D02*
X45236090Y12451962D01*
X44868395Y12451962D01*
X44776471Y12406000D01*
X44730510Y12360038D01*
X44684548Y12268114D01*
X44684548Y12130229D01*
X44730510Y12038305D01*
X44776471Y11992343D01*
X44868395Y11946381D01*
X45236090Y11946381D01*
X43903195Y11532724D02*
X43995119Y11486762D01*
X44178967Y11486762D01*
X44270890Y11532724D01*
X44316852Y11624648D01*
X44316852Y11992343D01*
X44270890Y12084267D01*
X44178967Y12130229D01*
X43995119Y12130229D01*
X43903195Y12084267D01*
X43857233Y11992343D01*
X43857233Y11900419D01*
X44316852Y11808495D01*
X43535500Y12130229D02*
X43305691Y11486762D01*
X43075881Y12130229D01*
X42708186Y11578686D02*
X42662225Y11532724D01*
X42708186Y11486762D01*
X42754148Y11532724D01*
X42708186Y11578686D01*
X42708186Y11486762D01*
X41472052Y11762533D02*
X41012433Y11762533D01*
X41563976Y11486762D02*
X41242243Y12451962D01*
X40920510Y11486762D01*
D12*
X52464546Y22012850D02*
X52207159Y21240690D01*
X51949773Y22012850D01*
X51435000Y21645154D02*
X51324691Y21608385D01*
X51287922Y21571615D01*
X51251152Y21498076D01*
X51251152Y21387768D01*
X51287922Y21314229D01*
X51324691Y21277459D01*
X51398230Y21240690D01*
X51692386Y21240690D01*
X51692386Y22012850D01*
X51435000Y22012850D01*
X51361461Y21976080D01*
X51324691Y21939310D01*
X51287922Y21865771D01*
X51287922Y21792232D01*
X51324691Y21718693D01*
X51361461Y21681924D01*
X51435000Y21645154D01*
X51692386Y21645154D01*
X50920226Y21240690D02*
X50920226Y22012850D01*
X50478992Y21240690D02*
X50809918Y21681924D01*
X50478992Y22012850D02*
X50920226Y21571615D01*
X48756388Y21313429D02*
X48793158Y21276659D01*
X48903466Y21239890D01*
X48977005Y21239890D01*
X49087314Y21276659D01*
X49160853Y21350198D01*
X49197622Y21423737D01*
X49234392Y21570815D01*
X49234392Y21681124D01*
X49197622Y21828202D01*
X49160853Y21901741D01*
X49087314Y21975280D01*
X48977005Y22012050D01*
X48903466Y22012050D01*
X48793158Y21975280D01*
X48756388Y21938510D01*
X48020998Y21239890D02*
X48462232Y21239890D01*
X48241615Y21239890D02*
X48241615Y22012050D01*
X48315154Y21901741D01*
X48388693Y21828202D01*
X48462232Y21791432D01*
X47763611Y22012050D02*
X47285608Y22012050D01*
X47542994Y21717893D01*
X47432686Y21717893D01*
X47359147Y21681124D01*
X47322377Y21644354D01*
X47285608Y21570815D01*
X47285608Y21386968D01*
X47322377Y21313429D01*
X47359147Y21276659D01*
X47432686Y21239890D01*
X47653303Y21239890D01*
X47726842Y21276659D01*
X47763611Y21313429D01*
X46216388Y21313429D02*
X46253158Y21276659D01*
X46363466Y21239890D01*
X46437005Y21239890D01*
X46547314Y21276659D01*
X46620853Y21350198D01*
X46657622Y21423737D01*
X46694392Y21570815D01*
X46694392Y21681124D01*
X46657622Y21828202D01*
X46620853Y21901741D01*
X46547314Y21975280D01*
X46437005Y22012050D01*
X46363466Y22012050D01*
X46253158Y21975280D01*
X46216388Y21938510D01*
X45480998Y21239890D02*
X45922232Y21239890D01*
X45701615Y21239890D02*
X45701615Y22012050D01*
X45775154Y21901741D01*
X45848693Y21828202D01*
X45922232Y21791432D01*
X44819147Y21754663D02*
X44819147Y21239890D01*
X45002994Y22048819D02*
X45186842Y21497276D01*
X44708838Y21497276D01*
X43676388Y21313429D02*
X43713158Y21276659D01*
X43823466Y21239890D01*
X43897005Y21239890D01*
X44007314Y21276659D01*
X44080853Y21350198D01*
X44117622Y21423737D01*
X44154392Y21570815D01*
X44154392Y21681124D01*
X44117622Y21828202D01*
X44080853Y21901741D01*
X44007314Y21975280D01*
X43897005Y22012050D01*
X43823466Y22012050D01*
X43713158Y21975280D01*
X43676388Y21938510D01*
X42940998Y21239890D02*
X43382232Y21239890D01*
X43161615Y21239890D02*
X43161615Y22012050D01*
X43235154Y21901741D01*
X43308693Y21828202D01*
X43382232Y21791432D01*
X42242377Y22012050D02*
X42610072Y22012050D01*
X42646842Y21644354D01*
X42610072Y21681124D01*
X42536533Y21717893D01*
X42352686Y21717893D01*
X42279147Y21681124D01*
X42242377Y21644354D01*
X42205608Y21570815D01*
X42205608Y21386968D01*
X42242377Y21313429D01*
X42279147Y21276659D01*
X42352686Y21239890D01*
X42536533Y21239890D01*
X42610072Y21276659D01*
X42646842Y21313429D01*
X41191542Y21460507D02*
X40823847Y21460507D01*
X41265081Y21239890D02*
X41007694Y22012050D01*
X40750308Y21239890D01*
X40345843Y22012050D02*
X40272304Y22012050D01*
X40198765Y21975280D01*
X40161996Y21938510D01*
X40125226Y21864971D01*
X40088457Y21717893D01*
X40088457Y21534046D01*
X40125226Y21386968D01*
X40161996Y21313429D01*
X40198765Y21276659D01*
X40272304Y21239890D01*
X40345843Y21239890D01*
X40419382Y21276659D01*
X40456152Y21313429D01*
X40492921Y21386968D01*
X40529691Y21534046D01*
X40529691Y21717893D01*
X40492921Y21864971D01*
X40456152Y21938510D01*
X40419382Y21975280D01*
X40345843Y22012050D01*
X38651542Y21460507D02*
X38283847Y21460507D01*
X38725081Y21239890D02*
X38467694Y22012050D01*
X38210308Y21239890D01*
X37548457Y21239890D02*
X37989691Y21239890D01*
X37769074Y21239890D02*
X37769074Y22012050D01*
X37842613Y21901741D01*
X37916152Y21828202D01*
X37989691Y21791432D01*
X36111542Y21460507D02*
X35743847Y21460507D01*
X36185081Y21239890D02*
X35927694Y22012050D01*
X35670308Y21239890D01*
X35449691Y21938510D02*
X35412921Y21975280D01*
X35339382Y22012050D01*
X35155535Y22012050D01*
X35081996Y21975280D01*
X35045226Y21938510D01*
X35008457Y21864971D01*
X35008457Y21791432D01*
X35045226Y21681124D01*
X35486460Y21239890D01*
X35008457Y21239890D01*
X33571542Y21460507D02*
X33203847Y21460507D01*
X33645081Y21239890D02*
X33387694Y22012050D01*
X33130308Y21239890D01*
X32946460Y22012050D02*
X32468457Y22012050D01*
X32725843Y21717893D01*
X32615535Y21717893D01*
X32541996Y21681124D01*
X32505226Y21644354D01*
X32468457Y21570815D01*
X32468457Y21386968D01*
X32505226Y21313429D01*
X32541996Y21276659D01*
X32615535Y21239890D01*
X32836152Y21239890D01*
X32909691Y21276659D01*
X32946460Y21313429D01*
X31031542Y21460507D02*
X30663847Y21460507D01*
X31105081Y21239890D02*
X30847694Y22012050D01*
X30590308Y21239890D01*
X30001996Y21754663D02*
X30001996Y21239890D01*
X30185843Y22048819D02*
X30369691Y21497276D01*
X29891687Y21497276D01*
X28491542Y21460507D02*
X28123847Y21460507D01*
X28565081Y21239890D02*
X28307694Y22012050D01*
X28050308Y21239890D01*
X27425226Y22012050D02*
X27792921Y22012050D01*
X27829691Y21644354D01*
X27792921Y21681124D01*
X27719382Y21717893D01*
X27535535Y21717893D01*
X27461996Y21681124D01*
X27425226Y21644354D01*
X27388457Y21570815D01*
X27388457Y21386968D01*
X27425226Y21313429D01*
X27461996Y21276659D01*
X27535535Y21239890D01*
X27719382Y21239890D01*
X27792921Y21276659D01*
X27829691Y21313429D01*
X25951542Y21460507D02*
X25583847Y21460507D01*
X26025081Y21239890D02*
X25767694Y22012050D01*
X25510308Y21239890D01*
X24921996Y22012050D02*
X25069074Y22012050D01*
X25142613Y21975280D01*
X25179382Y21938510D01*
X25252921Y21828202D01*
X25289691Y21681124D01*
X25289691Y21386968D01*
X25252921Y21313429D01*
X25216152Y21276659D01*
X25142613Y21239890D01*
X24995535Y21239890D01*
X24921996Y21276659D01*
X24885226Y21313429D01*
X24848457Y21386968D01*
X24848457Y21570815D01*
X24885226Y21644354D01*
X24921996Y21681124D01*
X24995535Y21717893D01*
X25142613Y21717893D01*
X25216152Y21681124D01*
X25252921Y21644354D01*
X25289691Y21570815D01*
X23411542Y21460507D02*
X23043847Y21460507D01*
X23485081Y21239890D02*
X23227694Y22012050D01*
X22970308Y21239890D01*
X22786460Y22012050D02*
X22271687Y22012050D01*
X22602613Y21239890D01*
X20632541Y21644354D02*
X20522232Y21607585D01*
X20485463Y21570815D01*
X20448693Y21497276D01*
X20448693Y21386968D01*
X20485463Y21313429D01*
X20522232Y21276659D01*
X20595771Y21239890D01*
X20889927Y21239890D01*
X20889927Y22012050D01*
X20632541Y22012050D01*
X20559002Y21975280D01*
X20522232Y21938510D01*
X20485463Y21864971D01*
X20485463Y21791432D01*
X20522232Y21717893D01*
X20559002Y21681124D01*
X20632541Y21644354D01*
X20889927Y21644354D01*
X19970689Y22012050D02*
X19897150Y22012050D01*
X19823611Y21975280D01*
X19786842Y21938510D01*
X19750072Y21864971D01*
X19713303Y21717893D01*
X19713303Y21534046D01*
X19750072Y21386968D01*
X19786842Y21313429D01*
X19823611Y21276659D01*
X19897150Y21239890D01*
X19970689Y21239890D01*
X20044228Y21276659D01*
X20080998Y21313429D01*
X20117767Y21386968D01*
X20154537Y21534046D01*
X20154537Y21717893D01*
X20117767Y21864971D01*
X20080998Y21938510D01*
X20044228Y21975280D01*
X19970689Y22012050D01*
X18092541Y21644354D02*
X17982232Y21607585D01*
X17945463Y21570815D01*
X17908693Y21497276D01*
X17908693Y21386968D01*
X17945463Y21313429D01*
X17982232Y21276659D01*
X18055771Y21239890D01*
X18349927Y21239890D01*
X18349927Y22012050D01*
X18092541Y22012050D01*
X18019002Y21975280D01*
X17982232Y21938510D01*
X17945463Y21864971D01*
X17945463Y21791432D01*
X17982232Y21717893D01*
X18019002Y21681124D01*
X18092541Y21644354D01*
X18349927Y21644354D01*
X17173303Y21239890D02*
X17614537Y21239890D01*
X17393920Y21239890D02*
X17393920Y22012050D01*
X17467459Y21901741D01*
X17540998Y21828202D01*
X17614537Y21791432D01*
X15920236Y21644354D02*
X15809927Y21607585D01*
X15773158Y21570815D01*
X15736388Y21497276D01*
X15736388Y21386968D01*
X15773158Y21313429D01*
X15809927Y21276659D01*
X15883466Y21239890D01*
X16177622Y21239890D01*
X16177622Y22012050D01*
X15920236Y22012050D01*
X15846697Y21975280D01*
X15809927Y21938510D01*
X15773158Y21864971D01*
X15773158Y21791432D01*
X15809927Y21717893D01*
X15846697Y21681124D01*
X15920236Y21644354D01*
X16177622Y21644354D01*
X15000998Y21239890D02*
X15442232Y21239890D01*
X15221615Y21239890D02*
X15221615Y22012050D01*
X15295154Y21901741D01*
X15368693Y21828202D01*
X15442232Y21791432D01*
X14522994Y22012050D02*
X14449455Y22012050D01*
X14375916Y21975280D01*
X14339147Y21938510D01*
X14302377Y21864971D01*
X14265608Y21717893D01*
X14265608Y21534046D01*
X14302377Y21386968D01*
X14339147Y21313429D01*
X14375916Y21276659D01*
X14449455Y21239890D01*
X14522994Y21239890D01*
X14596533Y21276659D01*
X14633303Y21313429D01*
X14670072Y21386968D01*
X14706842Y21534046D01*
X14706842Y21717893D01*
X14670072Y21864971D01*
X14633303Y21938510D01*
X14596533Y21975280D01*
X14522994Y22012050D01*
X13380236Y21644354D02*
X13269927Y21607585D01*
X13233158Y21570815D01*
X13196388Y21497276D01*
X13196388Y21386968D01*
X13233158Y21313429D01*
X13269927Y21276659D01*
X13343466Y21239890D01*
X13637622Y21239890D01*
X13637622Y22012050D01*
X13380236Y22012050D01*
X13306697Y21975280D01*
X13269927Y21938510D01*
X13233158Y21864971D01*
X13233158Y21791432D01*
X13269927Y21717893D01*
X13306697Y21681124D01*
X13380236Y21644354D01*
X13637622Y21644354D01*
X12460998Y21239890D02*
X12902232Y21239890D01*
X12681615Y21239890D02*
X12681615Y22012050D01*
X12755154Y21901741D01*
X12828693Y21828202D01*
X12902232Y21791432D01*
X11725608Y21239890D02*
X12166842Y21239890D01*
X11946225Y21239890D02*
X11946225Y22012050D01*
X12019764Y21901741D01*
X12093303Y21828202D01*
X12166842Y21791432D01*
X10582849Y21239890D02*
X10840236Y21607585D01*
X11024083Y21239890D02*
X11024083Y22012050D01*
X10729927Y22012050D01*
X10656388Y21975280D01*
X10619619Y21938510D01*
X10582849Y21864971D01*
X10582849Y21754663D01*
X10619619Y21681124D01*
X10656388Y21644354D01*
X10729927Y21607585D01*
X11024083Y21607585D01*
X10288693Y21276659D02*
X10178384Y21239890D01*
X9994537Y21239890D01*
X9920998Y21276659D01*
X9884228Y21313429D01*
X9847459Y21386968D01*
X9847459Y21460507D01*
X9884228Y21534046D01*
X9920998Y21570815D01*
X9994537Y21607585D01*
X10141615Y21644354D01*
X10215154Y21681124D01*
X10251923Y21717893D01*
X10288693Y21791432D01*
X10288693Y21864971D01*
X10251923Y21938510D01*
X10215154Y21975280D01*
X10141615Y22012050D01*
X9957767Y22012050D01*
X9847459Y21975280D01*
X9626842Y22012050D02*
X9185608Y22012050D01*
X9406225Y21239890D02*
X9406225Y22012050D01*
X8576006Y22012050D02*
X8098003Y22012050D01*
X8355389Y21717893D01*
X8245081Y21717893D01*
X8171542Y21681124D01*
X8134772Y21644354D01*
X8098003Y21570815D01*
X8098003Y21386968D01*
X8134772Y21313429D01*
X8171542Y21276659D01*
X8245081Y21239890D01*
X8465698Y21239890D01*
X8539237Y21276659D01*
X8576006Y21313429D01*
X7877386Y22012050D02*
X7619999Y21239890D01*
X7362613Y22012050D01*
X7178765Y22012050D02*
X6700762Y22012050D01*
X6958148Y21717893D01*
X6847840Y21717893D01*
X6774301Y21681124D01*
X6737531Y21644354D01*
X6700762Y21570815D01*
X6700762Y21386968D01*
X6737531Y21313429D01*
X6774301Y21276659D01*
X6847840Y21239890D01*
X7068457Y21239890D01*
X7141996Y21276659D01*
X7178765Y21313429D01*
X5668313Y21975280D02*
X5741852Y22012050D01*
X5852160Y22012050D01*
X5962469Y21975280D01*
X6036008Y21901741D01*
X6072777Y21828202D01*
X6109547Y21681124D01*
X6109547Y21570815D01*
X6072777Y21423737D01*
X6036008Y21350198D01*
X5962469Y21276659D01*
X5852160Y21239890D01*
X5778621Y21239890D01*
X5668313Y21276659D01*
X5631543Y21313429D01*
X5631543Y21570815D01*
X5778621Y21570815D01*
X5300617Y21239890D02*
X5300617Y22012050D01*
X4859383Y21239890D01*
X4859383Y22012050D01*
X4491687Y21239890D02*
X4491687Y22012050D01*
X4307840Y22012050D01*
X4197531Y21975280D01*
X4123992Y21901741D01*
X4087223Y21828202D01*
X4050453Y21681124D01*
X4050453Y21570815D01*
X4087223Y21423737D01*
X4123992Y21350198D01*
X4197531Y21276659D01*
X4307840Y21239890D01*
X4491687Y21239890D01*
X3128313Y21975280D02*
X3201852Y22012050D01*
X3312160Y22012050D01*
X3422469Y21975280D01*
X3496008Y21901741D01*
X3532777Y21828202D01*
X3569547Y21681124D01*
X3569547Y21570815D01*
X3532777Y21423737D01*
X3496008Y21350198D01*
X3422469Y21276659D01*
X3312160Y21239890D01*
X3238621Y21239890D01*
X3128313Y21276659D01*
X3091543Y21313429D01*
X3091543Y21570815D01*
X3238621Y21570815D01*
X2760617Y21239890D02*
X2760617Y22012050D01*
X2319383Y21239890D01*
X2319383Y22012050D01*
X1951687Y21239890D02*
X1951687Y22012050D01*
X1767840Y22012050D01*
X1657531Y21975280D01*
X1583992Y21901741D01*
X1547223Y21828202D01*
X1510453Y21681124D01*
X1510453Y21570815D01*
X1547223Y21423737D01*
X1583992Y21350198D01*
X1657531Y21276659D01*
X1767840Y21239890D01*
X1951687Y21239890D01*
X3220236Y1324354D02*
X3109927Y1287585D01*
X3073158Y1250815D01*
X3036388Y1177276D01*
X3036388Y1066968D01*
X3073158Y993429D01*
X3109927Y956659D01*
X3183466Y919890D01*
X3477622Y919890D01*
X3477622Y1692050D01*
X3220236Y1692050D01*
X3146697Y1655280D01*
X3109927Y1618510D01*
X3073158Y1544971D01*
X3073158Y1471432D01*
X3109927Y1397893D01*
X3146697Y1361124D01*
X3220236Y1324354D01*
X3477622Y1324354D01*
X2300998Y919890D02*
X2742232Y919890D01*
X2521615Y919890D02*
X2521615Y1692050D01*
X2595154Y1581741D01*
X2668693Y1508202D01*
X2742232Y1471432D01*
X2006842Y1618510D02*
X1970072Y1655280D01*
X1896533Y1692050D01*
X1712686Y1692050D01*
X1639147Y1655280D01*
X1602377Y1618510D01*
X1565608Y1544971D01*
X1565608Y1471432D01*
X1602377Y1361124D01*
X2043611Y919890D01*
X1565608Y919890D01*
X5760236Y1324354D02*
X5649927Y1287585D01*
X5613158Y1250815D01*
X5576388Y1177276D01*
X5576388Y1066968D01*
X5613158Y993429D01*
X5649927Y956659D01*
X5723466Y919890D01*
X6017622Y919890D01*
X6017622Y1692050D01*
X5760236Y1692050D01*
X5686697Y1655280D01*
X5649927Y1618510D01*
X5613158Y1544971D01*
X5613158Y1471432D01*
X5649927Y1397893D01*
X5686697Y1361124D01*
X5760236Y1324354D01*
X6017622Y1324354D01*
X4840998Y919890D02*
X5282232Y919890D01*
X5061615Y919890D02*
X5061615Y1692050D01*
X5135154Y1581741D01*
X5208693Y1508202D01*
X5282232Y1471432D01*
X4583611Y1692050D02*
X4105608Y1692050D01*
X4362994Y1397893D01*
X4252686Y1397893D01*
X4179147Y1361124D01*
X4142377Y1324354D01*
X4105608Y1250815D01*
X4105608Y1066968D01*
X4142377Y993429D01*
X4179147Y956659D01*
X4252686Y919890D01*
X4473303Y919890D01*
X4546842Y956659D01*
X4583611Y993429D01*
X8300236Y1324354D02*
X8189927Y1287585D01*
X8153158Y1250815D01*
X8116388Y1177276D01*
X8116388Y1066968D01*
X8153158Y993429D01*
X8189927Y956659D01*
X8263466Y919890D01*
X8557622Y919890D01*
X8557622Y1692050D01*
X8300236Y1692050D01*
X8226697Y1655280D01*
X8189927Y1618510D01*
X8153158Y1544971D01*
X8153158Y1471432D01*
X8189927Y1397893D01*
X8226697Y1361124D01*
X8300236Y1324354D01*
X8557622Y1324354D01*
X7380998Y919890D02*
X7822232Y919890D01*
X7601615Y919890D02*
X7601615Y1692050D01*
X7675154Y1581741D01*
X7748693Y1508202D01*
X7822232Y1471432D01*
X6719147Y1434663D02*
X6719147Y919890D01*
X6902994Y1728819D02*
X7086842Y1177276D01*
X6608838Y1177276D01*
X10840236Y1324354D02*
X10729927Y1287585D01*
X10693158Y1250815D01*
X10656388Y1177276D01*
X10656388Y1066968D01*
X10693158Y993429D01*
X10729927Y956659D01*
X10803466Y919890D01*
X11097622Y919890D01*
X11097622Y1692050D01*
X10840236Y1692050D01*
X10766697Y1655280D01*
X10729927Y1618510D01*
X10693158Y1544971D01*
X10693158Y1471432D01*
X10729927Y1397893D01*
X10766697Y1361124D01*
X10840236Y1324354D01*
X11097622Y1324354D01*
X9920998Y919890D02*
X10362232Y919890D01*
X10141615Y919890D02*
X10141615Y1692050D01*
X10215154Y1581741D01*
X10288693Y1508202D01*
X10362232Y1471432D01*
X9222377Y1692050D02*
X9590072Y1692050D01*
X9626842Y1324354D01*
X9590072Y1361124D01*
X9516533Y1397893D01*
X9332686Y1397893D01*
X9259147Y1361124D01*
X9222377Y1324354D01*
X9185608Y1250815D01*
X9185608Y1066968D01*
X9222377Y993429D01*
X9259147Y956659D01*
X9332686Y919890D01*
X9516533Y919890D01*
X9590072Y956659D01*
X9626842Y993429D01*
X13251542Y1140507D02*
X12883847Y1140507D01*
X13325081Y919890D02*
X13067694Y1692050D01*
X12810308Y919890D01*
X12442613Y1361124D02*
X12516152Y1397893D01*
X12552921Y1434663D01*
X12589691Y1508202D01*
X12589691Y1544971D01*
X12552921Y1618510D01*
X12516152Y1655280D01*
X12442613Y1692050D01*
X12295535Y1692050D01*
X12221996Y1655280D01*
X12185226Y1618510D01*
X12148457Y1544971D01*
X12148457Y1508202D01*
X12185226Y1434663D01*
X12221996Y1397893D01*
X12295535Y1361124D01*
X12442613Y1361124D01*
X12516152Y1324354D01*
X12552921Y1287585D01*
X12589691Y1214046D01*
X12589691Y1066968D01*
X12552921Y993429D01*
X12516152Y956659D01*
X12442613Y919890D01*
X12295535Y919890D01*
X12221996Y956659D01*
X12185226Y993429D01*
X12148457Y1066968D01*
X12148457Y1214046D01*
X12185226Y1287585D01*
X12221996Y1324354D01*
X12295535Y1361124D01*
X15791542Y1140507D02*
X15423847Y1140507D01*
X15865081Y919890D02*
X15607694Y1692050D01*
X15350308Y919890D01*
X15056152Y919890D02*
X14909074Y919890D01*
X14835535Y956659D01*
X14798765Y993429D01*
X14725226Y1103737D01*
X14688457Y1250815D01*
X14688457Y1544971D01*
X14725226Y1618510D01*
X14761996Y1655280D01*
X14835535Y1692050D01*
X14982613Y1692050D01*
X15056152Y1655280D01*
X15092921Y1618510D01*
X15129691Y1544971D01*
X15129691Y1361124D01*
X15092921Y1287585D01*
X15056152Y1250815D01*
X14982613Y1214046D01*
X14835535Y1214046D01*
X14761996Y1250815D01*
X14725226Y1287585D01*
X14688457Y1361124D01*
X18699237Y1140507D02*
X18331542Y1140507D01*
X18772776Y919890D02*
X18515389Y1692050D01*
X18258003Y919890D01*
X17596152Y919890D02*
X18037386Y919890D01*
X17816769Y919890D02*
X17816769Y1692050D01*
X17890308Y1581741D01*
X17963847Y1508202D01*
X18037386Y1471432D01*
X17118148Y1692050D02*
X17044609Y1692050D01*
X16971070Y1655280D01*
X16934301Y1618510D01*
X16897531Y1544971D01*
X16860762Y1397893D01*
X16860762Y1214046D01*
X16897531Y1066968D01*
X16934301Y993429D01*
X16971070Y956659D01*
X17044609Y919890D01*
X17118148Y919890D01*
X17191687Y956659D01*
X17228457Y993429D01*
X17265226Y1066968D01*
X17301996Y1214046D01*
X17301996Y1397893D01*
X17265226Y1544971D01*
X17228457Y1618510D01*
X17191687Y1655280D01*
X17118148Y1692050D01*
X21239237Y1140507D02*
X20871542Y1140507D01*
X21312776Y919890D02*
X21055389Y1692050D01*
X20798003Y919890D01*
X20136152Y919890D02*
X20577386Y919890D01*
X20356769Y919890D02*
X20356769Y1692050D01*
X20430308Y1581741D01*
X20503847Y1508202D01*
X20577386Y1471432D01*
X19400762Y919890D02*
X19841996Y919890D01*
X19621379Y919890D02*
X19621379Y1692050D01*
X19694918Y1581741D01*
X19768457Y1508202D01*
X19841996Y1471432D01*
X23779237Y1140507D02*
X23411542Y1140507D01*
X23852776Y919890D02*
X23595389Y1692050D01*
X23338003Y919890D01*
X22676152Y919890D02*
X23117386Y919890D01*
X22896769Y919890D02*
X22896769Y1692050D01*
X22970308Y1581741D01*
X23043847Y1508202D01*
X23117386Y1471432D01*
X22381996Y1618510D02*
X22345226Y1655280D01*
X22271687Y1692050D01*
X22087840Y1692050D01*
X22014301Y1655280D01*
X21977531Y1618510D01*
X21940762Y1544971D01*
X21940762Y1471432D01*
X21977531Y1361124D01*
X22418765Y919890D01*
X21940762Y919890D01*
X26319237Y1140507D02*
X25951542Y1140507D01*
X26392776Y919890D02*
X26135389Y1692050D01*
X25878003Y919890D01*
X25216152Y919890D02*
X25657386Y919890D01*
X25436769Y919890D02*
X25436769Y1692050D01*
X25510308Y1581741D01*
X25583847Y1508202D01*
X25657386Y1471432D01*
X24517531Y1692050D02*
X24885226Y1692050D01*
X24921996Y1324354D01*
X24885226Y1361124D01*
X24811687Y1397893D01*
X24627840Y1397893D01*
X24554301Y1361124D01*
X24517531Y1324354D01*
X24480762Y1250815D01*
X24480762Y1066968D01*
X24517531Y993429D01*
X24554301Y956659D01*
X24627840Y919890D01*
X24811687Y919890D01*
X24885226Y956659D01*
X24921996Y993429D01*
X28252541Y1324354D02*
X28142232Y1287585D01*
X28105463Y1250815D01*
X28068693Y1177276D01*
X28068693Y1066968D01*
X28105463Y993429D01*
X28142232Y956659D01*
X28215771Y919890D01*
X28509927Y919890D01*
X28509927Y1692050D01*
X28252541Y1692050D01*
X28179002Y1655280D01*
X28142232Y1618510D01*
X28105463Y1544971D01*
X28105463Y1471432D01*
X28142232Y1397893D01*
X28179002Y1361124D01*
X28252541Y1324354D01*
X28509927Y1324354D01*
X27811306Y1692050D02*
X27333303Y1692050D01*
X27590689Y1397893D01*
X27480381Y1397893D01*
X27406842Y1361124D01*
X27370072Y1324354D01*
X27333303Y1250815D01*
X27333303Y1066968D01*
X27370072Y993429D01*
X27406842Y956659D01*
X27480381Y919890D01*
X27700998Y919890D01*
X27774537Y956659D01*
X27811306Y993429D01*
X30792541Y1324354D02*
X30682232Y1287585D01*
X30645463Y1250815D01*
X30608693Y1177276D01*
X30608693Y1066968D01*
X30645463Y993429D01*
X30682232Y956659D01*
X30755771Y919890D01*
X31049927Y919890D01*
X31049927Y1692050D01*
X30792541Y1692050D01*
X30719002Y1655280D01*
X30682232Y1618510D01*
X30645463Y1544971D01*
X30645463Y1471432D01*
X30682232Y1397893D01*
X30719002Y1361124D01*
X30792541Y1324354D01*
X31049927Y1324354D01*
X29946842Y1434663D02*
X29946842Y919890D01*
X30130689Y1728819D02*
X30314537Y1177276D01*
X29836533Y1177276D01*
X33332541Y1324354D02*
X33222232Y1287585D01*
X33185463Y1250815D01*
X33148693Y1177276D01*
X33148693Y1066968D01*
X33185463Y993429D01*
X33222232Y956659D01*
X33295771Y919890D01*
X33589927Y919890D01*
X33589927Y1692050D01*
X33332541Y1692050D01*
X33259002Y1655280D01*
X33222232Y1618510D01*
X33185463Y1544971D01*
X33185463Y1471432D01*
X33222232Y1397893D01*
X33259002Y1361124D01*
X33332541Y1324354D01*
X33589927Y1324354D01*
X32450072Y1692050D02*
X32817767Y1692050D01*
X32854537Y1324354D01*
X32817767Y1361124D01*
X32744228Y1397893D01*
X32560381Y1397893D01*
X32486842Y1361124D01*
X32450072Y1324354D01*
X32413303Y1250815D01*
X32413303Y1066968D01*
X32450072Y993429D01*
X32486842Y956659D01*
X32560381Y919890D01*
X32744228Y919890D01*
X32817767Y956659D01*
X32854537Y993429D01*
X35872541Y1324354D02*
X35762232Y1287585D01*
X35725463Y1250815D01*
X35688693Y1177276D01*
X35688693Y1066968D01*
X35725463Y993429D01*
X35762232Y956659D01*
X35835771Y919890D01*
X36129927Y919890D01*
X36129927Y1692050D01*
X35872541Y1692050D01*
X35799002Y1655280D01*
X35762232Y1618510D01*
X35725463Y1544971D01*
X35725463Y1471432D01*
X35762232Y1397893D01*
X35799002Y1361124D01*
X35872541Y1324354D01*
X36129927Y1324354D01*
X35026842Y1692050D02*
X35173920Y1692050D01*
X35247459Y1655280D01*
X35284228Y1618510D01*
X35357767Y1508202D01*
X35394537Y1361124D01*
X35394537Y1066968D01*
X35357767Y993429D01*
X35320998Y956659D01*
X35247459Y919890D01*
X35100381Y919890D01*
X35026842Y956659D01*
X34990072Y993429D01*
X34953303Y1066968D01*
X34953303Y1250815D01*
X34990072Y1324354D01*
X35026842Y1361124D01*
X35100381Y1397893D01*
X35247459Y1397893D01*
X35320998Y1361124D01*
X35357767Y1324354D01*
X35394537Y1250815D01*
X38412541Y1324354D02*
X38302232Y1287585D01*
X38265463Y1250815D01*
X38228693Y1177276D01*
X38228693Y1066968D01*
X38265463Y993429D01*
X38302232Y956659D01*
X38375771Y919890D01*
X38669927Y919890D01*
X38669927Y1692050D01*
X38412541Y1692050D01*
X38339002Y1655280D01*
X38302232Y1618510D01*
X38265463Y1544971D01*
X38265463Y1471432D01*
X38302232Y1397893D01*
X38339002Y1361124D01*
X38412541Y1324354D01*
X38669927Y1324354D01*
X37971306Y1692050D02*
X37456533Y1692050D01*
X37787459Y919890D01*
X40952541Y1324354D02*
X40842232Y1287585D01*
X40805463Y1250815D01*
X40768693Y1177276D01*
X40768693Y1066968D01*
X40805463Y993429D01*
X40842232Y956659D01*
X40915771Y919890D01*
X41209927Y919890D01*
X41209927Y1692050D01*
X40952541Y1692050D01*
X40879002Y1655280D01*
X40842232Y1618510D01*
X40805463Y1544971D01*
X40805463Y1471432D01*
X40842232Y1397893D01*
X40879002Y1361124D01*
X40952541Y1324354D01*
X41209927Y1324354D01*
X40327459Y1361124D02*
X40400998Y1397893D01*
X40437767Y1434663D01*
X40474537Y1508202D01*
X40474537Y1544971D01*
X40437767Y1618510D01*
X40400998Y1655280D01*
X40327459Y1692050D01*
X40180381Y1692050D01*
X40106842Y1655280D01*
X40070072Y1618510D01*
X40033303Y1544971D01*
X40033303Y1508202D01*
X40070072Y1434663D01*
X40106842Y1397893D01*
X40180381Y1361124D01*
X40327459Y1361124D01*
X40400998Y1324354D01*
X40437767Y1287585D01*
X40474537Y1214046D01*
X40474537Y1066968D01*
X40437767Y993429D01*
X40400998Y956659D01*
X40327459Y919890D01*
X40180381Y919890D01*
X40106842Y956659D01*
X40070072Y993429D01*
X40033303Y1066968D01*
X40033303Y1214046D01*
X40070072Y1287585D01*
X40106842Y1324354D01*
X40180381Y1361124D01*
X43492541Y1324354D02*
X43382232Y1287585D01*
X43345463Y1250815D01*
X43308693Y1177276D01*
X43308693Y1066968D01*
X43345463Y993429D01*
X43382232Y956659D01*
X43455771Y919890D01*
X43749927Y919890D01*
X43749927Y1692050D01*
X43492541Y1692050D01*
X43419002Y1655280D01*
X43382232Y1618510D01*
X43345463Y1544971D01*
X43345463Y1471432D01*
X43382232Y1397893D01*
X43419002Y1361124D01*
X43492541Y1324354D01*
X43749927Y1324354D01*
X42940998Y919890D02*
X42793920Y919890D01*
X42720381Y956659D01*
X42683611Y993429D01*
X42610072Y1103737D01*
X42573303Y1250815D01*
X42573303Y1544971D01*
X42610072Y1618510D01*
X42646842Y1655280D01*
X42720381Y1692050D01*
X42867459Y1692050D01*
X42940998Y1655280D01*
X42977767Y1618510D01*
X43014537Y1544971D01*
X43014537Y1361124D01*
X42977767Y1287585D01*
X42940998Y1250815D01*
X42867459Y1214046D01*
X42720381Y1214046D01*
X42646842Y1250815D01*
X42610072Y1287585D01*
X42573303Y1361124D01*
X45867077Y1692050D02*
X46234772Y1692050D01*
X46271542Y1324354D01*
X46234772Y1361124D01*
X46161233Y1397893D01*
X45977386Y1397893D01*
X45903847Y1361124D01*
X45867077Y1324354D01*
X45830308Y1250815D01*
X45830308Y1066968D01*
X45867077Y993429D01*
X45903847Y956659D01*
X45977386Y919890D01*
X46161233Y919890D01*
X46234772Y956659D01*
X46271542Y993429D01*
X45609691Y1692050D02*
X45352304Y919890D01*
X45094918Y1692050D01*
X48848313Y1655280D02*
X48921852Y1692050D01*
X49032160Y1692050D01*
X49142469Y1655280D01*
X49216008Y1581741D01*
X49252777Y1508202D01*
X49289547Y1361124D01*
X49289547Y1250815D01*
X49252777Y1103737D01*
X49216008Y1030198D01*
X49142469Y956659D01*
X49032160Y919890D01*
X48958621Y919890D01*
X48848313Y956659D01*
X48811543Y993429D01*
X48811543Y1250815D01*
X48958621Y1250815D01*
X48480617Y919890D02*
X48480617Y1692050D01*
X48039383Y919890D01*
X48039383Y1692050D01*
X47671687Y919890D02*
X47671687Y1692050D01*
X47487840Y1692050D01*
X47377531Y1655280D01*
X47303992Y1581741D01*
X47267223Y1508202D01*
X47230453Y1361124D01*
X47230453Y1250815D01*
X47267223Y1103737D01*
X47303992Y1030198D01*
X47377531Y956659D01*
X47487840Y919890D01*
X47671687Y919890D01*
X52721932Y1692850D02*
X52243929Y1692850D01*
X52501315Y1398693D01*
X52391007Y1398693D01*
X52317468Y1361924D01*
X52280698Y1325154D01*
X52243929Y1251615D01*
X52243929Y1067768D01*
X52280698Y994229D01*
X52317468Y957459D01*
X52391007Y920690D01*
X52611624Y920690D01*
X52685163Y957459D01*
X52721932Y994229D01*
X52023312Y1692850D02*
X51765925Y920690D01*
X51508539Y1692850D01*
X51324691Y1692850D02*
X50846688Y1692850D01*
X51104074Y1398693D01*
X50993766Y1398693D01*
X50920227Y1361924D01*
X50883457Y1325154D01*
X50846688Y1251615D01*
X50846688Y1067768D01*
X50883457Y994229D01*
X50920227Y957459D01*
X50993766Y920690D01*
X51214383Y920690D01*
X51287922Y957459D01*
X51324691Y994229D01*
X50552532Y1141307D02*
X50184837Y1141307D01*
X50626071Y920690D02*
X50368684Y1692850D01*
X50111298Y920690D01*
X32575762Y12991410D02*
X32575762Y13763570D01*
X32281606Y13763570D01*
X32208067Y13726800D01*
X32171298Y13690030D01*
X32134528Y13616491D01*
X32134528Y13506183D01*
X32171298Y13432644D01*
X32208067Y13395874D01*
X32281606Y13359105D01*
X32575762Y13359105D01*
X31362368Y13064949D02*
X31399138Y13028179D01*
X31509446Y12991410D01*
X31582985Y12991410D01*
X31693294Y13028179D01*
X31766833Y13101718D01*
X31803602Y13175257D01*
X31840372Y13322335D01*
X31840372Y13432644D01*
X31803602Y13579722D01*
X31766833Y13653261D01*
X31693294Y13726800D01*
X31582985Y13763570D01*
X31509446Y13763570D01*
X31399138Y13726800D01*
X31362368Y13690030D01*
X30700517Y13506183D02*
X30700517Y12991410D01*
X30884364Y13800339D02*
X31068212Y13248796D01*
X30590208Y13248796D01*
X32575762Y9181410D02*
X32575762Y9953570D01*
X32281606Y9953570D01*
X32208067Y9916800D01*
X32171298Y9880030D01*
X32134528Y9806491D01*
X32134528Y9696183D01*
X32171298Y9622644D01*
X32208067Y9585874D01*
X32281606Y9549105D01*
X32575762Y9549105D01*
X31362368Y9254949D02*
X31399138Y9218179D01*
X31509446Y9181410D01*
X31582985Y9181410D01*
X31693294Y9218179D01*
X31766833Y9291718D01*
X31803602Y9365257D01*
X31840372Y9512335D01*
X31840372Y9622644D01*
X31803602Y9769722D01*
X31766833Y9843261D01*
X31693294Y9916800D01*
X31582985Y9953570D01*
X31509446Y9953570D01*
X31399138Y9916800D01*
X31362368Y9880030D01*
X30626978Y9181410D02*
X31068212Y9181410D01*
X30847595Y9181410D02*
X30847595Y9953570D01*
X30921134Y9843261D01*
X30994673Y9769722D01*
X31068212Y9732952D01*
X32575762Y10451410D02*
X32575762Y11223570D01*
X32281606Y11223570D01*
X32208067Y11186800D01*
X32171298Y11150030D01*
X32134528Y11076491D01*
X32134528Y10966183D01*
X32171298Y10892644D01*
X32208067Y10855874D01*
X32281606Y10819105D01*
X32575762Y10819105D01*
X31362368Y10524949D02*
X31399138Y10488179D01*
X31509446Y10451410D01*
X31582985Y10451410D01*
X31693294Y10488179D01*
X31766833Y10561718D01*
X31803602Y10635257D01*
X31840372Y10782335D01*
X31840372Y10892644D01*
X31803602Y11039722D01*
X31766833Y11113261D01*
X31693294Y11186800D01*
X31582985Y11223570D01*
X31509446Y11223570D01*
X31399138Y11186800D01*
X31362368Y11150030D01*
X31068212Y11150030D02*
X31031442Y11186800D01*
X30957903Y11223570D01*
X30774056Y11223570D01*
X30700517Y11186800D01*
X30663747Y11150030D01*
X30626978Y11076491D01*
X30626978Y11002952D01*
X30663747Y10892644D01*
X31104981Y10451410D01*
X30626978Y10451410D01*
X32575762Y11721410D02*
X32575762Y12493570D01*
X32281606Y12493570D01*
X32208067Y12456800D01*
X32171298Y12420030D01*
X32134528Y12346491D01*
X32134528Y12236183D01*
X32171298Y12162644D01*
X32208067Y12125874D01*
X32281606Y12089105D01*
X32575762Y12089105D01*
X31362368Y11794949D02*
X31399138Y11758179D01*
X31509446Y11721410D01*
X31582985Y11721410D01*
X31693294Y11758179D01*
X31766833Y11831718D01*
X31803602Y11905257D01*
X31840372Y12052335D01*
X31840372Y12162644D01*
X31803602Y12309722D01*
X31766833Y12383261D01*
X31693294Y12456800D01*
X31582985Y12493570D01*
X31509446Y12493570D01*
X31399138Y12456800D01*
X31362368Y12420030D01*
X31104981Y12493570D02*
X30626978Y12493570D01*
X30884364Y12199413D01*
X30774056Y12199413D01*
X30700517Y12162644D01*
X30663747Y12125874D01*
X30626978Y12052335D01*
X30626978Y11868488D01*
X30663747Y11794949D01*
X30700517Y11758179D01*
X30774056Y11721410D01*
X30994673Y11721410D01*
X31068212Y11758179D01*
X31104981Y11794949D01*
X32582052Y14271570D02*
X32582052Y15043730D01*
X32287896Y15043730D01*
X32214357Y15006960D01*
X32177588Y14970190D01*
X32140818Y14896651D01*
X32140818Y14786343D01*
X32177588Y14712804D01*
X32214357Y14676034D01*
X32287896Y14639265D01*
X32582052Y14639265D01*
X31368658Y14345109D02*
X31405428Y14308339D01*
X31515736Y14271570D01*
X31589275Y14271570D01*
X31699584Y14308339D01*
X31773123Y14381878D01*
X31809892Y14455417D01*
X31846662Y14602495D01*
X31846662Y14712804D01*
X31809892Y14859882D01*
X31773123Y14933421D01*
X31699584Y15006960D01*
X31589275Y15043730D01*
X31515736Y15043730D01*
X31405428Y15006960D01*
X31368658Y14970190D01*
X30670037Y15043730D02*
X31037732Y15043730D01*
X31074502Y14676034D01*
X31037732Y14712804D01*
X30964193Y14749573D01*
X30780346Y14749573D01*
X30706807Y14712804D01*
X30670037Y14676034D01*
X30633268Y14602495D01*
X30633268Y14418648D01*
X30670037Y14345109D01*
X30706807Y14308339D01*
X30780346Y14271570D01*
X30964193Y14271570D01*
X31037732Y14308339D01*
X31074502Y14345109D01*
X32575762Y15531410D02*
X32575762Y16303570D01*
X32281606Y16303570D01*
X32208067Y16266800D01*
X32171298Y16230030D01*
X32134528Y16156491D01*
X32134528Y16046183D01*
X32171298Y15972644D01*
X32208067Y15935874D01*
X32281606Y15899105D01*
X32575762Y15899105D01*
X31362368Y15604949D02*
X31399138Y15568179D01*
X31509446Y15531410D01*
X31582985Y15531410D01*
X31693294Y15568179D01*
X31766833Y15641718D01*
X31803602Y15715257D01*
X31840372Y15862335D01*
X31840372Y15972644D01*
X31803602Y16119722D01*
X31766833Y16193261D01*
X31693294Y16266800D01*
X31582985Y16303570D01*
X31509446Y16303570D01*
X31399138Y16266800D01*
X31362368Y16230030D01*
X30700517Y16303570D02*
X30847595Y16303570D01*
X30921134Y16266800D01*
X30957903Y16230030D01*
X31031442Y16119722D01*
X31068212Y15972644D01*
X31068212Y15678488D01*
X31031442Y15604949D01*
X30994673Y15568179D01*
X30921134Y15531410D01*
X30774056Y15531410D01*
X30700517Y15568179D01*
X30663747Y15604949D01*
X30626978Y15678488D01*
X30626978Y15862335D01*
X30663747Y15935874D01*
X30700517Y15972644D01*
X30774056Y16009413D01*
X30921134Y16009413D01*
X30994673Y15972644D01*
X31031442Y15935874D01*
X31068212Y15862335D01*
X32575762Y16801410D02*
X32575762Y17573570D01*
X32281606Y17573570D01*
X32208067Y17536800D01*
X32171298Y17500030D01*
X32134528Y17426491D01*
X32134528Y17316183D01*
X32171298Y17242644D01*
X32208067Y17205874D01*
X32281606Y17169105D01*
X32575762Y17169105D01*
X31362368Y16874949D02*
X31399138Y16838179D01*
X31509446Y16801410D01*
X31582985Y16801410D01*
X31693294Y16838179D01*
X31766833Y16911718D01*
X31803602Y16985257D01*
X31840372Y17132335D01*
X31840372Y17242644D01*
X31803602Y17389722D01*
X31766833Y17463261D01*
X31693294Y17536800D01*
X31582985Y17573570D01*
X31509446Y17573570D01*
X31399138Y17536800D01*
X31362368Y17500030D01*
X31104981Y17573570D02*
X30590208Y17573570D01*
X30921134Y16801410D01*
D13*
X19431000Y17780000D02*
X6731000Y17780000D01*
X6731000Y17780000D02*
X6731000Y5080000D01*
X6731000Y5080000D02*
X19431000Y5080000D01*
X19431000Y5080000D02*
X19431000Y17780000D01*
X52070000Y17779200D02*
X49530000Y17779200D01*
X49530000Y17779200D02*
X1270000Y17779200D01*
X1270000Y17779200D02*
X1270000Y20319200D01*
X1270000Y20319200D02*
X49530000Y20319200D01*
X49530000Y20319200D02*
X52070000Y20319200D01*
X52070000Y20319200D02*
X52070000Y17779200D01*
X49530000Y17779200D02*
X49530000Y20319200D01*
X52070000Y2539200D02*
X49530000Y2539200D01*
X49530000Y2539200D02*
X1270000Y2539200D01*
X1270000Y2539200D02*
X1270000Y5079200D01*
X1270000Y5079200D02*
X49530000Y5079200D01*
X49530000Y5079200D02*
X52070000Y5079200D01*
X52070000Y5079200D02*
X52070000Y2539200D01*
X49530000Y2539200D02*
X49530000Y5079200D01*
D14*
X35966300Y13345800D02*
G75*
G03X35966300Y13345800I-25400J0D01*
G01*
X36342500Y13345800D02*
G75*
G03X36342500Y13345800I-401600J0D01*
G01*
X35940900Y16647800D02*
G75*
G03X35940900Y16647800I-127000J0D01*
G01*
X36347300Y13345800D02*
X37337900Y13345800D01*
X37337900Y13345800D02*
X37718900Y13345800D01*
X37718900Y13345800D02*
X37972900Y16520800D01*
X37972900Y16520800D02*
X38099900Y16520800D01*
X37972900Y16520800D02*
X37464900Y16520800D01*
X37464900Y16520800D02*
X37337900Y16520800D01*
X37337900Y16520800D02*
X35686900Y16520800D01*
X35686900Y16520800D02*
X35559900Y16520800D01*
X37718900Y13345800D02*
X37718900Y12964800D01*
X37718900Y12964800D02*
X37337900Y12964800D01*
X37337900Y12964800D02*
X37337900Y13345800D01*
X35686900Y16520800D02*
X35864700Y13752200D01*
X37464900Y17282800D02*
X37464900Y16520800D01*
X37464900Y17282800D02*
X37337900Y17282800D01*
X37337900Y17282800D02*
X37337900Y16520800D01*
X36956900Y17536800D02*
X36956900Y17282800D01*
X36956900Y17282800D02*
X36702900Y17282800D01*
X36702900Y17282800D02*
X36702900Y17536800D01*
X36702900Y17536800D02*
X36956900Y17536800D01*
X36956900Y15885800D02*
X36956900Y15631800D01*
X36956900Y15631800D02*
X36194900Y15631800D01*
X36194900Y15631800D02*
X36194900Y15885800D01*
X36194900Y15885800D02*
X36956900Y15885800D01*
X35559900Y16520800D02*
X35432900Y16393800D01*
X35432900Y16393800D02*
X35432900Y16012800D01*
X35432900Y16012800D02*
X35686900Y16012800D01*
X35686900Y16520800D02*
G75*
G02X37972900Y16520800I1143000J-571500D01*
G01*
X38734900Y16774800D02*
X34924900Y12964800D01*
X34924900Y16774800D02*
X35686900Y16012800D01*
X35686900Y16012800D02*
X38734900Y12964800D01*
D10*
G36*
X39115900Y11440800D02*
X34543900Y11440800D01*
X34543900Y12202800D01*
X39115900Y12202800D01*
X39115900Y11440800D01*
G37*
D13*
X48336200Y16509200D02*
X48336200Y13969200D01*
X48336200Y13969200D02*
X48336200Y6349200D01*
X48336200Y6349200D02*
X45796200Y6349200D01*
X45796200Y6349200D02*
X45796200Y13969200D01*
X45796200Y13969200D02*
X45796200Y16509200D01*
X45796200Y16509200D02*
X48336200Y16509200D01*
X48336200Y13969200D02*
X45796200Y13969200D01*
X50545900Y7630800D02*
X50545900Y5090800D01*
X50545900Y5090800D02*
X51815900Y5090800D01*
X51815900Y5090800D02*
X51815900Y7630800D01*
X51815900Y7630800D02*
X50545900Y7630800D01*
X51815900Y11313800D02*
X51815900Y8773800D01*
X51815900Y8773800D02*
X53085900Y8773800D01*
X53085900Y8773800D02*
X53085900Y11313800D01*
X53085900Y11313800D02*
X51815900Y11313800D01*
X50800000Y15875000D02*
X53086000Y15875000D01*
X53086000Y15875000D02*
X53086000Y16383000D01*
X53086000Y16383000D02*
X50800000Y16383000D01*
X50800000Y16383000D02*
X50800000Y15875000D01*
X49148900Y7630800D02*
X49148900Y5090800D01*
X49148900Y5090800D02*
X50418900Y5090800D01*
X50418900Y5090800D02*
X50418900Y7630800D01*
X50418900Y7630800D02*
X49148900Y7630800D01*
X48386900Y11313800D02*
X50926900Y11313800D01*
X50926900Y11313800D02*
X50926900Y12583800D01*
X50926900Y12583800D02*
X48386900Y12583800D01*
X48386900Y12583800D02*
X48386900Y11313800D01*
X48513900Y9942200D02*
X51561900Y9942200D01*
X51561900Y9942200D02*
X51561900Y8926200D01*
X51561900Y8926200D02*
X48513900Y8926200D01*
X48513900Y8926200D02*
X48513900Y9942200D01*
D10*
G36*
X48513900Y9942200D02*
X49656900Y9942200D01*
X48513900Y8926200D01*
X48513900Y9942200D01*
G37*
D14*
X48386900Y10958200D02*
G75*
G03X48386900Y10958200I-127000J0D01*
G01*
X29209900Y13269600D02*
X28168500Y13447400D01*
X28168500Y13447400D02*
X27812900Y14336400D01*
X27812900Y14336400D02*
X28397100Y15200000D01*
X28397100Y15200000D02*
X27787500Y15835000D01*
X27787500Y15835000D02*
X26898500Y15225400D01*
X26898500Y15225400D02*
X26034900Y15581000D01*
X26034900Y15581000D02*
X25831700Y16647800D01*
X25831700Y16647800D02*
X24942700Y16647800D01*
X24942700Y16647800D02*
X24739500Y15581000D01*
X24739500Y15581000D02*
X23901300Y15225400D01*
X23901300Y15225400D02*
X22986900Y15835000D01*
X22986900Y15835000D02*
X22351900Y15200000D01*
X22351900Y15200000D02*
X22961500Y14336400D01*
X22961500Y14336400D02*
X22605900Y13472800D01*
X22605900Y13472800D02*
X21564500Y13269600D01*
X21564500Y13269600D02*
X21564500Y12355200D01*
X21564500Y12355200D02*
X22580500Y12177400D01*
X22580500Y12177400D02*
X22936100Y11263000D01*
X22936100Y11263000D02*
X22351900Y10424800D01*
X22351900Y10424800D02*
X22986900Y9789800D01*
X22986900Y9789800D02*
X23799700Y10348600D01*
X23799700Y10348600D02*
X24180700Y10120000D01*
X24180700Y10120000D02*
X24815700Y11720200D01*
X25958700Y11720200D02*
X26593700Y10120000D01*
X26593700Y10120000D02*
X26949300Y10348600D01*
X26949300Y10348600D02*
X27762100Y9789800D01*
X27762100Y9789800D02*
X28422500Y10424800D01*
X28422500Y10424800D02*
X27838300Y11263000D01*
X27838300Y11263000D02*
X28193900Y12177400D01*
X28193900Y12177400D02*
X29209900Y12355200D01*
X29209900Y12355200D02*
X29209900Y13269600D01*
X24815701Y11720199D02*
G75*
G02X25984100Y11720200I584199J1068900D01*
G01*
X30837300Y8518001D02*
G75*
G02X30911700Y8338400I-179601J-179611D01*
G01*
X30837300Y8518000D02*
X30833700Y8521600D01*
X30654101Y8596000D02*
G75*
G02X30833700Y8521600I30J-253899D01*
G01*
X30654100Y8596000D02*
X30585100Y8596000D01*
X30405500Y8521601D02*
G75*
G02X30585100Y8596000I179568J-179500D01*
G01*
X30405500Y8521600D02*
X30401900Y8518000D01*
X30327500Y8338400D02*
G75*
G02X30401900Y8518000I254000J-10D01*
G01*
X30327500Y8338400D02*
X30327500Y7990000D01*
X30401901Y7810400D02*
G75*
G02X30327500Y7990000I179599J179611D01*
G01*
X30401900Y7810400D02*
X30405500Y7806800D01*
X30585100Y7732401D02*
G75*
G02X30405500Y7806800I-32J253899D01*
G01*
X30585100Y7732400D02*
X30654100Y7732400D01*
X30833700Y7806800D02*
G75*
G02X30654100Y7732400I-179569J179500D01*
G01*
X30833700Y7806800D02*
X30837300Y7810400D01*
X30911700Y7990001D02*
G75*
G02X30837300Y7810400I-254001J10D01*
G01*
X30911700Y7990000D02*
X30911700Y8338400D01*
X29921100Y8342000D02*
X29921100Y8338400D01*
X29921100Y7990000D02*
X29921100Y7376800D01*
X29846700Y8518001D02*
G75*
G02X29921100Y8338400I-179601J-179611D01*
G01*
X29846700Y8518000D02*
X29843100Y8521600D01*
X29663501Y8596000D02*
G75*
G02X29843100Y8521600I30J-253899D01*
G01*
X29663500Y8596000D02*
X29594500Y8596000D01*
X29414900Y8521601D02*
G75*
G02X29594500Y8596000I179568J-179500D01*
G01*
X29414900Y8521600D02*
X29411300Y8518000D01*
X29336900Y8338400D02*
G75*
G02X29411300Y8518000I254000J-10D01*
G01*
X29336900Y8338400D02*
X29336900Y7990000D01*
X29411301Y7810400D02*
G75*
G02X29336900Y7990000I179599J179611D01*
G01*
X29411300Y7810400D02*
X29414900Y7806800D01*
X29594500Y7732401D02*
G75*
G02X29414900Y7806800I-32J253899D01*
G01*
X29594500Y7732400D02*
X29663500Y7732400D01*
X29843100Y7806800D02*
G75*
G02X29663500Y7732400I-179569J179500D01*
G01*
X29843100Y7806800D02*
X29846700Y7810400D01*
X29921100Y7990001D02*
G75*
G02X29846700Y7810400I-254001J10D01*
G01*
X29921100Y7990000D02*
X29921100Y8338400D01*
X28906900Y8518001D02*
G75*
G02X28981300Y8338400I-179601J-179611D01*
G01*
X28906900Y8518000D02*
X28903300Y8521600D01*
X28723701Y8596000D02*
G75*
G02X28903300Y8521600I30J-253899D01*
G01*
X28723700Y8596000D02*
X28654700Y8596000D01*
X28475100Y8521601D02*
G75*
G02X28654700Y8596000I179568J-179500D01*
G01*
X28475100Y8521600D02*
X28471500Y8518000D01*
X28422500Y8389200D02*
G75*
G02X28471500Y8518000I180000J5243D01*
G01*
X28471501Y7810400D02*
G75*
G02X28422500Y7939200I130999J123558D01*
G01*
X28471500Y7810400D02*
X28475100Y7806800D01*
X28654700Y7732401D02*
G75*
G02X28475100Y7806800I-32J253899D01*
G01*
X28654700Y7732400D02*
X28723700Y7732400D01*
X28903300Y7806800D02*
G75*
G02X28723700Y7732400I-179569J179500D01*
G01*
X28903300Y7806800D02*
X28906900Y7810400D01*
X28981300Y7990001D02*
G75*
G02X28906900Y7810400I-254001J10D01*
G01*
X28981300Y7990000D02*
X28981300Y8338400D01*
X28422500Y8367400D02*
X28959500Y8037200D01*
X27967100Y8518001D02*
G75*
G02X28041500Y8338400I-179601J-179611D01*
G01*
X27967100Y8518000D02*
X27963500Y8521600D01*
X27783901Y8596000D02*
G75*
G02X27963500Y8521600I30J-253899D01*
G01*
X27783900Y8596000D02*
X27714900Y8596000D01*
X27535300Y8521601D02*
G75*
G02X27714900Y8596000I179568J-179500D01*
G01*
X27535300Y8521600D02*
X27531700Y8518000D01*
X27457300Y8338400D02*
G75*
G02X27531700Y8518000I254000J-10D01*
G01*
X27457300Y8338400D02*
X27457300Y7736000D01*
X28041500Y7837600D02*
X28041500Y8338400D01*
D13*
X26542900Y7681600D02*
X26542900Y8392800D01*
X26542900Y8392800D02*
X26542900Y8951600D01*
X26009500Y7681600D02*
X26009500Y8303500D01*
X26112899Y8521601D02*
G75*
G03X26009500Y8303500I211001J-233595D01*
G01*
X26241700Y8570599D02*
G75*
G03X26112900Y8521600I-5319J-179799D01*
G01*
X26241700Y8570600D02*
X26310700Y8570600D01*
X26490300Y8470800D02*
G75*
G03X26310700Y8570600I-210272J-166900D01*
G01*
X26490300Y8470800D02*
X26542900Y8392800D01*
X25120500Y7681600D02*
X25120500Y8265800D01*
X25120500Y8265800D02*
X25120500Y8303500D01*
X25223899Y8521601D02*
G75*
G03X25120500Y8303500I211001J-233595D01*
G01*
X25352700Y8570600D02*
G75*
G03X25223900Y8521600I-5318J-179800D01*
G01*
X25352700Y8570600D02*
X25421700Y8570600D01*
X25601300Y8470800D02*
G75*
G03X25421700Y8570600I-210271J-166900D01*
G01*
X25601300Y8470800D02*
X25653900Y8392800D01*
X25679299Y7808599D02*
G75*
G03X25526900Y8088000I-215900J63501D01*
G01*
X25501500Y7681600D02*
G75*
G03X25679300Y7808600I25400J152400D01*
G01*
X25501500Y7681600D02*
X25323700Y7707000D01*
X25526900Y8088000D02*
X25120500Y8265800D01*
X24737700Y8470800D02*
X24769800Y8412000D01*
X24790300Y8269100D02*
G75*
G03X24769800Y8412000I-508700J-56D01*
G01*
X24790300Y8269100D02*
X24790300Y7681600D01*
X24737700Y8470800D02*
G75*
G03X24558100Y8570600I-210271J-166900D01*
G01*
X24514500Y8570600D02*
X24558100Y8570600D01*
X24514500Y8570600D02*
G75*
G03X24385700Y8521600I-5318J-179800D01*
G01*
X24383900Y8519800D02*
X24357400Y8493300D01*
X24290600Y8375199D02*
G75*
G02X24357400Y8493300I246701J-61596D01*
G01*
X24290600Y8375200D02*
X24282300Y8316600D01*
X23977500Y8269100D02*
G75*
G03X23957000Y8412000I-508700J-56D01*
G01*
X23924900Y8470800D02*
X23957000Y8412000D01*
X23924900Y8470800D02*
G75*
G03X23745300Y8570600I-210271J-166900D01*
G01*
X23676300Y8570600D02*
X23719900Y8570600D01*
X23676300Y8570600D02*
G75*
G03X23547500Y8521600I-5318J-179800D01*
G01*
X23477800Y8400599D02*
G75*
G02X23544600Y8518700I246701J-61596D01*
G01*
X23977500Y8269100D02*
X23977500Y7919400D01*
X23950700Y7805801D02*
G75*
G03X23977500Y7919400I-227199J113561D01*
G01*
X23749700Y7681600D02*
G75*
G03X23950700Y7805800I28J224700D01*
G01*
X23749700Y7681600D02*
X23710800Y7681600D01*
X23507600Y7783201D02*
G75*
G03X23710800Y7681600I203201J152400D01*
G01*
X23469500Y7897500D02*
G75*
G03X23507600Y7783200I190200J-100D01*
G01*
X23469500Y7897500D02*
X23469500Y8951600D01*
X23139300Y8573900D02*
X23139300Y7919400D01*
X23112500Y7805801D02*
G75*
G03X23139300Y7919400I-227199J113561D01*
G01*
X22911500Y7681600D02*
G75*
G03X23112500Y7805800I28J224700D01*
G01*
X22911500Y7681600D02*
X22872600Y7681600D01*
X22669400Y7783201D02*
G75*
G03X22872600Y7681600I203201J152400D01*
G01*
X22631300Y7897500D02*
G75*
G03X22669400Y7783200I190200J-100D01*
G01*
X22631300Y8570600D02*
X22631300Y7897500D01*
X22631300Y7897500D02*
X22631300Y7894000D01*
X22604500Y7780401D02*
G75*
G03X22631300Y7894000I-227199J113561D01*
G01*
X22403500Y7656200D02*
G75*
G03X22604500Y7780400I28J224700D01*
G01*
X22403500Y7656200D02*
X22364600Y7656200D01*
X22161400Y7757801D02*
G75*
G03X22364600Y7656200I203201J152400D01*
G01*
X22123300Y7872100D02*
G75*
G03X22161400Y7757800I190200J-100D01*
G01*
X22123300Y7872100D02*
X22123300Y8570600D01*
X21234300Y7681600D02*
X21234300Y8265800D01*
X21234300Y8265800D02*
X21234300Y8303500D01*
X21337700Y8521601D02*
G75*
G03X21234300Y8303500I211001J-233595D01*
G01*
X21466500Y8570600D02*
G75*
G03X21337700Y8521600I-5318J-179800D01*
G01*
X21466500Y8570600D02*
X21535500Y8570600D01*
X21715100Y8470800D02*
G75*
G03X21535500Y8570600I-210271J-166900D01*
G01*
X21715100Y8470800D02*
X21767700Y8392800D01*
X21793100Y7808600D02*
G75*
G03X21640700Y8088000I-215900J63500D01*
G01*
X21615300Y7681600D02*
G75*
G03X21793100Y7808600I25400J152400D01*
G01*
X21615300Y7681600D02*
X21437500Y7707000D01*
X21640700Y8088000D02*
X21234300Y8265800D01*
X20851500Y8470800D02*
X20883600Y8412000D01*
X20904100Y8269100D02*
G75*
G03X20883600Y8412000I-508700J-56D01*
G01*
X20904100Y8269100D02*
X20904100Y7681600D01*
X20851500Y8470800D02*
G75*
G03X20671900Y8570600I-210271J-166900D01*
G01*
X20628300Y8570600D02*
X20671900Y8570600D01*
X20628300Y8570600D02*
G75*
G03X20499500Y8521600I-5318J-179800D01*
G01*
X20497700Y8519800D02*
X20471200Y8493300D01*
X20404400Y8375199D02*
G75*
G02X20471200Y8493300I246701J-61596D01*
G01*
X20404400Y8375200D02*
X20396100Y8316600D01*
X20015100Y8269100D02*
G75*
G03X19994600Y8412000I-508700J-56D01*
G01*
X19962500Y8470800D02*
X19994600Y8412000D01*
X19962500Y8470800D02*
G75*
G03X19782900Y8570600I-210271J-166900D01*
G01*
X19713900Y8570600D02*
X19757500Y8570600D01*
X19713900Y8570600D02*
G75*
G03X19585100Y8521600I-5318J-179800D01*
G01*
X19515400Y8400599D02*
G75*
G02X19582200Y8518700I246701J-61596D01*
G01*
X20015100Y8269100D02*
X20015100Y8011800D01*
X20015100Y8011800D02*
X20015100Y7919400D01*
X19988300Y7805801D02*
G75*
G03X20015100Y7919400I-227199J113561D01*
G01*
X19787300Y7681600D02*
G75*
G03X19988300Y7805800I28J224700D01*
G01*
X19787300Y7681600D02*
X19748400Y7681600D01*
X19545200Y7783201D02*
G75*
G03X19748400Y7681600I203201J152400D01*
G01*
X19507100Y7897500D02*
G75*
G03X19545200Y7783200I190200J-100D01*
G01*
X20015100Y8011800D02*
X19507100Y8240400D01*
X19507100Y8240400D02*
X19507100Y8356900D01*
X19532499Y8443600D02*
G75*
G03X19507100Y8356900I91701J-73935D01*
G01*
D10*
G36*
X27838300Y15682600D02*
X28244700Y15225400D01*
X27660500Y14336400D01*
X28016100Y13371200D01*
X29032100Y13142600D01*
X29032100Y12456800D01*
X28143100Y12253600D01*
X27711300Y11288400D01*
X28244700Y10399400D01*
X27762100Y9993000D01*
X26974700Y10501000D01*
X26695300Y10323200D01*
X26161900Y11694800D01*
X26669900Y12304400D01*
X26796900Y13091800D01*
X26390500Y13803000D01*
X25552300Y14209400D01*
X24764900Y14057000D01*
X24282300Y13650600D01*
X24053700Y13015600D01*
X24053700Y12507600D01*
X24409300Y11821800D01*
X24637900Y11669400D01*
X24129900Y10348600D01*
X23825100Y10501000D01*
X23063100Y10018400D01*
X22986900Y9967600D01*
X22529700Y10475600D01*
X23113900Y11313800D01*
X22682100Y12279000D01*
X21691500Y12482200D01*
X21691500Y13193400D01*
X22758300Y13422000D01*
X23113900Y14412600D01*
X22504300Y15200000D01*
X22961500Y15682600D01*
X23901300Y15022200D01*
X24841100Y15504800D01*
X25069700Y16571600D01*
X25730100Y16546200D01*
X25933300Y15530200D01*
X26771500Y15123800D01*
X26923900Y15022200D01*
X27482700Y15454000D01*
X27762100Y15708000D01*
X27838300Y15682600D01*
G37*
D14*
X49911000Y16002000D02*
X49911000Y15748000D01*
X49911000Y15748000D02*
X48895000Y15748000D01*
X48895000Y16002000D02*
X48895000Y15748000D01*
X49911000Y16002000D02*
X48895000Y16002000D01*
D13*
X48514000Y16510000D02*
X48514000Y13970000D01*
X50292000Y13970000D02*
X50292000Y16510000D01*
X48768000Y16510000D02*
X48514000Y16510000D01*
X48514000Y13970000D02*
X48768000Y13970000D01*
X50292000Y16510000D02*
X50038000Y16510000D01*
X50292000Y13970000D02*
X50038000Y13970000D01*
G36*
X48895000Y14732000D02*
X49911000Y14732000D01*
X49403000Y15748000D01*
X48895000Y14732000D01*
X48895000Y14732000D01*
G37*
X48895000Y14732000D02*
X49911000Y14732000D01*
X49403000Y15748000D01*
X48895000Y14732000D01*
M02*
