G04 #@! TF.FileFunction,Copper,L1,Top,Signal*
%FSLAX46Y46*%
G04 Gerber Fmt 4.6, Leading zero omitted, Abs format (unit mm)*
G04 Created by KiCad (PCBNEW 4.0.7-e2-6376~58~ubuntu16.04.1) date Sat Jan 13 19:34:28 2018*
%MOMM*%
%LPD*%
G01*
G04 APERTURE LIST*
%ADD10C,0.100000*%
%ADD11R,1.524000X1.524000*%
%ADD12C,1.524000*%
%ADD13C,0.609600*%
%ADD14R,0.635000X0.889000*%
%ADD15R,0.889000X0.635000*%
%ADD16R,1.016000X1.016000*%
%ADD17R,0.800000X0.550000*%
%ADD18R,0.550000X0.800000*%
%ADD19R,2.235200X1.219200*%
%ADD20R,2.200000X3.600000*%
%ADD21R,0.762000X1.016000*%
%ADD22R,0.625000X0.575000*%
%ADD23R,0.325000X0.700000*%
%ADD24R,1.198880X0.299720*%
%ADD25R,0.299720X1.198880*%
%ADD26R,2.700000X1.500000*%
%ADD27R,1.016000X0.762000*%
%ADD28R,1.399540X0.698500*%
%ADD29R,1.148080X0.398780*%
%ADD30O,2.300000X1.400000*%
%ADD31R,0.548640X0.797560*%
%ADD32R,1.150000X1.400000*%
%ADD33R,0.899160X0.949960*%
%ADD34C,0.152300*%
%ADD35C,0.457100*%
%ADD36C,0.152400*%
%ADD37C,0.304600*%
%ADD38C,0.304800*%
%ADD39C,0.406400*%
%ADD40C,0.457200*%
%ADD41C,0.405806*%
G04 APERTURE END LIST*
D10*
D11*
X50800000Y19049200D03*
D12*
X48260000Y19049200D03*
X45720000Y19049200D03*
X43180000Y19049200D03*
X40640000Y19049200D03*
X38100000Y19049200D03*
X35560000Y19049200D03*
X33020000Y19049200D03*
X30480000Y19049200D03*
X27940000Y19049200D03*
X25400000Y19049200D03*
X22860000Y19049200D03*
X20320000Y19049200D03*
X17780000Y19049200D03*
X15240000Y19049200D03*
X12700000Y19049200D03*
X10160000Y19049200D03*
X7620000Y19049200D03*
X5080000Y19049200D03*
X2540000Y19049200D03*
D11*
X50800000Y3809200D03*
D12*
X48260000Y3809200D03*
X45720000Y3809200D03*
X43180000Y3809200D03*
X40640000Y3809200D03*
X38100000Y3809200D03*
X35560000Y3809200D03*
X33020000Y3809200D03*
X30480000Y3809200D03*
X27940000Y3809200D03*
X25400000Y3809200D03*
X22860000Y3809200D03*
X20320000Y3809200D03*
X17780000Y3809200D03*
X15240000Y3809200D03*
X12700000Y3809200D03*
X10160000Y3809200D03*
X7620000Y3809200D03*
X5080000Y3809200D03*
X2540000Y3809200D03*
D13*
X1270000Y1269200D03*
X3810000Y1269200D03*
X6350000Y1269200D03*
X8890000Y1269200D03*
X11430000Y1269200D03*
X13970000Y1269200D03*
X16510000Y1269200D03*
X19050000Y1269200D03*
X21590000Y1269200D03*
X24130000Y1269200D03*
X26670000Y1269200D03*
X29210000Y1269200D03*
X31750000Y1269200D03*
X34290000Y1269200D03*
X36830000Y1269200D03*
X39370000Y1269200D03*
X41910000Y1269200D03*
X44450000Y1269200D03*
X46990000Y1269200D03*
X49530000Y1269200D03*
X52070000Y1269200D03*
X3810000Y3809200D03*
X11430000Y3809200D03*
X16510000Y3809200D03*
X21590000Y3809200D03*
X24130000Y3809200D03*
X26670000Y3809200D03*
X29210000Y3809200D03*
X31750000Y3809200D03*
X39370000Y3809200D03*
X44450000Y3809200D03*
X46990000Y19049200D03*
X44450000Y19049200D03*
X31750000Y19049200D03*
X29210000Y19049200D03*
X26670000Y19049200D03*
X24130000Y19049200D03*
X21590000Y19049200D03*
X6350000Y19049200D03*
X3810000Y20065200D03*
X13970000Y12699200D03*
X15087600Y11430000D03*
X14097000Y11430000D03*
X1270000Y21589200D03*
X3810000Y21589200D03*
X6350000Y21589200D03*
X8890000Y21589200D03*
X11430000Y21589200D03*
X13970000Y21589200D03*
X16510000Y21589200D03*
X19050000Y21589200D03*
X21590000Y21589200D03*
X24130000Y21589200D03*
X26670000Y21589200D03*
X29210000Y21589200D03*
X31750000Y21589200D03*
X34290000Y21589200D03*
X36830000Y21589200D03*
X39370000Y21589200D03*
X41910000Y21589200D03*
X44450000Y21589200D03*
X46990000Y21589200D03*
X49530000Y21589200D03*
X52070000Y21589200D03*
X28397100Y13371200D03*
X27939900Y10170800D03*
X41910000Y11430000D03*
X41910000Y12699200D03*
X43180000Y10159200D03*
X41910000Y10159200D03*
X41910000Y8889200D03*
X41910000Y7619200D03*
X39370000Y11429200D03*
X14935200Y10160000D03*
X14097000Y10160000D03*
X8077200Y7772400D03*
X34797900Y15860400D03*
X17830800Y6704800D03*
D14*
X19431000Y5968200D03*
X18161000Y5968200D03*
X18161000Y7238200D03*
X19431000Y7238200D03*
D15*
X9525000Y6985000D03*
X9525000Y5715000D03*
X15621000Y6985000D03*
X15621000Y5715000D03*
D14*
X9525000Y13842200D03*
X8255000Y13842200D03*
X18034000Y15875000D03*
X19304000Y15875000D03*
X19431000Y17144200D03*
X18161000Y17144200D03*
D15*
X33908900Y16139800D03*
X33908900Y17409800D03*
X34416900Y13599800D03*
X34416900Y14869800D03*
D14*
X35178900Y17409800D03*
X36448900Y17409800D03*
X37465000Y10794200D03*
X38735000Y10794200D03*
X37465000Y9524200D03*
X38735000Y9524200D03*
X35179000Y5714200D03*
X33909000Y5714200D03*
X36195000Y6985000D03*
X37465000Y6985000D03*
X36195000Y8255000D03*
X37465000Y8255000D03*
X44068900Y5725800D03*
X45338900Y5725800D03*
X41782900Y17155800D03*
X40512900Y17155800D03*
X14224000Y17145000D03*
X15494000Y17145000D03*
D15*
X9525000Y8635200D03*
X9525000Y9905200D03*
X8255000Y9905200D03*
X8255000Y8635200D03*
D14*
X8255000Y11251400D03*
X9525000Y11251400D03*
X8255000Y12521400D03*
X9525000Y12521400D03*
X11684000Y17145000D03*
X12954000Y17145000D03*
D15*
X16764000Y17145000D03*
X16764000Y15875000D03*
D14*
X18288000Y14604200D03*
X17018000Y14604200D03*
X37718900Y5725800D03*
X36448900Y5725800D03*
X40258900Y5725800D03*
X38988900Y5725800D03*
X41528900Y5725800D03*
X42798900Y5725800D03*
X44323000Y17144200D03*
X43053000Y17144200D03*
D15*
X45085000Y11303000D03*
X45085000Y12573000D03*
D16*
X44831000Y9016200D03*
X44831000Y7492200D03*
D17*
X10344000Y15306000D03*
X10344000Y16256000D03*
X10344000Y17206000D03*
X7944000Y17206000D03*
X7944000Y15306000D03*
D18*
X37149900Y13669800D03*
X38099900Y13669800D03*
X39049900Y13669800D03*
X39049900Y16069800D03*
X37149900Y16069800D03*
D19*
X11379200Y13232600D03*
X11379200Y10921200D03*
X11379200Y8609800D03*
D20*
X17577000Y10921200D03*
D21*
X35686900Y16012800D03*
X35686900Y14234800D03*
D11*
X47066200Y15239200D03*
D12*
X47066200Y12699200D03*
X47066200Y10159200D03*
X47066200Y7619200D03*
D22*
X40322500Y15797200D03*
X40322500Y14172700D03*
X43497500Y15797200D03*
X43497500Y14173200D03*
D23*
X40197500Y14985200D03*
X43622500Y14985200D03*
D22*
X40322500Y8685200D03*
X40322500Y7060700D03*
X43497500Y8685200D03*
X43497500Y7061200D03*
D23*
X40197500Y7873200D03*
X43622500Y7873200D03*
D24*
X32418020Y7680160D03*
X32418020Y8180540D03*
X32418020Y8680920D03*
X32418020Y9181300D03*
X32418020Y9681680D03*
X32418020Y10179520D03*
X32418020Y10679900D03*
X32418020Y11180280D03*
X32418020Y11678120D03*
X32418020Y12178500D03*
X32418020Y12678880D03*
X32418020Y13179260D03*
X32418020Y13677100D03*
X32418020Y14177480D03*
X32418020Y14677860D03*
X32418020Y15178240D03*
D25*
X30419040Y17177220D03*
X29918660Y17177220D03*
X29418280Y17177220D03*
X28917900Y17177220D03*
X28420060Y17177220D03*
X27919680Y17177220D03*
X27419300Y17177220D03*
X26918920Y17177220D03*
X26421080Y17177220D03*
X25920700Y17177220D03*
X25420320Y17177220D03*
X24922480Y17177220D03*
X24422100Y17177220D03*
X23921720Y17177220D03*
X23421340Y17177220D03*
X22920960Y17177220D03*
D24*
X20921980Y15178240D03*
X20921980Y14677860D03*
X20921980Y14177480D03*
X20921980Y13677100D03*
X20921980Y13179260D03*
X20921980Y12678880D03*
X20921980Y12178500D03*
X20921980Y11678120D03*
X20921980Y11180280D03*
X20921980Y10679900D03*
X20921980Y10179520D03*
X20921980Y9681680D03*
X20921980Y9181300D03*
X20921980Y8680920D03*
X20921980Y8180540D03*
X20921980Y7680160D03*
D25*
X22920960Y5681180D03*
X23421340Y5681180D03*
X23921720Y5681180D03*
X24422100Y5681180D03*
X24922480Y5681180D03*
X25420320Y5681180D03*
X25920700Y5681180D03*
X26421080Y5681180D03*
X26918920Y5681180D03*
X27419300Y5681180D03*
X27919680Y5681180D03*
X28420060Y5681180D03*
X28917900Y5681180D03*
X29418280Y5681180D03*
X29918660Y5681180D03*
X30419040Y5681180D03*
D26*
X35052000Y11871200D03*
X35052000Y9971200D03*
D27*
X37642700Y12329800D03*
X39420700Y12329800D03*
D28*
X34417000Y6869900D03*
X34417000Y8368500D03*
D13*
X36829900Y19060800D03*
D29*
X5834380Y12727140D03*
X5834380Y12076900D03*
X5834380Y11429200D03*
X5834380Y10781500D03*
X5834380Y10131260D03*
D30*
X1750060Y16278060D03*
X1750060Y6580340D03*
X5049520Y16278060D03*
X5049520Y6580340D03*
D15*
X10795000Y5715000D03*
X10795000Y6985000D03*
X43815000Y11303000D03*
X43815000Y12573000D03*
D14*
X46837600Y17145000D03*
X45567600Y17145000D03*
D15*
X16891000Y7239000D03*
X16891000Y5969000D03*
D13*
X16357600Y6400800D03*
D31*
X45280580Y14061440D03*
X44381420Y14061440D03*
X44381420Y15656560D03*
X45280580Y15656560D03*
D32*
X14108000Y6604000D03*
X12308000Y6604000D03*
D13*
X14274800Y16052800D03*
D15*
X8128000Y5715000D03*
X8128000Y6985000D03*
D13*
X11963400Y9702800D03*
D14*
X46608900Y5725800D03*
X47878900Y5725800D03*
D13*
X21691500Y15809600D03*
X32359500Y16622400D03*
X37388700Y17079600D03*
X50393500Y5700400D03*
X51053900Y9307200D03*
X50088700Y11339200D03*
D33*
X12014200Y15367000D03*
X15163800Y15367000D03*
D13*
X30530700Y6970400D03*
X8686800Y13411200D03*
X11048900Y16317600D03*
X6413500Y14121600D03*
X6413500Y13512000D03*
X7327900Y6349200D03*
X6718300Y6425400D03*
X14020800Y14935200D03*
X14630400Y14935200D03*
X52273100Y18908400D03*
X52273100Y19518000D03*
X37185500Y15403200D03*
X35458400Y7593800D03*
X35585400Y8381200D03*
X39319200Y18592800D03*
X39471500Y19975200D03*
X6400700Y9002400D03*
X6400700Y8392800D03*
X10972700Y14336400D03*
X10363100Y14336400D03*
X41757600Y14782800D03*
X41757600Y15392400D03*
X39827200Y14198600D03*
X31089600Y10057600D03*
X14935200Y6096000D03*
X31089500Y8850000D03*
X31089500Y14031600D03*
X31089600Y14934400D03*
X32461200Y15696400D03*
X28346300Y16012800D03*
X27990700Y15327000D03*
X26238100Y15987400D03*
X25476100Y15860400D03*
X24383900Y16165200D03*
X23469600Y15848800D03*
X29565500Y7757800D03*
X29260800Y7009600D03*
X27889100Y7757800D03*
X27584400Y6857200D03*
X27127200Y7466800D03*
X26365200Y6704800D03*
X22936200Y8228800D03*
X23622000Y8686000D03*
X23621900Y9459600D03*
X8839200Y3657600D03*
X23164700Y10069200D03*
X15087600Y12954000D03*
X15544800Y16306800D03*
X22707500Y10678800D03*
X24561700Y11288400D03*
X24384000Y12038800D03*
X12954000Y13258800D03*
X8229600Y4876800D03*
X7175500Y5485600D03*
X13563600Y13868400D03*
X23317200Y6857200D03*
X23469600Y7619200D03*
X26670000Y10057600D03*
X25908000Y9752800D03*
X25450800Y7771600D03*
X25755600Y8533600D03*
X24892000Y8381200D03*
X15544800Y7772400D03*
X24231600Y7771600D03*
X31089500Y11440800D03*
X31089500Y12355200D03*
X31089500Y13244200D03*
X26822300Y15403200D03*
X31699100Y15860400D03*
X24993500Y12507600D03*
X28955900Y15555600D03*
X22250400Y12191200D03*
X37033100Y4887600D03*
X28803600Y7619200D03*
X28041500Y10983600D03*
X16306800Y17753800D03*
X51206300Y16520800D03*
X51206300Y11898000D03*
X51206300Y17130400D03*
X51206300Y11288400D03*
X32207100Y6868800D03*
X48767900Y5344800D03*
X28041500Y14184000D03*
D34*
X29918660Y5681180D02*
X29918660Y6307560D01*
X30530700Y6919600D02*
X30530700Y6970400D01*
X29918660Y6307560D02*
X30530700Y6919600D01*
D35*
X8686800Y13411200D02*
X8255800Y13842200D01*
X10344000Y16256000D02*
X10998100Y16266800D01*
X10998100Y16266800D02*
X11048900Y16317600D01*
X8255000Y13842200D02*
X8255800Y13842200D01*
D36*
X15621000Y6985000D02*
X15773400Y6985000D01*
X15773400Y6985000D02*
X16357600Y6400800D01*
D34*
X39420800Y11480000D02*
X39370000Y11429200D01*
X18161000Y7238200D02*
X18161000Y7035000D01*
D37*
X18161000Y7035000D02*
X17830800Y6704800D01*
D36*
X46456600Y14629600D02*
X47066200Y15239200D01*
D35*
X45872300Y5725800D02*
X45872300Y8850000D01*
X48310700Y9764400D02*
X47396300Y8850000D01*
X47396300Y8850000D02*
X45872300Y8850000D01*
X49529950Y20116050D02*
X49529950Y11745650D01*
X48310700Y10526400D02*
X49529950Y11745650D01*
X48310700Y9764400D02*
X48310700Y10526400D01*
X45872300Y8850000D02*
X44997200Y8850000D01*
X44997200Y8850000D02*
X44831000Y9016200D01*
X46608900Y5725800D02*
X45872300Y5725800D01*
X45872300Y5725800D02*
X45338900Y5725800D01*
X47091500Y3351900D02*
X47091500Y5243200D01*
X47091500Y5243200D02*
X46608900Y5725800D01*
X46608900Y5725800D02*
X46608900Y5675000D01*
X34289900Y20725600D02*
X34289900Y17790800D01*
X34289900Y17790800D02*
X33908900Y17409800D01*
X29717900Y16128300D02*
X30747800Y16128300D01*
X30747800Y16128300D02*
X32029300Y17409800D01*
X32029300Y17409800D02*
X33908900Y17409800D01*
X35178900Y17409800D02*
X33908900Y17409800D01*
X35178900Y17409800D02*
X35178900Y16800200D01*
X35178900Y16800200D02*
X35686900Y16292200D01*
X35686900Y16292200D02*
X35686900Y16012800D01*
X9525000Y6985000D02*
X10795000Y6985000D01*
X19431000Y5968200D02*
X19685000Y5968200D01*
X19685000Y5968200D02*
X20193000Y6476200D01*
D38*
X20193000Y7365200D02*
X20507000Y7679200D01*
D39*
X20193000Y7365200D02*
X20193000Y6476200D01*
D35*
X9525000Y8635200D02*
X11353800Y8635200D01*
X11353800Y8635200D02*
X11379200Y8609800D01*
X14020800Y2692400D02*
X14020800Y4216400D01*
X14630400Y2082800D02*
X14020800Y2692400D01*
D40*
X19050000Y2094040D02*
X14630400Y2082800D01*
D35*
X14020800Y4216400D02*
X12308840Y5979160D01*
X19050000Y2094040D02*
X19050000Y5130800D01*
X19431000Y5511800D02*
X19431000Y5968200D01*
X19050000Y5130800D02*
X19431000Y5511800D01*
X9525000Y6985000D02*
X9525000Y8635200D01*
X10795000Y6985000D02*
X11927840Y6985000D01*
X11927840Y6985000D02*
X12308840Y6604000D01*
X12308840Y6604000D02*
X12308840Y5979160D01*
D34*
X44323000Y17144200D02*
X44323000Y16891000D01*
X44323000Y16891000D02*
X45280580Y15933420D01*
X45280580Y15933420D02*
X45280580Y15656560D01*
X43534800Y17932400D02*
X44323000Y17144200D01*
D38*
X20920000Y7679200D02*
X20507000Y7679200D01*
D40*
X7620000Y19049200D02*
X7620000Y19506400D01*
X7620000Y19506400D02*
X8839200Y20725600D01*
X19431000Y17144200D02*
X19431000Y17753800D01*
D38*
X29413200Y17172400D02*
X29420000Y17179200D01*
X22920000Y17179200D02*
X22859600Y17179200D01*
X30632400Y5714200D02*
X30420000Y5714200D01*
X30420000Y5714200D02*
X30420000Y5679200D01*
D40*
X22767600Y17271200D02*
X19558000Y17271200D01*
X19558000Y17271200D02*
X19431000Y17144200D01*
D38*
X22859600Y17179200D02*
X22767600Y17271200D01*
D36*
X43497500Y8685200D02*
X44500000Y8685200D01*
X44500000Y8685200D02*
X44831000Y9016200D01*
D40*
X30632400Y5714200D02*
X33909000Y5714200D01*
X33909000Y5714200D02*
X33909000Y4799800D01*
D38*
X29420000Y17179200D02*
X29420000Y16426200D01*
X29420000Y16426200D02*
X29717900Y16128300D01*
D40*
X19050000Y2094040D02*
X34290000Y2132800D01*
X34290000Y2132800D02*
X45872400Y2132800D01*
X45872400Y2132800D02*
X47091500Y3351900D01*
X34290000Y4418800D02*
X34290000Y2132800D01*
X33909000Y4799800D02*
X34290000Y4418800D01*
X34289900Y20725600D02*
X41757600Y20725600D01*
X41757600Y20725600D02*
X48920400Y20725600D01*
X48920400Y20725600D02*
X49529950Y20116050D01*
D34*
X41757600Y18999200D02*
X41757600Y20725600D01*
D40*
X19050000Y20725600D02*
X34289900Y20725600D01*
D34*
X42824400Y17932400D02*
X41757600Y18999200D01*
D40*
X8839200Y20725600D02*
X19050000Y20725600D01*
X19050000Y18134800D02*
X19050000Y20725600D01*
D34*
X42824400Y17932400D02*
X43534800Y17932400D01*
D40*
X19431000Y17753800D02*
X19050000Y18134800D01*
D35*
X7944000Y15306000D02*
X7445500Y15306000D01*
X7445500Y15306000D02*
X6413500Y14274000D01*
X6413500Y14274000D02*
X6413500Y14121600D01*
X6413500Y13512000D02*
X6413500Y14121600D01*
X8128000Y5715000D02*
X7962100Y5715000D01*
X7962100Y5715000D02*
X7327900Y6349200D01*
X7327900Y6349200D02*
X6794500Y6349200D01*
X6794500Y6349200D02*
X6718300Y6425400D01*
X14630400Y14935200D02*
X14020800Y14935200D01*
X14630400Y14935200D02*
X15163800Y15316200D01*
X15163800Y15316200D02*
X15163800Y15367000D01*
X38099900Y13669800D02*
X38099900Y12787000D01*
X38099900Y12787000D02*
X37642700Y12329800D01*
D37*
X34416900Y13599800D02*
X34416900Y13447400D01*
D35*
X34416900Y13447400D02*
X34594700Y13269600D01*
D41*
X36271100Y13269600D02*
X37210900Y12329800D01*
D35*
X34594700Y13269600D02*
X36271100Y13269600D01*
D37*
X37210900Y12329800D02*
X37642700Y12329800D01*
X32418020Y13179260D02*
X33996360Y13179260D01*
X33996360Y13179260D02*
X34416900Y13599800D01*
D35*
X52273100Y18908400D02*
X52273100Y5434700D01*
X52273100Y5434700D02*
X50800000Y3961600D01*
X52273100Y18908400D02*
X52273100Y19518000D01*
X37149900Y16069800D02*
X37149900Y15438800D01*
X37149900Y15438800D02*
X37185500Y15403200D01*
X37185500Y15403200D02*
X35864700Y14234800D01*
X35686900Y14234800D02*
X35864700Y14234800D01*
X34416900Y14869800D02*
X34518500Y14869800D01*
X34518500Y14869800D02*
X35153500Y14234800D01*
X35153500Y14234800D02*
X35686900Y14234800D01*
D37*
X32418020Y13677100D02*
X33173400Y13677100D01*
X33908900Y14869800D02*
X34416900Y14869800D01*
X33527900Y14488800D02*
X33908900Y14869800D01*
X33527900Y14031600D02*
X33527900Y14488800D01*
X33173400Y13677100D02*
X33527900Y14031600D01*
D35*
X50800000Y3961600D02*
X50800000Y3860800D01*
D34*
X35458400Y7593800D02*
X35534600Y7593800D01*
X35534600Y7593800D02*
X36017200Y6985000D01*
X36017200Y6985000D02*
X36195000Y6985000D01*
X35458400Y7593800D02*
X34734500Y6869900D01*
X34417000Y6869900D02*
X34734500Y6869900D01*
X32418020Y8680920D02*
X33075880Y8680920D01*
X33375600Y7466800D02*
X33972500Y6869900D01*
X33375600Y8381200D02*
X33375600Y7466800D01*
X33075880Y8680920D02*
X33375600Y8381200D01*
X33972500Y6869900D02*
X34417000Y6869900D01*
X35585400Y8381200D02*
X35509200Y8381200D01*
X35572700Y8368500D02*
X35585400Y8381200D01*
X34417000Y8368500D02*
X35572700Y8368500D01*
X35636200Y8254200D02*
X36195000Y8255000D01*
X35509200Y8381200D02*
X35636200Y8254200D01*
X32418020Y9181300D02*
X33185100Y9181300D01*
X33185100Y9181300D02*
X33997900Y8368500D01*
X33997900Y8368500D02*
X34417000Y8368500D01*
X35052000Y9971200D02*
X37018000Y9971200D01*
X37018000Y9971200D02*
X37465000Y9524200D01*
D36*
X32420000Y9679200D02*
X34760000Y9679200D01*
X34760000Y9679200D02*
X35052000Y9971200D01*
D34*
X35052000Y11871200D02*
X35829200Y11871200D01*
X35829200Y11871200D02*
X36576000Y11124400D01*
X37134800Y11124400D02*
X37465000Y10794200D01*
X36576000Y11124400D02*
X37134800Y11124400D01*
D36*
X32420000Y10179200D02*
X33192400Y10179200D01*
X33192400Y10179200D02*
X33375600Y10362400D01*
X33375600Y10362400D02*
X33375600Y10819600D01*
X35052000Y11871200D02*
X34427200Y11871200D01*
X34427200Y11871200D02*
X33375600Y10819600D01*
D35*
X37947500Y14692000D02*
X37947500Y16622400D01*
X39319200Y17994100D02*
X37947500Y16622400D01*
X39319200Y18592800D02*
X39319200Y17994100D01*
X37149900Y13669800D02*
X37149900Y14402400D01*
X39049900Y14402400D02*
X39049900Y13669800D01*
X38760300Y14692000D02*
X39049900Y14402400D01*
X37439500Y14692000D02*
X37947500Y14692000D01*
X37947500Y14692000D02*
X38760300Y14692000D01*
X37149900Y14402400D02*
X37439500Y14692000D01*
X8128000Y6985000D02*
X7656100Y6985000D01*
X7656100Y6985000D02*
X6400700Y8240400D01*
X6400700Y8240400D02*
X6400700Y8392800D01*
X6400700Y9002400D02*
X6400700Y8392800D01*
X39308500Y13411200D02*
X40843200Y13411200D01*
X41757600Y14325600D02*
X41757600Y14782800D01*
X41757600Y14325600D02*
X40843200Y13411200D01*
X39308500Y13411200D02*
X39049900Y13669800D01*
X10363100Y14336400D02*
X10972700Y14336400D01*
X10363100Y14336400D02*
X10008400Y14325600D01*
X10008400Y14325600D02*
X9525000Y13842200D01*
X11379200Y13232600D02*
X10541800Y13232600D01*
X10541800Y13232600D02*
X9932200Y13842200D01*
X9932200Y13842200D02*
X9525000Y13842200D01*
X41757600Y14782800D02*
X41757600Y15392400D01*
D34*
X19304000Y15875000D02*
X19482452Y15875000D01*
X19482452Y15875000D02*
X20421600Y16814148D01*
D36*
X22707600Y16306000D02*
X22250400Y16763200D01*
X23164800Y16306000D02*
X22707600Y16306000D01*
X23420000Y16561200D02*
X23164800Y16306000D01*
X23420000Y16561200D02*
X23420000Y17179200D01*
D34*
X22199452Y16814148D02*
X22250400Y16763200D01*
X20421600Y16814148D02*
X22199452Y16814148D01*
X19304000Y15875000D02*
X19329400Y15874200D01*
D36*
X20920000Y8179200D02*
X20219600Y8179200D01*
X20219600Y8179200D02*
X19507200Y7466800D01*
X19507200Y7466800D02*
X19507200Y7314400D01*
X19507200Y7314400D02*
X19431000Y7238200D01*
D34*
X39853100Y14172700D02*
X39827200Y14198600D01*
X39853100Y14172700D02*
X40322500Y14172700D01*
X31711900Y10679900D02*
X31089600Y10057600D01*
X32418020Y10679900D02*
X31711900Y10679900D01*
X40322500Y14172700D02*
X40374600Y14172700D01*
X40374600Y14172700D02*
X40995500Y14793600D01*
X40995500Y16673200D02*
X40512900Y17155800D01*
X40995500Y14793600D02*
X40995500Y16673200D01*
D35*
X14107160Y6604000D02*
X14427200Y6604000D01*
X14427200Y6604000D02*
X14935200Y6096000D01*
X15621000Y5715000D02*
X15290800Y6045200D01*
X15621000Y5715000D02*
X15621000Y5664052D01*
X14935200Y6096000D02*
X15290800Y6045200D01*
D34*
X44831000Y7492200D02*
X44831000Y6894300D01*
X43281500Y6411600D02*
X42798900Y5929000D01*
X44348300Y6411600D02*
X43281500Y6411600D01*
X44831000Y6894300D02*
X44348300Y6411600D01*
X42798900Y5929000D02*
X42798900Y5725800D01*
X45280580Y14061440D02*
X45280580Y12768580D01*
X45280580Y12768580D02*
X45085000Y12573000D01*
X43815000Y12573000D02*
X43815000Y13284200D01*
X43815000Y13284200D02*
X44381420Y13850620D01*
X44381420Y13850620D02*
X44381420Y14061440D01*
X45567600Y17145000D02*
X45567600Y17018000D01*
X45567600Y17018000D02*
X45872400Y16713200D01*
X45872400Y16713200D02*
X45872400Y15036800D01*
X45872400Y15036800D02*
X45720000Y14884400D01*
X45720000Y14884400D02*
X44805600Y14884400D01*
X44805600Y14884400D02*
X44381420Y15308580D01*
X44381420Y15308580D02*
X44381420Y15656560D01*
D35*
X7175500Y16001200D02*
X7175500Y15950400D01*
X5651500Y14426400D02*
X5651500Y12910020D01*
X7175500Y15950400D02*
X5651500Y14426400D01*
X5651500Y12910020D02*
X5834380Y12727140D01*
X10344000Y15306000D02*
X11953200Y15306000D01*
X11953200Y15306000D02*
X12014200Y15367000D01*
D34*
X12293600Y15367000D02*
X14071600Y17145000D01*
X12014200Y15367000D02*
X12293600Y15367000D01*
D35*
X8991600Y16001200D02*
X7175500Y16001200D01*
X8991600Y16001200D02*
X9687600Y15305200D01*
X9687600Y15305200D02*
X10344000Y15306000D01*
D34*
X32418020Y8180540D02*
X31606560Y8180540D01*
X31606560Y8180540D02*
X31089500Y8697600D01*
X31089500Y8697600D02*
X31089500Y8850000D01*
X45085000Y11303000D02*
X48234748Y11303000D01*
X49072948Y18236252D02*
X48260000Y19049200D01*
X49072948Y12141200D02*
X49072948Y18236252D01*
X48234748Y11303000D02*
X49072948Y12141200D01*
X32418020Y14177480D02*
X31246980Y14189080D01*
X31246980Y14189080D02*
X31089500Y14031600D01*
X31346140Y14677860D02*
X31089600Y14934400D01*
X31346140Y14677860D02*
X32418020Y14677860D01*
D36*
X32420000Y15179200D02*
X32420000Y15655200D01*
X32420000Y15655200D02*
X32461200Y15696400D01*
X31150000Y17179200D02*
X33020000Y19049200D01*
X30420000Y17179200D02*
X31150000Y17179200D01*
D34*
X30480000Y19049200D02*
X30011100Y19049200D01*
X30163500Y19049200D02*
X28917900Y17803600D01*
X28917900Y17803600D02*
X28917900Y17177220D01*
D36*
X28420000Y17179200D02*
X28420000Y18569200D01*
X28420000Y18569200D02*
X27940000Y19049200D01*
D34*
X27919680Y17177220D02*
X27919680Y16427920D01*
X27919680Y16427920D02*
X28346300Y16012800D01*
X27686000Y15631700D02*
X27990700Y15327000D01*
X27686000Y16204400D02*
X27686000Y15631700D01*
X27419300Y17177220D02*
X27419300Y16471100D01*
X27419300Y16471100D02*
X27686000Y16204400D01*
X25920700Y17177220D02*
X25920700Y16304800D01*
X25920700Y16304800D02*
X26238100Y15987400D01*
X25298400Y16483800D02*
X25298400Y16038100D01*
X25420320Y16605720D02*
X25298400Y16483800D01*
X25298400Y16038100D02*
X25476100Y15860400D01*
X25420320Y17177220D02*
X25420320Y16605720D01*
D36*
X25400000Y17159200D02*
X25420000Y17179200D01*
X24445300Y16226600D02*
X24420000Y17179200D01*
X24445300Y16226600D02*
X24383900Y16165200D01*
D34*
X23921720Y17177220D02*
X23921720Y16465020D01*
X23469600Y16012900D02*
X23469600Y15848800D01*
X23921720Y16465020D02*
X23469600Y16012900D01*
D36*
X23876000Y17135200D02*
X23920000Y17179200D01*
D34*
X29870300Y6716400D02*
X29870300Y7453000D01*
X29870300Y6716400D02*
X29418280Y6264380D01*
X29870300Y7453000D02*
X29565500Y7757800D01*
X29418280Y5681180D02*
X29418280Y6264380D01*
X40258900Y5725800D02*
X40258900Y4190300D01*
X40258900Y4190300D02*
X40640000Y3809200D01*
D36*
X28920000Y5679200D02*
X28920000Y6516400D01*
X28920000Y6516400D02*
X29108400Y6704800D01*
X29108400Y6704800D02*
X29108400Y6857200D01*
X29108400Y6857200D02*
X29260800Y7009600D01*
D34*
X40640000Y3809200D02*
X40614600Y3809200D01*
D36*
X40690800Y3809200D02*
X40640000Y3809200D01*
X27940000Y5699200D02*
X27920000Y5679200D01*
X27940000Y5699200D02*
X27940000Y6450800D01*
X27940000Y6450800D02*
X28194000Y6704800D01*
X28194000Y6704800D02*
X28194000Y7162000D01*
X28194000Y7162000D02*
X27889100Y7453000D01*
X27889100Y7757800D02*
X27889100Y7453000D01*
X27420000Y5679200D02*
X27420000Y6692800D01*
X27420000Y6692800D02*
X27584400Y6857200D01*
X26924000Y5683200D02*
X26920000Y5679200D01*
X26924000Y5683200D02*
X26924000Y7263600D01*
X26924000Y7263600D02*
X27127200Y7466800D01*
X26420000Y5679200D02*
X26420000Y6650000D01*
X26420000Y6650000D02*
X26365200Y6704800D01*
X25920000Y5679200D02*
X25920000Y5016400D01*
X25920000Y5016400D02*
X26212800Y4723600D01*
X26212800Y4723600D02*
X27025600Y4723600D01*
X27025600Y4723600D02*
X27940000Y3809200D01*
X25400000Y3809200D02*
X24485600Y4723600D01*
X24485600Y4723600D02*
X23774400Y4723600D01*
X23774400Y4723600D02*
X23469600Y5028400D01*
X23420000Y5679200D02*
X23469600Y5629600D01*
X23469600Y5629600D02*
X23469600Y5028400D01*
D34*
X9525000Y11251400D02*
X9525000Y11353000D01*
X9525000Y11353000D02*
X10058400Y11886400D01*
D36*
X12496800Y11886400D02*
X10058400Y11886400D01*
X20269200Y9295600D02*
X20803600Y9295600D01*
X19507200Y8533600D02*
X20269200Y9295600D01*
X13563600Y8533600D02*
X19507200Y8533600D01*
X13106400Y8990800D02*
X13563600Y8533600D01*
X13106400Y11276800D02*
X13106400Y8990800D01*
X12496800Y11886400D02*
X13106400Y11276800D01*
X20803600Y9295600D02*
X20920000Y9179200D01*
X20920000Y9179200D02*
X21604800Y9179200D01*
X21604800Y9179200D02*
X21793200Y8990800D01*
X22174200Y8990800D02*
X22936200Y8228800D01*
X21793200Y8990800D02*
X22174200Y8990800D01*
X9525000Y9905200D02*
X9525000Y11251400D01*
X20920000Y9679200D02*
X20948000Y9651200D01*
X12649200Y12191200D02*
X13411200Y11429200D01*
X13411200Y11429200D02*
X13411200Y9143200D01*
X13411200Y9143200D02*
X13716000Y8838400D01*
X13716000Y8838400D02*
X19354800Y8838400D01*
X19354800Y8838400D02*
X20116800Y9600400D01*
X20116800Y9600400D02*
X20841200Y9600400D01*
X20841200Y9600400D02*
X20920000Y9679200D01*
X20948000Y9651200D02*
X21590000Y9651200D01*
X21590000Y9651200D02*
X21945600Y9295600D01*
X21945600Y9295600D02*
X22402800Y9295600D01*
X22402800Y9295600D02*
X22860000Y8838400D01*
X22860000Y8838400D02*
X23469600Y8838400D01*
X23469600Y8838400D02*
X23622000Y8686000D01*
X12649200Y12191200D02*
X9855200Y12191200D01*
X9855200Y12191200D02*
X9525000Y12521400D01*
D34*
X22522992Y9606250D02*
X22822042Y9307200D01*
X22822042Y9307200D02*
X23469500Y9307200D01*
X23469500Y9307200D02*
X23621900Y9459600D01*
X22522992Y9606250D02*
X22092150Y9606250D01*
X8813800Y3683000D02*
X8813800Y7899400D01*
X8813800Y3683000D02*
X8839200Y3657600D01*
X8255000Y8458200D02*
X8813800Y7899400D01*
X8255000Y8635200D02*
X8255000Y8458200D01*
D36*
X21519200Y10179200D02*
X22092150Y9606250D01*
X20920000Y10179200D02*
X21519200Y10179200D01*
D34*
X23153200Y10057700D02*
X23164700Y10069200D01*
X22250300Y10057700D02*
X23153200Y10057700D01*
X19152252Y13258148D02*
X15391748Y13258148D01*
X19152252Y13258148D02*
X19964400Y12446000D01*
X19964400Y12446000D02*
X19964400Y10922000D01*
X19964400Y10922000D02*
X20206500Y10679900D01*
X20921980Y10679900D02*
X20206500Y10679900D01*
X15494000Y16357600D02*
X15494000Y17145000D01*
X15494000Y16357600D02*
X15544800Y16306800D01*
X15391748Y13258148D02*
X15087600Y12954000D01*
D36*
X21640800Y10667200D02*
X22250300Y10057700D01*
X20932000Y10667200D02*
X21640800Y10667200D01*
X20920000Y10679200D02*
X20932000Y10667200D01*
X20920000Y11179200D02*
X21586000Y11179200D01*
X21586000Y11179200D02*
X22098000Y10667200D01*
X22098000Y10667200D02*
X22707500Y10678800D01*
D34*
X23774400Y11745500D02*
X24231500Y11288400D01*
X24231500Y11288400D02*
X24561700Y11288400D01*
X23774400Y11745600D02*
X23774400Y11745500D01*
D36*
X21676800Y13679200D02*
X20920000Y13679200D01*
X21676800Y13679200D02*
X22250400Y13105600D01*
X22250400Y13105600D02*
X23012400Y13105600D01*
X23012400Y13105600D02*
X23774400Y12343600D01*
X23774400Y12343600D02*
X23774400Y11745600D01*
X21634000Y14179200D02*
X22402800Y13410400D01*
X22402800Y13410400D02*
X23164800Y13410400D01*
X24298419Y12429181D02*
X24384000Y12343600D01*
X24384000Y12343600D02*
X24384000Y12038800D01*
X23164800Y13410400D02*
X24146019Y12429181D01*
X24146019Y12429181D02*
X24298419Y12429181D01*
X21634000Y14179200D02*
X20920000Y14179200D01*
X8229600Y4876800D02*
X6147600Y4876800D01*
D34*
X19050000Y13562800D02*
X14172400Y13562800D01*
X13868400Y13258800D02*
X12954000Y13258800D01*
X14172400Y13562800D02*
X13868400Y13258800D01*
D36*
X6147600Y4876800D02*
X5080000Y3809200D01*
X20920000Y14679200D02*
X20972000Y14731200D01*
X20920000Y14679200D02*
X20166400Y14679200D01*
X20166400Y14679200D02*
X19050000Y13562800D01*
X7175500Y5485600D02*
X4217200Y5486400D01*
D34*
X18897600Y13867600D02*
X13564400Y13867600D01*
X13564400Y13867600D02*
X13563600Y13868400D01*
D36*
X4217200Y5486400D02*
X2540000Y3809200D01*
X20209200Y15179200D02*
X18897600Y13867600D01*
X20920000Y15179200D02*
X20209200Y15179200D01*
X23317200Y6857200D02*
X23317200Y6704800D01*
X22920000Y6307600D02*
X23317200Y6704800D01*
X22920000Y5679200D02*
X22920000Y6307600D01*
D34*
X48031400Y17145000D02*
X46837600Y17145000D01*
X48768346Y16408054D02*
X48031400Y17145000D01*
X48768346Y13360400D02*
X48768346Y16408054D01*
X48107146Y12699200D02*
X48768346Y13360400D01*
X47066200Y12699200D02*
X48107146Y12699200D01*
X47066200Y12699200D02*
X46990800Y12699200D01*
D36*
X21767800Y8635200D02*
X20964000Y8635200D01*
X21767800Y8635200D02*
X22783800Y7619200D01*
X22783800Y7619200D02*
X23469600Y7619200D01*
D34*
X44500800Y10617200D02*
X46608200Y10617200D01*
X46608200Y10617200D02*
X47066200Y10159200D01*
X43815000Y11303000D02*
X44500800Y10617200D01*
D36*
X20964000Y8635200D02*
X20920000Y8679200D01*
D34*
X24688700Y9154800D02*
X26072000Y9154800D01*
X21945500Y11276900D02*
X22871400Y11276900D01*
X23774300Y10374000D02*
X23774300Y10069200D01*
X23774300Y10069200D02*
X24688700Y9154800D01*
X26670000Y9752800D02*
X26670000Y10057600D01*
X26072000Y9154800D02*
X26670000Y9752800D01*
X22871400Y11276900D02*
X23774300Y10374000D01*
D36*
X21539200Y11683200D02*
X21945500Y11276900D01*
X20924000Y11683200D02*
X21539200Y11683200D01*
X20920000Y11679200D02*
X20924000Y11683200D01*
D34*
X23012300Y11587450D02*
X23012300Y11566772D01*
X25614602Y9459402D02*
X25908000Y9752800D01*
X24814870Y9459402D02*
X25614602Y9459402D01*
X24078902Y10195370D02*
X24814870Y9459402D01*
X24078902Y10500170D02*
X24078902Y10195370D01*
X23012300Y11566772D02*
X24078902Y10500170D01*
X22092150Y11587450D02*
X23012300Y11587450D01*
D36*
X21500400Y12179200D02*
X22092150Y11587450D01*
X20920000Y12179200D02*
X21500400Y12179200D01*
X25450800Y7009600D02*
X25450800Y7771600D01*
X24920000Y6478800D02*
X25450800Y7009600D01*
X24920000Y5679200D02*
X24920000Y6478800D01*
X25420000Y5679200D02*
X25420000Y6521600D01*
X25420000Y6521600D02*
X25755600Y6857200D01*
X25755600Y6857200D02*
X25755600Y7162000D01*
X25755600Y7162000D02*
X26060400Y7466800D01*
X26060400Y7466800D02*
X26060400Y8228800D01*
X26060400Y8228800D02*
X25755600Y8533600D01*
X24420000Y5679200D02*
X24420000Y6436000D01*
X24420000Y6436000D02*
X24841200Y6857200D01*
X24841200Y6857200D02*
X24841200Y8330400D01*
X24841200Y8330400D02*
X24892000Y8381200D01*
D34*
X15544800Y7772400D02*
X16357600Y7772400D01*
X16357600Y7772400D02*
X16891000Y7239000D01*
D36*
X24231600Y6857200D02*
X24231600Y7771600D01*
X23920000Y6545600D02*
X24231600Y6857200D01*
X23920000Y6545600D02*
X23920000Y5679200D01*
D34*
X5834380Y12076900D02*
X6362700Y12076900D01*
D36*
X6553200Y11886400D02*
X7620000Y11886400D01*
X7620000Y11886400D02*
X8255000Y12521400D01*
D34*
X6362700Y12076900D02*
X6553200Y11886400D01*
X5834380Y11429200D02*
X6400800Y11429200D01*
D36*
X7924800Y11581600D02*
X8255000Y11251400D01*
X6553200Y11581600D02*
X7924800Y11581600D01*
X6400800Y11429200D02*
X6553200Y11581600D01*
D34*
X8255000Y9905200D02*
X8077200Y9905200D01*
X8077200Y9905200D02*
X7200900Y10781500D01*
X5834380Y10781500D02*
X7200900Y10781500D01*
X31326820Y11678120D02*
X31089500Y11440800D01*
X32418020Y11678120D02*
X31326820Y11678120D01*
X32418020Y12178500D02*
X31266200Y12178500D01*
X31266200Y12178500D02*
X31089500Y12355200D01*
X31267300Y13244200D02*
X31089500Y13244200D01*
X31832620Y12678880D02*
X31267300Y13244200D01*
X32418020Y12678880D02*
X31832620Y12678880D01*
X26421080Y16566420D02*
X26822300Y16165200D01*
X26822300Y16165200D02*
X26822300Y15403200D01*
X26421080Y17177220D02*
X26421080Y16566420D01*
X26421080Y17177220D02*
X26421080Y16581348D01*
X23164800Y11898000D02*
X23179558Y11898000D01*
X24398758Y10678800D02*
X24840902Y10678800D01*
X23179558Y11898000D02*
X24398758Y10678800D01*
X23164800Y11898000D02*
X23164800Y12202800D01*
X31394300Y15860400D02*
X31699100Y15860400D01*
X31089500Y15555600D02*
X31394300Y15860400D01*
X29870300Y15555600D02*
X31089500Y15555600D01*
X29260700Y14946000D02*
X29870300Y15555600D01*
X29260700Y12964800D02*
X29260700Y14946000D01*
X28498700Y12202800D02*
X29260700Y12964800D01*
X26364902Y12202800D02*
X28498700Y12202800D01*
X24840902Y10678800D02*
X26364902Y12202800D01*
D36*
X20920000Y13179200D02*
X21719600Y13179200D01*
X21719600Y13179200D02*
X22098000Y12800800D01*
X22098000Y12800800D02*
X22707600Y12800800D01*
X22707600Y12800800D02*
X23164800Y12343600D01*
X23164800Y12343600D02*
X23164800Y12202800D01*
D34*
X28955900Y13117200D02*
X28955900Y15555600D01*
X24993500Y12507600D02*
X28346300Y12507600D01*
X28346300Y12507600D02*
X28955900Y13117200D01*
D36*
X20920000Y12679200D02*
X21762400Y12679200D01*
X21762400Y12679200D02*
X22250400Y12191200D01*
D34*
X18288000Y14604200D02*
X19203358Y14604200D01*
D36*
X24920000Y15927600D02*
X24231600Y15239200D01*
X24920000Y15927600D02*
X24920000Y17179200D01*
X23317200Y15239200D02*
X22098000Y16458400D01*
X23317200Y15239200D02*
X24231600Y15239200D01*
D34*
X22046854Y16509546D02*
X22098000Y16458400D01*
X20547770Y16509546D02*
X22046854Y16509546D01*
X20053112Y16014888D02*
X20547770Y16509546D01*
X20053112Y15453954D02*
X20053112Y16014888D01*
X19203358Y14604200D02*
X20053112Y15453954D01*
X37718900Y5725800D02*
X37718900Y5573400D01*
X37718900Y5573400D02*
X37033100Y4887600D01*
X40322500Y7060700D02*
X40322500Y7059400D01*
X40322500Y7059400D02*
X38988900Y5725800D01*
X37718900Y5725800D02*
X38988900Y5725800D01*
D36*
X28448000Y6501600D02*
X28498800Y6552400D01*
X28498800Y6552400D02*
X28498800Y7314400D01*
X28498800Y7314400D02*
X28803600Y7619200D01*
X28448000Y5707200D02*
X28448000Y6501600D01*
X28420000Y5679200D02*
X28448000Y5707200D01*
D34*
X43053000Y17144200D02*
X43053000Y16241700D01*
X43053000Y16241700D02*
X43497500Y15797200D01*
X31590980Y11180280D02*
X31241900Y10831200D01*
X31241900Y10831200D02*
X28193900Y10831200D01*
X28193900Y10831200D02*
X28041500Y10983600D01*
X31590980Y11180280D02*
X32418020Y11180280D01*
X16154400Y17932400D02*
X8670400Y17932400D01*
X16306800Y17753800D02*
X16333000Y17753800D01*
X16333000Y17753800D02*
X16154400Y17932400D01*
X8670400Y17932400D02*
X7944000Y17206000D01*
X16764000Y17145000D02*
X16764000Y17296600D01*
X16764000Y17296600D02*
X16306800Y17753800D01*
X16764000Y17145000D02*
X16738600Y17145000D01*
X10344000Y17206000D02*
X11623000Y17206000D01*
X11623000Y17206000D02*
X11684000Y17145000D01*
D35*
X51206300Y16520800D02*
X51206300Y11898000D01*
X51206300Y17130400D02*
X51206300Y16520800D01*
X48920102Y9511978D02*
X47027324Y7619200D01*
X48920102Y10273978D02*
X48920102Y9511978D01*
X49198812Y10552688D02*
X48920102Y10273978D01*
X50470588Y10552688D02*
X49198812Y10552688D01*
X51206300Y11288400D02*
X50470588Y10552688D01*
X47027324Y7619200D02*
X47066200Y7619200D01*
X47878900Y5725800D02*
X47624900Y5725800D01*
X47624900Y5725800D02*
X47396300Y5954400D01*
X47396300Y5954400D02*
X47396300Y7289100D01*
X47396300Y7289100D02*
X47066200Y7619200D01*
D34*
X32207100Y7469240D02*
X32418020Y7680160D01*
X32207100Y6868800D02*
X32207100Y7469240D01*
X49225100Y4887600D02*
X48767900Y5344800D01*
X51079702Y4887600D02*
X49225100Y4887600D01*
X51815900Y5623798D02*
X51079702Y4887600D01*
X51815900Y17994198D02*
X51815900Y5623798D01*
X50800000Y19010098D02*
X51815900Y17994198D01*
X50800000Y19049200D02*
X50800000Y19010098D01*
X32308700Y7570840D02*
X32418020Y7680160D01*
X32358060Y7680160D02*
X32418020Y7680160D01*
X28041500Y14488800D02*
X27381398Y15148902D01*
X27381398Y15148902D02*
X27381398Y16051802D01*
X27381398Y16051802D02*
X26918920Y16514280D01*
X26918920Y17177220D02*
X26918920Y16514280D01*
X28041500Y14184000D02*
X28041500Y14488800D01*
D36*
X26924000Y17175200D02*
X26920000Y17179200D01*
D34*
G36*
X53036550Y302650D02*
X303450Y302650D01*
X303450Y6326367D01*
X328866Y6233099D01*
X535677Y5887871D01*
X858859Y5648065D01*
X1249210Y5550190D01*
X1699210Y5550190D01*
X1699210Y6529490D01*
X1800910Y6529490D01*
X1800910Y5550190D01*
X2250910Y5550190D01*
X2641261Y5648065D01*
X2964443Y5887871D01*
X3171254Y6233099D01*
X3208332Y6369162D01*
X3146308Y6529490D01*
X1800910Y6529490D01*
X1699210Y6529490D01*
X1679210Y6529490D01*
X1679210Y6631190D01*
X1699210Y6631190D01*
X1699210Y6651190D01*
X1800910Y6651190D01*
X1800910Y6631190D01*
X3146308Y6631190D01*
X3208332Y6791518D01*
X3171254Y6927581D01*
X2964443Y7272809D01*
X2906572Y7315750D01*
X3893008Y7315750D01*
X3835137Y7272809D01*
X3628326Y6927581D01*
X3591248Y6791518D01*
X3653272Y6631190D01*
X4998670Y6631190D01*
X4998670Y6651190D01*
X5100370Y6651190D01*
X5100370Y6631190D01*
X5120370Y6631190D01*
X5120370Y6529490D01*
X5100370Y6529490D01*
X5100370Y6509490D01*
X4998670Y6509490D01*
X4998670Y6529490D01*
X3653272Y6529490D01*
X3591248Y6369162D01*
X3628326Y6233099D01*
X3835137Y5887871D01*
X4046027Y5731387D01*
X4001838Y5701878D01*
X4001815Y5701843D01*
X4001780Y5701820D01*
X2993354Y4693394D01*
X2737877Y4799478D01*
X2343852Y4799821D01*
X1979688Y4649352D01*
X1700827Y4370977D01*
X1549722Y4007077D01*
X1549379Y3613052D01*
X1699848Y3248888D01*
X1978223Y2970027D01*
X2342123Y2818922D01*
X2736148Y2818579D01*
X3100312Y2969048D01*
X3379173Y3247423D01*
X3530278Y3611323D01*
X3530621Y4005348D01*
X3424302Y4262662D01*
X4343356Y5181716D01*
X6146485Y5181228D01*
X6031015Y5158260D01*
X5932180Y5092220D01*
X5533354Y4693394D01*
X5277877Y4799478D01*
X4883852Y4799821D01*
X4519688Y4649352D01*
X4240827Y4370977D01*
X4089722Y4007077D01*
X4089379Y3613052D01*
X4239848Y3248888D01*
X4518223Y2970027D01*
X4882123Y2818922D01*
X5276148Y2818579D01*
X5640312Y2969048D01*
X5919173Y3247423D01*
X6070278Y3611323D01*
X6070621Y4005348D01*
X5964302Y4262662D01*
X6273790Y4572150D01*
X6982351Y4572150D01*
X6780827Y4370977D01*
X6629722Y4007077D01*
X6629379Y3613052D01*
X6779848Y3248888D01*
X7058223Y2970027D01*
X7422123Y2818922D01*
X7816148Y2818579D01*
X8180312Y2969048D01*
X8459173Y3247423D01*
X8469754Y3272904D01*
X8536744Y3205796D01*
X8732665Y3124443D01*
X8944805Y3124258D01*
X9140867Y3205269D01*
X9280342Y3344500D01*
X9319848Y3248888D01*
X9598223Y2970027D01*
X9962123Y2818922D01*
X10356148Y2818579D01*
X10720312Y2969048D01*
X10999173Y3247423D01*
X11150278Y3611323D01*
X11150621Y4005348D01*
X11000152Y4369512D01*
X10721777Y4648373D01*
X10357877Y4799478D01*
X9963852Y4799821D01*
X9599688Y4649352D01*
X9320827Y4370977D01*
X9191485Y4059488D01*
X9141656Y4109404D01*
X9118400Y4119061D01*
X9118400Y5067350D01*
X9391613Y5067350D01*
X9474150Y5149887D01*
X9474150Y5664150D01*
X9575850Y5664150D01*
X9575850Y5149887D01*
X9658387Y5067350D01*
X10035171Y5067350D01*
X10156515Y5117612D01*
X10160000Y5121097D01*
X10163485Y5117612D01*
X10284829Y5067350D01*
X10661613Y5067350D01*
X10744150Y5149887D01*
X10744150Y5664150D01*
X10845850Y5664150D01*
X10845850Y5149887D01*
X10928387Y5067350D01*
X11305171Y5067350D01*
X11426515Y5117612D01*
X11519388Y5210485D01*
X11569650Y5331829D01*
X11569650Y5581613D01*
X11487113Y5664150D01*
X10845850Y5664150D01*
X10744150Y5664150D01*
X9575850Y5664150D01*
X9474150Y5664150D01*
X9454150Y5664150D01*
X9454150Y5765850D01*
X9474150Y5765850D01*
X9474150Y6280113D01*
X9575850Y6280113D01*
X9575850Y5765850D01*
X10744150Y5765850D01*
X10744150Y6280113D01*
X10661613Y6362650D01*
X10284829Y6362650D01*
X10163485Y6312388D01*
X10160000Y6308903D01*
X10156515Y6312388D01*
X10035171Y6362650D01*
X9658387Y6362650D01*
X9575850Y6280113D01*
X9474150Y6280113D01*
X9391613Y6362650D01*
X9118400Y6362650D01*
X9118400Y6434575D01*
X9969500Y6434575D01*
X10054158Y6450505D01*
X10131912Y6500538D01*
X10150676Y6528000D01*
X10168795Y6528000D01*
X10183538Y6505088D01*
X10259879Y6452926D01*
X10350500Y6434575D01*
X11239500Y6434575D01*
X11324158Y6450505D01*
X11401912Y6500538D01*
X11420676Y6528000D01*
X11500075Y6528000D01*
X11500075Y6238828D01*
X11426515Y6312388D01*
X11305171Y6362650D01*
X10928387Y6362650D01*
X10845850Y6280113D01*
X10845850Y5765850D01*
X11487113Y5765850D01*
X11525637Y5804374D01*
X11566038Y5741588D01*
X11642379Y5689426D01*
X11733000Y5671075D01*
X11974334Y5671075D01*
X11981003Y5660771D01*
X12817406Y4799548D01*
X12503852Y4799821D01*
X12139688Y4649352D01*
X11860827Y4370977D01*
X11709722Y4007077D01*
X11709379Y3613052D01*
X11859848Y3248888D01*
X12138223Y2970027D01*
X12502123Y2818922D01*
X12896148Y2818579D01*
X13260312Y2969048D01*
X13539173Y3247423D01*
X13563800Y3306731D01*
X13563800Y2692400D01*
X13598587Y2517513D01*
X13697652Y2369252D01*
X14307252Y1759652D01*
X14307638Y1759394D01*
X14308040Y1758796D01*
X14397766Y1699173D01*
X14455514Y1660587D01*
X14455969Y1660496D01*
X14456569Y1660098D01*
X14562235Y1639358D01*
X14630400Y1625799D01*
X14630856Y1625890D01*
X14631562Y1625751D01*
X19051162Y1636991D01*
X34290769Y1675750D01*
X45872400Y1675750D01*
X46047306Y1710541D01*
X46195583Y1809617D01*
X47414683Y3028717D01*
X47425628Y3045098D01*
X47567810Y3045098D01*
X47647296Y2879374D01*
X48049764Y2715681D01*
X48484240Y2718466D01*
X48872704Y2879374D01*
X48952190Y3045098D01*
X48260000Y3737287D01*
X47567810Y3045098D01*
X47425628Y3045098D01*
X47479071Y3125081D01*
X47495898Y3117010D01*
X48188087Y3809200D01*
X48331913Y3809200D01*
X49024102Y3117010D01*
X49189826Y3196496D01*
X49353519Y3598964D01*
X49350734Y4033440D01*
X49189826Y4421904D01*
X49024102Y4501390D01*
X48331913Y3809200D01*
X48188087Y3809200D01*
X48173945Y3823342D01*
X48245858Y3895255D01*
X48260000Y3881113D01*
X48952190Y4573302D01*
X48872704Y4739026D01*
X48694233Y4811614D01*
X48870470Y4811461D01*
X49009713Y4672218D01*
X49009715Y4672215D01*
X49108535Y4606186D01*
X49225100Y4583000D01*
X49807465Y4583000D01*
X49805075Y4571200D01*
X49805075Y3047200D01*
X49821005Y2962542D01*
X49871038Y2884788D01*
X49947379Y2832626D01*
X50038000Y2814275D01*
X51562000Y2814275D01*
X51646658Y2830205D01*
X51724412Y2880238D01*
X51776574Y2956579D01*
X51794925Y3047200D01*
X51794925Y4310229D01*
X52596248Y5111552D01*
X52695313Y5259813D01*
X52730100Y5434700D01*
X52730100Y18618457D01*
X52806257Y18801865D01*
X52806442Y19014005D01*
X52730100Y19198767D01*
X52730100Y19228057D01*
X52806257Y19411465D01*
X52806442Y19623605D01*
X52725431Y19819667D01*
X52575556Y19969804D01*
X52379635Y20051157D01*
X52167495Y20051342D01*
X51971433Y19970331D01*
X51821296Y19820456D01*
X51794925Y19756947D01*
X51794925Y19811200D01*
X51778995Y19895858D01*
X51728962Y19973612D01*
X51652621Y20025774D01*
X51562000Y20044125D01*
X50038000Y20044125D01*
X49986950Y20034519D01*
X49986950Y20115799D01*
X49987000Y20116050D01*
X49952209Y20290956D01*
X49853133Y20439233D01*
X49243583Y21048783D01*
X49095306Y21147859D01*
X48920400Y21182650D01*
X8839200Y21182650D01*
X8664294Y21147859D01*
X8516017Y21048783D01*
X7506983Y20039749D01*
X7423852Y20039821D01*
X7059688Y19889352D01*
X6780827Y19610977D01*
X6629722Y19247077D01*
X6629379Y18853052D01*
X6779848Y18488888D01*
X7058223Y18210027D01*
X7422123Y18058922D01*
X7816148Y18058579D01*
X8180312Y18209048D01*
X8459173Y18487423D01*
X8610278Y18851323D01*
X8610621Y19245348D01*
X8460152Y19609512D01*
X8414855Y19654889D01*
X9028516Y20268550D01*
X18592950Y20268550D01*
X18592950Y19636761D01*
X18341777Y19888373D01*
X17977877Y20039478D01*
X17583852Y20039821D01*
X17219688Y19889352D01*
X16940827Y19610977D01*
X16789722Y19247077D01*
X16789379Y18853052D01*
X16939848Y18488888D01*
X17218223Y18210027D01*
X17582123Y18058922D01*
X17976148Y18058579D01*
X18340312Y18209048D01*
X18592950Y18461246D01*
X18592950Y18134800D01*
X18627741Y17959894D01*
X18726817Y17811617D01*
X18892221Y17646213D01*
X18880575Y17588700D01*
X18880575Y16699700D01*
X18896505Y16615042D01*
X18942166Y16544083D01*
X18901842Y16536495D01*
X18824088Y16486462D01*
X18771926Y16410121D01*
X18753575Y16319500D01*
X18753575Y15430500D01*
X18769505Y15345842D01*
X18819538Y15268088D01*
X18895879Y15215926D01*
X18986500Y15197575D01*
X19365963Y15197575D01*
X19077188Y14908800D01*
X18838425Y14908800D01*
X18838425Y15048700D01*
X18822495Y15133358D01*
X18772462Y15211112D01*
X18696121Y15263274D01*
X18643960Y15273837D01*
X18681650Y15364829D01*
X18681650Y15741613D01*
X18599113Y15824150D01*
X18084850Y15824150D01*
X18084850Y15804150D01*
X17983150Y15804150D01*
X17983150Y15824150D01*
X17468887Y15824150D01*
X17462500Y15817763D01*
X17456113Y15824150D01*
X16814850Y15824150D01*
X16814850Y15804150D01*
X16713150Y15804150D01*
X16713150Y15824150D01*
X16071887Y15824150D01*
X15989350Y15741613D01*
X15989350Y15491829D01*
X16039612Y15370485D01*
X16132485Y15277612D01*
X16253829Y15227350D01*
X16417147Y15227350D01*
X16370350Y15114371D01*
X16370350Y14737587D01*
X16452887Y14655050D01*
X16967150Y14655050D01*
X16967150Y14675050D01*
X17068850Y14675050D01*
X17068850Y14655050D01*
X17583113Y14655050D01*
X17665650Y14737587D01*
X17665650Y15100350D01*
X17748034Y15100350D01*
X17737575Y15048700D01*
X17737575Y14172200D01*
X17665650Y14172200D01*
X17665650Y14470813D01*
X17583113Y14553350D01*
X17068850Y14553350D01*
X17068850Y14533350D01*
X16967150Y14533350D01*
X16967150Y14553350D01*
X16452887Y14553350D01*
X16370350Y14470813D01*
X16370350Y14172200D01*
X14013802Y14172200D01*
X13866056Y14320204D01*
X13670135Y14401557D01*
X13457995Y14401742D01*
X13261933Y14320731D01*
X13111796Y14170856D01*
X13030443Y13974935D01*
X13030283Y13791983D01*
X12848395Y13792142D01*
X12729725Y13743109D01*
X12729725Y13842200D01*
X12713795Y13926858D01*
X12663762Y14004612D01*
X12587421Y14056774D01*
X12496800Y14075125D01*
X11441604Y14075125D01*
X11505857Y14229865D01*
X11506042Y14442005D01*
X11425031Y14638067D01*
X11275156Y14788204D01*
X11128742Y14849000D01*
X11339790Y14849000D01*
X11347625Y14807362D01*
X11397658Y14729608D01*
X11473999Y14677446D01*
X11564620Y14659095D01*
X12463780Y14659095D01*
X12548438Y14675025D01*
X12626192Y14725058D01*
X12678354Y14801399D01*
X12696705Y14892020D01*
X12696705Y15339335D01*
X13838679Y16481309D01*
X13906500Y16467575D01*
X14541500Y16467575D01*
X14626158Y16483505D01*
X14703912Y16533538D01*
X14756074Y16609879D01*
X14774425Y16700500D01*
X14774425Y17589500D01*
X14767218Y17627800D01*
X14951331Y17627800D01*
X14943575Y17589500D01*
X14943575Y16700500D01*
X14959505Y16615842D01*
X15009538Y16538088D01*
X15051531Y16509395D01*
X15011643Y16413335D01*
X15011458Y16201195D01*
X15063640Y16074905D01*
X14714220Y16074905D01*
X14629562Y16058975D01*
X14551808Y16008942D01*
X14499646Y15932601D01*
X14481295Y15841980D01*
X14481295Y15450568D01*
X14340033Y15392200D01*
X14310743Y15392200D01*
X14127335Y15468357D01*
X13915195Y15468542D01*
X13719133Y15387531D01*
X13568996Y15237656D01*
X13487643Y15041735D01*
X13487458Y14829595D01*
X13568469Y14633533D01*
X13718344Y14483396D01*
X13914265Y14402043D01*
X14126405Y14401858D01*
X14311167Y14478200D01*
X14340457Y14478200D01*
X14523865Y14402043D01*
X14736005Y14401858D01*
X14932067Y14482869D01*
X15082204Y14632744D01*
X15093146Y14659095D01*
X15613380Y14659095D01*
X15698038Y14675025D01*
X15775792Y14725058D01*
X15827954Y14801399D01*
X15846305Y14892020D01*
X15846305Y15841980D01*
X15844136Y15853506D01*
X15846467Y15854469D01*
X15994997Y16002740D01*
X16071887Y15925850D01*
X16713150Y15925850D01*
X16713150Y16440113D01*
X16814850Y16440113D01*
X16814850Y15925850D01*
X17456113Y15925850D01*
X17462500Y15932237D01*
X17468887Y15925850D01*
X17983150Y15925850D01*
X17983150Y15945850D01*
X18084850Y15945850D01*
X18084850Y15925850D01*
X18599113Y15925850D01*
X18681650Y16008387D01*
X18681650Y16385171D01*
X18666778Y16421075D01*
X18758388Y16512685D01*
X18808650Y16634029D01*
X18808650Y17010813D01*
X18726113Y17093350D01*
X18211850Y17093350D01*
X18211850Y17073350D01*
X18110150Y17073350D01*
X18110150Y17093350D01*
X17595887Y17093350D01*
X17513350Y17010813D01*
X17513350Y16634029D01*
X17528222Y16598125D01*
X17436612Y16506515D01*
X17414580Y16453323D01*
X17395515Y16472388D01*
X17274171Y16522650D01*
X16897387Y16522650D01*
X16814850Y16440113D01*
X16713150Y16440113D01*
X16630613Y16522650D01*
X16253829Y16522650D01*
X16132485Y16472388D01*
X16076493Y16416396D01*
X16007674Y16582950D01*
X16026074Y16609879D01*
X16044425Y16700500D01*
X16044425Y17285353D01*
X16086575Y17267851D01*
X16086575Y16827500D01*
X16102505Y16742842D01*
X16152538Y16665088D01*
X16228879Y16612926D01*
X16319500Y16594575D01*
X17208500Y16594575D01*
X17293158Y16610505D01*
X17370912Y16660538D01*
X17423074Y16736879D01*
X17441425Y16827500D01*
X17441425Y17462500D01*
X17425495Y17547158D01*
X17375462Y17624912D01*
X17332348Y17654371D01*
X17513350Y17654371D01*
X17513350Y17277587D01*
X17595887Y17195050D01*
X18110150Y17195050D01*
X18110150Y17836313D01*
X18211850Y17836313D01*
X18211850Y17195050D01*
X18726113Y17195050D01*
X18808650Y17277587D01*
X18808650Y17654371D01*
X18758388Y17775715D01*
X18665515Y17868588D01*
X18544171Y17918850D01*
X18294387Y17918850D01*
X18211850Y17836313D01*
X18110150Y17836313D01*
X18027613Y17918850D01*
X17777829Y17918850D01*
X17656485Y17868588D01*
X17563612Y17775715D01*
X17513350Y17654371D01*
X17332348Y17654371D01*
X17299121Y17677074D01*
X17208500Y17695425D01*
X16839999Y17695425D01*
X16840142Y17859405D01*
X16759131Y18055467D01*
X16609256Y18205604D01*
X16413335Y18286957D01*
X16201195Y18287142D01*
X16079842Y18237000D01*
X15828313Y18237000D01*
X16079173Y18487423D01*
X16230278Y18851323D01*
X16230621Y19245348D01*
X16080152Y19609512D01*
X15801777Y19888373D01*
X15437877Y20039478D01*
X15043852Y20039821D01*
X14679688Y19889352D01*
X14400827Y19610977D01*
X14249722Y19247077D01*
X14249379Y18853052D01*
X14399848Y18488888D01*
X14651297Y18237000D01*
X13288313Y18237000D01*
X13539173Y18487423D01*
X13690278Y18851323D01*
X13690621Y19245348D01*
X13540152Y19609512D01*
X13261777Y19888373D01*
X12897877Y20039478D01*
X12503852Y20039821D01*
X12139688Y19889352D01*
X11860827Y19610977D01*
X11709722Y19247077D01*
X11709379Y18853052D01*
X11859848Y18488888D01*
X12111297Y18237000D01*
X10748313Y18237000D01*
X10999173Y18487423D01*
X11150278Y18851323D01*
X11150621Y19245348D01*
X11000152Y19609512D01*
X10721777Y19888373D01*
X10357877Y20039478D01*
X9963852Y20039821D01*
X9599688Y19889352D01*
X9320827Y19610977D01*
X9169722Y19247077D01*
X9169379Y18853052D01*
X9319848Y18488888D01*
X9571297Y18237000D01*
X8670405Y18237000D01*
X8670400Y18237001D01*
X8553834Y18213814D01*
X8455015Y18147785D01*
X8021155Y17713925D01*
X7544000Y17713925D01*
X7459342Y17697995D01*
X7381588Y17647962D01*
X7329426Y17571621D01*
X7311075Y17481000D01*
X7311075Y16931000D01*
X7327005Y16846342D01*
X7377038Y16768588D01*
X7453379Y16716426D01*
X7544000Y16698075D01*
X8344000Y16698075D01*
X8428658Y16714005D01*
X8506412Y16764038D01*
X8558574Y16840379D01*
X8576925Y16931000D01*
X8576925Y17408155D01*
X8796570Y17627800D01*
X9767812Y17627800D01*
X9729426Y17571621D01*
X9711075Y17481000D01*
X9711075Y16931000D01*
X9727005Y16846342D01*
X9752625Y16806528D01*
X9664112Y16718015D01*
X9613850Y16596671D01*
X9613850Y16389387D01*
X9696387Y16306850D01*
X10293150Y16306850D01*
X10293150Y16326850D01*
X10394850Y16326850D01*
X10394850Y16306850D01*
X10991613Y16306850D01*
X11074150Y16389387D01*
X11074150Y16596671D01*
X11023888Y16718015D01*
X10935416Y16806487D01*
X10958574Y16840379D01*
X10970931Y16901400D01*
X11133575Y16901400D01*
X11133575Y16700500D01*
X11149505Y16615842D01*
X11199538Y16538088D01*
X11275879Y16485926D01*
X11366500Y16467575D01*
X12001500Y16467575D01*
X12086158Y16483505D01*
X12163912Y16533538D01*
X12216074Y16609879D01*
X12234425Y16700500D01*
X12234425Y17589500D01*
X12227218Y17627800D01*
X12306350Y17627800D01*
X12306350Y17278387D01*
X12388887Y17195850D01*
X12903150Y17195850D01*
X12903150Y17215850D01*
X13004850Y17215850D01*
X13004850Y17195850D01*
X13519113Y17195850D01*
X13601650Y17278387D01*
X13601650Y17627800D01*
X13681331Y17627800D01*
X13673575Y17589500D01*
X13673575Y17177745D01*
X13554547Y17058716D01*
X13519113Y17094150D01*
X13004850Y17094150D01*
X13004850Y17074150D01*
X12903150Y17074150D01*
X12903150Y17094150D01*
X12388887Y17094150D01*
X12306350Y17011613D01*
X12306350Y16634829D01*
X12356612Y16513485D01*
X12449485Y16420612D01*
X12570829Y16370350D01*
X12820613Y16370350D01*
X12903148Y16452885D01*
X12903148Y16407318D01*
X12552724Y16056894D01*
X12463780Y16074905D01*
X11564620Y16074905D01*
X11479962Y16058975D01*
X11402208Y16008942D01*
X11350046Y15932601D01*
X11331695Y15841980D01*
X11331695Y15763000D01*
X10992903Y15763000D01*
X11023888Y15793985D01*
X11074150Y15915329D01*
X11074150Y16122613D01*
X10991613Y16205150D01*
X10394850Y16205150D01*
X10394850Y16185150D01*
X10293150Y16185150D01*
X10293150Y16205150D01*
X9696387Y16205150D01*
X9613850Y16122613D01*
X9613850Y16025246D01*
X9314748Y16324348D01*
X9166487Y16423413D01*
X8991600Y16458200D01*
X7175500Y16458200D01*
X7000614Y16423413D01*
X6852352Y16324348D01*
X6753287Y16176086D01*
X6752889Y16174084D01*
X6412578Y15833774D01*
X6470714Y15930819D01*
X6507792Y16066882D01*
X6445768Y16227210D01*
X5100370Y16227210D01*
X5100370Y16207210D01*
X4998670Y16207210D01*
X4998670Y16227210D01*
X3653272Y16227210D01*
X3591248Y16066882D01*
X3628326Y15930819D01*
X3835137Y15585591D01*
X3893008Y15542650D01*
X2906572Y15542650D01*
X2964443Y15585591D01*
X3171254Y15930819D01*
X3208332Y16066882D01*
X3146308Y16227210D01*
X1800910Y16227210D01*
X1800910Y16207210D01*
X1699210Y16207210D01*
X1699210Y16227210D01*
X1679210Y16227210D01*
X1679210Y16328910D01*
X1699210Y16328910D01*
X1699210Y17308210D01*
X1800910Y17308210D01*
X1800910Y16328910D01*
X3146308Y16328910D01*
X3208332Y16489238D01*
X3591248Y16489238D01*
X3653272Y16328910D01*
X4998670Y16328910D01*
X4998670Y17308210D01*
X5100370Y17308210D01*
X5100370Y16328910D01*
X6445768Y16328910D01*
X6507792Y16489238D01*
X6470714Y16625301D01*
X6263903Y16970529D01*
X5940721Y17210335D01*
X5550370Y17308210D01*
X5100370Y17308210D01*
X4998670Y17308210D01*
X4548670Y17308210D01*
X4158319Y17210335D01*
X3835137Y16970529D01*
X3628326Y16625301D01*
X3591248Y16489238D01*
X3208332Y16489238D01*
X3171254Y16625301D01*
X2964443Y16970529D01*
X2641261Y17210335D01*
X2250910Y17308210D01*
X1800910Y17308210D01*
X1699210Y17308210D01*
X1249210Y17308210D01*
X858859Y17210335D01*
X535677Y16970529D01*
X328866Y16625301D01*
X303450Y16532033D01*
X303450Y18285098D01*
X1847810Y18285098D01*
X1927296Y18119374D01*
X2329764Y17955681D01*
X2764240Y17958466D01*
X3152704Y18119374D01*
X3232190Y18285098D01*
X4387810Y18285098D01*
X4467296Y18119374D01*
X4869764Y17955681D01*
X5304240Y17958466D01*
X5692704Y18119374D01*
X5772190Y18285098D01*
X5080000Y18977287D01*
X4387810Y18285098D01*
X3232190Y18285098D01*
X2540000Y18977287D01*
X1847810Y18285098D01*
X303450Y18285098D01*
X303450Y19259436D01*
X1446481Y19259436D01*
X1449266Y18824960D01*
X1610174Y18436496D01*
X1775898Y18357010D01*
X2468087Y19049200D01*
X2611913Y19049200D01*
X3304102Y18357010D01*
X3469826Y18436496D01*
X3633519Y18838964D01*
X3630824Y19259436D01*
X3986481Y19259436D01*
X3989266Y18824960D01*
X4150174Y18436496D01*
X4315898Y18357010D01*
X5008087Y19049200D01*
X5151913Y19049200D01*
X5844102Y18357010D01*
X6009826Y18436496D01*
X6173519Y18838964D01*
X6170734Y19273440D01*
X6009826Y19661904D01*
X5844102Y19741390D01*
X5151913Y19049200D01*
X5008087Y19049200D01*
X4315898Y19741390D01*
X4150174Y19661904D01*
X3986481Y19259436D01*
X3630824Y19259436D01*
X3630734Y19273440D01*
X3469826Y19661904D01*
X3304102Y19741390D01*
X2611913Y19049200D01*
X2468087Y19049200D01*
X1775898Y19741390D01*
X1610174Y19661904D01*
X1446481Y19259436D01*
X303450Y19259436D01*
X303450Y19813302D01*
X1847810Y19813302D01*
X2540000Y19121113D01*
X3232190Y19813302D01*
X4387810Y19813302D01*
X5080000Y19121113D01*
X5772190Y19813302D01*
X5692704Y19979026D01*
X5290236Y20142719D01*
X4855760Y20139934D01*
X4467296Y19979026D01*
X4387810Y19813302D01*
X3232190Y19813302D01*
X3152704Y19979026D01*
X2750236Y20142719D01*
X2315760Y20139934D01*
X1927296Y19979026D01*
X1847810Y19813302D01*
X303450Y19813302D01*
X303450Y22555750D01*
X53036550Y22555750D01*
X53036550Y302650D01*
X53036550Y302650D01*
G37*
X53036550Y302650D02*
X303450Y302650D01*
X303450Y6326367D01*
X328866Y6233099D01*
X535677Y5887871D01*
X858859Y5648065D01*
X1249210Y5550190D01*
X1699210Y5550190D01*
X1699210Y6529490D01*
X1800910Y6529490D01*
X1800910Y5550190D01*
X2250910Y5550190D01*
X2641261Y5648065D01*
X2964443Y5887871D01*
X3171254Y6233099D01*
X3208332Y6369162D01*
X3146308Y6529490D01*
X1800910Y6529490D01*
X1699210Y6529490D01*
X1679210Y6529490D01*
X1679210Y6631190D01*
X1699210Y6631190D01*
X1699210Y6651190D01*
X1800910Y6651190D01*
X1800910Y6631190D01*
X3146308Y6631190D01*
X3208332Y6791518D01*
X3171254Y6927581D01*
X2964443Y7272809D01*
X2906572Y7315750D01*
X3893008Y7315750D01*
X3835137Y7272809D01*
X3628326Y6927581D01*
X3591248Y6791518D01*
X3653272Y6631190D01*
X4998670Y6631190D01*
X4998670Y6651190D01*
X5100370Y6651190D01*
X5100370Y6631190D01*
X5120370Y6631190D01*
X5120370Y6529490D01*
X5100370Y6529490D01*
X5100370Y6509490D01*
X4998670Y6509490D01*
X4998670Y6529490D01*
X3653272Y6529490D01*
X3591248Y6369162D01*
X3628326Y6233099D01*
X3835137Y5887871D01*
X4046027Y5731387D01*
X4001838Y5701878D01*
X4001815Y5701843D01*
X4001780Y5701820D01*
X2993354Y4693394D01*
X2737877Y4799478D01*
X2343852Y4799821D01*
X1979688Y4649352D01*
X1700827Y4370977D01*
X1549722Y4007077D01*
X1549379Y3613052D01*
X1699848Y3248888D01*
X1978223Y2970027D01*
X2342123Y2818922D01*
X2736148Y2818579D01*
X3100312Y2969048D01*
X3379173Y3247423D01*
X3530278Y3611323D01*
X3530621Y4005348D01*
X3424302Y4262662D01*
X4343356Y5181716D01*
X6146485Y5181228D01*
X6031015Y5158260D01*
X5932180Y5092220D01*
X5533354Y4693394D01*
X5277877Y4799478D01*
X4883852Y4799821D01*
X4519688Y4649352D01*
X4240827Y4370977D01*
X4089722Y4007077D01*
X4089379Y3613052D01*
X4239848Y3248888D01*
X4518223Y2970027D01*
X4882123Y2818922D01*
X5276148Y2818579D01*
X5640312Y2969048D01*
X5919173Y3247423D01*
X6070278Y3611323D01*
X6070621Y4005348D01*
X5964302Y4262662D01*
X6273790Y4572150D01*
X6982351Y4572150D01*
X6780827Y4370977D01*
X6629722Y4007077D01*
X6629379Y3613052D01*
X6779848Y3248888D01*
X7058223Y2970027D01*
X7422123Y2818922D01*
X7816148Y2818579D01*
X8180312Y2969048D01*
X8459173Y3247423D01*
X8469754Y3272904D01*
X8536744Y3205796D01*
X8732665Y3124443D01*
X8944805Y3124258D01*
X9140867Y3205269D01*
X9280342Y3344500D01*
X9319848Y3248888D01*
X9598223Y2970027D01*
X9962123Y2818922D01*
X10356148Y2818579D01*
X10720312Y2969048D01*
X10999173Y3247423D01*
X11150278Y3611323D01*
X11150621Y4005348D01*
X11000152Y4369512D01*
X10721777Y4648373D01*
X10357877Y4799478D01*
X9963852Y4799821D01*
X9599688Y4649352D01*
X9320827Y4370977D01*
X9191485Y4059488D01*
X9141656Y4109404D01*
X9118400Y4119061D01*
X9118400Y5067350D01*
X9391613Y5067350D01*
X9474150Y5149887D01*
X9474150Y5664150D01*
X9575850Y5664150D01*
X9575850Y5149887D01*
X9658387Y5067350D01*
X10035171Y5067350D01*
X10156515Y5117612D01*
X10160000Y5121097D01*
X10163485Y5117612D01*
X10284829Y5067350D01*
X10661613Y5067350D01*
X10744150Y5149887D01*
X10744150Y5664150D01*
X10845850Y5664150D01*
X10845850Y5149887D01*
X10928387Y5067350D01*
X11305171Y5067350D01*
X11426515Y5117612D01*
X11519388Y5210485D01*
X11569650Y5331829D01*
X11569650Y5581613D01*
X11487113Y5664150D01*
X10845850Y5664150D01*
X10744150Y5664150D01*
X9575850Y5664150D01*
X9474150Y5664150D01*
X9454150Y5664150D01*
X9454150Y5765850D01*
X9474150Y5765850D01*
X9474150Y6280113D01*
X9575850Y6280113D01*
X9575850Y5765850D01*
X10744150Y5765850D01*
X10744150Y6280113D01*
X10661613Y6362650D01*
X10284829Y6362650D01*
X10163485Y6312388D01*
X10160000Y6308903D01*
X10156515Y6312388D01*
X10035171Y6362650D01*
X9658387Y6362650D01*
X9575850Y6280113D01*
X9474150Y6280113D01*
X9391613Y6362650D01*
X9118400Y6362650D01*
X9118400Y6434575D01*
X9969500Y6434575D01*
X10054158Y6450505D01*
X10131912Y6500538D01*
X10150676Y6528000D01*
X10168795Y6528000D01*
X10183538Y6505088D01*
X10259879Y6452926D01*
X10350500Y6434575D01*
X11239500Y6434575D01*
X11324158Y6450505D01*
X11401912Y6500538D01*
X11420676Y6528000D01*
X11500075Y6528000D01*
X11500075Y6238828D01*
X11426515Y6312388D01*
X11305171Y6362650D01*
X10928387Y6362650D01*
X10845850Y6280113D01*
X10845850Y5765850D01*
X11487113Y5765850D01*
X11525637Y5804374D01*
X11566038Y5741588D01*
X11642379Y5689426D01*
X11733000Y5671075D01*
X11974334Y5671075D01*
X11981003Y5660771D01*
X12817406Y4799548D01*
X12503852Y4799821D01*
X12139688Y4649352D01*
X11860827Y4370977D01*
X11709722Y4007077D01*
X11709379Y3613052D01*
X11859848Y3248888D01*
X12138223Y2970027D01*
X12502123Y2818922D01*
X12896148Y2818579D01*
X13260312Y2969048D01*
X13539173Y3247423D01*
X13563800Y3306731D01*
X13563800Y2692400D01*
X13598587Y2517513D01*
X13697652Y2369252D01*
X14307252Y1759652D01*
X14307638Y1759394D01*
X14308040Y1758796D01*
X14397766Y1699173D01*
X14455514Y1660587D01*
X14455969Y1660496D01*
X14456569Y1660098D01*
X14562235Y1639358D01*
X14630400Y1625799D01*
X14630856Y1625890D01*
X14631562Y1625751D01*
X19051162Y1636991D01*
X34290769Y1675750D01*
X45872400Y1675750D01*
X46047306Y1710541D01*
X46195583Y1809617D01*
X47414683Y3028717D01*
X47425628Y3045098D01*
X47567810Y3045098D01*
X47647296Y2879374D01*
X48049764Y2715681D01*
X48484240Y2718466D01*
X48872704Y2879374D01*
X48952190Y3045098D01*
X48260000Y3737287D01*
X47567810Y3045098D01*
X47425628Y3045098D01*
X47479071Y3125081D01*
X47495898Y3117010D01*
X48188087Y3809200D01*
X48331913Y3809200D01*
X49024102Y3117010D01*
X49189826Y3196496D01*
X49353519Y3598964D01*
X49350734Y4033440D01*
X49189826Y4421904D01*
X49024102Y4501390D01*
X48331913Y3809200D01*
X48188087Y3809200D01*
X48173945Y3823342D01*
X48245858Y3895255D01*
X48260000Y3881113D01*
X48952190Y4573302D01*
X48872704Y4739026D01*
X48694233Y4811614D01*
X48870470Y4811461D01*
X49009713Y4672218D01*
X49009715Y4672215D01*
X49108535Y4606186D01*
X49225100Y4583000D01*
X49807465Y4583000D01*
X49805075Y4571200D01*
X49805075Y3047200D01*
X49821005Y2962542D01*
X49871038Y2884788D01*
X49947379Y2832626D01*
X50038000Y2814275D01*
X51562000Y2814275D01*
X51646658Y2830205D01*
X51724412Y2880238D01*
X51776574Y2956579D01*
X51794925Y3047200D01*
X51794925Y4310229D01*
X52596248Y5111552D01*
X52695313Y5259813D01*
X52730100Y5434700D01*
X52730100Y18618457D01*
X52806257Y18801865D01*
X52806442Y19014005D01*
X52730100Y19198767D01*
X52730100Y19228057D01*
X52806257Y19411465D01*
X52806442Y19623605D01*
X52725431Y19819667D01*
X52575556Y19969804D01*
X52379635Y20051157D01*
X52167495Y20051342D01*
X51971433Y19970331D01*
X51821296Y19820456D01*
X51794925Y19756947D01*
X51794925Y19811200D01*
X51778995Y19895858D01*
X51728962Y19973612D01*
X51652621Y20025774D01*
X51562000Y20044125D01*
X50038000Y20044125D01*
X49986950Y20034519D01*
X49986950Y20115799D01*
X49987000Y20116050D01*
X49952209Y20290956D01*
X49853133Y20439233D01*
X49243583Y21048783D01*
X49095306Y21147859D01*
X48920400Y21182650D01*
X8839200Y21182650D01*
X8664294Y21147859D01*
X8516017Y21048783D01*
X7506983Y20039749D01*
X7423852Y20039821D01*
X7059688Y19889352D01*
X6780827Y19610977D01*
X6629722Y19247077D01*
X6629379Y18853052D01*
X6779848Y18488888D01*
X7058223Y18210027D01*
X7422123Y18058922D01*
X7816148Y18058579D01*
X8180312Y18209048D01*
X8459173Y18487423D01*
X8610278Y18851323D01*
X8610621Y19245348D01*
X8460152Y19609512D01*
X8414855Y19654889D01*
X9028516Y20268550D01*
X18592950Y20268550D01*
X18592950Y19636761D01*
X18341777Y19888373D01*
X17977877Y20039478D01*
X17583852Y20039821D01*
X17219688Y19889352D01*
X16940827Y19610977D01*
X16789722Y19247077D01*
X16789379Y18853052D01*
X16939848Y18488888D01*
X17218223Y18210027D01*
X17582123Y18058922D01*
X17976148Y18058579D01*
X18340312Y18209048D01*
X18592950Y18461246D01*
X18592950Y18134800D01*
X18627741Y17959894D01*
X18726817Y17811617D01*
X18892221Y17646213D01*
X18880575Y17588700D01*
X18880575Y16699700D01*
X18896505Y16615042D01*
X18942166Y16544083D01*
X18901842Y16536495D01*
X18824088Y16486462D01*
X18771926Y16410121D01*
X18753575Y16319500D01*
X18753575Y15430500D01*
X18769505Y15345842D01*
X18819538Y15268088D01*
X18895879Y15215926D01*
X18986500Y15197575D01*
X19365963Y15197575D01*
X19077188Y14908800D01*
X18838425Y14908800D01*
X18838425Y15048700D01*
X18822495Y15133358D01*
X18772462Y15211112D01*
X18696121Y15263274D01*
X18643960Y15273837D01*
X18681650Y15364829D01*
X18681650Y15741613D01*
X18599113Y15824150D01*
X18084850Y15824150D01*
X18084850Y15804150D01*
X17983150Y15804150D01*
X17983150Y15824150D01*
X17468887Y15824150D01*
X17462500Y15817763D01*
X17456113Y15824150D01*
X16814850Y15824150D01*
X16814850Y15804150D01*
X16713150Y15804150D01*
X16713150Y15824150D01*
X16071887Y15824150D01*
X15989350Y15741613D01*
X15989350Y15491829D01*
X16039612Y15370485D01*
X16132485Y15277612D01*
X16253829Y15227350D01*
X16417147Y15227350D01*
X16370350Y15114371D01*
X16370350Y14737587D01*
X16452887Y14655050D01*
X16967150Y14655050D01*
X16967150Y14675050D01*
X17068850Y14675050D01*
X17068850Y14655050D01*
X17583113Y14655050D01*
X17665650Y14737587D01*
X17665650Y15100350D01*
X17748034Y15100350D01*
X17737575Y15048700D01*
X17737575Y14172200D01*
X17665650Y14172200D01*
X17665650Y14470813D01*
X17583113Y14553350D01*
X17068850Y14553350D01*
X17068850Y14533350D01*
X16967150Y14533350D01*
X16967150Y14553350D01*
X16452887Y14553350D01*
X16370350Y14470813D01*
X16370350Y14172200D01*
X14013802Y14172200D01*
X13866056Y14320204D01*
X13670135Y14401557D01*
X13457995Y14401742D01*
X13261933Y14320731D01*
X13111796Y14170856D01*
X13030443Y13974935D01*
X13030283Y13791983D01*
X12848395Y13792142D01*
X12729725Y13743109D01*
X12729725Y13842200D01*
X12713795Y13926858D01*
X12663762Y14004612D01*
X12587421Y14056774D01*
X12496800Y14075125D01*
X11441604Y14075125D01*
X11505857Y14229865D01*
X11506042Y14442005D01*
X11425031Y14638067D01*
X11275156Y14788204D01*
X11128742Y14849000D01*
X11339790Y14849000D01*
X11347625Y14807362D01*
X11397658Y14729608D01*
X11473999Y14677446D01*
X11564620Y14659095D01*
X12463780Y14659095D01*
X12548438Y14675025D01*
X12626192Y14725058D01*
X12678354Y14801399D01*
X12696705Y14892020D01*
X12696705Y15339335D01*
X13838679Y16481309D01*
X13906500Y16467575D01*
X14541500Y16467575D01*
X14626158Y16483505D01*
X14703912Y16533538D01*
X14756074Y16609879D01*
X14774425Y16700500D01*
X14774425Y17589500D01*
X14767218Y17627800D01*
X14951331Y17627800D01*
X14943575Y17589500D01*
X14943575Y16700500D01*
X14959505Y16615842D01*
X15009538Y16538088D01*
X15051531Y16509395D01*
X15011643Y16413335D01*
X15011458Y16201195D01*
X15063640Y16074905D01*
X14714220Y16074905D01*
X14629562Y16058975D01*
X14551808Y16008942D01*
X14499646Y15932601D01*
X14481295Y15841980D01*
X14481295Y15450568D01*
X14340033Y15392200D01*
X14310743Y15392200D01*
X14127335Y15468357D01*
X13915195Y15468542D01*
X13719133Y15387531D01*
X13568996Y15237656D01*
X13487643Y15041735D01*
X13487458Y14829595D01*
X13568469Y14633533D01*
X13718344Y14483396D01*
X13914265Y14402043D01*
X14126405Y14401858D01*
X14311167Y14478200D01*
X14340457Y14478200D01*
X14523865Y14402043D01*
X14736005Y14401858D01*
X14932067Y14482869D01*
X15082204Y14632744D01*
X15093146Y14659095D01*
X15613380Y14659095D01*
X15698038Y14675025D01*
X15775792Y14725058D01*
X15827954Y14801399D01*
X15846305Y14892020D01*
X15846305Y15841980D01*
X15844136Y15853506D01*
X15846467Y15854469D01*
X15994997Y16002740D01*
X16071887Y15925850D01*
X16713150Y15925850D01*
X16713150Y16440113D01*
X16814850Y16440113D01*
X16814850Y15925850D01*
X17456113Y15925850D01*
X17462500Y15932237D01*
X17468887Y15925850D01*
X17983150Y15925850D01*
X17983150Y15945850D01*
X18084850Y15945850D01*
X18084850Y15925850D01*
X18599113Y15925850D01*
X18681650Y16008387D01*
X18681650Y16385171D01*
X18666778Y16421075D01*
X18758388Y16512685D01*
X18808650Y16634029D01*
X18808650Y17010813D01*
X18726113Y17093350D01*
X18211850Y17093350D01*
X18211850Y17073350D01*
X18110150Y17073350D01*
X18110150Y17093350D01*
X17595887Y17093350D01*
X17513350Y17010813D01*
X17513350Y16634029D01*
X17528222Y16598125D01*
X17436612Y16506515D01*
X17414580Y16453323D01*
X17395515Y16472388D01*
X17274171Y16522650D01*
X16897387Y16522650D01*
X16814850Y16440113D01*
X16713150Y16440113D01*
X16630613Y16522650D01*
X16253829Y16522650D01*
X16132485Y16472388D01*
X16076493Y16416396D01*
X16007674Y16582950D01*
X16026074Y16609879D01*
X16044425Y16700500D01*
X16044425Y17285353D01*
X16086575Y17267851D01*
X16086575Y16827500D01*
X16102505Y16742842D01*
X16152538Y16665088D01*
X16228879Y16612926D01*
X16319500Y16594575D01*
X17208500Y16594575D01*
X17293158Y16610505D01*
X17370912Y16660538D01*
X17423074Y16736879D01*
X17441425Y16827500D01*
X17441425Y17462500D01*
X17425495Y17547158D01*
X17375462Y17624912D01*
X17332348Y17654371D01*
X17513350Y17654371D01*
X17513350Y17277587D01*
X17595887Y17195050D01*
X18110150Y17195050D01*
X18110150Y17836313D01*
X18211850Y17836313D01*
X18211850Y17195050D01*
X18726113Y17195050D01*
X18808650Y17277587D01*
X18808650Y17654371D01*
X18758388Y17775715D01*
X18665515Y17868588D01*
X18544171Y17918850D01*
X18294387Y17918850D01*
X18211850Y17836313D01*
X18110150Y17836313D01*
X18027613Y17918850D01*
X17777829Y17918850D01*
X17656485Y17868588D01*
X17563612Y17775715D01*
X17513350Y17654371D01*
X17332348Y17654371D01*
X17299121Y17677074D01*
X17208500Y17695425D01*
X16839999Y17695425D01*
X16840142Y17859405D01*
X16759131Y18055467D01*
X16609256Y18205604D01*
X16413335Y18286957D01*
X16201195Y18287142D01*
X16079842Y18237000D01*
X15828313Y18237000D01*
X16079173Y18487423D01*
X16230278Y18851323D01*
X16230621Y19245348D01*
X16080152Y19609512D01*
X15801777Y19888373D01*
X15437877Y20039478D01*
X15043852Y20039821D01*
X14679688Y19889352D01*
X14400827Y19610977D01*
X14249722Y19247077D01*
X14249379Y18853052D01*
X14399848Y18488888D01*
X14651297Y18237000D01*
X13288313Y18237000D01*
X13539173Y18487423D01*
X13690278Y18851323D01*
X13690621Y19245348D01*
X13540152Y19609512D01*
X13261777Y19888373D01*
X12897877Y20039478D01*
X12503852Y20039821D01*
X12139688Y19889352D01*
X11860827Y19610977D01*
X11709722Y19247077D01*
X11709379Y18853052D01*
X11859848Y18488888D01*
X12111297Y18237000D01*
X10748313Y18237000D01*
X10999173Y18487423D01*
X11150278Y18851323D01*
X11150621Y19245348D01*
X11000152Y19609512D01*
X10721777Y19888373D01*
X10357877Y20039478D01*
X9963852Y20039821D01*
X9599688Y19889352D01*
X9320827Y19610977D01*
X9169722Y19247077D01*
X9169379Y18853052D01*
X9319848Y18488888D01*
X9571297Y18237000D01*
X8670405Y18237000D01*
X8670400Y18237001D01*
X8553834Y18213814D01*
X8455015Y18147785D01*
X8021155Y17713925D01*
X7544000Y17713925D01*
X7459342Y17697995D01*
X7381588Y17647962D01*
X7329426Y17571621D01*
X7311075Y17481000D01*
X7311075Y16931000D01*
X7327005Y16846342D01*
X7377038Y16768588D01*
X7453379Y16716426D01*
X7544000Y16698075D01*
X8344000Y16698075D01*
X8428658Y16714005D01*
X8506412Y16764038D01*
X8558574Y16840379D01*
X8576925Y16931000D01*
X8576925Y17408155D01*
X8796570Y17627800D01*
X9767812Y17627800D01*
X9729426Y17571621D01*
X9711075Y17481000D01*
X9711075Y16931000D01*
X9727005Y16846342D01*
X9752625Y16806528D01*
X9664112Y16718015D01*
X9613850Y16596671D01*
X9613850Y16389387D01*
X9696387Y16306850D01*
X10293150Y16306850D01*
X10293150Y16326850D01*
X10394850Y16326850D01*
X10394850Y16306850D01*
X10991613Y16306850D01*
X11074150Y16389387D01*
X11074150Y16596671D01*
X11023888Y16718015D01*
X10935416Y16806487D01*
X10958574Y16840379D01*
X10970931Y16901400D01*
X11133575Y16901400D01*
X11133575Y16700500D01*
X11149505Y16615842D01*
X11199538Y16538088D01*
X11275879Y16485926D01*
X11366500Y16467575D01*
X12001500Y16467575D01*
X12086158Y16483505D01*
X12163912Y16533538D01*
X12216074Y16609879D01*
X12234425Y16700500D01*
X12234425Y17589500D01*
X12227218Y17627800D01*
X12306350Y17627800D01*
X12306350Y17278387D01*
X12388887Y17195850D01*
X12903150Y17195850D01*
X12903150Y17215850D01*
X13004850Y17215850D01*
X13004850Y17195850D01*
X13519113Y17195850D01*
X13601650Y17278387D01*
X13601650Y17627800D01*
X13681331Y17627800D01*
X13673575Y17589500D01*
X13673575Y17177745D01*
X13554547Y17058716D01*
X13519113Y17094150D01*
X13004850Y17094150D01*
X13004850Y17074150D01*
X12903150Y17074150D01*
X12903150Y17094150D01*
X12388887Y17094150D01*
X12306350Y17011613D01*
X12306350Y16634829D01*
X12356612Y16513485D01*
X12449485Y16420612D01*
X12570829Y16370350D01*
X12820613Y16370350D01*
X12903148Y16452885D01*
X12903148Y16407318D01*
X12552724Y16056894D01*
X12463780Y16074905D01*
X11564620Y16074905D01*
X11479962Y16058975D01*
X11402208Y16008942D01*
X11350046Y15932601D01*
X11331695Y15841980D01*
X11331695Y15763000D01*
X10992903Y15763000D01*
X11023888Y15793985D01*
X11074150Y15915329D01*
X11074150Y16122613D01*
X10991613Y16205150D01*
X10394850Y16205150D01*
X10394850Y16185150D01*
X10293150Y16185150D01*
X10293150Y16205150D01*
X9696387Y16205150D01*
X9613850Y16122613D01*
X9613850Y16025246D01*
X9314748Y16324348D01*
X9166487Y16423413D01*
X8991600Y16458200D01*
X7175500Y16458200D01*
X7000614Y16423413D01*
X6852352Y16324348D01*
X6753287Y16176086D01*
X6752889Y16174084D01*
X6412578Y15833774D01*
X6470714Y15930819D01*
X6507792Y16066882D01*
X6445768Y16227210D01*
X5100370Y16227210D01*
X5100370Y16207210D01*
X4998670Y16207210D01*
X4998670Y16227210D01*
X3653272Y16227210D01*
X3591248Y16066882D01*
X3628326Y15930819D01*
X3835137Y15585591D01*
X3893008Y15542650D01*
X2906572Y15542650D01*
X2964443Y15585591D01*
X3171254Y15930819D01*
X3208332Y16066882D01*
X3146308Y16227210D01*
X1800910Y16227210D01*
X1800910Y16207210D01*
X1699210Y16207210D01*
X1699210Y16227210D01*
X1679210Y16227210D01*
X1679210Y16328910D01*
X1699210Y16328910D01*
X1699210Y17308210D01*
X1800910Y17308210D01*
X1800910Y16328910D01*
X3146308Y16328910D01*
X3208332Y16489238D01*
X3591248Y16489238D01*
X3653272Y16328910D01*
X4998670Y16328910D01*
X4998670Y17308210D01*
X5100370Y17308210D01*
X5100370Y16328910D01*
X6445768Y16328910D01*
X6507792Y16489238D01*
X6470714Y16625301D01*
X6263903Y16970529D01*
X5940721Y17210335D01*
X5550370Y17308210D01*
X5100370Y17308210D01*
X4998670Y17308210D01*
X4548670Y17308210D01*
X4158319Y17210335D01*
X3835137Y16970529D01*
X3628326Y16625301D01*
X3591248Y16489238D01*
X3208332Y16489238D01*
X3171254Y16625301D01*
X2964443Y16970529D01*
X2641261Y17210335D01*
X2250910Y17308210D01*
X1800910Y17308210D01*
X1699210Y17308210D01*
X1249210Y17308210D01*
X858859Y17210335D01*
X535677Y16970529D01*
X328866Y16625301D01*
X303450Y16532033D01*
X303450Y18285098D01*
X1847810Y18285098D01*
X1927296Y18119374D01*
X2329764Y17955681D01*
X2764240Y17958466D01*
X3152704Y18119374D01*
X3232190Y18285098D01*
X4387810Y18285098D01*
X4467296Y18119374D01*
X4869764Y17955681D01*
X5304240Y17958466D01*
X5692704Y18119374D01*
X5772190Y18285098D01*
X5080000Y18977287D01*
X4387810Y18285098D01*
X3232190Y18285098D01*
X2540000Y18977287D01*
X1847810Y18285098D01*
X303450Y18285098D01*
X303450Y19259436D01*
X1446481Y19259436D01*
X1449266Y18824960D01*
X1610174Y18436496D01*
X1775898Y18357010D01*
X2468087Y19049200D01*
X2611913Y19049200D01*
X3304102Y18357010D01*
X3469826Y18436496D01*
X3633519Y18838964D01*
X3630824Y19259436D01*
X3986481Y19259436D01*
X3989266Y18824960D01*
X4150174Y18436496D01*
X4315898Y18357010D01*
X5008087Y19049200D01*
X5151913Y19049200D01*
X5844102Y18357010D01*
X6009826Y18436496D01*
X6173519Y18838964D01*
X6170734Y19273440D01*
X6009826Y19661904D01*
X5844102Y19741390D01*
X5151913Y19049200D01*
X5008087Y19049200D01*
X4315898Y19741390D01*
X4150174Y19661904D01*
X3986481Y19259436D01*
X3630824Y19259436D01*
X3630734Y19273440D01*
X3469826Y19661904D01*
X3304102Y19741390D01*
X2611913Y19049200D01*
X2468087Y19049200D01*
X1775898Y19741390D01*
X1610174Y19661904D01*
X1446481Y19259436D01*
X303450Y19259436D01*
X303450Y19813302D01*
X1847810Y19813302D01*
X2540000Y19121113D01*
X3232190Y19813302D01*
X4387810Y19813302D01*
X5080000Y19121113D01*
X5772190Y19813302D01*
X5692704Y19979026D01*
X5290236Y20142719D01*
X4855760Y20139934D01*
X4467296Y19979026D01*
X4387810Y19813302D01*
X3232190Y19813302D01*
X3152704Y19979026D01*
X2750236Y20142719D01*
X2315760Y20139934D01*
X1927296Y19979026D01*
X1847810Y19813302D01*
X303450Y19813302D01*
X303450Y22555750D01*
X53036550Y22555750D01*
X53036550Y302650D01*
G36*
X11430050Y10972050D02*
X11450050Y10972050D01*
X11450050Y10870350D01*
X11430050Y10870350D01*
X11430050Y10063987D01*
X11512587Y9981450D01*
X12562471Y9981450D01*
X12683815Y10031712D01*
X12776688Y10124585D01*
X12801750Y10185090D01*
X12801750Y8990800D01*
X12824940Y8874215D01*
X12879517Y8792535D01*
X12890980Y8775380D01*
X13348180Y8318180D01*
X13447015Y8252140D01*
X13563600Y8228950D01*
X15253344Y8228950D01*
X15243133Y8224731D01*
X15092996Y8074856D01*
X15011643Y7878935D01*
X15011458Y7666795D01*
X15038026Y7602494D01*
X14989485Y7582388D01*
X14896612Y7489515D01*
X14872521Y7431354D01*
X14849962Y7466412D01*
X14773621Y7518574D01*
X14683000Y7536925D01*
X13533000Y7536925D01*
X13448342Y7520995D01*
X13370588Y7470962D01*
X13318426Y7394621D01*
X13300075Y7304000D01*
X13300075Y5904000D01*
X13316005Y5819342D01*
X13366038Y5741588D01*
X13442379Y5689426D01*
X13533000Y5671075D01*
X14605912Y5671075D01*
X14632744Y5644196D01*
X14828665Y5562843D01*
X14943575Y5562743D01*
X14943575Y5397500D01*
X14959505Y5312842D01*
X15009538Y5235088D01*
X15085879Y5182926D01*
X15176500Y5164575D01*
X16065500Y5164575D01*
X16150158Y5180505D01*
X16227912Y5230538D01*
X16280074Y5306879D01*
X16290575Y5358734D01*
X16380829Y5321350D01*
X16757613Y5321350D01*
X16840150Y5403887D01*
X16840150Y5918150D01*
X16941850Y5918150D01*
X16941850Y5403887D01*
X17024387Y5321350D01*
X17401171Y5321350D01*
X17522515Y5371612D01*
X17541345Y5390442D01*
X17563612Y5336685D01*
X17656485Y5243812D01*
X17777829Y5193550D01*
X18027613Y5193550D01*
X18110150Y5276087D01*
X18110150Y5917350D01*
X17595887Y5917350D01*
X17589900Y5911363D01*
X17583113Y5918150D01*
X16941850Y5918150D01*
X16840150Y5918150D01*
X16820150Y5918150D01*
X16820150Y6019850D01*
X16840150Y6019850D01*
X16840150Y6534113D01*
X16757613Y6616650D01*
X16395650Y6616650D01*
X16395650Y6698872D01*
X16446500Y6688575D01*
X17335500Y6688575D01*
X17420158Y6704505D01*
X17497912Y6754538D01*
X17513350Y6777132D01*
X17513350Y6728029D01*
X17563612Y6606685D01*
X17567097Y6603200D01*
X17563612Y6599715D01*
X17541814Y6547089D01*
X17522515Y6566388D01*
X17401171Y6616650D01*
X17024387Y6616650D01*
X16941850Y6534113D01*
X16941850Y6019850D01*
X17583113Y6019850D01*
X17589100Y6025837D01*
X17595887Y6019050D01*
X18110150Y6019050D01*
X18110150Y7187350D01*
X18211850Y7187350D01*
X18211850Y6019050D01*
X18726113Y6019050D01*
X18808650Y6101587D01*
X18808650Y6478371D01*
X18758388Y6599715D01*
X18754903Y6603200D01*
X18758388Y6606685D01*
X18808650Y6728029D01*
X18808650Y7104813D01*
X18726113Y7187350D01*
X18211850Y7187350D01*
X18110150Y7187350D01*
X18090150Y7187350D01*
X18090150Y7289050D01*
X18110150Y7289050D01*
X18110150Y7930313D01*
X18211850Y7930313D01*
X18211850Y7289050D01*
X18726113Y7289050D01*
X18808650Y7371587D01*
X18808650Y7748371D01*
X18758388Y7869715D01*
X18665515Y7962588D01*
X18544171Y8012850D01*
X18294387Y8012850D01*
X18211850Y7930313D01*
X18110150Y7930313D01*
X18027613Y8012850D01*
X17777829Y8012850D01*
X17656485Y7962588D01*
X17563612Y7869715D01*
X17513350Y7748371D01*
X17513350Y7701991D01*
X17502462Y7718912D01*
X17426121Y7771074D01*
X17335500Y7789425D01*
X16771345Y7789425D01*
X16572985Y7987785D01*
X16474166Y8053814D01*
X16357600Y8077000D01*
X15994203Y8077000D01*
X15847256Y8224204D01*
X15835826Y8228950D01*
X19507200Y8228950D01*
X19623785Y8252140D01*
X19722620Y8318180D01*
X20089615Y8685175D01*
X20089615Y8531060D01*
X20102879Y8460570D01*
X20004180Y8394620D01*
X19525185Y7915625D01*
X19113500Y7915625D01*
X19028842Y7899695D01*
X18951088Y7849662D01*
X18898926Y7773321D01*
X18880575Y7682700D01*
X18880575Y6793700D01*
X18896505Y6709042D01*
X18946538Y6631288D01*
X18987656Y6603193D01*
X18951088Y6579662D01*
X18898926Y6503321D01*
X18880575Y6412700D01*
X18880575Y5607671D01*
X18808650Y5535746D01*
X18808650Y5834813D01*
X18726113Y5917350D01*
X18211850Y5917350D01*
X18211850Y5276087D01*
X18294387Y5193550D01*
X18544171Y5193550D01*
X18610987Y5221226D01*
X18602603Y5179079D01*
X18593000Y5130800D01*
X18593000Y4396711D01*
X18341777Y4648373D01*
X17977877Y4799478D01*
X17583852Y4799821D01*
X17219688Y4649352D01*
X16940827Y4370977D01*
X16789722Y4007077D01*
X16789379Y3613052D01*
X16939848Y3248888D01*
X17218223Y2970027D01*
X17582123Y2818922D01*
X17976148Y2818579D01*
X18340312Y2969048D01*
X18593000Y3221296D01*
X18593000Y2549930D01*
X14819164Y2540332D01*
X14477800Y2881696D01*
X14477800Y3170800D01*
X14678223Y2970027D01*
X15042123Y2818922D01*
X15436148Y2818579D01*
X15800312Y2969048D01*
X16079173Y3247423D01*
X16230278Y3611323D01*
X16230621Y4005348D01*
X16080152Y4369512D01*
X15801777Y4648373D01*
X15437877Y4799478D01*
X15043852Y4799821D01*
X14679688Y4649352D01*
X14434274Y4404365D01*
X14395290Y4462709D01*
X14348637Y4534789D01*
X13099182Y5821320D01*
X13115925Y5904000D01*
X13115925Y7304000D01*
X13099995Y7388658D01*
X13049962Y7466412D01*
X12973621Y7518574D01*
X12883000Y7536925D01*
X11733000Y7536925D01*
X11648342Y7520995D01*
X11570588Y7470962D01*
X11550799Y7442000D01*
X11421205Y7442000D01*
X11406462Y7464912D01*
X11330121Y7517074D01*
X11239500Y7535425D01*
X10350500Y7535425D01*
X10265842Y7519495D01*
X10188088Y7469462D01*
X10169324Y7442000D01*
X10151205Y7442000D01*
X10136462Y7464912D01*
X10060121Y7517074D01*
X9982000Y7532894D01*
X9982000Y8087127D01*
X10028675Y8095910D01*
X10028675Y8000200D01*
X10044605Y7915542D01*
X10094638Y7837788D01*
X10170979Y7785626D01*
X10261600Y7767275D01*
X12496800Y7767275D01*
X12581458Y7783205D01*
X12659212Y7833238D01*
X12711374Y7909579D01*
X12729725Y8000200D01*
X12729725Y9219400D01*
X12713795Y9304058D01*
X12663762Y9381812D01*
X12587421Y9433974D01*
X12496800Y9452325D01*
X10261600Y9452325D01*
X10176942Y9436395D01*
X10099188Y9386362D01*
X10047026Y9310021D01*
X10028675Y9219400D01*
X10028675Y9173642D01*
X9969500Y9185625D01*
X9080500Y9185625D01*
X8995842Y9169695D01*
X8918088Y9119662D01*
X8889993Y9078544D01*
X8866462Y9115112D01*
X8790121Y9167274D01*
X8699500Y9185625D01*
X7810500Y9185625D01*
X7725842Y9169695D01*
X7648088Y9119662D01*
X7595926Y9043321D01*
X7577575Y8952700D01*
X7577575Y8317700D01*
X7593505Y8233042D01*
X7643538Y8155288D01*
X7719879Y8103126D01*
X7810500Y8084775D01*
X8197655Y8084775D01*
X8509200Y7773231D01*
X8509200Y7535425D01*
X7751971Y7535425D01*
X6933916Y8353480D01*
X6934042Y8498405D01*
X6857700Y8683167D01*
X6857700Y8712457D01*
X6933857Y8895865D01*
X6934042Y9108005D01*
X6853031Y9304067D01*
X6703156Y9454204D01*
X6507235Y9535557D01*
X6295095Y9535742D01*
X6099033Y9454731D01*
X5948896Y9304856D01*
X5867543Y9108935D01*
X5867358Y8896795D01*
X5943700Y8712033D01*
X5943700Y8682743D01*
X5867543Y8499335D01*
X5867358Y8287195D01*
X5948369Y8091133D01*
X5987683Y8051750D01*
X6077552Y7917252D01*
X7144434Y6850370D01*
X7075837Y6822027D01*
X7020756Y6877204D01*
X6824835Y6958557D01*
X6612695Y6958742D01*
X6477451Y6902860D01*
X6470714Y6927581D01*
X6263903Y7272809D01*
X5940721Y7512615D01*
X5550370Y7610490D01*
X5123441Y7610490D01*
X5213866Y7717910D01*
X5255814Y7794087D01*
X5270979Y7821626D01*
X5338781Y8035495D01*
X5343909Y8081648D01*
X5352970Y8127200D01*
X5352970Y9601720D01*
X5700993Y9601720D01*
X5783530Y9684257D01*
X5783530Y10080410D01*
X5885230Y10080410D01*
X5885230Y9684257D01*
X5967767Y9601720D01*
X6474091Y9601720D01*
X6595435Y9651982D01*
X6688308Y9744855D01*
X6738570Y9866199D01*
X6738570Y9997873D01*
X6656033Y10080410D01*
X5885230Y10080410D01*
X5783530Y10080410D01*
X5763530Y10080410D01*
X5763530Y10182110D01*
X5783530Y10182110D01*
X5783530Y10202110D01*
X5885230Y10202110D01*
X5885230Y10182110D01*
X6656033Y10182110D01*
X6738570Y10264647D01*
X6738570Y10396321D01*
X6705193Y10476900D01*
X7074730Y10476900D01*
X7577575Y9974056D01*
X7577575Y9587700D01*
X7593505Y9503042D01*
X7643538Y9425288D01*
X7719879Y9373126D01*
X7810500Y9354775D01*
X8699500Y9354775D01*
X8784158Y9370705D01*
X8861912Y9420738D01*
X8890007Y9461856D01*
X8913538Y9425288D01*
X8989879Y9373126D01*
X9080500Y9354775D01*
X9969500Y9354775D01*
X10054158Y9370705D01*
X10131912Y9420738D01*
X10184074Y9497079D01*
X10202425Y9587700D01*
X10202425Y9981450D01*
X11245813Y9981450D01*
X11328350Y10063987D01*
X11328350Y10870350D01*
X11308350Y10870350D01*
X11308350Y10972050D01*
X11328350Y10972050D01*
X11328350Y10992050D01*
X11430050Y10992050D01*
X11430050Y10972050D01*
X11430050Y10972050D01*
G37*
X11430050Y10972050D02*
X11450050Y10972050D01*
X11450050Y10870350D01*
X11430050Y10870350D01*
X11430050Y10063987D01*
X11512587Y9981450D01*
X12562471Y9981450D01*
X12683815Y10031712D01*
X12776688Y10124585D01*
X12801750Y10185090D01*
X12801750Y8990800D01*
X12824940Y8874215D01*
X12879517Y8792535D01*
X12890980Y8775380D01*
X13348180Y8318180D01*
X13447015Y8252140D01*
X13563600Y8228950D01*
X15253344Y8228950D01*
X15243133Y8224731D01*
X15092996Y8074856D01*
X15011643Y7878935D01*
X15011458Y7666795D01*
X15038026Y7602494D01*
X14989485Y7582388D01*
X14896612Y7489515D01*
X14872521Y7431354D01*
X14849962Y7466412D01*
X14773621Y7518574D01*
X14683000Y7536925D01*
X13533000Y7536925D01*
X13448342Y7520995D01*
X13370588Y7470962D01*
X13318426Y7394621D01*
X13300075Y7304000D01*
X13300075Y5904000D01*
X13316005Y5819342D01*
X13366038Y5741588D01*
X13442379Y5689426D01*
X13533000Y5671075D01*
X14605912Y5671075D01*
X14632744Y5644196D01*
X14828665Y5562843D01*
X14943575Y5562743D01*
X14943575Y5397500D01*
X14959505Y5312842D01*
X15009538Y5235088D01*
X15085879Y5182926D01*
X15176500Y5164575D01*
X16065500Y5164575D01*
X16150158Y5180505D01*
X16227912Y5230538D01*
X16280074Y5306879D01*
X16290575Y5358734D01*
X16380829Y5321350D01*
X16757613Y5321350D01*
X16840150Y5403887D01*
X16840150Y5918150D01*
X16941850Y5918150D01*
X16941850Y5403887D01*
X17024387Y5321350D01*
X17401171Y5321350D01*
X17522515Y5371612D01*
X17541345Y5390442D01*
X17563612Y5336685D01*
X17656485Y5243812D01*
X17777829Y5193550D01*
X18027613Y5193550D01*
X18110150Y5276087D01*
X18110150Y5917350D01*
X17595887Y5917350D01*
X17589900Y5911363D01*
X17583113Y5918150D01*
X16941850Y5918150D01*
X16840150Y5918150D01*
X16820150Y5918150D01*
X16820150Y6019850D01*
X16840150Y6019850D01*
X16840150Y6534113D01*
X16757613Y6616650D01*
X16395650Y6616650D01*
X16395650Y6698872D01*
X16446500Y6688575D01*
X17335500Y6688575D01*
X17420158Y6704505D01*
X17497912Y6754538D01*
X17513350Y6777132D01*
X17513350Y6728029D01*
X17563612Y6606685D01*
X17567097Y6603200D01*
X17563612Y6599715D01*
X17541814Y6547089D01*
X17522515Y6566388D01*
X17401171Y6616650D01*
X17024387Y6616650D01*
X16941850Y6534113D01*
X16941850Y6019850D01*
X17583113Y6019850D01*
X17589100Y6025837D01*
X17595887Y6019050D01*
X18110150Y6019050D01*
X18110150Y7187350D01*
X18211850Y7187350D01*
X18211850Y6019050D01*
X18726113Y6019050D01*
X18808650Y6101587D01*
X18808650Y6478371D01*
X18758388Y6599715D01*
X18754903Y6603200D01*
X18758388Y6606685D01*
X18808650Y6728029D01*
X18808650Y7104813D01*
X18726113Y7187350D01*
X18211850Y7187350D01*
X18110150Y7187350D01*
X18090150Y7187350D01*
X18090150Y7289050D01*
X18110150Y7289050D01*
X18110150Y7930313D01*
X18211850Y7930313D01*
X18211850Y7289050D01*
X18726113Y7289050D01*
X18808650Y7371587D01*
X18808650Y7748371D01*
X18758388Y7869715D01*
X18665515Y7962588D01*
X18544171Y8012850D01*
X18294387Y8012850D01*
X18211850Y7930313D01*
X18110150Y7930313D01*
X18027613Y8012850D01*
X17777829Y8012850D01*
X17656485Y7962588D01*
X17563612Y7869715D01*
X17513350Y7748371D01*
X17513350Y7701991D01*
X17502462Y7718912D01*
X17426121Y7771074D01*
X17335500Y7789425D01*
X16771345Y7789425D01*
X16572985Y7987785D01*
X16474166Y8053814D01*
X16357600Y8077000D01*
X15994203Y8077000D01*
X15847256Y8224204D01*
X15835826Y8228950D01*
X19507200Y8228950D01*
X19623785Y8252140D01*
X19722620Y8318180D01*
X20089615Y8685175D01*
X20089615Y8531060D01*
X20102879Y8460570D01*
X20004180Y8394620D01*
X19525185Y7915625D01*
X19113500Y7915625D01*
X19028842Y7899695D01*
X18951088Y7849662D01*
X18898926Y7773321D01*
X18880575Y7682700D01*
X18880575Y6793700D01*
X18896505Y6709042D01*
X18946538Y6631288D01*
X18987656Y6603193D01*
X18951088Y6579662D01*
X18898926Y6503321D01*
X18880575Y6412700D01*
X18880575Y5607671D01*
X18808650Y5535746D01*
X18808650Y5834813D01*
X18726113Y5917350D01*
X18211850Y5917350D01*
X18211850Y5276087D01*
X18294387Y5193550D01*
X18544171Y5193550D01*
X18610987Y5221226D01*
X18602603Y5179079D01*
X18593000Y5130800D01*
X18593000Y4396711D01*
X18341777Y4648373D01*
X17977877Y4799478D01*
X17583852Y4799821D01*
X17219688Y4649352D01*
X16940827Y4370977D01*
X16789722Y4007077D01*
X16789379Y3613052D01*
X16939848Y3248888D01*
X17218223Y2970027D01*
X17582123Y2818922D01*
X17976148Y2818579D01*
X18340312Y2969048D01*
X18593000Y3221296D01*
X18593000Y2549930D01*
X14819164Y2540332D01*
X14477800Y2881696D01*
X14477800Y3170800D01*
X14678223Y2970027D01*
X15042123Y2818922D01*
X15436148Y2818579D01*
X15800312Y2969048D01*
X16079173Y3247423D01*
X16230278Y3611323D01*
X16230621Y4005348D01*
X16080152Y4369512D01*
X15801777Y4648373D01*
X15437877Y4799478D01*
X15043852Y4799821D01*
X14679688Y4649352D01*
X14434274Y4404365D01*
X14395290Y4462709D01*
X14348637Y4534789D01*
X13099182Y5821320D01*
X13115925Y5904000D01*
X13115925Y7304000D01*
X13099995Y7388658D01*
X13049962Y7466412D01*
X12973621Y7518574D01*
X12883000Y7536925D01*
X11733000Y7536925D01*
X11648342Y7520995D01*
X11570588Y7470962D01*
X11550799Y7442000D01*
X11421205Y7442000D01*
X11406462Y7464912D01*
X11330121Y7517074D01*
X11239500Y7535425D01*
X10350500Y7535425D01*
X10265842Y7519495D01*
X10188088Y7469462D01*
X10169324Y7442000D01*
X10151205Y7442000D01*
X10136462Y7464912D01*
X10060121Y7517074D01*
X9982000Y7532894D01*
X9982000Y8087127D01*
X10028675Y8095910D01*
X10028675Y8000200D01*
X10044605Y7915542D01*
X10094638Y7837788D01*
X10170979Y7785626D01*
X10261600Y7767275D01*
X12496800Y7767275D01*
X12581458Y7783205D01*
X12659212Y7833238D01*
X12711374Y7909579D01*
X12729725Y8000200D01*
X12729725Y9219400D01*
X12713795Y9304058D01*
X12663762Y9381812D01*
X12587421Y9433974D01*
X12496800Y9452325D01*
X10261600Y9452325D01*
X10176942Y9436395D01*
X10099188Y9386362D01*
X10047026Y9310021D01*
X10028675Y9219400D01*
X10028675Y9173642D01*
X9969500Y9185625D01*
X9080500Y9185625D01*
X8995842Y9169695D01*
X8918088Y9119662D01*
X8889993Y9078544D01*
X8866462Y9115112D01*
X8790121Y9167274D01*
X8699500Y9185625D01*
X7810500Y9185625D01*
X7725842Y9169695D01*
X7648088Y9119662D01*
X7595926Y9043321D01*
X7577575Y8952700D01*
X7577575Y8317700D01*
X7593505Y8233042D01*
X7643538Y8155288D01*
X7719879Y8103126D01*
X7810500Y8084775D01*
X8197655Y8084775D01*
X8509200Y7773231D01*
X8509200Y7535425D01*
X7751971Y7535425D01*
X6933916Y8353480D01*
X6934042Y8498405D01*
X6857700Y8683167D01*
X6857700Y8712457D01*
X6933857Y8895865D01*
X6934042Y9108005D01*
X6853031Y9304067D01*
X6703156Y9454204D01*
X6507235Y9535557D01*
X6295095Y9535742D01*
X6099033Y9454731D01*
X5948896Y9304856D01*
X5867543Y9108935D01*
X5867358Y8896795D01*
X5943700Y8712033D01*
X5943700Y8682743D01*
X5867543Y8499335D01*
X5867358Y8287195D01*
X5948369Y8091133D01*
X5987683Y8051750D01*
X6077552Y7917252D01*
X7144434Y6850370D01*
X7075837Y6822027D01*
X7020756Y6877204D01*
X6824835Y6958557D01*
X6612695Y6958742D01*
X6477451Y6902860D01*
X6470714Y6927581D01*
X6263903Y7272809D01*
X5940721Y7512615D01*
X5550370Y7610490D01*
X5123441Y7610490D01*
X5213866Y7717910D01*
X5255814Y7794087D01*
X5270979Y7821626D01*
X5338781Y8035495D01*
X5343909Y8081648D01*
X5352970Y8127200D01*
X5352970Y9601720D01*
X5700993Y9601720D01*
X5783530Y9684257D01*
X5783530Y10080410D01*
X5885230Y10080410D01*
X5885230Y9684257D01*
X5967767Y9601720D01*
X6474091Y9601720D01*
X6595435Y9651982D01*
X6688308Y9744855D01*
X6738570Y9866199D01*
X6738570Y9997873D01*
X6656033Y10080410D01*
X5885230Y10080410D01*
X5783530Y10080410D01*
X5763530Y10080410D01*
X5763530Y10182110D01*
X5783530Y10182110D01*
X5783530Y10202110D01*
X5885230Y10202110D01*
X5885230Y10182110D01*
X6656033Y10182110D01*
X6738570Y10264647D01*
X6738570Y10396321D01*
X6705193Y10476900D01*
X7074730Y10476900D01*
X7577575Y9974056D01*
X7577575Y9587700D01*
X7593505Y9503042D01*
X7643538Y9425288D01*
X7719879Y9373126D01*
X7810500Y9354775D01*
X8699500Y9354775D01*
X8784158Y9370705D01*
X8861912Y9420738D01*
X8890007Y9461856D01*
X8913538Y9425288D01*
X8989879Y9373126D01*
X9080500Y9354775D01*
X9969500Y9354775D01*
X10054158Y9370705D01*
X10131912Y9420738D01*
X10184074Y9497079D01*
X10202425Y9587700D01*
X10202425Y9981450D01*
X11245813Y9981450D01*
X11328350Y10063987D01*
X11328350Y10870350D01*
X11308350Y10870350D01*
X11308350Y10972050D01*
X11328350Y10972050D01*
X11328350Y10992050D01*
X11430050Y10992050D01*
X11430050Y10972050D01*
G36*
X22568380Y7403780D02*
X22667215Y7337740D01*
X22783800Y7314550D01*
X23020247Y7314550D01*
X23022417Y7312376D01*
X23015533Y7309531D01*
X22865396Y7159656D01*
X22784043Y6963735D01*
X22783858Y6751595D01*
X22827510Y6645950D01*
X22704580Y6523020D01*
X22687772Y6497865D01*
X22686442Y6497615D01*
X22608688Y6447582D01*
X22556526Y6371241D01*
X22538175Y6280620D01*
X22538175Y5081740D01*
X22554105Y4997082D01*
X22604138Y4919328D01*
X22680479Y4867166D01*
X22771100Y4848815D01*
X23070820Y4848815D01*
X23155478Y4864745D01*
X23170374Y4874330D01*
X23180859Y4867166D01*
X23223782Y4858474D01*
X23230236Y4848815D01*
X23254180Y4812980D01*
X23416664Y4650496D01*
X23057877Y4799478D01*
X22663852Y4799821D01*
X22299688Y4649352D01*
X22020827Y4370977D01*
X21869722Y4007077D01*
X21869379Y3613052D01*
X22019848Y3248888D01*
X22298223Y2970027D01*
X22662123Y2818922D01*
X23056148Y2818579D01*
X23420312Y2969048D01*
X23699173Y3247423D01*
X23850278Y3611323D01*
X23850621Y4005348D01*
X23700152Y4369512D01*
X23567226Y4502670D01*
X23657815Y4442140D01*
X23774400Y4418950D01*
X24359410Y4418950D01*
X24515806Y4262554D01*
X24409722Y4007077D01*
X24409379Y3613052D01*
X24559848Y3248888D01*
X24838223Y2970027D01*
X25202123Y2818922D01*
X25596148Y2818579D01*
X25960312Y2969048D01*
X26239173Y3247423D01*
X26390278Y3611323D01*
X26390621Y4005348D01*
X26240152Y4369512D01*
X26185350Y4424410D01*
X26212800Y4418950D01*
X26899410Y4418950D01*
X27055806Y4262554D01*
X26949722Y4007077D01*
X26949379Y3613052D01*
X27099848Y3248888D01*
X27378223Y2970027D01*
X27742123Y2818922D01*
X28136148Y2818579D01*
X28500312Y2969048D01*
X28779173Y3247423D01*
X28930278Y3611323D01*
X28930279Y3613052D01*
X29489379Y3613052D01*
X29639848Y3248888D01*
X29918223Y2970027D01*
X30282123Y2818922D01*
X30676148Y2818579D01*
X31040312Y2969048D01*
X31319173Y3247423D01*
X31470278Y3611323D01*
X31470621Y4005348D01*
X31320152Y4369512D01*
X31041777Y4648373D01*
X30677877Y4799478D01*
X30283852Y4799821D01*
X29919688Y4649352D01*
X29640827Y4370977D01*
X29489722Y4007077D01*
X29489379Y3613052D01*
X28930279Y3613052D01*
X28930621Y4005348D01*
X28780152Y4369512D01*
X28501777Y4648373D01*
X28137877Y4799478D01*
X27743852Y4799821D01*
X27486538Y4693502D01*
X27331225Y4848815D01*
X27569160Y4848815D01*
X27653818Y4864745D01*
X27668714Y4874330D01*
X27679199Y4867166D01*
X27769820Y4848815D01*
X28069540Y4848815D01*
X28154198Y4864745D01*
X28169094Y4874330D01*
X28179579Y4867166D01*
X28270200Y4848815D01*
X28569920Y4848815D01*
X28654578Y4864745D01*
X28668166Y4873488D01*
X28677419Y4867166D01*
X28768040Y4848815D01*
X29067760Y4848815D01*
X29152418Y4864745D01*
X29167314Y4874330D01*
X29177799Y4867166D01*
X29268420Y4848815D01*
X29534822Y4848815D01*
X29581785Y4801852D01*
X29703129Y4751590D01*
X29785273Y4751590D01*
X29867810Y4834127D01*
X29867810Y5630330D01*
X29847810Y5630330D01*
X29847810Y5732030D01*
X29867810Y5732030D01*
X29867810Y5752030D01*
X29969510Y5752030D01*
X29969510Y5732030D01*
X29989510Y5732030D01*
X29989510Y5630330D01*
X29969510Y5630330D01*
X29969510Y4834127D01*
X30052047Y4751590D01*
X30134191Y4751590D01*
X30255535Y4801852D01*
X30302498Y4848815D01*
X30568900Y4848815D01*
X30653558Y4864745D01*
X30731312Y4914778D01*
X30783474Y4991119D01*
X30801825Y5081740D01*
X30801825Y5257150D01*
X33360937Y5257150D01*
X33374505Y5185042D01*
X33424538Y5107288D01*
X33451950Y5088558D01*
X33451950Y4799800D01*
X33473094Y4693502D01*
X33217877Y4799478D01*
X32823852Y4799821D01*
X32459688Y4649352D01*
X32180827Y4370977D01*
X32029722Y4007077D01*
X32029379Y3613052D01*
X32179848Y3248888D01*
X32458223Y2970027D01*
X32822123Y2818922D01*
X33216148Y2818579D01*
X33580312Y2969048D01*
X33832950Y3221246D01*
X33832950Y2588690D01*
X19507000Y2552254D01*
X19507000Y3221689D01*
X19758223Y2970027D01*
X20122123Y2818922D01*
X20516148Y2818579D01*
X20880312Y2969048D01*
X21159173Y3247423D01*
X21310278Y3611323D01*
X21310621Y4005348D01*
X21160152Y4369512D01*
X20881777Y4648373D01*
X20517877Y4799478D01*
X20123852Y4799821D01*
X19759688Y4649352D01*
X19507000Y4397104D01*
X19507000Y4941504D01*
X19754148Y5188652D01*
X19759487Y5196642D01*
X19833009Y5306677D01*
X19833158Y5306705D01*
X19910912Y5356738D01*
X19963074Y5433079D01*
X19981425Y5523700D01*
X19981425Y5627196D01*
X20008148Y5645052D01*
X20516147Y6153052D01*
X20615212Y6301313D01*
X20650000Y6476200D01*
X20624650Y6603639D01*
X20624650Y7258246D01*
X20663779Y7297375D01*
X21521420Y7297375D01*
X21606078Y7313305D01*
X21683832Y7363338D01*
X21735994Y7439679D01*
X21754345Y7530300D01*
X21754345Y7830020D01*
X21738415Y7914678D01*
X21728830Y7929574D01*
X21735994Y7940059D01*
X21754345Y8030680D01*
X21754345Y8217815D01*
X22568380Y7403780D01*
X22568380Y7403780D01*
G37*
X22568380Y7403780D02*
X22667215Y7337740D01*
X22783800Y7314550D01*
X23020247Y7314550D01*
X23022417Y7312376D01*
X23015533Y7309531D01*
X22865396Y7159656D01*
X22784043Y6963735D01*
X22783858Y6751595D01*
X22827510Y6645950D01*
X22704580Y6523020D01*
X22687772Y6497865D01*
X22686442Y6497615D01*
X22608688Y6447582D01*
X22556526Y6371241D01*
X22538175Y6280620D01*
X22538175Y5081740D01*
X22554105Y4997082D01*
X22604138Y4919328D01*
X22680479Y4867166D01*
X22771100Y4848815D01*
X23070820Y4848815D01*
X23155478Y4864745D01*
X23170374Y4874330D01*
X23180859Y4867166D01*
X23223782Y4858474D01*
X23230236Y4848815D01*
X23254180Y4812980D01*
X23416664Y4650496D01*
X23057877Y4799478D01*
X22663852Y4799821D01*
X22299688Y4649352D01*
X22020827Y4370977D01*
X21869722Y4007077D01*
X21869379Y3613052D01*
X22019848Y3248888D01*
X22298223Y2970027D01*
X22662123Y2818922D01*
X23056148Y2818579D01*
X23420312Y2969048D01*
X23699173Y3247423D01*
X23850278Y3611323D01*
X23850621Y4005348D01*
X23700152Y4369512D01*
X23567226Y4502670D01*
X23657815Y4442140D01*
X23774400Y4418950D01*
X24359410Y4418950D01*
X24515806Y4262554D01*
X24409722Y4007077D01*
X24409379Y3613052D01*
X24559848Y3248888D01*
X24838223Y2970027D01*
X25202123Y2818922D01*
X25596148Y2818579D01*
X25960312Y2969048D01*
X26239173Y3247423D01*
X26390278Y3611323D01*
X26390621Y4005348D01*
X26240152Y4369512D01*
X26185350Y4424410D01*
X26212800Y4418950D01*
X26899410Y4418950D01*
X27055806Y4262554D01*
X26949722Y4007077D01*
X26949379Y3613052D01*
X27099848Y3248888D01*
X27378223Y2970027D01*
X27742123Y2818922D01*
X28136148Y2818579D01*
X28500312Y2969048D01*
X28779173Y3247423D01*
X28930278Y3611323D01*
X28930279Y3613052D01*
X29489379Y3613052D01*
X29639848Y3248888D01*
X29918223Y2970027D01*
X30282123Y2818922D01*
X30676148Y2818579D01*
X31040312Y2969048D01*
X31319173Y3247423D01*
X31470278Y3611323D01*
X31470621Y4005348D01*
X31320152Y4369512D01*
X31041777Y4648373D01*
X30677877Y4799478D01*
X30283852Y4799821D01*
X29919688Y4649352D01*
X29640827Y4370977D01*
X29489722Y4007077D01*
X29489379Y3613052D01*
X28930279Y3613052D01*
X28930621Y4005348D01*
X28780152Y4369512D01*
X28501777Y4648373D01*
X28137877Y4799478D01*
X27743852Y4799821D01*
X27486538Y4693502D01*
X27331225Y4848815D01*
X27569160Y4848815D01*
X27653818Y4864745D01*
X27668714Y4874330D01*
X27679199Y4867166D01*
X27769820Y4848815D01*
X28069540Y4848815D01*
X28154198Y4864745D01*
X28169094Y4874330D01*
X28179579Y4867166D01*
X28270200Y4848815D01*
X28569920Y4848815D01*
X28654578Y4864745D01*
X28668166Y4873488D01*
X28677419Y4867166D01*
X28768040Y4848815D01*
X29067760Y4848815D01*
X29152418Y4864745D01*
X29167314Y4874330D01*
X29177799Y4867166D01*
X29268420Y4848815D01*
X29534822Y4848815D01*
X29581785Y4801852D01*
X29703129Y4751590D01*
X29785273Y4751590D01*
X29867810Y4834127D01*
X29867810Y5630330D01*
X29847810Y5630330D01*
X29847810Y5732030D01*
X29867810Y5732030D01*
X29867810Y5752030D01*
X29969510Y5752030D01*
X29969510Y5732030D01*
X29989510Y5732030D01*
X29989510Y5630330D01*
X29969510Y5630330D01*
X29969510Y4834127D01*
X30052047Y4751590D01*
X30134191Y4751590D01*
X30255535Y4801852D01*
X30302498Y4848815D01*
X30568900Y4848815D01*
X30653558Y4864745D01*
X30731312Y4914778D01*
X30783474Y4991119D01*
X30801825Y5081740D01*
X30801825Y5257150D01*
X33360937Y5257150D01*
X33374505Y5185042D01*
X33424538Y5107288D01*
X33451950Y5088558D01*
X33451950Y4799800D01*
X33473094Y4693502D01*
X33217877Y4799478D01*
X32823852Y4799821D01*
X32459688Y4649352D01*
X32180827Y4370977D01*
X32029722Y4007077D01*
X32029379Y3613052D01*
X32179848Y3248888D01*
X32458223Y2970027D01*
X32822123Y2818922D01*
X33216148Y2818579D01*
X33580312Y2969048D01*
X33832950Y3221246D01*
X33832950Y2588690D01*
X19507000Y2552254D01*
X19507000Y3221689D01*
X19758223Y2970027D01*
X20122123Y2818922D01*
X20516148Y2818579D01*
X20880312Y2969048D01*
X21159173Y3247423D01*
X21310278Y3611323D01*
X21310621Y4005348D01*
X21160152Y4369512D01*
X20881777Y4648373D01*
X20517877Y4799478D01*
X20123852Y4799821D01*
X19759688Y4649352D01*
X19507000Y4397104D01*
X19507000Y4941504D01*
X19754148Y5188652D01*
X19759487Y5196642D01*
X19833009Y5306677D01*
X19833158Y5306705D01*
X19910912Y5356738D01*
X19963074Y5433079D01*
X19981425Y5523700D01*
X19981425Y5627196D01*
X20008148Y5645052D01*
X20516147Y6153052D01*
X20615212Y6301313D01*
X20650000Y6476200D01*
X20624650Y6603639D01*
X20624650Y7258246D01*
X20663779Y7297375D01*
X21521420Y7297375D01*
X21606078Y7313305D01*
X21683832Y7363338D01*
X21735994Y7439679D01*
X21754345Y7530300D01*
X21754345Y7830020D01*
X21738415Y7914678D01*
X21728830Y7929574D01*
X21735994Y7940059D01*
X21754345Y8030680D01*
X21754345Y8217815D01*
X22568380Y7403780D01*
G36*
X49072950Y19926684D02*
X49072950Y19636761D01*
X48821777Y19888373D01*
X48457877Y20039478D01*
X48063852Y20039821D01*
X47699688Y19889352D01*
X47420827Y19610977D01*
X47269722Y19247077D01*
X47269379Y18853052D01*
X47419848Y18488888D01*
X47698223Y18210027D01*
X48062123Y18058922D01*
X48456148Y18058579D01*
X48713511Y18164919D01*
X48768348Y18110082D01*
X48768348Y16838822D01*
X48246785Y17360385D01*
X48147966Y17426414D01*
X48031400Y17449600D01*
X47388025Y17449600D01*
X47388025Y17589500D01*
X47372095Y17674158D01*
X47322062Y17751912D01*
X47245721Y17804074D01*
X47155100Y17822425D01*
X46520100Y17822425D01*
X46435442Y17806495D01*
X46357688Y17756462D01*
X46305526Y17680121D01*
X46287175Y17589500D01*
X46287175Y16700500D01*
X46303105Y16615842D01*
X46353138Y16538088D01*
X46429479Y16485926D01*
X46520100Y16467575D01*
X47155100Y16467575D01*
X47239758Y16483505D01*
X47317512Y16533538D01*
X47369674Y16609879D01*
X47388025Y16700500D01*
X47388025Y16840400D01*
X47905230Y16840400D01*
X48463746Y16281884D01*
X48463746Y13486570D01*
X48002936Y13025760D01*
X47906352Y13259512D01*
X47627977Y13538373D01*
X47264077Y13689478D01*
X46870052Y13689821D01*
X46505888Y13539352D01*
X46227027Y13260977D01*
X46075922Y12897077D01*
X46075579Y12503052D01*
X46226048Y12138888D01*
X46504423Y11860027D01*
X46868323Y11708922D01*
X47262348Y11708579D01*
X47626512Y11859048D01*
X47905373Y12137423D01*
X48012163Y12394600D01*
X48107146Y12394600D01*
X48223712Y12417786D01*
X48322531Y12483815D01*
X48768348Y12929632D01*
X48768348Y12267370D01*
X48108578Y11607600D01*
X45762425Y11607600D01*
X45762425Y11620500D01*
X45746495Y11705158D01*
X45696462Y11782912D01*
X45620121Y11835074D01*
X45529500Y11853425D01*
X44640500Y11853425D01*
X44555842Y11837495D01*
X44478088Y11787462D01*
X44449993Y11746344D01*
X44426462Y11782912D01*
X44350121Y11835074D01*
X44259500Y11853425D01*
X43370500Y11853425D01*
X43285842Y11837495D01*
X43208088Y11787462D01*
X43155926Y11711121D01*
X43137575Y11620500D01*
X43137575Y10985500D01*
X43153505Y10900842D01*
X43203538Y10823088D01*
X43279879Y10770926D01*
X43370500Y10752575D01*
X43934655Y10752575D01*
X44285413Y10401818D01*
X44285415Y10401815D01*
X44331732Y10370867D01*
X44384234Y10335786D01*
X44500800Y10312599D01*
X44500805Y10312600D01*
X46075883Y10312600D01*
X46075579Y9963052D01*
X46226048Y9598888D01*
X46504423Y9320027D01*
X46535795Y9307000D01*
X45571925Y9307000D01*
X45571925Y9524200D01*
X45555995Y9608858D01*
X45505962Y9686612D01*
X45429621Y9738774D01*
X45339000Y9757125D01*
X44323000Y9757125D01*
X44238342Y9741195D01*
X44160588Y9691162D01*
X44108426Y9614821D01*
X44090075Y9524200D01*
X44090075Y8989850D01*
X44039698Y8989850D01*
X44026995Y9057358D01*
X43976962Y9135112D01*
X43900621Y9187274D01*
X43810000Y9205625D01*
X43185000Y9205625D01*
X43100342Y9189695D01*
X43022588Y9139662D01*
X42970426Y9063321D01*
X42952075Y8972700D01*
X42952075Y8397700D01*
X42968005Y8313042D01*
X43018038Y8235288D01*
X43094379Y8183126D01*
X43129850Y8175943D01*
X43129850Y8006587D01*
X43212387Y7924050D01*
X43571650Y7924050D01*
X43571650Y7944050D01*
X43673350Y7944050D01*
X43673350Y7924050D01*
X43693350Y7924050D01*
X43693350Y7822350D01*
X43673350Y7822350D01*
X43673350Y7802350D01*
X43571650Y7802350D01*
X43571650Y7822350D01*
X43212387Y7822350D01*
X43129850Y7739813D01*
X43129850Y7571247D01*
X43100342Y7565695D01*
X43022588Y7515662D01*
X42970426Y7439321D01*
X42952075Y7348700D01*
X42952075Y6773700D01*
X42968005Y6689042D01*
X43018038Y6611288D01*
X43037275Y6598144D01*
X42842356Y6403225D01*
X42481400Y6403225D01*
X42396742Y6387295D01*
X42318988Y6337262D01*
X42266826Y6260921D01*
X42248475Y6170300D01*
X42248475Y5281300D01*
X42264405Y5196642D01*
X42314438Y5118888D01*
X42390779Y5066726D01*
X42481400Y5048375D01*
X43116400Y5048375D01*
X43201058Y5064305D01*
X43278812Y5114338D01*
X43330974Y5190679D01*
X43349325Y5281300D01*
X43349325Y5592413D01*
X43421250Y5592413D01*
X43421250Y5215629D01*
X43471512Y5094285D01*
X43564385Y5001412D01*
X43685729Y4951150D01*
X43935513Y4951150D01*
X44018050Y5033687D01*
X44018050Y5674950D01*
X44119750Y5674950D01*
X44119750Y5033687D01*
X44202287Y4951150D01*
X44452071Y4951150D01*
X44573415Y5001412D01*
X44666288Y5094285D01*
X44716550Y5215629D01*
X44716550Y5592413D01*
X44634013Y5674950D01*
X44119750Y5674950D01*
X44018050Y5674950D01*
X43503787Y5674950D01*
X43421250Y5592413D01*
X43349325Y5592413D01*
X43349325Y6048656D01*
X43407669Y6107000D01*
X43421250Y6107000D01*
X43421250Y5859187D01*
X43503787Y5776650D01*
X44018050Y5776650D01*
X44018050Y5796650D01*
X44119750Y5796650D01*
X44119750Y5776650D01*
X44634013Y5776650D01*
X44716550Y5859187D01*
X44716550Y6235971D01*
X44683421Y6315951D01*
X45046385Y6678915D01*
X45094735Y6751275D01*
X45339000Y6751275D01*
X45415300Y6765632D01*
X45415300Y6403225D01*
X45021400Y6403225D01*
X44936742Y6387295D01*
X44858988Y6337262D01*
X44806826Y6260921D01*
X44788475Y6170300D01*
X44788475Y5281300D01*
X44804405Y5196642D01*
X44854438Y5118888D01*
X44930779Y5066726D01*
X45021400Y5048375D01*
X45656400Y5048375D01*
X45741058Y5064305D01*
X45818812Y5114338D01*
X45870974Y5190679D01*
X45886794Y5268800D01*
X46060827Y5268800D01*
X46074405Y5196642D01*
X46124438Y5118888D01*
X46200779Y5066726D01*
X46291400Y5048375D01*
X46634500Y5048375D01*
X46634500Y4189576D01*
X46560152Y4369512D01*
X46281777Y4648373D01*
X45917877Y4799478D01*
X45523852Y4799821D01*
X45159688Y4649352D01*
X44880827Y4370977D01*
X44729722Y4007077D01*
X44729379Y3613052D01*
X44879848Y3248888D01*
X45158223Y2970027D01*
X45522123Y2818922D01*
X45911817Y2818583D01*
X45683084Y2589850D01*
X34747050Y2589850D01*
X34747050Y3221639D01*
X34998223Y2970027D01*
X35362123Y2818922D01*
X35756148Y2818579D01*
X36120312Y2969048D01*
X36399173Y3247423D01*
X36550278Y3611323D01*
X36550621Y4005348D01*
X36400152Y4369512D01*
X36121777Y4648373D01*
X35757877Y4799478D01*
X35363852Y4799821D01*
X34999688Y4649352D01*
X34747050Y4397154D01*
X34747050Y4418800D01*
X34712259Y4593705D01*
X34613183Y4741983D01*
X34366050Y4989116D01*
X34366050Y5088027D01*
X34388912Y5102738D01*
X34441074Y5179079D01*
X34459425Y5269700D01*
X34459425Y5580813D01*
X34531350Y5580813D01*
X34531350Y5204029D01*
X34581612Y5082685D01*
X34674485Y4989812D01*
X34795829Y4939550D01*
X35045613Y4939550D01*
X35128150Y5022087D01*
X35128150Y5663350D01*
X35229850Y5663350D01*
X35229850Y5022087D01*
X35312387Y4939550D01*
X35562171Y4939550D01*
X35683515Y4989812D01*
X35776388Y5082685D01*
X35816352Y5179168D01*
X35851512Y5094285D01*
X35944385Y5001412D01*
X36065729Y4951150D01*
X36315513Y4951150D01*
X36398050Y5033687D01*
X36398050Y5674950D01*
X35883787Y5674950D01*
X35808150Y5599313D01*
X35744113Y5663350D01*
X35229850Y5663350D01*
X35128150Y5663350D01*
X34613887Y5663350D01*
X34531350Y5580813D01*
X34459425Y5580813D01*
X34459425Y6158700D01*
X34443495Y6243358D01*
X34414946Y6287725D01*
X34557592Y6287725D01*
X34531350Y6224371D01*
X34531350Y5847587D01*
X34613887Y5765050D01*
X35128150Y5765050D01*
X35128150Y5785050D01*
X35229850Y5785050D01*
X35229850Y5765050D01*
X35744113Y5765050D01*
X35819750Y5840687D01*
X35883787Y5776650D01*
X36398050Y5776650D01*
X36398050Y5796650D01*
X36499750Y5796650D01*
X36499750Y5776650D01*
X37014013Y5776650D01*
X37096550Y5859187D01*
X37096550Y6210350D01*
X37176585Y6210350D01*
X37168475Y6170300D01*
X37168475Y5453744D01*
X37135491Y5420761D01*
X37096550Y5420795D01*
X37096550Y5592413D01*
X37014013Y5674950D01*
X36499750Y5674950D01*
X36499750Y5033687D01*
X36511491Y5021946D01*
X36499943Y4994135D01*
X36499758Y4781995D01*
X36580769Y4585933D01*
X36730644Y4435796D01*
X36926565Y4354443D01*
X37138705Y4354258D01*
X37318497Y4428546D01*
X37260827Y4370977D01*
X37109722Y4007077D01*
X37109379Y3613052D01*
X37259848Y3248888D01*
X37538223Y2970027D01*
X37902123Y2818922D01*
X38296148Y2818579D01*
X38660312Y2969048D01*
X38939173Y3247423D01*
X39090278Y3611323D01*
X39090621Y4005348D01*
X38940152Y4369512D01*
X38661777Y4648373D01*
X38297877Y4799478D01*
X37903852Y4799821D01*
X37539688Y4649352D01*
X37491655Y4601403D01*
X37566257Y4781065D01*
X37566439Y4990170D01*
X37624644Y5048375D01*
X38036400Y5048375D01*
X38121058Y5064305D01*
X38198812Y5114338D01*
X38250974Y5190679D01*
X38269325Y5281300D01*
X38269325Y5421200D01*
X38438475Y5421200D01*
X38438475Y5281300D01*
X38454405Y5196642D01*
X38504438Y5118888D01*
X38580779Y5066726D01*
X38671400Y5048375D01*
X39306400Y5048375D01*
X39391058Y5064305D01*
X39468812Y5114338D01*
X39520974Y5190679D01*
X39539325Y5281300D01*
X39539325Y5845455D01*
X39708475Y6014605D01*
X39708475Y5281300D01*
X39724405Y5196642D01*
X39774438Y5118888D01*
X39850779Y5066726D01*
X39941400Y5048375D01*
X39954300Y5048375D01*
X39954300Y4524183D01*
X39800827Y4370977D01*
X39649722Y4007077D01*
X39649379Y3613052D01*
X39799848Y3248888D01*
X40078223Y2970027D01*
X40442123Y2818922D01*
X40836148Y2818579D01*
X41200312Y2969048D01*
X41479173Y3247423D01*
X41630278Y3611323D01*
X41630279Y3613052D01*
X42189379Y3613052D01*
X42339848Y3248888D01*
X42618223Y2970027D01*
X42982123Y2818922D01*
X43376148Y2818579D01*
X43740312Y2969048D01*
X44019173Y3247423D01*
X44170278Y3611323D01*
X44170621Y4005348D01*
X44020152Y4369512D01*
X43741777Y4648373D01*
X43377877Y4799478D01*
X42983852Y4799821D01*
X42619688Y4649352D01*
X42340827Y4370977D01*
X42189722Y4007077D01*
X42189379Y3613052D01*
X41630279Y3613052D01*
X41630621Y4005348D01*
X41480152Y4369512D01*
X41201777Y4648373D01*
X40837877Y4799478D01*
X40563500Y4799717D01*
X40563500Y5048375D01*
X40576400Y5048375D01*
X40661058Y5064305D01*
X40738812Y5114338D01*
X40790974Y5190679D01*
X40809325Y5281300D01*
X40809325Y5592413D01*
X40881250Y5592413D01*
X40881250Y5215629D01*
X40931512Y5094285D01*
X41024385Y5001412D01*
X41145729Y4951150D01*
X41395513Y4951150D01*
X41478050Y5033687D01*
X41478050Y5674950D01*
X41579750Y5674950D01*
X41579750Y5033687D01*
X41662287Y4951150D01*
X41912071Y4951150D01*
X42033415Y5001412D01*
X42126288Y5094285D01*
X42176550Y5215629D01*
X42176550Y5592413D01*
X42094013Y5674950D01*
X41579750Y5674950D01*
X41478050Y5674950D01*
X40963787Y5674950D01*
X40881250Y5592413D01*
X40809325Y5592413D01*
X40809325Y6170300D01*
X40796968Y6235971D01*
X40881250Y6235971D01*
X40881250Y5859187D01*
X40963787Y5776650D01*
X41478050Y5776650D01*
X41478050Y6417913D01*
X41579750Y6417913D01*
X41579750Y5776650D01*
X42094013Y5776650D01*
X42176550Y5859187D01*
X42176550Y6235971D01*
X42126288Y6357315D01*
X42033415Y6450188D01*
X41912071Y6500450D01*
X41662287Y6500450D01*
X41579750Y6417913D01*
X41478050Y6417913D01*
X41395513Y6500450D01*
X41145729Y6500450D01*
X41024385Y6450188D01*
X40931512Y6357315D01*
X40881250Y6235971D01*
X40796968Y6235971D01*
X40793395Y6254958D01*
X40743362Y6332712D01*
X40667021Y6384874D01*
X40576400Y6403225D01*
X40097095Y6403225D01*
X40234145Y6540275D01*
X40635000Y6540275D01*
X40719658Y6556205D01*
X40797412Y6606238D01*
X40849574Y6682579D01*
X40867925Y6773200D01*
X40867925Y7348200D01*
X40851995Y7432858D01*
X40801962Y7510612D01*
X40725621Y7562774D01*
X40690150Y7569957D01*
X40690150Y7739813D01*
X40607613Y7822350D01*
X40248350Y7822350D01*
X40248350Y7802350D01*
X40146650Y7802350D01*
X40146650Y7822350D01*
X39787387Y7822350D01*
X39704850Y7739813D01*
X39704850Y7457529D01*
X39755112Y7336185D01*
X39777075Y7314222D01*
X39777075Y6944745D01*
X39235555Y6403225D01*
X38671400Y6403225D01*
X38586742Y6387295D01*
X38508988Y6337262D01*
X38456826Y6260921D01*
X38438475Y6170300D01*
X38438475Y6030400D01*
X38269325Y6030400D01*
X38269325Y6170300D01*
X38253395Y6254958D01*
X38203362Y6332712D01*
X38127021Y6384874D01*
X38079385Y6394520D01*
X38112650Y6474829D01*
X38112650Y6851613D01*
X38030113Y6934150D01*
X37515850Y6934150D01*
X37515850Y6914150D01*
X37414150Y6914150D01*
X37414150Y6934150D01*
X36899887Y6934150D01*
X36817350Y6851613D01*
X36817350Y6500450D01*
X36737315Y6500450D01*
X36745425Y6540500D01*
X36745425Y7429500D01*
X36729495Y7514158D01*
X36679462Y7591912D01*
X36638344Y7620007D01*
X36674912Y7643538D01*
X36727074Y7719879D01*
X36745425Y7810500D01*
X36745425Y8121613D01*
X36817350Y8121613D01*
X36817350Y7744829D01*
X36867612Y7623485D01*
X36871097Y7620000D01*
X36867612Y7616515D01*
X36817350Y7495171D01*
X36817350Y7118387D01*
X36899887Y7035850D01*
X37414150Y7035850D01*
X37414150Y8204150D01*
X37515850Y8204150D01*
X37515850Y7035850D01*
X38030113Y7035850D01*
X38112650Y7118387D01*
X38112650Y7495171D01*
X38062388Y7616515D01*
X38058903Y7620000D01*
X38062388Y7623485D01*
X38112650Y7744829D01*
X38112650Y8121613D01*
X38030113Y8204150D01*
X37515850Y8204150D01*
X37414150Y8204150D01*
X36899887Y8204150D01*
X36817350Y8121613D01*
X36745425Y8121613D01*
X36745425Y8288871D01*
X39704850Y8288871D01*
X39704850Y8006587D01*
X39787387Y7924050D01*
X40146650Y7924050D01*
X40146650Y7944050D01*
X40248350Y7944050D01*
X40248350Y7924050D01*
X40607613Y7924050D01*
X40690150Y8006587D01*
X40690150Y8175153D01*
X40719658Y8180705D01*
X40797412Y8230738D01*
X40849574Y8307079D01*
X40867925Y8397700D01*
X40867925Y8972700D01*
X40851995Y9057358D01*
X40801962Y9135112D01*
X40725621Y9187274D01*
X40635000Y9205625D01*
X40010000Y9205625D01*
X39925342Y9189695D01*
X39847588Y9139662D01*
X39795426Y9063321D01*
X39777075Y8972700D01*
X39777075Y8432178D01*
X39755112Y8410215D01*
X39704850Y8288871D01*
X36745425Y8288871D01*
X36745425Y8699500D01*
X36729495Y8784158D01*
X36679462Y8861912D01*
X36603121Y8914074D01*
X36512500Y8932425D01*
X35877500Y8932425D01*
X35792842Y8916495D01*
X35751246Y8889729D01*
X35691935Y8914357D01*
X35479795Y8914542D01*
X35307436Y8843325D01*
X35283732Y8880162D01*
X35207391Y8932324D01*
X35116770Y8950675D01*
X33846495Y8950675D01*
X33808895Y8988275D01*
X36402000Y8988275D01*
X36486658Y9004205D01*
X36564412Y9054238D01*
X36616574Y9130579D01*
X36634925Y9221200D01*
X36634925Y9666600D01*
X36891830Y9666600D01*
X36914575Y9643855D01*
X36914575Y9079700D01*
X36930505Y8995042D01*
X36948372Y8967275D01*
X36867612Y8886515D01*
X36817350Y8765171D01*
X36817350Y8388387D01*
X36899887Y8305850D01*
X37414150Y8305850D01*
X37414150Y8325850D01*
X37515850Y8325850D01*
X37515850Y8305850D01*
X38030113Y8305850D01*
X38112650Y8388387D01*
X38112650Y8765171D01*
X38062388Y8886515D01*
X37981953Y8966950D01*
X37997074Y8989079D01*
X38015425Y9079700D01*
X38015425Y9390813D01*
X38087350Y9390813D01*
X38087350Y9014029D01*
X38137612Y8892685D01*
X38230485Y8799812D01*
X38351829Y8749550D01*
X38601613Y8749550D01*
X38684150Y8832087D01*
X38684150Y9473350D01*
X38785850Y9473350D01*
X38785850Y8832087D01*
X38868387Y8749550D01*
X39118171Y8749550D01*
X39239515Y8799812D01*
X39332388Y8892685D01*
X39382650Y9014029D01*
X39382650Y9390813D01*
X39300113Y9473350D01*
X38785850Y9473350D01*
X38684150Y9473350D01*
X38169887Y9473350D01*
X38087350Y9390813D01*
X38015425Y9390813D01*
X38015425Y9968700D01*
X37999495Y10053358D01*
X37949462Y10131112D01*
X37908344Y10159207D01*
X37944912Y10182738D01*
X37997074Y10259079D01*
X38015425Y10349700D01*
X38015425Y10660813D01*
X38087350Y10660813D01*
X38087350Y10284029D01*
X38137612Y10162685D01*
X38141097Y10159200D01*
X38137612Y10155715D01*
X38087350Y10034371D01*
X38087350Y9657587D01*
X38169887Y9575050D01*
X38684150Y9575050D01*
X38684150Y10743350D01*
X38785850Y10743350D01*
X38785850Y9575050D01*
X39300113Y9575050D01*
X39382650Y9657587D01*
X39382650Y10034371D01*
X39332388Y10155715D01*
X39328903Y10159200D01*
X39332388Y10162685D01*
X39382650Y10284029D01*
X39382650Y10660813D01*
X39300113Y10743350D01*
X38785850Y10743350D01*
X38684150Y10743350D01*
X38169887Y10743350D01*
X38087350Y10660813D01*
X38015425Y10660813D01*
X38015425Y11238700D01*
X38003068Y11304371D01*
X38087350Y11304371D01*
X38087350Y10927587D01*
X38169887Y10845050D01*
X38684150Y10845050D01*
X38684150Y11486313D01*
X38785850Y11486313D01*
X38785850Y10845050D01*
X39300113Y10845050D01*
X39382650Y10927587D01*
X39382650Y11304371D01*
X39332388Y11425715D01*
X39239515Y11518588D01*
X39118171Y11568850D01*
X38868387Y11568850D01*
X38785850Y11486313D01*
X38684150Y11486313D01*
X38601613Y11568850D01*
X38351829Y11568850D01*
X38230485Y11518588D01*
X38137612Y11425715D01*
X38087350Y11304371D01*
X38003068Y11304371D01*
X37999495Y11323358D01*
X37949462Y11401112D01*
X37873121Y11453274D01*
X37782500Y11471625D01*
X37147500Y11471625D01*
X37062842Y11455695D01*
X37021357Y11429000D01*
X36702170Y11429000D01*
X36634925Y11496245D01*
X36634925Y12295749D01*
X36901775Y12028899D01*
X36901775Y11948800D01*
X36917705Y11864142D01*
X36967738Y11786388D01*
X37044079Y11734226D01*
X37134700Y11715875D01*
X38150700Y11715875D01*
X38235358Y11731805D01*
X38313112Y11781838D01*
X38365274Y11858179D01*
X38383625Y11948800D01*
X38383625Y12196413D01*
X38582550Y12196413D01*
X38582550Y11883129D01*
X38632812Y11761785D01*
X38725685Y11668912D01*
X38847029Y11618650D01*
X39287313Y11618650D01*
X39369850Y11701187D01*
X39369850Y12278950D01*
X39471550Y12278950D01*
X39471550Y11701187D01*
X39554087Y11618650D01*
X39994371Y11618650D01*
X40115715Y11668912D01*
X40208588Y11761785D01*
X40258850Y11883129D01*
X40258850Y12196413D01*
X40176313Y12278950D01*
X39471550Y12278950D01*
X39369850Y12278950D01*
X38665087Y12278950D01*
X38582550Y12196413D01*
X38383625Y12196413D01*
X38383625Y12424430D01*
X38423045Y12463850D01*
X38423048Y12463852D01*
X38522113Y12612114D01*
X38556900Y12787000D01*
X38556900Y13131506D01*
X38575192Y13158277D01*
X38607938Y13107388D01*
X38684279Y13055226D01*
X38774900Y13036875D01*
X38837191Y13036875D01*
X38725685Y12990688D01*
X38632812Y12897815D01*
X38582550Y12776471D01*
X38582550Y12463187D01*
X38665087Y12380650D01*
X39369850Y12380650D01*
X39369850Y12400650D01*
X39471550Y12400650D01*
X39471550Y12380650D01*
X40176313Y12380650D01*
X40258850Y12463187D01*
X40258850Y12776471D01*
X40208588Y12897815D01*
X40152203Y12954200D01*
X40843200Y12954200D01*
X41018087Y12988987D01*
X41166348Y13088052D01*
X42080748Y14002452D01*
X42179813Y14150713D01*
X42214600Y14325600D01*
X42214600Y14492857D01*
X42290757Y14676265D01*
X42290942Y14888405D01*
X42214600Y15073167D01*
X42214600Y15102457D01*
X42290757Y15285865D01*
X42290942Y15498005D01*
X42209931Y15694067D01*
X42060056Y15844204D01*
X41864135Y15925557D01*
X41651995Y15925742D01*
X41455933Y15844731D01*
X41305796Y15694856D01*
X41300100Y15681138D01*
X41300100Y16422417D01*
X41399729Y16381150D01*
X41649513Y16381150D01*
X41732050Y16463687D01*
X41732050Y17104950D01*
X41833750Y17104950D01*
X41833750Y16463687D01*
X41916287Y16381150D01*
X42166071Y16381150D01*
X42287415Y16431412D01*
X42380288Y16524285D01*
X42430550Y16645629D01*
X42430550Y17022413D01*
X42348013Y17104950D01*
X41833750Y17104950D01*
X41732050Y17104950D01*
X41217787Y17104950D01*
X41135250Y17022413D01*
X41135250Y16964219D01*
X41063325Y17036144D01*
X41063325Y17600300D01*
X41050968Y17665971D01*
X41135250Y17665971D01*
X41135250Y17289187D01*
X41217787Y17206650D01*
X41732050Y17206650D01*
X41732050Y17847913D01*
X41833750Y17847913D01*
X41833750Y17206650D01*
X42348013Y17206650D01*
X42430550Y17289187D01*
X42430550Y17665971D01*
X42380288Y17787315D01*
X42287415Y17880188D01*
X42166071Y17930450D01*
X41916287Y17930450D01*
X41833750Y17847913D01*
X41732050Y17847913D01*
X41649513Y17930450D01*
X41399729Y17930450D01*
X41278385Y17880188D01*
X41185512Y17787315D01*
X41135250Y17665971D01*
X41050968Y17665971D01*
X41047395Y17684958D01*
X40997362Y17762712D01*
X40921021Y17814874D01*
X40830400Y17833225D01*
X40195400Y17833225D01*
X40110742Y17817295D01*
X40032988Y17767262D01*
X39980826Y17690921D01*
X39962475Y17600300D01*
X39962475Y16711300D01*
X39978405Y16626642D01*
X40028438Y16548888D01*
X40104779Y16496726D01*
X40195400Y16478375D01*
X40690900Y16478375D01*
X40690900Y16306305D01*
X40635000Y16317625D01*
X40010000Y16317625D01*
X39925342Y16301695D01*
X39847588Y16251662D01*
X39795426Y16175321D01*
X39777075Y16084700D01*
X39777075Y15544178D01*
X39755112Y15522215D01*
X39704850Y15400871D01*
X39704850Y15118587D01*
X39787387Y15036050D01*
X40146650Y15036050D01*
X40146650Y15056050D01*
X40248350Y15056050D01*
X40248350Y15036050D01*
X40607613Y15036050D01*
X40690150Y15118587D01*
X40690150Y15287153D01*
X40690900Y15287294D01*
X40690900Y14919770D01*
X40656547Y14885416D01*
X40607613Y14934350D01*
X40248350Y14934350D01*
X40248350Y14914350D01*
X40146650Y14914350D01*
X40146650Y14934350D01*
X39787387Y14934350D01*
X39704850Y14851813D01*
X39704850Y14725023D01*
X39525533Y14650931D01*
X39463969Y14589475D01*
X39373048Y14725548D01*
X39083448Y15015148D01*
X38935187Y15114213D01*
X38760300Y15149000D01*
X38404500Y15149000D01*
X38404500Y16433104D01*
X38441196Y16469800D01*
X38541975Y16469800D01*
X38541975Y15669800D01*
X38557905Y15585142D01*
X38607938Y15507388D01*
X38684279Y15455226D01*
X38774900Y15436875D01*
X39324900Y15436875D01*
X39409558Y15452805D01*
X39487312Y15502838D01*
X39539474Y15579179D01*
X39557825Y15669800D01*
X39557825Y16469800D01*
X39541895Y16554458D01*
X39491862Y16632212D01*
X39415521Y16684374D01*
X39324900Y16702725D01*
X38774900Y16702725D01*
X38690242Y16686795D01*
X38612488Y16636762D01*
X38560326Y16560421D01*
X38541975Y16469800D01*
X38441196Y16469800D01*
X39642348Y17670952D01*
X39741413Y17819214D01*
X39776200Y17994100D01*
X39776200Y18302857D01*
X39837701Y18450969D01*
X40078223Y18210027D01*
X40442123Y18058922D01*
X40836148Y18058579D01*
X41200312Y18209048D01*
X41479173Y18487423D01*
X41584633Y18741397D01*
X42571984Y17754046D01*
X42520926Y17679321D01*
X42502575Y17588700D01*
X42502575Y16699700D01*
X42518505Y16615042D01*
X42568538Y16537288D01*
X42644879Y16485126D01*
X42735500Y16466775D01*
X42748400Y16466775D01*
X42748400Y16241700D01*
X42771586Y16125134D01*
X42837615Y16026315D01*
X42952075Y15911855D01*
X42952075Y15509700D01*
X42968005Y15425042D01*
X43018038Y15347288D01*
X43094379Y15295126D01*
X43129850Y15287943D01*
X43129850Y15118587D01*
X43212387Y15036050D01*
X43571650Y15036050D01*
X43571650Y15056050D01*
X43673350Y15056050D01*
X43673350Y15036050D01*
X44032613Y15036050D01*
X44035847Y15039284D01*
X44107100Y15024855D01*
X44234375Y15024855D01*
X44566085Y14693145D01*
X44115150Y14693145D01*
X44115150Y14851813D01*
X44032613Y14934350D01*
X43673350Y14934350D01*
X43673350Y14914350D01*
X43571650Y14914350D01*
X43571650Y14934350D01*
X43212387Y14934350D01*
X43129850Y14851813D01*
X43129850Y14683247D01*
X43100342Y14677695D01*
X43022588Y14627662D01*
X42970426Y14551321D01*
X42952075Y14460700D01*
X42952075Y13885700D01*
X42968005Y13801042D01*
X43018038Y13723288D01*
X43094379Y13671126D01*
X43185000Y13652775D01*
X43752805Y13652775D01*
X43599615Y13499585D01*
X43533586Y13400766D01*
X43522974Y13347415D01*
X43510400Y13284200D01*
X43510400Y13123425D01*
X43370500Y13123425D01*
X43285842Y13107495D01*
X43208088Y13057462D01*
X43155926Y12981121D01*
X43137575Y12890500D01*
X43137575Y12255500D01*
X43153505Y12170842D01*
X43203538Y12093088D01*
X43279879Y12040926D01*
X43370500Y12022575D01*
X44259500Y12022575D01*
X44344158Y12038505D01*
X44421912Y12088538D01*
X44450007Y12129656D01*
X44473538Y12093088D01*
X44549879Y12040926D01*
X44640500Y12022575D01*
X45529500Y12022575D01*
X45614158Y12038505D01*
X45691912Y12088538D01*
X45744074Y12164879D01*
X45762425Y12255500D01*
X45762425Y12890500D01*
X45746495Y12975158D01*
X45696462Y13052912D01*
X45620121Y13105074D01*
X45585180Y13112150D01*
X45585180Y13435433D01*
X45639558Y13445665D01*
X45717312Y13495698D01*
X45769474Y13572039D01*
X45787825Y13662660D01*
X45787825Y14460220D01*
X45771895Y14544878D01*
X45746085Y14584988D01*
X45836566Y14602986D01*
X45935385Y14669015D01*
X45974050Y14707680D01*
X45974050Y14411529D01*
X46024312Y14290185D01*
X46117185Y14197312D01*
X46238529Y14147050D01*
X46932813Y14147050D01*
X47015350Y14229587D01*
X47015350Y15188350D01*
X47117050Y15188350D01*
X47117050Y14229587D01*
X47199587Y14147050D01*
X47893871Y14147050D01*
X48015215Y14197312D01*
X48108088Y14290185D01*
X48158350Y14411529D01*
X48158350Y15105813D01*
X48075813Y15188350D01*
X47117050Y15188350D01*
X47015350Y15188350D01*
X46995350Y15188350D01*
X46995350Y15290050D01*
X47015350Y15290050D01*
X47015350Y16248813D01*
X47117050Y16248813D01*
X47117050Y15290050D01*
X48075813Y15290050D01*
X48158350Y15372587D01*
X48158350Y16066871D01*
X48108088Y16188215D01*
X48015215Y16281088D01*
X47893871Y16331350D01*
X47199587Y16331350D01*
X47117050Y16248813D01*
X47015350Y16248813D01*
X46932813Y16331350D01*
X46238529Y16331350D01*
X46177000Y16305864D01*
X46177000Y16713200D01*
X46153814Y16829765D01*
X46118025Y16883327D01*
X46118025Y17589500D01*
X46102095Y17674158D01*
X46052062Y17751912D01*
X45975721Y17804074D01*
X45885100Y17822425D01*
X45250100Y17822425D01*
X45165442Y17806495D01*
X45087688Y17756462D01*
X45035526Y17680121D01*
X45017175Y17589500D01*
X45017175Y16700500D01*
X45033105Y16615842D01*
X45040645Y16604125D01*
X44873425Y16771345D01*
X44873425Y17588700D01*
X44857495Y17673358D01*
X44807462Y17751112D01*
X44731121Y17803274D01*
X44640500Y17821625D01*
X44076345Y17821625D01*
X43750185Y18147785D01*
X43689759Y18188160D01*
X43740312Y18209048D01*
X44019173Y18487423D01*
X44170278Y18851323D01*
X44170279Y18853052D01*
X44729379Y18853052D01*
X44879848Y18488888D01*
X45158223Y18210027D01*
X45522123Y18058922D01*
X45916148Y18058579D01*
X46280312Y18209048D01*
X46559173Y18487423D01*
X46710278Y18851323D01*
X46710621Y19245348D01*
X46560152Y19609512D01*
X46281777Y19888373D01*
X45917877Y20039478D01*
X45523852Y20039821D01*
X45159688Y19889352D01*
X44880827Y19610977D01*
X44729722Y19247077D01*
X44729379Y18853052D01*
X44170279Y18853052D01*
X44170621Y19245348D01*
X44020152Y19609512D01*
X43741777Y19888373D01*
X43377877Y20039478D01*
X42983852Y20039821D01*
X42619688Y19889352D01*
X42340827Y19610977D01*
X42189722Y19247077D01*
X42189505Y18998065D01*
X42062200Y19125370D01*
X42062200Y20268550D01*
X48731084Y20268550D01*
X49072950Y19926684D01*
X49072950Y19926684D01*
G37*
X49072950Y19926684D02*
X49072950Y19636761D01*
X48821777Y19888373D01*
X48457877Y20039478D01*
X48063852Y20039821D01*
X47699688Y19889352D01*
X47420827Y19610977D01*
X47269722Y19247077D01*
X47269379Y18853052D01*
X47419848Y18488888D01*
X47698223Y18210027D01*
X48062123Y18058922D01*
X48456148Y18058579D01*
X48713511Y18164919D01*
X48768348Y18110082D01*
X48768348Y16838822D01*
X48246785Y17360385D01*
X48147966Y17426414D01*
X48031400Y17449600D01*
X47388025Y17449600D01*
X47388025Y17589500D01*
X47372095Y17674158D01*
X47322062Y17751912D01*
X47245721Y17804074D01*
X47155100Y17822425D01*
X46520100Y17822425D01*
X46435442Y17806495D01*
X46357688Y17756462D01*
X46305526Y17680121D01*
X46287175Y17589500D01*
X46287175Y16700500D01*
X46303105Y16615842D01*
X46353138Y16538088D01*
X46429479Y16485926D01*
X46520100Y16467575D01*
X47155100Y16467575D01*
X47239758Y16483505D01*
X47317512Y16533538D01*
X47369674Y16609879D01*
X47388025Y16700500D01*
X47388025Y16840400D01*
X47905230Y16840400D01*
X48463746Y16281884D01*
X48463746Y13486570D01*
X48002936Y13025760D01*
X47906352Y13259512D01*
X47627977Y13538373D01*
X47264077Y13689478D01*
X46870052Y13689821D01*
X46505888Y13539352D01*
X46227027Y13260977D01*
X46075922Y12897077D01*
X46075579Y12503052D01*
X46226048Y12138888D01*
X46504423Y11860027D01*
X46868323Y11708922D01*
X47262348Y11708579D01*
X47626512Y11859048D01*
X47905373Y12137423D01*
X48012163Y12394600D01*
X48107146Y12394600D01*
X48223712Y12417786D01*
X48322531Y12483815D01*
X48768348Y12929632D01*
X48768348Y12267370D01*
X48108578Y11607600D01*
X45762425Y11607600D01*
X45762425Y11620500D01*
X45746495Y11705158D01*
X45696462Y11782912D01*
X45620121Y11835074D01*
X45529500Y11853425D01*
X44640500Y11853425D01*
X44555842Y11837495D01*
X44478088Y11787462D01*
X44449993Y11746344D01*
X44426462Y11782912D01*
X44350121Y11835074D01*
X44259500Y11853425D01*
X43370500Y11853425D01*
X43285842Y11837495D01*
X43208088Y11787462D01*
X43155926Y11711121D01*
X43137575Y11620500D01*
X43137575Y10985500D01*
X43153505Y10900842D01*
X43203538Y10823088D01*
X43279879Y10770926D01*
X43370500Y10752575D01*
X43934655Y10752575D01*
X44285413Y10401818D01*
X44285415Y10401815D01*
X44331732Y10370867D01*
X44384234Y10335786D01*
X44500800Y10312599D01*
X44500805Y10312600D01*
X46075883Y10312600D01*
X46075579Y9963052D01*
X46226048Y9598888D01*
X46504423Y9320027D01*
X46535795Y9307000D01*
X45571925Y9307000D01*
X45571925Y9524200D01*
X45555995Y9608858D01*
X45505962Y9686612D01*
X45429621Y9738774D01*
X45339000Y9757125D01*
X44323000Y9757125D01*
X44238342Y9741195D01*
X44160588Y9691162D01*
X44108426Y9614821D01*
X44090075Y9524200D01*
X44090075Y8989850D01*
X44039698Y8989850D01*
X44026995Y9057358D01*
X43976962Y9135112D01*
X43900621Y9187274D01*
X43810000Y9205625D01*
X43185000Y9205625D01*
X43100342Y9189695D01*
X43022588Y9139662D01*
X42970426Y9063321D01*
X42952075Y8972700D01*
X42952075Y8397700D01*
X42968005Y8313042D01*
X43018038Y8235288D01*
X43094379Y8183126D01*
X43129850Y8175943D01*
X43129850Y8006587D01*
X43212387Y7924050D01*
X43571650Y7924050D01*
X43571650Y7944050D01*
X43673350Y7944050D01*
X43673350Y7924050D01*
X43693350Y7924050D01*
X43693350Y7822350D01*
X43673350Y7822350D01*
X43673350Y7802350D01*
X43571650Y7802350D01*
X43571650Y7822350D01*
X43212387Y7822350D01*
X43129850Y7739813D01*
X43129850Y7571247D01*
X43100342Y7565695D01*
X43022588Y7515662D01*
X42970426Y7439321D01*
X42952075Y7348700D01*
X42952075Y6773700D01*
X42968005Y6689042D01*
X43018038Y6611288D01*
X43037275Y6598144D01*
X42842356Y6403225D01*
X42481400Y6403225D01*
X42396742Y6387295D01*
X42318988Y6337262D01*
X42266826Y6260921D01*
X42248475Y6170300D01*
X42248475Y5281300D01*
X42264405Y5196642D01*
X42314438Y5118888D01*
X42390779Y5066726D01*
X42481400Y5048375D01*
X43116400Y5048375D01*
X43201058Y5064305D01*
X43278812Y5114338D01*
X43330974Y5190679D01*
X43349325Y5281300D01*
X43349325Y5592413D01*
X43421250Y5592413D01*
X43421250Y5215629D01*
X43471512Y5094285D01*
X43564385Y5001412D01*
X43685729Y4951150D01*
X43935513Y4951150D01*
X44018050Y5033687D01*
X44018050Y5674950D01*
X44119750Y5674950D01*
X44119750Y5033687D01*
X44202287Y4951150D01*
X44452071Y4951150D01*
X44573415Y5001412D01*
X44666288Y5094285D01*
X44716550Y5215629D01*
X44716550Y5592413D01*
X44634013Y5674950D01*
X44119750Y5674950D01*
X44018050Y5674950D01*
X43503787Y5674950D01*
X43421250Y5592413D01*
X43349325Y5592413D01*
X43349325Y6048656D01*
X43407669Y6107000D01*
X43421250Y6107000D01*
X43421250Y5859187D01*
X43503787Y5776650D01*
X44018050Y5776650D01*
X44018050Y5796650D01*
X44119750Y5796650D01*
X44119750Y5776650D01*
X44634013Y5776650D01*
X44716550Y5859187D01*
X44716550Y6235971D01*
X44683421Y6315951D01*
X45046385Y6678915D01*
X45094735Y6751275D01*
X45339000Y6751275D01*
X45415300Y6765632D01*
X45415300Y6403225D01*
X45021400Y6403225D01*
X44936742Y6387295D01*
X44858988Y6337262D01*
X44806826Y6260921D01*
X44788475Y6170300D01*
X44788475Y5281300D01*
X44804405Y5196642D01*
X44854438Y5118888D01*
X44930779Y5066726D01*
X45021400Y5048375D01*
X45656400Y5048375D01*
X45741058Y5064305D01*
X45818812Y5114338D01*
X45870974Y5190679D01*
X45886794Y5268800D01*
X46060827Y5268800D01*
X46074405Y5196642D01*
X46124438Y5118888D01*
X46200779Y5066726D01*
X46291400Y5048375D01*
X46634500Y5048375D01*
X46634500Y4189576D01*
X46560152Y4369512D01*
X46281777Y4648373D01*
X45917877Y4799478D01*
X45523852Y4799821D01*
X45159688Y4649352D01*
X44880827Y4370977D01*
X44729722Y4007077D01*
X44729379Y3613052D01*
X44879848Y3248888D01*
X45158223Y2970027D01*
X45522123Y2818922D01*
X45911817Y2818583D01*
X45683084Y2589850D01*
X34747050Y2589850D01*
X34747050Y3221639D01*
X34998223Y2970027D01*
X35362123Y2818922D01*
X35756148Y2818579D01*
X36120312Y2969048D01*
X36399173Y3247423D01*
X36550278Y3611323D01*
X36550621Y4005348D01*
X36400152Y4369512D01*
X36121777Y4648373D01*
X35757877Y4799478D01*
X35363852Y4799821D01*
X34999688Y4649352D01*
X34747050Y4397154D01*
X34747050Y4418800D01*
X34712259Y4593705D01*
X34613183Y4741983D01*
X34366050Y4989116D01*
X34366050Y5088027D01*
X34388912Y5102738D01*
X34441074Y5179079D01*
X34459425Y5269700D01*
X34459425Y5580813D01*
X34531350Y5580813D01*
X34531350Y5204029D01*
X34581612Y5082685D01*
X34674485Y4989812D01*
X34795829Y4939550D01*
X35045613Y4939550D01*
X35128150Y5022087D01*
X35128150Y5663350D01*
X35229850Y5663350D01*
X35229850Y5022087D01*
X35312387Y4939550D01*
X35562171Y4939550D01*
X35683515Y4989812D01*
X35776388Y5082685D01*
X35816352Y5179168D01*
X35851512Y5094285D01*
X35944385Y5001412D01*
X36065729Y4951150D01*
X36315513Y4951150D01*
X36398050Y5033687D01*
X36398050Y5674950D01*
X35883787Y5674950D01*
X35808150Y5599313D01*
X35744113Y5663350D01*
X35229850Y5663350D01*
X35128150Y5663350D01*
X34613887Y5663350D01*
X34531350Y5580813D01*
X34459425Y5580813D01*
X34459425Y6158700D01*
X34443495Y6243358D01*
X34414946Y6287725D01*
X34557592Y6287725D01*
X34531350Y6224371D01*
X34531350Y5847587D01*
X34613887Y5765050D01*
X35128150Y5765050D01*
X35128150Y5785050D01*
X35229850Y5785050D01*
X35229850Y5765050D01*
X35744113Y5765050D01*
X35819750Y5840687D01*
X35883787Y5776650D01*
X36398050Y5776650D01*
X36398050Y5796650D01*
X36499750Y5796650D01*
X36499750Y5776650D01*
X37014013Y5776650D01*
X37096550Y5859187D01*
X37096550Y6210350D01*
X37176585Y6210350D01*
X37168475Y6170300D01*
X37168475Y5453744D01*
X37135491Y5420761D01*
X37096550Y5420795D01*
X37096550Y5592413D01*
X37014013Y5674950D01*
X36499750Y5674950D01*
X36499750Y5033687D01*
X36511491Y5021946D01*
X36499943Y4994135D01*
X36499758Y4781995D01*
X36580769Y4585933D01*
X36730644Y4435796D01*
X36926565Y4354443D01*
X37138705Y4354258D01*
X37318497Y4428546D01*
X37260827Y4370977D01*
X37109722Y4007077D01*
X37109379Y3613052D01*
X37259848Y3248888D01*
X37538223Y2970027D01*
X37902123Y2818922D01*
X38296148Y2818579D01*
X38660312Y2969048D01*
X38939173Y3247423D01*
X39090278Y3611323D01*
X39090621Y4005348D01*
X38940152Y4369512D01*
X38661777Y4648373D01*
X38297877Y4799478D01*
X37903852Y4799821D01*
X37539688Y4649352D01*
X37491655Y4601403D01*
X37566257Y4781065D01*
X37566439Y4990170D01*
X37624644Y5048375D01*
X38036400Y5048375D01*
X38121058Y5064305D01*
X38198812Y5114338D01*
X38250974Y5190679D01*
X38269325Y5281300D01*
X38269325Y5421200D01*
X38438475Y5421200D01*
X38438475Y5281300D01*
X38454405Y5196642D01*
X38504438Y5118888D01*
X38580779Y5066726D01*
X38671400Y5048375D01*
X39306400Y5048375D01*
X39391058Y5064305D01*
X39468812Y5114338D01*
X39520974Y5190679D01*
X39539325Y5281300D01*
X39539325Y5845455D01*
X39708475Y6014605D01*
X39708475Y5281300D01*
X39724405Y5196642D01*
X39774438Y5118888D01*
X39850779Y5066726D01*
X39941400Y5048375D01*
X39954300Y5048375D01*
X39954300Y4524183D01*
X39800827Y4370977D01*
X39649722Y4007077D01*
X39649379Y3613052D01*
X39799848Y3248888D01*
X40078223Y2970027D01*
X40442123Y2818922D01*
X40836148Y2818579D01*
X41200312Y2969048D01*
X41479173Y3247423D01*
X41630278Y3611323D01*
X41630279Y3613052D01*
X42189379Y3613052D01*
X42339848Y3248888D01*
X42618223Y2970027D01*
X42982123Y2818922D01*
X43376148Y2818579D01*
X43740312Y2969048D01*
X44019173Y3247423D01*
X44170278Y3611323D01*
X44170621Y4005348D01*
X44020152Y4369512D01*
X43741777Y4648373D01*
X43377877Y4799478D01*
X42983852Y4799821D01*
X42619688Y4649352D01*
X42340827Y4370977D01*
X42189722Y4007077D01*
X42189379Y3613052D01*
X41630279Y3613052D01*
X41630621Y4005348D01*
X41480152Y4369512D01*
X41201777Y4648373D01*
X40837877Y4799478D01*
X40563500Y4799717D01*
X40563500Y5048375D01*
X40576400Y5048375D01*
X40661058Y5064305D01*
X40738812Y5114338D01*
X40790974Y5190679D01*
X40809325Y5281300D01*
X40809325Y5592413D01*
X40881250Y5592413D01*
X40881250Y5215629D01*
X40931512Y5094285D01*
X41024385Y5001412D01*
X41145729Y4951150D01*
X41395513Y4951150D01*
X41478050Y5033687D01*
X41478050Y5674950D01*
X41579750Y5674950D01*
X41579750Y5033687D01*
X41662287Y4951150D01*
X41912071Y4951150D01*
X42033415Y5001412D01*
X42126288Y5094285D01*
X42176550Y5215629D01*
X42176550Y5592413D01*
X42094013Y5674950D01*
X41579750Y5674950D01*
X41478050Y5674950D01*
X40963787Y5674950D01*
X40881250Y5592413D01*
X40809325Y5592413D01*
X40809325Y6170300D01*
X40796968Y6235971D01*
X40881250Y6235971D01*
X40881250Y5859187D01*
X40963787Y5776650D01*
X41478050Y5776650D01*
X41478050Y6417913D01*
X41579750Y6417913D01*
X41579750Y5776650D01*
X42094013Y5776650D01*
X42176550Y5859187D01*
X42176550Y6235971D01*
X42126288Y6357315D01*
X42033415Y6450188D01*
X41912071Y6500450D01*
X41662287Y6500450D01*
X41579750Y6417913D01*
X41478050Y6417913D01*
X41395513Y6500450D01*
X41145729Y6500450D01*
X41024385Y6450188D01*
X40931512Y6357315D01*
X40881250Y6235971D01*
X40796968Y6235971D01*
X40793395Y6254958D01*
X40743362Y6332712D01*
X40667021Y6384874D01*
X40576400Y6403225D01*
X40097095Y6403225D01*
X40234145Y6540275D01*
X40635000Y6540275D01*
X40719658Y6556205D01*
X40797412Y6606238D01*
X40849574Y6682579D01*
X40867925Y6773200D01*
X40867925Y7348200D01*
X40851995Y7432858D01*
X40801962Y7510612D01*
X40725621Y7562774D01*
X40690150Y7569957D01*
X40690150Y7739813D01*
X40607613Y7822350D01*
X40248350Y7822350D01*
X40248350Y7802350D01*
X40146650Y7802350D01*
X40146650Y7822350D01*
X39787387Y7822350D01*
X39704850Y7739813D01*
X39704850Y7457529D01*
X39755112Y7336185D01*
X39777075Y7314222D01*
X39777075Y6944745D01*
X39235555Y6403225D01*
X38671400Y6403225D01*
X38586742Y6387295D01*
X38508988Y6337262D01*
X38456826Y6260921D01*
X38438475Y6170300D01*
X38438475Y6030400D01*
X38269325Y6030400D01*
X38269325Y6170300D01*
X38253395Y6254958D01*
X38203362Y6332712D01*
X38127021Y6384874D01*
X38079385Y6394520D01*
X38112650Y6474829D01*
X38112650Y6851613D01*
X38030113Y6934150D01*
X37515850Y6934150D01*
X37515850Y6914150D01*
X37414150Y6914150D01*
X37414150Y6934150D01*
X36899887Y6934150D01*
X36817350Y6851613D01*
X36817350Y6500450D01*
X36737315Y6500450D01*
X36745425Y6540500D01*
X36745425Y7429500D01*
X36729495Y7514158D01*
X36679462Y7591912D01*
X36638344Y7620007D01*
X36674912Y7643538D01*
X36727074Y7719879D01*
X36745425Y7810500D01*
X36745425Y8121613D01*
X36817350Y8121613D01*
X36817350Y7744829D01*
X36867612Y7623485D01*
X36871097Y7620000D01*
X36867612Y7616515D01*
X36817350Y7495171D01*
X36817350Y7118387D01*
X36899887Y7035850D01*
X37414150Y7035850D01*
X37414150Y8204150D01*
X37515850Y8204150D01*
X37515850Y7035850D01*
X38030113Y7035850D01*
X38112650Y7118387D01*
X38112650Y7495171D01*
X38062388Y7616515D01*
X38058903Y7620000D01*
X38062388Y7623485D01*
X38112650Y7744829D01*
X38112650Y8121613D01*
X38030113Y8204150D01*
X37515850Y8204150D01*
X37414150Y8204150D01*
X36899887Y8204150D01*
X36817350Y8121613D01*
X36745425Y8121613D01*
X36745425Y8288871D01*
X39704850Y8288871D01*
X39704850Y8006587D01*
X39787387Y7924050D01*
X40146650Y7924050D01*
X40146650Y7944050D01*
X40248350Y7944050D01*
X40248350Y7924050D01*
X40607613Y7924050D01*
X40690150Y8006587D01*
X40690150Y8175153D01*
X40719658Y8180705D01*
X40797412Y8230738D01*
X40849574Y8307079D01*
X40867925Y8397700D01*
X40867925Y8972700D01*
X40851995Y9057358D01*
X40801962Y9135112D01*
X40725621Y9187274D01*
X40635000Y9205625D01*
X40010000Y9205625D01*
X39925342Y9189695D01*
X39847588Y9139662D01*
X39795426Y9063321D01*
X39777075Y8972700D01*
X39777075Y8432178D01*
X39755112Y8410215D01*
X39704850Y8288871D01*
X36745425Y8288871D01*
X36745425Y8699500D01*
X36729495Y8784158D01*
X36679462Y8861912D01*
X36603121Y8914074D01*
X36512500Y8932425D01*
X35877500Y8932425D01*
X35792842Y8916495D01*
X35751246Y8889729D01*
X35691935Y8914357D01*
X35479795Y8914542D01*
X35307436Y8843325D01*
X35283732Y8880162D01*
X35207391Y8932324D01*
X35116770Y8950675D01*
X33846495Y8950675D01*
X33808895Y8988275D01*
X36402000Y8988275D01*
X36486658Y9004205D01*
X36564412Y9054238D01*
X36616574Y9130579D01*
X36634925Y9221200D01*
X36634925Y9666600D01*
X36891830Y9666600D01*
X36914575Y9643855D01*
X36914575Y9079700D01*
X36930505Y8995042D01*
X36948372Y8967275D01*
X36867612Y8886515D01*
X36817350Y8765171D01*
X36817350Y8388387D01*
X36899887Y8305850D01*
X37414150Y8305850D01*
X37414150Y8325850D01*
X37515850Y8325850D01*
X37515850Y8305850D01*
X38030113Y8305850D01*
X38112650Y8388387D01*
X38112650Y8765171D01*
X38062388Y8886515D01*
X37981953Y8966950D01*
X37997074Y8989079D01*
X38015425Y9079700D01*
X38015425Y9390813D01*
X38087350Y9390813D01*
X38087350Y9014029D01*
X38137612Y8892685D01*
X38230485Y8799812D01*
X38351829Y8749550D01*
X38601613Y8749550D01*
X38684150Y8832087D01*
X38684150Y9473350D01*
X38785850Y9473350D01*
X38785850Y8832087D01*
X38868387Y8749550D01*
X39118171Y8749550D01*
X39239515Y8799812D01*
X39332388Y8892685D01*
X39382650Y9014029D01*
X39382650Y9390813D01*
X39300113Y9473350D01*
X38785850Y9473350D01*
X38684150Y9473350D01*
X38169887Y9473350D01*
X38087350Y9390813D01*
X38015425Y9390813D01*
X38015425Y9968700D01*
X37999495Y10053358D01*
X37949462Y10131112D01*
X37908344Y10159207D01*
X37944912Y10182738D01*
X37997074Y10259079D01*
X38015425Y10349700D01*
X38015425Y10660813D01*
X38087350Y10660813D01*
X38087350Y10284029D01*
X38137612Y10162685D01*
X38141097Y10159200D01*
X38137612Y10155715D01*
X38087350Y10034371D01*
X38087350Y9657587D01*
X38169887Y9575050D01*
X38684150Y9575050D01*
X38684150Y10743350D01*
X38785850Y10743350D01*
X38785850Y9575050D01*
X39300113Y9575050D01*
X39382650Y9657587D01*
X39382650Y10034371D01*
X39332388Y10155715D01*
X39328903Y10159200D01*
X39332388Y10162685D01*
X39382650Y10284029D01*
X39382650Y10660813D01*
X39300113Y10743350D01*
X38785850Y10743350D01*
X38684150Y10743350D01*
X38169887Y10743350D01*
X38087350Y10660813D01*
X38015425Y10660813D01*
X38015425Y11238700D01*
X38003068Y11304371D01*
X38087350Y11304371D01*
X38087350Y10927587D01*
X38169887Y10845050D01*
X38684150Y10845050D01*
X38684150Y11486313D01*
X38785850Y11486313D01*
X38785850Y10845050D01*
X39300113Y10845050D01*
X39382650Y10927587D01*
X39382650Y11304371D01*
X39332388Y11425715D01*
X39239515Y11518588D01*
X39118171Y11568850D01*
X38868387Y11568850D01*
X38785850Y11486313D01*
X38684150Y11486313D01*
X38601613Y11568850D01*
X38351829Y11568850D01*
X38230485Y11518588D01*
X38137612Y11425715D01*
X38087350Y11304371D01*
X38003068Y11304371D01*
X37999495Y11323358D01*
X37949462Y11401112D01*
X37873121Y11453274D01*
X37782500Y11471625D01*
X37147500Y11471625D01*
X37062842Y11455695D01*
X37021357Y11429000D01*
X36702170Y11429000D01*
X36634925Y11496245D01*
X36634925Y12295749D01*
X36901775Y12028899D01*
X36901775Y11948800D01*
X36917705Y11864142D01*
X36967738Y11786388D01*
X37044079Y11734226D01*
X37134700Y11715875D01*
X38150700Y11715875D01*
X38235358Y11731805D01*
X38313112Y11781838D01*
X38365274Y11858179D01*
X38383625Y11948800D01*
X38383625Y12196413D01*
X38582550Y12196413D01*
X38582550Y11883129D01*
X38632812Y11761785D01*
X38725685Y11668912D01*
X38847029Y11618650D01*
X39287313Y11618650D01*
X39369850Y11701187D01*
X39369850Y12278950D01*
X39471550Y12278950D01*
X39471550Y11701187D01*
X39554087Y11618650D01*
X39994371Y11618650D01*
X40115715Y11668912D01*
X40208588Y11761785D01*
X40258850Y11883129D01*
X40258850Y12196413D01*
X40176313Y12278950D01*
X39471550Y12278950D01*
X39369850Y12278950D01*
X38665087Y12278950D01*
X38582550Y12196413D01*
X38383625Y12196413D01*
X38383625Y12424430D01*
X38423045Y12463850D01*
X38423048Y12463852D01*
X38522113Y12612114D01*
X38556900Y12787000D01*
X38556900Y13131506D01*
X38575192Y13158277D01*
X38607938Y13107388D01*
X38684279Y13055226D01*
X38774900Y13036875D01*
X38837191Y13036875D01*
X38725685Y12990688D01*
X38632812Y12897815D01*
X38582550Y12776471D01*
X38582550Y12463187D01*
X38665087Y12380650D01*
X39369850Y12380650D01*
X39369850Y12400650D01*
X39471550Y12400650D01*
X39471550Y12380650D01*
X40176313Y12380650D01*
X40258850Y12463187D01*
X40258850Y12776471D01*
X40208588Y12897815D01*
X40152203Y12954200D01*
X40843200Y12954200D01*
X41018087Y12988987D01*
X41166348Y13088052D01*
X42080748Y14002452D01*
X42179813Y14150713D01*
X42214600Y14325600D01*
X42214600Y14492857D01*
X42290757Y14676265D01*
X42290942Y14888405D01*
X42214600Y15073167D01*
X42214600Y15102457D01*
X42290757Y15285865D01*
X42290942Y15498005D01*
X42209931Y15694067D01*
X42060056Y15844204D01*
X41864135Y15925557D01*
X41651995Y15925742D01*
X41455933Y15844731D01*
X41305796Y15694856D01*
X41300100Y15681138D01*
X41300100Y16422417D01*
X41399729Y16381150D01*
X41649513Y16381150D01*
X41732050Y16463687D01*
X41732050Y17104950D01*
X41833750Y17104950D01*
X41833750Y16463687D01*
X41916287Y16381150D01*
X42166071Y16381150D01*
X42287415Y16431412D01*
X42380288Y16524285D01*
X42430550Y16645629D01*
X42430550Y17022413D01*
X42348013Y17104950D01*
X41833750Y17104950D01*
X41732050Y17104950D01*
X41217787Y17104950D01*
X41135250Y17022413D01*
X41135250Y16964219D01*
X41063325Y17036144D01*
X41063325Y17600300D01*
X41050968Y17665971D01*
X41135250Y17665971D01*
X41135250Y17289187D01*
X41217787Y17206650D01*
X41732050Y17206650D01*
X41732050Y17847913D01*
X41833750Y17847913D01*
X41833750Y17206650D01*
X42348013Y17206650D01*
X42430550Y17289187D01*
X42430550Y17665971D01*
X42380288Y17787315D01*
X42287415Y17880188D01*
X42166071Y17930450D01*
X41916287Y17930450D01*
X41833750Y17847913D01*
X41732050Y17847913D01*
X41649513Y17930450D01*
X41399729Y17930450D01*
X41278385Y17880188D01*
X41185512Y17787315D01*
X41135250Y17665971D01*
X41050968Y17665971D01*
X41047395Y17684958D01*
X40997362Y17762712D01*
X40921021Y17814874D01*
X40830400Y17833225D01*
X40195400Y17833225D01*
X40110742Y17817295D01*
X40032988Y17767262D01*
X39980826Y17690921D01*
X39962475Y17600300D01*
X39962475Y16711300D01*
X39978405Y16626642D01*
X40028438Y16548888D01*
X40104779Y16496726D01*
X40195400Y16478375D01*
X40690900Y16478375D01*
X40690900Y16306305D01*
X40635000Y16317625D01*
X40010000Y16317625D01*
X39925342Y16301695D01*
X39847588Y16251662D01*
X39795426Y16175321D01*
X39777075Y16084700D01*
X39777075Y15544178D01*
X39755112Y15522215D01*
X39704850Y15400871D01*
X39704850Y15118587D01*
X39787387Y15036050D01*
X40146650Y15036050D01*
X40146650Y15056050D01*
X40248350Y15056050D01*
X40248350Y15036050D01*
X40607613Y15036050D01*
X40690150Y15118587D01*
X40690150Y15287153D01*
X40690900Y15287294D01*
X40690900Y14919770D01*
X40656547Y14885416D01*
X40607613Y14934350D01*
X40248350Y14934350D01*
X40248350Y14914350D01*
X40146650Y14914350D01*
X40146650Y14934350D01*
X39787387Y14934350D01*
X39704850Y14851813D01*
X39704850Y14725023D01*
X39525533Y14650931D01*
X39463969Y14589475D01*
X39373048Y14725548D01*
X39083448Y15015148D01*
X38935187Y15114213D01*
X38760300Y15149000D01*
X38404500Y15149000D01*
X38404500Y16433104D01*
X38441196Y16469800D01*
X38541975Y16469800D01*
X38541975Y15669800D01*
X38557905Y15585142D01*
X38607938Y15507388D01*
X38684279Y15455226D01*
X38774900Y15436875D01*
X39324900Y15436875D01*
X39409558Y15452805D01*
X39487312Y15502838D01*
X39539474Y15579179D01*
X39557825Y15669800D01*
X39557825Y16469800D01*
X39541895Y16554458D01*
X39491862Y16632212D01*
X39415521Y16684374D01*
X39324900Y16702725D01*
X38774900Y16702725D01*
X38690242Y16686795D01*
X38612488Y16636762D01*
X38560326Y16560421D01*
X38541975Y16469800D01*
X38441196Y16469800D01*
X39642348Y17670952D01*
X39741413Y17819214D01*
X39776200Y17994100D01*
X39776200Y18302857D01*
X39837701Y18450969D01*
X40078223Y18210027D01*
X40442123Y18058922D01*
X40836148Y18058579D01*
X41200312Y18209048D01*
X41479173Y18487423D01*
X41584633Y18741397D01*
X42571984Y17754046D01*
X42520926Y17679321D01*
X42502575Y17588700D01*
X42502575Y16699700D01*
X42518505Y16615042D01*
X42568538Y16537288D01*
X42644879Y16485126D01*
X42735500Y16466775D01*
X42748400Y16466775D01*
X42748400Y16241700D01*
X42771586Y16125134D01*
X42837615Y16026315D01*
X42952075Y15911855D01*
X42952075Y15509700D01*
X42968005Y15425042D01*
X43018038Y15347288D01*
X43094379Y15295126D01*
X43129850Y15287943D01*
X43129850Y15118587D01*
X43212387Y15036050D01*
X43571650Y15036050D01*
X43571650Y15056050D01*
X43673350Y15056050D01*
X43673350Y15036050D01*
X44032613Y15036050D01*
X44035847Y15039284D01*
X44107100Y15024855D01*
X44234375Y15024855D01*
X44566085Y14693145D01*
X44115150Y14693145D01*
X44115150Y14851813D01*
X44032613Y14934350D01*
X43673350Y14934350D01*
X43673350Y14914350D01*
X43571650Y14914350D01*
X43571650Y14934350D01*
X43212387Y14934350D01*
X43129850Y14851813D01*
X43129850Y14683247D01*
X43100342Y14677695D01*
X43022588Y14627662D01*
X42970426Y14551321D01*
X42952075Y14460700D01*
X42952075Y13885700D01*
X42968005Y13801042D01*
X43018038Y13723288D01*
X43094379Y13671126D01*
X43185000Y13652775D01*
X43752805Y13652775D01*
X43599615Y13499585D01*
X43533586Y13400766D01*
X43522974Y13347415D01*
X43510400Y13284200D01*
X43510400Y13123425D01*
X43370500Y13123425D01*
X43285842Y13107495D01*
X43208088Y13057462D01*
X43155926Y12981121D01*
X43137575Y12890500D01*
X43137575Y12255500D01*
X43153505Y12170842D01*
X43203538Y12093088D01*
X43279879Y12040926D01*
X43370500Y12022575D01*
X44259500Y12022575D01*
X44344158Y12038505D01*
X44421912Y12088538D01*
X44450007Y12129656D01*
X44473538Y12093088D01*
X44549879Y12040926D01*
X44640500Y12022575D01*
X45529500Y12022575D01*
X45614158Y12038505D01*
X45691912Y12088538D01*
X45744074Y12164879D01*
X45762425Y12255500D01*
X45762425Y12890500D01*
X45746495Y12975158D01*
X45696462Y13052912D01*
X45620121Y13105074D01*
X45585180Y13112150D01*
X45585180Y13435433D01*
X45639558Y13445665D01*
X45717312Y13495698D01*
X45769474Y13572039D01*
X45787825Y13662660D01*
X45787825Y14460220D01*
X45771895Y14544878D01*
X45746085Y14584988D01*
X45836566Y14602986D01*
X45935385Y14669015D01*
X45974050Y14707680D01*
X45974050Y14411529D01*
X46024312Y14290185D01*
X46117185Y14197312D01*
X46238529Y14147050D01*
X46932813Y14147050D01*
X47015350Y14229587D01*
X47015350Y15188350D01*
X47117050Y15188350D01*
X47117050Y14229587D01*
X47199587Y14147050D01*
X47893871Y14147050D01*
X48015215Y14197312D01*
X48108088Y14290185D01*
X48158350Y14411529D01*
X48158350Y15105813D01*
X48075813Y15188350D01*
X47117050Y15188350D01*
X47015350Y15188350D01*
X46995350Y15188350D01*
X46995350Y15290050D01*
X47015350Y15290050D01*
X47015350Y16248813D01*
X47117050Y16248813D01*
X47117050Y15290050D01*
X48075813Y15290050D01*
X48158350Y15372587D01*
X48158350Y16066871D01*
X48108088Y16188215D01*
X48015215Y16281088D01*
X47893871Y16331350D01*
X47199587Y16331350D01*
X47117050Y16248813D01*
X47015350Y16248813D01*
X46932813Y16331350D01*
X46238529Y16331350D01*
X46177000Y16305864D01*
X46177000Y16713200D01*
X46153814Y16829765D01*
X46118025Y16883327D01*
X46118025Y17589500D01*
X46102095Y17674158D01*
X46052062Y17751912D01*
X45975721Y17804074D01*
X45885100Y17822425D01*
X45250100Y17822425D01*
X45165442Y17806495D01*
X45087688Y17756462D01*
X45035526Y17680121D01*
X45017175Y17589500D01*
X45017175Y16700500D01*
X45033105Y16615842D01*
X45040645Y16604125D01*
X44873425Y16771345D01*
X44873425Y17588700D01*
X44857495Y17673358D01*
X44807462Y17751112D01*
X44731121Y17803274D01*
X44640500Y17821625D01*
X44076345Y17821625D01*
X43750185Y18147785D01*
X43689759Y18188160D01*
X43740312Y18209048D01*
X44019173Y18487423D01*
X44170278Y18851323D01*
X44170279Y18853052D01*
X44729379Y18853052D01*
X44879848Y18488888D01*
X45158223Y18210027D01*
X45522123Y18058922D01*
X45916148Y18058579D01*
X46280312Y18209048D01*
X46559173Y18487423D01*
X46710278Y18851323D01*
X46710621Y19245348D01*
X46560152Y19609512D01*
X46281777Y19888373D01*
X45917877Y20039478D01*
X45523852Y20039821D01*
X45159688Y19889352D01*
X44880827Y19610977D01*
X44729722Y19247077D01*
X44729379Y18853052D01*
X44170279Y18853052D01*
X44170621Y19245348D01*
X44020152Y19609512D01*
X43741777Y19888373D01*
X43377877Y20039478D01*
X42983852Y20039821D01*
X42619688Y19889352D01*
X42340827Y19610977D01*
X42189722Y19247077D01*
X42189505Y18998065D01*
X42062200Y19125370D01*
X42062200Y20268550D01*
X48731084Y20268550D01*
X49072950Y19926684D01*
G36*
X51511300Y5749968D02*
X50953532Y5192200D01*
X49351269Y5192200D01*
X49301061Y5242409D01*
X49301242Y5450405D01*
X49220231Y5646467D01*
X49070356Y5796604D01*
X48874435Y5877957D01*
X48662295Y5878142D01*
X48466233Y5797131D01*
X48429325Y5760287D01*
X48429325Y6170300D01*
X48413395Y6254958D01*
X48363362Y6332712D01*
X48287021Y6384874D01*
X48196400Y6403225D01*
X47853300Y6403225D01*
X47853300Y7005441D01*
X47905373Y7057423D01*
X48056478Y7421323D01*
X48056821Y7815348D01*
X48002130Y7947710D01*
X49243250Y9188830D01*
X49342315Y9337091D01*
X49377102Y9511978D01*
X49377102Y10084682D01*
X49388107Y10095688D01*
X50470588Y10095688D01*
X50645475Y10130475D01*
X50793736Y10229540D01*
X51324429Y10760233D01*
X51507967Y10836069D01*
X51511300Y10839396D01*
X51511300Y5749968D01*
X51511300Y5749968D01*
G37*
X51511300Y5749968D02*
X50953532Y5192200D01*
X49351269Y5192200D01*
X49301061Y5242409D01*
X49301242Y5450405D01*
X49220231Y5646467D01*
X49070356Y5796604D01*
X48874435Y5877957D01*
X48662295Y5878142D01*
X48466233Y5797131D01*
X48429325Y5760287D01*
X48429325Y6170300D01*
X48413395Y6254958D01*
X48363362Y6332712D01*
X48287021Y6384874D01*
X48196400Y6403225D01*
X47853300Y6403225D01*
X47853300Y7005441D01*
X47905373Y7057423D01*
X48056478Y7421323D01*
X48056821Y7815348D01*
X48002130Y7947710D01*
X49243250Y9188830D01*
X49342315Y9337091D01*
X49377102Y9511978D01*
X49377102Y10084682D01*
X49388107Y10095688D01*
X50470588Y10095688D01*
X50645475Y10130475D01*
X50793736Y10229540D01*
X51324429Y10760233D01*
X51507967Y10836069D01*
X51511300Y10839396D01*
X51511300Y5749968D01*
G36*
X30637796Y15236856D02*
X30556443Y15040935D01*
X30556258Y14828795D01*
X30637269Y14632733D01*
X30786820Y14482920D01*
X30637696Y14334056D01*
X30556343Y14138135D01*
X30556158Y13925995D01*
X30637169Y13729933D01*
X30729070Y13637871D01*
X30637696Y13546656D01*
X30556343Y13350735D01*
X30556158Y13138595D01*
X30637169Y12942533D01*
X30779870Y12799582D01*
X30637696Y12657656D01*
X30556343Y12461735D01*
X30556158Y12249595D01*
X30637169Y12053533D01*
X30787044Y11903396D01*
X30799829Y11898087D01*
X30787833Y11893131D01*
X30637696Y11743256D01*
X30556343Y11547335D01*
X30556158Y11335195D01*
X30637169Y11139133D01*
X30640496Y11135800D01*
X28555589Y11135800D01*
X28493831Y11285267D01*
X28343956Y11435404D01*
X28148035Y11516757D01*
X27935895Y11516942D01*
X27739833Y11435931D01*
X27589696Y11286056D01*
X27508343Y11090135D01*
X27508158Y10877995D01*
X27589169Y10681933D01*
X27739044Y10531796D01*
X27934965Y10450443D01*
X28147105Y10450258D01*
X28331867Y10526600D01*
X30828275Y10526600D01*
X30787933Y10509931D01*
X30637796Y10360056D01*
X30556443Y10164135D01*
X30556258Y9951995D01*
X30637269Y9755933D01*
X30787144Y9605796D01*
X30983065Y9524443D01*
X31195205Y9524258D01*
X31391267Y9605269D01*
X31541404Y9755144D01*
X31597581Y9890435D01*
X31585655Y9831540D01*
X31585655Y9531820D01*
X31601585Y9447162D01*
X31611170Y9432266D01*
X31604006Y9421781D01*
X31585655Y9331160D01*
X31585655Y9045605D01*
X31541831Y9151667D01*
X31391956Y9301804D01*
X31196035Y9383157D01*
X30983895Y9383342D01*
X30787833Y9302331D01*
X30637696Y9152456D01*
X30556343Y8956535D01*
X30556158Y8744395D01*
X30637169Y8548333D01*
X30787044Y8398196D01*
X30982965Y8316843D01*
X31039536Y8316794D01*
X31391175Y7965155D01*
X31489995Y7899126D01*
X31595403Y7878159D01*
X31585655Y7830020D01*
X31585655Y7530300D01*
X31601585Y7445642D01*
X31651618Y7367888D01*
X31727959Y7315726D01*
X31818580Y7297375D01*
X31881635Y7297375D01*
X31755296Y7171256D01*
X31673943Y6975335D01*
X31673758Y6763195D01*
X31754769Y6567133D01*
X31904644Y6416996D01*
X32100565Y6335643D01*
X32312705Y6335458D01*
X32508767Y6416469D01*
X32658904Y6566344D01*
X32740257Y6762265D01*
X32740442Y6974405D01*
X32659431Y7170467D01*
X32532744Y7297375D01*
X33017460Y7297375D01*
X33102118Y7313305D01*
X33113827Y7320839D01*
X33160215Y7251415D01*
X33484305Y6927325D01*
X33484305Y6520650D01*
X33500235Y6435992D01*
X33535558Y6381098D01*
X33506842Y6375695D01*
X33429088Y6325662D01*
X33376926Y6249321D01*
X33361116Y6171250D01*
X30801825Y6171250D01*
X30801825Y6280620D01*
X30785895Y6365278D01*
X30735862Y6443032D01*
X30659521Y6495194D01*
X30568900Y6513545D01*
X30302498Y6513545D01*
X30255535Y6560508D01*
X30152390Y6603232D01*
X30174901Y6716400D01*
X30174900Y6716405D01*
X30174900Y7453000D01*
X30151714Y7569565D01*
X30098070Y7649850D01*
X30098657Y7651265D01*
X30098842Y7863405D01*
X30017831Y8059467D01*
X29867956Y8209604D01*
X29672035Y8290957D01*
X29459895Y8291142D01*
X29263833Y8210131D01*
X29115243Y8061801D01*
X29106056Y8071004D01*
X28910135Y8152357D01*
X28697995Y8152542D01*
X28501933Y8071531D01*
X28384772Y7954574D01*
X28341431Y8059467D01*
X28191556Y8209604D01*
X27995635Y8290957D01*
X27783495Y8291142D01*
X27587433Y8210131D01*
X27437296Y8060256D01*
X27386004Y7936730D01*
X27233735Y7999957D01*
X27021595Y8000142D01*
X26825533Y7919131D01*
X26675396Y7769256D01*
X26594043Y7573335D01*
X26593858Y7361195D01*
X26624170Y7287833D01*
X26619350Y7263600D01*
X26619350Y7176662D01*
X26471735Y7237957D01*
X26262579Y7238139D01*
X26275820Y7251380D01*
X26285865Y7266414D01*
X26341860Y7350215D01*
X26365050Y7466800D01*
X26365050Y8228800D01*
X26341860Y8345385D01*
X26288192Y8425704D01*
X26288757Y8427065D01*
X26288942Y8639205D01*
X26207931Y8835267D01*
X26172974Y8870285D01*
X26188566Y8873386D01*
X26287385Y8939415D01*
X26885385Y9537415D01*
X26915109Y9581900D01*
X26971667Y9605269D01*
X27121804Y9755144D01*
X27203157Y9951065D01*
X27203342Y10163205D01*
X27122331Y10359267D01*
X26972456Y10509404D01*
X26776535Y10590757D01*
X26564395Y10590942D01*
X26368333Y10509931D01*
X26218196Y10360056D01*
X26162002Y10224724D01*
X26014535Y10285957D01*
X25802395Y10286142D01*
X25606333Y10205131D01*
X25456196Y10055256D01*
X25374843Y9859335D01*
X25374760Y9764002D01*
X24941040Y9764002D01*
X24383502Y10321540D01*
X24383502Y10377235D01*
X24398758Y10374200D01*
X24840902Y10374200D01*
X24957468Y10397386D01*
X25056287Y10463415D01*
X26491071Y11898200D01*
X28498700Y11898200D01*
X28615266Y11921386D01*
X28714085Y11987415D01*
X29476085Y12749415D01*
X29542114Y12848234D01*
X29565301Y12964800D01*
X29565300Y12964805D01*
X29565300Y14819830D01*
X29996469Y15251000D01*
X30651965Y15251000D01*
X30637796Y15236856D01*
X30637796Y15236856D01*
G37*
X30637796Y15236856D02*
X30556443Y15040935D01*
X30556258Y14828795D01*
X30637269Y14632733D01*
X30786820Y14482920D01*
X30637696Y14334056D01*
X30556343Y14138135D01*
X30556158Y13925995D01*
X30637169Y13729933D01*
X30729070Y13637871D01*
X30637696Y13546656D01*
X30556343Y13350735D01*
X30556158Y13138595D01*
X30637169Y12942533D01*
X30779870Y12799582D01*
X30637696Y12657656D01*
X30556343Y12461735D01*
X30556158Y12249595D01*
X30637169Y12053533D01*
X30787044Y11903396D01*
X30799829Y11898087D01*
X30787833Y11893131D01*
X30637696Y11743256D01*
X30556343Y11547335D01*
X30556158Y11335195D01*
X30637169Y11139133D01*
X30640496Y11135800D01*
X28555589Y11135800D01*
X28493831Y11285267D01*
X28343956Y11435404D01*
X28148035Y11516757D01*
X27935895Y11516942D01*
X27739833Y11435931D01*
X27589696Y11286056D01*
X27508343Y11090135D01*
X27508158Y10877995D01*
X27589169Y10681933D01*
X27739044Y10531796D01*
X27934965Y10450443D01*
X28147105Y10450258D01*
X28331867Y10526600D01*
X30828275Y10526600D01*
X30787933Y10509931D01*
X30637796Y10360056D01*
X30556443Y10164135D01*
X30556258Y9951995D01*
X30637269Y9755933D01*
X30787144Y9605796D01*
X30983065Y9524443D01*
X31195205Y9524258D01*
X31391267Y9605269D01*
X31541404Y9755144D01*
X31597581Y9890435D01*
X31585655Y9831540D01*
X31585655Y9531820D01*
X31601585Y9447162D01*
X31611170Y9432266D01*
X31604006Y9421781D01*
X31585655Y9331160D01*
X31585655Y9045605D01*
X31541831Y9151667D01*
X31391956Y9301804D01*
X31196035Y9383157D01*
X30983895Y9383342D01*
X30787833Y9302331D01*
X30637696Y9152456D01*
X30556343Y8956535D01*
X30556158Y8744395D01*
X30637169Y8548333D01*
X30787044Y8398196D01*
X30982965Y8316843D01*
X31039536Y8316794D01*
X31391175Y7965155D01*
X31489995Y7899126D01*
X31595403Y7878159D01*
X31585655Y7830020D01*
X31585655Y7530300D01*
X31601585Y7445642D01*
X31651618Y7367888D01*
X31727959Y7315726D01*
X31818580Y7297375D01*
X31881635Y7297375D01*
X31755296Y7171256D01*
X31673943Y6975335D01*
X31673758Y6763195D01*
X31754769Y6567133D01*
X31904644Y6416996D01*
X32100565Y6335643D01*
X32312705Y6335458D01*
X32508767Y6416469D01*
X32658904Y6566344D01*
X32740257Y6762265D01*
X32740442Y6974405D01*
X32659431Y7170467D01*
X32532744Y7297375D01*
X33017460Y7297375D01*
X33102118Y7313305D01*
X33113827Y7320839D01*
X33160215Y7251415D01*
X33484305Y6927325D01*
X33484305Y6520650D01*
X33500235Y6435992D01*
X33535558Y6381098D01*
X33506842Y6375695D01*
X33429088Y6325662D01*
X33376926Y6249321D01*
X33361116Y6171250D01*
X30801825Y6171250D01*
X30801825Y6280620D01*
X30785895Y6365278D01*
X30735862Y6443032D01*
X30659521Y6495194D01*
X30568900Y6513545D01*
X30302498Y6513545D01*
X30255535Y6560508D01*
X30152390Y6603232D01*
X30174901Y6716400D01*
X30174900Y6716405D01*
X30174900Y7453000D01*
X30151714Y7569565D01*
X30098070Y7649850D01*
X30098657Y7651265D01*
X30098842Y7863405D01*
X30017831Y8059467D01*
X29867956Y8209604D01*
X29672035Y8290957D01*
X29459895Y8291142D01*
X29263833Y8210131D01*
X29115243Y8061801D01*
X29106056Y8071004D01*
X28910135Y8152357D01*
X28697995Y8152542D01*
X28501933Y8071531D01*
X28384772Y7954574D01*
X28341431Y8059467D01*
X28191556Y8209604D01*
X27995635Y8290957D01*
X27783495Y8291142D01*
X27587433Y8210131D01*
X27437296Y8060256D01*
X27386004Y7936730D01*
X27233735Y7999957D01*
X27021595Y8000142D01*
X26825533Y7919131D01*
X26675396Y7769256D01*
X26594043Y7573335D01*
X26593858Y7361195D01*
X26624170Y7287833D01*
X26619350Y7263600D01*
X26619350Y7176662D01*
X26471735Y7237957D01*
X26262579Y7238139D01*
X26275820Y7251380D01*
X26285865Y7266414D01*
X26341860Y7350215D01*
X26365050Y7466800D01*
X26365050Y8228800D01*
X26341860Y8345385D01*
X26288192Y8425704D01*
X26288757Y8427065D01*
X26288942Y8639205D01*
X26207931Y8835267D01*
X26172974Y8870285D01*
X26188566Y8873386D01*
X26287385Y8939415D01*
X26885385Y9537415D01*
X26915109Y9581900D01*
X26971667Y9605269D01*
X27121804Y9755144D01*
X27203157Y9951065D01*
X27203342Y10163205D01*
X27122331Y10359267D01*
X26972456Y10509404D01*
X26776535Y10590757D01*
X26564395Y10590942D01*
X26368333Y10509931D01*
X26218196Y10360056D01*
X26162002Y10224724D01*
X26014535Y10285957D01*
X25802395Y10286142D01*
X25606333Y10205131D01*
X25456196Y10055256D01*
X25374843Y9859335D01*
X25374760Y9764002D01*
X24941040Y9764002D01*
X24383502Y10321540D01*
X24383502Y10377235D01*
X24398758Y10374200D01*
X24840902Y10374200D01*
X24957468Y10397386D01*
X25056287Y10463415D01*
X26491071Y11898200D01*
X28498700Y11898200D01*
X28615266Y11921386D01*
X28714085Y11987415D01*
X29476085Y12749415D01*
X29542114Y12848234D01*
X29565301Y12964800D01*
X29565300Y12964805D01*
X29565300Y14819830D01*
X29996469Y15251000D01*
X30651965Y15251000D01*
X30637796Y15236856D01*
G36*
X15671850Y7035850D02*
X15691850Y7035850D01*
X15691850Y6934150D01*
X15671850Y6934150D01*
X15671850Y6914150D01*
X15570150Y6914150D01*
X15570150Y6934150D01*
X15550150Y6934150D01*
X15550150Y7035850D01*
X15570150Y7035850D01*
X15570150Y7055850D01*
X15671850Y7055850D01*
X15671850Y7035850D01*
X15671850Y7035850D01*
G37*
X15671850Y7035850D02*
X15691850Y7035850D01*
X15691850Y6934150D01*
X15671850Y6934150D01*
X15671850Y6914150D01*
X15570150Y6914150D01*
X15570150Y6934150D01*
X15550150Y6934150D01*
X15550150Y7035850D01*
X15570150Y7035850D01*
X15570150Y7055850D01*
X15671850Y7055850D01*
X15671850Y7035850D01*
G36*
X14635796Y13256456D02*
X14554443Y13060535D01*
X14554258Y12848395D01*
X14635269Y12652333D01*
X14785144Y12502196D01*
X14981065Y12420843D01*
X15193205Y12420658D01*
X15389267Y12501669D01*
X15539404Y12651544D01*
X15620757Y12847465D01*
X15620850Y12953548D01*
X16242445Y12953548D01*
X16197112Y12908215D01*
X16146850Y12786871D01*
X16146850Y11054587D01*
X16229387Y10972050D01*
X17526150Y10972050D01*
X17526150Y10992050D01*
X17627850Y10992050D01*
X17627850Y10972050D01*
X18924613Y10972050D01*
X19007150Y11054587D01*
X19007150Y12786871D01*
X18956888Y12908215D01*
X18911555Y12953548D01*
X19026082Y12953548D01*
X19659800Y12319830D01*
X19659800Y10922000D01*
X19682986Y10805434D01*
X19749015Y10706615D01*
X19991115Y10464515D01*
X20089934Y10398486D01*
X20103080Y10395871D01*
X20089615Y10329380D01*
X20089615Y10029660D01*
X20105545Y9945002D01*
X20114288Y9931414D01*
X20107966Y9922161D01*
X20103985Y9902501D01*
X20000216Y9881861D01*
X19901380Y9815820D01*
X19228610Y9143050D01*
X19007150Y9143050D01*
X19007150Y10787813D01*
X18924613Y10870350D01*
X17627850Y10870350D01*
X17627850Y10850350D01*
X17526150Y10850350D01*
X17526150Y10870350D01*
X16229387Y10870350D01*
X16146850Y10787813D01*
X16146850Y9143050D01*
X13842190Y9143050D01*
X13715850Y9269390D01*
X13715850Y11429200D01*
X13711672Y11450206D01*
X13692661Y11545784D01*
X13626620Y11644620D01*
X12864620Y12406620D01*
X12847312Y12418185D01*
X12765785Y12472660D01*
X12681962Y12489333D01*
X12711374Y12532379D01*
X12729725Y12623000D01*
X12729725Y12774533D01*
X12847465Y12725643D01*
X13059605Y12725458D01*
X13255667Y12806469D01*
X13403656Y12954200D01*
X13868400Y12954200D01*
X13984966Y12977386D01*
X14083785Y13043415D01*
X14298570Y13258200D01*
X14637543Y13258200D01*
X14635796Y13256456D01*
X14635796Y13256456D01*
G37*
X14635796Y13256456D02*
X14554443Y13060535D01*
X14554258Y12848395D01*
X14635269Y12652333D01*
X14785144Y12502196D01*
X14981065Y12420843D01*
X15193205Y12420658D01*
X15389267Y12501669D01*
X15539404Y12651544D01*
X15620757Y12847465D01*
X15620850Y12953548D01*
X16242445Y12953548D01*
X16197112Y12908215D01*
X16146850Y12786871D01*
X16146850Y11054587D01*
X16229387Y10972050D01*
X17526150Y10972050D01*
X17526150Y10992050D01*
X17627850Y10992050D01*
X17627850Y10972050D01*
X18924613Y10972050D01*
X19007150Y11054587D01*
X19007150Y12786871D01*
X18956888Y12908215D01*
X18911555Y12953548D01*
X19026082Y12953548D01*
X19659800Y12319830D01*
X19659800Y10922000D01*
X19682986Y10805434D01*
X19749015Y10706615D01*
X19991115Y10464515D01*
X20089934Y10398486D01*
X20103080Y10395871D01*
X20089615Y10329380D01*
X20089615Y10029660D01*
X20105545Y9945002D01*
X20114288Y9931414D01*
X20107966Y9922161D01*
X20103985Y9902501D01*
X20000216Y9881861D01*
X19901380Y9815820D01*
X19228610Y9143050D01*
X19007150Y9143050D01*
X19007150Y10787813D01*
X18924613Y10870350D01*
X17627850Y10870350D01*
X17627850Y10850350D01*
X17526150Y10850350D01*
X17526150Y10870350D01*
X16229387Y10870350D01*
X16146850Y10787813D01*
X16146850Y9143050D01*
X13842190Y9143050D01*
X13715850Y9269390D01*
X13715850Y11429200D01*
X13711672Y11450206D01*
X13692661Y11545784D01*
X13626620Y11644620D01*
X12864620Y12406620D01*
X12847312Y12418185D01*
X12765785Y12472660D01*
X12681962Y12489333D01*
X12711374Y12532379D01*
X12729725Y12623000D01*
X12729725Y12774533D01*
X12847465Y12725643D01*
X13059605Y12725458D01*
X13255667Y12806469D01*
X13403656Y12954200D01*
X13868400Y12954200D01*
X13984966Y12977386D01*
X14083785Y13043415D01*
X14298570Y13258200D01*
X14637543Y13258200D01*
X14635796Y13256456D01*
G36*
X9364452Y14982052D02*
X9364687Y14981895D01*
X9364846Y14981658D01*
X9438932Y14932286D01*
X9512714Y14882987D01*
X9512993Y14882932D01*
X9513229Y14882774D01*
X9600205Y14865583D01*
X9687600Y14848199D01*
X9687880Y14848255D01*
X9688157Y14848200D01*
X9806665Y14848344D01*
X9853379Y14816426D01*
X9944000Y14798075D01*
X10084047Y14798075D01*
X10061433Y14788731D01*
X10056985Y14784291D01*
X9994492Y14782388D01*
X9914270Y14763876D01*
X9833514Y14747813D01*
X9827635Y14743885D01*
X9820745Y14742295D01*
X9753704Y14694486D01*
X9685252Y14648748D01*
X9556129Y14519625D01*
X9207500Y14519625D01*
X9122842Y14503695D01*
X9045088Y14453662D01*
X8992926Y14377321D01*
X8974575Y14286700D01*
X8974575Y13397700D01*
X8990505Y13313042D01*
X9040538Y13235288D01*
X9116879Y13183126D01*
X9121688Y13182152D01*
X9045088Y13132862D01*
X8992926Y13056521D01*
X8974575Y12965900D01*
X8974575Y12076900D01*
X8990505Y11992242D01*
X9040538Y11914488D01*
X9081656Y11886393D01*
X9045088Y11862862D01*
X8992926Y11786521D01*
X8974575Y11695900D01*
X8974575Y10806900D01*
X8990505Y10722242D01*
X9040538Y10644488D01*
X9116879Y10592326D01*
X9207500Y10573975D01*
X9220350Y10573975D01*
X9220350Y10455625D01*
X9080500Y10455625D01*
X8995842Y10439695D01*
X8918088Y10389662D01*
X8889993Y10348544D01*
X8866462Y10385112D01*
X8790121Y10437274D01*
X8699500Y10455625D01*
X7957544Y10455625D01*
X7416285Y10996885D01*
X7317466Y11062914D01*
X7200900Y11086100D01*
X6612190Y11086100D01*
X6599837Y11105298D01*
X6622994Y11139189D01*
X6641345Y11229810D01*
X6641345Y11238905D01*
X6679390Y11276950D01*
X7704575Y11276950D01*
X7704575Y10806900D01*
X7720505Y10722242D01*
X7770538Y10644488D01*
X7846879Y10592326D01*
X7937500Y10573975D01*
X8572500Y10573975D01*
X8657158Y10589905D01*
X8734912Y10639938D01*
X8787074Y10716279D01*
X8805425Y10806900D01*
X8805425Y11695900D01*
X8789495Y11780558D01*
X8739462Y11858312D01*
X8698344Y11886407D01*
X8734912Y11909938D01*
X8787074Y11986279D01*
X8805425Y12076900D01*
X8805425Y12965900D01*
X8789495Y13050558D01*
X8749017Y13113463D01*
X8759515Y13117812D01*
X8852388Y13210685D01*
X8902650Y13332029D01*
X8902650Y13708813D01*
X8820113Y13791350D01*
X8305850Y13791350D01*
X8305850Y13771350D01*
X8204150Y13771350D01*
X8204150Y13791350D01*
X7689887Y13791350D01*
X7607350Y13708813D01*
X7607350Y13332029D01*
X7657612Y13210685D01*
X7750485Y13117812D01*
X7761646Y13113189D01*
X7722926Y13056521D01*
X7704575Y12965900D01*
X7704575Y12401815D01*
X7493810Y12191050D01*
X6679320Y12191050D01*
X6641345Y12229025D01*
X6641345Y12276290D01*
X6625415Y12360948D01*
X6598995Y12402006D01*
X6622994Y12437129D01*
X6641345Y12527750D01*
X6641345Y12926530D01*
X6625415Y13011188D01*
X6619622Y13020191D01*
X6715167Y13059669D01*
X6865304Y13209544D01*
X6946657Y13405465D01*
X6946842Y13617605D01*
X6870500Y13802367D01*
X6870500Y13831657D01*
X6946657Y14015065D01*
X6946784Y14160988D01*
X7138167Y14352371D01*
X7607350Y14352371D01*
X7607350Y13975587D01*
X7689887Y13893050D01*
X8204150Y13893050D01*
X8204150Y14534313D01*
X8305850Y14534313D01*
X8305850Y13893050D01*
X8820113Y13893050D01*
X8902650Y13975587D01*
X8902650Y14352371D01*
X8852388Y14473715D01*
X8759515Y14566588D01*
X8638171Y14616850D01*
X8388387Y14616850D01*
X8305850Y14534313D01*
X8204150Y14534313D01*
X8121613Y14616850D01*
X7871829Y14616850D01*
X7750485Y14566588D01*
X7657612Y14473715D01*
X7607350Y14352371D01*
X7138167Y14352371D01*
X7583871Y14798075D01*
X8344000Y14798075D01*
X8428658Y14814005D01*
X8506412Y14864038D01*
X8558574Y14940379D01*
X8576925Y15031000D01*
X8576925Y15544200D01*
X8802304Y15544200D01*
X9364452Y14982052D01*
X9364452Y14982052D01*
G37*
X9364452Y14982052D02*
X9364687Y14981895D01*
X9364846Y14981658D01*
X9438932Y14932286D01*
X9512714Y14882987D01*
X9512993Y14882932D01*
X9513229Y14882774D01*
X9600205Y14865583D01*
X9687600Y14848199D01*
X9687880Y14848255D01*
X9688157Y14848200D01*
X9806665Y14848344D01*
X9853379Y14816426D01*
X9944000Y14798075D01*
X10084047Y14798075D01*
X10061433Y14788731D01*
X10056985Y14784291D01*
X9994492Y14782388D01*
X9914270Y14763876D01*
X9833514Y14747813D01*
X9827635Y14743885D01*
X9820745Y14742295D01*
X9753704Y14694486D01*
X9685252Y14648748D01*
X9556129Y14519625D01*
X9207500Y14519625D01*
X9122842Y14503695D01*
X9045088Y14453662D01*
X8992926Y14377321D01*
X8974575Y14286700D01*
X8974575Y13397700D01*
X8990505Y13313042D01*
X9040538Y13235288D01*
X9116879Y13183126D01*
X9121688Y13182152D01*
X9045088Y13132862D01*
X8992926Y13056521D01*
X8974575Y12965900D01*
X8974575Y12076900D01*
X8990505Y11992242D01*
X9040538Y11914488D01*
X9081656Y11886393D01*
X9045088Y11862862D01*
X8992926Y11786521D01*
X8974575Y11695900D01*
X8974575Y10806900D01*
X8990505Y10722242D01*
X9040538Y10644488D01*
X9116879Y10592326D01*
X9207500Y10573975D01*
X9220350Y10573975D01*
X9220350Y10455625D01*
X9080500Y10455625D01*
X8995842Y10439695D01*
X8918088Y10389662D01*
X8889993Y10348544D01*
X8866462Y10385112D01*
X8790121Y10437274D01*
X8699500Y10455625D01*
X7957544Y10455625D01*
X7416285Y10996885D01*
X7317466Y11062914D01*
X7200900Y11086100D01*
X6612190Y11086100D01*
X6599837Y11105298D01*
X6622994Y11139189D01*
X6641345Y11229810D01*
X6641345Y11238905D01*
X6679390Y11276950D01*
X7704575Y11276950D01*
X7704575Y10806900D01*
X7720505Y10722242D01*
X7770538Y10644488D01*
X7846879Y10592326D01*
X7937500Y10573975D01*
X8572500Y10573975D01*
X8657158Y10589905D01*
X8734912Y10639938D01*
X8787074Y10716279D01*
X8805425Y10806900D01*
X8805425Y11695900D01*
X8789495Y11780558D01*
X8739462Y11858312D01*
X8698344Y11886407D01*
X8734912Y11909938D01*
X8787074Y11986279D01*
X8805425Y12076900D01*
X8805425Y12965900D01*
X8789495Y13050558D01*
X8749017Y13113463D01*
X8759515Y13117812D01*
X8852388Y13210685D01*
X8902650Y13332029D01*
X8902650Y13708813D01*
X8820113Y13791350D01*
X8305850Y13791350D01*
X8305850Y13771350D01*
X8204150Y13771350D01*
X8204150Y13791350D01*
X7689887Y13791350D01*
X7607350Y13708813D01*
X7607350Y13332029D01*
X7657612Y13210685D01*
X7750485Y13117812D01*
X7761646Y13113189D01*
X7722926Y13056521D01*
X7704575Y12965900D01*
X7704575Y12401815D01*
X7493810Y12191050D01*
X6679320Y12191050D01*
X6641345Y12229025D01*
X6641345Y12276290D01*
X6625415Y12360948D01*
X6598995Y12402006D01*
X6622994Y12437129D01*
X6641345Y12527750D01*
X6641345Y12926530D01*
X6625415Y13011188D01*
X6619622Y13020191D01*
X6715167Y13059669D01*
X6865304Y13209544D01*
X6946657Y13405465D01*
X6946842Y13617605D01*
X6870500Y13802367D01*
X6870500Y13831657D01*
X6946657Y14015065D01*
X6946784Y14160988D01*
X7138167Y14352371D01*
X7607350Y14352371D01*
X7607350Y13975587D01*
X7689887Y13893050D01*
X8204150Y13893050D01*
X8204150Y14534313D01*
X8305850Y14534313D01*
X8305850Y13893050D01*
X8820113Y13893050D01*
X8902650Y13975587D01*
X8902650Y14352371D01*
X8852388Y14473715D01*
X8759515Y14566588D01*
X8638171Y14616850D01*
X8388387Y14616850D01*
X8305850Y14534313D01*
X8204150Y14534313D01*
X8121613Y14616850D01*
X7871829Y14616850D01*
X7750485Y14566588D01*
X7657612Y14473715D01*
X7607350Y14352371D01*
X7138167Y14352371D01*
X7583871Y14798075D01*
X8344000Y14798075D01*
X8428658Y14814005D01*
X8506412Y14864038D01*
X8558574Y14940379D01*
X8576925Y15031000D01*
X8576925Y15544200D01*
X8802304Y15544200D01*
X9364452Y14982052D01*
G36*
X50038000Y18054275D02*
X51325054Y18054275D01*
X51511300Y17868029D01*
X51511300Y17579656D01*
X51508756Y17582204D01*
X51312835Y17663557D01*
X51100695Y17663742D01*
X50904633Y17582731D01*
X50754496Y17432856D01*
X50673143Y17236935D01*
X50672958Y17024795D01*
X50749300Y16840033D01*
X50749300Y16810743D01*
X50673143Y16627335D01*
X50672958Y16415195D01*
X50749300Y16230433D01*
X50749300Y12187943D01*
X50673143Y12004535D01*
X50672958Y11792395D01*
X50753969Y11596333D01*
X50756971Y11593326D01*
X50754496Y11590856D01*
X50677832Y11406228D01*
X50281292Y11009688D01*
X49440284Y11009688D01*
X49853098Y11422502D01*
X49952163Y11570763D01*
X49986950Y11745650D01*
X49986950Y18064613D01*
X50038000Y18054275D01*
X50038000Y18054275D01*
G37*
X50038000Y18054275D02*
X51325054Y18054275D01*
X51511300Y17868029D01*
X51511300Y17579656D01*
X51508756Y17582204D01*
X51312835Y17663557D01*
X51100695Y17663742D01*
X50904633Y17582731D01*
X50754496Y17432856D01*
X50673143Y17236935D01*
X50672958Y17024795D01*
X50749300Y16840033D01*
X50749300Y16810743D01*
X50673143Y16627335D01*
X50672958Y16415195D01*
X50749300Y16230433D01*
X50749300Y12187943D01*
X50673143Y12004535D01*
X50672958Y11792395D01*
X50753969Y11596333D01*
X50756971Y11593326D01*
X50754496Y11590856D01*
X50677832Y11406228D01*
X50281292Y11009688D01*
X49440284Y11009688D01*
X49853098Y11422502D01*
X49952163Y11570763D01*
X49986950Y11745650D01*
X49986950Y18064613D01*
X50038000Y18054275D01*
G36*
X23101780Y15023780D02*
X23200615Y14957740D01*
X23317200Y14934550D01*
X24231600Y14934550D01*
X24348185Y14957740D01*
X24447020Y15023780D01*
X25011549Y15588309D01*
X25023769Y15558733D01*
X25173644Y15408596D01*
X25369565Y15327243D01*
X25581705Y15327058D01*
X25777767Y15408069D01*
X25920607Y15550660D01*
X25935644Y15535596D01*
X26131565Y15454243D01*
X26289094Y15454106D01*
X26288958Y15297595D01*
X26369969Y15101533D01*
X26519844Y14951396D01*
X26715765Y14870043D01*
X26927905Y14869858D01*
X27123967Y14950869D01*
X27142234Y14969104D01*
X27166013Y14933517D01*
X27601395Y14498135D01*
X27589696Y14486456D01*
X27508343Y14290535D01*
X27508158Y14078395D01*
X27589169Y13882333D01*
X27739044Y13732196D01*
X27934965Y13650843D01*
X28147105Y13650658D01*
X28343167Y13731669D01*
X28493304Y13881544D01*
X28574657Y14077465D01*
X28574842Y14289605D01*
X28493831Y14485667D01*
X28343956Y14635804D01*
X28286686Y14659584D01*
X28256885Y14704185D01*
X28146622Y14814448D01*
X28292367Y14874669D01*
X28442504Y15024544D01*
X28523857Y15220465D01*
X28523868Y15233598D01*
X28651300Y15105944D01*
X28651300Y13243369D01*
X28220130Y12812200D01*
X25442903Y12812200D01*
X25295956Y12959404D01*
X25100035Y13040757D01*
X24887895Y13040942D01*
X24691833Y12959931D01*
X24541696Y12810056D01*
X24481865Y12665966D01*
X24415004Y12710641D01*
X24298419Y12733831D01*
X24272209Y12733831D01*
X23380220Y13625820D01*
X23281385Y13691860D01*
X23164800Y13715050D01*
X22528990Y13715050D01*
X21849420Y14394620D01*
X21838311Y14402043D01*
X21750585Y14460660D01*
X21741091Y14462548D01*
X21754345Y14528000D01*
X21754345Y14827720D01*
X21738415Y14912378D01*
X21728830Y14927274D01*
X21735994Y14937759D01*
X21754345Y15028380D01*
X21754345Y15276295D01*
X21797105Y15276258D01*
X21993167Y15357269D01*
X22143304Y15507144D01*
X22224657Y15703065D01*
X22224829Y15900731D01*
X23101780Y15023780D01*
X23101780Y15023780D01*
G37*
X23101780Y15023780D02*
X23200615Y14957740D01*
X23317200Y14934550D01*
X24231600Y14934550D01*
X24348185Y14957740D01*
X24447020Y15023780D01*
X25011549Y15588309D01*
X25023769Y15558733D01*
X25173644Y15408596D01*
X25369565Y15327243D01*
X25581705Y15327058D01*
X25777767Y15408069D01*
X25920607Y15550660D01*
X25935644Y15535596D01*
X26131565Y15454243D01*
X26289094Y15454106D01*
X26288958Y15297595D01*
X26369969Y15101533D01*
X26519844Y14951396D01*
X26715765Y14870043D01*
X26927905Y14869858D01*
X27123967Y14950869D01*
X27142234Y14969104D01*
X27166013Y14933517D01*
X27601395Y14498135D01*
X27589696Y14486456D01*
X27508343Y14290535D01*
X27508158Y14078395D01*
X27589169Y13882333D01*
X27739044Y13732196D01*
X27934965Y13650843D01*
X28147105Y13650658D01*
X28343167Y13731669D01*
X28493304Y13881544D01*
X28574657Y14077465D01*
X28574842Y14289605D01*
X28493831Y14485667D01*
X28343956Y14635804D01*
X28286686Y14659584D01*
X28256885Y14704185D01*
X28146622Y14814448D01*
X28292367Y14874669D01*
X28442504Y15024544D01*
X28523857Y15220465D01*
X28523868Y15233598D01*
X28651300Y15105944D01*
X28651300Y13243369D01*
X28220130Y12812200D01*
X25442903Y12812200D01*
X25295956Y12959404D01*
X25100035Y13040757D01*
X24887895Y13040942D01*
X24691833Y12959931D01*
X24541696Y12810056D01*
X24481865Y12665966D01*
X24415004Y12710641D01*
X24298419Y12733831D01*
X24272209Y12733831D01*
X23380220Y13625820D01*
X23281385Y13691860D01*
X23164800Y13715050D01*
X22528990Y13715050D01*
X21849420Y14394620D01*
X21838311Y14402043D01*
X21750585Y14460660D01*
X21741091Y14462548D01*
X21754345Y14528000D01*
X21754345Y14827720D01*
X21738415Y14912378D01*
X21728830Y14927274D01*
X21735994Y14937759D01*
X21754345Y15028380D01*
X21754345Y15276295D01*
X21797105Y15276258D01*
X21993167Y15357269D01*
X22143304Y15507144D01*
X22224657Y15703065D01*
X22224829Y15900731D01*
X23101780Y15023780D01*
G36*
X38938343Y20081735D02*
X38938158Y19869595D01*
X39019169Y19673533D01*
X39169044Y19523396D01*
X39364965Y19442043D01*
X39577105Y19441858D01*
X39762393Y19518417D01*
X39649722Y19247077D01*
X39649521Y19016690D01*
X39621656Y19044604D01*
X39425735Y19125957D01*
X39213595Y19126142D01*
X39090473Y19075269D01*
X39090621Y19245348D01*
X38940152Y19609512D01*
X38661777Y19888373D01*
X38297877Y20039478D01*
X37903852Y20039821D01*
X37539688Y19889352D01*
X37260827Y19610977D01*
X37109722Y19247077D01*
X37109379Y18853052D01*
X37259848Y18488888D01*
X37538223Y18210027D01*
X37902123Y18058922D01*
X38296148Y18058579D01*
X38660312Y18209048D01*
X38830562Y18379002D01*
X38862200Y18302433D01*
X38862200Y18183396D01*
X37624352Y16945548D01*
X37525287Y16797287D01*
X37508721Y16714005D01*
X37503319Y16686845D01*
X37424900Y16702725D01*
X36970728Y16702725D01*
X37046288Y16778285D01*
X37096550Y16899629D01*
X37096550Y17276413D01*
X37014013Y17358950D01*
X36499750Y17358950D01*
X36499750Y16717687D01*
X36582287Y16635150D01*
X36711387Y16635150D01*
X36660326Y16560421D01*
X36641975Y16469800D01*
X36641975Y15669800D01*
X36657905Y15585142D01*
X36673555Y15560820D01*
X36673329Y15560274D01*
X36012534Y14975725D01*
X35305900Y14975725D01*
X35221242Y14959795D01*
X35143488Y14909762D01*
X35135916Y14898680D01*
X35094325Y14940271D01*
X35094325Y15187300D01*
X35078395Y15271958D01*
X35028362Y15349712D01*
X34952021Y15401874D01*
X34861400Y15420225D01*
X33972400Y15420225D01*
X33887742Y15404295D01*
X33809988Y15354262D01*
X33757826Y15277921D01*
X33743789Y15208601D01*
X33639669Y15139031D01*
X33258669Y14758031D01*
X33250385Y14745633D01*
X33250385Y14827720D01*
X33234455Y14912378D01*
X33224870Y14927274D01*
X33232034Y14937759D01*
X33250385Y15028380D01*
X33250385Y15328100D01*
X33234455Y15412758D01*
X33184422Y15490512D01*
X33108081Y15542674D01*
X33017460Y15561025D01*
X32982382Y15561025D01*
X32994357Y15589865D01*
X32994542Y15802005D01*
X32913531Y15998067D01*
X32905200Y16006413D01*
X33134250Y16006413D01*
X33134250Y15756629D01*
X33184512Y15635285D01*
X33277385Y15542412D01*
X33398729Y15492150D01*
X33775513Y15492150D01*
X33858050Y15574687D01*
X33858050Y16088950D01*
X33959750Y16088950D01*
X33959750Y15574687D01*
X34042287Y15492150D01*
X34419071Y15492150D01*
X34540415Y15542412D01*
X34633288Y15635285D01*
X34683550Y15756629D01*
X34683550Y16006413D01*
X34601013Y16088950D01*
X33959750Y16088950D01*
X33858050Y16088950D01*
X33216787Y16088950D01*
X33134250Y16006413D01*
X32905200Y16006413D01*
X32763656Y16148204D01*
X32567735Y16229557D01*
X32355595Y16229742D01*
X32159533Y16148731D01*
X32157698Y16146899D01*
X32151431Y16162067D01*
X32001556Y16312204D01*
X31805635Y16393557D01*
X31659480Y16393684D01*
X31788767Y16522971D01*
X33134250Y16522971D01*
X33134250Y16273187D01*
X33216787Y16190650D01*
X33858050Y16190650D01*
X33858050Y16704913D01*
X33959750Y16704913D01*
X33959750Y16190650D01*
X34601013Y16190650D01*
X34683550Y16273187D01*
X34683550Y16522971D01*
X34633288Y16644315D01*
X34540415Y16737188D01*
X34419071Y16787450D01*
X34042287Y16787450D01*
X33959750Y16704913D01*
X33858050Y16704913D01*
X33775513Y16787450D01*
X33398729Y16787450D01*
X33277385Y16737188D01*
X33184512Y16644315D01*
X33134250Y16522971D01*
X31788767Y16522971D01*
X32218596Y16952800D01*
X33282695Y16952800D01*
X33297438Y16929888D01*
X33373779Y16877726D01*
X33464400Y16859375D01*
X34353400Y16859375D01*
X34438058Y16875305D01*
X34515812Y16925338D01*
X34534576Y16952800D01*
X34630827Y16952800D01*
X34644405Y16880642D01*
X34694438Y16802888D01*
X34725601Y16781595D01*
X34756687Y16625313D01*
X34855752Y16477052D01*
X35072975Y16259829D01*
X35072975Y15504800D01*
X35088905Y15420142D01*
X35138938Y15342388D01*
X35215279Y15290226D01*
X35305900Y15271875D01*
X36067900Y15271875D01*
X36152558Y15287805D01*
X36230312Y15337838D01*
X36282474Y15414179D01*
X36300825Y15504800D01*
X36300825Y16520800D01*
X36284895Y16605458D01*
X36265789Y16635150D01*
X36315513Y16635150D01*
X36398050Y16717687D01*
X36398050Y17358950D01*
X35883787Y17358950D01*
X35801250Y17276413D01*
X35801250Y16899629D01*
X35851512Y16778285D01*
X35876072Y16753725D01*
X35871670Y16753725D01*
X35717667Y16907729D01*
X35729325Y16965300D01*
X35729325Y17854300D01*
X35716968Y17919971D01*
X35801250Y17919971D01*
X35801250Y17543187D01*
X35883787Y17460650D01*
X36398050Y17460650D01*
X36398050Y18101913D01*
X36499750Y18101913D01*
X36499750Y17460650D01*
X37014013Y17460650D01*
X37096550Y17543187D01*
X37096550Y17919971D01*
X37046288Y18041315D01*
X36953415Y18134188D01*
X36832071Y18184450D01*
X36582287Y18184450D01*
X36499750Y18101913D01*
X36398050Y18101913D01*
X36315513Y18184450D01*
X36065729Y18184450D01*
X35944385Y18134188D01*
X35851512Y18041315D01*
X35801250Y17919971D01*
X35716968Y17919971D01*
X35713395Y17938958D01*
X35663362Y18016712D01*
X35601892Y18058713D01*
X35756148Y18058579D01*
X36120312Y18209048D01*
X36399173Y18487423D01*
X36550278Y18851323D01*
X36550621Y19245348D01*
X36400152Y19609512D01*
X36121777Y19888373D01*
X35757877Y20039478D01*
X35363852Y20039821D01*
X34999688Y19889352D01*
X34746900Y19637005D01*
X34746900Y20268550D01*
X39015915Y20268550D01*
X38938343Y20081735D01*
X38938343Y20081735D01*
G37*
X38938343Y20081735D02*
X38938158Y19869595D01*
X39019169Y19673533D01*
X39169044Y19523396D01*
X39364965Y19442043D01*
X39577105Y19441858D01*
X39762393Y19518417D01*
X39649722Y19247077D01*
X39649521Y19016690D01*
X39621656Y19044604D01*
X39425735Y19125957D01*
X39213595Y19126142D01*
X39090473Y19075269D01*
X39090621Y19245348D01*
X38940152Y19609512D01*
X38661777Y19888373D01*
X38297877Y20039478D01*
X37903852Y20039821D01*
X37539688Y19889352D01*
X37260827Y19610977D01*
X37109722Y19247077D01*
X37109379Y18853052D01*
X37259848Y18488888D01*
X37538223Y18210027D01*
X37902123Y18058922D01*
X38296148Y18058579D01*
X38660312Y18209048D01*
X38830562Y18379002D01*
X38862200Y18302433D01*
X38862200Y18183396D01*
X37624352Y16945548D01*
X37525287Y16797287D01*
X37508721Y16714005D01*
X37503319Y16686845D01*
X37424900Y16702725D01*
X36970728Y16702725D01*
X37046288Y16778285D01*
X37096550Y16899629D01*
X37096550Y17276413D01*
X37014013Y17358950D01*
X36499750Y17358950D01*
X36499750Y16717687D01*
X36582287Y16635150D01*
X36711387Y16635150D01*
X36660326Y16560421D01*
X36641975Y16469800D01*
X36641975Y15669800D01*
X36657905Y15585142D01*
X36673555Y15560820D01*
X36673329Y15560274D01*
X36012534Y14975725D01*
X35305900Y14975725D01*
X35221242Y14959795D01*
X35143488Y14909762D01*
X35135916Y14898680D01*
X35094325Y14940271D01*
X35094325Y15187300D01*
X35078395Y15271958D01*
X35028362Y15349712D01*
X34952021Y15401874D01*
X34861400Y15420225D01*
X33972400Y15420225D01*
X33887742Y15404295D01*
X33809988Y15354262D01*
X33757826Y15277921D01*
X33743789Y15208601D01*
X33639669Y15139031D01*
X33258669Y14758031D01*
X33250385Y14745633D01*
X33250385Y14827720D01*
X33234455Y14912378D01*
X33224870Y14927274D01*
X33232034Y14937759D01*
X33250385Y15028380D01*
X33250385Y15328100D01*
X33234455Y15412758D01*
X33184422Y15490512D01*
X33108081Y15542674D01*
X33017460Y15561025D01*
X32982382Y15561025D01*
X32994357Y15589865D01*
X32994542Y15802005D01*
X32913531Y15998067D01*
X32905200Y16006413D01*
X33134250Y16006413D01*
X33134250Y15756629D01*
X33184512Y15635285D01*
X33277385Y15542412D01*
X33398729Y15492150D01*
X33775513Y15492150D01*
X33858050Y15574687D01*
X33858050Y16088950D01*
X33959750Y16088950D01*
X33959750Y15574687D01*
X34042287Y15492150D01*
X34419071Y15492150D01*
X34540415Y15542412D01*
X34633288Y15635285D01*
X34683550Y15756629D01*
X34683550Y16006413D01*
X34601013Y16088950D01*
X33959750Y16088950D01*
X33858050Y16088950D01*
X33216787Y16088950D01*
X33134250Y16006413D01*
X32905200Y16006413D01*
X32763656Y16148204D01*
X32567735Y16229557D01*
X32355595Y16229742D01*
X32159533Y16148731D01*
X32157698Y16146899D01*
X32151431Y16162067D01*
X32001556Y16312204D01*
X31805635Y16393557D01*
X31659480Y16393684D01*
X31788767Y16522971D01*
X33134250Y16522971D01*
X33134250Y16273187D01*
X33216787Y16190650D01*
X33858050Y16190650D01*
X33858050Y16704913D01*
X33959750Y16704913D01*
X33959750Y16190650D01*
X34601013Y16190650D01*
X34683550Y16273187D01*
X34683550Y16522971D01*
X34633288Y16644315D01*
X34540415Y16737188D01*
X34419071Y16787450D01*
X34042287Y16787450D01*
X33959750Y16704913D01*
X33858050Y16704913D01*
X33775513Y16787450D01*
X33398729Y16787450D01*
X33277385Y16737188D01*
X33184512Y16644315D01*
X33134250Y16522971D01*
X31788767Y16522971D01*
X32218596Y16952800D01*
X33282695Y16952800D01*
X33297438Y16929888D01*
X33373779Y16877726D01*
X33464400Y16859375D01*
X34353400Y16859375D01*
X34438058Y16875305D01*
X34515812Y16925338D01*
X34534576Y16952800D01*
X34630827Y16952800D01*
X34644405Y16880642D01*
X34694438Y16802888D01*
X34725601Y16781595D01*
X34756687Y16625313D01*
X34855752Y16477052D01*
X35072975Y16259829D01*
X35072975Y15504800D01*
X35088905Y15420142D01*
X35138938Y15342388D01*
X35215279Y15290226D01*
X35305900Y15271875D01*
X36067900Y15271875D01*
X36152558Y15287805D01*
X36230312Y15337838D01*
X36282474Y15414179D01*
X36300825Y15504800D01*
X36300825Y16520800D01*
X36284895Y16605458D01*
X36265789Y16635150D01*
X36315513Y16635150D01*
X36398050Y16717687D01*
X36398050Y17358950D01*
X35883787Y17358950D01*
X35801250Y17276413D01*
X35801250Y16899629D01*
X35851512Y16778285D01*
X35876072Y16753725D01*
X35871670Y16753725D01*
X35717667Y16907729D01*
X35729325Y16965300D01*
X35729325Y17854300D01*
X35716968Y17919971D01*
X35801250Y17919971D01*
X35801250Y17543187D01*
X35883787Y17460650D01*
X36398050Y17460650D01*
X36398050Y18101913D01*
X36499750Y18101913D01*
X36499750Y17460650D01*
X37014013Y17460650D01*
X37096550Y17543187D01*
X37096550Y17919971D01*
X37046288Y18041315D01*
X36953415Y18134188D01*
X36832071Y18184450D01*
X36582287Y18184450D01*
X36499750Y18101913D01*
X36398050Y18101913D01*
X36315513Y18184450D01*
X36065729Y18184450D01*
X35944385Y18134188D01*
X35851512Y18041315D01*
X35801250Y17919971D01*
X35716968Y17919971D01*
X35713395Y17938958D01*
X35663362Y18016712D01*
X35601892Y18058713D01*
X35756148Y18058579D01*
X36120312Y18209048D01*
X36399173Y18487423D01*
X36550278Y18851323D01*
X36550621Y19245348D01*
X36400152Y19609512D01*
X36121777Y19888373D01*
X35757877Y20039478D01*
X35363852Y20039821D01*
X34999688Y19889352D01*
X34746900Y19637005D01*
X34746900Y20268550D01*
X39015915Y20268550D01*
X38938343Y20081735D01*
G36*
X33832900Y19636812D02*
X33581777Y19888373D01*
X33217877Y20039478D01*
X32823852Y20039821D01*
X32459688Y19889352D01*
X32180827Y19610977D01*
X32029722Y19247077D01*
X32029379Y18853052D01*
X32135698Y18595738D01*
X31023810Y17483850D01*
X30801825Y17483850D01*
X30801825Y17776660D01*
X30785895Y17861318D01*
X30735862Y17939072D01*
X30659521Y17991234D01*
X30568900Y18009585D01*
X30302498Y18009585D01*
X30255535Y18056548D01*
X30134191Y18106810D01*
X30052047Y18106810D01*
X29969510Y18024273D01*
X29969510Y17228070D01*
X29989510Y17228070D01*
X29989510Y17126370D01*
X29969510Y17126370D01*
X29969510Y17106370D01*
X29867810Y17106370D01*
X29867810Y17126370D01*
X29847810Y17126370D01*
X29847810Y17228070D01*
X29867810Y17228070D01*
X29867810Y18024273D01*
X29785273Y18106810D01*
X29703129Y18106810D01*
X29615641Y18070572D01*
X29836731Y18291661D01*
X29918223Y18210027D01*
X30282123Y18058922D01*
X30676148Y18058579D01*
X31040312Y18209048D01*
X31319173Y18487423D01*
X31470278Y18851323D01*
X31470621Y19245348D01*
X31320152Y19609512D01*
X31041777Y19888373D01*
X30677877Y20039478D01*
X30283852Y20039821D01*
X29919688Y19889352D01*
X29640827Y19610977D01*
X29489722Y19247077D01*
X29489379Y18853052D01*
X29503180Y18819650D01*
X28724650Y18041120D01*
X28724650Y18432995D01*
X28779173Y18487423D01*
X28930278Y18851323D01*
X28930621Y19245348D01*
X28780152Y19609512D01*
X28501777Y19888373D01*
X28137877Y20039478D01*
X27743852Y20039821D01*
X27379688Y19889352D01*
X27100827Y19610977D01*
X26949722Y19247077D01*
X26949379Y18853052D01*
X27099848Y18488888D01*
X27378223Y18210027D01*
X27742123Y18058922D01*
X28115350Y18058597D01*
X28115350Y18000308D01*
X28069540Y18009585D01*
X27769820Y18009585D01*
X27685162Y17993655D01*
X27670266Y17984070D01*
X27659781Y17991234D01*
X27569160Y18009585D01*
X27269440Y18009585D01*
X27184782Y17993655D01*
X27169886Y17984070D01*
X27159401Y17991234D01*
X27068780Y18009585D01*
X26769060Y18009585D01*
X26684402Y17993655D01*
X26670814Y17984912D01*
X26661561Y17991234D01*
X26570940Y18009585D01*
X26271220Y18009585D01*
X26186562Y17993655D01*
X26171666Y17984070D01*
X26161181Y17991234D01*
X26070560Y18009585D01*
X25770840Y18009585D01*
X25686182Y17993655D01*
X25671286Y17984070D01*
X25660801Y17991234D01*
X25570180Y18009585D01*
X25270460Y18009585D01*
X25185802Y17993655D01*
X25172214Y17984912D01*
X25162961Y17991234D01*
X25072340Y18009585D01*
X24772620Y18009585D01*
X24687962Y17993655D01*
X24673066Y17984070D01*
X24662581Y17991234D01*
X24571960Y18009585D01*
X24272240Y18009585D01*
X24187582Y17993655D01*
X24172686Y17984070D01*
X24162201Y17991234D01*
X24071580Y18009585D01*
X23771860Y18009585D01*
X23687202Y17993655D01*
X23672306Y17984070D01*
X23661821Y17991234D01*
X23571200Y18009585D01*
X23271480Y18009585D01*
X23186822Y17993655D01*
X23171926Y17984070D01*
X23161441Y17991234D01*
X23070820Y18009585D01*
X22771100Y18009585D01*
X22686442Y17993655D01*
X22608688Y17943622D01*
X22556526Y17867281D01*
X22538175Y17776660D01*
X22538175Y17728250D01*
X19930173Y17728250D01*
X19915462Y17751112D01*
X19884357Y17772365D01*
X19853259Y17928705D01*
X19754183Y18076983D01*
X19507050Y18324116D01*
X19507050Y18461639D01*
X19758223Y18210027D01*
X20122123Y18058922D01*
X20516148Y18058579D01*
X20880312Y18209048D01*
X21159173Y18487423D01*
X21310278Y18851323D01*
X21310279Y18853052D01*
X21869379Y18853052D01*
X22019848Y18488888D01*
X22298223Y18210027D01*
X22662123Y18058922D01*
X23056148Y18058579D01*
X23420312Y18209048D01*
X23699173Y18487423D01*
X23850278Y18851323D01*
X23850279Y18853052D01*
X24409379Y18853052D01*
X24559848Y18488888D01*
X24838223Y18210027D01*
X25202123Y18058922D01*
X25596148Y18058579D01*
X25960312Y18209048D01*
X26239173Y18487423D01*
X26390278Y18851323D01*
X26390621Y19245348D01*
X26240152Y19609512D01*
X25961777Y19888373D01*
X25597877Y20039478D01*
X25203852Y20039821D01*
X24839688Y19889352D01*
X24560827Y19610977D01*
X24409722Y19247077D01*
X24409379Y18853052D01*
X23850279Y18853052D01*
X23850621Y19245348D01*
X23700152Y19609512D01*
X23421777Y19888373D01*
X23057877Y20039478D01*
X22663852Y20039821D01*
X22299688Y19889352D01*
X22020827Y19610977D01*
X21869722Y19247077D01*
X21869379Y18853052D01*
X21310279Y18853052D01*
X21310621Y19245348D01*
X21160152Y19609512D01*
X20881777Y19888373D01*
X20517877Y20039478D01*
X20123852Y20039821D01*
X19759688Y19889352D01*
X19507050Y19637154D01*
X19507050Y20268550D01*
X33832900Y20268550D01*
X33832900Y19636812D01*
X33832900Y19636812D01*
G37*
X33832900Y19636812D02*
X33581777Y19888373D01*
X33217877Y20039478D01*
X32823852Y20039821D01*
X32459688Y19889352D01*
X32180827Y19610977D01*
X32029722Y19247077D01*
X32029379Y18853052D01*
X32135698Y18595738D01*
X31023810Y17483850D01*
X30801825Y17483850D01*
X30801825Y17776660D01*
X30785895Y17861318D01*
X30735862Y17939072D01*
X30659521Y17991234D01*
X30568900Y18009585D01*
X30302498Y18009585D01*
X30255535Y18056548D01*
X30134191Y18106810D01*
X30052047Y18106810D01*
X29969510Y18024273D01*
X29969510Y17228070D01*
X29989510Y17228070D01*
X29989510Y17126370D01*
X29969510Y17126370D01*
X29969510Y17106370D01*
X29867810Y17106370D01*
X29867810Y17126370D01*
X29847810Y17126370D01*
X29847810Y17228070D01*
X29867810Y17228070D01*
X29867810Y18024273D01*
X29785273Y18106810D01*
X29703129Y18106810D01*
X29615641Y18070572D01*
X29836731Y18291661D01*
X29918223Y18210027D01*
X30282123Y18058922D01*
X30676148Y18058579D01*
X31040312Y18209048D01*
X31319173Y18487423D01*
X31470278Y18851323D01*
X31470621Y19245348D01*
X31320152Y19609512D01*
X31041777Y19888373D01*
X30677877Y20039478D01*
X30283852Y20039821D01*
X29919688Y19889352D01*
X29640827Y19610977D01*
X29489722Y19247077D01*
X29489379Y18853052D01*
X29503180Y18819650D01*
X28724650Y18041120D01*
X28724650Y18432995D01*
X28779173Y18487423D01*
X28930278Y18851323D01*
X28930621Y19245348D01*
X28780152Y19609512D01*
X28501777Y19888373D01*
X28137877Y20039478D01*
X27743852Y20039821D01*
X27379688Y19889352D01*
X27100827Y19610977D01*
X26949722Y19247077D01*
X26949379Y18853052D01*
X27099848Y18488888D01*
X27378223Y18210027D01*
X27742123Y18058922D01*
X28115350Y18058597D01*
X28115350Y18000308D01*
X28069540Y18009585D01*
X27769820Y18009585D01*
X27685162Y17993655D01*
X27670266Y17984070D01*
X27659781Y17991234D01*
X27569160Y18009585D01*
X27269440Y18009585D01*
X27184782Y17993655D01*
X27169886Y17984070D01*
X27159401Y17991234D01*
X27068780Y18009585D01*
X26769060Y18009585D01*
X26684402Y17993655D01*
X26670814Y17984912D01*
X26661561Y17991234D01*
X26570940Y18009585D01*
X26271220Y18009585D01*
X26186562Y17993655D01*
X26171666Y17984070D01*
X26161181Y17991234D01*
X26070560Y18009585D01*
X25770840Y18009585D01*
X25686182Y17993655D01*
X25671286Y17984070D01*
X25660801Y17991234D01*
X25570180Y18009585D01*
X25270460Y18009585D01*
X25185802Y17993655D01*
X25172214Y17984912D01*
X25162961Y17991234D01*
X25072340Y18009585D01*
X24772620Y18009585D01*
X24687962Y17993655D01*
X24673066Y17984070D01*
X24662581Y17991234D01*
X24571960Y18009585D01*
X24272240Y18009585D01*
X24187582Y17993655D01*
X24172686Y17984070D01*
X24162201Y17991234D01*
X24071580Y18009585D01*
X23771860Y18009585D01*
X23687202Y17993655D01*
X23672306Y17984070D01*
X23661821Y17991234D01*
X23571200Y18009585D01*
X23271480Y18009585D01*
X23186822Y17993655D01*
X23171926Y17984070D01*
X23161441Y17991234D01*
X23070820Y18009585D01*
X22771100Y18009585D01*
X22686442Y17993655D01*
X22608688Y17943622D01*
X22556526Y17867281D01*
X22538175Y17776660D01*
X22538175Y17728250D01*
X19930173Y17728250D01*
X19915462Y17751112D01*
X19884357Y17772365D01*
X19853259Y17928705D01*
X19754183Y18076983D01*
X19507050Y18324116D01*
X19507050Y18461639D01*
X19758223Y18210027D01*
X20122123Y18058922D01*
X20516148Y18058579D01*
X20880312Y18209048D01*
X21159173Y18487423D01*
X21310278Y18851323D01*
X21310279Y18853052D01*
X21869379Y18853052D01*
X22019848Y18488888D01*
X22298223Y18210027D01*
X22662123Y18058922D01*
X23056148Y18058579D01*
X23420312Y18209048D01*
X23699173Y18487423D01*
X23850278Y18851323D01*
X23850279Y18853052D01*
X24409379Y18853052D01*
X24559848Y18488888D01*
X24838223Y18210027D01*
X25202123Y18058922D01*
X25596148Y18058579D01*
X25960312Y18209048D01*
X26239173Y18487423D01*
X26390278Y18851323D01*
X26390621Y19245348D01*
X26240152Y19609512D01*
X25961777Y19888373D01*
X25597877Y20039478D01*
X25203852Y20039821D01*
X24839688Y19889352D01*
X24560827Y19610977D01*
X24409722Y19247077D01*
X24409379Y18853052D01*
X23850279Y18853052D01*
X23850621Y19245348D01*
X23700152Y19609512D01*
X23421777Y19888373D01*
X23057877Y20039478D01*
X22663852Y20039821D01*
X22299688Y19889352D01*
X22020827Y19610977D01*
X21869722Y19247077D01*
X21869379Y18853052D01*
X21310279Y18853052D01*
X21310621Y19245348D01*
X21160152Y19609512D01*
X20881777Y19888373D01*
X20517877Y20039478D01*
X20123852Y20039821D01*
X19759688Y19889352D01*
X19507050Y19637154D01*
X19507050Y20268550D01*
X33832900Y20268550D01*
X33832900Y19636812D01*
M02*
