M48
INCH,TZ
T1C0.012
T2C0.031
T3C0.040
%
G90
G05
T1
X500Y8500
X500Y500
X1500Y8500
X1500Y7900
X1500Y1500
X1500Y500
X2500Y8500
X2500Y7500
X2500Y500
X2520Y3544
X2520Y3304
X2525Y5560
X2525Y5320
X2645Y2530
X2820Y3904
X2825Y2160
X2885Y2500
X3360Y1854
X3420Y5280
X3480Y1374
X3500Y8500
X3500Y500
X4080Y5644
X4320Y5644
X4380Y6364
X4500Y8500
X4500Y1500
X4500Y500
X4710Y3820
X5100Y5220
X5340Y5460
X5500Y8500
X5500Y5000
X5500Y500
X5520Y5880
X5550Y4500
X5550Y4000
X5620Y6320
X5760Y5880
X5880Y4000
X5880Y2400
X5940Y5100
X5940Y4500
X6120Y3124
X6120Y6420
X6440Y2520
X6480Y6924
X6500Y8500
X6500Y1500
X6500Y500
X7020Y2640
X7500Y8500
X7500Y500
X8500Y8500
X8500Y7500
X8500Y1500
X8500Y500
X8540Y6224
X8760Y4800
X8940Y4204
X9030Y3240
X9120Y3964
X9180Y2700
X9240Y6240
X9240Y3000
X9300Y3724
X9300Y3420
X9500Y8500
X9500Y7500
X9500Y1500
X9500Y500
X9540Y3060
X9600Y6364
X9600Y4740
X9670Y4444
X9800Y3300
X9840Y4924
X10020Y3060
X10030Y6244
X10140Y3360
X10200Y3840
X10330Y6294
X10380Y2640
X10500Y8500
X10500Y7500
X10500Y3960
X10500Y1500
X10500Y500
X10560Y6064
X10680Y2940
X10860Y2700
X10980Y3054
X11000Y4004
X11020Y6034
X11040Y5584
X11040Y4324
X11160Y6304
X11180Y5264
X11340Y3000
X11400Y6124
X11500Y8500
X11500Y7500
X11500Y1500
X11500Y500
X11520Y2760
X11840Y2944
X12080Y2684
X12240Y5524
X12240Y5214
X12240Y4864
X12240Y4444
X12240Y3484
X12240Y5880
X12240Y3960
X12480Y6244
X12500Y8500
X12500Y7500
X12500Y1500
X12500Y500
X12660Y2704
X12740Y6544
X12780Y6180
X13500Y8500
X13500Y500
X13700Y6244
X13900Y2974
X14010Y3300
X14500Y7504
X14500Y8500
X14500Y500
X14580Y1924
X14640Y6064
X14720Y6724
X15480Y7320
X15500Y8500
X15500Y4500
X15500Y1500
X15500Y500
X15540Y7864
X15680Y5590
X16440Y6060
X16440Y5820
X16500Y8500
X16500Y5000
X16500Y4500
X16500Y4000
X16500Y3500
X16500Y3000
X16500Y500
X17000Y4000
X17500Y8500
X17500Y7500
X17500Y1500
X17500Y500
X18500Y8500
X18500Y7500
X18500Y500
X19260Y1984
X19500Y8500
X19500Y500
X19720Y4464
X19840Y2244
X20120Y3684
X20160Y6744
X20160Y6504
X20160Y4684
X20160Y4444
X20500Y8500
X20500Y500
X20580Y7684
X20580Y7444
T3
X1000Y7500
X1000Y1500
X2000Y7500
X2000Y1500
X3000Y7500
X3000Y1500
X4000Y7500
X4000Y1500
X5000Y7500
X5000Y1500
X6000Y7500
X6000Y1500
X7000Y7500
X7000Y1500
X8000Y7500
X8000Y1500
X9000Y7500
X9000Y1500
X10000Y7500
X10000Y1500
X11000Y7500
X11000Y1500
X12000Y7500
X12000Y1500
X13000Y7500
X13000Y1500
X14000Y7500
X14000Y1500
X15000Y7500
X15000Y1500
X16000Y7500
X16000Y1500
X17000Y7500
X17000Y1500
X18000Y7500
X18000Y1500
X18530Y6000
X18530Y5000
X18530Y4000
X18530Y3000
X19000Y7500
X19000Y1500
X20000Y7500
X20000Y1500
T2
X512Y6409G85X866Y6409
G05
X512Y2591G85X866Y2591
G05
X1811Y6409G85X2165Y6409
G05
X1811Y2591G85X2165Y2591
G05
T0
M30
