G04 #@! TF.FileFunction,Paste,Bot*
%FSLAX46Y46*%
G04 Gerber Fmt 4.6, Leading zero omitted, Abs format (unit mm)*
G04 Created by KiCad (PCBNEW 4.0.7-e2-6376~58~ubuntu16.04.1) date Sat Jan 13 19:34:28 2018*
%MOMM*%
%LPD*%
G01*
G04 APERTURE LIST*
%ADD10C,0.100000*%
%ADD11C,0.127000*%
%ADD12R,1.500000X0.800000*%
%ADD13R,1.500000X3.100000*%
%ADD14C,1.000000*%
%ADD15O,2.300000X1.400000*%
%ADD16R,0.889000X0.635000*%
%ADD17R,0.700000X0.900000*%
%ADD18R,0.635000X0.889000*%
%ADD19R,0.550000X0.800000*%
%ADD20C,0.998220*%
%ADD21R,0.949960X0.899160*%
G04 APERTURE END LIST*
D10*
D11*
G36*
X1300480Y7281380D02*
X2199640Y7281380D01*
X2334260Y7266140D01*
X2466340Y7228040D01*
X2588260Y7162000D01*
X2694940Y7075640D01*
X2781300Y6968960D01*
X2844800Y6849580D01*
X2885440Y6717500D01*
X2898140Y6580340D01*
X2885440Y6443180D01*
X2844800Y6313640D01*
X2781300Y6191720D01*
X2694940Y6085040D01*
X2588260Y5998680D01*
X2466340Y5932640D01*
X2334260Y5894540D01*
X2199640Y5879300D01*
X1300480Y5879300D01*
X1165860Y5894540D01*
X1033780Y5932640D01*
X911860Y5998680D01*
X805180Y6085040D01*
X718820Y6191720D01*
X655320Y6313640D01*
X614680Y6443180D01*
X601980Y6580340D01*
X614680Y6717500D01*
X655320Y6849580D01*
X718820Y6968960D01*
X805180Y7075640D01*
X911860Y7162000D01*
X1033780Y7228040D01*
X1165860Y7266140D01*
X1300480Y7281380D01*
X1300480Y7281380D01*
G37*
X1300480Y7281380D02*
X2199640Y7281380D01*
X2334260Y7266140D01*
X2466340Y7228040D01*
X2588260Y7162000D01*
X2694940Y7075640D01*
X2781300Y6968960D01*
X2844800Y6849580D01*
X2885440Y6717500D01*
X2898140Y6580340D01*
X2885440Y6443180D01*
X2844800Y6313640D01*
X2781300Y6191720D01*
X2694940Y6085040D01*
X2588260Y5998680D01*
X2466340Y5932640D01*
X2334260Y5894540D01*
X2199640Y5879300D01*
X1300480Y5879300D01*
X1165860Y5894540D01*
X1033780Y5932640D01*
X911860Y5998680D01*
X805180Y6085040D01*
X718820Y6191720D01*
X655320Y6313640D01*
X614680Y6443180D01*
X601980Y6580340D01*
X614680Y6717500D01*
X655320Y6849580D01*
X718820Y6968960D01*
X805180Y7075640D01*
X911860Y7162000D01*
X1033780Y7228040D01*
X1165860Y7266140D01*
X1300480Y7281380D01*
G36*
X1300480Y16979100D02*
X2199640Y16979100D01*
X2334260Y16963860D01*
X2466340Y16925760D01*
X2588260Y16859720D01*
X2694940Y16773360D01*
X2781300Y16666680D01*
X2844800Y16544760D01*
X2885440Y16415220D01*
X2898140Y16278060D01*
X2885440Y16140900D01*
X2844800Y16008820D01*
X2781300Y15889440D01*
X2694940Y15782760D01*
X2588260Y15696400D01*
X2466340Y15630360D01*
X2334260Y15592260D01*
X2199640Y15577020D01*
X1300480Y15577020D01*
X1165860Y15592260D01*
X1033780Y15630360D01*
X911860Y15696400D01*
X805180Y15782760D01*
X718820Y15889440D01*
X655320Y16008820D01*
X614680Y16140900D01*
X601980Y16278060D01*
X614680Y16415220D01*
X655320Y16544760D01*
X718820Y16666680D01*
X805180Y16773360D01*
X911860Y16859720D01*
X1033780Y16925760D01*
X1165860Y16963860D01*
X1300480Y16979100D01*
X1300480Y16979100D01*
G37*
X1300480Y16979100D02*
X2199640Y16979100D01*
X2334260Y16963860D01*
X2466340Y16925760D01*
X2588260Y16859720D01*
X2694940Y16773360D01*
X2781300Y16666680D01*
X2844800Y16544760D01*
X2885440Y16415220D01*
X2898140Y16278060D01*
X2885440Y16140900D01*
X2844800Y16008820D01*
X2781300Y15889440D01*
X2694940Y15782760D01*
X2588260Y15696400D01*
X2466340Y15630360D01*
X2334260Y15592260D01*
X2199640Y15577020D01*
X1300480Y15577020D01*
X1165860Y15592260D01*
X1033780Y15630360D01*
X911860Y15696400D01*
X805180Y15782760D01*
X718820Y15889440D01*
X655320Y16008820D01*
X614680Y16140900D01*
X601980Y16278060D01*
X614680Y16415220D01*
X655320Y16544760D01*
X718820Y16666680D01*
X805180Y16773360D01*
X911860Y16859720D01*
X1033780Y16925760D01*
X1165860Y16963860D01*
X1300480Y16979100D01*
G36*
X4599940Y7281380D02*
X5499100Y7281380D01*
X5636260Y7266140D01*
X5765800Y7228040D01*
X5887720Y7162000D01*
X5994400Y7075640D01*
X6080760Y6968960D01*
X6144260Y6849580D01*
X6184900Y6717500D01*
X6197600Y6580340D01*
X6184900Y6443180D01*
X6144260Y6313640D01*
X6080760Y6191720D01*
X5994400Y6085040D01*
X5887720Y5998680D01*
X5765800Y5932640D01*
X5636260Y5894540D01*
X5499100Y5879300D01*
X4599940Y5879300D01*
X4462780Y5894540D01*
X4330700Y5932640D01*
X4208780Y5998680D01*
X4104640Y6085040D01*
X4015740Y6191720D01*
X3952240Y6313640D01*
X3911600Y6443180D01*
X3898900Y6580340D01*
X3911600Y6717500D01*
X3952240Y6849580D01*
X4015740Y6968960D01*
X4104640Y7075640D01*
X4208780Y7162000D01*
X4330700Y7228040D01*
X4462780Y7266140D01*
X4599940Y7281380D01*
X4599940Y7281380D01*
G37*
X4599940Y7281380D02*
X5499100Y7281380D01*
X5636260Y7266140D01*
X5765800Y7228040D01*
X5887720Y7162000D01*
X5994400Y7075640D01*
X6080760Y6968960D01*
X6144260Y6849580D01*
X6184900Y6717500D01*
X6197600Y6580340D01*
X6184900Y6443180D01*
X6144260Y6313640D01*
X6080760Y6191720D01*
X5994400Y6085040D01*
X5887720Y5998680D01*
X5765800Y5932640D01*
X5636260Y5894540D01*
X5499100Y5879300D01*
X4599940Y5879300D01*
X4462780Y5894540D01*
X4330700Y5932640D01*
X4208780Y5998680D01*
X4104640Y6085040D01*
X4015740Y6191720D01*
X3952240Y6313640D01*
X3911600Y6443180D01*
X3898900Y6580340D01*
X3911600Y6717500D01*
X3952240Y6849580D01*
X4015740Y6968960D01*
X4104640Y7075640D01*
X4208780Y7162000D01*
X4330700Y7228040D01*
X4462780Y7266140D01*
X4599940Y7281380D01*
G36*
X4599940Y16979100D02*
X5499100Y16979100D01*
X5636260Y16963860D01*
X5765800Y16925760D01*
X5887720Y16859720D01*
X5994400Y16773360D01*
X6080760Y16666680D01*
X6144260Y16544760D01*
X6184900Y16415220D01*
X6197600Y16278060D01*
X6184900Y16140900D01*
X6144260Y16008820D01*
X6080760Y15889440D01*
X5994400Y15782760D01*
X5887720Y15696400D01*
X5765800Y15630360D01*
X5636260Y15592260D01*
X5499100Y15577020D01*
X4599940Y15577020D01*
X4462780Y15592260D01*
X4330700Y15630360D01*
X4208780Y15696400D01*
X4104640Y15782760D01*
X4015740Y15889440D01*
X3952240Y16008820D01*
X3911600Y16140900D01*
X3898900Y16278060D01*
X3911600Y16415220D01*
X3952240Y16544760D01*
X4015740Y16666680D01*
X4104640Y16773360D01*
X4208780Y16859720D01*
X4330700Y16925760D01*
X4462780Y16963860D01*
X4599940Y16979100D01*
X4599940Y16979100D01*
G37*
X4599940Y16979100D02*
X5499100Y16979100D01*
X5636260Y16963860D01*
X5765800Y16925760D01*
X5887720Y16859720D01*
X5994400Y16773360D01*
X6080760Y16666680D01*
X6144260Y16544760D01*
X6184900Y16415220D01*
X6197600Y16278060D01*
X6184900Y16140900D01*
X6144260Y16008820D01*
X6080760Y15889440D01*
X5994400Y15782760D01*
X5887720Y15696400D01*
X5765800Y15630360D01*
X5636260Y15592260D01*
X5499100Y15577020D01*
X4599940Y15577020D01*
X4462780Y15592260D01*
X4330700Y15630360D01*
X4208780Y15696400D01*
X4104640Y15782760D01*
X4015740Y15889440D01*
X3952240Y16008820D01*
X3911600Y16140900D01*
X3898900Y16278060D01*
X3911600Y16415220D01*
X3952240Y16544760D01*
X4015740Y16666680D01*
X4104640Y16773360D01*
X4208780Y16859720D01*
X4330700Y16925760D01*
X4462780Y16963860D01*
X4599940Y16979100D01*
D12*
X16891000Y15915000D03*
X16891000Y14815000D03*
X16891000Y13715000D03*
X16891000Y12615000D03*
X16891000Y11515000D03*
X16891000Y10415000D03*
X16891000Y9315000D03*
X16891000Y8215000D03*
D13*
X7691000Y9035000D03*
X7691000Y15095000D03*
D14*
X29971900Y9789800D03*
X29971900Y11059800D03*
X29971900Y12329800D03*
X29971900Y14869800D03*
X29971900Y17409800D03*
X29971900Y16139800D03*
D15*
X1750060Y16278060D03*
X1750060Y6580340D03*
X5049520Y16278060D03*
X5049520Y6580340D03*
D16*
X51180900Y6995800D03*
X51180900Y5725800D03*
X52450900Y10678800D03*
X52450900Y9408800D03*
D17*
X51943000Y17079000D03*
X51293000Y15179000D03*
X52593000Y15179000D03*
D16*
X49783900Y6995800D03*
X49783900Y5725800D03*
D18*
X49021900Y11948800D03*
X50291900Y11948800D03*
D19*
X49087900Y10634200D03*
X50037900Y10634200D03*
X50987900Y10634200D03*
X50987900Y8234200D03*
X49087900Y8234200D03*
D20*
X29971900Y13599800D03*
D21*
X49403000Y13665200D03*
X49403000Y16814800D03*
M02*
