G04 #@! TF.FileFunction,Copper,L1,Top,Signal*
%FSLAX46Y46*%
G04 Gerber Fmt 4.6, Leading zero omitted, Abs format (unit mm)*
G04 Created by KiCad (PCBNEW 4.0.7-e2-6376~58~ubuntu16.04.1) date Fri Feb  2 23:46:26 2018*
%MOMM*%
%LPD*%
G01*
G04 APERTURE LIST*
%ADD10C,0.100000*%
%ADD11R,0.899160X0.949960*%
%ADD12C,0.609600*%
%ADD13R,1.150000X1.400000*%
%ADD14R,0.548640X0.797560*%
%ADD15R,1.148080X0.398780*%
%ADD16O,2.300000X1.400000*%
%ADD17R,1.399540X0.698500*%
%ADD18R,1.016000X0.762000*%
%ADD19R,2.700000X1.500000*%
%ADD20R,1.198880X0.299720*%
%ADD21R,0.299720X1.198880*%
%ADD22R,0.625000X0.575000*%
%ADD23R,0.325000X0.700000*%
%ADD24R,1.524000X1.524000*%
%ADD25C,1.524000*%
%ADD26R,0.762000X1.016000*%
%ADD27R,2.235200X1.219200*%
%ADD28R,2.200000X3.600000*%
%ADD29R,0.550000X0.800000*%
%ADD30R,0.800000X0.550000*%
%ADD31R,1.016000X1.016000*%
%ADD32R,0.762000X0.889000*%
%ADD33R,0.889000X0.762000*%
%ADD34C,0.152400*%
%ADD35C,0.457200*%
%ADD36C,0.457100*%
%ADD37C,0.304800*%
%ADD38C,0.406400*%
%ADD39C,0.304600*%
%ADD40C,0.152300*%
G04 APERTURE END LIST*
D10*
D11*
X12014200Y15367000D03*
X15163800Y15367000D03*
D12*
X50076100Y11328400D03*
X51155600Y9347200D03*
X50393600Y5689600D03*
X37388800Y17068800D03*
X32359600Y16611600D03*
X21691600Y15798800D03*
X11379200Y9906000D03*
X13360400Y16510000D03*
D13*
X14108000Y6604000D03*
X12308000Y6604000D03*
D14*
X45280580Y14061440D03*
X44381420Y14061440D03*
X44381420Y15656560D03*
X45280580Y15656560D03*
D12*
X18237200Y7924800D03*
D15*
X5834380Y12727940D03*
X5834380Y12077700D03*
X5834380Y11430000D03*
X5834380Y10782300D03*
X5834380Y10132060D03*
D16*
X1750060Y16278860D03*
X1750060Y6581140D03*
X5049520Y16278860D03*
X5049520Y6581140D03*
D12*
X36829900Y19061600D03*
D17*
X34417000Y6870700D03*
X34417000Y8369300D03*
D18*
X37642800Y12319000D03*
X39420800Y12319000D03*
D19*
X35052000Y11872000D03*
X35052000Y9972000D03*
D20*
X32418020Y7680960D03*
X32418020Y8181340D03*
X32418020Y8681720D03*
X32418020Y9182100D03*
X32418020Y9682480D03*
X32418020Y10180320D03*
X32418020Y10680700D03*
X32418020Y11181080D03*
X32418020Y11678920D03*
X32418020Y12179300D03*
X32418020Y12679680D03*
X32418020Y13180060D03*
X32418020Y13677900D03*
X32418020Y14178280D03*
X32418020Y14678660D03*
X32418020Y15179040D03*
D21*
X30419040Y17178020D03*
X29918660Y17178020D03*
X29418280Y17178020D03*
X28917900Y17178020D03*
X28420060Y17178020D03*
X27919680Y17178020D03*
X27419300Y17178020D03*
X26918920Y17178020D03*
X26421080Y17178020D03*
X25920700Y17178020D03*
X25420320Y17178020D03*
X24922480Y17178020D03*
X24422100Y17178020D03*
X23921720Y17178020D03*
X23421340Y17178020D03*
X22920960Y17178020D03*
D20*
X20921980Y15179040D03*
X20921980Y14678660D03*
X20921980Y14178280D03*
X20921980Y13677900D03*
X20921980Y13180060D03*
X20921980Y12679680D03*
X20921980Y12179300D03*
X20921980Y11678920D03*
X20921980Y11181080D03*
X20921980Y10680700D03*
X20921980Y10180320D03*
X20921980Y9682480D03*
X20921980Y9182100D03*
X20921980Y8681720D03*
X20921980Y8181340D03*
X20921980Y7680960D03*
D21*
X22920960Y5681980D03*
X23421340Y5681980D03*
X23921720Y5681980D03*
X24422100Y5681980D03*
X24922480Y5681980D03*
X25420320Y5681980D03*
X25920700Y5681980D03*
X26421080Y5681980D03*
X26918920Y5681980D03*
X27419300Y5681980D03*
X27919680Y5681980D03*
X28420060Y5681980D03*
X28917900Y5681980D03*
X29418280Y5681980D03*
X29918660Y5681980D03*
X30419040Y5681980D03*
D22*
X40322500Y8686000D03*
X40322500Y7061500D03*
X43497500Y8686000D03*
X43497500Y7062000D03*
D23*
X40197500Y7874000D03*
X43622500Y7874000D03*
D22*
X40322500Y15798000D03*
X40322500Y14173500D03*
X43497500Y15798000D03*
X43497500Y14174000D03*
D23*
X40197500Y14986000D03*
X43622500Y14986000D03*
D24*
X47066200Y15240000D03*
D25*
X47066200Y12700000D03*
X47066200Y10160000D03*
X47066200Y7620000D03*
D26*
X35687000Y16002000D03*
X35687000Y14224000D03*
D27*
X11379200Y13233400D03*
X11379200Y10922000D03*
X11379200Y8610600D03*
D28*
X17577000Y10922000D03*
D29*
X37150000Y13659000D03*
X38100000Y13659000D03*
X39050000Y13659000D03*
X39050000Y16059000D03*
X37150000Y16059000D03*
D30*
X10344000Y15306000D03*
X10344000Y16256000D03*
X10344000Y17206000D03*
X7944000Y17206000D03*
X7944000Y15306000D03*
D31*
X44831000Y9017000D03*
X44831000Y7493000D03*
D12*
X18542000Y6553200D03*
X34798000Y15849600D03*
X14884400Y9753600D03*
X38608000Y11557000D03*
X41910000Y7620000D03*
X41910000Y8890000D03*
X41910000Y10160000D03*
X43180000Y10160000D03*
X41910000Y12700000D03*
X41910000Y11430000D03*
X28092400Y10160000D03*
X28397200Y13360400D03*
X52070000Y21590000D03*
X49530000Y21590000D03*
X46990000Y21590000D03*
X44450000Y21590000D03*
X41910000Y21590000D03*
X39370000Y21590000D03*
X36830000Y21590000D03*
X34290000Y21590000D03*
X31750000Y21590000D03*
X29210000Y21590000D03*
X26670000Y21590000D03*
X24130000Y21590000D03*
X21590000Y21590000D03*
X19050000Y21590000D03*
X16510000Y21590000D03*
X13970000Y21590000D03*
X11430000Y21590000D03*
X8890000Y21590000D03*
X6350000Y21590000D03*
X3810000Y21590000D03*
X1270000Y21590000D03*
X3810000Y20066000D03*
X6350000Y19050000D03*
X21590000Y19050000D03*
X24130000Y19050000D03*
X26670000Y19050000D03*
X29210000Y19050000D03*
X31750000Y19050000D03*
X44450000Y19050000D03*
X46990000Y19050000D03*
X44450000Y3810000D03*
X39370000Y3810000D03*
X31750000Y3810000D03*
X29210000Y3810000D03*
X26670000Y3810000D03*
X24130000Y3810000D03*
X21590000Y3810000D03*
X16510000Y3810000D03*
X11430000Y3810000D03*
X3810000Y3810000D03*
X52070000Y1270000D03*
X49530000Y1270000D03*
X46990000Y1270000D03*
X44450000Y1270000D03*
X41910000Y1270000D03*
X39370000Y1270000D03*
X36830000Y1270000D03*
X34290000Y1270000D03*
X31750000Y1270000D03*
X29210000Y1270000D03*
X26670000Y1270000D03*
X24130000Y1270000D03*
X21590000Y1270000D03*
X19050000Y1270000D03*
X16510000Y1270000D03*
X13970000Y1270000D03*
X11430000Y1270000D03*
X8890000Y1270000D03*
X6350000Y1270000D03*
X3810000Y1270000D03*
X1270000Y1270000D03*
D24*
X50800000Y3810000D03*
D25*
X48260000Y3810000D03*
X45720000Y3810000D03*
X43180000Y3810000D03*
X40640000Y3810000D03*
X38100000Y3810000D03*
X35560000Y3810000D03*
X33020000Y3810000D03*
X30480000Y3810000D03*
X27940000Y3810000D03*
X25400000Y3810000D03*
X22860000Y3810000D03*
X20320000Y3810000D03*
X17780000Y3810000D03*
X15240000Y3810000D03*
X12700000Y3810000D03*
X10160000Y3810000D03*
X7620000Y3810000D03*
X5080000Y3810000D03*
X2540000Y3810000D03*
D24*
X50800000Y19050000D03*
D25*
X48260000Y19050000D03*
X45720000Y19050000D03*
X43180000Y19050000D03*
X40640000Y19050000D03*
X38100000Y19050000D03*
X35560000Y19050000D03*
X33020000Y19050000D03*
X30480000Y19050000D03*
X27940000Y19050000D03*
X25400000Y19050000D03*
X22860000Y19050000D03*
X20320000Y19050000D03*
X17780000Y19050000D03*
X15240000Y19050000D03*
X12700000Y19050000D03*
X10160000Y19050000D03*
X7620000Y19050000D03*
X5080000Y19050000D03*
X2540000Y19050000D03*
D32*
X19494500Y5969000D03*
X18097500Y5969000D03*
X18097500Y7239000D03*
X19494500Y7239000D03*
D33*
X9525000Y7048500D03*
X9525000Y5651500D03*
X15621000Y7048500D03*
X15621000Y5651500D03*
D32*
X9588500Y13843000D03*
X8191500Y13843000D03*
X17970500Y15875000D03*
X19367500Y15875000D03*
X19494500Y17145000D03*
X18097500Y17145000D03*
D33*
X33909000Y16065500D03*
X33909000Y17462500D03*
X34417000Y13525500D03*
X34417000Y14922500D03*
D32*
X35115500Y17399000D03*
X36512500Y17399000D03*
X37401500Y10795000D03*
X38798500Y10795000D03*
X37401500Y9525000D03*
X38798500Y9525000D03*
X35242500Y5715000D03*
X33845500Y5715000D03*
X36131500Y6997700D03*
X37528500Y6997700D03*
X36131500Y8255000D03*
X37528500Y8255000D03*
X44005500Y5715000D03*
X45402500Y5715000D03*
X41846500Y17145000D03*
X40449500Y17145000D03*
D33*
X10795000Y5651500D03*
X10795000Y7048500D03*
D32*
X14160500Y17145000D03*
X15557500Y17145000D03*
D33*
X9525000Y8572500D03*
X9525000Y9969500D03*
X8255000Y9969500D03*
X8255000Y8572500D03*
D32*
X8191500Y11252200D03*
X9588500Y11252200D03*
X8191500Y12522200D03*
X9588500Y12522200D03*
X11620500Y17145000D03*
X13017500Y17145000D03*
D33*
X16764000Y17208500D03*
X16764000Y15811500D03*
D32*
X18351500Y14605000D03*
X16954500Y14605000D03*
X37782500Y5715000D03*
X36385500Y5715000D03*
X40322500Y5715000D03*
X38925500Y5715000D03*
X41465500Y5715000D03*
X42862500Y5715000D03*
X44386500Y17145000D03*
X42989500Y17145000D03*
D33*
X45085000Y11239500D03*
X45085000Y12636500D03*
X43815000Y11239500D03*
X43815000Y12636500D03*
D32*
X46901100Y17145000D03*
X45504100Y17145000D03*
D33*
X16891000Y7302500D03*
X16891000Y5905500D03*
X8128000Y5778500D03*
X8128000Y7175500D03*
D32*
X46545500Y5715000D03*
X47942500Y5715000D03*
D12*
X19456400Y9753600D03*
X17526000Y15849600D03*
X7315200Y12649200D03*
X10210800Y5486400D03*
X7569200Y14173200D03*
X7391400Y7924800D03*
X13970000Y19050000D03*
X11430000Y19050000D03*
X12192000Y14325600D03*
X11582400Y14325600D03*
X6705600Y13411200D03*
X6718300Y6426200D03*
X52273100Y19518800D03*
X37185500Y15404000D03*
X35306000Y7569200D03*
X35585400Y8407400D03*
X36728400Y13868400D03*
X5791200Y9296400D03*
X10515600Y14478000D03*
X41757600Y15393200D03*
X41757600Y14783600D03*
X39319200Y18593600D03*
X39471500Y19976000D03*
X39801800Y14224000D03*
X31089600Y10058400D03*
X12928600Y7772400D03*
X31242000Y8839200D03*
X31089600Y14020800D03*
X31089600Y14935200D03*
X32461200Y15697200D03*
X28346400Y16002000D03*
X27990800Y15316200D03*
X26212800Y15976600D03*
X25450800Y15849600D03*
X24358600Y16129000D03*
X23469600Y15849600D03*
X30632400Y7467600D03*
X29718000Y7467600D03*
X28041600Y7467600D03*
X27584400Y6858000D03*
X26974800Y7467600D03*
X26365200Y6858000D03*
X22352000Y7772400D03*
X23012400Y8229600D03*
X23164800Y8991600D03*
X8839100Y3491400D03*
X19659600Y13258800D03*
X15544800Y16307600D03*
X22707600Y9753600D03*
X22402800Y10515600D03*
X24536400Y10515600D03*
X24536400Y11277600D03*
X8534300Y4710600D03*
X15240000Y13716000D03*
X7175500Y5486400D03*
X16002000Y14478000D03*
X22402800Y6248400D03*
X22402800Y7010400D03*
X23926800Y8991600D03*
X24688800Y9144000D03*
X23774400Y8229600D03*
X24536400Y7924800D03*
X23063200Y7467600D03*
X12192000Y9753600D03*
X23622000Y6858000D03*
X31089600Y11277600D03*
X31089600Y12344400D03*
X31089600Y13258800D03*
X26822400Y15392400D03*
X31699200Y15849600D03*
X28956000Y15544800D03*
X24536400Y12039600D03*
X22402800Y12039600D03*
X37033200Y4876800D03*
X28956000Y7467600D03*
X16459200Y17627600D03*
X28041500Y10984400D03*
X51206300Y16521600D03*
X51206300Y11898800D03*
X51206300Y11289200D03*
X51206300Y17131200D03*
X32308800Y6858000D03*
X48768000Y5029200D03*
X28041500Y14184800D03*
D34*
X38608000Y11557000D02*
X38608000Y10985500D01*
X38608000Y10985500D02*
X38798500Y10795000D01*
X29918660Y5681980D02*
X29918660Y6475204D01*
X29918660Y6475204D02*
X30162128Y6718672D01*
D35*
X17970500Y15875000D02*
X17551400Y15875000D01*
X17551400Y15875000D02*
X17526000Y15849600D01*
X16764000Y15811500D02*
X17487900Y15811500D01*
X17487900Y15811500D02*
X17526000Y15849600D01*
X16954500Y14605000D02*
X16954500Y15621000D01*
X16954500Y15621000D02*
X16764000Y15811500D01*
X13017500Y17145000D02*
X13017500Y16852900D01*
X13017500Y16852900D02*
X13360400Y16510000D01*
X7569200Y14173200D02*
X7861300Y14173200D01*
X7861300Y14173200D02*
X8191500Y13843000D01*
X18097500Y5969000D02*
X18097500Y6108700D01*
X18097500Y6108700D02*
X18542000Y6553200D01*
X18097500Y7239000D02*
X18097500Y7785100D01*
X18097500Y7785100D02*
X18237200Y7924800D01*
D34*
X15621000Y7048500D02*
X15748000Y7048500D01*
X15748000Y7048500D02*
X16891000Y5905500D01*
D35*
X11379200Y10922000D02*
X11379200Y9906000D01*
D36*
X10210800Y5486400D02*
X10629100Y5486400D01*
X10629100Y5486400D02*
X10795000Y5652300D01*
D35*
X47091500Y3352700D02*
X45872400Y2133600D01*
X46710600Y5715000D02*
X47091500Y5334100D01*
X47091500Y5334100D02*
X47091500Y3352700D01*
X45872400Y2133600D02*
X34290000Y2133600D01*
X46545500Y5715000D02*
X46710600Y5715000D01*
X46545500Y5715000D02*
X46620500Y5715000D01*
X45402500Y5715000D02*
X46545500Y5715000D01*
X45872400Y8839200D02*
X45872400Y6184900D01*
X45872400Y6184900D02*
X45402500Y5715000D01*
D34*
X43497500Y8686000D02*
X44500000Y8686000D01*
X44500000Y8686000D02*
X44831000Y9017000D01*
D35*
X45872400Y8839200D02*
X45008800Y8839200D01*
X45008800Y8839200D02*
X44831000Y9017000D01*
X48310800Y10527228D02*
X48310800Y9601200D01*
X49530000Y11746428D02*
X48310800Y10527228D01*
X41757600Y20726400D02*
X48920400Y20726400D01*
X48920400Y20726400D02*
X49530000Y20116800D01*
X49530000Y20116800D02*
X49530000Y11746428D01*
X47548800Y8839200D02*
X45872400Y8839200D01*
X48310800Y9601200D02*
X47548800Y8839200D01*
D34*
X44386500Y17145000D02*
X44386500Y16878300D01*
X44386500Y16878300D02*
X45280580Y15984220D01*
X45280580Y15984220D02*
X45280580Y15656560D01*
X41757600Y20726400D02*
X41757600Y19050000D01*
X41757600Y19050000D02*
X42824400Y17983200D01*
X42824400Y17983200D02*
X43548300Y17983200D01*
X43548300Y17983200D02*
X44386500Y17145000D01*
D35*
X34289900Y20726400D02*
X41757600Y20726400D01*
X35115500Y17399000D02*
X35115500Y16573500D01*
X35115500Y16573500D02*
X35687000Y16002000D01*
X33909000Y17462500D02*
X35052000Y17462500D01*
X35052000Y17462500D02*
X35115500Y17399000D01*
X34289900Y20726400D02*
X34289900Y17843400D01*
X34289900Y17843400D02*
X33909000Y17462500D01*
X29717900Y16129100D02*
X30745682Y16129100D01*
D37*
X29418280Y16428720D02*
X29717900Y16129100D01*
X29418280Y17178020D02*
X29418280Y16428720D01*
D35*
X32079082Y17462500D02*
X33909000Y17462500D01*
X30745682Y16129100D02*
X32079082Y17462500D01*
X19050000Y20726400D02*
X34289900Y20726400D01*
X34290000Y2133600D02*
X19050000Y2133600D01*
X33845500Y5715000D02*
X33845500Y4864100D01*
X33845500Y4864100D02*
X34290000Y4419600D01*
X34290000Y4419600D02*
X34290000Y2133600D01*
D37*
X30419040Y5681980D02*
X30599380Y5681980D01*
D35*
X30632400Y5715000D02*
X33845500Y5715000D01*
D37*
X30599380Y5681980D02*
X30632400Y5715000D01*
X22920960Y17178020D02*
X22861580Y17178020D01*
X22861580Y17178020D02*
X22767600Y17272000D01*
D35*
X19621500Y17272000D02*
X22767600Y17272000D01*
X19621500Y17272000D02*
X19494500Y17145000D01*
X19050000Y20726400D02*
X19050000Y17589500D01*
X19050000Y17589500D02*
X19494500Y17145000D01*
X7620000Y19050000D02*
X7620000Y19659600D01*
X7620000Y19659600D02*
X8686800Y20726400D01*
X8686800Y20726400D02*
X19050000Y20726400D01*
X7620000Y19050000D02*
X7620000Y19507200D01*
X14020800Y4114800D02*
X14020800Y2590800D01*
X14020800Y2590800D02*
X14478000Y2133600D01*
X14478000Y2133600D02*
X19050000Y2133600D01*
X12308000Y5827600D02*
X14020800Y4114800D01*
X12308000Y6604000D02*
X12308000Y5827600D01*
X19494500Y5969000D02*
X19494500Y5626100D01*
X19494500Y5626100D02*
X19050000Y5181600D01*
X19050000Y5181600D02*
X19050000Y2133600D01*
X20269200Y7467600D02*
X20269200Y6553200D01*
D37*
X20269200Y7620000D02*
X20269200Y7467600D01*
X20330160Y7680960D02*
X20269200Y7620000D01*
D35*
X20269200Y6553200D02*
X19685000Y5969000D01*
X19685000Y5969000D02*
X19494500Y5969000D01*
D37*
X20921980Y7680960D02*
X20330160Y7680960D01*
D35*
X9525000Y8572500D02*
X11341100Y8572500D01*
X11341100Y8572500D02*
X11379200Y8610600D01*
X9525000Y7048500D02*
X9525000Y8572500D01*
X10795000Y7048500D02*
X9525000Y7048500D01*
X10795000Y7048500D02*
X11863500Y7048500D01*
X11863500Y7048500D02*
X12308000Y6604000D01*
D36*
X11582400Y14325600D02*
X12192000Y14325600D01*
D35*
X7944000Y15306000D02*
X7228800Y15306000D01*
X6705600Y14782800D02*
X6705600Y13411200D01*
X7228800Y15306000D02*
X6705600Y14782800D01*
X8128000Y5778500D02*
X7899400Y5778500D01*
X7899400Y5778500D02*
X7251700Y6426200D01*
X7251700Y6426200D02*
X6718300Y6426200D01*
D36*
X12192000Y14325600D02*
X12496800Y14325600D01*
X12496800Y14325600D02*
X13539000Y15367800D01*
X13539000Y15367800D02*
X15163800Y15367800D01*
D35*
X38100000Y13659000D02*
X38100000Y12776200D01*
X38100000Y12776200D02*
X37642800Y12319000D01*
X37642800Y12319000D02*
X37222500Y12319000D01*
X37222500Y12319000D02*
X37210900Y12330600D01*
X37210900Y12330600D02*
X37642800Y12319000D01*
D38*
X36271200Y13270400D02*
X36271200Y13270300D01*
X36271200Y13270300D02*
X37210900Y12330600D01*
D35*
X34672100Y13270400D02*
X36271200Y13270400D01*
X34672100Y13270400D02*
X34417000Y13525500D01*
D37*
X32418020Y13180060D02*
X34071560Y13180060D01*
X34071560Y13180060D02*
X34417000Y13525500D01*
D39*
X34416900Y13600600D02*
X34416900Y13448200D01*
D35*
X52273100Y19518800D02*
X52273100Y5283100D01*
X52273100Y5283100D02*
X50800000Y3810000D01*
X37150000Y16059000D02*
X37150000Y15439500D01*
X37150000Y15439500D02*
X37185500Y15404000D01*
X35687000Y14224000D02*
X36005500Y14224000D01*
X36005500Y14224000D02*
X37185500Y15404000D01*
X35687000Y14224000D02*
X35115500Y14224000D01*
X35115500Y14224000D02*
X34417000Y14922500D01*
D37*
X32418020Y13677900D02*
X33185100Y13677900D01*
X34124900Y14922500D02*
X34417000Y14922500D01*
X33528000Y14325600D02*
X34124900Y14922500D01*
X33528000Y14020800D02*
X33528000Y14325600D01*
X33185100Y13677900D02*
X33528000Y14020800D01*
D34*
X36131500Y6997700D02*
X35877500Y6997700D01*
X35877500Y6997700D02*
X35306000Y7569200D01*
X34417000Y6870700D02*
X34607500Y6870700D01*
X34607500Y6870700D02*
X35306000Y7569200D01*
X34124900Y6870700D02*
X34417000Y6870700D01*
X32418020Y8681720D02*
X33228280Y8681720D01*
X33375600Y7620000D02*
X34124900Y6870700D01*
X33375600Y8534400D02*
X33375600Y7620000D01*
X33228280Y8681720D02*
X33375600Y8534400D01*
X35585400Y8407400D02*
X34455100Y8407400D01*
X34455100Y8407400D02*
X34417000Y8369300D01*
X36131500Y8255000D02*
X35737800Y8255000D01*
X35737800Y8255000D02*
X35585400Y8407400D01*
X32418020Y9182100D02*
X33337500Y9182100D01*
X33337500Y9182100D02*
X34150300Y8369300D01*
X34150300Y8369300D02*
X34417000Y8369300D01*
X35737800Y8255000D02*
X35585400Y8407400D01*
X32418020Y9682480D02*
X34762480Y9682480D01*
X34762480Y9682480D02*
X35052000Y9972000D01*
X35052000Y9972000D02*
X36954500Y9972000D01*
X36954500Y9972000D02*
X37401500Y9525000D01*
X35052000Y11872000D02*
X35829200Y11872000D01*
X35829200Y11872000D02*
X36576000Y11125200D01*
X36576000Y11125200D02*
X37071300Y11125200D01*
X37071300Y11125200D02*
X37401500Y10795000D01*
X37401500Y10795000D02*
X37363400Y10795000D01*
X35052000Y11872000D02*
X34427200Y11872000D01*
X34427200Y11872000D02*
X33375600Y10820400D01*
X33192720Y10180320D02*
X33375600Y10363200D01*
X33375600Y10363200D02*
X33375600Y10820400D01*
X32418020Y10180320D02*
X33192720Y10180320D01*
D35*
X36728400Y13868400D02*
X36937800Y13659000D01*
X8128000Y7175500D02*
X6692900Y7175500D01*
X6692900Y7175500D02*
X5791200Y8077200D01*
X5791200Y9296400D02*
X5791200Y8077200D01*
X10515600Y14478000D02*
X10515600Y13868400D01*
X9588500Y13843000D02*
X10541000Y13843000D01*
X10541000Y13843000D02*
X10515600Y13868400D01*
X11379200Y13233400D02*
X11150600Y13233400D01*
X11150600Y13233400D02*
X10515600Y13868400D01*
X41757600Y14783600D02*
X41757600Y15393200D01*
X39319200Y13411200D02*
X40843200Y13411200D01*
X40843200Y13411200D02*
X41757600Y14325600D01*
X41757600Y15393200D02*
X41757600Y14325600D01*
X37959200Y16623200D02*
X39319200Y17983200D01*
X39319200Y17983200D02*
X39319200Y18593600D01*
X37947500Y14692800D02*
X37947500Y16623200D01*
X37947500Y16623200D02*
X37959200Y16623200D01*
X37947500Y14692800D02*
X38647200Y14692800D01*
X38647200Y14692800D02*
X39050000Y14290000D01*
X39050000Y14290000D02*
X39050000Y13659000D01*
X39050000Y13659000D02*
X39071400Y13659000D01*
X39071400Y13659000D02*
X39319200Y13411200D01*
X37150000Y13659000D02*
X37150000Y14442400D01*
X37400400Y14692800D02*
X37947500Y14692800D01*
X37150000Y14442400D02*
X37400400Y14692800D01*
X37150000Y13659000D02*
X36937800Y13659000D01*
D34*
X19367500Y15875000D02*
X19532600Y15875000D01*
X19532600Y15875000D02*
X20472398Y16814798D01*
X20472398Y16814798D02*
X22173386Y16814798D01*
X22173386Y16814798D02*
X22681384Y16306800D01*
X22681384Y16306800D02*
X23164800Y16306800D01*
X23164800Y16306800D02*
X23421340Y16563340D01*
X23421340Y16563340D02*
X23421340Y17178020D01*
X20921980Y8181340D02*
X20220940Y8181340D01*
X20220940Y8181340D02*
X19494500Y7454900D01*
X19494500Y7454900D02*
X19494500Y7239000D01*
X39852300Y14173500D02*
X39801800Y14224000D01*
X40322500Y14173500D02*
X39852300Y14173500D01*
X31711900Y10680700D02*
X32418020Y10680700D01*
X31711900Y10680700D02*
X31089600Y10058400D01*
X40322500Y14173500D02*
X40691100Y14173500D01*
X40995600Y16598900D02*
X40449500Y17145000D01*
X40995600Y14478000D02*
X40995600Y16598900D01*
X40691100Y14173500D02*
X40995600Y14478000D01*
D35*
X13106400Y7772400D02*
X12928600Y7772400D01*
X13258800Y7620000D02*
X13106400Y7772400D01*
X14020800Y7620000D02*
X13258800Y7620000D01*
X14108000Y7532800D02*
X14020800Y7620000D01*
X14108000Y6604000D02*
X14108000Y7532800D01*
X15621000Y5651500D02*
X15532100Y5651500D01*
X15684500Y5651500D02*
X15240000Y6096000D01*
X15240000Y6096000D02*
X14920800Y6096000D01*
X14920800Y6096000D02*
X14412800Y6604000D01*
D34*
X44831000Y7493000D02*
X44831000Y7035800D01*
X44831000Y7035800D02*
X44196000Y6400800D01*
X44196000Y6400800D02*
X43129200Y6400800D01*
X43129200Y6400800D02*
X42862500Y6134100D01*
X42862500Y6134100D02*
X42862500Y5715000D01*
X45280580Y14061440D02*
X45280580Y12832080D01*
X45280580Y12832080D02*
X45085000Y12636500D01*
X43815000Y12636500D02*
X43815000Y13182600D01*
X43815000Y13182600D02*
X44381420Y13749020D01*
X44381420Y13749020D02*
X44381420Y14061440D01*
X45872400Y15240000D02*
X45872400Y16611600D01*
X45567600Y14935200D02*
X45872400Y15240000D01*
X44958000Y14935200D02*
X45567600Y14935200D01*
X44381420Y15511780D02*
X44958000Y14935200D01*
X45872400Y16611600D02*
X45504100Y16979900D01*
X45504100Y16979900D02*
X45504100Y17145000D01*
X44381420Y15656560D02*
X44381420Y15511780D01*
X14160500Y17145000D02*
X14160500Y16141700D01*
X12776200Y15367000D02*
X12014200Y15367000D01*
X13258800Y15849600D02*
X12776200Y15367000D01*
X13868400Y15849600D02*
X13258800Y15849600D01*
X14160500Y16141700D02*
X13868400Y15849600D01*
D35*
X10344000Y15306000D02*
X11953200Y15306000D01*
X11953200Y15306000D02*
X12014200Y15367000D01*
X5834380Y12727940D02*
X5834380Y12758420D01*
X5834380Y12758420D02*
X5638800Y12954000D01*
X5638800Y12954000D02*
X5638800Y14630400D01*
X5638800Y14630400D02*
X7010400Y16002000D01*
X7010400Y16002000D02*
X8991600Y16002000D01*
X8991600Y16002000D02*
X9687600Y15306000D01*
X9687600Y15306000D02*
X10344000Y15306000D01*
D34*
X31242000Y8534400D02*
X31242000Y8839200D01*
X31595060Y8181340D02*
X31242000Y8534400D01*
X32418020Y8181340D02*
X31595060Y8181340D01*
X45085000Y11239500D02*
X48376490Y11239500D01*
X49072798Y18237202D02*
X48260000Y19050000D01*
X49072798Y11935808D02*
X49072798Y18237202D01*
X48376490Y11239500D02*
X49072798Y11935808D01*
X31247080Y14178280D02*
X31089600Y14020800D01*
X32418020Y14178280D02*
X31247080Y14178280D01*
X31346140Y14678660D02*
X32418020Y14678660D01*
X31346140Y14678660D02*
X31089600Y14935200D01*
X32418020Y15654020D02*
X32461200Y15697200D01*
X32418020Y15179040D02*
X32418020Y15654020D01*
X31150000Y17180000D02*
X33020000Y19050000D01*
X30420000Y17180000D02*
X31150000Y17180000D01*
X28917900Y17178020D02*
X28917900Y17792700D01*
X28917900Y17792700D02*
X30175200Y19050000D01*
X30175200Y19050000D02*
X30480000Y19050000D01*
X28420060Y17178020D02*
X28420060Y18569940D01*
X28420060Y18569940D02*
X27940000Y19050000D01*
X27919680Y16428720D02*
X28346400Y16002000D01*
X27919680Y16428720D02*
X27919680Y17178020D01*
X27990800Y15316200D02*
X27965402Y15316200D01*
X27736802Y15544800D02*
X27736802Y16001998D01*
X27965402Y15316200D02*
X27736802Y15544800D01*
X27736802Y16001998D02*
X27736800Y16002000D01*
X27419300Y17178020D02*
X27419300Y16471900D01*
X27584400Y16154400D02*
X27736800Y16002000D01*
X27736800Y16002000D02*
X27736802Y16001998D01*
X27584400Y16306800D02*
X27584400Y16154400D01*
X27419300Y16471900D02*
X27584400Y16306800D01*
X25920700Y16268700D02*
X26212800Y15976600D01*
X25920700Y16268700D02*
X25920700Y17178020D01*
X25420320Y15880080D02*
X25450800Y15849600D01*
X25420320Y17178020D02*
X25420320Y15880080D01*
X24422100Y17178020D02*
X24422100Y16192500D01*
X24422100Y16192500D02*
X24358600Y16129000D01*
X23921720Y17178020D02*
X23921720Y16454120D01*
X23469600Y16002000D02*
X23469600Y15849600D01*
X23921720Y16454120D02*
X23469600Y16002000D01*
X30632400Y7467600D02*
X30480000Y7467600D01*
X29418280Y6558208D02*
X29565672Y6705600D01*
X29565672Y6705600D02*
X29718000Y6705600D01*
X29418280Y5681980D02*
X29418280Y6558208D01*
X30480000Y7467600D02*
X29718000Y6705600D01*
X28917900Y6488884D02*
X29413200Y6984184D01*
X29413200Y6984184D02*
X29413200Y7162800D01*
X29413200Y7162800D02*
X29718000Y7467600D01*
X28917900Y5681980D02*
X28917900Y6488884D01*
X40322500Y5715000D02*
X40322500Y4127500D01*
X40322500Y4127500D02*
X40640000Y3810000D01*
X27919680Y5681980D02*
X27919680Y6431280D01*
X28041600Y7315200D02*
X28041600Y7467600D01*
X28346400Y7010400D02*
X28041600Y7315200D01*
X28346400Y6858000D02*
X28346400Y7010400D01*
X27919680Y6431280D02*
X28346400Y6858000D01*
X27419300Y5681980D02*
X27419300Y6692900D01*
X27419300Y6692900D02*
X27584400Y6858000D01*
X26918920Y6649720D02*
X26974800Y6705600D01*
X26974800Y6705600D02*
X26974800Y7467600D01*
X26918920Y5681980D02*
X26918920Y6649720D01*
X26924000Y5684000D02*
X26920000Y5680000D01*
X26421080Y5681980D02*
X26421080Y6802120D01*
X26421080Y6802120D02*
X26365200Y6858000D01*
X25920700Y5681980D02*
X25920700Y5016500D01*
X27025600Y4724400D02*
X27940000Y3810000D01*
X26212800Y4724400D02*
X27025600Y4724400D01*
X25920700Y5016500D02*
X26212800Y4724400D01*
X23421340Y5681980D02*
X23421340Y5077460D01*
X24485600Y4724400D02*
X25400000Y3810000D01*
X23774400Y4724400D02*
X24485600Y4724400D01*
X23421340Y5077460D02*
X23774400Y4724400D01*
X21602700Y9182100D02*
X22352000Y8432800D01*
X22352000Y8432800D02*
X22352000Y7772400D01*
X20921980Y9182100D02*
X21602700Y9182100D01*
X9588500Y11252200D02*
X9588500Y11264898D01*
X9588500Y11264898D02*
X10210800Y11887198D01*
X20269200Y9296400D02*
X20807680Y9296400D01*
X19507198Y8534398D02*
X20269200Y9296400D01*
X14656546Y8534398D02*
X19507198Y8534398D01*
X13563598Y9627346D02*
X14656546Y8534398D01*
X13563598Y10998946D02*
X13563598Y9627346D01*
X12675346Y11887198D02*
X13563598Y10998946D01*
X10210800Y11887198D02*
X12675346Y11887198D01*
X20807680Y9296400D02*
X20921980Y9182100D01*
X9525000Y9969500D02*
X9525000Y11188700D01*
X9525000Y11188700D02*
X9588500Y11252200D01*
X22860000Y8382000D02*
X22707600Y8382000D01*
X21559520Y9682480D02*
X22707600Y8534400D01*
X22707600Y8534400D02*
X22707600Y8382000D01*
X21559520Y9682480D02*
X20921980Y9682480D01*
X22860000Y8382000D02*
X23012400Y8229600D01*
X20921980Y9682480D02*
X20224224Y9682480D01*
X20224224Y9682480D02*
X19380944Y8839200D01*
X10058400Y12192000D02*
X9728200Y12522200D01*
X10058400Y12192000D02*
X12801600Y12192000D01*
X12801600Y12192000D02*
X13868400Y11125200D01*
X13868400Y11125200D02*
X13868400Y9753600D01*
X13868400Y9753600D02*
X14782800Y8839200D01*
X14782800Y8839200D02*
X19380944Y8839200D01*
X9588500Y12522200D02*
X9728200Y12522200D01*
X22707812Y8991600D02*
X23164800Y8991600D01*
X21519092Y10180320D02*
X22707812Y8991600D01*
X8839100Y4114700D02*
X8839100Y3491400D01*
X9144000Y4419600D02*
X8839100Y4114700D01*
X9144000Y4876800D02*
X9144000Y4419600D01*
X8839200Y5181600D02*
X9144000Y4876800D01*
X8839200Y7924800D02*
X8839200Y5181600D01*
X8255000Y8509000D02*
X8839200Y7924800D01*
X20921980Y10180320D02*
X21519092Y10180320D01*
X8255000Y8572500D02*
X8255000Y8509000D01*
X15557500Y16320300D02*
X15544800Y16307600D01*
X20921980Y10680700D02*
X20256500Y10680700D01*
X19964400Y12954000D02*
X19659600Y13258800D01*
X19964400Y10972800D02*
X19964400Y12954000D01*
X20256500Y10680700D02*
X19964400Y10972800D01*
X15557500Y16320300D02*
X15557500Y17145000D01*
X21793200Y10594032D02*
X21793200Y10337268D01*
X21706532Y10680700D02*
X21793200Y10594032D01*
X21706532Y10680700D02*
X20921980Y10680700D01*
X22376868Y9753600D02*
X22707600Y9753600D01*
X21793200Y10337268D02*
X22376868Y9753600D01*
X21637208Y11181080D02*
X20921980Y11181080D01*
X22302688Y10515600D02*
X22402800Y10515600D01*
X21637208Y11181080D02*
X22302688Y10515600D01*
X20921980Y13677900D02*
X22009844Y13677900D01*
X24384000Y10515600D02*
X24536400Y10515600D01*
X24079200Y10820400D02*
X24384000Y10515600D01*
X24079200Y10946300D02*
X24079200Y10820400D01*
X23469352Y11556148D02*
X24079200Y10946300D01*
X23469352Y12218392D02*
X23469352Y11556148D01*
X22009844Y13677900D02*
X23469352Y12218392D01*
X23774400Y11682156D02*
X23774400Y12344400D01*
X24178956Y11277600D02*
X24536400Y11277600D01*
X23774400Y11682156D02*
X24178956Y11277600D01*
X20921980Y14178280D02*
X21940520Y14178280D01*
X21940520Y14178280D02*
X23774400Y12344400D01*
X20921980Y14678660D02*
X20189718Y14678660D01*
X8534300Y4724500D02*
X8382000Y4876800D01*
X8382000Y4876800D02*
X6146800Y4876800D01*
X6146800Y4876800D02*
X5080000Y3810000D01*
X8534300Y4710600D02*
X8534300Y4724500D01*
X15392402Y13563598D02*
X15240000Y13716000D01*
X19074656Y13563598D02*
X15392402Y13563598D01*
X20189718Y14678660D02*
X19074656Y13563598D01*
X2540000Y3810000D02*
X4216400Y5486400D01*
X7175500Y5486400D02*
X4216400Y5486400D01*
X16002000Y14478000D02*
X16002000Y14325600D01*
X16002000Y14325600D02*
X16459200Y13868400D01*
X20259042Y15179040D02*
X20921980Y15179040D01*
X18948402Y13868400D02*
X20259042Y15179040D01*
X16459200Y13868400D02*
X18948402Y13868400D01*
X22860000Y6248400D02*
X22402800Y6248400D01*
X47066200Y12700000D02*
X48056796Y12700000D01*
X48082200Y17145000D02*
X46901100Y17145000D01*
X48767996Y16459204D02*
X48082200Y17145000D01*
X48767996Y13411200D02*
X48767996Y16459204D01*
X48056796Y12700000D02*
X48767996Y13411200D01*
X22920960Y5681980D02*
X22920960Y6187440D01*
X22920960Y6187440D02*
X22860000Y6248400D01*
X21793200Y8534400D02*
X21793200Y7315200D01*
X21645880Y8681720D02*
X21793200Y8534400D01*
X20921980Y8681720D02*
X21645880Y8681720D01*
X22098000Y7010400D02*
X22402800Y7010400D01*
X21793200Y7315200D02*
X22098000Y7010400D01*
X47066200Y10160000D02*
X47066200Y10236200D01*
X47066200Y10236200D02*
X46786800Y10515600D01*
X46786800Y10515600D02*
X44538900Y10515600D01*
X44538900Y10515600D02*
X43815000Y11239500D01*
X20921980Y11678920D02*
X21570424Y11678920D01*
X23926800Y9322544D02*
X23926800Y8991600D01*
X23164618Y10084726D02*
X23926800Y9322544D01*
X23164618Y10567714D02*
X23164618Y10084726D01*
X22607134Y11125198D02*
X23164618Y10567714D01*
X22124146Y11125198D02*
X22607134Y11125198D01*
X21570424Y11678920D02*
X22124146Y11125198D01*
X24079202Y9601198D02*
X24231602Y9601198D01*
X22250400Y11430000D02*
X21501100Y12179300D01*
X22250400Y11430000D02*
X22733388Y11430000D01*
X22733388Y11430000D02*
X23469420Y10693968D01*
X23469420Y10693968D02*
X23469420Y10210980D01*
X23469420Y10210980D02*
X24079202Y9601198D01*
X24231602Y9601198D02*
X24688800Y9144000D01*
X20921980Y12179300D02*
X21501100Y12179300D01*
X24922480Y5681980D02*
X24922480Y6776792D01*
X23774400Y7924872D02*
X23774400Y8229600D01*
X24922480Y6776792D02*
X23774400Y7924872D01*
X25420320Y6710008D02*
X24536400Y7593928D01*
X24536400Y7593928D02*
X24536400Y7924800D01*
X25420320Y6710008D02*
X25420320Y5681980D01*
X24422100Y6846116D02*
X23800616Y7467600D01*
X23800616Y7467600D02*
X23063200Y7467600D01*
X24422100Y5681980D02*
X24422100Y6846116D01*
X16421100Y7772400D02*
X16891000Y7302500D01*
X12192000Y9753600D02*
X12649200Y9753600D01*
X14325598Y8077202D02*
X14630400Y7772400D01*
X13563600Y8077202D02*
X14325598Y8077202D01*
X12954000Y8686802D02*
X13563600Y8077202D01*
X12954000Y9448800D02*
X12954000Y8686802D01*
X12649200Y9753600D02*
X12954000Y9448800D01*
X14630400Y7772400D02*
X16421100Y7772400D01*
X23921720Y6558280D02*
X23622000Y6858000D01*
X23921720Y6558280D02*
X23921720Y5681980D01*
X5834380Y12077700D02*
X6362702Y12077700D01*
X7556502Y11887202D02*
X8191500Y12522200D01*
X6553200Y11887202D02*
X7556502Y11887202D01*
X6362702Y12077700D02*
X6553200Y11887202D01*
X5834380Y11430000D02*
X6400800Y11430000D01*
X6400800Y11430000D02*
X6553200Y11582400D01*
X6553200Y11582400D02*
X7861300Y11582400D01*
X7861300Y11582400D02*
X8191500Y11252200D01*
X5834380Y10782300D02*
X7200900Y10782300D01*
X7200900Y10782300D02*
X8013700Y9969500D01*
X8013700Y9969500D02*
X8255000Y9969500D01*
X32418020Y11678920D02*
X31490920Y11678920D01*
X31490920Y11678920D02*
X31089600Y11277600D01*
X32418020Y12179300D02*
X31254700Y12179300D01*
X31254700Y12179300D02*
X31089600Y12344400D01*
X32418020Y12679680D02*
X31668720Y12679680D01*
X31668720Y12679680D02*
X31089600Y13258800D01*
X26421080Y16555720D02*
X26822400Y16154400D01*
X26822400Y16154400D02*
X26822400Y15392400D01*
X26421080Y17178020D02*
X26421080Y16555720D01*
X23774222Y10363378D02*
X24231600Y9906000D01*
X24688800Y9906000D02*
X25146000Y10363200D01*
X25146000Y10363200D02*
X25146000Y11734750D01*
X25146000Y11734750D02*
X25298400Y11887150D01*
X25298400Y11887150D02*
X28346422Y11887150D01*
X28346422Y11887150D02*
X29260802Y12801530D01*
X29260802Y12801530D02*
X29260802Y15087602D01*
X29260802Y15087602D02*
X29718000Y15544800D01*
X29718000Y15544800D02*
X30937200Y15544800D01*
X30937200Y15544800D02*
X31242000Y15849600D01*
X23774222Y10363378D02*
X23774222Y10820222D01*
X31242000Y15849600D02*
X31699200Y15849600D01*
X24231600Y9906000D02*
X24688800Y9906000D01*
X22076628Y13180060D02*
X23164550Y12092138D01*
X23164550Y12092138D02*
X23164550Y11429894D01*
X23164550Y11429894D02*
X23774222Y10820222D01*
X22076628Y13180060D02*
X20921980Y13180060D01*
X20921980Y12679680D02*
X21762720Y12679680D01*
X28956000Y12927784D02*
X28220168Y12191952D01*
X28220168Y12191952D02*
X24688752Y12191952D01*
X24688752Y12191952D02*
X24536400Y12039600D01*
X28956000Y15544800D02*
X28956000Y12927784D01*
X21762720Y12679680D02*
X22402800Y12039600D01*
X24922480Y17178020D02*
X24922480Y15930880D01*
X19253946Y14605000D02*
X20027528Y15378582D01*
X20027528Y15378582D02*
X20027528Y15938872D01*
X20027528Y15938872D02*
X20598652Y16509996D01*
X20598652Y16509996D02*
X22047132Y16509996D01*
X22047132Y16509996D02*
X23317128Y15240000D01*
X19253946Y14605000D02*
X18351500Y14605000D01*
X24231600Y15240000D02*
X23317128Y15240000D01*
X24922480Y15930880D02*
X24231600Y15240000D01*
X28420060Y6474460D02*
X28956000Y7010400D01*
X28956000Y7010400D02*
X28956000Y7467600D01*
X28420060Y5681980D02*
X28420060Y6474460D01*
X37033200Y4965700D02*
X37782500Y5715000D01*
X37033200Y4876800D02*
X37033200Y4965700D01*
X38925500Y5715000D02*
X38976000Y5715000D01*
X38976000Y5715000D02*
X40322500Y7061500D01*
X37782500Y5715000D02*
X38925500Y5715000D01*
X42989500Y17145000D02*
X42989500Y16306000D01*
X42989500Y16306000D02*
X43497500Y15798000D01*
X32418020Y11181080D02*
X31755080Y11181080D01*
X31755080Y11181080D02*
X31242000Y10668000D01*
X31242000Y10668000D02*
X28357900Y10668000D01*
X28357900Y10668000D02*
X28041500Y10984400D01*
X16764000Y17208500D02*
X16764000Y17283500D01*
X16764000Y17283500D02*
X16459200Y17627600D01*
X16459200Y17627600D02*
X16764000Y17208500D01*
X16459200Y17627600D02*
X16396900Y17627600D01*
X16396900Y17627600D02*
X16002000Y17983200D01*
X8721200Y17983200D02*
X7944000Y17206000D01*
X16002000Y17983200D02*
X8721200Y17983200D01*
X10344000Y17206000D02*
X11559500Y17206000D01*
X11559500Y17206000D02*
X11620500Y17145000D01*
D35*
X51206300Y16521600D02*
X51206300Y17131200D01*
X51206300Y11289200D02*
X51206300Y11898800D01*
X51206300Y11289200D02*
X47537100Y7620000D01*
X51206300Y17131200D02*
X51206300Y11289200D01*
X47066200Y7620000D02*
X47537100Y7620000D01*
X47942500Y5715000D02*
X47625000Y5715000D01*
X47625000Y5715000D02*
X47396400Y5943600D01*
X47396400Y5943600D02*
X47396400Y7442200D01*
X47396400Y7289800D02*
X47066200Y7620000D01*
D34*
X48927309Y4869891D02*
X48768000Y5029200D01*
X32418020Y6967220D02*
X32308800Y6858000D01*
X32418020Y7680960D02*
X32418020Y6967220D01*
X51815898Y18034102D02*
X50800000Y19050000D01*
X51815898Y5472480D02*
X51815898Y18034102D01*
X51213309Y4869891D02*
X51815898Y5472480D01*
X51213309Y4869891D02*
X48927309Y4869891D01*
X26918920Y16488936D02*
X27127202Y16280654D01*
X27127202Y16280654D02*
X27127202Y16001998D01*
X27127202Y16001998D02*
X27432000Y15697200D01*
X27432000Y15697200D02*
X27432000Y15087600D01*
X27432000Y15087600D02*
X28041500Y14478100D01*
X28041500Y14478100D02*
X28041500Y14184800D01*
X26918920Y17178020D02*
X26918920Y16488936D01*
D40*
G36*
X53036550Y303450D02*
X303450Y303450D01*
X303450Y6327167D01*
X328866Y6233899D01*
X535677Y5888671D01*
X858859Y5648865D01*
X1249210Y5550990D01*
X1699210Y5550990D01*
X1699210Y6530290D01*
X1800910Y6530290D01*
X1800910Y5550990D01*
X2250910Y5550990D01*
X2641261Y5648865D01*
X2964443Y5888671D01*
X3171254Y6233899D01*
X3208332Y6369962D01*
X3146308Y6530290D01*
X1800910Y6530290D01*
X1699210Y6530290D01*
X1679210Y6530290D01*
X1679210Y6631990D01*
X1699210Y6631990D01*
X1699210Y6651990D01*
X1800910Y6651990D01*
X1800910Y6631990D01*
X3146308Y6631990D01*
X3208332Y6792318D01*
X3171254Y6928381D01*
X2964443Y7273609D01*
X2906572Y7316550D01*
X3893008Y7316550D01*
X3835137Y7273609D01*
X3628326Y6928381D01*
X3591248Y6792318D01*
X3653272Y6631990D01*
X4998670Y6631990D01*
X4998670Y6651990D01*
X5100370Y6651990D01*
X5100370Y6631990D01*
X5120370Y6631990D01*
X5120370Y6530290D01*
X5100370Y6530290D01*
X5100370Y6510290D01*
X4998670Y6510290D01*
X4998670Y6530290D01*
X3653272Y6530290D01*
X3591248Y6369962D01*
X3628326Y6233899D01*
X3835137Y5888671D01*
X4046133Y5732109D01*
X4000909Y5701891D01*
X2993331Y4694313D01*
X2737897Y4800378D01*
X2343832Y4800722D01*
X1979632Y4650237D01*
X1700742Y4371834D01*
X1549622Y4007897D01*
X1549278Y3613832D01*
X1699763Y3249632D01*
X1978166Y2970742D01*
X2342103Y2819622D01*
X2736168Y2819278D01*
X3100368Y2969763D01*
X3379258Y3248166D01*
X3530378Y3612103D01*
X3530722Y4006168D01*
X3424420Y4263438D01*
X4342632Y5181650D01*
X6726105Y5181650D01*
X6726205Y5181550D01*
X6146800Y5181550D01*
X6030177Y5158352D01*
X5955053Y5108156D01*
X5931309Y5092291D01*
X5533331Y4694313D01*
X5277897Y4800378D01*
X4883832Y4800722D01*
X4519632Y4650237D01*
X4240742Y4371834D01*
X4089622Y4007897D01*
X4089278Y3613832D01*
X4239763Y3249632D01*
X4518166Y2970742D01*
X4882103Y2819622D01*
X5276168Y2819278D01*
X5640368Y2969763D01*
X5919258Y3248166D01*
X6070378Y3612103D01*
X6070722Y4006168D01*
X5964420Y4263438D01*
X6273032Y4572050D01*
X6981308Y4572050D01*
X6780742Y4371834D01*
X6629622Y4007897D01*
X6629278Y3613832D01*
X6779763Y3249632D01*
X7058166Y2970742D01*
X7422103Y2819622D01*
X7816168Y2819278D01*
X8180368Y2969763D01*
X8393663Y3182685D01*
X8536587Y3039511D01*
X8732545Y2958143D01*
X8944724Y2957958D01*
X9140824Y3038984D01*
X9290989Y3188887D01*
X9317992Y3253918D01*
X9319763Y3249632D01*
X9598166Y2970742D01*
X9962103Y2819622D01*
X10356168Y2819278D01*
X10720368Y2969763D01*
X10999258Y3248166D01*
X11150378Y3612103D01*
X11150722Y4006168D01*
X11000237Y4370368D01*
X10721834Y4649258D01*
X10357897Y4800378D01*
X9963832Y4800722D01*
X9599632Y4650237D01*
X9448750Y4499618D01*
X9448750Y4876800D01*
X9428727Y4977464D01*
X9474150Y5022887D01*
X9474150Y5600650D01*
X9575850Y5600650D01*
X9575850Y5022887D01*
X9658387Y4940350D01*
X10035171Y4940350D01*
X10156515Y4990612D01*
X10160000Y4994097D01*
X10163485Y4990612D01*
X10284829Y4940350D01*
X10661613Y4940350D01*
X10744150Y5022887D01*
X10744150Y5600650D01*
X10845850Y5600650D01*
X10845850Y5022887D01*
X10928387Y4940350D01*
X11305171Y4940350D01*
X11426515Y4990612D01*
X11519388Y5083485D01*
X11569650Y5204829D01*
X11569650Y5518113D01*
X11487113Y5600650D01*
X10845850Y5600650D01*
X10744150Y5600650D01*
X9575850Y5600650D01*
X9474150Y5600650D01*
X9454150Y5600650D01*
X9454150Y5702350D01*
X9474150Y5702350D01*
X9474150Y6280113D01*
X9575850Y6280113D01*
X9575850Y5702350D01*
X10744150Y5702350D01*
X10744150Y6280113D01*
X10661613Y6362650D01*
X10284829Y6362650D01*
X10163485Y6312388D01*
X10160000Y6308903D01*
X10156515Y6312388D01*
X10035171Y6362650D01*
X9658387Y6362650D01*
X9575850Y6280113D01*
X9474150Y6280113D01*
X9391613Y6362650D01*
X9143950Y6362650D01*
X9143950Y6434473D01*
X9969500Y6434473D01*
X10054195Y6450410D01*
X10131983Y6500464D01*
X10160005Y6541475D01*
X10183464Y6505017D01*
X10259839Y6452832D01*
X10350500Y6434473D01*
X11239500Y6434473D01*
X11324195Y6450410D01*
X11401983Y6500464D01*
X11454168Y6576839D01*
X11457107Y6591350D01*
X11499973Y6591350D01*
X11499973Y6238930D01*
X11426515Y6312388D01*
X11305171Y6362650D01*
X10928387Y6362650D01*
X10845850Y6280113D01*
X10845850Y5702350D01*
X11487113Y5702350D01*
X11550427Y5765664D01*
X11565964Y5741517D01*
X11642339Y5689332D01*
X11733000Y5670973D01*
X11882005Y5670973D01*
X11885648Y5652656D01*
X11984746Y5504346D01*
X12688531Y4800561D01*
X12503832Y4800722D01*
X12139632Y4650237D01*
X11860742Y4371834D01*
X11709622Y4007897D01*
X11709278Y3613832D01*
X11859763Y3249632D01*
X12138166Y2970742D01*
X12502103Y2819622D01*
X12896168Y2819278D01*
X13260368Y2969763D01*
X13539258Y3248166D01*
X13563650Y3306908D01*
X13563650Y2590800D01*
X13598448Y2415856D01*
X13697546Y2267546D01*
X14154746Y1810346D01*
X14303056Y1711248D01*
X14478000Y1676450D01*
X45872400Y1676450D01*
X46047344Y1711248D01*
X46195654Y1810346D01*
X47414754Y3029446D01*
X47425746Y3045898D01*
X47567810Y3045898D01*
X47647296Y2880174D01*
X48049764Y2716481D01*
X48484240Y2719266D01*
X48872704Y2880174D01*
X48952190Y3045898D01*
X48260000Y3738087D01*
X47567810Y3045898D01*
X47425746Y3045898D01*
X47479161Y3125838D01*
X47495898Y3117810D01*
X48188087Y3810000D01*
X48173945Y3824142D01*
X48245858Y3896055D01*
X48260000Y3881913D01*
X48274142Y3896055D01*
X48346055Y3824142D01*
X48331913Y3810000D01*
X49024102Y3117810D01*
X49189826Y3197296D01*
X49353519Y3599764D01*
X49350734Y4034240D01*
X49189826Y4422704D01*
X49024104Y4502189D01*
X49082299Y4560384D01*
X49077542Y4565141D01*
X49804973Y4565141D01*
X49804973Y3048000D01*
X49820910Y2963305D01*
X49870964Y2885517D01*
X49947339Y2833332D01*
X50038000Y2814973D01*
X51562000Y2814973D01*
X51646695Y2830910D01*
X51724483Y2880964D01*
X51776668Y2957339D01*
X51795027Y3048000D01*
X51795027Y4158519D01*
X52596354Y4959846D01*
X52695452Y5108156D01*
X52730250Y5283100D01*
X52730250Y19228957D01*
X52806357Y19412245D01*
X52806542Y19624424D01*
X52725516Y19820524D01*
X52575613Y19970689D01*
X52379655Y20052057D01*
X52167476Y20052242D01*
X51971376Y19971216D01*
X51821211Y19821313D01*
X51795027Y19758254D01*
X51795027Y19812000D01*
X51779090Y19896695D01*
X51729036Y19974483D01*
X51652661Y20026668D01*
X51562000Y20045027D01*
X50038000Y20045027D01*
X49987150Y20035459D01*
X49987150Y20116800D01*
X49952352Y20291744D01*
X49853254Y20440054D01*
X49243654Y21049654D01*
X49095344Y21148752D01*
X48920400Y21183550D01*
X8686800Y21183550D01*
X8511856Y21148752D01*
X8363546Y21049654D01*
X7305875Y19991983D01*
X7059632Y19890237D01*
X6780742Y19611834D01*
X6629622Y19247897D01*
X6629278Y18853832D01*
X6779763Y18489632D01*
X7058166Y18210742D01*
X7422103Y18059622D01*
X7816168Y18059278D01*
X8180368Y18209763D01*
X8459258Y18488166D01*
X8610378Y18852103D01*
X8610722Y19246168D01*
X8460237Y19610368D01*
X8338863Y19731955D01*
X8876158Y20269250D01*
X18592850Y20269250D01*
X18592850Y19637803D01*
X18341834Y19889258D01*
X17977897Y20040378D01*
X17583832Y20040722D01*
X17219632Y19890237D01*
X16940742Y19611834D01*
X16789622Y19247897D01*
X16789278Y18853832D01*
X16939763Y18489632D01*
X17218166Y18210742D01*
X17582103Y18059622D01*
X17976168Y18059278D01*
X18340368Y18209763D01*
X18592850Y18461804D01*
X18592850Y17899487D01*
X18544171Y17919650D01*
X18230887Y17919650D01*
X18148350Y17837113D01*
X18148350Y17195850D01*
X18726113Y17195850D01*
X18761628Y17231364D01*
X18880473Y17112519D01*
X18880473Y16700500D01*
X18896410Y16615805D01*
X18942460Y16544240D01*
X18901805Y16536590D01*
X18824017Y16486536D01*
X18771832Y16410161D01*
X18753473Y16319500D01*
X18753473Y15430500D01*
X18769410Y15345805D01*
X18819464Y15268017D01*
X18895839Y15215832D01*
X18986500Y15197473D01*
X19415437Y15197473D01*
X19127714Y14909750D01*
X18965527Y14909750D01*
X18965527Y15049500D01*
X18949590Y15134195D01*
X18899536Y15211983D01*
X18823161Y15264168D01*
X18732500Y15282527D01*
X18647560Y15282527D01*
X18681650Y15364829D01*
X18681650Y15741613D01*
X18599113Y15824150D01*
X18021350Y15824150D01*
X18021350Y15804150D01*
X17919650Y15804150D01*
X17919650Y15824150D01*
X17899650Y15824150D01*
X17899650Y15925850D01*
X17919650Y15925850D01*
X17919650Y15945850D01*
X18021350Y15945850D01*
X18021350Y15925850D01*
X18599113Y15925850D01*
X18681650Y16008387D01*
X18681650Y16385171D01*
X18666544Y16421641D01*
X18758388Y16513485D01*
X18808650Y16634829D01*
X18808650Y17011613D01*
X18726113Y17094150D01*
X18148350Y17094150D01*
X18148350Y17074150D01*
X18046650Y17074150D01*
X18046650Y17094150D01*
X18026650Y17094150D01*
X18026650Y17195850D01*
X18046650Y17195850D01*
X18046650Y17837113D01*
X17964113Y17919650D01*
X17650829Y17919650D01*
X17529485Y17869388D01*
X17436612Y17776515D01*
X17406511Y17703845D01*
X17375536Y17751983D01*
X17299161Y17804168D01*
X17208500Y17822527D01*
X16955743Y17822527D01*
X16911616Y17929324D01*
X16761713Y18079489D01*
X16565755Y18160857D01*
X16353576Y18161042D01*
X16289380Y18134517D01*
X16205927Y18209665D01*
X16161551Y18236068D01*
X16118623Y18264752D01*
X16110692Y18266330D01*
X16103740Y18270466D01*
X16052635Y18277878D01*
X16002000Y18287950D01*
X15878692Y18287950D01*
X16079258Y18488166D01*
X16230378Y18852103D01*
X16230722Y19246168D01*
X16080237Y19610368D01*
X15801834Y19889258D01*
X15437897Y20040378D01*
X15043832Y20040722D01*
X14679632Y19890237D01*
X14400742Y19611834D01*
X14249622Y19247897D01*
X14249278Y18853832D01*
X14399763Y18489632D01*
X14601093Y18287950D01*
X13338692Y18287950D01*
X13539258Y18488166D01*
X13690378Y18852103D01*
X13690722Y19246168D01*
X13540237Y19610368D01*
X13261834Y19889258D01*
X12897897Y20040378D01*
X12503832Y20040722D01*
X12139632Y19890237D01*
X11860742Y19611834D01*
X11709622Y19247897D01*
X11709278Y18853832D01*
X11859763Y18489632D01*
X12061093Y18287950D01*
X10798692Y18287950D01*
X10999258Y18488166D01*
X11150378Y18852103D01*
X11150722Y19246168D01*
X11000237Y19610368D01*
X10721834Y19889258D01*
X10357897Y20040378D01*
X9963832Y20040722D01*
X9599632Y19890237D01*
X9320742Y19611834D01*
X9169622Y19247897D01*
X9169278Y18853832D01*
X9319763Y18489632D01*
X9521093Y18287950D01*
X8721200Y18287950D01*
X8604577Y18264752D01*
X8523745Y18210742D01*
X8505709Y18198691D01*
X8021045Y17714027D01*
X7544000Y17714027D01*
X7459305Y17698090D01*
X7381517Y17648036D01*
X7329332Y17571661D01*
X7310973Y17481000D01*
X7310973Y16931000D01*
X7326910Y16846305D01*
X7376964Y16768517D01*
X7453339Y16716332D01*
X7544000Y16697973D01*
X8344000Y16697973D01*
X8428695Y16713910D01*
X8506483Y16763964D01*
X8558668Y16840339D01*
X8577027Y16931000D01*
X8577027Y17408045D01*
X8847432Y17678450D01*
X9828783Y17678450D01*
X9781517Y17648036D01*
X9729332Y17571661D01*
X9710973Y17481000D01*
X9710973Y16931000D01*
X9726910Y16846305D01*
X9752552Y16806455D01*
X9664112Y16718015D01*
X9613850Y16596671D01*
X9613850Y16389387D01*
X9696387Y16306850D01*
X10293150Y16306850D01*
X10293150Y16326850D01*
X10394850Y16326850D01*
X10394850Y16306850D01*
X10991613Y16306850D01*
X11074150Y16389387D01*
X11074150Y16536865D01*
X11148839Y16485832D01*
X11239500Y16467473D01*
X12001500Y16467473D01*
X12086195Y16483410D01*
X12163983Y16533464D01*
X12216168Y16609839D01*
X12234527Y16700500D01*
X12234527Y17011613D01*
X12306350Y17011613D01*
X12306350Y16634829D01*
X12356612Y16513485D01*
X12449485Y16420612D01*
X12570829Y16370350D01*
X12884113Y16370350D01*
X12966650Y16452887D01*
X12966650Y17094150D01*
X12388887Y17094150D01*
X12306350Y17011613D01*
X12234527Y17011613D01*
X12234527Y17589500D01*
X12218590Y17674195D01*
X12215852Y17678450D01*
X12315992Y17678450D01*
X12306350Y17655171D01*
X12306350Y17278387D01*
X12388887Y17195850D01*
X12966650Y17195850D01*
X12966650Y17215850D01*
X13068350Y17215850D01*
X13068350Y17195850D01*
X13088350Y17195850D01*
X13088350Y17094150D01*
X13068350Y17094150D01*
X13068350Y16452887D01*
X13150887Y16370350D01*
X13464171Y16370350D01*
X13585515Y16420612D01*
X13666202Y16501299D01*
X13688839Y16485832D01*
X13779500Y16467473D01*
X13855750Y16467473D01*
X13855750Y16267932D01*
X13742168Y16154350D01*
X13258800Y16154350D01*
X13142177Y16131152D01*
X13043309Y16065091D01*
X13043307Y16065088D01*
X12696807Y15718589D01*
X12696807Y15841980D01*
X12680870Y15926675D01*
X12630816Y16004463D01*
X12554441Y16056648D01*
X12463780Y16075007D01*
X11564620Y16075007D01*
X11479925Y16059070D01*
X11402137Y16009016D01*
X11349952Y15932641D01*
X11331593Y15841980D01*
X11331593Y15763150D01*
X10993053Y15763150D01*
X11023888Y15793985D01*
X11074150Y15915329D01*
X11074150Y16122613D01*
X10991613Y16205150D01*
X10394850Y16205150D01*
X10394850Y16185150D01*
X10293150Y16185150D01*
X10293150Y16205150D01*
X9696387Y16205150D01*
X9613850Y16122613D01*
X9613850Y16026258D01*
X9314854Y16325254D01*
X9166544Y16424352D01*
X8991600Y16459150D01*
X7010400Y16459150D01*
X6835456Y16424352D01*
X6687146Y16325254D01*
X6485973Y16124081D01*
X6445768Y16228010D01*
X5100370Y16228010D01*
X5100370Y16208010D01*
X4998670Y16208010D01*
X4998670Y16228010D01*
X3653272Y16228010D01*
X3591248Y16067682D01*
X3628326Y15931619D01*
X3835137Y15586391D01*
X3893008Y15543450D01*
X2906572Y15543450D01*
X2964443Y15586391D01*
X3171254Y15931619D01*
X3208332Y16067682D01*
X3146308Y16228010D01*
X1800910Y16228010D01*
X1800910Y16208010D01*
X1699210Y16208010D01*
X1699210Y16228010D01*
X1679210Y16228010D01*
X1679210Y16329710D01*
X1699210Y16329710D01*
X1699210Y17309010D01*
X1800910Y17309010D01*
X1800910Y16329710D01*
X3146308Y16329710D01*
X3208332Y16490038D01*
X3591248Y16490038D01*
X3653272Y16329710D01*
X4998670Y16329710D01*
X4998670Y17309010D01*
X5100370Y17309010D01*
X5100370Y16329710D01*
X6445768Y16329710D01*
X6507792Y16490038D01*
X6470714Y16626101D01*
X6263903Y16971329D01*
X5940721Y17211135D01*
X5550370Y17309010D01*
X5100370Y17309010D01*
X4998670Y17309010D01*
X4548670Y17309010D01*
X4158319Y17211135D01*
X3835137Y16971329D01*
X3628326Y16626101D01*
X3591248Y16490038D01*
X3208332Y16490038D01*
X3171254Y16626101D01*
X2964443Y16971329D01*
X2641261Y17211135D01*
X2250910Y17309010D01*
X1800910Y17309010D01*
X1699210Y17309010D01*
X1249210Y17309010D01*
X858859Y17211135D01*
X535677Y16971329D01*
X328866Y16626101D01*
X303450Y16532833D01*
X303450Y18285898D01*
X1847810Y18285898D01*
X1927296Y18120174D01*
X2329764Y17956481D01*
X2764240Y17959266D01*
X3152704Y18120174D01*
X3232190Y18285898D01*
X4387810Y18285898D01*
X4467296Y18120174D01*
X4869764Y17956481D01*
X5304240Y17959266D01*
X5692704Y18120174D01*
X5772190Y18285898D01*
X5080000Y18978087D01*
X4387810Y18285898D01*
X3232190Y18285898D01*
X2540000Y18978087D01*
X1847810Y18285898D01*
X303450Y18285898D01*
X303450Y19260236D01*
X1446481Y19260236D01*
X1449266Y18825760D01*
X1610174Y18437296D01*
X1775898Y18357810D01*
X2468087Y19050000D01*
X2611913Y19050000D01*
X3304102Y18357810D01*
X3469826Y18437296D01*
X3633519Y18839764D01*
X3630824Y19260236D01*
X3986481Y19260236D01*
X3989266Y18825760D01*
X4150174Y18437296D01*
X4315898Y18357810D01*
X5008087Y19050000D01*
X5151913Y19050000D01*
X5844102Y18357810D01*
X6009826Y18437296D01*
X6173519Y18839764D01*
X6170734Y19274240D01*
X6009826Y19662704D01*
X5844102Y19742190D01*
X5151913Y19050000D01*
X5008087Y19050000D01*
X4315898Y19742190D01*
X4150174Y19662704D01*
X3986481Y19260236D01*
X3630824Y19260236D01*
X3630734Y19274240D01*
X3469826Y19662704D01*
X3304102Y19742190D01*
X2611913Y19050000D01*
X2468087Y19050000D01*
X1775898Y19742190D01*
X1610174Y19662704D01*
X1446481Y19260236D01*
X303450Y19260236D01*
X303450Y19814102D01*
X1847810Y19814102D01*
X2540000Y19121913D01*
X3232190Y19814102D01*
X4387810Y19814102D01*
X5080000Y19121913D01*
X5772190Y19814102D01*
X5692704Y19979826D01*
X5290236Y20143519D01*
X4855760Y20140734D01*
X4467296Y19979826D01*
X4387810Y19814102D01*
X3232190Y19814102D01*
X3152704Y19979826D01*
X2750236Y20143519D01*
X2315760Y20140734D01*
X1927296Y19979826D01*
X1847810Y19814102D01*
X303450Y19814102D01*
X303450Y22556550D01*
X53036550Y22556550D01*
X53036550Y303450D01*
X53036550Y303450D01*
G37*
X53036550Y303450D02*
X303450Y303450D01*
X303450Y6327167D01*
X328866Y6233899D01*
X535677Y5888671D01*
X858859Y5648865D01*
X1249210Y5550990D01*
X1699210Y5550990D01*
X1699210Y6530290D01*
X1800910Y6530290D01*
X1800910Y5550990D01*
X2250910Y5550990D01*
X2641261Y5648865D01*
X2964443Y5888671D01*
X3171254Y6233899D01*
X3208332Y6369962D01*
X3146308Y6530290D01*
X1800910Y6530290D01*
X1699210Y6530290D01*
X1679210Y6530290D01*
X1679210Y6631990D01*
X1699210Y6631990D01*
X1699210Y6651990D01*
X1800910Y6651990D01*
X1800910Y6631990D01*
X3146308Y6631990D01*
X3208332Y6792318D01*
X3171254Y6928381D01*
X2964443Y7273609D01*
X2906572Y7316550D01*
X3893008Y7316550D01*
X3835137Y7273609D01*
X3628326Y6928381D01*
X3591248Y6792318D01*
X3653272Y6631990D01*
X4998670Y6631990D01*
X4998670Y6651990D01*
X5100370Y6651990D01*
X5100370Y6631990D01*
X5120370Y6631990D01*
X5120370Y6530290D01*
X5100370Y6530290D01*
X5100370Y6510290D01*
X4998670Y6510290D01*
X4998670Y6530290D01*
X3653272Y6530290D01*
X3591248Y6369962D01*
X3628326Y6233899D01*
X3835137Y5888671D01*
X4046133Y5732109D01*
X4000909Y5701891D01*
X2993331Y4694313D01*
X2737897Y4800378D01*
X2343832Y4800722D01*
X1979632Y4650237D01*
X1700742Y4371834D01*
X1549622Y4007897D01*
X1549278Y3613832D01*
X1699763Y3249632D01*
X1978166Y2970742D01*
X2342103Y2819622D01*
X2736168Y2819278D01*
X3100368Y2969763D01*
X3379258Y3248166D01*
X3530378Y3612103D01*
X3530722Y4006168D01*
X3424420Y4263438D01*
X4342632Y5181650D01*
X6726105Y5181650D01*
X6726205Y5181550D01*
X6146800Y5181550D01*
X6030177Y5158352D01*
X5955053Y5108156D01*
X5931309Y5092291D01*
X5533331Y4694313D01*
X5277897Y4800378D01*
X4883832Y4800722D01*
X4519632Y4650237D01*
X4240742Y4371834D01*
X4089622Y4007897D01*
X4089278Y3613832D01*
X4239763Y3249632D01*
X4518166Y2970742D01*
X4882103Y2819622D01*
X5276168Y2819278D01*
X5640368Y2969763D01*
X5919258Y3248166D01*
X6070378Y3612103D01*
X6070722Y4006168D01*
X5964420Y4263438D01*
X6273032Y4572050D01*
X6981308Y4572050D01*
X6780742Y4371834D01*
X6629622Y4007897D01*
X6629278Y3613832D01*
X6779763Y3249632D01*
X7058166Y2970742D01*
X7422103Y2819622D01*
X7816168Y2819278D01*
X8180368Y2969763D01*
X8393663Y3182685D01*
X8536587Y3039511D01*
X8732545Y2958143D01*
X8944724Y2957958D01*
X9140824Y3038984D01*
X9290989Y3188887D01*
X9317992Y3253918D01*
X9319763Y3249632D01*
X9598166Y2970742D01*
X9962103Y2819622D01*
X10356168Y2819278D01*
X10720368Y2969763D01*
X10999258Y3248166D01*
X11150378Y3612103D01*
X11150722Y4006168D01*
X11000237Y4370368D01*
X10721834Y4649258D01*
X10357897Y4800378D01*
X9963832Y4800722D01*
X9599632Y4650237D01*
X9448750Y4499618D01*
X9448750Y4876800D01*
X9428727Y4977464D01*
X9474150Y5022887D01*
X9474150Y5600650D01*
X9575850Y5600650D01*
X9575850Y5022887D01*
X9658387Y4940350D01*
X10035171Y4940350D01*
X10156515Y4990612D01*
X10160000Y4994097D01*
X10163485Y4990612D01*
X10284829Y4940350D01*
X10661613Y4940350D01*
X10744150Y5022887D01*
X10744150Y5600650D01*
X10845850Y5600650D01*
X10845850Y5022887D01*
X10928387Y4940350D01*
X11305171Y4940350D01*
X11426515Y4990612D01*
X11519388Y5083485D01*
X11569650Y5204829D01*
X11569650Y5518113D01*
X11487113Y5600650D01*
X10845850Y5600650D01*
X10744150Y5600650D01*
X9575850Y5600650D01*
X9474150Y5600650D01*
X9454150Y5600650D01*
X9454150Y5702350D01*
X9474150Y5702350D01*
X9474150Y6280113D01*
X9575850Y6280113D01*
X9575850Y5702350D01*
X10744150Y5702350D01*
X10744150Y6280113D01*
X10661613Y6362650D01*
X10284829Y6362650D01*
X10163485Y6312388D01*
X10160000Y6308903D01*
X10156515Y6312388D01*
X10035171Y6362650D01*
X9658387Y6362650D01*
X9575850Y6280113D01*
X9474150Y6280113D01*
X9391613Y6362650D01*
X9143950Y6362650D01*
X9143950Y6434473D01*
X9969500Y6434473D01*
X10054195Y6450410D01*
X10131983Y6500464D01*
X10160005Y6541475D01*
X10183464Y6505017D01*
X10259839Y6452832D01*
X10350500Y6434473D01*
X11239500Y6434473D01*
X11324195Y6450410D01*
X11401983Y6500464D01*
X11454168Y6576839D01*
X11457107Y6591350D01*
X11499973Y6591350D01*
X11499973Y6238930D01*
X11426515Y6312388D01*
X11305171Y6362650D01*
X10928387Y6362650D01*
X10845850Y6280113D01*
X10845850Y5702350D01*
X11487113Y5702350D01*
X11550427Y5765664D01*
X11565964Y5741517D01*
X11642339Y5689332D01*
X11733000Y5670973D01*
X11882005Y5670973D01*
X11885648Y5652656D01*
X11984746Y5504346D01*
X12688531Y4800561D01*
X12503832Y4800722D01*
X12139632Y4650237D01*
X11860742Y4371834D01*
X11709622Y4007897D01*
X11709278Y3613832D01*
X11859763Y3249632D01*
X12138166Y2970742D01*
X12502103Y2819622D01*
X12896168Y2819278D01*
X13260368Y2969763D01*
X13539258Y3248166D01*
X13563650Y3306908D01*
X13563650Y2590800D01*
X13598448Y2415856D01*
X13697546Y2267546D01*
X14154746Y1810346D01*
X14303056Y1711248D01*
X14478000Y1676450D01*
X45872400Y1676450D01*
X46047344Y1711248D01*
X46195654Y1810346D01*
X47414754Y3029446D01*
X47425746Y3045898D01*
X47567810Y3045898D01*
X47647296Y2880174D01*
X48049764Y2716481D01*
X48484240Y2719266D01*
X48872704Y2880174D01*
X48952190Y3045898D01*
X48260000Y3738087D01*
X47567810Y3045898D01*
X47425746Y3045898D01*
X47479161Y3125838D01*
X47495898Y3117810D01*
X48188087Y3810000D01*
X48173945Y3824142D01*
X48245858Y3896055D01*
X48260000Y3881913D01*
X48274142Y3896055D01*
X48346055Y3824142D01*
X48331913Y3810000D01*
X49024102Y3117810D01*
X49189826Y3197296D01*
X49353519Y3599764D01*
X49350734Y4034240D01*
X49189826Y4422704D01*
X49024104Y4502189D01*
X49082299Y4560384D01*
X49077542Y4565141D01*
X49804973Y4565141D01*
X49804973Y3048000D01*
X49820910Y2963305D01*
X49870964Y2885517D01*
X49947339Y2833332D01*
X50038000Y2814973D01*
X51562000Y2814973D01*
X51646695Y2830910D01*
X51724483Y2880964D01*
X51776668Y2957339D01*
X51795027Y3048000D01*
X51795027Y4158519D01*
X52596354Y4959846D01*
X52695452Y5108156D01*
X52730250Y5283100D01*
X52730250Y19228957D01*
X52806357Y19412245D01*
X52806542Y19624424D01*
X52725516Y19820524D01*
X52575613Y19970689D01*
X52379655Y20052057D01*
X52167476Y20052242D01*
X51971376Y19971216D01*
X51821211Y19821313D01*
X51795027Y19758254D01*
X51795027Y19812000D01*
X51779090Y19896695D01*
X51729036Y19974483D01*
X51652661Y20026668D01*
X51562000Y20045027D01*
X50038000Y20045027D01*
X49987150Y20035459D01*
X49987150Y20116800D01*
X49952352Y20291744D01*
X49853254Y20440054D01*
X49243654Y21049654D01*
X49095344Y21148752D01*
X48920400Y21183550D01*
X8686800Y21183550D01*
X8511856Y21148752D01*
X8363546Y21049654D01*
X7305875Y19991983D01*
X7059632Y19890237D01*
X6780742Y19611834D01*
X6629622Y19247897D01*
X6629278Y18853832D01*
X6779763Y18489632D01*
X7058166Y18210742D01*
X7422103Y18059622D01*
X7816168Y18059278D01*
X8180368Y18209763D01*
X8459258Y18488166D01*
X8610378Y18852103D01*
X8610722Y19246168D01*
X8460237Y19610368D01*
X8338863Y19731955D01*
X8876158Y20269250D01*
X18592850Y20269250D01*
X18592850Y19637803D01*
X18341834Y19889258D01*
X17977897Y20040378D01*
X17583832Y20040722D01*
X17219632Y19890237D01*
X16940742Y19611834D01*
X16789622Y19247897D01*
X16789278Y18853832D01*
X16939763Y18489632D01*
X17218166Y18210742D01*
X17582103Y18059622D01*
X17976168Y18059278D01*
X18340368Y18209763D01*
X18592850Y18461804D01*
X18592850Y17899487D01*
X18544171Y17919650D01*
X18230887Y17919650D01*
X18148350Y17837113D01*
X18148350Y17195850D01*
X18726113Y17195850D01*
X18761628Y17231364D01*
X18880473Y17112519D01*
X18880473Y16700500D01*
X18896410Y16615805D01*
X18942460Y16544240D01*
X18901805Y16536590D01*
X18824017Y16486536D01*
X18771832Y16410161D01*
X18753473Y16319500D01*
X18753473Y15430500D01*
X18769410Y15345805D01*
X18819464Y15268017D01*
X18895839Y15215832D01*
X18986500Y15197473D01*
X19415437Y15197473D01*
X19127714Y14909750D01*
X18965527Y14909750D01*
X18965527Y15049500D01*
X18949590Y15134195D01*
X18899536Y15211983D01*
X18823161Y15264168D01*
X18732500Y15282527D01*
X18647560Y15282527D01*
X18681650Y15364829D01*
X18681650Y15741613D01*
X18599113Y15824150D01*
X18021350Y15824150D01*
X18021350Y15804150D01*
X17919650Y15804150D01*
X17919650Y15824150D01*
X17899650Y15824150D01*
X17899650Y15925850D01*
X17919650Y15925850D01*
X17919650Y15945850D01*
X18021350Y15945850D01*
X18021350Y15925850D01*
X18599113Y15925850D01*
X18681650Y16008387D01*
X18681650Y16385171D01*
X18666544Y16421641D01*
X18758388Y16513485D01*
X18808650Y16634829D01*
X18808650Y17011613D01*
X18726113Y17094150D01*
X18148350Y17094150D01*
X18148350Y17074150D01*
X18046650Y17074150D01*
X18046650Y17094150D01*
X18026650Y17094150D01*
X18026650Y17195850D01*
X18046650Y17195850D01*
X18046650Y17837113D01*
X17964113Y17919650D01*
X17650829Y17919650D01*
X17529485Y17869388D01*
X17436612Y17776515D01*
X17406511Y17703845D01*
X17375536Y17751983D01*
X17299161Y17804168D01*
X17208500Y17822527D01*
X16955743Y17822527D01*
X16911616Y17929324D01*
X16761713Y18079489D01*
X16565755Y18160857D01*
X16353576Y18161042D01*
X16289380Y18134517D01*
X16205927Y18209665D01*
X16161551Y18236068D01*
X16118623Y18264752D01*
X16110692Y18266330D01*
X16103740Y18270466D01*
X16052635Y18277878D01*
X16002000Y18287950D01*
X15878692Y18287950D01*
X16079258Y18488166D01*
X16230378Y18852103D01*
X16230722Y19246168D01*
X16080237Y19610368D01*
X15801834Y19889258D01*
X15437897Y20040378D01*
X15043832Y20040722D01*
X14679632Y19890237D01*
X14400742Y19611834D01*
X14249622Y19247897D01*
X14249278Y18853832D01*
X14399763Y18489632D01*
X14601093Y18287950D01*
X13338692Y18287950D01*
X13539258Y18488166D01*
X13690378Y18852103D01*
X13690722Y19246168D01*
X13540237Y19610368D01*
X13261834Y19889258D01*
X12897897Y20040378D01*
X12503832Y20040722D01*
X12139632Y19890237D01*
X11860742Y19611834D01*
X11709622Y19247897D01*
X11709278Y18853832D01*
X11859763Y18489632D01*
X12061093Y18287950D01*
X10798692Y18287950D01*
X10999258Y18488166D01*
X11150378Y18852103D01*
X11150722Y19246168D01*
X11000237Y19610368D01*
X10721834Y19889258D01*
X10357897Y20040378D01*
X9963832Y20040722D01*
X9599632Y19890237D01*
X9320742Y19611834D01*
X9169622Y19247897D01*
X9169278Y18853832D01*
X9319763Y18489632D01*
X9521093Y18287950D01*
X8721200Y18287950D01*
X8604577Y18264752D01*
X8523745Y18210742D01*
X8505709Y18198691D01*
X8021045Y17714027D01*
X7544000Y17714027D01*
X7459305Y17698090D01*
X7381517Y17648036D01*
X7329332Y17571661D01*
X7310973Y17481000D01*
X7310973Y16931000D01*
X7326910Y16846305D01*
X7376964Y16768517D01*
X7453339Y16716332D01*
X7544000Y16697973D01*
X8344000Y16697973D01*
X8428695Y16713910D01*
X8506483Y16763964D01*
X8558668Y16840339D01*
X8577027Y16931000D01*
X8577027Y17408045D01*
X8847432Y17678450D01*
X9828783Y17678450D01*
X9781517Y17648036D01*
X9729332Y17571661D01*
X9710973Y17481000D01*
X9710973Y16931000D01*
X9726910Y16846305D01*
X9752552Y16806455D01*
X9664112Y16718015D01*
X9613850Y16596671D01*
X9613850Y16389387D01*
X9696387Y16306850D01*
X10293150Y16306850D01*
X10293150Y16326850D01*
X10394850Y16326850D01*
X10394850Y16306850D01*
X10991613Y16306850D01*
X11074150Y16389387D01*
X11074150Y16536865D01*
X11148839Y16485832D01*
X11239500Y16467473D01*
X12001500Y16467473D01*
X12086195Y16483410D01*
X12163983Y16533464D01*
X12216168Y16609839D01*
X12234527Y16700500D01*
X12234527Y17011613D01*
X12306350Y17011613D01*
X12306350Y16634829D01*
X12356612Y16513485D01*
X12449485Y16420612D01*
X12570829Y16370350D01*
X12884113Y16370350D01*
X12966650Y16452887D01*
X12966650Y17094150D01*
X12388887Y17094150D01*
X12306350Y17011613D01*
X12234527Y17011613D01*
X12234527Y17589500D01*
X12218590Y17674195D01*
X12215852Y17678450D01*
X12315992Y17678450D01*
X12306350Y17655171D01*
X12306350Y17278387D01*
X12388887Y17195850D01*
X12966650Y17195850D01*
X12966650Y17215850D01*
X13068350Y17215850D01*
X13068350Y17195850D01*
X13088350Y17195850D01*
X13088350Y17094150D01*
X13068350Y17094150D01*
X13068350Y16452887D01*
X13150887Y16370350D01*
X13464171Y16370350D01*
X13585515Y16420612D01*
X13666202Y16501299D01*
X13688839Y16485832D01*
X13779500Y16467473D01*
X13855750Y16467473D01*
X13855750Y16267932D01*
X13742168Y16154350D01*
X13258800Y16154350D01*
X13142177Y16131152D01*
X13043309Y16065091D01*
X13043307Y16065088D01*
X12696807Y15718589D01*
X12696807Y15841980D01*
X12680870Y15926675D01*
X12630816Y16004463D01*
X12554441Y16056648D01*
X12463780Y16075007D01*
X11564620Y16075007D01*
X11479925Y16059070D01*
X11402137Y16009016D01*
X11349952Y15932641D01*
X11331593Y15841980D01*
X11331593Y15763150D01*
X10993053Y15763150D01*
X11023888Y15793985D01*
X11074150Y15915329D01*
X11074150Y16122613D01*
X10991613Y16205150D01*
X10394850Y16205150D01*
X10394850Y16185150D01*
X10293150Y16185150D01*
X10293150Y16205150D01*
X9696387Y16205150D01*
X9613850Y16122613D01*
X9613850Y16026258D01*
X9314854Y16325254D01*
X9166544Y16424352D01*
X8991600Y16459150D01*
X7010400Y16459150D01*
X6835456Y16424352D01*
X6687146Y16325254D01*
X6485973Y16124081D01*
X6445768Y16228010D01*
X5100370Y16228010D01*
X5100370Y16208010D01*
X4998670Y16208010D01*
X4998670Y16228010D01*
X3653272Y16228010D01*
X3591248Y16067682D01*
X3628326Y15931619D01*
X3835137Y15586391D01*
X3893008Y15543450D01*
X2906572Y15543450D01*
X2964443Y15586391D01*
X3171254Y15931619D01*
X3208332Y16067682D01*
X3146308Y16228010D01*
X1800910Y16228010D01*
X1800910Y16208010D01*
X1699210Y16208010D01*
X1699210Y16228010D01*
X1679210Y16228010D01*
X1679210Y16329710D01*
X1699210Y16329710D01*
X1699210Y17309010D01*
X1800910Y17309010D01*
X1800910Y16329710D01*
X3146308Y16329710D01*
X3208332Y16490038D01*
X3591248Y16490038D01*
X3653272Y16329710D01*
X4998670Y16329710D01*
X4998670Y17309010D01*
X5100370Y17309010D01*
X5100370Y16329710D01*
X6445768Y16329710D01*
X6507792Y16490038D01*
X6470714Y16626101D01*
X6263903Y16971329D01*
X5940721Y17211135D01*
X5550370Y17309010D01*
X5100370Y17309010D01*
X4998670Y17309010D01*
X4548670Y17309010D01*
X4158319Y17211135D01*
X3835137Y16971329D01*
X3628326Y16626101D01*
X3591248Y16490038D01*
X3208332Y16490038D01*
X3171254Y16626101D01*
X2964443Y16971329D01*
X2641261Y17211135D01*
X2250910Y17309010D01*
X1800910Y17309010D01*
X1699210Y17309010D01*
X1249210Y17309010D01*
X858859Y17211135D01*
X535677Y16971329D01*
X328866Y16626101D01*
X303450Y16532833D01*
X303450Y18285898D01*
X1847810Y18285898D01*
X1927296Y18120174D01*
X2329764Y17956481D01*
X2764240Y17959266D01*
X3152704Y18120174D01*
X3232190Y18285898D01*
X4387810Y18285898D01*
X4467296Y18120174D01*
X4869764Y17956481D01*
X5304240Y17959266D01*
X5692704Y18120174D01*
X5772190Y18285898D01*
X5080000Y18978087D01*
X4387810Y18285898D01*
X3232190Y18285898D01*
X2540000Y18978087D01*
X1847810Y18285898D01*
X303450Y18285898D01*
X303450Y19260236D01*
X1446481Y19260236D01*
X1449266Y18825760D01*
X1610174Y18437296D01*
X1775898Y18357810D01*
X2468087Y19050000D01*
X2611913Y19050000D01*
X3304102Y18357810D01*
X3469826Y18437296D01*
X3633519Y18839764D01*
X3630824Y19260236D01*
X3986481Y19260236D01*
X3989266Y18825760D01*
X4150174Y18437296D01*
X4315898Y18357810D01*
X5008087Y19050000D01*
X5151913Y19050000D01*
X5844102Y18357810D01*
X6009826Y18437296D01*
X6173519Y18839764D01*
X6170734Y19274240D01*
X6009826Y19662704D01*
X5844102Y19742190D01*
X5151913Y19050000D01*
X5008087Y19050000D01*
X4315898Y19742190D01*
X4150174Y19662704D01*
X3986481Y19260236D01*
X3630824Y19260236D01*
X3630734Y19274240D01*
X3469826Y19662704D01*
X3304102Y19742190D01*
X2611913Y19050000D01*
X2468087Y19050000D01*
X1775898Y19742190D01*
X1610174Y19662704D01*
X1446481Y19260236D01*
X303450Y19260236D01*
X303450Y19814102D01*
X1847810Y19814102D01*
X2540000Y19121913D01*
X3232190Y19814102D01*
X4387810Y19814102D01*
X5080000Y19121913D01*
X5772190Y19814102D01*
X5692704Y19979826D01*
X5290236Y20143519D01*
X4855760Y20140734D01*
X4467296Y19979826D01*
X4387810Y19814102D01*
X3232190Y19814102D01*
X3152704Y19979826D01*
X2750236Y20143519D01*
X2315760Y20140734D01*
X1927296Y19979826D01*
X1847810Y19814102D01*
X303450Y19814102D01*
X303450Y22556550D01*
X53036550Y22556550D01*
X53036550Y303450D01*
G36*
X21511648Y7198577D02*
X21572924Y7106870D01*
X21577709Y7099709D01*
X21882509Y6794909D01*
X21927051Y6765147D01*
X21950384Y6708676D01*
X22029528Y6629393D01*
X21950911Y6550913D01*
X21869543Y6354955D01*
X21869358Y6142776D01*
X21950384Y5946676D01*
X22100287Y5796511D01*
X22296245Y5715143D01*
X22508424Y5714958D01*
X22538073Y5727209D01*
X22538073Y5082540D01*
X22554010Y4997845D01*
X22604064Y4920057D01*
X22680439Y4867872D01*
X22771100Y4849513D01*
X23070820Y4849513D01*
X23155515Y4865450D01*
X23170372Y4875010D01*
X23180819Y4867872D01*
X23205204Y4862934D01*
X23205849Y4861969D01*
X23416235Y4651583D01*
X23057897Y4800378D01*
X22663832Y4800722D01*
X22299632Y4650237D01*
X22020742Y4371834D01*
X21869622Y4007897D01*
X21869278Y3613832D01*
X22019763Y3249632D01*
X22298166Y2970742D01*
X22662103Y2819622D01*
X23056168Y2819278D01*
X23420368Y2969763D01*
X23699258Y3248166D01*
X23850378Y3612103D01*
X23850722Y4006168D01*
X23700237Y4370368D01*
X23568005Y4502831D01*
X23657777Y4442848D01*
X23774400Y4419650D01*
X24359368Y4419650D01*
X24515687Y4263331D01*
X24409622Y4007897D01*
X24409278Y3613832D01*
X24559763Y3249632D01*
X24838166Y2970742D01*
X25202103Y2819622D01*
X25596168Y2819278D01*
X25960368Y2969763D01*
X26239258Y3248166D01*
X26390378Y3612103D01*
X26390722Y4006168D01*
X26240237Y4370368D01*
X26185650Y4425051D01*
X26212800Y4419650D01*
X26899368Y4419650D01*
X27055687Y4263331D01*
X26949622Y4007897D01*
X26949278Y3613832D01*
X27099763Y3249632D01*
X27378166Y2970742D01*
X27742103Y2819622D01*
X28136168Y2819278D01*
X28500368Y2969763D01*
X28779258Y3248166D01*
X28930378Y3612103D01*
X28930379Y3613832D01*
X29489278Y3613832D01*
X29639763Y3249632D01*
X29918166Y2970742D01*
X30282103Y2819622D01*
X30676168Y2819278D01*
X31040368Y2969763D01*
X31319258Y3248166D01*
X31470378Y3612103D01*
X31470722Y4006168D01*
X31320237Y4370368D01*
X31041834Y4649258D01*
X30677897Y4800378D01*
X30283832Y4800722D01*
X29919632Y4650237D01*
X29640742Y4371834D01*
X29489622Y4007897D01*
X29489278Y3613832D01*
X28930379Y3613832D01*
X28930722Y4006168D01*
X28780237Y4370368D01*
X28501834Y4649258D01*
X28137897Y4800378D01*
X27743832Y4800722D01*
X27486562Y4694420D01*
X27331469Y4849513D01*
X27569160Y4849513D01*
X27653855Y4865450D01*
X27668712Y4875010D01*
X27679159Y4867872D01*
X27769820Y4849513D01*
X28069540Y4849513D01*
X28154235Y4865450D01*
X28169092Y4875010D01*
X28179539Y4867872D01*
X28270200Y4849513D01*
X28569920Y4849513D01*
X28654615Y4865450D01*
X28668164Y4874168D01*
X28677379Y4867872D01*
X28768040Y4849513D01*
X29067760Y4849513D01*
X29152455Y4865450D01*
X29167312Y4875010D01*
X29177759Y4867872D01*
X29268420Y4849513D01*
X29534924Y4849513D01*
X29581785Y4802652D01*
X29703129Y4752390D01*
X29785273Y4752390D01*
X29867810Y4834927D01*
X29867810Y5631130D01*
X29847810Y5631130D01*
X29847810Y5732830D01*
X29867810Y5732830D01*
X29867810Y5752830D01*
X29969510Y5752830D01*
X29969510Y5732830D01*
X29989510Y5732830D01*
X29989510Y5631130D01*
X29969510Y5631130D01*
X29969510Y4834927D01*
X30052047Y4752390D01*
X30134191Y4752390D01*
X30255535Y4802652D01*
X30302396Y4849513D01*
X30568900Y4849513D01*
X30653595Y4865450D01*
X30731383Y4915504D01*
X30783568Y4991879D01*
X30801927Y5082540D01*
X30801927Y5257850D01*
X33233853Y5257850D01*
X33247410Y5185805D01*
X33297464Y5108017D01*
X33373839Y5055832D01*
X33388350Y5052893D01*
X33388350Y4864100D01*
X33417512Y4717491D01*
X33217897Y4800378D01*
X32823832Y4800722D01*
X32459632Y4650237D01*
X32180742Y4371834D01*
X32029622Y4007897D01*
X32029278Y3613832D01*
X32179763Y3249632D01*
X32458166Y2970742D01*
X32822103Y2819622D01*
X33216168Y2819278D01*
X33580368Y2969763D01*
X33832850Y3221804D01*
X33832850Y2590750D01*
X19507150Y2590750D01*
X19507150Y3222197D01*
X19758166Y2970742D01*
X20122103Y2819622D01*
X20516168Y2819278D01*
X20880368Y2969763D01*
X21159258Y3248166D01*
X21310378Y3612103D01*
X21310722Y4006168D01*
X21160237Y4370368D01*
X20881834Y4649258D01*
X20517897Y4800378D01*
X20123832Y4800722D01*
X19759632Y4650237D01*
X19507150Y4398196D01*
X19507150Y4992242D01*
X19806381Y5291473D01*
X19875500Y5291473D01*
X19960195Y5307410D01*
X20037983Y5357464D01*
X20090168Y5433839D01*
X20108527Y5524500D01*
X20108527Y5746019D01*
X20592454Y6229946D01*
X20691552Y6378256D01*
X20726350Y6553200D01*
X20726350Y7298073D01*
X21491857Y7298073D01*
X21511648Y7198577D01*
X21511648Y7198577D01*
G37*
X21511648Y7198577D02*
X21572924Y7106870D01*
X21577709Y7099709D01*
X21882509Y6794909D01*
X21927051Y6765147D01*
X21950384Y6708676D01*
X22029528Y6629393D01*
X21950911Y6550913D01*
X21869543Y6354955D01*
X21869358Y6142776D01*
X21950384Y5946676D01*
X22100287Y5796511D01*
X22296245Y5715143D01*
X22508424Y5714958D01*
X22538073Y5727209D01*
X22538073Y5082540D01*
X22554010Y4997845D01*
X22604064Y4920057D01*
X22680439Y4867872D01*
X22771100Y4849513D01*
X23070820Y4849513D01*
X23155515Y4865450D01*
X23170372Y4875010D01*
X23180819Y4867872D01*
X23205204Y4862934D01*
X23205849Y4861969D01*
X23416235Y4651583D01*
X23057897Y4800378D01*
X22663832Y4800722D01*
X22299632Y4650237D01*
X22020742Y4371834D01*
X21869622Y4007897D01*
X21869278Y3613832D01*
X22019763Y3249632D01*
X22298166Y2970742D01*
X22662103Y2819622D01*
X23056168Y2819278D01*
X23420368Y2969763D01*
X23699258Y3248166D01*
X23850378Y3612103D01*
X23850722Y4006168D01*
X23700237Y4370368D01*
X23568005Y4502831D01*
X23657777Y4442848D01*
X23774400Y4419650D01*
X24359368Y4419650D01*
X24515687Y4263331D01*
X24409622Y4007897D01*
X24409278Y3613832D01*
X24559763Y3249632D01*
X24838166Y2970742D01*
X25202103Y2819622D01*
X25596168Y2819278D01*
X25960368Y2969763D01*
X26239258Y3248166D01*
X26390378Y3612103D01*
X26390722Y4006168D01*
X26240237Y4370368D01*
X26185650Y4425051D01*
X26212800Y4419650D01*
X26899368Y4419650D01*
X27055687Y4263331D01*
X26949622Y4007897D01*
X26949278Y3613832D01*
X27099763Y3249632D01*
X27378166Y2970742D01*
X27742103Y2819622D01*
X28136168Y2819278D01*
X28500368Y2969763D01*
X28779258Y3248166D01*
X28930378Y3612103D01*
X28930379Y3613832D01*
X29489278Y3613832D01*
X29639763Y3249632D01*
X29918166Y2970742D01*
X30282103Y2819622D01*
X30676168Y2819278D01*
X31040368Y2969763D01*
X31319258Y3248166D01*
X31470378Y3612103D01*
X31470722Y4006168D01*
X31320237Y4370368D01*
X31041834Y4649258D01*
X30677897Y4800378D01*
X30283832Y4800722D01*
X29919632Y4650237D01*
X29640742Y4371834D01*
X29489622Y4007897D01*
X29489278Y3613832D01*
X28930379Y3613832D01*
X28930722Y4006168D01*
X28780237Y4370368D01*
X28501834Y4649258D01*
X28137897Y4800378D01*
X27743832Y4800722D01*
X27486562Y4694420D01*
X27331469Y4849513D01*
X27569160Y4849513D01*
X27653855Y4865450D01*
X27668712Y4875010D01*
X27679159Y4867872D01*
X27769820Y4849513D01*
X28069540Y4849513D01*
X28154235Y4865450D01*
X28169092Y4875010D01*
X28179539Y4867872D01*
X28270200Y4849513D01*
X28569920Y4849513D01*
X28654615Y4865450D01*
X28668164Y4874168D01*
X28677379Y4867872D01*
X28768040Y4849513D01*
X29067760Y4849513D01*
X29152455Y4865450D01*
X29167312Y4875010D01*
X29177759Y4867872D01*
X29268420Y4849513D01*
X29534924Y4849513D01*
X29581785Y4802652D01*
X29703129Y4752390D01*
X29785273Y4752390D01*
X29867810Y4834927D01*
X29867810Y5631130D01*
X29847810Y5631130D01*
X29847810Y5732830D01*
X29867810Y5732830D01*
X29867810Y5752830D01*
X29969510Y5752830D01*
X29969510Y5732830D01*
X29989510Y5732830D01*
X29989510Y5631130D01*
X29969510Y5631130D01*
X29969510Y4834927D01*
X30052047Y4752390D01*
X30134191Y4752390D01*
X30255535Y4802652D01*
X30302396Y4849513D01*
X30568900Y4849513D01*
X30653595Y4865450D01*
X30731383Y4915504D01*
X30783568Y4991879D01*
X30801927Y5082540D01*
X30801927Y5257850D01*
X33233853Y5257850D01*
X33247410Y5185805D01*
X33297464Y5108017D01*
X33373839Y5055832D01*
X33388350Y5052893D01*
X33388350Y4864100D01*
X33417512Y4717491D01*
X33217897Y4800378D01*
X32823832Y4800722D01*
X32459632Y4650237D01*
X32180742Y4371834D01*
X32029622Y4007897D01*
X32029278Y3613832D01*
X32179763Y3249632D01*
X32458166Y2970742D01*
X32822103Y2819622D01*
X33216168Y2819278D01*
X33580368Y2969763D01*
X33832850Y3221804D01*
X33832850Y2590750D01*
X19507150Y2590750D01*
X19507150Y3222197D01*
X19758166Y2970742D01*
X20122103Y2819622D01*
X20516168Y2819278D01*
X20880368Y2969763D01*
X21159258Y3248166D01*
X21310378Y3612103D01*
X21310722Y4006168D01*
X21160237Y4370368D01*
X20881834Y4649258D01*
X20517897Y4800378D01*
X20123832Y4800722D01*
X19759632Y4650237D01*
X19507150Y4398196D01*
X19507150Y4992242D01*
X19806381Y5291473D01*
X19875500Y5291473D01*
X19960195Y5307410D01*
X20037983Y5357464D01*
X20090168Y5433839D01*
X20108527Y5524500D01*
X20108527Y5746019D01*
X20592454Y6229946D01*
X20691552Y6378256D01*
X20726350Y6553200D01*
X20726350Y7298073D01*
X21491857Y7298073D01*
X21511648Y7198577D01*
G36*
X20089513Y8531860D02*
X20102695Y8461808D01*
X20005449Y8396831D01*
X19525145Y7916527D01*
X19113500Y7916527D01*
X19028805Y7900590D01*
X18951017Y7850536D01*
X18898832Y7774161D01*
X18880473Y7683500D01*
X18880473Y6794500D01*
X18896410Y6709805D01*
X18946464Y6632017D01*
X18987475Y6603995D01*
X18951017Y6580536D01*
X18898832Y6504161D01*
X18880473Y6413500D01*
X18880473Y5658581D01*
X18808650Y5586758D01*
X18808650Y5835613D01*
X18726113Y5918150D01*
X18148350Y5918150D01*
X18148350Y5276887D01*
X18230887Y5194350D01*
X18544171Y5194350D01*
X18599985Y5217469D01*
X18592850Y5181600D01*
X18592850Y4397803D01*
X18341834Y4649258D01*
X17977897Y4800378D01*
X17583832Y4800722D01*
X17219632Y4650237D01*
X16940742Y4371834D01*
X16789622Y4007897D01*
X16789278Y3613832D01*
X16939763Y3249632D01*
X17218166Y2970742D01*
X17582103Y2819622D01*
X17976168Y2819278D01*
X18340368Y2969763D01*
X18592850Y3221804D01*
X18592850Y2590750D01*
X14667358Y2590750D01*
X14477950Y2780158D01*
X14477950Y3171308D01*
X14678166Y2970742D01*
X15042103Y2819622D01*
X15436168Y2819278D01*
X15800368Y2969763D01*
X16079258Y3248166D01*
X16230378Y3612103D01*
X16230722Y4006168D01*
X16080237Y4370368D01*
X15801834Y4649258D01*
X15437897Y4800378D01*
X15043832Y4800722D01*
X14679632Y4650237D01*
X14400742Y4371834D01*
X14395974Y4360351D01*
X14344054Y4438054D01*
X13045277Y5736831D01*
X13045483Y5736964D01*
X13097668Y5813339D01*
X13116027Y5904000D01*
X13116027Y7191249D01*
X13258800Y7162850D01*
X13299973Y7162850D01*
X13299973Y5904000D01*
X13315910Y5819305D01*
X13365964Y5741517D01*
X13442339Y5689332D01*
X13533000Y5670973D01*
X14683000Y5670973D01*
X14735168Y5680789D01*
X14745856Y5673648D01*
X14920800Y5638850D01*
X14943473Y5638850D01*
X14943473Y5270500D01*
X14959410Y5185805D01*
X15009464Y5108017D01*
X15085839Y5055832D01*
X15176500Y5037473D01*
X16065500Y5037473D01*
X16150195Y5053410D01*
X16227983Y5103464D01*
X16280168Y5179839D01*
X16290669Y5231695D01*
X16380829Y5194350D01*
X16757613Y5194350D01*
X16840150Y5276887D01*
X16840150Y5854650D01*
X16820150Y5854650D01*
X16820150Y5956350D01*
X16840150Y5956350D01*
X16840150Y6534113D01*
X16757613Y6616650D01*
X16395650Y6616650D01*
X16395650Y6698770D01*
X16446500Y6688473D01*
X17335500Y6688473D01*
X17398180Y6700268D01*
X17436612Y6607485D01*
X17440097Y6604000D01*
X17437641Y6601544D01*
X17401171Y6616650D01*
X17024387Y6616650D01*
X16941850Y6534113D01*
X16941850Y5956350D01*
X16961850Y5956350D01*
X16961850Y5854650D01*
X16941850Y5854650D01*
X16941850Y5276887D01*
X17024387Y5194350D01*
X17401171Y5194350D01*
X17522515Y5244612D01*
X17526000Y5248097D01*
X17529485Y5244612D01*
X17650829Y5194350D01*
X17964113Y5194350D01*
X18046650Y5276887D01*
X18046650Y5918150D01*
X18026650Y5918150D01*
X18026650Y6019850D01*
X18046650Y6019850D01*
X18046650Y7188150D01*
X18148350Y7188150D01*
X18148350Y6019850D01*
X18726113Y6019850D01*
X18808650Y6102387D01*
X18808650Y6479171D01*
X18758388Y6600515D01*
X18754903Y6604000D01*
X18758388Y6607485D01*
X18808650Y6728829D01*
X18808650Y7105613D01*
X18726113Y7188150D01*
X18148350Y7188150D01*
X18046650Y7188150D01*
X18026650Y7188150D01*
X18026650Y7289850D01*
X18046650Y7289850D01*
X18046650Y7931113D01*
X18148350Y7931113D01*
X18148350Y7289850D01*
X18726113Y7289850D01*
X18808650Y7372387D01*
X18808650Y7749171D01*
X18758388Y7870515D01*
X18665515Y7963388D01*
X18544171Y8013650D01*
X18230887Y8013650D01*
X18148350Y7931113D01*
X18046650Y7931113D01*
X17964113Y8013650D01*
X17650829Y8013650D01*
X17529485Y7963388D01*
X17448798Y7882701D01*
X17426161Y7898168D01*
X17335500Y7916527D01*
X16707955Y7916527D01*
X16636591Y7987891D01*
X16617186Y8000857D01*
X16537723Y8053952D01*
X16421100Y8077150D01*
X14756632Y8077150D01*
X14591120Y8242662D01*
X14656546Y8229648D01*
X19507198Y8229648D01*
X19623821Y8252846D01*
X19722689Y8318907D01*
X20089513Y8685731D01*
X20089513Y8531860D01*
X20089513Y8531860D01*
G37*
X20089513Y8531860D02*
X20102695Y8461808D01*
X20005449Y8396831D01*
X19525145Y7916527D01*
X19113500Y7916527D01*
X19028805Y7900590D01*
X18951017Y7850536D01*
X18898832Y7774161D01*
X18880473Y7683500D01*
X18880473Y6794500D01*
X18896410Y6709805D01*
X18946464Y6632017D01*
X18987475Y6603995D01*
X18951017Y6580536D01*
X18898832Y6504161D01*
X18880473Y6413500D01*
X18880473Y5658581D01*
X18808650Y5586758D01*
X18808650Y5835613D01*
X18726113Y5918150D01*
X18148350Y5918150D01*
X18148350Y5276887D01*
X18230887Y5194350D01*
X18544171Y5194350D01*
X18599985Y5217469D01*
X18592850Y5181600D01*
X18592850Y4397803D01*
X18341834Y4649258D01*
X17977897Y4800378D01*
X17583832Y4800722D01*
X17219632Y4650237D01*
X16940742Y4371834D01*
X16789622Y4007897D01*
X16789278Y3613832D01*
X16939763Y3249632D01*
X17218166Y2970742D01*
X17582103Y2819622D01*
X17976168Y2819278D01*
X18340368Y2969763D01*
X18592850Y3221804D01*
X18592850Y2590750D01*
X14667358Y2590750D01*
X14477950Y2780158D01*
X14477950Y3171308D01*
X14678166Y2970742D01*
X15042103Y2819622D01*
X15436168Y2819278D01*
X15800368Y2969763D01*
X16079258Y3248166D01*
X16230378Y3612103D01*
X16230722Y4006168D01*
X16080237Y4370368D01*
X15801834Y4649258D01*
X15437897Y4800378D01*
X15043832Y4800722D01*
X14679632Y4650237D01*
X14400742Y4371834D01*
X14395974Y4360351D01*
X14344054Y4438054D01*
X13045277Y5736831D01*
X13045483Y5736964D01*
X13097668Y5813339D01*
X13116027Y5904000D01*
X13116027Y7191249D01*
X13258800Y7162850D01*
X13299973Y7162850D01*
X13299973Y5904000D01*
X13315910Y5819305D01*
X13365964Y5741517D01*
X13442339Y5689332D01*
X13533000Y5670973D01*
X14683000Y5670973D01*
X14735168Y5680789D01*
X14745856Y5673648D01*
X14920800Y5638850D01*
X14943473Y5638850D01*
X14943473Y5270500D01*
X14959410Y5185805D01*
X15009464Y5108017D01*
X15085839Y5055832D01*
X15176500Y5037473D01*
X16065500Y5037473D01*
X16150195Y5053410D01*
X16227983Y5103464D01*
X16280168Y5179839D01*
X16290669Y5231695D01*
X16380829Y5194350D01*
X16757613Y5194350D01*
X16840150Y5276887D01*
X16840150Y5854650D01*
X16820150Y5854650D01*
X16820150Y5956350D01*
X16840150Y5956350D01*
X16840150Y6534113D01*
X16757613Y6616650D01*
X16395650Y6616650D01*
X16395650Y6698770D01*
X16446500Y6688473D01*
X17335500Y6688473D01*
X17398180Y6700268D01*
X17436612Y6607485D01*
X17440097Y6604000D01*
X17437641Y6601544D01*
X17401171Y6616650D01*
X17024387Y6616650D01*
X16941850Y6534113D01*
X16941850Y5956350D01*
X16961850Y5956350D01*
X16961850Y5854650D01*
X16941850Y5854650D01*
X16941850Y5276887D01*
X17024387Y5194350D01*
X17401171Y5194350D01*
X17522515Y5244612D01*
X17526000Y5248097D01*
X17529485Y5244612D01*
X17650829Y5194350D01*
X17964113Y5194350D01*
X18046650Y5276887D01*
X18046650Y5918150D01*
X18026650Y5918150D01*
X18026650Y6019850D01*
X18046650Y6019850D01*
X18046650Y7188150D01*
X18148350Y7188150D01*
X18148350Y6019850D01*
X18726113Y6019850D01*
X18808650Y6102387D01*
X18808650Y6479171D01*
X18758388Y6600515D01*
X18754903Y6604000D01*
X18758388Y6607485D01*
X18808650Y6728829D01*
X18808650Y7105613D01*
X18726113Y7188150D01*
X18148350Y7188150D01*
X18046650Y7188150D01*
X18026650Y7188150D01*
X18026650Y7289850D01*
X18046650Y7289850D01*
X18046650Y7931113D01*
X18148350Y7931113D01*
X18148350Y7289850D01*
X18726113Y7289850D01*
X18808650Y7372387D01*
X18808650Y7749171D01*
X18758388Y7870515D01*
X18665515Y7963388D01*
X18544171Y8013650D01*
X18230887Y8013650D01*
X18148350Y7931113D01*
X18046650Y7931113D01*
X17964113Y8013650D01*
X17650829Y8013650D01*
X17529485Y7963388D01*
X17448798Y7882701D01*
X17426161Y7898168D01*
X17335500Y7916527D01*
X16707955Y7916527D01*
X16636591Y7987891D01*
X16617186Y8000857D01*
X16537723Y8053952D01*
X16421100Y8077150D01*
X14756632Y8077150D01*
X14591120Y8242662D01*
X14656546Y8229648D01*
X19507198Y8229648D01*
X19623821Y8252846D01*
X19722689Y8318907D01*
X20089513Y8685731D01*
X20089513Y8531860D01*
G36*
X49072850Y19927442D02*
X49072850Y19637803D01*
X48821834Y19889258D01*
X48457897Y20040378D01*
X48063832Y20040722D01*
X47699632Y19890237D01*
X47420742Y19611834D01*
X47269622Y19247897D01*
X47269278Y18853832D01*
X47419763Y18489632D01*
X47698166Y18210742D01*
X48062103Y18059622D01*
X48456168Y18059278D01*
X48713438Y18165580D01*
X48768048Y18110970D01*
X48768048Y16890134D01*
X48297691Y17360491D01*
X48198823Y17426552D01*
X48082200Y17449750D01*
X47515127Y17449750D01*
X47515127Y17589500D01*
X47499190Y17674195D01*
X47449136Y17751983D01*
X47372761Y17804168D01*
X47282100Y17822527D01*
X46520100Y17822527D01*
X46435405Y17806590D01*
X46357617Y17756536D01*
X46305432Y17680161D01*
X46287073Y17589500D01*
X46287073Y16700500D01*
X46303010Y16615805D01*
X46353064Y16538017D01*
X46429439Y16485832D01*
X46520100Y16467473D01*
X47282100Y16467473D01*
X47366795Y16483410D01*
X47444583Y16533464D01*
X47496768Y16609839D01*
X47515127Y16700500D01*
X47515127Y16840250D01*
X47955968Y16840250D01*
X48463246Y16332972D01*
X48463246Y13537432D01*
X47988230Y13062416D01*
X47906437Y13260368D01*
X47628034Y13539258D01*
X47264097Y13690378D01*
X46870032Y13690722D01*
X46505832Y13540237D01*
X46226942Y13261834D01*
X46075822Y12897897D01*
X46075478Y12503832D01*
X46225963Y12139632D01*
X46504366Y11860742D01*
X46868303Y11709622D01*
X47262368Y11709278D01*
X47626568Y11859763D01*
X47905458Y12138166D01*
X48012209Y12395250D01*
X48056796Y12395250D01*
X48173419Y12418448D01*
X48272287Y12484509D01*
X48768048Y12980270D01*
X48768048Y12062040D01*
X48250258Y11544250D01*
X45762527Y11544250D01*
X45762527Y11620500D01*
X45746590Y11705195D01*
X45696536Y11782983D01*
X45620161Y11835168D01*
X45529500Y11853527D01*
X44640500Y11853527D01*
X44555805Y11837590D01*
X44478017Y11787536D01*
X44449995Y11746525D01*
X44426536Y11782983D01*
X44350161Y11835168D01*
X44259500Y11853527D01*
X43370500Y11853527D01*
X43285805Y11837590D01*
X43208017Y11787536D01*
X43155832Y11711161D01*
X43137473Y11620500D01*
X43137473Y10858500D01*
X43153410Y10773805D01*
X43203464Y10696017D01*
X43279839Y10643832D01*
X43370500Y10625473D01*
X43998045Y10625473D01*
X44323409Y10300109D01*
X44422277Y10234048D01*
X44538900Y10210850D01*
X46075694Y10210850D01*
X46075478Y9963832D01*
X46225963Y9599632D01*
X46504366Y9320742D01*
X46563108Y9296350D01*
X45572027Y9296350D01*
X45572027Y9525000D01*
X45556090Y9609695D01*
X45506036Y9687483D01*
X45429661Y9739668D01*
X45339000Y9758027D01*
X44323000Y9758027D01*
X44238305Y9742090D01*
X44160517Y9692036D01*
X44108332Y9615661D01*
X44089973Y9525000D01*
X44089973Y8990750D01*
X44039781Y8990750D01*
X44027090Y9058195D01*
X43977036Y9135983D01*
X43900661Y9188168D01*
X43810000Y9206527D01*
X43185000Y9206527D01*
X43100305Y9190590D01*
X43022517Y9140536D01*
X42970332Y9064161D01*
X42951973Y8973500D01*
X42951973Y8398500D01*
X42967910Y8313805D01*
X43017964Y8236017D01*
X43094339Y8183832D01*
X43129850Y8176641D01*
X43129850Y8007387D01*
X43212387Y7924850D01*
X43571650Y7924850D01*
X43571650Y7944850D01*
X43673350Y7944850D01*
X43673350Y7924850D01*
X43693350Y7924850D01*
X43693350Y7823150D01*
X43673350Y7823150D01*
X43673350Y7803150D01*
X43571650Y7803150D01*
X43571650Y7823150D01*
X43212387Y7823150D01*
X43129850Y7740613D01*
X43129850Y7572149D01*
X43100305Y7566590D01*
X43022517Y7516536D01*
X42970332Y7440161D01*
X42951973Y7349500D01*
X42951973Y6774500D01*
X42967910Y6689805D01*
X42984694Y6663721D01*
X42933146Y6629278D01*
X42913709Y6616291D01*
X42689945Y6392527D01*
X42481500Y6392527D01*
X42396805Y6376590D01*
X42319017Y6326536D01*
X42266832Y6250161D01*
X42248473Y6159500D01*
X42248473Y5270500D01*
X42264410Y5185805D01*
X42314464Y5108017D01*
X42390839Y5055832D01*
X42481500Y5037473D01*
X43243500Y5037473D01*
X43328195Y5053410D01*
X43356484Y5071613D01*
X43437485Y4990612D01*
X43558829Y4940350D01*
X43872113Y4940350D01*
X43954650Y5022887D01*
X43954650Y5664150D01*
X44056350Y5664150D01*
X44056350Y5022887D01*
X44138887Y4940350D01*
X44452171Y4940350D01*
X44573515Y4990612D01*
X44666388Y5083485D01*
X44716650Y5204829D01*
X44716650Y5581613D01*
X44634113Y5664150D01*
X44056350Y5664150D01*
X43954650Y5664150D01*
X43934650Y5664150D01*
X43934650Y5765850D01*
X43954650Y5765850D01*
X43954650Y5785850D01*
X44056350Y5785850D01*
X44056350Y5765850D01*
X44634113Y5765850D01*
X44716650Y5848387D01*
X44716650Y6225171D01*
X44666388Y6346515D01*
X44619543Y6393360D01*
X44978155Y6751973D01*
X45339000Y6751973D01*
X45415250Y6766321D01*
X45415250Y6392527D01*
X45021500Y6392527D01*
X44936805Y6376590D01*
X44859017Y6326536D01*
X44806832Y6250161D01*
X44788473Y6159500D01*
X44788473Y5270500D01*
X44804410Y5185805D01*
X44854464Y5108017D01*
X44930839Y5055832D01*
X45021500Y5037473D01*
X45783500Y5037473D01*
X45868195Y5053410D01*
X45945983Y5103464D01*
X45974005Y5144475D01*
X45997464Y5108017D01*
X46073839Y5055832D01*
X46164500Y5037473D01*
X46634350Y5037473D01*
X46634350Y4191002D01*
X46560237Y4370368D01*
X46281834Y4649258D01*
X45917897Y4800378D01*
X45523832Y4800722D01*
X45159632Y4650237D01*
X44880742Y4371834D01*
X44729622Y4007897D01*
X44729278Y3613832D01*
X44879763Y3249632D01*
X45158166Y2970742D01*
X45522103Y2819622D01*
X45911574Y2819282D01*
X45683042Y2590750D01*
X34747150Y2590750D01*
X34747150Y3222197D01*
X34998166Y2970742D01*
X35362103Y2819622D01*
X35756168Y2819278D01*
X36120368Y2969763D01*
X36399258Y3248166D01*
X36550378Y3612103D01*
X36550722Y4006168D01*
X36400237Y4370368D01*
X36121834Y4649258D01*
X35757897Y4800378D01*
X35363832Y4800722D01*
X34999632Y4650237D01*
X34747150Y4398196D01*
X34747150Y4419600D01*
X34712352Y4594544D01*
X34613254Y4742854D01*
X34304044Y5052064D01*
X34311195Y5053410D01*
X34388983Y5103464D01*
X34441168Y5179839D01*
X34459527Y5270500D01*
X34459527Y5581613D01*
X34531350Y5581613D01*
X34531350Y5204829D01*
X34581612Y5083485D01*
X34674485Y4990612D01*
X34795829Y4940350D01*
X35109113Y4940350D01*
X35191650Y5022887D01*
X35191650Y5664150D01*
X35293350Y5664150D01*
X35293350Y5022887D01*
X35375887Y4940350D01*
X35689171Y4940350D01*
X35810515Y4990612D01*
X35814000Y4994097D01*
X35817485Y4990612D01*
X35938829Y4940350D01*
X36252113Y4940350D01*
X36334650Y5022887D01*
X36334650Y5664150D01*
X35293350Y5664150D01*
X35191650Y5664150D01*
X34613887Y5664150D01*
X34531350Y5581613D01*
X34459527Y5581613D01*
X34459527Y6159500D01*
X34443590Y6244195D01*
X34415131Y6288423D01*
X34557550Y6288423D01*
X34531350Y6225171D01*
X34531350Y5848387D01*
X34613887Y5765850D01*
X35191650Y5765850D01*
X35191650Y5785850D01*
X35293350Y5785850D01*
X35293350Y5765850D01*
X36334650Y5765850D01*
X36334650Y5785850D01*
X36436350Y5785850D01*
X36436350Y5765850D01*
X37014113Y5765850D01*
X37096650Y5848387D01*
X37096650Y6223050D01*
X37181342Y6223050D01*
X37168473Y6159500D01*
X37168473Y5531955D01*
X37096650Y5460132D01*
X37096650Y5581613D01*
X37014113Y5664150D01*
X36436350Y5664150D01*
X36436350Y5022887D01*
X36499922Y4959315D01*
X36499758Y4771176D01*
X36580784Y4575076D01*
X36730687Y4424911D01*
X36926645Y4343543D01*
X37138824Y4343358D01*
X37298172Y4409198D01*
X37260742Y4371834D01*
X37109622Y4007897D01*
X37109278Y3613832D01*
X37259763Y3249632D01*
X37538166Y2970742D01*
X37902103Y2819622D01*
X38296168Y2819278D01*
X38660368Y2969763D01*
X38939258Y3248166D01*
X39090378Y3612103D01*
X39090722Y4006168D01*
X38940237Y4370368D01*
X38661834Y4649258D01*
X38297897Y4800378D01*
X37903832Y4800722D01*
X37539632Y4650237D01*
X37500338Y4611012D01*
X37566457Y4770245D01*
X37566642Y4982424D01*
X37543896Y5037473D01*
X38163500Y5037473D01*
X38248195Y5053410D01*
X38325983Y5103464D01*
X38354005Y5144475D01*
X38377464Y5108017D01*
X38453839Y5055832D01*
X38544500Y5037473D01*
X39306500Y5037473D01*
X39391195Y5053410D01*
X39468983Y5103464D01*
X39521168Y5179839D01*
X39539527Y5270500D01*
X39539527Y5847545D01*
X39708473Y6016491D01*
X39708473Y5270500D01*
X39724410Y5185805D01*
X39774464Y5108017D01*
X39850839Y5055832D01*
X39941500Y5037473D01*
X40017750Y5037473D01*
X40017750Y4588463D01*
X39800742Y4371834D01*
X39649622Y4007897D01*
X39649278Y3613832D01*
X39799763Y3249632D01*
X40078166Y2970742D01*
X40442103Y2819622D01*
X40836168Y2819278D01*
X41200368Y2969763D01*
X41479258Y3248166D01*
X41630378Y3612103D01*
X41630379Y3613832D01*
X42189278Y3613832D01*
X42339763Y3249632D01*
X42618166Y2970742D01*
X42982103Y2819622D01*
X43376168Y2819278D01*
X43740368Y2969763D01*
X44019258Y3248166D01*
X44170378Y3612103D01*
X44170722Y4006168D01*
X44020237Y4370368D01*
X43741834Y4649258D01*
X43377897Y4800378D01*
X42983832Y4800722D01*
X42619632Y4650237D01*
X42340742Y4371834D01*
X42189622Y4007897D01*
X42189278Y3613832D01*
X41630379Y3613832D01*
X41630722Y4006168D01*
X41480237Y4370368D01*
X41201834Y4649258D01*
X40837897Y4800378D01*
X40627250Y4800562D01*
X40627250Y5037473D01*
X40703500Y5037473D01*
X40788195Y5053410D01*
X40816484Y5071613D01*
X40897485Y4990612D01*
X41018829Y4940350D01*
X41332113Y4940350D01*
X41414650Y5022887D01*
X41414650Y5664150D01*
X41516350Y5664150D01*
X41516350Y5022887D01*
X41598887Y4940350D01*
X41912171Y4940350D01*
X42033515Y4990612D01*
X42126388Y5083485D01*
X42176650Y5204829D01*
X42176650Y5581613D01*
X42094113Y5664150D01*
X41516350Y5664150D01*
X41414650Y5664150D01*
X41394650Y5664150D01*
X41394650Y5765850D01*
X41414650Y5765850D01*
X41414650Y6407113D01*
X41516350Y6407113D01*
X41516350Y5765850D01*
X42094113Y5765850D01*
X42176650Y5848387D01*
X42176650Y6225171D01*
X42126388Y6346515D01*
X42033515Y6439388D01*
X41912171Y6489650D01*
X41598887Y6489650D01*
X41516350Y6407113D01*
X41414650Y6407113D01*
X41332113Y6489650D01*
X41018829Y6489650D01*
X40897485Y6439388D01*
X40816798Y6358701D01*
X40794161Y6374168D01*
X40703500Y6392527D01*
X40084508Y6392527D01*
X40232954Y6540973D01*
X40635000Y6540973D01*
X40719695Y6556910D01*
X40797483Y6606964D01*
X40849668Y6683339D01*
X40868027Y6774000D01*
X40868027Y7349000D01*
X40852090Y7433695D01*
X40802036Y7511483D01*
X40725661Y7563668D01*
X40690150Y7570859D01*
X40690150Y7740613D01*
X40607613Y7823150D01*
X40248350Y7823150D01*
X40248350Y7803150D01*
X40146650Y7803150D01*
X40146650Y7823150D01*
X39787387Y7823150D01*
X39704850Y7740613D01*
X39704850Y7458329D01*
X39755112Y7336985D01*
X39776973Y7315124D01*
X39776973Y6946954D01*
X39222545Y6392527D01*
X38544500Y6392527D01*
X38459805Y6376590D01*
X38382017Y6326536D01*
X38353995Y6285525D01*
X38330536Y6321983D01*
X38254161Y6374168D01*
X38197451Y6385652D01*
X38239650Y6487529D01*
X38239650Y6864313D01*
X38157113Y6946850D01*
X37579350Y6946850D01*
X37579350Y6926850D01*
X37477650Y6926850D01*
X37477650Y6946850D01*
X36899887Y6946850D01*
X36817350Y6864313D01*
X36817350Y6489650D01*
X36732658Y6489650D01*
X36745527Y6553200D01*
X36745527Y7442200D01*
X36729590Y7526895D01*
X36679536Y7604683D01*
X36648098Y7626164D01*
X36674983Y7643464D01*
X36727168Y7719839D01*
X36745527Y7810500D01*
X36745527Y8121613D01*
X36817350Y8121613D01*
X36817350Y7744829D01*
X36866425Y7626350D01*
X36817350Y7507871D01*
X36817350Y7131087D01*
X36899887Y7048550D01*
X37477650Y7048550D01*
X37477650Y8204150D01*
X37579350Y8204150D01*
X37579350Y7048550D01*
X38157113Y7048550D01*
X38239650Y7131087D01*
X38239650Y7507871D01*
X38190575Y7626350D01*
X38239650Y7744829D01*
X38239650Y8121613D01*
X38157113Y8204150D01*
X37579350Y8204150D01*
X37477650Y8204150D01*
X36899887Y8204150D01*
X36817350Y8121613D01*
X36745527Y8121613D01*
X36745527Y8289671D01*
X39704850Y8289671D01*
X39704850Y8007387D01*
X39787387Y7924850D01*
X40146650Y7924850D01*
X40146650Y7944850D01*
X40248350Y7944850D01*
X40248350Y7924850D01*
X40607613Y7924850D01*
X40690150Y8007387D01*
X40690150Y8175851D01*
X40719695Y8181410D01*
X40797483Y8231464D01*
X40849668Y8307839D01*
X40868027Y8398500D01*
X40868027Y8973500D01*
X40852090Y9058195D01*
X40802036Y9135983D01*
X40725661Y9188168D01*
X40635000Y9206527D01*
X40010000Y9206527D01*
X39925305Y9190590D01*
X39847517Y9140536D01*
X39795332Y9064161D01*
X39776973Y8973500D01*
X39776973Y8432876D01*
X39755112Y8411015D01*
X39704850Y8289671D01*
X36745527Y8289671D01*
X36745527Y8699500D01*
X36729590Y8784195D01*
X36679536Y8861983D01*
X36603161Y8914168D01*
X36512500Y8932527D01*
X35750500Y8932527D01*
X35723686Y8927481D01*
X35691955Y8940657D01*
X35479776Y8940842D01*
X35294564Y8864315D01*
X35283806Y8881033D01*
X35207431Y8933218D01*
X35116770Y8951577D01*
X33999005Y8951577D01*
X33961609Y8988973D01*
X36402000Y8988973D01*
X36486695Y9004910D01*
X36564483Y9054964D01*
X36616668Y9131339D01*
X36635027Y9222000D01*
X36635027Y9667250D01*
X36787473Y9667250D01*
X36787473Y9080500D01*
X36803410Y8995805D01*
X36853464Y8918017D01*
X36880584Y8899487D01*
X36867612Y8886515D01*
X36817350Y8765171D01*
X36817350Y8388387D01*
X36899887Y8305850D01*
X37477650Y8305850D01*
X37477650Y8325850D01*
X37579350Y8325850D01*
X37579350Y8305850D01*
X38157113Y8305850D01*
X38239650Y8388387D01*
X38239650Y8765171D01*
X38221070Y8810027D01*
X38230485Y8800612D01*
X38351829Y8750350D01*
X38665113Y8750350D01*
X38747650Y8832887D01*
X38747650Y9474150D01*
X38849350Y9474150D01*
X38849350Y8832887D01*
X38931887Y8750350D01*
X39245171Y8750350D01*
X39366515Y8800612D01*
X39459388Y8893485D01*
X39509650Y9014829D01*
X39509650Y9391613D01*
X39427113Y9474150D01*
X38849350Y9474150D01*
X38747650Y9474150D01*
X38169887Y9474150D01*
X38087350Y9391613D01*
X38087350Y9014829D01*
X38105930Y8969973D01*
X38096515Y8979388D01*
X38002904Y9018163D01*
X38015527Y9080500D01*
X38015527Y9969500D01*
X37999590Y10054195D01*
X37949536Y10131983D01*
X37908525Y10160005D01*
X37944983Y10183464D01*
X37997168Y10259839D01*
X38015527Y10350500D01*
X38015527Y10661613D01*
X38087350Y10661613D01*
X38087350Y10284829D01*
X38137612Y10163485D01*
X38141097Y10160000D01*
X38137612Y10156515D01*
X38087350Y10035171D01*
X38087350Y9658387D01*
X38169887Y9575850D01*
X38747650Y9575850D01*
X38747650Y10744150D01*
X38849350Y10744150D01*
X38849350Y9575850D01*
X39427113Y9575850D01*
X39509650Y9658387D01*
X39509650Y10035171D01*
X39459388Y10156515D01*
X39455903Y10160000D01*
X39459388Y10163485D01*
X39509650Y10284829D01*
X39509650Y10661613D01*
X39427113Y10744150D01*
X38849350Y10744150D01*
X38747650Y10744150D01*
X38169887Y10744150D01*
X38087350Y10661613D01*
X38015527Y10661613D01*
X38015527Y11239500D01*
X38003170Y11305171D01*
X38087350Y11305171D01*
X38087350Y10928387D01*
X38169887Y10845850D01*
X38747650Y10845850D01*
X38747650Y11487113D01*
X38849350Y11487113D01*
X38849350Y10845850D01*
X39427113Y10845850D01*
X39509650Y10928387D01*
X39509650Y11305171D01*
X39459388Y11426515D01*
X39366515Y11519388D01*
X39245171Y11569650D01*
X38931887Y11569650D01*
X38849350Y11487113D01*
X38747650Y11487113D01*
X38665113Y11569650D01*
X38351829Y11569650D01*
X38230485Y11519388D01*
X38137612Y11426515D01*
X38087350Y11305171D01*
X38003170Y11305171D01*
X37999590Y11324195D01*
X37949536Y11401983D01*
X37873161Y11454168D01*
X37782500Y11472527D01*
X37020500Y11472527D01*
X36935805Y11456590D01*
X36894404Y11429950D01*
X36702232Y11429950D01*
X36635027Y11497155D01*
X36635027Y12295886D01*
X36815312Y12115601D01*
X36834754Y12086504D01*
X36879084Y12016141D01*
X36884179Y12012535D01*
X36887646Y12007346D01*
X36899246Y11995746D01*
X36901773Y11994058D01*
X36901773Y11938000D01*
X36917710Y11853305D01*
X36967764Y11775517D01*
X37044139Y11723332D01*
X37134800Y11704973D01*
X38150800Y11704973D01*
X38235495Y11720910D01*
X38313283Y11770964D01*
X38365468Y11847339D01*
X38383827Y11938000D01*
X38383827Y12185613D01*
X38582650Y12185613D01*
X38582650Y11872329D01*
X38632912Y11750985D01*
X38725785Y11658112D01*
X38847129Y11607850D01*
X39287413Y11607850D01*
X39369950Y11690387D01*
X39369950Y12268150D01*
X39471650Y12268150D01*
X39471650Y11690387D01*
X39554187Y11607850D01*
X39994471Y11607850D01*
X40115815Y11658112D01*
X40208688Y11750985D01*
X40258950Y11872329D01*
X40258950Y12185613D01*
X40176413Y12268150D01*
X39471650Y12268150D01*
X39369950Y12268150D01*
X38665187Y12268150D01*
X38582650Y12185613D01*
X38383827Y12185613D01*
X38383827Y12413519D01*
X38423254Y12452946D01*
X38522352Y12601256D01*
X38557150Y12776200D01*
X38557150Y13120748D01*
X38575290Y13147296D01*
X38607964Y13096517D01*
X38684339Y13044332D01*
X38775000Y13025973D01*
X38837045Y13025973D01*
X38725785Y12979888D01*
X38632912Y12887015D01*
X38582650Y12765671D01*
X38582650Y12452387D01*
X38665187Y12369850D01*
X39369950Y12369850D01*
X39369950Y12389850D01*
X39471650Y12389850D01*
X39471650Y12369850D01*
X40176413Y12369850D01*
X40258950Y12452387D01*
X40258950Y12765671D01*
X40208688Y12887015D01*
X40141653Y12954050D01*
X40843200Y12954050D01*
X41018144Y12988848D01*
X41166454Y13087946D01*
X42080854Y14002346D01*
X42179952Y14150656D01*
X42214750Y14325600D01*
X42214750Y14493757D01*
X42290857Y14677045D01*
X42291042Y14889224D01*
X42214750Y15073867D01*
X42214750Y15103357D01*
X42290857Y15286645D01*
X42291042Y15498824D01*
X42210016Y15694924D01*
X42060113Y15845089D01*
X41864155Y15926457D01*
X41651976Y15926642D01*
X41455876Y15845616D01*
X41305711Y15695713D01*
X41300350Y15682802D01*
X41300350Y16411555D01*
X41399829Y16370350D01*
X41713113Y16370350D01*
X41795650Y16452887D01*
X41795650Y17094150D01*
X41217887Y17094150D01*
X41135350Y17011613D01*
X41135350Y16890132D01*
X41063527Y16961955D01*
X41063527Y17589500D01*
X41051170Y17655171D01*
X41135350Y17655171D01*
X41135350Y17278387D01*
X41217887Y17195850D01*
X41795650Y17195850D01*
X41795650Y17837113D01*
X41713113Y17919650D01*
X41399829Y17919650D01*
X41278485Y17869388D01*
X41185612Y17776515D01*
X41135350Y17655171D01*
X41051170Y17655171D01*
X41047590Y17674195D01*
X40997536Y17751983D01*
X40921161Y17804168D01*
X40830500Y17822527D01*
X40068500Y17822527D01*
X39983805Y17806590D01*
X39906017Y17756536D01*
X39853832Y17680161D01*
X39835473Y17589500D01*
X39835473Y16700500D01*
X39851410Y16615805D01*
X39901464Y16538017D01*
X39977839Y16485832D01*
X40068500Y16467473D01*
X40690850Y16467473D01*
X40690850Y16307217D01*
X40635000Y16318527D01*
X40010000Y16318527D01*
X39925305Y16302590D01*
X39847517Y16252536D01*
X39795332Y16176161D01*
X39776973Y16085500D01*
X39776973Y15544876D01*
X39755112Y15523015D01*
X39704850Y15401671D01*
X39704850Y15119387D01*
X39787387Y15036850D01*
X40146650Y15036850D01*
X40146650Y15056850D01*
X40248350Y15056850D01*
X40248350Y15036850D01*
X40607613Y15036850D01*
X40690150Y15119387D01*
X40690150Y15287851D01*
X40690850Y15287982D01*
X40690850Y14682717D01*
X40690150Y14682859D01*
X40690150Y14852613D01*
X40607613Y14935150D01*
X40248350Y14935150D01*
X40248350Y14915150D01*
X40146650Y14915150D01*
X40146650Y14935150D01*
X39787387Y14935150D01*
X39704850Y14852613D01*
X39704850Y14757434D01*
X39696176Y14757442D01*
X39500076Y14676416D01*
X39398682Y14575199D01*
X39373254Y14613254D01*
X38970454Y15016054D01*
X38822144Y15115152D01*
X38647200Y15149950D01*
X38404650Y15149950D01*
X38404650Y16422142D01*
X38441508Y16459000D01*
X38541973Y16459000D01*
X38541973Y15659000D01*
X38557910Y15574305D01*
X38607964Y15496517D01*
X38684339Y15444332D01*
X38775000Y15425973D01*
X39325000Y15425973D01*
X39409695Y15441910D01*
X39487483Y15491964D01*
X39539668Y15568339D01*
X39558027Y15659000D01*
X39558027Y16459000D01*
X39542090Y16543695D01*
X39492036Y16621483D01*
X39415661Y16673668D01*
X39325000Y16692027D01*
X38775000Y16692027D01*
X38690305Y16676090D01*
X38612517Y16626036D01*
X38560332Y16549661D01*
X38541973Y16459000D01*
X38441508Y16459000D01*
X39642454Y17659946D01*
X39741552Y17808256D01*
X39776350Y17983200D01*
X39776350Y18303757D01*
X39837736Y18451593D01*
X40078166Y18210742D01*
X40442103Y18059622D01*
X40836168Y18059278D01*
X41200368Y18209763D01*
X41479258Y18488166D01*
X41599317Y18777301D01*
X42562708Y17813910D01*
X42523805Y17806590D01*
X42495516Y17788387D01*
X42414515Y17869388D01*
X42293171Y17919650D01*
X41979887Y17919650D01*
X41897350Y17837113D01*
X41897350Y17195850D01*
X41917350Y17195850D01*
X41917350Y17094150D01*
X41897350Y17094150D01*
X41897350Y16452887D01*
X41979887Y16370350D01*
X42293171Y16370350D01*
X42414515Y16420612D01*
X42495202Y16501299D01*
X42517839Y16485832D01*
X42608500Y16467473D01*
X42684750Y16467473D01*
X42684750Y16306000D01*
X42707948Y16189377D01*
X42764454Y16104809D01*
X42774009Y16090509D01*
X42951973Y15912545D01*
X42951973Y15510500D01*
X42967910Y15425805D01*
X43017964Y15348017D01*
X43094339Y15295832D01*
X43129850Y15288641D01*
X43129850Y15119387D01*
X43212387Y15036850D01*
X43571650Y15036850D01*
X43571650Y15056850D01*
X43673350Y15056850D01*
X43673350Y15036850D01*
X44032613Y15036850D01*
X44035097Y15039334D01*
X44107100Y15024753D01*
X44437465Y15024753D01*
X44742509Y14719709D01*
X44841377Y14653648D01*
X44874541Y14647051D01*
X44843777Y14627256D01*
X44831453Y14609219D01*
X44822776Y14622703D01*
X44746401Y14674888D01*
X44655740Y14693247D01*
X44115150Y14693247D01*
X44115150Y14852613D01*
X44032613Y14935150D01*
X43673350Y14935150D01*
X43673350Y14915150D01*
X43571650Y14915150D01*
X43571650Y14935150D01*
X43212387Y14935150D01*
X43129850Y14852613D01*
X43129850Y14684149D01*
X43100305Y14678590D01*
X43022517Y14628536D01*
X42970332Y14552161D01*
X42951973Y14461500D01*
X42951973Y13886500D01*
X42967910Y13801805D01*
X43017964Y13724017D01*
X43094339Y13671832D01*
X43185000Y13653473D01*
X43810000Y13653473D01*
X43865296Y13663878D01*
X43599509Y13398091D01*
X43533448Y13299223D01*
X43523762Y13250527D01*
X43370500Y13250527D01*
X43285805Y13234590D01*
X43208017Y13184536D01*
X43155832Y13108161D01*
X43137473Y13017500D01*
X43137473Y12255500D01*
X43153410Y12170805D01*
X43203464Y12093017D01*
X43279839Y12040832D01*
X43370500Y12022473D01*
X44259500Y12022473D01*
X44344195Y12038410D01*
X44421983Y12088464D01*
X44450005Y12129475D01*
X44473464Y12093017D01*
X44549839Y12040832D01*
X44640500Y12022473D01*
X45529500Y12022473D01*
X45614195Y12038410D01*
X45691983Y12088464D01*
X45744168Y12164839D01*
X45762527Y12255500D01*
X45762527Y13017500D01*
X45746590Y13102195D01*
X45696536Y13179983D01*
X45620161Y13232168D01*
X45585330Y13239221D01*
X45585330Y13435359D01*
X45639595Y13445570D01*
X45717383Y13495624D01*
X45769568Y13571999D01*
X45787927Y13662660D01*
X45787927Y14460220D01*
X45771990Y14544915D01*
X45721936Y14622703D01*
X45678355Y14652481D01*
X45684223Y14653648D01*
X45783091Y14719709D01*
X45974050Y14910668D01*
X45974050Y14412329D01*
X46024312Y14290985D01*
X46117185Y14198112D01*
X46238529Y14147850D01*
X46932813Y14147850D01*
X47015350Y14230387D01*
X47015350Y15189150D01*
X47117050Y15189150D01*
X47117050Y14230387D01*
X47199587Y14147850D01*
X47893871Y14147850D01*
X48015215Y14198112D01*
X48108088Y14290985D01*
X48158350Y14412329D01*
X48158350Y15106613D01*
X48075813Y15189150D01*
X47117050Y15189150D01*
X47015350Y15189150D01*
X46995350Y15189150D01*
X46995350Y15290850D01*
X47015350Y15290850D01*
X47015350Y16249613D01*
X47117050Y16249613D01*
X47117050Y15290850D01*
X48075813Y15290850D01*
X48158350Y15373387D01*
X48158350Y16067671D01*
X48108088Y16189015D01*
X48015215Y16281888D01*
X47893871Y16332150D01*
X47199587Y16332150D01*
X47117050Y16249613D01*
X47015350Y16249613D01*
X46932813Y16332150D01*
X46238529Y16332150D01*
X46177150Y16306726D01*
X46177150Y16611600D01*
X46153952Y16728223D01*
X46118127Y16781839D01*
X46118127Y17589500D01*
X46102190Y17674195D01*
X46052136Y17751983D01*
X45975761Y17804168D01*
X45885100Y17822527D01*
X45123100Y17822527D01*
X45038405Y17806590D01*
X44960617Y17756536D01*
X44945676Y17734670D01*
X44934536Y17751983D01*
X44858161Y17804168D01*
X44767500Y17822527D01*
X44139955Y17822527D01*
X43763791Y18198691D01*
X43745755Y18210742D01*
X43743116Y18212506D01*
X44019258Y18488166D01*
X44170378Y18852103D01*
X44170379Y18853832D01*
X44729278Y18853832D01*
X44879763Y18489632D01*
X45158166Y18210742D01*
X45522103Y18059622D01*
X45916168Y18059278D01*
X46280368Y18209763D01*
X46559258Y18488166D01*
X46710378Y18852103D01*
X46710722Y19246168D01*
X46560237Y19610368D01*
X46281834Y19889258D01*
X45917897Y20040378D01*
X45523832Y20040722D01*
X45159632Y19890237D01*
X44880742Y19611834D01*
X44729622Y19247897D01*
X44729278Y18853832D01*
X44170379Y18853832D01*
X44170722Y19246168D01*
X44020237Y19610368D01*
X43741834Y19889258D01*
X43377897Y20040378D01*
X42983832Y20040722D01*
X42619632Y19890237D01*
X42340742Y19611834D01*
X42189622Y19247897D01*
X42189448Y19049134D01*
X42062350Y19176232D01*
X42062350Y20269250D01*
X48731042Y20269250D01*
X49072850Y19927442D01*
X49072850Y19927442D01*
G37*
X49072850Y19927442D02*
X49072850Y19637803D01*
X48821834Y19889258D01*
X48457897Y20040378D01*
X48063832Y20040722D01*
X47699632Y19890237D01*
X47420742Y19611834D01*
X47269622Y19247897D01*
X47269278Y18853832D01*
X47419763Y18489632D01*
X47698166Y18210742D01*
X48062103Y18059622D01*
X48456168Y18059278D01*
X48713438Y18165580D01*
X48768048Y18110970D01*
X48768048Y16890134D01*
X48297691Y17360491D01*
X48198823Y17426552D01*
X48082200Y17449750D01*
X47515127Y17449750D01*
X47515127Y17589500D01*
X47499190Y17674195D01*
X47449136Y17751983D01*
X47372761Y17804168D01*
X47282100Y17822527D01*
X46520100Y17822527D01*
X46435405Y17806590D01*
X46357617Y17756536D01*
X46305432Y17680161D01*
X46287073Y17589500D01*
X46287073Y16700500D01*
X46303010Y16615805D01*
X46353064Y16538017D01*
X46429439Y16485832D01*
X46520100Y16467473D01*
X47282100Y16467473D01*
X47366795Y16483410D01*
X47444583Y16533464D01*
X47496768Y16609839D01*
X47515127Y16700500D01*
X47515127Y16840250D01*
X47955968Y16840250D01*
X48463246Y16332972D01*
X48463246Y13537432D01*
X47988230Y13062416D01*
X47906437Y13260368D01*
X47628034Y13539258D01*
X47264097Y13690378D01*
X46870032Y13690722D01*
X46505832Y13540237D01*
X46226942Y13261834D01*
X46075822Y12897897D01*
X46075478Y12503832D01*
X46225963Y12139632D01*
X46504366Y11860742D01*
X46868303Y11709622D01*
X47262368Y11709278D01*
X47626568Y11859763D01*
X47905458Y12138166D01*
X48012209Y12395250D01*
X48056796Y12395250D01*
X48173419Y12418448D01*
X48272287Y12484509D01*
X48768048Y12980270D01*
X48768048Y12062040D01*
X48250258Y11544250D01*
X45762527Y11544250D01*
X45762527Y11620500D01*
X45746590Y11705195D01*
X45696536Y11782983D01*
X45620161Y11835168D01*
X45529500Y11853527D01*
X44640500Y11853527D01*
X44555805Y11837590D01*
X44478017Y11787536D01*
X44449995Y11746525D01*
X44426536Y11782983D01*
X44350161Y11835168D01*
X44259500Y11853527D01*
X43370500Y11853527D01*
X43285805Y11837590D01*
X43208017Y11787536D01*
X43155832Y11711161D01*
X43137473Y11620500D01*
X43137473Y10858500D01*
X43153410Y10773805D01*
X43203464Y10696017D01*
X43279839Y10643832D01*
X43370500Y10625473D01*
X43998045Y10625473D01*
X44323409Y10300109D01*
X44422277Y10234048D01*
X44538900Y10210850D01*
X46075694Y10210850D01*
X46075478Y9963832D01*
X46225963Y9599632D01*
X46504366Y9320742D01*
X46563108Y9296350D01*
X45572027Y9296350D01*
X45572027Y9525000D01*
X45556090Y9609695D01*
X45506036Y9687483D01*
X45429661Y9739668D01*
X45339000Y9758027D01*
X44323000Y9758027D01*
X44238305Y9742090D01*
X44160517Y9692036D01*
X44108332Y9615661D01*
X44089973Y9525000D01*
X44089973Y8990750D01*
X44039781Y8990750D01*
X44027090Y9058195D01*
X43977036Y9135983D01*
X43900661Y9188168D01*
X43810000Y9206527D01*
X43185000Y9206527D01*
X43100305Y9190590D01*
X43022517Y9140536D01*
X42970332Y9064161D01*
X42951973Y8973500D01*
X42951973Y8398500D01*
X42967910Y8313805D01*
X43017964Y8236017D01*
X43094339Y8183832D01*
X43129850Y8176641D01*
X43129850Y8007387D01*
X43212387Y7924850D01*
X43571650Y7924850D01*
X43571650Y7944850D01*
X43673350Y7944850D01*
X43673350Y7924850D01*
X43693350Y7924850D01*
X43693350Y7823150D01*
X43673350Y7823150D01*
X43673350Y7803150D01*
X43571650Y7803150D01*
X43571650Y7823150D01*
X43212387Y7823150D01*
X43129850Y7740613D01*
X43129850Y7572149D01*
X43100305Y7566590D01*
X43022517Y7516536D01*
X42970332Y7440161D01*
X42951973Y7349500D01*
X42951973Y6774500D01*
X42967910Y6689805D01*
X42984694Y6663721D01*
X42933146Y6629278D01*
X42913709Y6616291D01*
X42689945Y6392527D01*
X42481500Y6392527D01*
X42396805Y6376590D01*
X42319017Y6326536D01*
X42266832Y6250161D01*
X42248473Y6159500D01*
X42248473Y5270500D01*
X42264410Y5185805D01*
X42314464Y5108017D01*
X42390839Y5055832D01*
X42481500Y5037473D01*
X43243500Y5037473D01*
X43328195Y5053410D01*
X43356484Y5071613D01*
X43437485Y4990612D01*
X43558829Y4940350D01*
X43872113Y4940350D01*
X43954650Y5022887D01*
X43954650Y5664150D01*
X44056350Y5664150D01*
X44056350Y5022887D01*
X44138887Y4940350D01*
X44452171Y4940350D01*
X44573515Y4990612D01*
X44666388Y5083485D01*
X44716650Y5204829D01*
X44716650Y5581613D01*
X44634113Y5664150D01*
X44056350Y5664150D01*
X43954650Y5664150D01*
X43934650Y5664150D01*
X43934650Y5765850D01*
X43954650Y5765850D01*
X43954650Y5785850D01*
X44056350Y5785850D01*
X44056350Y5765850D01*
X44634113Y5765850D01*
X44716650Y5848387D01*
X44716650Y6225171D01*
X44666388Y6346515D01*
X44619543Y6393360D01*
X44978155Y6751973D01*
X45339000Y6751973D01*
X45415250Y6766321D01*
X45415250Y6392527D01*
X45021500Y6392527D01*
X44936805Y6376590D01*
X44859017Y6326536D01*
X44806832Y6250161D01*
X44788473Y6159500D01*
X44788473Y5270500D01*
X44804410Y5185805D01*
X44854464Y5108017D01*
X44930839Y5055832D01*
X45021500Y5037473D01*
X45783500Y5037473D01*
X45868195Y5053410D01*
X45945983Y5103464D01*
X45974005Y5144475D01*
X45997464Y5108017D01*
X46073839Y5055832D01*
X46164500Y5037473D01*
X46634350Y5037473D01*
X46634350Y4191002D01*
X46560237Y4370368D01*
X46281834Y4649258D01*
X45917897Y4800378D01*
X45523832Y4800722D01*
X45159632Y4650237D01*
X44880742Y4371834D01*
X44729622Y4007897D01*
X44729278Y3613832D01*
X44879763Y3249632D01*
X45158166Y2970742D01*
X45522103Y2819622D01*
X45911574Y2819282D01*
X45683042Y2590750D01*
X34747150Y2590750D01*
X34747150Y3222197D01*
X34998166Y2970742D01*
X35362103Y2819622D01*
X35756168Y2819278D01*
X36120368Y2969763D01*
X36399258Y3248166D01*
X36550378Y3612103D01*
X36550722Y4006168D01*
X36400237Y4370368D01*
X36121834Y4649258D01*
X35757897Y4800378D01*
X35363832Y4800722D01*
X34999632Y4650237D01*
X34747150Y4398196D01*
X34747150Y4419600D01*
X34712352Y4594544D01*
X34613254Y4742854D01*
X34304044Y5052064D01*
X34311195Y5053410D01*
X34388983Y5103464D01*
X34441168Y5179839D01*
X34459527Y5270500D01*
X34459527Y5581613D01*
X34531350Y5581613D01*
X34531350Y5204829D01*
X34581612Y5083485D01*
X34674485Y4990612D01*
X34795829Y4940350D01*
X35109113Y4940350D01*
X35191650Y5022887D01*
X35191650Y5664150D01*
X35293350Y5664150D01*
X35293350Y5022887D01*
X35375887Y4940350D01*
X35689171Y4940350D01*
X35810515Y4990612D01*
X35814000Y4994097D01*
X35817485Y4990612D01*
X35938829Y4940350D01*
X36252113Y4940350D01*
X36334650Y5022887D01*
X36334650Y5664150D01*
X35293350Y5664150D01*
X35191650Y5664150D01*
X34613887Y5664150D01*
X34531350Y5581613D01*
X34459527Y5581613D01*
X34459527Y6159500D01*
X34443590Y6244195D01*
X34415131Y6288423D01*
X34557550Y6288423D01*
X34531350Y6225171D01*
X34531350Y5848387D01*
X34613887Y5765850D01*
X35191650Y5765850D01*
X35191650Y5785850D01*
X35293350Y5785850D01*
X35293350Y5765850D01*
X36334650Y5765850D01*
X36334650Y5785850D01*
X36436350Y5785850D01*
X36436350Y5765850D01*
X37014113Y5765850D01*
X37096650Y5848387D01*
X37096650Y6223050D01*
X37181342Y6223050D01*
X37168473Y6159500D01*
X37168473Y5531955D01*
X37096650Y5460132D01*
X37096650Y5581613D01*
X37014113Y5664150D01*
X36436350Y5664150D01*
X36436350Y5022887D01*
X36499922Y4959315D01*
X36499758Y4771176D01*
X36580784Y4575076D01*
X36730687Y4424911D01*
X36926645Y4343543D01*
X37138824Y4343358D01*
X37298172Y4409198D01*
X37260742Y4371834D01*
X37109622Y4007897D01*
X37109278Y3613832D01*
X37259763Y3249632D01*
X37538166Y2970742D01*
X37902103Y2819622D01*
X38296168Y2819278D01*
X38660368Y2969763D01*
X38939258Y3248166D01*
X39090378Y3612103D01*
X39090722Y4006168D01*
X38940237Y4370368D01*
X38661834Y4649258D01*
X38297897Y4800378D01*
X37903832Y4800722D01*
X37539632Y4650237D01*
X37500338Y4611012D01*
X37566457Y4770245D01*
X37566642Y4982424D01*
X37543896Y5037473D01*
X38163500Y5037473D01*
X38248195Y5053410D01*
X38325983Y5103464D01*
X38354005Y5144475D01*
X38377464Y5108017D01*
X38453839Y5055832D01*
X38544500Y5037473D01*
X39306500Y5037473D01*
X39391195Y5053410D01*
X39468983Y5103464D01*
X39521168Y5179839D01*
X39539527Y5270500D01*
X39539527Y5847545D01*
X39708473Y6016491D01*
X39708473Y5270500D01*
X39724410Y5185805D01*
X39774464Y5108017D01*
X39850839Y5055832D01*
X39941500Y5037473D01*
X40017750Y5037473D01*
X40017750Y4588463D01*
X39800742Y4371834D01*
X39649622Y4007897D01*
X39649278Y3613832D01*
X39799763Y3249632D01*
X40078166Y2970742D01*
X40442103Y2819622D01*
X40836168Y2819278D01*
X41200368Y2969763D01*
X41479258Y3248166D01*
X41630378Y3612103D01*
X41630379Y3613832D01*
X42189278Y3613832D01*
X42339763Y3249632D01*
X42618166Y2970742D01*
X42982103Y2819622D01*
X43376168Y2819278D01*
X43740368Y2969763D01*
X44019258Y3248166D01*
X44170378Y3612103D01*
X44170722Y4006168D01*
X44020237Y4370368D01*
X43741834Y4649258D01*
X43377897Y4800378D01*
X42983832Y4800722D01*
X42619632Y4650237D01*
X42340742Y4371834D01*
X42189622Y4007897D01*
X42189278Y3613832D01*
X41630379Y3613832D01*
X41630722Y4006168D01*
X41480237Y4370368D01*
X41201834Y4649258D01*
X40837897Y4800378D01*
X40627250Y4800562D01*
X40627250Y5037473D01*
X40703500Y5037473D01*
X40788195Y5053410D01*
X40816484Y5071613D01*
X40897485Y4990612D01*
X41018829Y4940350D01*
X41332113Y4940350D01*
X41414650Y5022887D01*
X41414650Y5664150D01*
X41516350Y5664150D01*
X41516350Y5022887D01*
X41598887Y4940350D01*
X41912171Y4940350D01*
X42033515Y4990612D01*
X42126388Y5083485D01*
X42176650Y5204829D01*
X42176650Y5581613D01*
X42094113Y5664150D01*
X41516350Y5664150D01*
X41414650Y5664150D01*
X41394650Y5664150D01*
X41394650Y5765850D01*
X41414650Y5765850D01*
X41414650Y6407113D01*
X41516350Y6407113D01*
X41516350Y5765850D01*
X42094113Y5765850D01*
X42176650Y5848387D01*
X42176650Y6225171D01*
X42126388Y6346515D01*
X42033515Y6439388D01*
X41912171Y6489650D01*
X41598887Y6489650D01*
X41516350Y6407113D01*
X41414650Y6407113D01*
X41332113Y6489650D01*
X41018829Y6489650D01*
X40897485Y6439388D01*
X40816798Y6358701D01*
X40794161Y6374168D01*
X40703500Y6392527D01*
X40084508Y6392527D01*
X40232954Y6540973D01*
X40635000Y6540973D01*
X40719695Y6556910D01*
X40797483Y6606964D01*
X40849668Y6683339D01*
X40868027Y6774000D01*
X40868027Y7349000D01*
X40852090Y7433695D01*
X40802036Y7511483D01*
X40725661Y7563668D01*
X40690150Y7570859D01*
X40690150Y7740613D01*
X40607613Y7823150D01*
X40248350Y7823150D01*
X40248350Y7803150D01*
X40146650Y7803150D01*
X40146650Y7823150D01*
X39787387Y7823150D01*
X39704850Y7740613D01*
X39704850Y7458329D01*
X39755112Y7336985D01*
X39776973Y7315124D01*
X39776973Y6946954D01*
X39222545Y6392527D01*
X38544500Y6392527D01*
X38459805Y6376590D01*
X38382017Y6326536D01*
X38353995Y6285525D01*
X38330536Y6321983D01*
X38254161Y6374168D01*
X38197451Y6385652D01*
X38239650Y6487529D01*
X38239650Y6864313D01*
X38157113Y6946850D01*
X37579350Y6946850D01*
X37579350Y6926850D01*
X37477650Y6926850D01*
X37477650Y6946850D01*
X36899887Y6946850D01*
X36817350Y6864313D01*
X36817350Y6489650D01*
X36732658Y6489650D01*
X36745527Y6553200D01*
X36745527Y7442200D01*
X36729590Y7526895D01*
X36679536Y7604683D01*
X36648098Y7626164D01*
X36674983Y7643464D01*
X36727168Y7719839D01*
X36745527Y7810500D01*
X36745527Y8121613D01*
X36817350Y8121613D01*
X36817350Y7744829D01*
X36866425Y7626350D01*
X36817350Y7507871D01*
X36817350Y7131087D01*
X36899887Y7048550D01*
X37477650Y7048550D01*
X37477650Y8204150D01*
X37579350Y8204150D01*
X37579350Y7048550D01*
X38157113Y7048550D01*
X38239650Y7131087D01*
X38239650Y7507871D01*
X38190575Y7626350D01*
X38239650Y7744829D01*
X38239650Y8121613D01*
X38157113Y8204150D01*
X37579350Y8204150D01*
X37477650Y8204150D01*
X36899887Y8204150D01*
X36817350Y8121613D01*
X36745527Y8121613D01*
X36745527Y8289671D01*
X39704850Y8289671D01*
X39704850Y8007387D01*
X39787387Y7924850D01*
X40146650Y7924850D01*
X40146650Y7944850D01*
X40248350Y7944850D01*
X40248350Y7924850D01*
X40607613Y7924850D01*
X40690150Y8007387D01*
X40690150Y8175851D01*
X40719695Y8181410D01*
X40797483Y8231464D01*
X40849668Y8307839D01*
X40868027Y8398500D01*
X40868027Y8973500D01*
X40852090Y9058195D01*
X40802036Y9135983D01*
X40725661Y9188168D01*
X40635000Y9206527D01*
X40010000Y9206527D01*
X39925305Y9190590D01*
X39847517Y9140536D01*
X39795332Y9064161D01*
X39776973Y8973500D01*
X39776973Y8432876D01*
X39755112Y8411015D01*
X39704850Y8289671D01*
X36745527Y8289671D01*
X36745527Y8699500D01*
X36729590Y8784195D01*
X36679536Y8861983D01*
X36603161Y8914168D01*
X36512500Y8932527D01*
X35750500Y8932527D01*
X35723686Y8927481D01*
X35691955Y8940657D01*
X35479776Y8940842D01*
X35294564Y8864315D01*
X35283806Y8881033D01*
X35207431Y8933218D01*
X35116770Y8951577D01*
X33999005Y8951577D01*
X33961609Y8988973D01*
X36402000Y8988973D01*
X36486695Y9004910D01*
X36564483Y9054964D01*
X36616668Y9131339D01*
X36635027Y9222000D01*
X36635027Y9667250D01*
X36787473Y9667250D01*
X36787473Y9080500D01*
X36803410Y8995805D01*
X36853464Y8918017D01*
X36880584Y8899487D01*
X36867612Y8886515D01*
X36817350Y8765171D01*
X36817350Y8388387D01*
X36899887Y8305850D01*
X37477650Y8305850D01*
X37477650Y8325850D01*
X37579350Y8325850D01*
X37579350Y8305850D01*
X38157113Y8305850D01*
X38239650Y8388387D01*
X38239650Y8765171D01*
X38221070Y8810027D01*
X38230485Y8800612D01*
X38351829Y8750350D01*
X38665113Y8750350D01*
X38747650Y8832887D01*
X38747650Y9474150D01*
X38849350Y9474150D01*
X38849350Y8832887D01*
X38931887Y8750350D01*
X39245171Y8750350D01*
X39366515Y8800612D01*
X39459388Y8893485D01*
X39509650Y9014829D01*
X39509650Y9391613D01*
X39427113Y9474150D01*
X38849350Y9474150D01*
X38747650Y9474150D01*
X38169887Y9474150D01*
X38087350Y9391613D01*
X38087350Y9014829D01*
X38105930Y8969973D01*
X38096515Y8979388D01*
X38002904Y9018163D01*
X38015527Y9080500D01*
X38015527Y9969500D01*
X37999590Y10054195D01*
X37949536Y10131983D01*
X37908525Y10160005D01*
X37944983Y10183464D01*
X37997168Y10259839D01*
X38015527Y10350500D01*
X38015527Y10661613D01*
X38087350Y10661613D01*
X38087350Y10284829D01*
X38137612Y10163485D01*
X38141097Y10160000D01*
X38137612Y10156515D01*
X38087350Y10035171D01*
X38087350Y9658387D01*
X38169887Y9575850D01*
X38747650Y9575850D01*
X38747650Y10744150D01*
X38849350Y10744150D01*
X38849350Y9575850D01*
X39427113Y9575850D01*
X39509650Y9658387D01*
X39509650Y10035171D01*
X39459388Y10156515D01*
X39455903Y10160000D01*
X39459388Y10163485D01*
X39509650Y10284829D01*
X39509650Y10661613D01*
X39427113Y10744150D01*
X38849350Y10744150D01*
X38747650Y10744150D01*
X38169887Y10744150D01*
X38087350Y10661613D01*
X38015527Y10661613D01*
X38015527Y11239500D01*
X38003170Y11305171D01*
X38087350Y11305171D01*
X38087350Y10928387D01*
X38169887Y10845850D01*
X38747650Y10845850D01*
X38747650Y11487113D01*
X38849350Y11487113D01*
X38849350Y10845850D01*
X39427113Y10845850D01*
X39509650Y10928387D01*
X39509650Y11305171D01*
X39459388Y11426515D01*
X39366515Y11519388D01*
X39245171Y11569650D01*
X38931887Y11569650D01*
X38849350Y11487113D01*
X38747650Y11487113D01*
X38665113Y11569650D01*
X38351829Y11569650D01*
X38230485Y11519388D01*
X38137612Y11426515D01*
X38087350Y11305171D01*
X38003170Y11305171D01*
X37999590Y11324195D01*
X37949536Y11401983D01*
X37873161Y11454168D01*
X37782500Y11472527D01*
X37020500Y11472527D01*
X36935805Y11456590D01*
X36894404Y11429950D01*
X36702232Y11429950D01*
X36635027Y11497155D01*
X36635027Y12295886D01*
X36815312Y12115601D01*
X36834754Y12086504D01*
X36879084Y12016141D01*
X36884179Y12012535D01*
X36887646Y12007346D01*
X36899246Y11995746D01*
X36901773Y11994058D01*
X36901773Y11938000D01*
X36917710Y11853305D01*
X36967764Y11775517D01*
X37044139Y11723332D01*
X37134800Y11704973D01*
X38150800Y11704973D01*
X38235495Y11720910D01*
X38313283Y11770964D01*
X38365468Y11847339D01*
X38383827Y11938000D01*
X38383827Y12185613D01*
X38582650Y12185613D01*
X38582650Y11872329D01*
X38632912Y11750985D01*
X38725785Y11658112D01*
X38847129Y11607850D01*
X39287413Y11607850D01*
X39369950Y11690387D01*
X39369950Y12268150D01*
X39471650Y12268150D01*
X39471650Y11690387D01*
X39554187Y11607850D01*
X39994471Y11607850D01*
X40115815Y11658112D01*
X40208688Y11750985D01*
X40258950Y11872329D01*
X40258950Y12185613D01*
X40176413Y12268150D01*
X39471650Y12268150D01*
X39369950Y12268150D01*
X38665187Y12268150D01*
X38582650Y12185613D01*
X38383827Y12185613D01*
X38383827Y12413519D01*
X38423254Y12452946D01*
X38522352Y12601256D01*
X38557150Y12776200D01*
X38557150Y13120748D01*
X38575290Y13147296D01*
X38607964Y13096517D01*
X38684339Y13044332D01*
X38775000Y13025973D01*
X38837045Y13025973D01*
X38725785Y12979888D01*
X38632912Y12887015D01*
X38582650Y12765671D01*
X38582650Y12452387D01*
X38665187Y12369850D01*
X39369950Y12369850D01*
X39369950Y12389850D01*
X39471650Y12389850D01*
X39471650Y12369850D01*
X40176413Y12369850D01*
X40258950Y12452387D01*
X40258950Y12765671D01*
X40208688Y12887015D01*
X40141653Y12954050D01*
X40843200Y12954050D01*
X41018144Y12988848D01*
X41166454Y13087946D01*
X42080854Y14002346D01*
X42179952Y14150656D01*
X42214750Y14325600D01*
X42214750Y14493757D01*
X42290857Y14677045D01*
X42291042Y14889224D01*
X42214750Y15073867D01*
X42214750Y15103357D01*
X42290857Y15286645D01*
X42291042Y15498824D01*
X42210016Y15694924D01*
X42060113Y15845089D01*
X41864155Y15926457D01*
X41651976Y15926642D01*
X41455876Y15845616D01*
X41305711Y15695713D01*
X41300350Y15682802D01*
X41300350Y16411555D01*
X41399829Y16370350D01*
X41713113Y16370350D01*
X41795650Y16452887D01*
X41795650Y17094150D01*
X41217887Y17094150D01*
X41135350Y17011613D01*
X41135350Y16890132D01*
X41063527Y16961955D01*
X41063527Y17589500D01*
X41051170Y17655171D01*
X41135350Y17655171D01*
X41135350Y17278387D01*
X41217887Y17195850D01*
X41795650Y17195850D01*
X41795650Y17837113D01*
X41713113Y17919650D01*
X41399829Y17919650D01*
X41278485Y17869388D01*
X41185612Y17776515D01*
X41135350Y17655171D01*
X41051170Y17655171D01*
X41047590Y17674195D01*
X40997536Y17751983D01*
X40921161Y17804168D01*
X40830500Y17822527D01*
X40068500Y17822527D01*
X39983805Y17806590D01*
X39906017Y17756536D01*
X39853832Y17680161D01*
X39835473Y17589500D01*
X39835473Y16700500D01*
X39851410Y16615805D01*
X39901464Y16538017D01*
X39977839Y16485832D01*
X40068500Y16467473D01*
X40690850Y16467473D01*
X40690850Y16307217D01*
X40635000Y16318527D01*
X40010000Y16318527D01*
X39925305Y16302590D01*
X39847517Y16252536D01*
X39795332Y16176161D01*
X39776973Y16085500D01*
X39776973Y15544876D01*
X39755112Y15523015D01*
X39704850Y15401671D01*
X39704850Y15119387D01*
X39787387Y15036850D01*
X40146650Y15036850D01*
X40146650Y15056850D01*
X40248350Y15056850D01*
X40248350Y15036850D01*
X40607613Y15036850D01*
X40690150Y15119387D01*
X40690150Y15287851D01*
X40690850Y15287982D01*
X40690850Y14682717D01*
X40690150Y14682859D01*
X40690150Y14852613D01*
X40607613Y14935150D01*
X40248350Y14935150D01*
X40248350Y14915150D01*
X40146650Y14915150D01*
X40146650Y14935150D01*
X39787387Y14935150D01*
X39704850Y14852613D01*
X39704850Y14757434D01*
X39696176Y14757442D01*
X39500076Y14676416D01*
X39398682Y14575199D01*
X39373254Y14613254D01*
X38970454Y15016054D01*
X38822144Y15115152D01*
X38647200Y15149950D01*
X38404650Y15149950D01*
X38404650Y16422142D01*
X38441508Y16459000D01*
X38541973Y16459000D01*
X38541973Y15659000D01*
X38557910Y15574305D01*
X38607964Y15496517D01*
X38684339Y15444332D01*
X38775000Y15425973D01*
X39325000Y15425973D01*
X39409695Y15441910D01*
X39487483Y15491964D01*
X39539668Y15568339D01*
X39558027Y15659000D01*
X39558027Y16459000D01*
X39542090Y16543695D01*
X39492036Y16621483D01*
X39415661Y16673668D01*
X39325000Y16692027D01*
X38775000Y16692027D01*
X38690305Y16676090D01*
X38612517Y16626036D01*
X38560332Y16549661D01*
X38541973Y16459000D01*
X38441508Y16459000D01*
X39642454Y17659946D01*
X39741552Y17808256D01*
X39776350Y17983200D01*
X39776350Y18303757D01*
X39837736Y18451593D01*
X40078166Y18210742D01*
X40442103Y18059622D01*
X40836168Y18059278D01*
X41200368Y18209763D01*
X41479258Y18488166D01*
X41599317Y18777301D01*
X42562708Y17813910D01*
X42523805Y17806590D01*
X42495516Y17788387D01*
X42414515Y17869388D01*
X42293171Y17919650D01*
X41979887Y17919650D01*
X41897350Y17837113D01*
X41897350Y17195850D01*
X41917350Y17195850D01*
X41917350Y17094150D01*
X41897350Y17094150D01*
X41897350Y16452887D01*
X41979887Y16370350D01*
X42293171Y16370350D01*
X42414515Y16420612D01*
X42495202Y16501299D01*
X42517839Y16485832D01*
X42608500Y16467473D01*
X42684750Y16467473D01*
X42684750Y16306000D01*
X42707948Y16189377D01*
X42764454Y16104809D01*
X42774009Y16090509D01*
X42951973Y15912545D01*
X42951973Y15510500D01*
X42967910Y15425805D01*
X43017964Y15348017D01*
X43094339Y15295832D01*
X43129850Y15288641D01*
X43129850Y15119387D01*
X43212387Y15036850D01*
X43571650Y15036850D01*
X43571650Y15056850D01*
X43673350Y15056850D01*
X43673350Y15036850D01*
X44032613Y15036850D01*
X44035097Y15039334D01*
X44107100Y15024753D01*
X44437465Y15024753D01*
X44742509Y14719709D01*
X44841377Y14653648D01*
X44874541Y14647051D01*
X44843777Y14627256D01*
X44831453Y14609219D01*
X44822776Y14622703D01*
X44746401Y14674888D01*
X44655740Y14693247D01*
X44115150Y14693247D01*
X44115150Y14852613D01*
X44032613Y14935150D01*
X43673350Y14935150D01*
X43673350Y14915150D01*
X43571650Y14915150D01*
X43571650Y14935150D01*
X43212387Y14935150D01*
X43129850Y14852613D01*
X43129850Y14684149D01*
X43100305Y14678590D01*
X43022517Y14628536D01*
X42970332Y14552161D01*
X42951973Y14461500D01*
X42951973Y13886500D01*
X42967910Y13801805D01*
X43017964Y13724017D01*
X43094339Y13671832D01*
X43185000Y13653473D01*
X43810000Y13653473D01*
X43865296Y13663878D01*
X43599509Y13398091D01*
X43533448Y13299223D01*
X43523762Y13250527D01*
X43370500Y13250527D01*
X43285805Y13234590D01*
X43208017Y13184536D01*
X43155832Y13108161D01*
X43137473Y13017500D01*
X43137473Y12255500D01*
X43153410Y12170805D01*
X43203464Y12093017D01*
X43279839Y12040832D01*
X43370500Y12022473D01*
X44259500Y12022473D01*
X44344195Y12038410D01*
X44421983Y12088464D01*
X44450005Y12129475D01*
X44473464Y12093017D01*
X44549839Y12040832D01*
X44640500Y12022473D01*
X45529500Y12022473D01*
X45614195Y12038410D01*
X45691983Y12088464D01*
X45744168Y12164839D01*
X45762527Y12255500D01*
X45762527Y13017500D01*
X45746590Y13102195D01*
X45696536Y13179983D01*
X45620161Y13232168D01*
X45585330Y13239221D01*
X45585330Y13435359D01*
X45639595Y13445570D01*
X45717383Y13495624D01*
X45769568Y13571999D01*
X45787927Y13662660D01*
X45787927Y14460220D01*
X45771990Y14544915D01*
X45721936Y14622703D01*
X45678355Y14652481D01*
X45684223Y14653648D01*
X45783091Y14719709D01*
X45974050Y14910668D01*
X45974050Y14412329D01*
X46024312Y14290985D01*
X46117185Y14198112D01*
X46238529Y14147850D01*
X46932813Y14147850D01*
X47015350Y14230387D01*
X47015350Y15189150D01*
X47117050Y15189150D01*
X47117050Y14230387D01*
X47199587Y14147850D01*
X47893871Y14147850D01*
X48015215Y14198112D01*
X48108088Y14290985D01*
X48158350Y14412329D01*
X48158350Y15106613D01*
X48075813Y15189150D01*
X47117050Y15189150D01*
X47015350Y15189150D01*
X46995350Y15189150D01*
X46995350Y15290850D01*
X47015350Y15290850D01*
X47015350Y16249613D01*
X47117050Y16249613D01*
X47117050Y15290850D01*
X48075813Y15290850D01*
X48158350Y15373387D01*
X48158350Y16067671D01*
X48108088Y16189015D01*
X48015215Y16281888D01*
X47893871Y16332150D01*
X47199587Y16332150D01*
X47117050Y16249613D01*
X47015350Y16249613D01*
X46932813Y16332150D01*
X46238529Y16332150D01*
X46177150Y16306726D01*
X46177150Y16611600D01*
X46153952Y16728223D01*
X46118127Y16781839D01*
X46118127Y17589500D01*
X46102190Y17674195D01*
X46052136Y17751983D01*
X45975761Y17804168D01*
X45885100Y17822527D01*
X45123100Y17822527D01*
X45038405Y17806590D01*
X44960617Y17756536D01*
X44945676Y17734670D01*
X44934536Y17751983D01*
X44858161Y17804168D01*
X44767500Y17822527D01*
X44139955Y17822527D01*
X43763791Y18198691D01*
X43745755Y18210742D01*
X43743116Y18212506D01*
X44019258Y18488166D01*
X44170378Y18852103D01*
X44170379Y18853832D01*
X44729278Y18853832D01*
X44879763Y18489632D01*
X45158166Y18210742D01*
X45522103Y18059622D01*
X45916168Y18059278D01*
X46280368Y18209763D01*
X46559258Y18488166D01*
X46710378Y18852103D01*
X46710722Y19246168D01*
X46560237Y19610368D01*
X46281834Y19889258D01*
X45917897Y20040378D01*
X45523832Y20040722D01*
X45159632Y19890237D01*
X44880742Y19611834D01*
X44729622Y19247897D01*
X44729278Y18853832D01*
X44170379Y18853832D01*
X44170722Y19246168D01*
X44020237Y19610368D01*
X43741834Y19889258D01*
X43377897Y20040378D01*
X42983832Y20040722D01*
X42619632Y19890237D01*
X42340742Y19611834D01*
X42189622Y19247897D01*
X42189448Y19049134D01*
X42062350Y19176232D01*
X42062350Y20269250D01*
X48731042Y20269250D01*
X49072850Y19927442D01*
G36*
X51511148Y5598711D02*
X51087077Y5174641D01*
X49284990Y5174641D01*
X49220416Y5330924D01*
X49070513Y5481089D01*
X48874555Y5562457D01*
X48662376Y5562642D01*
X48556527Y5518907D01*
X48556527Y6159500D01*
X48540590Y6244195D01*
X48490536Y6321983D01*
X48414161Y6374168D01*
X48323500Y6392527D01*
X47853550Y6392527D01*
X47853550Y7006349D01*
X47905458Y7058166D01*
X48056578Y7422103D01*
X48056640Y7493032D01*
X51324606Y10760998D01*
X51508024Y10836784D01*
X51511148Y10839903D01*
X51511148Y5598711D01*
X51511148Y5598711D01*
G37*
X51511148Y5598711D02*
X51087077Y5174641D01*
X49284990Y5174641D01*
X49220416Y5330924D01*
X49070513Y5481089D01*
X48874555Y5562457D01*
X48662376Y5562642D01*
X48556527Y5518907D01*
X48556527Y6159500D01*
X48540590Y6244195D01*
X48490536Y6321983D01*
X48414161Y6374168D01*
X48323500Y6392527D01*
X47853550Y6392527D01*
X47853550Y7006349D01*
X47905458Y7058166D01*
X48056578Y7422103D01*
X48056640Y7493032D01*
X51324606Y10760998D01*
X51508024Y10836784D01*
X51511148Y10839903D01*
X51511148Y5598711D01*
G36*
X30637711Y15237713D02*
X30556343Y15041755D01*
X30556158Y14829576D01*
X30637184Y14633476D01*
X30787087Y14483311D01*
X30799666Y14478088D01*
X30787876Y14473216D01*
X30637711Y14323313D01*
X30556343Y14127355D01*
X30556158Y13915176D01*
X30637184Y13719076D01*
X30716328Y13639793D01*
X30637711Y13561313D01*
X30556343Y13365355D01*
X30556158Y13153176D01*
X30637184Y12957076D01*
X30787087Y12806911D01*
X30799666Y12801688D01*
X30787876Y12796816D01*
X30637711Y12646913D01*
X30556343Y12450955D01*
X30556158Y12238776D01*
X30637184Y12042676D01*
X30787087Y11892511D01*
X30983045Y11811143D01*
X31191979Y11810961D01*
X31191879Y11810861D01*
X30983976Y11811042D01*
X30787876Y11730016D01*
X30637711Y11580113D01*
X30556343Y11384155D01*
X30556158Y11171976D01*
X30637184Y10975876D01*
X30640305Y10972750D01*
X28574840Y10972750D01*
X28574942Y11090024D01*
X28493916Y11286124D01*
X28344013Y11436289D01*
X28148055Y11517657D01*
X27935876Y11517842D01*
X27739776Y11436816D01*
X27589611Y11286913D01*
X27508243Y11090955D01*
X27508058Y10878776D01*
X27589084Y10682676D01*
X27738987Y10532511D01*
X27934945Y10451143D01*
X28144727Y10450960D01*
X28241277Y10386448D01*
X28357900Y10363250D01*
X30640052Y10363250D01*
X30637711Y10360913D01*
X30556343Y10164955D01*
X30556158Y9952776D01*
X30637184Y9756676D01*
X30787087Y9606511D01*
X30983045Y9525143D01*
X31195224Y9524958D01*
X31391324Y9605984D01*
X31541489Y9755887D01*
X31597279Y9890246D01*
X31585553Y9832340D01*
X31585553Y9532620D01*
X31601490Y9447925D01*
X31611050Y9433068D01*
X31603912Y9422621D01*
X31585553Y9331960D01*
X31585553Y9249977D01*
X31544513Y9291089D01*
X31348555Y9372457D01*
X31136376Y9372642D01*
X30940276Y9291616D01*
X30790111Y9141713D01*
X30708743Y8945755D01*
X30708558Y8733576D01*
X30789584Y8537476D01*
X30939487Y8387311D01*
X30996670Y8363567D01*
X31023496Y8323419D01*
X31026509Y8318909D01*
X31379569Y7965849D01*
X31478437Y7899788D01*
X31594831Y7876636D01*
X31585553Y7830820D01*
X31585553Y7531100D01*
X31601490Y7446405D01*
X31651544Y7368617D01*
X31727919Y7316432D01*
X31818580Y7298073D01*
X31994711Y7298073D01*
X31856911Y7160513D01*
X31775543Y6964555D01*
X31775358Y6752376D01*
X31856384Y6556276D01*
X32006287Y6406111D01*
X32202245Y6324743D01*
X32414424Y6324558D01*
X32610524Y6405584D01*
X32760689Y6555487D01*
X32842057Y6751445D01*
X32842242Y6963624D01*
X32761216Y7159724D01*
X32722770Y7198237D01*
X32722770Y7298073D01*
X33017460Y7298073D01*
X33102155Y7314010D01*
X33179943Y7364064D01*
X33188309Y7376309D01*
X33484203Y7080415D01*
X33484203Y6521450D01*
X33500140Y6436755D01*
X33528599Y6392527D01*
X33464500Y6392527D01*
X33379805Y6376590D01*
X33302017Y6326536D01*
X33249832Y6250161D01*
X33234035Y6172150D01*
X30801927Y6172150D01*
X30801927Y6281420D01*
X30785990Y6366115D01*
X30735936Y6443903D01*
X30659561Y6496088D01*
X30568900Y6514447D01*
X30302396Y6514447D01*
X30255535Y6561308D01*
X30134191Y6611570D01*
X30054952Y6611570D01*
X30421184Y6977802D01*
X30525845Y6934343D01*
X30738024Y6934158D01*
X30934124Y7015184D01*
X31084289Y7165087D01*
X31165657Y7361045D01*
X31165842Y7573224D01*
X31084816Y7769324D01*
X30934913Y7919489D01*
X30738955Y8000857D01*
X30526776Y8001042D01*
X30330676Y7920016D01*
X30180511Y7770113D01*
X30175288Y7757534D01*
X30170416Y7769324D01*
X30020513Y7919489D01*
X29824555Y8000857D01*
X29612376Y8001042D01*
X29416276Y7920016D01*
X29336993Y7840872D01*
X29258513Y7919489D01*
X29062555Y8000857D01*
X28850376Y8001042D01*
X28654276Y7920016D01*
X28504111Y7770113D01*
X28498888Y7757534D01*
X28494016Y7769324D01*
X28344113Y7919489D01*
X28148155Y8000857D01*
X27935976Y8001042D01*
X27739876Y7920016D01*
X27589711Y7770113D01*
X27508343Y7574155D01*
X27508184Y7391416D01*
X27508083Y7391416D01*
X27508242Y7573224D01*
X27427216Y7769324D01*
X27277313Y7919489D01*
X27081355Y8000857D01*
X26869176Y8001042D01*
X26673076Y7920016D01*
X26522911Y7770113D01*
X26441543Y7574155D01*
X26441384Y7391283D01*
X26259576Y7391442D01*
X26063476Y7310416D01*
X25913311Y7160513D01*
X25831943Y6964555D01*
X25831758Y6752376D01*
X25912784Y6556276D01*
X25954540Y6514447D01*
X25770840Y6514447D01*
X25725070Y6505834D01*
X25725070Y6710003D01*
X25725071Y6710008D01*
X25703596Y6817964D01*
X25701872Y6826631D01*
X25635811Y6925499D01*
X24963634Y7597676D01*
X24988289Y7622287D01*
X25069657Y7818245D01*
X25069842Y8030424D01*
X24988816Y8226524D01*
X24838913Y8376689D01*
X24642955Y8458057D01*
X24430776Y8458242D01*
X24282352Y8396915D01*
X24226816Y8531324D01*
X24221760Y8536389D01*
X24228524Y8539184D01*
X24378689Y8689087D01*
X24381808Y8696598D01*
X24386287Y8692111D01*
X24582245Y8610743D01*
X24794424Y8610558D01*
X24990524Y8691584D01*
X25140689Y8841487D01*
X25222057Y9037445D01*
X25222242Y9249624D01*
X25141216Y9445724D01*
X24991313Y9595889D01*
X24850308Y9654439D01*
X24904291Y9690509D01*
X25361488Y10147707D01*
X25361491Y10147709D01*
X25427552Y10246577D01*
X25450750Y10363200D01*
X25450750Y11582400D01*
X28346422Y11582400D01*
X28463045Y11605598D01*
X28561913Y11671659D01*
X29476293Y12586039D01*
X29542355Y12684908D01*
X29565553Y12801530D01*
X29565552Y12801535D01*
X29565552Y14961370D01*
X29844232Y15240050D01*
X30640052Y15240050D01*
X30637711Y15237713D01*
X30637711Y15237713D01*
G37*
X30637711Y15237713D02*
X30556343Y15041755D01*
X30556158Y14829576D01*
X30637184Y14633476D01*
X30787087Y14483311D01*
X30799666Y14478088D01*
X30787876Y14473216D01*
X30637711Y14323313D01*
X30556343Y14127355D01*
X30556158Y13915176D01*
X30637184Y13719076D01*
X30716328Y13639793D01*
X30637711Y13561313D01*
X30556343Y13365355D01*
X30556158Y13153176D01*
X30637184Y12957076D01*
X30787087Y12806911D01*
X30799666Y12801688D01*
X30787876Y12796816D01*
X30637711Y12646913D01*
X30556343Y12450955D01*
X30556158Y12238776D01*
X30637184Y12042676D01*
X30787087Y11892511D01*
X30983045Y11811143D01*
X31191979Y11810961D01*
X31191879Y11810861D01*
X30983976Y11811042D01*
X30787876Y11730016D01*
X30637711Y11580113D01*
X30556343Y11384155D01*
X30556158Y11171976D01*
X30637184Y10975876D01*
X30640305Y10972750D01*
X28574840Y10972750D01*
X28574942Y11090024D01*
X28493916Y11286124D01*
X28344013Y11436289D01*
X28148055Y11517657D01*
X27935876Y11517842D01*
X27739776Y11436816D01*
X27589611Y11286913D01*
X27508243Y11090955D01*
X27508058Y10878776D01*
X27589084Y10682676D01*
X27738987Y10532511D01*
X27934945Y10451143D01*
X28144727Y10450960D01*
X28241277Y10386448D01*
X28357900Y10363250D01*
X30640052Y10363250D01*
X30637711Y10360913D01*
X30556343Y10164955D01*
X30556158Y9952776D01*
X30637184Y9756676D01*
X30787087Y9606511D01*
X30983045Y9525143D01*
X31195224Y9524958D01*
X31391324Y9605984D01*
X31541489Y9755887D01*
X31597279Y9890246D01*
X31585553Y9832340D01*
X31585553Y9532620D01*
X31601490Y9447925D01*
X31611050Y9433068D01*
X31603912Y9422621D01*
X31585553Y9331960D01*
X31585553Y9249977D01*
X31544513Y9291089D01*
X31348555Y9372457D01*
X31136376Y9372642D01*
X30940276Y9291616D01*
X30790111Y9141713D01*
X30708743Y8945755D01*
X30708558Y8733576D01*
X30789584Y8537476D01*
X30939487Y8387311D01*
X30996670Y8363567D01*
X31023496Y8323419D01*
X31026509Y8318909D01*
X31379569Y7965849D01*
X31478437Y7899788D01*
X31594831Y7876636D01*
X31585553Y7830820D01*
X31585553Y7531100D01*
X31601490Y7446405D01*
X31651544Y7368617D01*
X31727919Y7316432D01*
X31818580Y7298073D01*
X31994711Y7298073D01*
X31856911Y7160513D01*
X31775543Y6964555D01*
X31775358Y6752376D01*
X31856384Y6556276D01*
X32006287Y6406111D01*
X32202245Y6324743D01*
X32414424Y6324558D01*
X32610524Y6405584D01*
X32760689Y6555487D01*
X32842057Y6751445D01*
X32842242Y6963624D01*
X32761216Y7159724D01*
X32722770Y7198237D01*
X32722770Y7298073D01*
X33017460Y7298073D01*
X33102155Y7314010D01*
X33179943Y7364064D01*
X33188309Y7376309D01*
X33484203Y7080415D01*
X33484203Y6521450D01*
X33500140Y6436755D01*
X33528599Y6392527D01*
X33464500Y6392527D01*
X33379805Y6376590D01*
X33302017Y6326536D01*
X33249832Y6250161D01*
X33234035Y6172150D01*
X30801927Y6172150D01*
X30801927Y6281420D01*
X30785990Y6366115D01*
X30735936Y6443903D01*
X30659561Y6496088D01*
X30568900Y6514447D01*
X30302396Y6514447D01*
X30255535Y6561308D01*
X30134191Y6611570D01*
X30054952Y6611570D01*
X30421184Y6977802D01*
X30525845Y6934343D01*
X30738024Y6934158D01*
X30934124Y7015184D01*
X31084289Y7165087D01*
X31165657Y7361045D01*
X31165842Y7573224D01*
X31084816Y7769324D01*
X30934913Y7919489D01*
X30738955Y8000857D01*
X30526776Y8001042D01*
X30330676Y7920016D01*
X30180511Y7770113D01*
X30175288Y7757534D01*
X30170416Y7769324D01*
X30020513Y7919489D01*
X29824555Y8000857D01*
X29612376Y8001042D01*
X29416276Y7920016D01*
X29336993Y7840872D01*
X29258513Y7919489D01*
X29062555Y8000857D01*
X28850376Y8001042D01*
X28654276Y7920016D01*
X28504111Y7770113D01*
X28498888Y7757534D01*
X28494016Y7769324D01*
X28344113Y7919489D01*
X28148155Y8000857D01*
X27935976Y8001042D01*
X27739876Y7920016D01*
X27589711Y7770113D01*
X27508343Y7574155D01*
X27508184Y7391416D01*
X27508083Y7391416D01*
X27508242Y7573224D01*
X27427216Y7769324D01*
X27277313Y7919489D01*
X27081355Y8000857D01*
X26869176Y8001042D01*
X26673076Y7920016D01*
X26522911Y7770113D01*
X26441543Y7574155D01*
X26441384Y7391283D01*
X26259576Y7391442D01*
X26063476Y7310416D01*
X25913311Y7160513D01*
X25831943Y6964555D01*
X25831758Y6752376D01*
X25912784Y6556276D01*
X25954540Y6514447D01*
X25770840Y6514447D01*
X25725070Y6505834D01*
X25725070Y6710003D01*
X25725071Y6710008D01*
X25703596Y6817964D01*
X25701872Y6826631D01*
X25635811Y6925499D01*
X24963634Y7597676D01*
X24988289Y7622287D01*
X25069657Y7818245D01*
X25069842Y8030424D01*
X24988816Y8226524D01*
X24838913Y8376689D01*
X24642955Y8458057D01*
X24430776Y8458242D01*
X24282352Y8396915D01*
X24226816Y8531324D01*
X24221760Y8536389D01*
X24228524Y8539184D01*
X24378689Y8689087D01*
X24381808Y8696598D01*
X24386287Y8692111D01*
X24582245Y8610743D01*
X24794424Y8610558D01*
X24990524Y8691584D01*
X25140689Y8841487D01*
X25222057Y9037445D01*
X25222242Y9249624D01*
X25141216Y9445724D01*
X24991313Y9595889D01*
X24850308Y9654439D01*
X24904291Y9690509D01*
X25361488Y10147707D01*
X25361491Y10147709D01*
X25427552Y10246577D01*
X25450750Y10363200D01*
X25450750Y11582400D01*
X28346422Y11582400D01*
X28463045Y11605598D01*
X28561913Y11671659D01*
X29476293Y12586039D01*
X29542355Y12684908D01*
X29565553Y12801530D01*
X29565552Y12801535D01*
X29565552Y14961370D01*
X29844232Y15240050D01*
X30640052Y15240050D01*
X30637711Y15237713D01*
G36*
X15671850Y7099350D02*
X15691850Y7099350D01*
X15691850Y6997650D01*
X15671850Y6997650D01*
X15671850Y6977650D01*
X15570150Y6977650D01*
X15570150Y6997650D01*
X15550150Y6997650D01*
X15550150Y7099350D01*
X15570150Y7099350D01*
X15570150Y7119350D01*
X15671850Y7119350D01*
X15671850Y7099350D01*
X15671850Y7099350D01*
G37*
X15671850Y7099350D02*
X15691850Y7099350D01*
X15691850Y6997650D01*
X15671850Y6997650D01*
X15671850Y6977650D01*
X15570150Y6977650D01*
X15570150Y6997650D01*
X15550150Y6997650D01*
X15550150Y7099350D01*
X15570150Y7099350D01*
X15570150Y7119350D01*
X15671850Y7119350D01*
X15671850Y7099350D01*
G36*
X13258848Y10872714D02*
X13258848Y9627346D01*
X13282046Y9510723D01*
X13341687Y9421464D01*
X13348107Y9411855D01*
X14391024Y8368938D01*
X14325598Y8381952D01*
X13689831Y8381952D01*
X13258750Y8813034D01*
X13258750Y9448800D01*
X13235552Y9565423D01*
X13169491Y9664291D01*
X12864691Y9969091D01*
X12819366Y9999376D01*
X12765823Y10035152D01*
X12699623Y10048320D01*
X12776688Y10125385D01*
X12826950Y10246729D01*
X12826950Y10788613D01*
X12744413Y10871150D01*
X11430050Y10871150D01*
X11430050Y10064787D01*
X11512587Y9982250D01*
X11709441Y9982250D01*
X11658743Y9860155D01*
X11658558Y9647976D01*
X11739026Y9453227D01*
X10261600Y9453227D01*
X10176905Y9437290D01*
X10099117Y9387236D01*
X10046932Y9310861D01*
X10028573Y9220200D01*
X10028573Y9174565D01*
X9969500Y9186527D01*
X9080500Y9186527D01*
X8995805Y9170590D01*
X8918017Y9120536D01*
X8889995Y9079525D01*
X8866536Y9115983D01*
X8790161Y9168168D01*
X8699500Y9186527D01*
X7810500Y9186527D01*
X7725805Y9170590D01*
X7648017Y9120536D01*
X7595832Y9044161D01*
X7577473Y8953500D01*
X7577473Y8191500D01*
X7593410Y8106805D01*
X7643464Y8029017D01*
X7719839Y7976832D01*
X7810500Y7958473D01*
X8374546Y7958473D01*
X8534450Y7798569D01*
X8534450Y7789527D01*
X7683500Y7789527D01*
X7598805Y7773590D01*
X7521017Y7723536D01*
X7468832Y7647161D01*
X7465893Y7632650D01*
X6882258Y7632650D01*
X6248350Y8266558D01*
X6248350Y9006557D01*
X6324457Y9189845D01*
X6324642Y9402024D01*
X6243616Y9598124D01*
X6239228Y9602520D01*
X6474091Y9602520D01*
X6595435Y9652782D01*
X6688308Y9745655D01*
X6738570Y9866999D01*
X6738570Y9998673D01*
X6656033Y10081210D01*
X5885230Y10081210D01*
X5885230Y10061210D01*
X5783530Y10061210D01*
X5783530Y10081210D01*
X5763530Y10081210D01*
X5763530Y10182910D01*
X5783530Y10182910D01*
X5783530Y10202910D01*
X5885230Y10202910D01*
X5885230Y10182910D01*
X6656033Y10182910D01*
X6738570Y10265447D01*
X6738570Y10397121D01*
X6705255Y10477550D01*
X7074668Y10477550D01*
X7577473Y9974745D01*
X7577473Y9588500D01*
X7593410Y9503805D01*
X7643464Y9426017D01*
X7719839Y9373832D01*
X7810500Y9355473D01*
X8699500Y9355473D01*
X8784195Y9371410D01*
X8861983Y9421464D01*
X8890005Y9462475D01*
X8913464Y9426017D01*
X8989839Y9373832D01*
X9080500Y9355473D01*
X9969500Y9355473D01*
X10054195Y9371410D01*
X10131983Y9421464D01*
X10184168Y9497839D01*
X10202527Y9588500D01*
X10202527Y9982250D01*
X11245813Y9982250D01*
X11328350Y10064787D01*
X11328350Y10871150D01*
X11308350Y10871150D01*
X11308350Y10972850D01*
X11328350Y10972850D01*
X11328350Y10992850D01*
X11430050Y10992850D01*
X11430050Y10972850D01*
X12744413Y10972850D01*
X12826950Y11055387D01*
X12826950Y11304612D01*
X13258848Y10872714D01*
X13258848Y10872714D01*
G37*
X13258848Y10872714D02*
X13258848Y9627346D01*
X13282046Y9510723D01*
X13341687Y9421464D01*
X13348107Y9411855D01*
X14391024Y8368938D01*
X14325598Y8381952D01*
X13689831Y8381952D01*
X13258750Y8813034D01*
X13258750Y9448800D01*
X13235552Y9565423D01*
X13169491Y9664291D01*
X12864691Y9969091D01*
X12819366Y9999376D01*
X12765823Y10035152D01*
X12699623Y10048320D01*
X12776688Y10125385D01*
X12826950Y10246729D01*
X12826950Y10788613D01*
X12744413Y10871150D01*
X11430050Y10871150D01*
X11430050Y10064787D01*
X11512587Y9982250D01*
X11709441Y9982250D01*
X11658743Y9860155D01*
X11658558Y9647976D01*
X11739026Y9453227D01*
X10261600Y9453227D01*
X10176905Y9437290D01*
X10099117Y9387236D01*
X10046932Y9310861D01*
X10028573Y9220200D01*
X10028573Y9174565D01*
X9969500Y9186527D01*
X9080500Y9186527D01*
X8995805Y9170590D01*
X8918017Y9120536D01*
X8889995Y9079525D01*
X8866536Y9115983D01*
X8790161Y9168168D01*
X8699500Y9186527D01*
X7810500Y9186527D01*
X7725805Y9170590D01*
X7648017Y9120536D01*
X7595832Y9044161D01*
X7577473Y8953500D01*
X7577473Y8191500D01*
X7593410Y8106805D01*
X7643464Y8029017D01*
X7719839Y7976832D01*
X7810500Y7958473D01*
X8374546Y7958473D01*
X8534450Y7798569D01*
X8534450Y7789527D01*
X7683500Y7789527D01*
X7598805Y7773590D01*
X7521017Y7723536D01*
X7468832Y7647161D01*
X7465893Y7632650D01*
X6882258Y7632650D01*
X6248350Y8266558D01*
X6248350Y9006557D01*
X6324457Y9189845D01*
X6324642Y9402024D01*
X6243616Y9598124D01*
X6239228Y9602520D01*
X6474091Y9602520D01*
X6595435Y9652782D01*
X6688308Y9745655D01*
X6738570Y9866999D01*
X6738570Y9998673D01*
X6656033Y10081210D01*
X5885230Y10081210D01*
X5885230Y10061210D01*
X5783530Y10061210D01*
X5783530Y10081210D01*
X5763530Y10081210D01*
X5763530Y10182910D01*
X5783530Y10182910D01*
X5783530Y10202910D01*
X5885230Y10202910D01*
X5885230Y10182910D01*
X6656033Y10182910D01*
X6738570Y10265447D01*
X6738570Y10397121D01*
X6705255Y10477550D01*
X7074668Y10477550D01*
X7577473Y9974745D01*
X7577473Y9588500D01*
X7593410Y9503805D01*
X7643464Y9426017D01*
X7719839Y9373832D01*
X7810500Y9355473D01*
X8699500Y9355473D01*
X8784195Y9371410D01*
X8861983Y9421464D01*
X8890005Y9462475D01*
X8913464Y9426017D01*
X8989839Y9373832D01*
X9080500Y9355473D01*
X9969500Y9355473D01*
X10054195Y9371410D01*
X10131983Y9421464D01*
X10184168Y9497839D01*
X10202527Y9588500D01*
X10202527Y9982250D01*
X11245813Y9982250D01*
X11328350Y10064787D01*
X11328350Y10871150D01*
X11308350Y10871150D01*
X11308350Y10972850D01*
X11328350Y10972850D01*
X11328350Y10992850D01*
X11430050Y10992850D01*
X11430050Y10972850D01*
X12744413Y10972850D01*
X12826950Y11055387D01*
X12826950Y11304612D01*
X13258848Y10872714D01*
G36*
X14481193Y14892020D02*
X14497130Y14807325D01*
X14547184Y14729537D01*
X14623559Y14677352D01*
X14714220Y14658993D01*
X15499652Y14658993D01*
X15468743Y14584555D01*
X15468558Y14372376D01*
X15549584Y14176276D01*
X15699487Y14026111D01*
X15895445Y13944743D01*
X15951925Y13944694D01*
X16028271Y13868348D01*
X15754136Y13868348D01*
X15692416Y14017724D01*
X15542513Y14167889D01*
X15346555Y14249257D01*
X15134376Y14249442D01*
X14938276Y14168416D01*
X14788111Y14018513D01*
X14706743Y13822555D01*
X14706558Y13610376D01*
X14787584Y13414276D01*
X14937487Y13264111D01*
X15133445Y13182743D01*
X15345624Y13182558D01*
X15530262Y13258848D01*
X19074656Y13258848D01*
X19126259Y13269113D01*
X19126158Y13153176D01*
X19207184Y12957076D01*
X19357087Y12806911D01*
X19553045Y12725543D01*
X19659650Y12725450D01*
X19659650Y10972800D01*
X19682848Y10856177D01*
X19730659Y10784623D01*
X19748909Y10757309D01*
X20041009Y10465209D01*
X20107817Y10420570D01*
X20089513Y10330180D01*
X20089513Y10030460D01*
X20102637Y9960715D01*
X20037265Y9917035D01*
X20008733Y9897971D01*
X19254712Y9143950D01*
X19007150Y9143950D01*
X19007150Y10788613D01*
X18924613Y10871150D01*
X17627850Y10871150D01*
X17627850Y10851150D01*
X17526150Y10851150D01*
X17526150Y10871150D01*
X16229387Y10871150D01*
X16146850Y10788613D01*
X16146850Y9143950D01*
X14909032Y9143950D01*
X14173150Y9879832D01*
X14173150Y11125200D01*
X14149952Y11241823D01*
X14083891Y11340691D01*
X13017091Y12407491D01*
X13014635Y12409132D01*
X12918223Y12473552D01*
X12801600Y12496750D01*
X12686604Y12496750D01*
X12711468Y12533139D01*
X12729827Y12623800D01*
X12729827Y12787671D01*
X16146850Y12787671D01*
X16146850Y11055387D01*
X16229387Y10972850D01*
X17526150Y10972850D01*
X17526150Y12969613D01*
X17627850Y12969613D01*
X17627850Y10972850D01*
X18924613Y10972850D01*
X19007150Y11055387D01*
X19007150Y12787671D01*
X18956888Y12909015D01*
X18864015Y13001888D01*
X18742671Y13052150D01*
X17710387Y13052150D01*
X17627850Y12969613D01*
X17526150Y12969613D01*
X17443613Y13052150D01*
X16411329Y13052150D01*
X16289985Y13001888D01*
X16197112Y12909015D01*
X16146850Y12787671D01*
X12729827Y12787671D01*
X12729827Y13843000D01*
X12713890Y13927695D01*
X12712192Y13930334D01*
X12820019Y14002381D01*
X13728337Y14910700D01*
X14481193Y14910700D01*
X14481193Y14892020D01*
X14481193Y14892020D01*
G37*
X14481193Y14892020D02*
X14497130Y14807325D01*
X14547184Y14729537D01*
X14623559Y14677352D01*
X14714220Y14658993D01*
X15499652Y14658993D01*
X15468743Y14584555D01*
X15468558Y14372376D01*
X15549584Y14176276D01*
X15699487Y14026111D01*
X15895445Y13944743D01*
X15951925Y13944694D01*
X16028271Y13868348D01*
X15754136Y13868348D01*
X15692416Y14017724D01*
X15542513Y14167889D01*
X15346555Y14249257D01*
X15134376Y14249442D01*
X14938276Y14168416D01*
X14788111Y14018513D01*
X14706743Y13822555D01*
X14706558Y13610376D01*
X14787584Y13414276D01*
X14937487Y13264111D01*
X15133445Y13182743D01*
X15345624Y13182558D01*
X15530262Y13258848D01*
X19074656Y13258848D01*
X19126259Y13269113D01*
X19126158Y13153176D01*
X19207184Y12957076D01*
X19357087Y12806911D01*
X19553045Y12725543D01*
X19659650Y12725450D01*
X19659650Y10972800D01*
X19682848Y10856177D01*
X19730659Y10784623D01*
X19748909Y10757309D01*
X20041009Y10465209D01*
X20107817Y10420570D01*
X20089513Y10330180D01*
X20089513Y10030460D01*
X20102637Y9960715D01*
X20037265Y9917035D01*
X20008733Y9897971D01*
X19254712Y9143950D01*
X19007150Y9143950D01*
X19007150Y10788613D01*
X18924613Y10871150D01*
X17627850Y10871150D01*
X17627850Y10851150D01*
X17526150Y10851150D01*
X17526150Y10871150D01*
X16229387Y10871150D01*
X16146850Y10788613D01*
X16146850Y9143950D01*
X14909032Y9143950D01*
X14173150Y9879832D01*
X14173150Y11125200D01*
X14149952Y11241823D01*
X14083891Y11340691D01*
X13017091Y12407491D01*
X13014635Y12409132D01*
X12918223Y12473552D01*
X12801600Y12496750D01*
X12686604Y12496750D01*
X12711468Y12533139D01*
X12729827Y12623800D01*
X12729827Y12787671D01*
X16146850Y12787671D01*
X16146850Y11055387D01*
X16229387Y10972850D01*
X17526150Y10972850D01*
X17526150Y12969613D01*
X17627850Y12969613D01*
X17627850Y10972850D01*
X18924613Y10972850D01*
X19007150Y11055387D01*
X19007150Y12787671D01*
X18956888Y12909015D01*
X18864015Y13001888D01*
X18742671Y13052150D01*
X17710387Y13052150D01*
X17627850Y12969613D01*
X17526150Y12969613D01*
X17443613Y13052150D01*
X16411329Y13052150D01*
X16289985Y13001888D01*
X16197112Y12909015D01*
X16146850Y12787671D01*
X12729827Y12787671D01*
X12729827Y13843000D01*
X12713890Y13927695D01*
X12712192Y13930334D01*
X12820019Y14002381D01*
X13728337Y14910700D01*
X14481193Y14910700D01*
X14481193Y14892020D01*
G36*
X50038000Y18054973D02*
X51364045Y18054973D01*
X51511148Y17907870D01*
X51511148Y17580750D01*
X51508813Y17583089D01*
X51312855Y17664457D01*
X51100676Y17664642D01*
X50904576Y17583616D01*
X50754411Y17433713D01*
X50673043Y17237755D01*
X50672858Y17025576D01*
X50749150Y16840933D01*
X50749150Y16811443D01*
X50673043Y16628155D01*
X50672858Y16415976D01*
X50749150Y16231333D01*
X50749150Y12188643D01*
X50673043Y12005355D01*
X50672858Y11793176D01*
X50749150Y11608533D01*
X50749150Y11579043D01*
X50677798Y11407206D01*
X48742166Y9471574D01*
X48767950Y9601200D01*
X48767950Y10337870D01*
X49853254Y11423174D01*
X49952352Y11571484D01*
X49987150Y11746428D01*
X49987150Y18065270D01*
X50038000Y18054973D01*
X50038000Y18054973D01*
G37*
X50038000Y18054973D02*
X51364045Y18054973D01*
X51511148Y17907870D01*
X51511148Y17580750D01*
X51508813Y17583089D01*
X51312855Y17664457D01*
X51100676Y17664642D01*
X50904576Y17583616D01*
X50754411Y17433713D01*
X50673043Y17237755D01*
X50672858Y17025576D01*
X50749150Y16840933D01*
X50749150Y16811443D01*
X50673043Y16628155D01*
X50672858Y16415976D01*
X50749150Y16231333D01*
X50749150Y12188643D01*
X50673043Y12005355D01*
X50672858Y11793176D01*
X50749150Y11608533D01*
X50749150Y11579043D01*
X50677798Y11407206D01*
X48742166Y9471574D01*
X48767950Y9601200D01*
X48767950Y10337870D01*
X49853254Y11423174D01*
X49952352Y11571484D01*
X49987150Y11746428D01*
X49987150Y18065270D01*
X50038000Y18054973D01*
G36*
X9364346Y14982746D02*
X9512656Y14883648D01*
X9687600Y14848850D01*
X9805748Y14848850D01*
X9853339Y14816332D01*
X9944000Y14797973D01*
X10081202Y14797973D01*
X10063711Y14780513D01*
X9982343Y14584555D01*
X9982285Y14517938D01*
X9969500Y14520527D01*
X9207500Y14520527D01*
X9122805Y14504590D01*
X9045017Y14454536D01*
X8992832Y14378161D01*
X8974473Y14287500D01*
X8974473Y13398500D01*
X8990410Y13313805D01*
X9040464Y13236017D01*
X9116839Y13183832D01*
X9121427Y13182903D01*
X9045017Y13133736D01*
X8992832Y13057361D01*
X8974473Y12966700D01*
X8974473Y12077700D01*
X8990410Y11993005D01*
X9040464Y11915217D01*
X9081475Y11887195D01*
X9045017Y11863736D01*
X8992832Y11787361D01*
X8974473Y11696700D01*
X8974473Y10807700D01*
X8990410Y10723005D01*
X9040464Y10645217D01*
X9116839Y10593032D01*
X9163777Y10583527D01*
X9080500Y10583527D01*
X8995805Y10567590D01*
X8918017Y10517536D01*
X8889995Y10476525D01*
X8866536Y10512983D01*
X8790161Y10565168D01*
X8699500Y10583527D01*
X8619553Y10583527D01*
X8657195Y10590610D01*
X8734983Y10640664D01*
X8787168Y10717039D01*
X8805527Y10807700D01*
X8805527Y11696700D01*
X8789590Y11781395D01*
X8739536Y11859183D01*
X8698525Y11887205D01*
X8734983Y11910664D01*
X8787168Y11987039D01*
X8805527Y12077700D01*
X8805527Y12966700D01*
X8789590Y13051395D01*
X8749111Y13114303D01*
X8759515Y13118612D01*
X8852388Y13211485D01*
X8902650Y13332829D01*
X8902650Y13709613D01*
X8820113Y13792150D01*
X8242350Y13792150D01*
X8242350Y13772150D01*
X8140650Y13772150D01*
X8140650Y13792150D01*
X7562887Y13792150D01*
X7480350Y13709613D01*
X7480350Y13332829D01*
X7530612Y13211485D01*
X7623485Y13118612D01*
X7634551Y13114028D01*
X7595832Y13057361D01*
X7577473Y12966700D01*
X7577473Y12339155D01*
X7430270Y12191952D01*
X6679432Y12191952D01*
X6641447Y12229937D01*
X6641447Y12277090D01*
X6625510Y12361785D01*
X6599115Y12402804D01*
X6623088Y12437889D01*
X6641447Y12528550D01*
X6641447Y12877906D01*
X6811224Y12877758D01*
X7007324Y12958784D01*
X7157489Y13108687D01*
X7238857Y13304645D01*
X7239042Y13516824D01*
X7162750Y13701467D01*
X7162750Y14353171D01*
X7480350Y14353171D01*
X7480350Y13976387D01*
X7562887Y13893850D01*
X8140650Y13893850D01*
X8140650Y14535113D01*
X8242350Y14535113D01*
X8242350Y13893850D01*
X8820113Y13893850D01*
X8902650Y13976387D01*
X8902650Y14353171D01*
X8852388Y14474515D01*
X8759515Y14567388D01*
X8638171Y14617650D01*
X8324887Y14617650D01*
X8242350Y14535113D01*
X8140650Y14535113D01*
X8058113Y14617650D01*
X7744829Y14617650D01*
X7623485Y14567388D01*
X7530612Y14474515D01*
X7480350Y14353171D01*
X7162750Y14353171D01*
X7162750Y14593442D01*
X7413120Y14843812D01*
X7453339Y14816332D01*
X7544000Y14797973D01*
X8344000Y14797973D01*
X8428695Y14813910D01*
X8506483Y14863964D01*
X8558668Y14940339D01*
X8577027Y15031000D01*
X8577027Y15544850D01*
X8802242Y15544850D01*
X9364346Y14982746D01*
X9364346Y14982746D01*
G37*
X9364346Y14982746D02*
X9512656Y14883648D01*
X9687600Y14848850D01*
X9805748Y14848850D01*
X9853339Y14816332D01*
X9944000Y14797973D01*
X10081202Y14797973D01*
X10063711Y14780513D01*
X9982343Y14584555D01*
X9982285Y14517938D01*
X9969500Y14520527D01*
X9207500Y14520527D01*
X9122805Y14504590D01*
X9045017Y14454536D01*
X8992832Y14378161D01*
X8974473Y14287500D01*
X8974473Y13398500D01*
X8990410Y13313805D01*
X9040464Y13236017D01*
X9116839Y13183832D01*
X9121427Y13182903D01*
X9045017Y13133736D01*
X8992832Y13057361D01*
X8974473Y12966700D01*
X8974473Y12077700D01*
X8990410Y11993005D01*
X9040464Y11915217D01*
X9081475Y11887195D01*
X9045017Y11863736D01*
X8992832Y11787361D01*
X8974473Y11696700D01*
X8974473Y10807700D01*
X8990410Y10723005D01*
X9040464Y10645217D01*
X9116839Y10593032D01*
X9163777Y10583527D01*
X9080500Y10583527D01*
X8995805Y10567590D01*
X8918017Y10517536D01*
X8889995Y10476525D01*
X8866536Y10512983D01*
X8790161Y10565168D01*
X8699500Y10583527D01*
X8619553Y10583527D01*
X8657195Y10590610D01*
X8734983Y10640664D01*
X8787168Y10717039D01*
X8805527Y10807700D01*
X8805527Y11696700D01*
X8789590Y11781395D01*
X8739536Y11859183D01*
X8698525Y11887205D01*
X8734983Y11910664D01*
X8787168Y11987039D01*
X8805527Y12077700D01*
X8805527Y12966700D01*
X8789590Y13051395D01*
X8749111Y13114303D01*
X8759515Y13118612D01*
X8852388Y13211485D01*
X8902650Y13332829D01*
X8902650Y13709613D01*
X8820113Y13792150D01*
X8242350Y13792150D01*
X8242350Y13772150D01*
X8140650Y13772150D01*
X8140650Y13792150D01*
X7562887Y13792150D01*
X7480350Y13709613D01*
X7480350Y13332829D01*
X7530612Y13211485D01*
X7623485Y13118612D01*
X7634551Y13114028D01*
X7595832Y13057361D01*
X7577473Y12966700D01*
X7577473Y12339155D01*
X7430270Y12191952D01*
X6679432Y12191952D01*
X6641447Y12229937D01*
X6641447Y12277090D01*
X6625510Y12361785D01*
X6599115Y12402804D01*
X6623088Y12437889D01*
X6641447Y12528550D01*
X6641447Y12877906D01*
X6811224Y12877758D01*
X7007324Y12958784D01*
X7157489Y13108687D01*
X7238857Y13304645D01*
X7239042Y13516824D01*
X7162750Y13701467D01*
X7162750Y14353171D01*
X7480350Y14353171D01*
X7480350Y13976387D01*
X7562887Y13893850D01*
X8140650Y13893850D01*
X8140650Y14535113D01*
X8242350Y14535113D01*
X8242350Y13893850D01*
X8820113Y13893850D01*
X8902650Y13976387D01*
X8902650Y14353171D01*
X8852388Y14474515D01*
X8759515Y14567388D01*
X8638171Y14617650D01*
X8324887Y14617650D01*
X8242350Y14535113D01*
X8140650Y14535113D01*
X8058113Y14617650D01*
X7744829Y14617650D01*
X7623485Y14567388D01*
X7530612Y14474515D01*
X7480350Y14353171D01*
X7162750Y14353171D01*
X7162750Y14593442D01*
X7413120Y14843812D01*
X7453339Y14816332D01*
X7544000Y14797973D01*
X8344000Y14797973D01*
X8428695Y14813910D01*
X8506483Y14863964D01*
X8558668Y14940339D01*
X8577027Y15031000D01*
X8577027Y15544850D01*
X8802242Y15544850D01*
X9364346Y14982746D01*
G36*
X23101635Y15024512D02*
X23101637Y15024509D01*
X23167699Y14980368D01*
X23200506Y14958447D01*
X23317128Y14935249D01*
X23317133Y14935250D01*
X24231600Y14935250D01*
X24348223Y14958448D01*
X24447091Y15024509D01*
X24990219Y15567637D01*
X24998384Y15547876D01*
X25148287Y15397711D01*
X25344245Y15316343D01*
X25556424Y15316158D01*
X25752524Y15397184D01*
X25895307Y15539718D01*
X25910287Y15524711D01*
X26106245Y15443343D01*
X26289094Y15443184D01*
X26288958Y15286776D01*
X26369984Y15090676D01*
X26519887Y14940511D01*
X26715845Y14859143D01*
X26928024Y14858958D01*
X27124124Y14939984D01*
X27152338Y14968149D01*
X27201559Y14894483D01*
X27216509Y14872109D01*
X27595463Y14493155D01*
X27589611Y14487313D01*
X27508243Y14291355D01*
X27508058Y14079176D01*
X27589084Y13883076D01*
X27738987Y13732911D01*
X27934945Y13651543D01*
X28147124Y13651358D01*
X28343224Y13732384D01*
X28493389Y13882287D01*
X28574757Y14078245D01*
X28574942Y14290424D01*
X28493916Y14486524D01*
X28344013Y14636689D01*
X28276196Y14664849D01*
X28256991Y14693591D01*
X28146948Y14803634D01*
X28292524Y14863784D01*
X28442689Y15013687D01*
X28524057Y15209645D01*
X28524068Y15222556D01*
X28651250Y15095152D01*
X28651250Y13054016D01*
X28093936Y12496702D01*
X24826359Y12496702D01*
X24642955Y12572857D01*
X24430776Y12573042D01*
X24234676Y12492016D01*
X24084511Y12342113D01*
X24079150Y12329202D01*
X24079150Y12344400D01*
X24055952Y12461023D01*
X23989891Y12559891D01*
X22156011Y14393771D01*
X22144069Y14401750D01*
X22057143Y14459832D01*
X21940520Y14483030D01*
X21745179Y14483030D01*
X21754447Y14528800D01*
X21754447Y14828520D01*
X21738510Y14913215D01*
X21728950Y14928072D01*
X21736088Y14938519D01*
X21754447Y15029180D01*
X21754447Y15328900D01*
X21738510Y15413595D01*
X21688456Y15491383D01*
X21612081Y15543568D01*
X21521420Y15561927D01*
X20332278Y15561927D01*
X20332278Y15812640D01*
X20724884Y16205246D01*
X21920900Y16205246D01*
X23101635Y15024512D01*
X23101635Y15024512D01*
G37*
X23101635Y15024512D02*
X23101637Y15024509D01*
X23167699Y14980368D01*
X23200506Y14958447D01*
X23317128Y14935249D01*
X23317133Y14935250D01*
X24231600Y14935250D01*
X24348223Y14958448D01*
X24447091Y15024509D01*
X24990219Y15567637D01*
X24998384Y15547876D01*
X25148287Y15397711D01*
X25344245Y15316343D01*
X25556424Y15316158D01*
X25752524Y15397184D01*
X25895307Y15539718D01*
X25910287Y15524711D01*
X26106245Y15443343D01*
X26289094Y15443184D01*
X26288958Y15286776D01*
X26369984Y15090676D01*
X26519887Y14940511D01*
X26715845Y14859143D01*
X26928024Y14858958D01*
X27124124Y14939984D01*
X27152338Y14968149D01*
X27201559Y14894483D01*
X27216509Y14872109D01*
X27595463Y14493155D01*
X27589611Y14487313D01*
X27508243Y14291355D01*
X27508058Y14079176D01*
X27589084Y13883076D01*
X27738987Y13732911D01*
X27934945Y13651543D01*
X28147124Y13651358D01*
X28343224Y13732384D01*
X28493389Y13882287D01*
X28574757Y14078245D01*
X28574942Y14290424D01*
X28493916Y14486524D01*
X28344013Y14636689D01*
X28276196Y14664849D01*
X28256991Y14693591D01*
X28146948Y14803634D01*
X28292524Y14863784D01*
X28442689Y15013687D01*
X28524057Y15209645D01*
X28524068Y15222556D01*
X28651250Y15095152D01*
X28651250Y13054016D01*
X28093936Y12496702D01*
X24826359Y12496702D01*
X24642955Y12572857D01*
X24430776Y12573042D01*
X24234676Y12492016D01*
X24084511Y12342113D01*
X24079150Y12329202D01*
X24079150Y12344400D01*
X24055952Y12461023D01*
X23989891Y12559891D01*
X22156011Y14393771D01*
X22144069Y14401750D01*
X22057143Y14459832D01*
X21940520Y14483030D01*
X21745179Y14483030D01*
X21754447Y14528800D01*
X21754447Y14828520D01*
X21738510Y14913215D01*
X21728950Y14928072D01*
X21736088Y14938519D01*
X21754447Y15029180D01*
X21754447Y15328900D01*
X21738510Y15413595D01*
X21688456Y15491383D01*
X21612081Y15543568D01*
X21521420Y15561927D01*
X20332278Y15561927D01*
X20332278Y15812640D01*
X20724884Y16205246D01*
X21920900Y16205246D01*
X23101635Y15024512D01*
G36*
X17737473Y15049500D02*
X17737473Y14173150D01*
X17665650Y14173150D01*
X17665650Y14471613D01*
X17583113Y14554150D01*
X17005350Y14554150D01*
X17005350Y14534150D01*
X16903650Y14534150D01*
X16903650Y14554150D01*
X16883650Y14554150D01*
X16883650Y14655850D01*
X16903650Y14655850D01*
X16903650Y14675850D01*
X17005350Y14675850D01*
X17005350Y14655850D01*
X17583113Y14655850D01*
X17665650Y14738387D01*
X17665650Y15100350D01*
X17747770Y15100350D01*
X17737473Y15049500D01*
X17737473Y15049500D01*
G37*
X17737473Y15049500D02*
X17737473Y14173150D01*
X17665650Y14173150D01*
X17665650Y14471613D01*
X17583113Y14554150D01*
X17005350Y14554150D01*
X17005350Y14534150D01*
X16903650Y14534150D01*
X16903650Y14554150D01*
X16883650Y14554150D01*
X16883650Y14655850D01*
X16903650Y14655850D01*
X16903650Y14675850D01*
X17005350Y14675850D01*
X17005350Y14655850D01*
X17583113Y14655850D01*
X17665650Y14738387D01*
X17665650Y15100350D01*
X17747770Y15100350D01*
X17737473Y15049500D01*
G36*
X38938243Y20082555D02*
X38938058Y19870376D01*
X39019084Y19674276D01*
X39168987Y19524111D01*
X39364945Y19442743D01*
X39577124Y19442558D01*
X39762207Y19519032D01*
X39649622Y19247897D01*
X39649421Y19017732D01*
X39621713Y19045489D01*
X39425755Y19126857D01*
X39213576Y19127042D01*
X39090574Y19076219D01*
X39090722Y19246168D01*
X38940237Y19610368D01*
X38661834Y19889258D01*
X38297897Y20040378D01*
X37903832Y20040722D01*
X37539632Y19890237D01*
X37260742Y19611834D01*
X37109622Y19247897D01*
X37109278Y18853832D01*
X37259763Y18489632D01*
X37538166Y18210742D01*
X37902103Y18059622D01*
X38296168Y18059278D01*
X38660368Y18209763D01*
X38830527Y18379625D01*
X38862050Y18303333D01*
X38862050Y18172558D01*
X37659506Y16970014D01*
X37624246Y16946454D01*
X37525148Y16798144D01*
X37500980Y16676641D01*
X37425000Y16692027D01*
X37097930Y16692027D01*
X37173388Y16767485D01*
X37223650Y16888829D01*
X37223650Y17265613D01*
X37141113Y17348150D01*
X36563350Y17348150D01*
X36563350Y16706887D01*
X36645887Y16624350D01*
X36711365Y16624350D01*
X36660332Y16549661D01*
X36641973Y16459000D01*
X36641973Y15659000D01*
X36657910Y15574305D01*
X36670554Y15554654D01*
X36656998Y15522006D01*
X36094627Y14959635D01*
X36068000Y14965027D01*
X35306000Y14965027D01*
X35221305Y14949090D01*
X35143517Y14899036D01*
X35120564Y14865444D01*
X35094527Y14891481D01*
X35094527Y15303500D01*
X35078590Y15388195D01*
X35028536Y15465983D01*
X34952161Y15518168D01*
X34861500Y15536527D01*
X34649560Y15536527D01*
X34683650Y15618829D01*
X34683650Y15932113D01*
X34601113Y16014650D01*
X33959850Y16014650D01*
X33959850Y15994650D01*
X33858150Y15994650D01*
X33858150Y16014650D01*
X33216887Y16014650D01*
X33134350Y15932113D01*
X33134350Y15618829D01*
X33184612Y15497485D01*
X33277485Y15404612D01*
X33398829Y15354350D01*
X33749770Y15354350D01*
X33739473Y15303500D01*
X33739473Y15075817D01*
X33258628Y14594972D01*
X33250487Y14582788D01*
X33250487Y14828520D01*
X33234550Y14913215D01*
X33224990Y14928072D01*
X33232128Y14938519D01*
X33250487Y15029180D01*
X33250487Y15328900D01*
X33234550Y15413595D01*
X33184496Y15491383D01*
X33108121Y15543568D01*
X33017460Y15561927D01*
X32982532Y15561927D01*
X32994457Y15590645D01*
X32994642Y15802824D01*
X32913616Y15998924D01*
X32763713Y16149089D01*
X32567755Y16230457D01*
X32355576Y16230642D01*
X32159476Y16149616D01*
X32154411Y16144560D01*
X32151616Y16151324D01*
X32001713Y16301489D01*
X31805755Y16382857D01*
X31646086Y16382996D01*
X31775261Y16512171D01*
X33134350Y16512171D01*
X33134350Y16198887D01*
X33216887Y16116350D01*
X33858150Y16116350D01*
X33858150Y16694113D01*
X33775613Y16776650D01*
X33398829Y16776650D01*
X33277485Y16726388D01*
X33184612Y16633515D01*
X33134350Y16512171D01*
X31775261Y16512171D01*
X32268440Y17005350D01*
X33245802Y17005350D01*
X33247410Y16996805D01*
X33297464Y16919017D01*
X33373839Y16866832D01*
X33464500Y16848473D01*
X34353500Y16848473D01*
X34438195Y16864410D01*
X34509760Y16910460D01*
X34517410Y16869805D01*
X34567464Y16792017D01*
X34643839Y16739832D01*
X34658350Y16736893D01*
X34658350Y16573500D01*
X34658445Y16573021D01*
X34633388Y16633515D01*
X34540515Y16726388D01*
X34419171Y16776650D01*
X34042387Y16776650D01*
X33959850Y16694113D01*
X33959850Y16116350D01*
X34601113Y16116350D01*
X34683650Y16198887D01*
X34683650Y16446306D01*
X34693148Y16398556D01*
X34792246Y16250246D01*
X35072973Y15969519D01*
X35072973Y15494000D01*
X35088910Y15409305D01*
X35138964Y15331517D01*
X35215339Y15279332D01*
X35306000Y15260973D01*
X36068000Y15260973D01*
X36152695Y15276910D01*
X36230483Y15326964D01*
X36282668Y15403339D01*
X36301027Y15494000D01*
X36301027Y16510000D01*
X36285090Y16594695D01*
X36266008Y16624350D01*
X36379113Y16624350D01*
X36461650Y16706887D01*
X36461650Y17348150D01*
X35883887Y17348150D01*
X35801350Y17265613D01*
X35801350Y16888829D01*
X35851612Y16767485D01*
X35876070Y16743027D01*
X35592481Y16743027D01*
X35591480Y16744028D01*
X35658983Y16787464D01*
X35711168Y16863839D01*
X35729527Y16954500D01*
X35729527Y17843500D01*
X35717170Y17909171D01*
X35801350Y17909171D01*
X35801350Y17532387D01*
X35883887Y17449850D01*
X36461650Y17449850D01*
X36461650Y18091113D01*
X36563350Y18091113D01*
X36563350Y17449850D01*
X37141113Y17449850D01*
X37223650Y17532387D01*
X37223650Y17909171D01*
X37173388Y18030515D01*
X37080515Y18123388D01*
X36959171Y18173650D01*
X36645887Y18173650D01*
X36563350Y18091113D01*
X36461650Y18091113D01*
X36379113Y18173650D01*
X36065829Y18173650D01*
X35944485Y18123388D01*
X35851612Y18030515D01*
X35801350Y17909171D01*
X35717170Y17909171D01*
X35713590Y17928195D01*
X35663536Y18005983D01*
X35587161Y18058168D01*
X35580924Y18059431D01*
X35756168Y18059278D01*
X36120368Y18209763D01*
X36399258Y18488166D01*
X36550378Y18852103D01*
X36550722Y19246168D01*
X36400237Y19610368D01*
X36121834Y19889258D01*
X35757897Y20040378D01*
X35363832Y20040722D01*
X34999632Y19890237D01*
X34747050Y19638096D01*
X34747050Y20269250D01*
X39015765Y20269250D01*
X38938243Y20082555D01*
X38938243Y20082555D01*
G37*
X38938243Y20082555D02*
X38938058Y19870376D01*
X39019084Y19674276D01*
X39168987Y19524111D01*
X39364945Y19442743D01*
X39577124Y19442558D01*
X39762207Y19519032D01*
X39649622Y19247897D01*
X39649421Y19017732D01*
X39621713Y19045489D01*
X39425755Y19126857D01*
X39213576Y19127042D01*
X39090574Y19076219D01*
X39090722Y19246168D01*
X38940237Y19610368D01*
X38661834Y19889258D01*
X38297897Y20040378D01*
X37903832Y20040722D01*
X37539632Y19890237D01*
X37260742Y19611834D01*
X37109622Y19247897D01*
X37109278Y18853832D01*
X37259763Y18489632D01*
X37538166Y18210742D01*
X37902103Y18059622D01*
X38296168Y18059278D01*
X38660368Y18209763D01*
X38830527Y18379625D01*
X38862050Y18303333D01*
X38862050Y18172558D01*
X37659506Y16970014D01*
X37624246Y16946454D01*
X37525148Y16798144D01*
X37500980Y16676641D01*
X37425000Y16692027D01*
X37097930Y16692027D01*
X37173388Y16767485D01*
X37223650Y16888829D01*
X37223650Y17265613D01*
X37141113Y17348150D01*
X36563350Y17348150D01*
X36563350Y16706887D01*
X36645887Y16624350D01*
X36711365Y16624350D01*
X36660332Y16549661D01*
X36641973Y16459000D01*
X36641973Y15659000D01*
X36657910Y15574305D01*
X36670554Y15554654D01*
X36656998Y15522006D01*
X36094627Y14959635D01*
X36068000Y14965027D01*
X35306000Y14965027D01*
X35221305Y14949090D01*
X35143517Y14899036D01*
X35120564Y14865444D01*
X35094527Y14891481D01*
X35094527Y15303500D01*
X35078590Y15388195D01*
X35028536Y15465983D01*
X34952161Y15518168D01*
X34861500Y15536527D01*
X34649560Y15536527D01*
X34683650Y15618829D01*
X34683650Y15932113D01*
X34601113Y16014650D01*
X33959850Y16014650D01*
X33959850Y15994650D01*
X33858150Y15994650D01*
X33858150Y16014650D01*
X33216887Y16014650D01*
X33134350Y15932113D01*
X33134350Y15618829D01*
X33184612Y15497485D01*
X33277485Y15404612D01*
X33398829Y15354350D01*
X33749770Y15354350D01*
X33739473Y15303500D01*
X33739473Y15075817D01*
X33258628Y14594972D01*
X33250487Y14582788D01*
X33250487Y14828520D01*
X33234550Y14913215D01*
X33224990Y14928072D01*
X33232128Y14938519D01*
X33250487Y15029180D01*
X33250487Y15328900D01*
X33234550Y15413595D01*
X33184496Y15491383D01*
X33108121Y15543568D01*
X33017460Y15561927D01*
X32982532Y15561927D01*
X32994457Y15590645D01*
X32994642Y15802824D01*
X32913616Y15998924D01*
X32763713Y16149089D01*
X32567755Y16230457D01*
X32355576Y16230642D01*
X32159476Y16149616D01*
X32154411Y16144560D01*
X32151616Y16151324D01*
X32001713Y16301489D01*
X31805755Y16382857D01*
X31646086Y16382996D01*
X31775261Y16512171D01*
X33134350Y16512171D01*
X33134350Y16198887D01*
X33216887Y16116350D01*
X33858150Y16116350D01*
X33858150Y16694113D01*
X33775613Y16776650D01*
X33398829Y16776650D01*
X33277485Y16726388D01*
X33184612Y16633515D01*
X33134350Y16512171D01*
X31775261Y16512171D01*
X32268440Y17005350D01*
X33245802Y17005350D01*
X33247410Y16996805D01*
X33297464Y16919017D01*
X33373839Y16866832D01*
X33464500Y16848473D01*
X34353500Y16848473D01*
X34438195Y16864410D01*
X34509760Y16910460D01*
X34517410Y16869805D01*
X34567464Y16792017D01*
X34643839Y16739832D01*
X34658350Y16736893D01*
X34658350Y16573500D01*
X34658445Y16573021D01*
X34633388Y16633515D01*
X34540515Y16726388D01*
X34419171Y16776650D01*
X34042387Y16776650D01*
X33959850Y16694113D01*
X33959850Y16116350D01*
X34601113Y16116350D01*
X34683650Y16198887D01*
X34683650Y16446306D01*
X34693148Y16398556D01*
X34792246Y16250246D01*
X35072973Y15969519D01*
X35072973Y15494000D01*
X35088910Y15409305D01*
X35138964Y15331517D01*
X35215339Y15279332D01*
X35306000Y15260973D01*
X36068000Y15260973D01*
X36152695Y15276910D01*
X36230483Y15326964D01*
X36282668Y15403339D01*
X36301027Y15494000D01*
X36301027Y16510000D01*
X36285090Y16594695D01*
X36266008Y16624350D01*
X36379113Y16624350D01*
X36461650Y16706887D01*
X36461650Y17348150D01*
X35883887Y17348150D01*
X35801350Y17265613D01*
X35801350Y16888829D01*
X35851612Y16767485D01*
X35876070Y16743027D01*
X35592481Y16743027D01*
X35591480Y16744028D01*
X35658983Y16787464D01*
X35711168Y16863839D01*
X35729527Y16954500D01*
X35729527Y17843500D01*
X35717170Y17909171D01*
X35801350Y17909171D01*
X35801350Y17532387D01*
X35883887Y17449850D01*
X36461650Y17449850D01*
X36461650Y18091113D01*
X36563350Y18091113D01*
X36563350Y17449850D01*
X37141113Y17449850D01*
X37223650Y17532387D01*
X37223650Y17909171D01*
X37173388Y18030515D01*
X37080515Y18123388D01*
X36959171Y18173650D01*
X36645887Y18173650D01*
X36563350Y18091113D01*
X36461650Y18091113D01*
X36379113Y18173650D01*
X36065829Y18173650D01*
X35944485Y18123388D01*
X35851612Y18030515D01*
X35801350Y17909171D01*
X35717170Y17909171D01*
X35713590Y17928195D01*
X35663536Y18005983D01*
X35587161Y18058168D01*
X35580924Y18059431D01*
X35756168Y18059278D01*
X36120368Y18209763D01*
X36399258Y18488166D01*
X36550378Y18852103D01*
X36550722Y19246168D01*
X36400237Y19610368D01*
X36121834Y19889258D01*
X35757897Y20040378D01*
X35363832Y20040722D01*
X34999632Y19890237D01*
X34747050Y19638096D01*
X34747050Y20269250D01*
X39015765Y20269250D01*
X38938243Y20082555D01*
G36*
X17386350Y16634829D02*
X17401456Y16598359D01*
X17310641Y16507544D01*
X17274171Y16522650D01*
X16897387Y16522650D01*
X16814850Y16440113D01*
X16814850Y15862350D01*
X16834850Y15862350D01*
X16834850Y15760650D01*
X16814850Y15760650D01*
X16814850Y15740650D01*
X16713150Y15740650D01*
X16713150Y15760650D01*
X16071887Y15760650D01*
X15989350Y15678113D01*
X15989350Y15364829D01*
X16039612Y15243485D01*
X16132485Y15150612D01*
X16243350Y15104691D01*
X16243350Y14955286D01*
X16108555Y15011257D01*
X15896376Y15011442D01*
X15846407Y14990795D01*
X15846407Y15841980D01*
X15844110Y15854187D01*
X15846524Y15855184D01*
X15989350Y15997761D01*
X15989350Y15944887D01*
X16071887Y15862350D01*
X16713150Y15862350D01*
X16713150Y16440113D01*
X16630613Y16522650D01*
X16253829Y16522650D01*
X16132485Y16472388D01*
X16076803Y16416706D01*
X16043771Y16496650D01*
X16100983Y16533464D01*
X16153168Y16609839D01*
X16162898Y16657888D01*
X16228839Y16612832D01*
X16319500Y16594473D01*
X17208500Y16594473D01*
X17293195Y16610410D01*
X17370983Y16660464D01*
X17386350Y16682954D01*
X17386350Y16634829D01*
X17386350Y16634829D01*
G37*
X17386350Y16634829D02*
X17401456Y16598359D01*
X17310641Y16507544D01*
X17274171Y16522650D01*
X16897387Y16522650D01*
X16814850Y16440113D01*
X16814850Y15862350D01*
X16834850Y15862350D01*
X16834850Y15760650D01*
X16814850Y15760650D01*
X16814850Y15740650D01*
X16713150Y15740650D01*
X16713150Y15760650D01*
X16071887Y15760650D01*
X15989350Y15678113D01*
X15989350Y15364829D01*
X16039612Y15243485D01*
X16132485Y15150612D01*
X16243350Y15104691D01*
X16243350Y14955286D01*
X16108555Y15011257D01*
X15896376Y15011442D01*
X15846407Y14990795D01*
X15846407Y15841980D01*
X15844110Y15854187D01*
X15846524Y15855184D01*
X15989350Y15997761D01*
X15989350Y15944887D01*
X16071887Y15862350D01*
X16713150Y15862350D01*
X16713150Y16440113D01*
X16630613Y16522650D01*
X16253829Y16522650D01*
X16132485Y16472388D01*
X16076803Y16416706D01*
X16043771Y16496650D01*
X16100983Y16533464D01*
X16153168Y16609839D01*
X16162898Y16657888D01*
X16228839Y16612832D01*
X16319500Y16594473D01*
X17208500Y16594473D01*
X17293195Y16610410D01*
X17370983Y16660464D01*
X17386350Y16682954D01*
X17386350Y16634829D01*
G36*
X33832750Y19637903D02*
X33581834Y19889258D01*
X33217897Y20040378D01*
X32823832Y20040722D01*
X32459632Y19890237D01*
X32180742Y19611834D01*
X32029622Y19247897D01*
X32029278Y18853832D01*
X32135580Y18596562D01*
X31023768Y17484750D01*
X30801927Y17484750D01*
X30801927Y17777460D01*
X30785990Y17862155D01*
X30735936Y17939943D01*
X30659561Y17992128D01*
X30568900Y18010487D01*
X30302396Y18010487D01*
X30255535Y18057348D01*
X30134191Y18107610D01*
X30052047Y18107610D01*
X29969510Y18025073D01*
X29969510Y17228870D01*
X29989510Y17228870D01*
X29989510Y17127170D01*
X29969510Y17127170D01*
X29969510Y17107170D01*
X29867810Y17107170D01*
X29867810Y17127170D01*
X29847810Y17127170D01*
X29847810Y17228870D01*
X29867810Y17228870D01*
X29867810Y18025073D01*
X29785273Y18107610D01*
X29703129Y18107610D01*
X29635977Y18079795D01*
X29842611Y18286429D01*
X29918166Y18210742D01*
X30282103Y18059622D01*
X30676168Y18059278D01*
X31040368Y18209763D01*
X31319258Y18488166D01*
X31470378Y18852103D01*
X31470722Y19246168D01*
X31320237Y19610368D01*
X31041834Y19889258D01*
X30677897Y20040378D01*
X30283832Y20040722D01*
X29919632Y19890237D01*
X29640742Y19611834D01*
X29489622Y19247897D01*
X29489278Y18853832D01*
X29506462Y18812244D01*
X28724810Y18030592D01*
X28724810Y18433813D01*
X28779258Y18488166D01*
X28930378Y18852103D01*
X28930722Y19246168D01*
X28780237Y19610368D01*
X28501834Y19889258D01*
X28137897Y20040378D01*
X27743832Y20040722D01*
X27379632Y19890237D01*
X27100742Y19611834D01*
X26949622Y19247897D01*
X26949278Y18853832D01*
X27099763Y18489632D01*
X27378166Y18210742D01*
X27742103Y18059622D01*
X28115310Y18059296D01*
X28115310Y18001219D01*
X28069540Y18010487D01*
X27769820Y18010487D01*
X27685125Y17994550D01*
X27670268Y17984990D01*
X27659821Y17992128D01*
X27569160Y18010487D01*
X27269440Y18010487D01*
X27184745Y17994550D01*
X27169888Y17984990D01*
X27159441Y17992128D01*
X27068780Y18010487D01*
X26769060Y18010487D01*
X26684365Y17994550D01*
X26670816Y17985832D01*
X26661601Y17992128D01*
X26570940Y18010487D01*
X26271220Y18010487D01*
X26186525Y17994550D01*
X26171668Y17984990D01*
X26161221Y17992128D01*
X26070560Y18010487D01*
X25770840Y18010487D01*
X25686145Y17994550D01*
X25671288Y17984990D01*
X25660841Y17992128D01*
X25570180Y18010487D01*
X25270460Y18010487D01*
X25185765Y17994550D01*
X25172216Y17985832D01*
X25163001Y17992128D01*
X25072340Y18010487D01*
X24772620Y18010487D01*
X24687925Y17994550D01*
X24673068Y17984990D01*
X24662621Y17992128D01*
X24571960Y18010487D01*
X24272240Y18010487D01*
X24187545Y17994550D01*
X24172688Y17984990D01*
X24162241Y17992128D01*
X24071580Y18010487D01*
X23771860Y18010487D01*
X23687165Y17994550D01*
X23672308Y17984990D01*
X23661861Y17992128D01*
X23571200Y18010487D01*
X23271480Y18010487D01*
X23186785Y17994550D01*
X23171928Y17984990D01*
X23161481Y17992128D01*
X23070820Y18010487D01*
X22771100Y18010487D01*
X22686405Y17994550D01*
X22608617Y17944496D01*
X22556432Y17868121D01*
X22538073Y17777460D01*
X22538073Y17729150D01*
X20057228Y17729150D01*
X20042536Y17751983D01*
X19966161Y17804168D01*
X19875500Y17822527D01*
X19507150Y17822527D01*
X19507150Y18462197D01*
X19758166Y18210742D01*
X20122103Y18059622D01*
X20516168Y18059278D01*
X20880368Y18209763D01*
X21159258Y18488166D01*
X21310378Y18852103D01*
X21310379Y18853832D01*
X21869278Y18853832D01*
X22019763Y18489632D01*
X22298166Y18210742D01*
X22662103Y18059622D01*
X23056168Y18059278D01*
X23420368Y18209763D01*
X23699258Y18488166D01*
X23850378Y18852103D01*
X23850379Y18853832D01*
X24409278Y18853832D01*
X24559763Y18489632D01*
X24838166Y18210742D01*
X25202103Y18059622D01*
X25596168Y18059278D01*
X25960368Y18209763D01*
X26239258Y18488166D01*
X26390378Y18852103D01*
X26390722Y19246168D01*
X26240237Y19610368D01*
X25961834Y19889258D01*
X25597897Y20040378D01*
X25203832Y20040722D01*
X24839632Y19890237D01*
X24560742Y19611834D01*
X24409622Y19247897D01*
X24409278Y18853832D01*
X23850379Y18853832D01*
X23850722Y19246168D01*
X23700237Y19610368D01*
X23421834Y19889258D01*
X23057897Y20040378D01*
X22663832Y20040722D01*
X22299632Y19890237D01*
X22020742Y19611834D01*
X21869622Y19247897D01*
X21869278Y18853832D01*
X21310379Y18853832D01*
X21310722Y19246168D01*
X21160237Y19610368D01*
X20881834Y19889258D01*
X20517897Y20040378D01*
X20123832Y20040722D01*
X19759632Y19890237D01*
X19507150Y19638196D01*
X19507150Y20269250D01*
X33832750Y20269250D01*
X33832750Y19637903D01*
X33832750Y19637903D01*
G37*
X33832750Y19637903D02*
X33581834Y19889258D01*
X33217897Y20040378D01*
X32823832Y20040722D01*
X32459632Y19890237D01*
X32180742Y19611834D01*
X32029622Y19247897D01*
X32029278Y18853832D01*
X32135580Y18596562D01*
X31023768Y17484750D01*
X30801927Y17484750D01*
X30801927Y17777460D01*
X30785990Y17862155D01*
X30735936Y17939943D01*
X30659561Y17992128D01*
X30568900Y18010487D01*
X30302396Y18010487D01*
X30255535Y18057348D01*
X30134191Y18107610D01*
X30052047Y18107610D01*
X29969510Y18025073D01*
X29969510Y17228870D01*
X29989510Y17228870D01*
X29989510Y17127170D01*
X29969510Y17127170D01*
X29969510Y17107170D01*
X29867810Y17107170D01*
X29867810Y17127170D01*
X29847810Y17127170D01*
X29847810Y17228870D01*
X29867810Y17228870D01*
X29867810Y18025073D01*
X29785273Y18107610D01*
X29703129Y18107610D01*
X29635977Y18079795D01*
X29842611Y18286429D01*
X29918166Y18210742D01*
X30282103Y18059622D01*
X30676168Y18059278D01*
X31040368Y18209763D01*
X31319258Y18488166D01*
X31470378Y18852103D01*
X31470722Y19246168D01*
X31320237Y19610368D01*
X31041834Y19889258D01*
X30677897Y20040378D01*
X30283832Y20040722D01*
X29919632Y19890237D01*
X29640742Y19611834D01*
X29489622Y19247897D01*
X29489278Y18853832D01*
X29506462Y18812244D01*
X28724810Y18030592D01*
X28724810Y18433813D01*
X28779258Y18488166D01*
X28930378Y18852103D01*
X28930722Y19246168D01*
X28780237Y19610368D01*
X28501834Y19889258D01*
X28137897Y20040378D01*
X27743832Y20040722D01*
X27379632Y19890237D01*
X27100742Y19611834D01*
X26949622Y19247897D01*
X26949278Y18853832D01*
X27099763Y18489632D01*
X27378166Y18210742D01*
X27742103Y18059622D01*
X28115310Y18059296D01*
X28115310Y18001219D01*
X28069540Y18010487D01*
X27769820Y18010487D01*
X27685125Y17994550D01*
X27670268Y17984990D01*
X27659821Y17992128D01*
X27569160Y18010487D01*
X27269440Y18010487D01*
X27184745Y17994550D01*
X27169888Y17984990D01*
X27159441Y17992128D01*
X27068780Y18010487D01*
X26769060Y18010487D01*
X26684365Y17994550D01*
X26670816Y17985832D01*
X26661601Y17992128D01*
X26570940Y18010487D01*
X26271220Y18010487D01*
X26186525Y17994550D01*
X26171668Y17984990D01*
X26161221Y17992128D01*
X26070560Y18010487D01*
X25770840Y18010487D01*
X25686145Y17994550D01*
X25671288Y17984990D01*
X25660841Y17992128D01*
X25570180Y18010487D01*
X25270460Y18010487D01*
X25185765Y17994550D01*
X25172216Y17985832D01*
X25163001Y17992128D01*
X25072340Y18010487D01*
X24772620Y18010487D01*
X24687925Y17994550D01*
X24673068Y17984990D01*
X24662621Y17992128D01*
X24571960Y18010487D01*
X24272240Y18010487D01*
X24187545Y17994550D01*
X24172688Y17984990D01*
X24162241Y17992128D01*
X24071580Y18010487D01*
X23771860Y18010487D01*
X23687165Y17994550D01*
X23672308Y17984990D01*
X23661861Y17992128D01*
X23571200Y18010487D01*
X23271480Y18010487D01*
X23186785Y17994550D01*
X23171928Y17984990D01*
X23161481Y17992128D01*
X23070820Y18010487D01*
X22771100Y18010487D01*
X22686405Y17994550D01*
X22608617Y17944496D01*
X22556432Y17868121D01*
X22538073Y17777460D01*
X22538073Y17729150D01*
X20057228Y17729150D01*
X20042536Y17751983D01*
X19966161Y17804168D01*
X19875500Y17822527D01*
X19507150Y17822527D01*
X19507150Y18462197D01*
X19758166Y18210742D01*
X20122103Y18059622D01*
X20516168Y18059278D01*
X20880368Y18209763D01*
X21159258Y18488166D01*
X21310378Y18852103D01*
X21310379Y18853832D01*
X21869278Y18853832D01*
X22019763Y18489632D01*
X22298166Y18210742D01*
X22662103Y18059622D01*
X23056168Y18059278D01*
X23420368Y18209763D01*
X23699258Y18488166D01*
X23850378Y18852103D01*
X23850379Y18853832D01*
X24409278Y18853832D01*
X24559763Y18489632D01*
X24838166Y18210742D01*
X25202103Y18059622D01*
X25596168Y18059278D01*
X25960368Y18209763D01*
X26239258Y18488166D01*
X26390378Y18852103D01*
X26390722Y19246168D01*
X26240237Y19610368D01*
X25961834Y19889258D01*
X25597897Y20040378D01*
X25203832Y20040722D01*
X24839632Y19890237D01*
X24560742Y19611834D01*
X24409622Y19247897D01*
X24409278Y18853832D01*
X23850379Y18853832D01*
X23850722Y19246168D01*
X23700237Y19610368D01*
X23421834Y19889258D01*
X23057897Y20040378D01*
X22663832Y20040722D01*
X22299632Y19890237D01*
X22020742Y19611834D01*
X21869622Y19247897D01*
X21869278Y18853832D01*
X21310379Y18853832D01*
X21310722Y19246168D01*
X21160237Y19610368D01*
X20881834Y19889258D01*
X20517897Y20040378D01*
X20123832Y20040722D01*
X19759632Y19890237D01*
X19507150Y19638196D01*
X19507150Y20269250D01*
X33832750Y20269250D01*
X33832750Y19637903D01*
M02*
