G04 #@! TF.FileFunction,Copper,L2,Bot,Signal*
%FSLAX46Y46*%
G04 Gerber Fmt 4.6, Leading zero omitted, Abs format (unit mm)*
G04 Created by KiCad (PCBNEW 4.0.7-e2-6376~58~ubuntu16.04.1) date Sat Jan 13 19:34:28 2018*
%MOMM*%
%LPD*%
G01*
G04 APERTURE LIST*
%ADD10C,0.100000*%
%ADD11R,1.500000X0.800000*%
%ADD12R,1.500000X3.100000*%
%ADD13R,1.524000X1.524000*%
%ADD14C,1.524000*%
%ADD15C,1.000000*%
%ADD16C,0.609600*%
%ADD17O,2.300000X1.400000*%
%ADD18R,0.889000X0.635000*%
%ADD19R,0.700000X0.900000*%
%ADD20R,0.635000X0.889000*%
%ADD21R,0.550000X0.800000*%
%ADD22C,0.998220*%
%ADD23R,0.949960X0.899160*%
%ADD24C,0.457100*%
%ADD25C,0.152300*%
%ADD26C,0.152400*%
G04 APERTURE END LIST*
D10*
D11*
X16891000Y15915000D03*
X16891000Y14815000D03*
X16891000Y13715000D03*
X16891000Y12615000D03*
X16891000Y11515000D03*
X16891000Y10415000D03*
X16891000Y9315000D03*
X16891000Y8215000D03*
D12*
X7691000Y9035000D03*
X7691000Y15095000D03*
D13*
X50800000Y19049200D03*
D14*
X48260000Y19049200D03*
X45720000Y19049200D03*
X43180000Y19049200D03*
X40640000Y19049200D03*
X38100000Y19049200D03*
X35560000Y19049200D03*
X33020000Y19049200D03*
X30480000Y19049200D03*
X27940000Y19049200D03*
X25400000Y19049200D03*
X22860000Y19049200D03*
X20320000Y19049200D03*
X17780000Y19049200D03*
X15240000Y19049200D03*
X12700000Y19049200D03*
X10160000Y19049200D03*
X7620000Y19049200D03*
X5080000Y19049200D03*
X2540000Y19049200D03*
D13*
X50800000Y3809200D03*
D14*
X48260000Y3809200D03*
X45720000Y3809200D03*
X43180000Y3809200D03*
X40640000Y3809200D03*
X38100000Y3809200D03*
X35560000Y3809200D03*
X33020000Y3809200D03*
X30480000Y3809200D03*
X27940000Y3809200D03*
X25400000Y3809200D03*
X22860000Y3809200D03*
X20320000Y3809200D03*
X17780000Y3809200D03*
X15240000Y3809200D03*
X12700000Y3809200D03*
X10160000Y3809200D03*
X7620000Y3809200D03*
X5080000Y3809200D03*
X2540000Y3809200D03*
D15*
X29971900Y9789800D03*
X29971900Y11059800D03*
X29971900Y12329800D03*
X29971900Y14869800D03*
X29971900Y17409800D03*
X29971900Y16139800D03*
D16*
X1270000Y1269200D03*
X3810000Y1269200D03*
X6350000Y1269200D03*
X8890000Y1269200D03*
X11430000Y1269200D03*
X13970000Y1269200D03*
X16510000Y1269200D03*
X19050000Y1269200D03*
X21590000Y1269200D03*
X24130000Y1269200D03*
X26670000Y1269200D03*
X29210000Y1269200D03*
X31750000Y1269200D03*
X34290000Y1269200D03*
X36830000Y1269200D03*
X39370000Y1269200D03*
X41910000Y1269200D03*
X44450000Y1269200D03*
X46990000Y1269200D03*
X49530000Y1269200D03*
X52070000Y1269200D03*
X3810000Y3809200D03*
X11430000Y3809200D03*
X16510000Y3809200D03*
X21590000Y3809200D03*
X24130000Y3809200D03*
X26670000Y3809200D03*
X29210000Y3809200D03*
X31750000Y3809200D03*
X39370000Y3809200D03*
X44450000Y3809200D03*
X46990000Y19049200D03*
X44450000Y19049200D03*
X31750000Y19049200D03*
X29210000Y19049200D03*
X26670000Y19049200D03*
X24130000Y19049200D03*
X21590000Y19049200D03*
X6350000Y19049200D03*
X3810000Y20065200D03*
X13970000Y12699200D03*
X15087600Y11430000D03*
X14097000Y11430000D03*
X1270000Y21589200D03*
X3810000Y21589200D03*
X6350000Y21589200D03*
X8890000Y21589200D03*
X11430000Y21589200D03*
X13970000Y21589200D03*
X16510000Y21589200D03*
X19050000Y21589200D03*
X21590000Y21589200D03*
X24130000Y21589200D03*
X26670000Y21589200D03*
X29210000Y21589200D03*
X31750000Y21589200D03*
X34290000Y21589200D03*
X36830000Y21589200D03*
X39370000Y21589200D03*
X41910000Y21589200D03*
X44450000Y21589200D03*
X46990000Y21589200D03*
X49530000Y21589200D03*
X52070000Y21589200D03*
X28397100Y13371200D03*
X27939900Y10170800D03*
X41910000Y11430000D03*
X41910000Y12699200D03*
X43180000Y10159200D03*
X41910000Y10159200D03*
X41910000Y8889200D03*
X41910000Y7619200D03*
X39370000Y11429200D03*
X14935200Y10160000D03*
X14097000Y10160000D03*
X8077200Y7772400D03*
X34797900Y15860400D03*
X17830800Y6704800D03*
D13*
X47066200Y15239200D03*
D14*
X47066200Y12699200D03*
X47066200Y10159200D03*
X47066200Y7619200D03*
D16*
X36829900Y19060800D03*
D17*
X1750060Y16278060D03*
X1750060Y6580340D03*
X5049520Y16278060D03*
X5049520Y6580340D03*
D16*
X16357600Y6400800D03*
X14274800Y16052800D03*
D18*
X51180900Y6995800D03*
X51180900Y5725800D03*
X52450900Y10678800D03*
X52450900Y9408800D03*
D19*
X51943000Y17079000D03*
X51293000Y15179000D03*
X52593000Y15179000D03*
D18*
X49783900Y6995800D03*
X49783900Y5725800D03*
D20*
X49021900Y11948800D03*
X50291900Y11948800D03*
D21*
X49087900Y10634200D03*
X50037900Y10634200D03*
X50987900Y10634200D03*
X50987900Y8234200D03*
X49087900Y8234200D03*
D16*
X11963400Y9702800D03*
D22*
X29971900Y13599800D03*
D16*
X21691500Y15809600D03*
X32359500Y16622400D03*
X37388700Y17079600D03*
X50393500Y5700400D03*
X51053900Y9307200D03*
X50088700Y11339200D03*
D23*
X49403000Y13665200D03*
X49403000Y16814800D03*
D16*
X30530700Y6970400D03*
X8686800Y13411200D03*
X11048900Y16317600D03*
X6413500Y14121600D03*
X6413500Y13512000D03*
X7327900Y6349200D03*
X6718300Y6425400D03*
X14020800Y14935200D03*
X14630400Y14935200D03*
X52273100Y18908400D03*
X52273100Y19518000D03*
X37185500Y15403200D03*
X35458400Y7593800D03*
X35585400Y8381200D03*
X39319200Y18592800D03*
X39471500Y19975200D03*
X6400700Y9002400D03*
X6400700Y8392800D03*
X10972700Y14336400D03*
X10363100Y14336400D03*
X41757600Y14782800D03*
X41757600Y15392400D03*
X39827200Y14198600D03*
X31089600Y10057600D03*
X14935200Y6096000D03*
X31089500Y8850000D03*
X31089500Y14031600D03*
X31089600Y14934400D03*
X32461200Y15696400D03*
X28346300Y16012800D03*
X27990700Y15327000D03*
X26238100Y15987400D03*
X25476100Y15860400D03*
X24383900Y16165200D03*
X23469600Y15848800D03*
X29565500Y7757800D03*
X29260800Y7009600D03*
X27889100Y7757800D03*
X27584400Y6857200D03*
X27127200Y7466800D03*
X26365200Y6704800D03*
X22936200Y8228800D03*
X23622000Y8686000D03*
X23621900Y9459600D03*
X8839200Y3657600D03*
X23164700Y10069200D03*
X15087600Y12954000D03*
X15544800Y16306800D03*
X22707500Y10678800D03*
X24561700Y11288400D03*
X24384000Y12038800D03*
X12954000Y13258800D03*
X8229600Y4876800D03*
X7175500Y5485600D03*
X13563600Y13868400D03*
X23317200Y6857200D03*
X23469600Y7619200D03*
X26670000Y10057600D03*
X25908000Y9752800D03*
X25450800Y7771600D03*
X25755600Y8533600D03*
X24892000Y8381200D03*
X15544800Y7772400D03*
X24231600Y7771600D03*
X31089500Y11440800D03*
X31089500Y12355200D03*
X31089500Y13244200D03*
X26822300Y15403200D03*
X31699100Y15860400D03*
X24993500Y12507600D03*
X28955900Y15555600D03*
X22250400Y12191200D03*
X37033100Y4887600D03*
X28803600Y7619200D03*
X28041500Y10983600D03*
X16306800Y17753800D03*
X51206300Y16520800D03*
X51206300Y11898000D03*
X51206300Y17130400D03*
X51206300Y11288400D03*
X32207100Y6868800D03*
X48767900Y5344800D03*
X28041500Y14184000D03*
D24*
X50190300Y11847200D02*
X50291900Y11948800D01*
X50190300Y11288400D02*
X50190300Y10786600D01*
X50190300Y10786600D02*
X50037900Y10634200D01*
X50190300Y11288400D02*
X50190300Y11847200D01*
X50088700Y10685000D02*
X50037900Y10634200D01*
D25*
X7691000Y15095000D02*
X8683300Y15095000D01*
X8686800Y15091500D02*
X8686800Y13411200D01*
X8683300Y15095000D02*
X8686800Y15091500D01*
D24*
X51180900Y6995800D02*
X51830600Y6995800D01*
X52425600Y2743200D02*
X52425600Y6400800D01*
X51816000Y2133600D02*
X52425600Y2743200D01*
X51816000Y2133600D02*
X45720000Y2133600D01*
X51830600Y6995800D02*
X52425600Y6400800D01*
X50987900Y8234200D02*
X50987900Y7188800D01*
X50987900Y7188800D02*
X51180900Y6995800D01*
X50987900Y8234200D02*
X50907700Y8234200D01*
X50907700Y8234200D02*
X49087900Y10054000D01*
X49087900Y10054000D02*
X49087900Y10634200D01*
X49021900Y11948800D02*
X49021900Y10700200D01*
X49021900Y10700200D02*
X49087900Y10634200D01*
X49021900Y11948800D02*
X49021900Y13284100D01*
X49021900Y13284100D02*
X49403000Y13665200D01*
X6413500Y13512000D02*
X6413500Y14121600D01*
X5651500Y8025600D02*
X5651500Y12750000D01*
X6718300Y6958800D02*
X5651500Y8025600D01*
X6718300Y6196800D02*
X6718300Y6958800D01*
X5651500Y12750000D02*
X6413500Y13512000D01*
X6413500Y5892000D02*
X6413500Y2844000D01*
X6413500Y2844000D02*
X7124700Y2132800D01*
X7124700Y2132800D02*
X45720000Y2132800D01*
X6718300Y6196800D02*
X6413500Y5892000D01*
X45720000Y2133600D02*
X45720000Y2132800D01*
X6718300Y6196800D02*
X6718300Y6425400D01*
X7327900Y6349200D02*
X8929730Y6349200D01*
X9590534Y7010004D02*
X10375900Y7010004D01*
X8929730Y6349200D02*
X9590534Y7010004D01*
X10668396Y12507466D02*
X10668396Y7302500D01*
X10668396Y7302500D02*
X10375900Y7010004D01*
X14033500Y14935200D02*
X13096130Y14935200D01*
X13096130Y14935200D02*
X10668396Y12507466D01*
X14020800Y14935200D02*
X14033500Y14935200D01*
X14033500Y14935200D02*
X14630400Y14935200D01*
X49403000Y13665200D02*
X50546000Y13665200D01*
X51968400Y14173200D02*
X52593000Y14797800D01*
X51054000Y14173200D02*
X51968400Y14173200D01*
X50546000Y13665200D02*
X51054000Y14173200D01*
X52593000Y14797800D02*
X52593000Y15179000D01*
X45720000Y3809200D02*
X45720000Y2133600D01*
X52273100Y19518000D02*
X52273100Y18908400D01*
X42671900Y20726300D02*
X51674400Y20726300D01*
X52273100Y20127600D02*
X52273100Y19518000D01*
X51674400Y20726300D02*
X52273100Y20127600D01*
X37185500Y15403200D02*
X37196952Y15403200D01*
X41910000Y19964400D02*
X41910000Y18440400D01*
X42671900Y20726300D02*
X41910000Y19964400D01*
X41910000Y18440400D02*
X40994948Y17525348D01*
X39166700Y17525348D02*
X40994948Y17525348D01*
X37196952Y15403200D02*
X39166700Y17525348D01*
D25*
X40843052Y10870400D02*
X40843052Y16281480D01*
D26*
X44653200Y17982400D02*
X45720000Y19049200D01*
X42672000Y17982400D02*
X44653200Y17982400D01*
D25*
X42543972Y17982400D02*
X42672000Y17982400D01*
X40843052Y16281480D02*
X42543972Y17982400D01*
X35814000Y7313460D02*
X40259018Y7313460D01*
X40843679Y10869773D02*
X40843052Y10870400D01*
X40843679Y7898121D02*
X40843679Y10869773D01*
X40259018Y7313460D02*
X40843679Y7898121D01*
X35458400Y7593800D02*
X35533660Y7593800D01*
X35533660Y7593800D02*
X35814000Y7313460D01*
X35585400Y8381200D02*
X35585400Y8303862D01*
X40132848Y7618062D02*
X40538548Y8023762D01*
X40538548Y8023762D02*
X40538548Y8381200D01*
X40538548Y8381200D02*
X40538400Y8381200D01*
X36271200Y7618062D02*
X40132848Y7618062D01*
X35585400Y8303862D02*
X36271200Y7618062D01*
X40538400Y8381200D02*
X40538400Y16407600D01*
X40538400Y16407600D02*
X43180000Y19049200D01*
D24*
X8839200Y18451100D02*
X10363100Y16927200D01*
X10363100Y16927200D02*
X10363100Y14336400D01*
X8839200Y18451100D02*
X8839200Y19964400D01*
X39319200Y18592800D02*
X39471600Y18745200D01*
X39471600Y18745200D02*
X39471500Y19975200D01*
X38709600Y20726400D02*
X39471500Y19975200D01*
X9601200Y20726400D02*
X8839200Y19964400D01*
X38709600Y20726400D02*
X9601200Y20726400D01*
X10363100Y14031600D02*
X10363100Y14336400D01*
X6400700Y11898000D02*
X6400700Y9002400D01*
X7010300Y12507600D02*
X6400700Y11898000D01*
X8839100Y12507600D02*
X7010300Y12507600D01*
X10363100Y14031600D02*
X8839100Y12507600D01*
X45299718Y17525348D02*
X48692452Y17525348D01*
X45299718Y17525348D02*
X44994918Y17220548D01*
X44994918Y17220548D02*
X42859190Y17220548D01*
X42859190Y17220548D02*
X41757600Y16118958D01*
X41757600Y15392400D02*
X41757600Y16118958D01*
X48692452Y17525348D02*
X49403000Y16814800D01*
X10972700Y14336400D02*
X10363100Y14336400D01*
X41757600Y14782800D02*
X41757600Y15392400D01*
X51293000Y15179000D02*
X51038800Y15179000D01*
X51038800Y15179000D02*
X49403000Y16814800D01*
D25*
X31089500Y9612000D02*
X31699100Y9002400D01*
X35345100Y8990800D02*
X35051900Y8697600D01*
X40233748Y8149734D02*
X40233748Y13792052D01*
X40233748Y13792052D02*
X39827200Y14198600D01*
X40008014Y7924000D02*
X40233748Y8149734D01*
X36548434Y7924000D02*
X40008014Y7924000D01*
X36118700Y8353734D02*
X36548434Y7924000D01*
X36118700Y8686100D02*
X36118700Y8353734D01*
X35814000Y8990800D02*
X36118700Y8686100D01*
X35814000Y8990800D02*
X35345100Y8990800D01*
X35051900Y8088000D02*
X35051900Y8697600D01*
X34594700Y7630800D02*
X35051900Y8088000D01*
X33680300Y7630800D02*
X34594700Y7630800D01*
X32918300Y8392800D02*
X33680300Y7630800D01*
X31851500Y8392800D02*
X32918300Y8392800D01*
X31699100Y8545200D02*
X31851500Y8392800D01*
X31699100Y9002400D02*
X31699100Y8545200D01*
X27977296Y8914204D02*
X30391704Y8914204D01*
X30391704Y8914204D02*
X31089500Y9612000D01*
X31089500Y9612000D02*
X31089600Y9612100D01*
X27431900Y10678800D02*
X27431900Y13460342D01*
X27279500Y9612000D02*
X27977296Y8914204D01*
X27279500Y10526400D02*
X27279500Y9612000D01*
X27431900Y10678800D02*
X27279500Y10526400D01*
X31089600Y9612100D02*
X31089600Y10057600D01*
X21183500Y14934252D02*
X21183500Y14987286D01*
X10973600Y19049200D02*
X10160000Y19049200D01*
X10973600Y19049200D02*
X12192000Y17830800D01*
X12192000Y17830800D02*
X14325600Y17830800D01*
X14325600Y17830800D02*
X14630400Y17526000D01*
X14630400Y17526000D02*
X15697200Y17526000D01*
X16154854Y17068346D02*
X15697200Y17526000D01*
X19102440Y17068346D02*
X16154854Y17068346D01*
X21183500Y14987286D02*
X19102440Y17068346D01*
X25957990Y14934252D02*
X27431900Y13460342D01*
X21183500Y14934252D02*
X25957990Y14934252D01*
D24*
X16891000Y11515000D02*
X16239400Y11515000D01*
X16239400Y11515000D02*
X15697200Y10972800D01*
X15697200Y10972800D02*
X15697200Y9753600D01*
X15697200Y9753600D02*
X14782800Y8839200D01*
X14782800Y8839200D02*
X14782800Y6248400D01*
X14782800Y6248400D02*
X14935200Y6096000D01*
D25*
X34489900Y7313658D02*
X33566670Y7313658D01*
X33566670Y7313658D02*
X32792130Y8088198D01*
X32792130Y8088198D02*
X31698902Y8088198D01*
X31698902Y8088198D02*
X31089500Y8697600D01*
X41173400Y16002000D02*
X41173400Y16181056D01*
D26*
X42824400Y17677600D02*
X44805600Y17677600D01*
X44805600Y17677600D02*
X45110400Y17982400D01*
X45110400Y17982400D02*
X47193200Y17982400D01*
X48260000Y19049200D02*
X47193200Y17982400D01*
D25*
X42669944Y17677600D02*
X42824400Y17677600D01*
X41173400Y16181056D02*
X42669944Y17677600D01*
X34489900Y7313658D02*
X34794700Y7008858D01*
X34794700Y7008858D02*
X40385258Y7008858D01*
D26*
X40385258Y7008858D02*
X41173400Y7797000D01*
X41173400Y7797000D02*
X41173400Y16002000D01*
D25*
X31089500Y8697600D02*
X31089500Y8850000D01*
X31089500Y8697600D02*
X31089500Y8850000D01*
X33375600Y15391600D02*
X33375600Y15239200D01*
D26*
X33375600Y15950400D02*
X35102800Y17677600D01*
X35102800Y17677600D02*
X37185600Y17677600D01*
X37185600Y17677600D02*
X37490400Y17982400D01*
X37490400Y17982400D02*
X40335200Y17982400D01*
X33375600Y15391600D02*
X33375600Y15950400D01*
X40335200Y17982400D02*
X40640000Y18287200D01*
D25*
X31854582Y14782000D02*
X31089500Y14031600D01*
X32918400Y14782000D02*
X31854582Y14782000D01*
X33375600Y15239200D02*
X32918400Y14782000D01*
D26*
X40640000Y18287200D02*
X40640000Y19049200D01*
D25*
X33070800Y15555600D02*
X33070800Y15403300D01*
X31253600Y15098400D02*
X31089600Y14934400D01*
X32765900Y15098400D02*
X31253600Y15098400D01*
X33070800Y15403300D02*
X32765900Y15098400D01*
X33070800Y15544000D02*
X33070800Y15555600D01*
X33070800Y15555600D02*
X33070800Y15391600D01*
D26*
X33070800Y16102800D02*
X34950400Y17982400D01*
X34950400Y17982400D02*
X37033200Y17982400D01*
X37033200Y17982400D02*
X38100000Y19049200D01*
X33070800Y16102800D02*
X33070800Y15544000D01*
X32461200Y15696400D02*
X32486600Y15721800D01*
X32486600Y15721800D02*
X32486600Y15975800D01*
X32486600Y15975800D02*
X35560000Y19049200D01*
X27732981Y16005019D02*
X28346300Y16012800D01*
X25400000Y18338000D02*
X27732981Y16005019D01*
X25400000Y18338000D02*
X25400000Y19049200D01*
D25*
X23469500Y17384400D02*
X24814672Y17384400D01*
X27980158Y15327000D02*
X27990700Y15327000D01*
X26533070Y16774088D02*
X27980158Y15327000D01*
X25424984Y16774088D02*
X26533070Y16774088D01*
X24814672Y17384400D02*
X25424984Y16774088D01*
X22860000Y17993900D02*
X22860000Y19049200D01*
X23481000Y17372900D02*
X23469500Y17384400D01*
X23469500Y17384400D02*
X22860000Y17993900D01*
X27990700Y15327000D02*
X27827758Y15327000D01*
X26212700Y15987400D02*
X26212700Y16012800D01*
X22720714Y17696629D02*
X20681013Y17696629D01*
X20320000Y18057642D02*
X20320000Y19049200D01*
X20320000Y18057642D02*
X20681013Y17696629D01*
X23354830Y17068298D02*
X22720714Y17702414D01*
X22720714Y17702414D02*
X22720714Y17696629D01*
X24700002Y17068298D02*
X23354830Y17068298D01*
X25298814Y16469486D02*
X24700002Y17068298D01*
X25756014Y16469486D02*
X25298814Y16469486D01*
X26212700Y16012800D02*
X25756014Y16469486D01*
X26238100Y15987400D02*
X26212700Y15987400D01*
X26212700Y15987400D02*
X26169527Y15987400D01*
X23228660Y16763696D02*
X24572804Y16763696D01*
X21335900Y17384400D02*
X20562400Y17384400D01*
X21343527Y17392027D02*
X21335900Y17384400D01*
X22600329Y17392027D02*
X21343527Y17392027D01*
X23228660Y16763696D02*
X22600329Y17392027D01*
D26*
X20562400Y17384400D02*
X19659600Y18287200D01*
X18542000Y18287200D02*
X17780000Y19049200D01*
X19659600Y18287200D02*
X18542000Y18287200D01*
D25*
X24572804Y16763696D02*
X25476100Y15860400D01*
X23723500Y16458400D02*
X24090700Y16458400D01*
X24090700Y16458400D02*
X24383900Y16165200D01*
X19507100Y17982400D02*
X19533558Y17982400D01*
X23103184Y16458400D02*
X23723500Y16458400D01*
X23723500Y16458400D02*
X23749000Y16458400D01*
X22481984Y17079600D02*
X23103184Y16458400D01*
X20436358Y17079600D02*
X22481984Y17079600D01*
X19533558Y17982400D02*
X20436358Y17079600D01*
D26*
X15697200Y18592000D02*
X15240000Y19049200D01*
X19507100Y17982400D02*
X17373600Y17982400D01*
X17373600Y17982400D02*
X16764000Y18592000D01*
X16764000Y18592000D02*
X15697200Y18592000D01*
D25*
X19354700Y17677600D02*
X19407586Y17677600D01*
X23282012Y15848800D02*
X23469600Y15848800D01*
X22355814Y16774998D02*
X23282012Y15848800D01*
X20310188Y16774998D02*
X22355814Y16774998D01*
X19407586Y17677600D02*
X20310188Y16774998D01*
X14478000Y18287200D02*
X13462198Y18287200D01*
X13462000Y18287200D02*
X12700000Y19049200D01*
D26*
X19354700Y17677600D02*
X17221200Y17677600D01*
X17221200Y17677600D02*
X16611600Y18287200D01*
X16611600Y18287200D02*
X16002000Y18287200D01*
X16002000Y18287200D02*
X15697200Y17982400D01*
X15697200Y17982400D02*
X14782800Y17982400D01*
D25*
X14782800Y17982400D02*
X14478000Y18287200D01*
X13462198Y18287200D02*
X13462000Y18287002D01*
X13462000Y18287002D02*
X13462000Y18287200D01*
X37569832Y5790252D02*
X34263790Y5790252D01*
X42391203Y4521200D02*
X41403256Y4521200D01*
X43103203Y3809200D02*
X42391203Y4521200D01*
X39014420Y4876050D02*
X38709620Y5180850D01*
X38709620Y5180850D02*
X38179234Y5180850D01*
X41048406Y4876050D02*
X39014420Y4876050D01*
X37569832Y5790252D02*
X38179234Y5180850D01*
X41403256Y4521200D02*
X41048406Y4876050D01*
X30558156Y7757800D02*
X29565500Y7757800D01*
X32220904Y6095052D02*
X30558156Y7757800D01*
X33958990Y6095052D02*
X32220904Y6095052D01*
X34263790Y5790252D02*
X33958990Y6095052D01*
X43180000Y3809200D02*
X43103203Y3809200D01*
D26*
X37338000Y5485600D02*
X37947352Y4876248D01*
D25*
X34137600Y5485600D02*
X34137600Y5485670D01*
D26*
X34137600Y5485600D02*
X37338000Y5485600D01*
D25*
X39928800Y4571448D02*
X38888250Y4571448D01*
X38888250Y4571448D02*
X38583450Y4876248D01*
X38583450Y4876248D02*
X37947352Y4876248D01*
X40640000Y3860248D02*
X39928800Y4571448D01*
X33832820Y5790450D02*
X31851550Y5790450D01*
X34137600Y5485670D02*
X33832820Y5790450D01*
X40640000Y3809200D02*
X40640000Y3860248D01*
D26*
X29870400Y6095200D02*
X31546800Y6095200D01*
X31546800Y6095200D02*
X31851550Y5790450D01*
X29260800Y7009600D02*
X29260800Y6704800D01*
X29260800Y6704800D02*
X29870400Y6095200D01*
D25*
X35966400Y4876000D02*
X33832948Y4876000D01*
X33832800Y4875852D02*
X33832800Y4876000D01*
X33832948Y4876000D02*
X33832800Y4875852D01*
X36576000Y4266400D02*
X35966400Y4876000D01*
X37642800Y4266400D02*
X36576000Y4266400D01*
X37642800Y4266400D02*
X38100000Y3809200D01*
D26*
X27889100Y7453000D02*
X28194000Y7162000D01*
X33528000Y5180800D02*
X33832800Y4876000D01*
X31546800Y5180800D02*
X33528000Y5180800D01*
X31242000Y5485600D02*
X31546800Y5180800D01*
X29565600Y5485600D02*
X31242000Y5485600D01*
X28194000Y6857200D02*
X29565600Y5485600D01*
X28194000Y7162000D02*
X28194000Y6857200D01*
X27889100Y7757800D02*
X27889100Y7453000D01*
X27584400Y6857200D02*
X29260800Y5180800D01*
X29260800Y5180800D02*
X31089600Y5180800D01*
X31089600Y5180800D02*
X31394400Y4876000D01*
X31394400Y4876000D02*
X33375600Y4876000D01*
X33375600Y4876000D02*
X33680400Y4571200D01*
X33680400Y4571200D02*
X34798000Y4571200D01*
X34798000Y4571200D02*
X35560000Y3809200D01*
X27127200Y7466800D02*
X26974800Y7314397D01*
X26974800Y7314397D02*
X26822400Y7162000D01*
X26822400Y7162000D02*
X26974800Y7009600D01*
X26974800Y7009600D02*
X26974800Y6704800D01*
X26974800Y6704800D02*
X27432000Y6247600D01*
X27432000Y6247600D02*
X27736800Y6247600D01*
X27736800Y6247600D02*
X29108400Y4876000D01*
X29108400Y4876000D02*
X30937200Y4876000D01*
X30937200Y4876000D02*
X31242000Y4571200D01*
X31242000Y4571200D02*
X32258000Y4571200D01*
X32258000Y4571200D02*
X33020000Y3809200D01*
X26365200Y6704800D02*
X26517600Y6704800D01*
X26517600Y6704800D02*
X27279600Y5942800D01*
X27279600Y5942800D02*
X27584400Y5942800D01*
X27584400Y5942800D02*
X28956000Y4571200D01*
X28956000Y4571200D02*
X29718000Y4571200D01*
X29718000Y4571200D02*
X30480000Y3809200D01*
X22860000Y3809200D02*
X22860000Y5790400D01*
X22860000Y5790400D02*
X22707600Y5942800D01*
X22707600Y5942800D02*
X22707600Y7162000D01*
X22707600Y7162000D02*
X22860000Y7314400D01*
X22860000Y7314400D02*
X22860000Y8152600D01*
X22860000Y8152600D02*
X22936200Y8228800D01*
X22402800Y8533600D02*
X22402800Y5892000D01*
X22402800Y5892000D02*
X20320000Y3809200D01*
X22402800Y8533600D02*
X22707600Y8838400D01*
X22707600Y8838400D02*
X23469600Y8838400D01*
X23469600Y8838400D02*
X23622000Y8686000D01*
D25*
X22098000Y8697600D02*
X22098000Y8697700D01*
X23317100Y9154800D02*
X23621900Y9459600D01*
X22555100Y9154800D02*
X23317100Y9154800D01*
X22098000Y8697700D02*
X22555100Y9154800D01*
X16764000Y2692400D02*
X9804400Y2692400D01*
X9804400Y2692400D02*
X8839200Y3657600D01*
X17780000Y3708400D02*
X16764000Y2692400D01*
X17780000Y3809200D02*
X17780000Y3708400D01*
D26*
X22098000Y8697600D02*
X22098000Y6095200D01*
X18846800Y4876000D02*
X17780000Y3809200D01*
X20878800Y4876000D02*
X18846800Y4876000D01*
X22098000Y6095200D02*
X20878800Y4876000D01*
D25*
X21793200Y8850000D02*
X21793200Y8850100D01*
X21793200Y8850100D02*
X23012300Y10069200D01*
X23012300Y10069200D02*
X23164700Y10069200D01*
X15087600Y13106400D02*
X15240000Y13258800D01*
X15240000Y13258800D02*
X15240000Y16002000D01*
X15240000Y16002000D02*
X15544800Y16306800D01*
X15087600Y12954000D02*
X15087600Y13106400D01*
X18339600Y4826000D02*
X17373600Y4826000D01*
D26*
X21793200Y6298400D02*
X21793200Y8850000D01*
X20675600Y5180800D02*
X21793200Y6298400D01*
X18694400Y5180800D02*
X20675600Y5180800D01*
D25*
X18339600Y4826000D02*
X18694400Y5180800D01*
X15952000Y4521200D02*
X15240000Y3809200D01*
X17068800Y4521200D02*
X15952000Y4521200D01*
X17373600Y4826000D02*
X17068800Y4521200D01*
X21488300Y6424342D02*
X21488300Y9459600D01*
X21488300Y9459600D02*
X22707500Y10678800D01*
X12700000Y3809200D02*
X13613442Y3809200D01*
X14630721Y4826479D02*
X14630721Y4826000D01*
X13613442Y3809200D02*
X14630721Y4826479D01*
X21488300Y6424342D02*
X20549410Y5485452D01*
X20549410Y5485452D02*
X18490450Y5485452D01*
X18490450Y5485452D02*
X18135600Y5130602D01*
X18135600Y5130602D02*
X17246402Y5130602D01*
X17246402Y5130602D02*
X16941800Y4826000D01*
X16941800Y4826000D02*
X14630721Y4826000D01*
X21183302Y8088000D02*
X21183302Y10095430D01*
X21183302Y10095430D02*
X22364672Y11276800D01*
X24550100Y11276800D02*
X24561700Y11288400D01*
X22364672Y11276800D02*
X24550100Y11276800D01*
X21183600Y6552400D02*
X21183600Y8087702D01*
D26*
X20421600Y5790400D02*
X21183600Y6552400D01*
X18364200Y5790400D02*
X20421600Y5790400D01*
X18034000Y5460200D02*
X18364200Y5790400D01*
X10160000Y3809200D02*
X11176000Y4825200D01*
X14198600Y4825200D02*
X11176000Y4825200D01*
X14554200Y5180800D02*
X14198600Y4825200D01*
X16865600Y5180800D02*
X14554200Y5180800D01*
X17145000Y5460200D02*
X16865600Y5180800D01*
X18034000Y5460200D02*
X17145000Y5460200D01*
D25*
X21183600Y8087702D02*
X21183302Y8088000D01*
X20878700Y6716400D02*
X20878700Y10221600D01*
X20878700Y10221600D02*
X22238502Y11581402D01*
X22238502Y11581402D02*
X23938400Y11581402D01*
X23938400Y11581402D02*
X23938400Y11593200D01*
X23938400Y11593200D02*
X24384000Y12038800D01*
X20269100Y6095200D02*
X20269100Y6106800D01*
X20269100Y6106800D02*
X20878700Y6716400D01*
X10745000Y4826000D02*
X9702800Y4826000D01*
X8382000Y4267200D02*
X7924000Y3809200D01*
X9144000Y4267200D02*
X8382000Y4267200D01*
X9702800Y4826000D02*
X9144000Y4267200D01*
X8228800Y3809200D02*
X7620000Y3809200D01*
X7620000Y3809200D02*
X7822400Y3809200D01*
X10745000Y4826000D02*
X11099800Y5180800D01*
D26*
X17907000Y5765000D02*
X17018000Y5765000D01*
X17018000Y5765000D02*
X16738600Y5485600D01*
X16738600Y5485600D02*
X14427200Y5485600D01*
X14427200Y5485600D02*
X14122400Y5180800D01*
X17907000Y5765000D02*
X18237200Y6095200D01*
X18237200Y6095200D02*
X20269100Y6095200D01*
X14122400Y5180800D02*
X11099800Y5180800D01*
D25*
X8534400Y4876800D02*
X9906000Y6248400D01*
X12496800Y13258800D02*
X11430000Y12192000D01*
X11430000Y12192000D02*
X11430000Y6858000D01*
X11430000Y6858000D02*
X10820400Y6248400D01*
X10820400Y6248400D02*
X9906000Y6248400D01*
X12954000Y13258800D02*
X12496800Y13258800D01*
X8229600Y4876800D02*
X8534400Y4876800D01*
X8713228Y5486400D02*
X9779830Y6553002D01*
X9779830Y6553002D02*
X10694230Y6553002D01*
X11125398Y12318170D02*
X11125398Y6984170D01*
X11125398Y6984170D02*
X10694230Y6553002D01*
X13563600Y13868400D02*
X12675628Y13868400D01*
X12675628Y13868400D02*
X11125398Y12318170D01*
X7175500Y5485600D02*
X8713228Y5486400D01*
X34542360Y6399654D02*
X37821974Y6399654D01*
X33261474Y6704454D02*
X32550514Y7415414D01*
X31331314Y7415414D02*
X30448959Y8297769D01*
X25755500Y6857200D02*
X25755530Y6857200D01*
X34237560Y6704454D02*
X34542360Y6399654D01*
X48158400Y9601200D02*
X48158400Y11734800D01*
X48463002Y9296598D02*
X48158400Y9601200D01*
X48158400Y11734800D02*
X47194000Y12699200D01*
X27196099Y8297769D02*
X30448959Y8297769D01*
X25755530Y6857200D02*
X27196099Y8297769D01*
X34237560Y6704454D02*
X33261474Y6704454D01*
X32550514Y7415414D02*
X31331314Y7415414D01*
X48463002Y7111506D02*
X48463002Y9296598D01*
X46481900Y5130404D02*
X48463002Y7111506D01*
X41655596Y5130404D02*
X46481900Y5130404D01*
X41300746Y5485254D02*
X41655596Y5130404D01*
X39266760Y5485254D02*
X41300746Y5485254D01*
X38961960Y5790054D02*
X39266760Y5485254D01*
X38431574Y5790054D02*
X38961960Y5790054D01*
X37821974Y6399654D02*
X38431574Y5790054D01*
D26*
X23317200Y6857200D02*
X25755500Y6857200D01*
D25*
X47066200Y12699200D02*
X47194000Y12699200D01*
X34668530Y6704256D02*
X37948144Y6704256D01*
X34363730Y7009056D02*
X33387644Y7009056D01*
X47066200Y10159200D02*
X48158400Y9067000D01*
X34363730Y7009056D02*
X34668530Y6704256D01*
X33387644Y7009056D02*
X32613500Y7783200D01*
X48158400Y7237676D02*
X48158400Y9067000D01*
X46355730Y5435006D02*
X48158400Y7237676D01*
X41781766Y5435006D02*
X46355730Y5435006D01*
X41426916Y5789856D02*
X41781766Y5435006D01*
X39392930Y5789856D02*
X41426916Y5789856D01*
X39075986Y6106800D02*
X39392930Y5789856D01*
X38545600Y6106800D02*
X39075986Y6106800D01*
X37948144Y6704256D02*
X38545600Y6106800D01*
X32613500Y7783200D02*
X31394300Y7783200D01*
X31394300Y7783200D02*
X30575129Y8602371D01*
X30575129Y8602371D02*
X27069929Y8602371D01*
D26*
X23926800Y7162000D02*
X25603200Y7162000D01*
D25*
X27069929Y8602371D02*
X25629558Y7162000D01*
X25629558Y7162000D02*
X25603200Y7162000D01*
D26*
X23469600Y7619200D02*
X23926800Y7162000D01*
D25*
X18898400Y14629600D02*
X17613000Y15915000D01*
X26847800Y10235400D02*
X26847800Y10514652D01*
X26847800Y10514652D02*
X27127094Y10831193D01*
X27127094Y10831193D02*
X27127200Y13334200D01*
D26*
X25831800Y14629600D02*
X27127200Y13334200D01*
D25*
X26670000Y10057600D02*
X26847800Y10235400D01*
X25831800Y14629600D02*
X18898400Y14629600D01*
X17613000Y15915000D02*
X16891000Y15915000D01*
X25704800Y14324800D02*
X18772428Y14324800D01*
D26*
X25908000Y10057600D02*
X25908000Y9752800D01*
X26822400Y10972000D02*
X25908000Y10057600D01*
X26822400Y13207200D02*
X26822400Y10972000D01*
X25704800Y14324800D02*
X26822400Y13207200D01*
D25*
X18282228Y14815000D02*
X16891000Y14815000D01*
X18772428Y14324800D02*
X18282228Y14815000D01*
X25590100Y14007700D02*
X19036900Y14007700D01*
D26*
X26517600Y13080200D02*
X25590100Y14007700D01*
X26517600Y11124400D02*
X26517600Y13080200D01*
X25298400Y9905200D02*
X26517600Y11124400D01*
X25298400Y9448000D02*
X25298400Y9905200D01*
X25603200Y9143200D02*
X25298400Y9448000D01*
X25908000Y9143200D02*
X25603200Y9143200D01*
X26365200Y8686000D02*
X25908000Y9143200D01*
X26365200Y8381200D02*
X26365200Y8686000D01*
X25450800Y7771600D02*
X25755600Y7771600D01*
X25755600Y7771600D02*
X26365200Y8381200D01*
D25*
X17644200Y12615000D02*
X16891000Y12615000D01*
X19036900Y14007700D02*
X17644200Y12615000D01*
X24993500Y9143300D02*
X24993500Y10031342D01*
X24993452Y10031390D02*
X24993452Y10031094D01*
X24993500Y10031342D02*
X24993452Y10031390D01*
X26212700Y12954258D02*
X26212700Y11250342D01*
X26212700Y11250342D02*
X24993452Y10031094D01*
X25463860Y13703098D02*
X26212700Y12954258D01*
X25463860Y13703098D02*
X19163070Y13703098D01*
X19163070Y13703098D02*
X18135600Y12675628D01*
X17730200Y10415000D02*
X16891000Y10415000D01*
X18135600Y10820400D02*
X17730200Y10415000D01*
X18135600Y12675628D02*
X18135600Y10820400D01*
D26*
X25603200Y8533600D02*
X24993500Y9143300D01*
X25603200Y8533600D02*
X25755600Y8533600D01*
D25*
X24688800Y8838400D02*
X24688800Y10221502D01*
D26*
X24892000Y8635200D02*
X24688800Y8838400D01*
X24892000Y8381200D02*
X24892000Y8635200D01*
D25*
X25908098Y12828088D02*
X25337690Y13398496D01*
X25908098Y11440800D02*
X25908098Y12828088D01*
X24688800Y10221502D02*
X25908098Y11440800D01*
X18440202Y10694230D02*
X18440202Y12549458D01*
X18440202Y12549458D02*
X19289240Y13398496D01*
X19289240Y13398496D02*
X25337690Y13398496D01*
X17849400Y9315000D02*
X16891000Y9315000D01*
X18440202Y10694230D02*
X18135600Y10389628D01*
X18135600Y10389628D02*
X18135600Y9601200D01*
X18135600Y9601200D02*
X17849400Y9315000D01*
X16020600Y9315000D02*
X15544800Y8839200D01*
X15544800Y8839200D02*
X15544800Y7772400D01*
X16891000Y9315000D02*
X16020600Y9315000D01*
X18744804Y10568060D02*
X18744804Y12423288D01*
X18744804Y12423288D02*
X19415410Y13093894D01*
X24383900Y10347374D02*
X25603496Y11566970D01*
X25603496Y12701918D02*
X25603496Y11566970D01*
X24383900Y8685900D02*
X24383900Y10347374D01*
X25211520Y13093894D02*
X19415410Y13093894D01*
X25603496Y12701918D02*
X25211520Y13093894D01*
X17968600Y8215000D02*
X16891000Y8215000D01*
X18135600Y8382000D02*
X17968600Y8215000D01*
X18135600Y9170428D02*
X18135600Y8382000D01*
X18440202Y9475030D02*
X18135600Y9170428D01*
X18440202Y10263458D02*
X18440202Y9475030D01*
X18744804Y10568060D02*
X18440202Y10263458D01*
D26*
X24231600Y8533600D02*
X24383900Y8685900D01*
X24231600Y7771600D02*
X24231600Y8533600D01*
D25*
X31089500Y11440800D02*
X31089500Y10907400D01*
X31089500Y10907400D02*
X29971900Y9789800D01*
X29971900Y11059800D02*
X29971900Y11237600D01*
X29971900Y11237600D02*
X31089500Y12355200D01*
X31089500Y13244200D02*
X30886300Y13244200D01*
X30886300Y13244200D02*
X29971900Y12329800D01*
X26822300Y15403200D02*
X27127100Y15403200D01*
X27736700Y14793600D02*
X29895700Y14793600D01*
X27127100Y15403200D02*
X27736700Y14793600D01*
X29895700Y14793600D02*
X29971900Y14869800D01*
X30251300Y15860400D02*
X31699100Y15860400D01*
X30251300Y15860400D02*
X29971900Y16139800D01*
X28955900Y15555600D02*
X28955900Y16393800D01*
X24711808Y12789292D02*
X24993500Y12507600D01*
X22836792Y12789292D02*
X24711808Y12789292D01*
X22250400Y12202900D02*
X22836792Y12789292D01*
X28955900Y16393800D02*
X29971900Y17409800D01*
X29971900Y17333600D02*
X29971900Y17409800D01*
X22250400Y12202800D02*
X22250400Y12202900D01*
X22250400Y12191200D02*
X22250400Y12202800D01*
X22250400Y12202800D02*
X22250400Y12202900D01*
X36739800Y5180900D02*
X37033100Y4887600D01*
X33985100Y5180900D02*
X36739800Y5180900D01*
D26*
X28803600Y7619200D02*
X28498800Y7314397D01*
X28498800Y7314397D02*
X28498800Y7009600D01*
X28498800Y7009600D02*
X29718000Y5790400D01*
X29718000Y5790400D02*
X31394400Y5790400D01*
X31394400Y5790400D02*
X31699200Y5485600D01*
X31699200Y5485600D02*
X33680400Y5485600D01*
X33680400Y5485600D02*
X33985100Y5180900D01*
D25*
X21348542Y15253016D02*
X26069998Y15253016D01*
X26069998Y15253016D02*
X27736700Y13586314D01*
X27736700Y11288400D02*
X28041500Y10983600D01*
X27736700Y13586314D02*
X27736700Y11288400D01*
X16714158Y17753800D02*
X17095010Y17372948D01*
X17095010Y17372948D02*
X19228610Y17372948D01*
X19228610Y17372948D02*
X21348542Y15253016D01*
X16714158Y17753800D02*
X16306800Y17753800D01*
X49087900Y8234200D02*
X49087900Y7691800D01*
X49087900Y7691800D02*
X49783900Y6995800D01*
D24*
X51206300Y17130400D02*
X51206300Y16520800D01*
X51943000Y17079000D02*
X51511700Y17079000D01*
X51511700Y17079000D02*
X51206300Y17130400D01*
X51206300Y11288400D02*
X51206300Y11898000D01*
X51206300Y11288400D02*
X51206300Y10852600D01*
X51206300Y10852600D02*
X50987900Y10634200D01*
X52450900Y10678800D02*
X51032500Y10678800D01*
X51032500Y10678800D02*
X50987900Y10634200D01*
D25*
X41529426Y4825802D02*
X48248902Y4825802D01*
X34389762Y6095052D02*
X37695804Y6095052D01*
X32777846Y6399654D02*
X32207100Y6868800D01*
X34085160Y6399654D02*
X34389762Y6095052D01*
X34085160Y6399654D02*
X32777846Y6399654D01*
X41174576Y5180652D02*
X41529426Y4825802D01*
X39140590Y5180652D02*
X41174576Y5180652D01*
X38835790Y5485452D02*
X39140590Y5180652D01*
X38305404Y5485452D02*
X38835790Y5485452D01*
X37695804Y6095052D02*
X38305404Y5485452D01*
X48248902Y4825802D02*
X48767900Y5344800D01*
X28041500Y14184000D02*
X29387700Y14184000D01*
X29387700Y14184000D02*
X29971900Y13599800D01*
G36*
X50088750Y10685050D02*
X50108750Y10685050D01*
X50108750Y10583350D01*
X50088750Y10583350D01*
X50088750Y9986587D01*
X50171287Y9904050D01*
X50378571Y9904050D01*
X50499915Y9954312D01*
X50588387Y10042784D01*
X50622279Y10019626D01*
X50712900Y10001275D01*
X51262900Y10001275D01*
X51347558Y10017205D01*
X51425312Y10067238D01*
X51477474Y10143579D01*
X51493314Y10221800D01*
X51824695Y10221800D01*
X51839438Y10198888D01*
X51915779Y10146726D01*
X52006400Y10128375D01*
X52895400Y10128375D01*
X52980058Y10144305D01*
X53036550Y10180656D01*
X53036550Y10025186D01*
X52961071Y10056450D01*
X52584287Y10056450D01*
X52501750Y9973913D01*
X52501750Y9459650D01*
X52521750Y9459650D01*
X52521750Y9357950D01*
X52501750Y9357950D01*
X52501750Y8843687D01*
X52584287Y8761150D01*
X52961071Y8761150D01*
X53036550Y8792414D01*
X53036550Y302650D01*
X303450Y302650D01*
X303450Y3613052D01*
X1549379Y3613052D01*
X1699848Y3248888D01*
X1978223Y2970027D01*
X2342123Y2818922D01*
X2736148Y2818579D01*
X3100312Y2969048D01*
X3379173Y3247423D01*
X3530278Y3611323D01*
X3530621Y4005348D01*
X3380152Y4369512D01*
X3101777Y4648373D01*
X2737877Y4799478D01*
X2343852Y4799821D01*
X1979688Y4649352D01*
X1700827Y4370977D01*
X1549722Y4007077D01*
X1549379Y3613052D01*
X303450Y3613052D01*
X303450Y6326367D01*
X328866Y6233099D01*
X535677Y5887871D01*
X858859Y5648065D01*
X1249210Y5550190D01*
X1699210Y5550190D01*
X1699210Y6529490D01*
X1800910Y6529490D01*
X1800910Y5550190D01*
X2250910Y5550190D01*
X2641261Y5648065D01*
X2964443Y5887871D01*
X3171254Y6233099D01*
X3208332Y6369162D01*
X3591248Y6369162D01*
X3628326Y6233099D01*
X3835137Y5887871D01*
X4158319Y5648065D01*
X4548670Y5550190D01*
X4998670Y5550190D01*
X4998670Y6529490D01*
X3653272Y6529490D01*
X3591248Y6369162D01*
X3208332Y6369162D01*
X3146308Y6529490D01*
X1800910Y6529490D01*
X1699210Y6529490D01*
X1679210Y6529490D01*
X1679210Y6631190D01*
X1699210Y6631190D01*
X1699210Y6651190D01*
X1800910Y6651190D01*
X1800910Y6631190D01*
X3146308Y6631190D01*
X3208332Y6791518D01*
X3171254Y6927581D01*
X2964443Y7272809D01*
X2906572Y7315750D01*
X3893008Y7315750D01*
X3835137Y7272809D01*
X3628326Y6927581D01*
X3591248Y6791518D01*
X3653272Y6631190D01*
X4998670Y6631190D01*
X4998670Y6651190D01*
X5100370Y6651190D01*
X5100370Y6631190D01*
X5120370Y6631190D01*
X5120370Y6529490D01*
X5100370Y6529490D01*
X5100370Y5550190D01*
X5550370Y5550190D01*
X5940721Y5648065D01*
X5956500Y5659773D01*
X5956500Y4281543D01*
X5920152Y4369512D01*
X5641777Y4648373D01*
X5277877Y4799478D01*
X4883852Y4799821D01*
X4519688Y4649352D01*
X4240827Y4370977D01*
X4089722Y4007077D01*
X4089379Y3613052D01*
X4239848Y3248888D01*
X4518223Y2970027D01*
X4882123Y2818922D01*
X5276148Y2818579D01*
X5640312Y2969048D01*
X5919173Y3247423D01*
X5956500Y3337316D01*
X5956500Y2844000D01*
X5991287Y2669113D01*
X6090352Y2520852D01*
X6801552Y1809652D01*
X6949814Y1710587D01*
X7124700Y1675799D01*
X7124705Y1675800D01*
X45720000Y1675800D01*
X45724022Y1676600D01*
X51816000Y1676600D01*
X51990887Y1711387D01*
X52139148Y1810452D01*
X52748748Y2420052D01*
X52847813Y2568314D01*
X52882601Y2743200D01*
X52882600Y2743205D01*
X52882600Y6400800D01*
X52875511Y6436437D01*
X52847813Y6575687D01*
X52748748Y6723948D01*
X52153748Y7318948D01*
X52005487Y7418013D01*
X51830600Y7452800D01*
X51807105Y7452800D01*
X51792362Y7475712D01*
X51716021Y7527874D01*
X51625400Y7546225D01*
X51444900Y7546225D01*
X51444900Y7695906D01*
X51477474Y7743579D01*
X51495825Y7834200D01*
X51495825Y8634200D01*
X51479895Y8718858D01*
X51429862Y8796612D01*
X51353521Y8848774D01*
X51262900Y8867125D01*
X50921071Y8867125D01*
X50512783Y9275413D01*
X51676250Y9275413D01*
X51676250Y9025629D01*
X51726512Y8904285D01*
X51819385Y8811412D01*
X51940729Y8761150D01*
X52317513Y8761150D01*
X52400050Y8843687D01*
X52400050Y9357950D01*
X51758787Y9357950D01*
X51676250Y9275413D01*
X50512783Y9275413D01*
X49996225Y9791971D01*
X51676250Y9791971D01*
X51676250Y9542187D01*
X51758787Y9459650D01*
X52400050Y9459650D01*
X52400050Y9973913D01*
X52317513Y10056450D01*
X51940729Y10056450D01*
X51819385Y10006188D01*
X51726512Y9913315D01*
X51676250Y9791971D01*
X49996225Y9791971D01*
X49884146Y9904050D01*
X49904513Y9904050D01*
X49987050Y9986587D01*
X49987050Y10583350D01*
X49967050Y10583350D01*
X49967050Y10685050D01*
X49987050Y10685050D01*
X49987050Y10705050D01*
X50088750Y10705050D01*
X50088750Y10685050D01*
X50088750Y10685050D01*
G37*
X50088750Y10685050D02*
X50108750Y10685050D01*
X50108750Y10583350D01*
X50088750Y10583350D01*
X50088750Y9986587D01*
X50171287Y9904050D01*
X50378571Y9904050D01*
X50499915Y9954312D01*
X50588387Y10042784D01*
X50622279Y10019626D01*
X50712900Y10001275D01*
X51262900Y10001275D01*
X51347558Y10017205D01*
X51425312Y10067238D01*
X51477474Y10143579D01*
X51493314Y10221800D01*
X51824695Y10221800D01*
X51839438Y10198888D01*
X51915779Y10146726D01*
X52006400Y10128375D01*
X52895400Y10128375D01*
X52980058Y10144305D01*
X53036550Y10180656D01*
X53036550Y10025186D01*
X52961071Y10056450D01*
X52584287Y10056450D01*
X52501750Y9973913D01*
X52501750Y9459650D01*
X52521750Y9459650D01*
X52521750Y9357950D01*
X52501750Y9357950D01*
X52501750Y8843687D01*
X52584287Y8761150D01*
X52961071Y8761150D01*
X53036550Y8792414D01*
X53036550Y302650D01*
X303450Y302650D01*
X303450Y3613052D01*
X1549379Y3613052D01*
X1699848Y3248888D01*
X1978223Y2970027D01*
X2342123Y2818922D01*
X2736148Y2818579D01*
X3100312Y2969048D01*
X3379173Y3247423D01*
X3530278Y3611323D01*
X3530621Y4005348D01*
X3380152Y4369512D01*
X3101777Y4648373D01*
X2737877Y4799478D01*
X2343852Y4799821D01*
X1979688Y4649352D01*
X1700827Y4370977D01*
X1549722Y4007077D01*
X1549379Y3613052D01*
X303450Y3613052D01*
X303450Y6326367D01*
X328866Y6233099D01*
X535677Y5887871D01*
X858859Y5648065D01*
X1249210Y5550190D01*
X1699210Y5550190D01*
X1699210Y6529490D01*
X1800910Y6529490D01*
X1800910Y5550190D01*
X2250910Y5550190D01*
X2641261Y5648065D01*
X2964443Y5887871D01*
X3171254Y6233099D01*
X3208332Y6369162D01*
X3591248Y6369162D01*
X3628326Y6233099D01*
X3835137Y5887871D01*
X4158319Y5648065D01*
X4548670Y5550190D01*
X4998670Y5550190D01*
X4998670Y6529490D01*
X3653272Y6529490D01*
X3591248Y6369162D01*
X3208332Y6369162D01*
X3146308Y6529490D01*
X1800910Y6529490D01*
X1699210Y6529490D01*
X1679210Y6529490D01*
X1679210Y6631190D01*
X1699210Y6631190D01*
X1699210Y6651190D01*
X1800910Y6651190D01*
X1800910Y6631190D01*
X3146308Y6631190D01*
X3208332Y6791518D01*
X3171254Y6927581D01*
X2964443Y7272809D01*
X2906572Y7315750D01*
X3893008Y7315750D01*
X3835137Y7272809D01*
X3628326Y6927581D01*
X3591248Y6791518D01*
X3653272Y6631190D01*
X4998670Y6631190D01*
X4998670Y6651190D01*
X5100370Y6651190D01*
X5100370Y6631190D01*
X5120370Y6631190D01*
X5120370Y6529490D01*
X5100370Y6529490D01*
X5100370Y5550190D01*
X5550370Y5550190D01*
X5940721Y5648065D01*
X5956500Y5659773D01*
X5956500Y4281543D01*
X5920152Y4369512D01*
X5641777Y4648373D01*
X5277877Y4799478D01*
X4883852Y4799821D01*
X4519688Y4649352D01*
X4240827Y4370977D01*
X4089722Y4007077D01*
X4089379Y3613052D01*
X4239848Y3248888D01*
X4518223Y2970027D01*
X4882123Y2818922D01*
X5276148Y2818579D01*
X5640312Y2969048D01*
X5919173Y3247423D01*
X5956500Y3337316D01*
X5956500Y2844000D01*
X5991287Y2669113D01*
X6090352Y2520852D01*
X6801552Y1809652D01*
X6949814Y1710587D01*
X7124700Y1675799D01*
X7124705Y1675800D01*
X45720000Y1675800D01*
X45724022Y1676600D01*
X51816000Y1676600D01*
X51990887Y1711387D01*
X52139148Y1810452D01*
X52748748Y2420052D01*
X52847813Y2568314D01*
X52882601Y2743200D01*
X52882600Y2743205D01*
X52882600Y6400800D01*
X52875511Y6436437D01*
X52847813Y6575687D01*
X52748748Y6723948D01*
X52153748Y7318948D01*
X52005487Y7418013D01*
X51830600Y7452800D01*
X51807105Y7452800D01*
X51792362Y7475712D01*
X51716021Y7527874D01*
X51625400Y7546225D01*
X51444900Y7546225D01*
X51444900Y7695906D01*
X51477474Y7743579D01*
X51495825Y7834200D01*
X51495825Y8634200D01*
X51479895Y8718858D01*
X51429862Y8796612D01*
X51353521Y8848774D01*
X51262900Y8867125D01*
X50921071Y8867125D01*
X50512783Y9275413D01*
X51676250Y9275413D01*
X51676250Y9025629D01*
X51726512Y8904285D01*
X51819385Y8811412D01*
X51940729Y8761150D01*
X52317513Y8761150D01*
X52400050Y8843687D01*
X52400050Y9357950D01*
X51758787Y9357950D01*
X51676250Y9275413D01*
X50512783Y9275413D01*
X49996225Y9791971D01*
X51676250Y9791971D01*
X51676250Y9542187D01*
X51758787Y9459650D01*
X52400050Y9459650D01*
X52400050Y9973913D01*
X52317513Y10056450D01*
X51940729Y10056450D01*
X51819385Y10006188D01*
X51726512Y9913315D01*
X51676250Y9791971D01*
X49996225Y9791971D01*
X49884146Y9904050D01*
X49904513Y9904050D01*
X49987050Y9986587D01*
X49987050Y10583350D01*
X49967050Y10583350D01*
X49967050Y10685050D01*
X49987050Y10685050D01*
X49987050Y10705050D01*
X50088750Y10705050D01*
X50088750Y10685050D01*
G36*
X25912869Y6403133D02*
X26062744Y6252996D01*
X26258665Y6171643D01*
X26470805Y6171458D01*
X26576450Y6215110D01*
X27064180Y5727380D01*
X27163016Y5661339D01*
X27279600Y5638150D01*
X27458210Y5638150D01*
X28409791Y4686569D01*
X28137877Y4799478D01*
X27743852Y4799821D01*
X27379688Y4649352D01*
X27100827Y4370977D01*
X26949722Y4007077D01*
X26949379Y3613052D01*
X27099848Y3248888D01*
X27378223Y2970027D01*
X27742123Y2818922D01*
X28136148Y2818579D01*
X28500312Y2969048D01*
X28779173Y3247423D01*
X28930278Y3611323D01*
X28930621Y4005348D01*
X28803082Y4314017D01*
X28839415Y4289740D01*
X28956000Y4266550D01*
X29591810Y4266550D01*
X29595806Y4262554D01*
X29489722Y4007077D01*
X29489379Y3613052D01*
X29639848Y3248888D01*
X29918223Y2970027D01*
X30282123Y2818922D01*
X30676148Y2818579D01*
X31040312Y2969048D01*
X31319173Y3247423D01*
X31470278Y3611323D01*
X31470621Y4005348D01*
X31362695Y4266550D01*
X32131810Y4266550D01*
X32135806Y4262554D01*
X32029722Y4007077D01*
X32029379Y3613052D01*
X32179848Y3248888D01*
X32458223Y2970027D01*
X32822123Y2818922D01*
X33216148Y2818579D01*
X33580312Y2969048D01*
X33859173Y3247423D01*
X34010278Y3611323D01*
X34010621Y4005348D01*
X33902695Y4266550D01*
X34671810Y4266550D01*
X34675806Y4262554D01*
X34569722Y4007077D01*
X34569379Y3613052D01*
X34719848Y3248888D01*
X34998223Y2970027D01*
X35362123Y2818922D01*
X35756148Y2818579D01*
X36120312Y2969048D01*
X36399173Y3247423D01*
X36550278Y3611323D01*
X36550587Y3966854D01*
X36576000Y3961799D01*
X36576005Y3961800D01*
X37109683Y3961800D01*
X37109379Y3613052D01*
X37259848Y3248888D01*
X37538223Y2970027D01*
X37902123Y2818922D01*
X38296148Y2818579D01*
X38660312Y2969048D01*
X38939173Y3247423D01*
X39090278Y3611323D01*
X39090621Y4005348D01*
X38982572Y4266848D01*
X39757589Y4266848D01*
X39649722Y4007077D01*
X39649379Y3613052D01*
X39799848Y3248888D01*
X40078223Y2970027D01*
X40442123Y2818922D01*
X40836148Y2818579D01*
X41200312Y2969048D01*
X41479173Y3247423D01*
X41630278Y3611323D01*
X41630621Y4005348D01*
X41543334Y4216600D01*
X42265033Y4216600D01*
X42273294Y4208339D01*
X42189722Y4007077D01*
X42189379Y3613052D01*
X42339848Y3248888D01*
X42618223Y2970027D01*
X42982123Y2818922D01*
X43376148Y2818579D01*
X43740312Y2969048D01*
X44019173Y3247423D01*
X44170278Y3611323D01*
X44170621Y4005348D01*
X44020152Y4369512D01*
X43868726Y4521202D01*
X45031314Y4521202D01*
X44880827Y4370977D01*
X44729722Y4007077D01*
X44729379Y3613052D01*
X44879848Y3248888D01*
X45158223Y2970027D01*
X45263000Y2926520D01*
X45263000Y2589800D01*
X17092170Y2589800D01*
X17397821Y2895451D01*
X17582123Y2818922D01*
X17976148Y2818579D01*
X18340312Y2969048D01*
X18619173Y3247423D01*
X18770278Y3611323D01*
X18770621Y4005348D01*
X18664302Y4262662D01*
X18972990Y4571350D01*
X19681550Y4571350D01*
X19480827Y4370977D01*
X19329722Y4007077D01*
X19329379Y3613052D01*
X19479848Y3248888D01*
X19758223Y2970027D01*
X20122123Y2818922D01*
X20516148Y2818579D01*
X20880312Y2969048D01*
X21159173Y3247423D01*
X21310278Y3611323D01*
X21310621Y4005348D01*
X21204302Y4262662D01*
X22555350Y5613710D01*
X22555350Y4754989D01*
X22299688Y4649352D01*
X22020827Y4370977D01*
X21869722Y4007077D01*
X21869379Y3613052D01*
X22019848Y3248888D01*
X22298223Y2970027D01*
X22662123Y2818922D01*
X23056148Y2818579D01*
X23420312Y2969048D01*
X23699173Y3247423D01*
X23850278Y3611323D01*
X23850279Y3613052D01*
X24409379Y3613052D01*
X24559848Y3248888D01*
X24838223Y2970027D01*
X25202123Y2818922D01*
X25596148Y2818579D01*
X25960312Y2969048D01*
X26239173Y3247423D01*
X26390278Y3611323D01*
X26390621Y4005348D01*
X26240152Y4369512D01*
X25961777Y4648373D01*
X25597877Y4799478D01*
X25203852Y4799821D01*
X24839688Y4649352D01*
X24560827Y4370977D01*
X24409722Y4007077D01*
X24409379Y3613052D01*
X23850279Y3613052D01*
X23850621Y4005348D01*
X23700152Y4369512D01*
X23421777Y4648373D01*
X23164650Y4755142D01*
X23164650Y5790400D01*
X23141460Y5906985D01*
X23075420Y6005820D01*
X23012250Y6068990D01*
X23012250Y6407894D01*
X23014744Y6405396D01*
X23210665Y6324043D01*
X23422805Y6323858D01*
X23618867Y6404869D01*
X23766806Y6552550D01*
X25755500Y6552550D01*
X25843868Y6570127D01*
X25912869Y6403133D01*
X25912869Y6403133D01*
G37*
X25912869Y6403133D02*
X26062744Y6252996D01*
X26258665Y6171643D01*
X26470805Y6171458D01*
X26576450Y6215110D01*
X27064180Y5727380D01*
X27163016Y5661339D01*
X27279600Y5638150D01*
X27458210Y5638150D01*
X28409791Y4686569D01*
X28137877Y4799478D01*
X27743852Y4799821D01*
X27379688Y4649352D01*
X27100827Y4370977D01*
X26949722Y4007077D01*
X26949379Y3613052D01*
X27099848Y3248888D01*
X27378223Y2970027D01*
X27742123Y2818922D01*
X28136148Y2818579D01*
X28500312Y2969048D01*
X28779173Y3247423D01*
X28930278Y3611323D01*
X28930621Y4005348D01*
X28803082Y4314017D01*
X28839415Y4289740D01*
X28956000Y4266550D01*
X29591810Y4266550D01*
X29595806Y4262554D01*
X29489722Y4007077D01*
X29489379Y3613052D01*
X29639848Y3248888D01*
X29918223Y2970027D01*
X30282123Y2818922D01*
X30676148Y2818579D01*
X31040312Y2969048D01*
X31319173Y3247423D01*
X31470278Y3611323D01*
X31470621Y4005348D01*
X31362695Y4266550D01*
X32131810Y4266550D01*
X32135806Y4262554D01*
X32029722Y4007077D01*
X32029379Y3613052D01*
X32179848Y3248888D01*
X32458223Y2970027D01*
X32822123Y2818922D01*
X33216148Y2818579D01*
X33580312Y2969048D01*
X33859173Y3247423D01*
X34010278Y3611323D01*
X34010621Y4005348D01*
X33902695Y4266550D01*
X34671810Y4266550D01*
X34675806Y4262554D01*
X34569722Y4007077D01*
X34569379Y3613052D01*
X34719848Y3248888D01*
X34998223Y2970027D01*
X35362123Y2818922D01*
X35756148Y2818579D01*
X36120312Y2969048D01*
X36399173Y3247423D01*
X36550278Y3611323D01*
X36550587Y3966854D01*
X36576000Y3961799D01*
X36576005Y3961800D01*
X37109683Y3961800D01*
X37109379Y3613052D01*
X37259848Y3248888D01*
X37538223Y2970027D01*
X37902123Y2818922D01*
X38296148Y2818579D01*
X38660312Y2969048D01*
X38939173Y3247423D01*
X39090278Y3611323D01*
X39090621Y4005348D01*
X38982572Y4266848D01*
X39757589Y4266848D01*
X39649722Y4007077D01*
X39649379Y3613052D01*
X39799848Y3248888D01*
X40078223Y2970027D01*
X40442123Y2818922D01*
X40836148Y2818579D01*
X41200312Y2969048D01*
X41479173Y3247423D01*
X41630278Y3611323D01*
X41630621Y4005348D01*
X41543334Y4216600D01*
X42265033Y4216600D01*
X42273294Y4208339D01*
X42189722Y4007077D01*
X42189379Y3613052D01*
X42339848Y3248888D01*
X42618223Y2970027D01*
X42982123Y2818922D01*
X43376148Y2818579D01*
X43740312Y2969048D01*
X44019173Y3247423D01*
X44170278Y3611323D01*
X44170621Y4005348D01*
X44020152Y4369512D01*
X43868726Y4521202D01*
X45031314Y4521202D01*
X44880827Y4370977D01*
X44729722Y4007077D01*
X44729379Y3613052D01*
X44879848Y3248888D01*
X45158223Y2970027D01*
X45263000Y2926520D01*
X45263000Y2589800D01*
X17092170Y2589800D01*
X17397821Y2895451D01*
X17582123Y2818922D01*
X17976148Y2818579D01*
X18340312Y2969048D01*
X18619173Y3247423D01*
X18770278Y3611323D01*
X18770621Y4005348D01*
X18664302Y4262662D01*
X18972990Y4571350D01*
X19681550Y4571350D01*
X19480827Y4370977D01*
X19329722Y4007077D01*
X19329379Y3613052D01*
X19479848Y3248888D01*
X19758223Y2970027D01*
X20122123Y2818922D01*
X20516148Y2818579D01*
X20880312Y2969048D01*
X21159173Y3247423D01*
X21310278Y3611323D01*
X21310621Y4005348D01*
X21204302Y4262662D01*
X22555350Y5613710D01*
X22555350Y4754989D01*
X22299688Y4649352D01*
X22020827Y4370977D01*
X21869722Y4007077D01*
X21869379Y3613052D01*
X22019848Y3248888D01*
X22298223Y2970027D01*
X22662123Y2818922D01*
X23056148Y2818579D01*
X23420312Y2969048D01*
X23699173Y3247423D01*
X23850278Y3611323D01*
X23850279Y3613052D01*
X24409379Y3613052D01*
X24559848Y3248888D01*
X24838223Y2970027D01*
X25202123Y2818922D01*
X25596148Y2818579D01*
X25960312Y2969048D01*
X26239173Y3247423D01*
X26390278Y3611323D01*
X26390621Y4005348D01*
X26240152Y4369512D01*
X25961777Y4648373D01*
X25597877Y4799478D01*
X25203852Y4799821D01*
X24839688Y4649352D01*
X24560827Y4370977D01*
X24409722Y4007077D01*
X24409379Y3613052D01*
X23850279Y3613052D01*
X23850621Y4005348D01*
X23700152Y4369512D01*
X23421777Y4648373D01*
X23164650Y4755142D01*
X23164650Y5790400D01*
X23141460Y5906985D01*
X23075420Y6005820D01*
X23012250Y6068990D01*
X23012250Y6407894D01*
X23014744Y6405396D01*
X23210665Y6324043D01*
X23422805Y6323858D01*
X23618867Y6404869D01*
X23766806Y6552550D01*
X25755500Y6552550D01*
X25843868Y6570127D01*
X25912869Y6403133D01*
G36*
X48695095Y16876409D02*
X48695095Y16365220D01*
X48711025Y16280562D01*
X48761058Y16202808D01*
X48837399Y16150646D01*
X48928020Y16132295D01*
X49439209Y16132295D01*
X50710075Y14861430D01*
X50710075Y14729000D01*
X50726005Y14644342D01*
X50776038Y14566588D01*
X50805671Y14546340D01*
X50730852Y14496348D01*
X50730850Y14496345D01*
X50356704Y14122200D01*
X50109509Y14122200D01*
X50094975Y14199438D01*
X50044942Y14277192D01*
X49968601Y14329354D01*
X49877980Y14347705D01*
X48928020Y14347705D01*
X48843362Y14331775D01*
X48765608Y14281742D01*
X48713446Y14205401D01*
X48695095Y14114780D01*
X48695095Y13601775D01*
X48599687Y13458987D01*
X48574863Y13334187D01*
X48564900Y13284100D01*
X48564900Y12575005D01*
X48541988Y12560262D01*
X48489826Y12483921D01*
X48471475Y12393300D01*
X48471475Y11504300D01*
X48487405Y11419642D01*
X48537438Y11341888D01*
X48564900Y11323124D01*
X48564900Y10700200D01*
X48579975Y10624412D01*
X48579975Y10234200D01*
X48595905Y10149542D01*
X48630900Y10095158D01*
X48630900Y10054000D01*
X48665687Y9879113D01*
X48764752Y9730852D01*
X50479975Y8015629D01*
X50479975Y7834200D01*
X50495905Y7749542D01*
X50530900Y7695158D01*
X50530900Y7417201D01*
X50521826Y7403921D01*
X50503475Y7313300D01*
X50503475Y6678300D01*
X50519405Y6593642D01*
X50569438Y6515888D01*
X50645779Y6463726D01*
X50736400Y6445375D01*
X51625400Y6445375D01*
X51710058Y6461305D01*
X51715377Y6464727D01*
X51968600Y6211504D01*
X51968600Y2932496D01*
X51626704Y2590600D01*
X46177000Y2590600D01*
X46177000Y2926360D01*
X46280312Y2969048D01*
X46356494Y3045098D01*
X47567810Y3045098D01*
X47647296Y2879374D01*
X48049764Y2715681D01*
X48484240Y2718466D01*
X48872704Y2879374D01*
X48952190Y3045098D01*
X48260000Y3737287D01*
X47567810Y3045098D01*
X46356494Y3045098D01*
X46559173Y3247423D01*
X46710278Y3611323D01*
X46710621Y4005348D01*
X46560152Y4369512D01*
X46408726Y4521202D01*
X47476083Y4521202D01*
X47495896Y4501389D01*
X47330174Y4421904D01*
X47166481Y4019436D01*
X47169266Y3584960D01*
X47330174Y3196496D01*
X47495898Y3117010D01*
X48188087Y3809200D01*
X48331913Y3809200D01*
X49024102Y3117010D01*
X49189826Y3196496D01*
X49353519Y3598964D01*
X49350734Y4033440D01*
X49189826Y4421904D01*
X49024102Y4501390D01*
X48331913Y3809200D01*
X48188087Y3809200D01*
X48173945Y3823342D01*
X48245858Y3895255D01*
X48260000Y3881113D01*
X48950087Y4571200D01*
X49805075Y4571200D01*
X49805075Y3047200D01*
X49821005Y2962542D01*
X49871038Y2884788D01*
X49947379Y2832626D01*
X50038000Y2814275D01*
X51562000Y2814275D01*
X51646658Y2830205D01*
X51724412Y2880238D01*
X51776574Y2956579D01*
X51794925Y3047200D01*
X51794925Y4571200D01*
X51778995Y4655858D01*
X51728962Y4733612D01*
X51652621Y4785774D01*
X51562000Y4804125D01*
X50038000Y4804125D01*
X49953342Y4788195D01*
X49875588Y4738162D01*
X49823426Y4661821D01*
X49805075Y4571200D01*
X48950087Y4571200D01*
X48952190Y4573302D01*
X48872704Y4739026D01*
X48694233Y4811614D01*
X48873505Y4811458D01*
X49069567Y4892469D01*
X49219704Y5042344D01*
X49240318Y5091989D01*
X49273729Y5078150D01*
X49650513Y5078150D01*
X49733050Y5160687D01*
X49733050Y5674950D01*
X49834750Y5674950D01*
X49834750Y5160687D01*
X49917287Y5078150D01*
X50294071Y5078150D01*
X50415415Y5128412D01*
X50482400Y5195397D01*
X50549385Y5128412D01*
X50670729Y5078150D01*
X51047513Y5078150D01*
X51130050Y5160687D01*
X51130050Y5674950D01*
X51231750Y5674950D01*
X51231750Y5160687D01*
X51314287Y5078150D01*
X51691071Y5078150D01*
X51812415Y5128412D01*
X51905288Y5221285D01*
X51955550Y5342629D01*
X51955550Y5592413D01*
X51873013Y5674950D01*
X51231750Y5674950D01*
X51130050Y5674950D01*
X50488787Y5674950D01*
X50482400Y5668563D01*
X50476013Y5674950D01*
X49834750Y5674950D01*
X49733050Y5674950D01*
X49713050Y5674950D01*
X49713050Y5776650D01*
X49733050Y5776650D01*
X49733050Y6290913D01*
X49834750Y6290913D01*
X49834750Y5776650D01*
X50476013Y5776650D01*
X50482400Y5783037D01*
X50488787Y5776650D01*
X51130050Y5776650D01*
X51130050Y6290913D01*
X51231750Y6290913D01*
X51231750Y5776650D01*
X51873013Y5776650D01*
X51955550Y5859187D01*
X51955550Y6108971D01*
X51905288Y6230315D01*
X51812415Y6323188D01*
X51691071Y6373450D01*
X51314287Y6373450D01*
X51231750Y6290913D01*
X51130050Y6290913D01*
X51047513Y6373450D01*
X50670729Y6373450D01*
X50549385Y6323188D01*
X50482400Y6256203D01*
X50415415Y6323188D01*
X50294071Y6373450D01*
X49917287Y6373450D01*
X49834750Y6290913D01*
X49733050Y6290913D01*
X49650513Y6373450D01*
X49273729Y6373450D01*
X49152385Y6323188D01*
X49059512Y6230315D01*
X49009250Y6108971D01*
X49009250Y5859187D01*
X49091785Y5776652D01*
X49090273Y5776652D01*
X49070356Y5796604D01*
X48874435Y5877957D01*
X48662295Y5878142D01*
X48466233Y5797131D01*
X48316096Y5647256D01*
X48234743Y5451335D01*
X48234561Y5242231D01*
X48122732Y5130402D01*
X46912668Y5130402D01*
X48678387Y6896121D01*
X48715498Y6951662D01*
X48744416Y6994941D01*
X48767602Y7111506D01*
X48767602Y7610448D01*
X48800820Y7603721D01*
X48806486Y7575234D01*
X48872515Y7476415D01*
X49106475Y7242455D01*
X49106475Y6678300D01*
X49122405Y6593642D01*
X49172438Y6515888D01*
X49248779Y6463726D01*
X49339400Y6445375D01*
X50228400Y6445375D01*
X50313058Y6461305D01*
X50390812Y6511338D01*
X50442974Y6587679D01*
X50461325Y6678300D01*
X50461325Y7313300D01*
X50445395Y7397958D01*
X50395362Y7475712D01*
X50319021Y7527874D01*
X50228400Y7546225D01*
X49664244Y7546225D01*
X49532586Y7677884D01*
X49577474Y7743579D01*
X49595825Y7834200D01*
X49595825Y8634200D01*
X49579895Y8718858D01*
X49529862Y8796612D01*
X49453521Y8848774D01*
X49362900Y8867125D01*
X48812900Y8867125D01*
X48767602Y8858601D01*
X48767602Y9296598D01*
X48744416Y9413163D01*
X48678387Y9511983D01*
X48463000Y9727370D01*
X48463000Y11734795D01*
X48463001Y11734800D01*
X48439814Y11851366D01*
X48405048Y11903396D01*
X48373785Y11950185D01*
X48373782Y11950187D01*
X47987871Y12336099D01*
X48056478Y12501323D01*
X48056821Y12895348D01*
X47906352Y13259512D01*
X47627977Y13538373D01*
X47264077Y13689478D01*
X46870052Y13689821D01*
X46505888Y13539352D01*
X46227027Y13260977D01*
X46075922Y12897077D01*
X46075579Y12503052D01*
X46226048Y12138888D01*
X46504423Y11860027D01*
X46868323Y11708922D01*
X47262348Y11708579D01*
X47610145Y11852285D01*
X47853800Y11608631D01*
X47853800Y10772156D01*
X47627977Y10998373D01*
X47264077Y11149478D01*
X46870052Y11149821D01*
X46505888Y10999352D01*
X46227027Y10720977D01*
X46075922Y10357077D01*
X46075579Y9963052D01*
X46226048Y9598888D01*
X46504423Y9320027D01*
X46868323Y9168922D01*
X47262348Y9168579D01*
X47519711Y9274919D01*
X47853800Y8940830D01*
X47853800Y8232156D01*
X47627977Y8458373D01*
X47264077Y8609478D01*
X46870052Y8609821D01*
X46505888Y8459352D01*
X46227027Y8180977D01*
X46075922Y7817077D01*
X46075579Y7423052D01*
X46226048Y7058888D01*
X46504423Y6780027D01*
X46868323Y6628922D01*
X47118659Y6628704D01*
X46229560Y5739606D01*
X41907936Y5739606D01*
X41642301Y6005241D01*
X41543482Y6071270D01*
X41426916Y6094456D01*
X39519099Y6094456D01*
X39291371Y6322185D01*
X39192552Y6388214D01*
X39075986Y6411400D01*
X38671769Y6411400D01*
X38378912Y6704258D01*
X40385007Y6704258D01*
X40385258Y6704208D01*
X40501842Y6727398D01*
X40600678Y6793438D01*
X41388820Y7581580D01*
X41399795Y7598005D01*
X41454860Y7680415D01*
X41478050Y7797000D01*
X41478050Y14321485D01*
X41651065Y14249643D01*
X41863205Y14249458D01*
X42059267Y14330469D01*
X42209404Y14480344D01*
X42290757Y14676265D01*
X42290942Y14888405D01*
X42214600Y15073167D01*
X42214600Y15102457D01*
X42215993Y15105813D01*
X45974050Y15105813D01*
X45974050Y14411529D01*
X46024312Y14290185D01*
X46117185Y14197312D01*
X46238529Y14147050D01*
X46932813Y14147050D01*
X47015350Y14229587D01*
X47015350Y15188350D01*
X47117050Y15188350D01*
X47117050Y14229587D01*
X47199587Y14147050D01*
X47893871Y14147050D01*
X48015215Y14197312D01*
X48108088Y14290185D01*
X48158350Y14411529D01*
X48158350Y15105813D01*
X48075813Y15188350D01*
X47117050Y15188350D01*
X47015350Y15188350D01*
X46056587Y15188350D01*
X45974050Y15105813D01*
X42215993Y15105813D01*
X42290757Y15285865D01*
X42290942Y15498005D01*
X42214600Y15682767D01*
X42214600Y15929662D01*
X42351808Y16066871D01*
X45974050Y16066871D01*
X45974050Y15372587D01*
X46056587Y15290050D01*
X47015350Y15290050D01*
X47015350Y16248813D01*
X47117050Y16248813D01*
X47117050Y15290050D01*
X48075813Y15290050D01*
X48158350Y15372587D01*
X48158350Y16066871D01*
X48108088Y16188215D01*
X48015215Y16281088D01*
X47893871Y16331350D01*
X47199587Y16331350D01*
X47117050Y16248813D01*
X47015350Y16248813D01*
X46932813Y16331350D01*
X46238529Y16331350D01*
X46117185Y16281088D01*
X46024312Y16188215D01*
X45974050Y16066871D01*
X42351808Y16066871D01*
X43048485Y16763548D01*
X44994918Y16763548D01*
X45169805Y16798335D01*
X45318066Y16897400D01*
X45489014Y17068348D01*
X48503156Y17068348D01*
X48695095Y16876409D01*
X48695095Y16876409D01*
G37*
X48695095Y16876409D02*
X48695095Y16365220D01*
X48711025Y16280562D01*
X48761058Y16202808D01*
X48837399Y16150646D01*
X48928020Y16132295D01*
X49439209Y16132295D01*
X50710075Y14861430D01*
X50710075Y14729000D01*
X50726005Y14644342D01*
X50776038Y14566588D01*
X50805671Y14546340D01*
X50730852Y14496348D01*
X50730850Y14496345D01*
X50356704Y14122200D01*
X50109509Y14122200D01*
X50094975Y14199438D01*
X50044942Y14277192D01*
X49968601Y14329354D01*
X49877980Y14347705D01*
X48928020Y14347705D01*
X48843362Y14331775D01*
X48765608Y14281742D01*
X48713446Y14205401D01*
X48695095Y14114780D01*
X48695095Y13601775D01*
X48599687Y13458987D01*
X48574863Y13334187D01*
X48564900Y13284100D01*
X48564900Y12575005D01*
X48541988Y12560262D01*
X48489826Y12483921D01*
X48471475Y12393300D01*
X48471475Y11504300D01*
X48487405Y11419642D01*
X48537438Y11341888D01*
X48564900Y11323124D01*
X48564900Y10700200D01*
X48579975Y10624412D01*
X48579975Y10234200D01*
X48595905Y10149542D01*
X48630900Y10095158D01*
X48630900Y10054000D01*
X48665687Y9879113D01*
X48764752Y9730852D01*
X50479975Y8015629D01*
X50479975Y7834200D01*
X50495905Y7749542D01*
X50530900Y7695158D01*
X50530900Y7417201D01*
X50521826Y7403921D01*
X50503475Y7313300D01*
X50503475Y6678300D01*
X50519405Y6593642D01*
X50569438Y6515888D01*
X50645779Y6463726D01*
X50736400Y6445375D01*
X51625400Y6445375D01*
X51710058Y6461305D01*
X51715377Y6464727D01*
X51968600Y6211504D01*
X51968600Y2932496D01*
X51626704Y2590600D01*
X46177000Y2590600D01*
X46177000Y2926360D01*
X46280312Y2969048D01*
X46356494Y3045098D01*
X47567810Y3045098D01*
X47647296Y2879374D01*
X48049764Y2715681D01*
X48484240Y2718466D01*
X48872704Y2879374D01*
X48952190Y3045098D01*
X48260000Y3737287D01*
X47567810Y3045098D01*
X46356494Y3045098D01*
X46559173Y3247423D01*
X46710278Y3611323D01*
X46710621Y4005348D01*
X46560152Y4369512D01*
X46408726Y4521202D01*
X47476083Y4521202D01*
X47495896Y4501389D01*
X47330174Y4421904D01*
X47166481Y4019436D01*
X47169266Y3584960D01*
X47330174Y3196496D01*
X47495898Y3117010D01*
X48188087Y3809200D01*
X48331913Y3809200D01*
X49024102Y3117010D01*
X49189826Y3196496D01*
X49353519Y3598964D01*
X49350734Y4033440D01*
X49189826Y4421904D01*
X49024102Y4501390D01*
X48331913Y3809200D01*
X48188087Y3809200D01*
X48173945Y3823342D01*
X48245858Y3895255D01*
X48260000Y3881113D01*
X48950087Y4571200D01*
X49805075Y4571200D01*
X49805075Y3047200D01*
X49821005Y2962542D01*
X49871038Y2884788D01*
X49947379Y2832626D01*
X50038000Y2814275D01*
X51562000Y2814275D01*
X51646658Y2830205D01*
X51724412Y2880238D01*
X51776574Y2956579D01*
X51794925Y3047200D01*
X51794925Y4571200D01*
X51778995Y4655858D01*
X51728962Y4733612D01*
X51652621Y4785774D01*
X51562000Y4804125D01*
X50038000Y4804125D01*
X49953342Y4788195D01*
X49875588Y4738162D01*
X49823426Y4661821D01*
X49805075Y4571200D01*
X48950087Y4571200D01*
X48952190Y4573302D01*
X48872704Y4739026D01*
X48694233Y4811614D01*
X48873505Y4811458D01*
X49069567Y4892469D01*
X49219704Y5042344D01*
X49240318Y5091989D01*
X49273729Y5078150D01*
X49650513Y5078150D01*
X49733050Y5160687D01*
X49733050Y5674950D01*
X49834750Y5674950D01*
X49834750Y5160687D01*
X49917287Y5078150D01*
X50294071Y5078150D01*
X50415415Y5128412D01*
X50482400Y5195397D01*
X50549385Y5128412D01*
X50670729Y5078150D01*
X51047513Y5078150D01*
X51130050Y5160687D01*
X51130050Y5674950D01*
X51231750Y5674950D01*
X51231750Y5160687D01*
X51314287Y5078150D01*
X51691071Y5078150D01*
X51812415Y5128412D01*
X51905288Y5221285D01*
X51955550Y5342629D01*
X51955550Y5592413D01*
X51873013Y5674950D01*
X51231750Y5674950D01*
X51130050Y5674950D01*
X50488787Y5674950D01*
X50482400Y5668563D01*
X50476013Y5674950D01*
X49834750Y5674950D01*
X49733050Y5674950D01*
X49713050Y5674950D01*
X49713050Y5776650D01*
X49733050Y5776650D01*
X49733050Y6290913D01*
X49834750Y6290913D01*
X49834750Y5776650D01*
X50476013Y5776650D01*
X50482400Y5783037D01*
X50488787Y5776650D01*
X51130050Y5776650D01*
X51130050Y6290913D01*
X51231750Y6290913D01*
X51231750Y5776650D01*
X51873013Y5776650D01*
X51955550Y5859187D01*
X51955550Y6108971D01*
X51905288Y6230315D01*
X51812415Y6323188D01*
X51691071Y6373450D01*
X51314287Y6373450D01*
X51231750Y6290913D01*
X51130050Y6290913D01*
X51047513Y6373450D01*
X50670729Y6373450D01*
X50549385Y6323188D01*
X50482400Y6256203D01*
X50415415Y6323188D01*
X50294071Y6373450D01*
X49917287Y6373450D01*
X49834750Y6290913D01*
X49733050Y6290913D01*
X49650513Y6373450D01*
X49273729Y6373450D01*
X49152385Y6323188D01*
X49059512Y6230315D01*
X49009250Y6108971D01*
X49009250Y5859187D01*
X49091785Y5776652D01*
X49090273Y5776652D01*
X49070356Y5796604D01*
X48874435Y5877957D01*
X48662295Y5878142D01*
X48466233Y5797131D01*
X48316096Y5647256D01*
X48234743Y5451335D01*
X48234561Y5242231D01*
X48122732Y5130402D01*
X46912668Y5130402D01*
X48678387Y6896121D01*
X48715498Y6951662D01*
X48744416Y6994941D01*
X48767602Y7111506D01*
X48767602Y7610448D01*
X48800820Y7603721D01*
X48806486Y7575234D01*
X48872515Y7476415D01*
X49106475Y7242455D01*
X49106475Y6678300D01*
X49122405Y6593642D01*
X49172438Y6515888D01*
X49248779Y6463726D01*
X49339400Y6445375D01*
X50228400Y6445375D01*
X50313058Y6461305D01*
X50390812Y6511338D01*
X50442974Y6587679D01*
X50461325Y6678300D01*
X50461325Y7313300D01*
X50445395Y7397958D01*
X50395362Y7475712D01*
X50319021Y7527874D01*
X50228400Y7546225D01*
X49664244Y7546225D01*
X49532586Y7677884D01*
X49577474Y7743579D01*
X49595825Y7834200D01*
X49595825Y8634200D01*
X49579895Y8718858D01*
X49529862Y8796612D01*
X49453521Y8848774D01*
X49362900Y8867125D01*
X48812900Y8867125D01*
X48767602Y8858601D01*
X48767602Y9296598D01*
X48744416Y9413163D01*
X48678387Y9511983D01*
X48463000Y9727370D01*
X48463000Y11734795D01*
X48463001Y11734800D01*
X48439814Y11851366D01*
X48405048Y11903396D01*
X48373785Y11950185D01*
X48373782Y11950187D01*
X47987871Y12336099D01*
X48056478Y12501323D01*
X48056821Y12895348D01*
X47906352Y13259512D01*
X47627977Y13538373D01*
X47264077Y13689478D01*
X46870052Y13689821D01*
X46505888Y13539352D01*
X46227027Y13260977D01*
X46075922Y12897077D01*
X46075579Y12503052D01*
X46226048Y12138888D01*
X46504423Y11860027D01*
X46868323Y11708922D01*
X47262348Y11708579D01*
X47610145Y11852285D01*
X47853800Y11608631D01*
X47853800Y10772156D01*
X47627977Y10998373D01*
X47264077Y11149478D01*
X46870052Y11149821D01*
X46505888Y10999352D01*
X46227027Y10720977D01*
X46075922Y10357077D01*
X46075579Y9963052D01*
X46226048Y9598888D01*
X46504423Y9320027D01*
X46868323Y9168922D01*
X47262348Y9168579D01*
X47519711Y9274919D01*
X47853800Y8940830D01*
X47853800Y8232156D01*
X47627977Y8458373D01*
X47264077Y8609478D01*
X46870052Y8609821D01*
X46505888Y8459352D01*
X46227027Y8180977D01*
X46075922Y7817077D01*
X46075579Y7423052D01*
X46226048Y7058888D01*
X46504423Y6780027D01*
X46868323Y6628922D01*
X47118659Y6628704D01*
X46229560Y5739606D01*
X41907936Y5739606D01*
X41642301Y6005241D01*
X41543482Y6071270D01*
X41426916Y6094456D01*
X39519099Y6094456D01*
X39291371Y6322185D01*
X39192552Y6388214D01*
X39075986Y6411400D01*
X38671769Y6411400D01*
X38378912Y6704258D01*
X40385007Y6704258D01*
X40385258Y6704208D01*
X40501842Y6727398D01*
X40600678Y6793438D01*
X41388820Y7581580D01*
X41399795Y7598005D01*
X41454860Y7680415D01*
X41478050Y7797000D01*
X41478050Y14321485D01*
X41651065Y14249643D01*
X41863205Y14249458D01*
X42059267Y14330469D01*
X42209404Y14480344D01*
X42290757Y14676265D01*
X42290942Y14888405D01*
X42214600Y15073167D01*
X42214600Y15102457D01*
X42215993Y15105813D01*
X45974050Y15105813D01*
X45974050Y14411529D01*
X46024312Y14290185D01*
X46117185Y14197312D01*
X46238529Y14147050D01*
X46932813Y14147050D01*
X47015350Y14229587D01*
X47015350Y15188350D01*
X47117050Y15188350D01*
X47117050Y14229587D01*
X47199587Y14147050D01*
X47893871Y14147050D01*
X48015215Y14197312D01*
X48108088Y14290185D01*
X48158350Y14411529D01*
X48158350Y15105813D01*
X48075813Y15188350D01*
X47117050Y15188350D01*
X47015350Y15188350D01*
X46056587Y15188350D01*
X45974050Y15105813D01*
X42215993Y15105813D01*
X42290757Y15285865D01*
X42290942Y15498005D01*
X42214600Y15682767D01*
X42214600Y15929662D01*
X42351808Y16066871D01*
X45974050Y16066871D01*
X45974050Y15372587D01*
X46056587Y15290050D01*
X47015350Y15290050D01*
X47015350Y16248813D01*
X47117050Y16248813D01*
X47117050Y15290050D01*
X48075813Y15290050D01*
X48158350Y15372587D01*
X48158350Y16066871D01*
X48108088Y16188215D01*
X48015215Y16281088D01*
X47893871Y16331350D01*
X47199587Y16331350D01*
X47117050Y16248813D01*
X47015350Y16248813D01*
X46932813Y16331350D01*
X46238529Y16331350D01*
X46117185Y16281088D01*
X46024312Y16188215D01*
X45974050Y16066871D01*
X42351808Y16066871D01*
X43048485Y16763548D01*
X44994918Y16763548D01*
X45169805Y16798335D01*
X45318066Y16897400D01*
X45489014Y17068348D01*
X48503156Y17068348D01*
X48695095Y16876409D01*
G36*
X16789722Y4007077D02*
X16789379Y3613052D01*
X16925191Y3284361D01*
X16637830Y2997000D01*
X15828313Y2997000D01*
X16079173Y3247423D01*
X16230278Y3611323D01*
X16230621Y4005348D01*
X16143334Y4216600D01*
X16876724Y4216600D01*
X16789722Y4007077D01*
X16789722Y4007077D01*
G37*
X16789722Y4007077D02*
X16789379Y3613052D01*
X16925191Y3284361D01*
X16637830Y2997000D01*
X15828313Y2997000D01*
X16079173Y3247423D01*
X16230278Y3611323D01*
X16230621Y4005348D01*
X16143334Y4216600D01*
X16876724Y4216600D01*
X16789722Y4007077D01*
G36*
X11860827Y4370977D02*
X11709722Y4007077D01*
X11709379Y3613052D01*
X11859848Y3248888D01*
X12111297Y2997000D01*
X10748313Y2997000D01*
X10999173Y3247423D01*
X11150278Y3611323D01*
X11150621Y4005348D01*
X11044302Y4262662D01*
X11302190Y4520550D01*
X12010661Y4520550D01*
X11860827Y4370977D01*
X11860827Y4370977D01*
G37*
X11860827Y4370977D02*
X11709722Y4007077D01*
X11709379Y3613052D01*
X11859848Y3248888D01*
X12111297Y2997000D01*
X10748313Y2997000D01*
X10999173Y3247423D01*
X11150278Y3611323D01*
X11150621Y4005348D01*
X11044302Y4262662D01*
X11302190Y4520550D01*
X12010661Y4520550D01*
X11860827Y4370977D01*
G36*
X15908075Y15515000D02*
X15924005Y15430342D01*
X15966511Y15364286D01*
X15926426Y15305621D01*
X15908075Y15215000D01*
X15908075Y14415000D01*
X15918531Y14359434D01*
X15861112Y14302015D01*
X15810850Y14180671D01*
X15810850Y13848387D01*
X15893387Y13765850D01*
X16840150Y13765850D01*
X16840150Y13785850D01*
X16941850Y13785850D01*
X16941850Y13765850D01*
X17888613Y13765850D01*
X17971150Y13848387D01*
X17971150Y14180671D01*
X17920888Y14302015D01*
X17862807Y14360096D01*
X17873925Y14415000D01*
X17873925Y14510400D01*
X18156058Y14510400D01*
X18557041Y14109418D01*
X18557043Y14109415D01*
X18647442Y14049012D01*
X17971150Y13372720D01*
X17971150Y13581613D01*
X17888613Y13664150D01*
X16941850Y13664150D01*
X16941850Y13644150D01*
X16840150Y13644150D01*
X16840150Y13664150D01*
X15893387Y13664150D01*
X15810850Y13581613D01*
X15810850Y13249329D01*
X15861112Y13127985D01*
X15919193Y13069904D01*
X15908075Y13015000D01*
X15908075Y12215000D01*
X15924005Y12130342D01*
X15966511Y12064286D01*
X15926426Y12005621D01*
X15908075Y11915000D01*
X15908075Y11829971D01*
X15374052Y11295948D01*
X15274987Y11147687D01*
X15242388Y10983800D01*
X15240200Y10972800D01*
X15240200Y9942896D01*
X14459652Y9162348D01*
X14360587Y9014087D01*
X14332769Y8874235D01*
X14325800Y8839200D01*
X14325800Y6248400D01*
X14360587Y6073513D01*
X14401877Y6011719D01*
X14401858Y5990395D01*
X14482869Y5794333D01*
X14486945Y5790250D01*
X14427200Y5790250D01*
X14310615Y5767060D01*
X14235865Y5717113D01*
X14211780Y5701020D01*
X13996210Y5485450D01*
X11099800Y5485450D01*
X10983215Y5462260D01*
X10884380Y5396220D01*
X10884239Y5396009D01*
X10618830Y5130600D01*
X9702805Y5130600D01*
X9702800Y5130601D01*
X9586234Y5107414D01*
X9562024Y5091237D01*
X9487415Y5041385D01*
X9487413Y5041382D01*
X9017830Y4571800D01*
X8678856Y4571800D01*
X8681404Y4574344D01*
X8705184Y4631614D01*
X8749785Y4661415D01*
X10032169Y5943800D01*
X10820400Y5943800D01*
X10936966Y5966986D01*
X11035785Y6033015D01*
X11645382Y6642613D01*
X11645385Y6642615D01*
X11686706Y6704456D01*
X11711414Y6741434D01*
X11734601Y6858000D01*
X11734600Y6858005D01*
X11734600Y12065830D01*
X12563732Y12894962D01*
X12651544Y12806996D01*
X12847465Y12725643D01*
X13059605Y12725458D01*
X13255667Y12806469D01*
X13405804Y12956344D01*
X13487157Y13152265D01*
X13487317Y13335217D01*
X13669205Y13335058D01*
X13865267Y13416069D01*
X14015404Y13565944D01*
X14096757Y13761865D01*
X14096942Y13974005D01*
X14015931Y14170067D01*
X13866056Y14320204D01*
X13670135Y14401557D01*
X13457995Y14401742D01*
X13261933Y14320731D01*
X13113944Y14173000D01*
X12980226Y14173000D01*
X13285426Y14478200D01*
X13730857Y14478200D01*
X13914265Y14402043D01*
X14126405Y14401858D01*
X14311167Y14478200D01*
X14340457Y14478200D01*
X14523865Y14402043D01*
X14736005Y14401858D01*
X14932067Y14482869D01*
X14935400Y14486196D01*
X14935400Y13468089D01*
X14785933Y13406331D01*
X14635796Y13256456D01*
X14554443Y13060535D01*
X14554258Y12848395D01*
X14635269Y12652333D01*
X14785144Y12502196D01*
X14981065Y12420843D01*
X15193205Y12420658D01*
X15389267Y12501669D01*
X15539404Y12651544D01*
X15620757Y12847465D01*
X15620942Y13059605D01*
X15542662Y13249057D01*
X15544600Y13258800D01*
X15544600Y15773550D01*
X15650405Y15773458D01*
X15846467Y15854469D01*
X15908075Y15915969D01*
X15908075Y15515000D01*
X15908075Y15515000D01*
G37*
X15908075Y15515000D02*
X15924005Y15430342D01*
X15966511Y15364286D01*
X15926426Y15305621D01*
X15908075Y15215000D01*
X15908075Y14415000D01*
X15918531Y14359434D01*
X15861112Y14302015D01*
X15810850Y14180671D01*
X15810850Y13848387D01*
X15893387Y13765850D01*
X16840150Y13765850D01*
X16840150Y13785850D01*
X16941850Y13785850D01*
X16941850Y13765850D01*
X17888613Y13765850D01*
X17971150Y13848387D01*
X17971150Y14180671D01*
X17920888Y14302015D01*
X17862807Y14360096D01*
X17873925Y14415000D01*
X17873925Y14510400D01*
X18156058Y14510400D01*
X18557041Y14109418D01*
X18557043Y14109415D01*
X18647442Y14049012D01*
X17971150Y13372720D01*
X17971150Y13581613D01*
X17888613Y13664150D01*
X16941850Y13664150D01*
X16941850Y13644150D01*
X16840150Y13644150D01*
X16840150Y13664150D01*
X15893387Y13664150D01*
X15810850Y13581613D01*
X15810850Y13249329D01*
X15861112Y13127985D01*
X15919193Y13069904D01*
X15908075Y13015000D01*
X15908075Y12215000D01*
X15924005Y12130342D01*
X15966511Y12064286D01*
X15926426Y12005621D01*
X15908075Y11915000D01*
X15908075Y11829971D01*
X15374052Y11295948D01*
X15274987Y11147687D01*
X15242388Y10983800D01*
X15240200Y10972800D01*
X15240200Y9942896D01*
X14459652Y9162348D01*
X14360587Y9014087D01*
X14332769Y8874235D01*
X14325800Y8839200D01*
X14325800Y6248400D01*
X14360587Y6073513D01*
X14401877Y6011719D01*
X14401858Y5990395D01*
X14482869Y5794333D01*
X14486945Y5790250D01*
X14427200Y5790250D01*
X14310615Y5767060D01*
X14235865Y5717113D01*
X14211780Y5701020D01*
X13996210Y5485450D01*
X11099800Y5485450D01*
X10983215Y5462260D01*
X10884380Y5396220D01*
X10884239Y5396009D01*
X10618830Y5130600D01*
X9702805Y5130600D01*
X9702800Y5130601D01*
X9586234Y5107414D01*
X9562024Y5091237D01*
X9487415Y5041385D01*
X9487413Y5041382D01*
X9017830Y4571800D01*
X8678856Y4571800D01*
X8681404Y4574344D01*
X8705184Y4631614D01*
X8749785Y4661415D01*
X10032169Y5943800D01*
X10820400Y5943800D01*
X10936966Y5966986D01*
X11035785Y6033015D01*
X11645382Y6642613D01*
X11645385Y6642615D01*
X11686706Y6704456D01*
X11711414Y6741434D01*
X11734601Y6858000D01*
X11734600Y6858005D01*
X11734600Y12065830D01*
X12563732Y12894962D01*
X12651544Y12806996D01*
X12847465Y12725643D01*
X13059605Y12725458D01*
X13255667Y12806469D01*
X13405804Y12956344D01*
X13487157Y13152265D01*
X13487317Y13335217D01*
X13669205Y13335058D01*
X13865267Y13416069D01*
X14015404Y13565944D01*
X14096757Y13761865D01*
X14096942Y13974005D01*
X14015931Y14170067D01*
X13866056Y14320204D01*
X13670135Y14401557D01*
X13457995Y14401742D01*
X13261933Y14320731D01*
X13113944Y14173000D01*
X12980226Y14173000D01*
X13285426Y14478200D01*
X13730857Y14478200D01*
X13914265Y14402043D01*
X14126405Y14401858D01*
X14311167Y14478200D01*
X14340457Y14478200D01*
X14523865Y14402043D01*
X14736005Y14401858D01*
X14932067Y14482869D01*
X14935400Y14486196D01*
X14935400Y13468089D01*
X14785933Y13406331D01*
X14635796Y13256456D01*
X14554443Y13060535D01*
X14554258Y12848395D01*
X14635269Y12652333D01*
X14785144Y12502196D01*
X14981065Y12420843D01*
X15193205Y12420658D01*
X15389267Y12501669D01*
X15539404Y12651544D01*
X15620757Y12847465D01*
X15620942Y13059605D01*
X15542662Y13249057D01*
X15544600Y13258800D01*
X15544600Y15773550D01*
X15650405Y15773458D01*
X15846467Y15854469D01*
X15908075Y15915969D01*
X15908075Y15515000D01*
G36*
X22341101Y12724371D02*
X22144795Y12724542D01*
X21948733Y12643531D01*
X21798596Y12493656D01*
X21717243Y12297735D01*
X21717058Y12085595D01*
X21798069Y11889533D01*
X21947944Y11739396D01*
X21960509Y11734178D01*
X20663315Y10436985D01*
X20597286Y10338166D01*
X20591846Y10310815D01*
X20574100Y10221600D01*
X20574100Y6842569D01*
X20131380Y6399850D01*
X18237200Y6399850D01*
X18120615Y6376660D01*
X18027157Y6314213D01*
X18021780Y6310620D01*
X17780810Y6069650D01*
X17018000Y6069650D01*
X16901415Y6046460D01*
X16822530Y5993750D01*
X16802580Y5980420D01*
X16612410Y5790250D01*
X15383704Y5790250D01*
X15387004Y5793544D01*
X15468357Y5989465D01*
X15468542Y6201605D01*
X15387531Y6397667D01*
X15239800Y6545656D01*
X15239800Y7323144D01*
X15242344Y7320596D01*
X15438265Y7239243D01*
X15650405Y7239058D01*
X15846467Y7320069D01*
X15996604Y7469944D01*
X16050753Y7600350D01*
X16141000Y7582075D01*
X17641000Y7582075D01*
X17725658Y7598005D01*
X17803412Y7648038D01*
X17855574Y7724379D01*
X17873925Y7815000D01*
X17873925Y7910400D01*
X17968600Y7910400D01*
X18085166Y7933586D01*
X18183985Y7999615D01*
X18350982Y8166613D01*
X18350985Y8166615D01*
X18389282Y8223931D01*
X18417014Y8265434D01*
X18440201Y8382000D01*
X18440200Y8382005D01*
X18440200Y9044258D01*
X18655587Y9259645D01*
X18673861Y9286994D01*
X18721616Y9358465D01*
X18744802Y9475030D01*
X18744802Y10137288D01*
X18960189Y10352675D01*
X18998381Y10409834D01*
X19026218Y10451495D01*
X19049404Y10568060D01*
X19049404Y12297118D01*
X19541580Y12789294D01*
X22406025Y12789294D01*
X22341101Y12724371D01*
X22341101Y12724371D01*
G37*
X22341101Y12724371D02*
X22144795Y12724542D01*
X21948733Y12643531D01*
X21798596Y12493656D01*
X21717243Y12297735D01*
X21717058Y12085595D01*
X21798069Y11889533D01*
X21947944Y11739396D01*
X21960509Y11734178D01*
X20663315Y10436985D01*
X20597286Y10338166D01*
X20591846Y10310815D01*
X20574100Y10221600D01*
X20574100Y6842569D01*
X20131380Y6399850D01*
X18237200Y6399850D01*
X18120615Y6376660D01*
X18027157Y6314213D01*
X18021780Y6310620D01*
X17780810Y6069650D01*
X17018000Y6069650D01*
X16901415Y6046460D01*
X16822530Y5993750D01*
X16802580Y5980420D01*
X16612410Y5790250D01*
X15383704Y5790250D01*
X15387004Y5793544D01*
X15468357Y5989465D01*
X15468542Y6201605D01*
X15387531Y6397667D01*
X15239800Y6545656D01*
X15239800Y7323144D01*
X15242344Y7320596D01*
X15438265Y7239243D01*
X15650405Y7239058D01*
X15846467Y7320069D01*
X15996604Y7469944D01*
X16050753Y7600350D01*
X16141000Y7582075D01*
X17641000Y7582075D01*
X17725658Y7598005D01*
X17803412Y7648038D01*
X17855574Y7724379D01*
X17873925Y7815000D01*
X17873925Y7910400D01*
X17968600Y7910400D01*
X18085166Y7933586D01*
X18183985Y7999615D01*
X18350982Y8166613D01*
X18350985Y8166615D01*
X18389282Y8223931D01*
X18417014Y8265434D01*
X18440201Y8382000D01*
X18440200Y8382005D01*
X18440200Y9044258D01*
X18655587Y9259645D01*
X18673861Y9286994D01*
X18721616Y9358465D01*
X18744802Y9475030D01*
X18744802Y10137288D01*
X18960189Y10352675D01*
X18998381Y10409834D01*
X19026218Y10451495D01*
X19049404Y10568060D01*
X19049404Y12297118D01*
X19541580Y12789294D01*
X22406025Y12789294D01*
X22341101Y12724371D01*
G36*
X31485336Y6399850D02*
X29996590Y6399850D01*
X29700940Y6695500D01*
X29712604Y6707144D01*
X29793957Y6903065D01*
X29794142Y7115205D01*
X29737640Y7251950D01*
X29867167Y7305469D01*
X30015156Y7453200D01*
X30431986Y7453200D01*
X31485336Y6399850D01*
X31485336Y6399850D01*
G37*
X31485336Y6399850D02*
X29996590Y6399850D01*
X29700940Y6695500D01*
X29712604Y6707144D01*
X29793957Y6903065D01*
X29794142Y7115205D01*
X29737640Y7251950D01*
X29867167Y7305469D01*
X30015156Y7453200D01*
X30431986Y7453200D01*
X31485336Y6399850D01*
G36*
X11976615Y17615415D02*
X12075434Y17549386D01*
X12192000Y17526199D01*
X12192005Y17526200D01*
X14199430Y17526200D01*
X14415015Y17310615D01*
X14513835Y17244586D01*
X14630400Y17221400D01*
X15571030Y17221400D01*
X15939467Y16852964D01*
X15939469Y16852961D01*
X16038289Y16786932D01*
X16154854Y16763746D01*
X18976270Y16763746D01*
X20805816Y14934200D01*
X19024570Y14934200D01*
X17873925Y16084845D01*
X17873925Y16315000D01*
X17857995Y16399658D01*
X17807962Y16477412D01*
X17731621Y16529574D01*
X17641000Y16547925D01*
X16141000Y16547925D01*
X16056342Y16531995D01*
X16034528Y16517958D01*
X15997131Y16608467D01*
X15847256Y16758604D01*
X15651335Y16839957D01*
X15439195Y16840142D01*
X15243133Y16759131D01*
X15092996Y16609256D01*
X15011643Y16413335D01*
X15011458Y16201195D01*
X15012352Y16199032D01*
X14958586Y16118566D01*
X14948149Y16066095D01*
X14935400Y16002000D01*
X14935400Y15384456D01*
X14932856Y15387004D01*
X14736935Y15468357D01*
X14524795Y15468542D01*
X14340033Y15392200D01*
X14310743Y15392200D01*
X14127335Y15468357D01*
X13915195Y15468542D01*
X13730433Y15392200D01*
X13096130Y15392200D01*
X12921243Y15357413D01*
X12772982Y15258348D01*
X10345248Y12830614D01*
X10246183Y12682353D01*
X10224852Y12575113D01*
X10211396Y12507466D01*
X10211396Y7491796D01*
X10186604Y7467004D01*
X9590534Y7467004D01*
X9415647Y7432217D01*
X9267386Y7333152D01*
X8740434Y6806200D01*
X7617843Y6806200D01*
X7434435Y6882357D01*
X7222295Y6882542D01*
X7175300Y6863124D01*
X7175300Y6958800D01*
X7172323Y6973766D01*
X7140513Y7133687D01*
X7126372Y7154850D01*
X7557613Y7154850D01*
X7640150Y7237387D01*
X7640150Y8984150D01*
X7741850Y8984150D01*
X7741850Y7237387D01*
X7824387Y7154850D01*
X8506671Y7154850D01*
X8628015Y7205112D01*
X8720888Y7297985D01*
X8771150Y7419329D01*
X8771150Y8901613D01*
X8688613Y8984150D01*
X7741850Y8984150D01*
X7640150Y8984150D01*
X7620150Y8984150D01*
X7620150Y9085850D01*
X7640150Y9085850D01*
X7640150Y10832613D01*
X7741850Y10832613D01*
X7741850Y9085850D01*
X8688613Y9085850D01*
X8771150Y9168387D01*
X8771150Y10650671D01*
X8720888Y10772015D01*
X8628015Y10864888D01*
X8506671Y10915150D01*
X7824387Y10915150D01*
X7741850Y10832613D01*
X7640150Y10832613D01*
X7557613Y10915150D01*
X6875329Y10915150D01*
X6857700Y10907848D01*
X6857700Y11708704D01*
X7199596Y12050600D01*
X8839100Y12050600D01*
X9013987Y12085387D01*
X9162248Y12184452D01*
X10686245Y13708450D01*
X10686248Y13708452D01*
X10774905Y13841137D01*
X10866165Y13803243D01*
X11078305Y13803058D01*
X11274367Y13884069D01*
X11424504Y14033944D01*
X11505857Y14229865D01*
X11506042Y14442005D01*
X11425031Y14638067D01*
X11275156Y14788204D01*
X11079235Y14869557D01*
X10867095Y14869742D01*
X10820100Y14850324D01*
X10820100Y16927200D01*
X10796537Y17045661D01*
X10785313Y17102087D01*
X10686248Y17250348D01*
X9817707Y18118889D01*
X9962123Y18058922D01*
X10356148Y18058579D01*
X10720312Y18209048D01*
X10999173Y18487423D01*
X11030108Y18561922D01*
X11976615Y17615415D01*
X11976615Y17615415D01*
G37*
X11976615Y17615415D02*
X12075434Y17549386D01*
X12192000Y17526199D01*
X12192005Y17526200D01*
X14199430Y17526200D01*
X14415015Y17310615D01*
X14513835Y17244586D01*
X14630400Y17221400D01*
X15571030Y17221400D01*
X15939467Y16852964D01*
X15939469Y16852961D01*
X16038289Y16786932D01*
X16154854Y16763746D01*
X18976270Y16763746D01*
X20805816Y14934200D01*
X19024570Y14934200D01*
X17873925Y16084845D01*
X17873925Y16315000D01*
X17857995Y16399658D01*
X17807962Y16477412D01*
X17731621Y16529574D01*
X17641000Y16547925D01*
X16141000Y16547925D01*
X16056342Y16531995D01*
X16034528Y16517958D01*
X15997131Y16608467D01*
X15847256Y16758604D01*
X15651335Y16839957D01*
X15439195Y16840142D01*
X15243133Y16759131D01*
X15092996Y16609256D01*
X15011643Y16413335D01*
X15011458Y16201195D01*
X15012352Y16199032D01*
X14958586Y16118566D01*
X14948149Y16066095D01*
X14935400Y16002000D01*
X14935400Y15384456D01*
X14932856Y15387004D01*
X14736935Y15468357D01*
X14524795Y15468542D01*
X14340033Y15392200D01*
X14310743Y15392200D01*
X14127335Y15468357D01*
X13915195Y15468542D01*
X13730433Y15392200D01*
X13096130Y15392200D01*
X12921243Y15357413D01*
X12772982Y15258348D01*
X10345248Y12830614D01*
X10246183Y12682353D01*
X10224852Y12575113D01*
X10211396Y12507466D01*
X10211396Y7491796D01*
X10186604Y7467004D01*
X9590534Y7467004D01*
X9415647Y7432217D01*
X9267386Y7333152D01*
X8740434Y6806200D01*
X7617843Y6806200D01*
X7434435Y6882357D01*
X7222295Y6882542D01*
X7175300Y6863124D01*
X7175300Y6958800D01*
X7172323Y6973766D01*
X7140513Y7133687D01*
X7126372Y7154850D01*
X7557613Y7154850D01*
X7640150Y7237387D01*
X7640150Y8984150D01*
X7741850Y8984150D01*
X7741850Y7237387D01*
X7824387Y7154850D01*
X8506671Y7154850D01*
X8628015Y7205112D01*
X8720888Y7297985D01*
X8771150Y7419329D01*
X8771150Y8901613D01*
X8688613Y8984150D01*
X7741850Y8984150D01*
X7640150Y8984150D01*
X7620150Y8984150D01*
X7620150Y9085850D01*
X7640150Y9085850D01*
X7640150Y10832613D01*
X7741850Y10832613D01*
X7741850Y9085850D01*
X8688613Y9085850D01*
X8771150Y9168387D01*
X8771150Y10650671D01*
X8720888Y10772015D01*
X8628015Y10864888D01*
X8506671Y10915150D01*
X7824387Y10915150D01*
X7741850Y10832613D01*
X7640150Y10832613D01*
X7557613Y10915150D01*
X6875329Y10915150D01*
X6857700Y10907848D01*
X6857700Y11708704D01*
X7199596Y12050600D01*
X8839100Y12050600D01*
X9013987Y12085387D01*
X9162248Y12184452D01*
X10686245Y13708450D01*
X10686248Y13708452D01*
X10774905Y13841137D01*
X10866165Y13803243D01*
X11078305Y13803058D01*
X11274367Y13884069D01*
X11424504Y14033944D01*
X11505857Y14229865D01*
X11506042Y14442005D01*
X11425031Y14638067D01*
X11275156Y14788204D01*
X11079235Y14869557D01*
X10867095Y14869742D01*
X10820100Y14850324D01*
X10820100Y16927200D01*
X10796537Y17045661D01*
X10785313Y17102087D01*
X10686248Y17250348D01*
X9817707Y18118889D01*
X9962123Y18058922D01*
X10356148Y18058579D01*
X10720312Y18209048D01*
X10999173Y18487423D01*
X11030108Y18561922D01*
X11976615Y17615415D01*
G36*
X37061365Y15928885D02*
X36883833Y15855531D01*
X36733696Y15705656D01*
X36652343Y15509735D01*
X36652158Y15297595D01*
X36733169Y15101533D01*
X36883044Y14951396D01*
X37078965Y14870043D01*
X37291105Y14869858D01*
X37487167Y14950869D01*
X37637304Y15100744D01*
X37716284Y15290949D01*
X39366040Y17068348D01*
X40768378Y17068348D01*
X40323015Y16622985D01*
X40256986Y16524166D01*
X40245139Y16464604D01*
X40233800Y16407600D01*
X40233800Y14546078D01*
X40129656Y14650404D01*
X39933735Y14731757D01*
X39721595Y14731942D01*
X39525533Y14650931D01*
X39375396Y14501056D01*
X39294043Y14305135D01*
X39293858Y14092995D01*
X39374869Y13896933D01*
X39524744Y13746796D01*
X39720665Y13665443D01*
X39929148Y13665261D01*
X39929148Y8275904D01*
X39881844Y8228600D01*
X36674603Y8228600D01*
X36423300Y8479904D01*
X36423300Y8686100D01*
X36408211Y8761957D01*
X36400114Y8802666D01*
X36334085Y8901485D01*
X36029385Y9206185D01*
X35930566Y9272214D01*
X35814000Y9295400D01*
X35345100Y9295400D01*
X35228535Y9272214D01*
X35129715Y9206185D01*
X35129713Y9206182D01*
X34836515Y8912985D01*
X34770486Y8814166D01*
X34752121Y8721835D01*
X34747300Y8697600D01*
X34747300Y8214169D01*
X34468530Y7935400D01*
X33806470Y7935400D01*
X33133685Y8608185D01*
X33034866Y8674214D01*
X32918300Y8697400D01*
X32003700Y8697400D01*
X32003700Y9002395D01*
X32003701Y9002400D01*
X31980514Y9118966D01*
X31940944Y9178186D01*
X31914485Y9217785D01*
X31914482Y9217787D01*
X31459193Y9673077D01*
X31541404Y9755144D01*
X31622757Y9951065D01*
X31622942Y10163205D01*
X31541931Y10359267D01*
X31392056Y10509404D01*
X31201429Y10588559D01*
X31304885Y10692015D01*
X31370914Y10790834D01*
X31394100Y10907400D01*
X31394100Y10991397D01*
X31541304Y11138344D01*
X31622657Y11334265D01*
X31622842Y11546405D01*
X31541831Y11742467D01*
X31391956Y11892604D01*
X31379171Y11897913D01*
X31391167Y11902869D01*
X31541304Y12052744D01*
X31622657Y12248665D01*
X31622842Y12460805D01*
X31541831Y12656867D01*
X31399130Y12799818D01*
X31541304Y12941744D01*
X31622657Y13137665D01*
X31622842Y13349805D01*
X31541831Y13545867D01*
X31449930Y13637929D01*
X31541304Y13729144D01*
X31622657Y13925065D01*
X31622834Y14128043D01*
X31979026Y14477400D01*
X32918400Y14477400D01*
X33034966Y14500586D01*
X33133785Y14566615D01*
X33590982Y15023813D01*
X33590985Y15023815D01*
X33657014Y15122635D01*
X33680200Y15239200D01*
X33680200Y15391349D01*
X33680250Y15391600D01*
X33680250Y15824210D01*
X35228990Y17372950D01*
X37185600Y17372950D01*
X37302185Y17396140D01*
X37401020Y17462180D01*
X37616590Y17677750D01*
X38684637Y17677750D01*
X37061365Y15928885D01*
X37061365Y15928885D01*
G37*
X37061365Y15928885D02*
X36883833Y15855531D01*
X36733696Y15705656D01*
X36652343Y15509735D01*
X36652158Y15297595D01*
X36733169Y15101533D01*
X36883044Y14951396D01*
X37078965Y14870043D01*
X37291105Y14869858D01*
X37487167Y14950869D01*
X37637304Y15100744D01*
X37716284Y15290949D01*
X39366040Y17068348D01*
X40768378Y17068348D01*
X40323015Y16622985D01*
X40256986Y16524166D01*
X40245139Y16464604D01*
X40233800Y16407600D01*
X40233800Y14546078D01*
X40129656Y14650404D01*
X39933735Y14731757D01*
X39721595Y14731942D01*
X39525533Y14650931D01*
X39375396Y14501056D01*
X39294043Y14305135D01*
X39293858Y14092995D01*
X39374869Y13896933D01*
X39524744Y13746796D01*
X39720665Y13665443D01*
X39929148Y13665261D01*
X39929148Y8275904D01*
X39881844Y8228600D01*
X36674603Y8228600D01*
X36423300Y8479904D01*
X36423300Y8686100D01*
X36408211Y8761957D01*
X36400114Y8802666D01*
X36334085Y8901485D01*
X36029385Y9206185D01*
X35930566Y9272214D01*
X35814000Y9295400D01*
X35345100Y9295400D01*
X35228535Y9272214D01*
X35129715Y9206185D01*
X35129713Y9206182D01*
X34836515Y8912985D01*
X34770486Y8814166D01*
X34752121Y8721835D01*
X34747300Y8697600D01*
X34747300Y8214169D01*
X34468530Y7935400D01*
X33806470Y7935400D01*
X33133685Y8608185D01*
X33034866Y8674214D01*
X32918300Y8697400D01*
X32003700Y8697400D01*
X32003700Y9002395D01*
X32003701Y9002400D01*
X31980514Y9118966D01*
X31940944Y9178186D01*
X31914485Y9217785D01*
X31914482Y9217787D01*
X31459193Y9673077D01*
X31541404Y9755144D01*
X31622757Y9951065D01*
X31622942Y10163205D01*
X31541931Y10359267D01*
X31392056Y10509404D01*
X31201429Y10588559D01*
X31304885Y10692015D01*
X31370914Y10790834D01*
X31394100Y10907400D01*
X31394100Y10991397D01*
X31541304Y11138344D01*
X31622657Y11334265D01*
X31622842Y11546405D01*
X31541831Y11742467D01*
X31391956Y11892604D01*
X31379171Y11897913D01*
X31391167Y11902869D01*
X31541304Y12052744D01*
X31622657Y12248665D01*
X31622842Y12460805D01*
X31541831Y12656867D01*
X31399130Y12799818D01*
X31541304Y12941744D01*
X31622657Y13137665D01*
X31622842Y13349805D01*
X31541831Y13545867D01*
X31449930Y13637929D01*
X31541304Y13729144D01*
X31622657Y13925065D01*
X31622834Y14128043D01*
X31979026Y14477400D01*
X32918400Y14477400D01*
X33034966Y14500586D01*
X33133785Y14566615D01*
X33590982Y15023813D01*
X33590985Y15023815D01*
X33657014Y15122635D01*
X33680200Y15239200D01*
X33680200Y15391349D01*
X33680250Y15391600D01*
X33680250Y15824210D01*
X35228990Y17372950D01*
X37185600Y17372950D01*
X37302185Y17396140D01*
X37401020Y17462180D01*
X37616590Y17677750D01*
X38684637Y17677750D01*
X37061365Y15928885D01*
G36*
X29288861Y13852070D02*
X29244466Y13745156D01*
X29244214Y13455714D01*
X29354745Y13188209D01*
X29559232Y12983364D01*
X29602556Y12965374D01*
X29559805Y12947710D01*
X29354710Y12742972D01*
X29243577Y12475333D01*
X29243324Y12185538D01*
X29353990Y11917705D01*
X29558728Y11712610D01*
X29601393Y11694894D01*
X29559805Y11677710D01*
X29354710Y11472972D01*
X29243577Y11205333D01*
X29243324Y10915538D01*
X29353990Y10647705D01*
X29558728Y10442610D01*
X29601393Y10424894D01*
X29559805Y10407710D01*
X29354710Y10202972D01*
X29243577Y9935333D01*
X29243324Y9645538D01*
X29353990Y9377705D01*
X29512614Y9218804D01*
X28103465Y9218804D01*
X27584100Y9738170D01*
X27584100Y10400230D01*
X27647285Y10463415D01*
X27711448Y10559441D01*
X27739044Y10531796D01*
X27934965Y10450443D01*
X28147105Y10450258D01*
X28343167Y10531269D01*
X28493304Y10681144D01*
X28574657Y10877065D01*
X28574842Y11089205D01*
X28493831Y11285267D01*
X28343956Y11435404D01*
X28148035Y11516757D01*
X28041300Y11516850D01*
X28041300Y13586309D01*
X28041301Y13586314D01*
X28028481Y13650761D01*
X28147105Y13650658D01*
X28343167Y13731669D01*
X28491156Y13879400D01*
X29261530Y13879400D01*
X29288861Y13852070D01*
X29288861Y13852070D01*
G37*
X29288861Y13852070D02*
X29244466Y13745156D01*
X29244214Y13455714D01*
X29354745Y13188209D01*
X29559232Y12983364D01*
X29602556Y12965374D01*
X29559805Y12947710D01*
X29354710Y12742972D01*
X29243577Y12475333D01*
X29243324Y12185538D01*
X29353990Y11917705D01*
X29558728Y11712610D01*
X29601393Y11694894D01*
X29559805Y11677710D01*
X29354710Y11472972D01*
X29243577Y11205333D01*
X29243324Y10915538D01*
X29353990Y10647705D01*
X29558728Y10442610D01*
X29601393Y10424894D01*
X29559805Y10407710D01*
X29354710Y10202972D01*
X29243577Y9935333D01*
X29243324Y9645538D01*
X29353990Y9377705D01*
X29512614Y9218804D01*
X28103465Y9218804D01*
X27584100Y9738170D01*
X27584100Y10400230D01*
X27647285Y10463415D01*
X27711448Y10559441D01*
X27739044Y10531796D01*
X27934965Y10450443D01*
X28147105Y10450258D01*
X28343167Y10531269D01*
X28493304Y10681144D01*
X28574657Y10877065D01*
X28574842Y11089205D01*
X28493831Y11285267D01*
X28343956Y11435404D01*
X28148035Y11516757D01*
X28041300Y11516850D01*
X28041300Y13586309D01*
X28041301Y13586314D01*
X28028481Y13650761D01*
X28147105Y13650658D01*
X28343167Y13731669D01*
X28491156Y13879400D01*
X29261530Y13879400D01*
X29288861Y13852070D01*
G36*
X53036550Y11176349D02*
X52986021Y11210874D01*
X52895400Y11229225D01*
X52006400Y11229225D01*
X51921742Y11213295D01*
X51843988Y11163262D01*
X51825224Y11135800D01*
X51720329Y11135800D01*
X51739457Y11181865D01*
X51739642Y11394005D01*
X51663300Y11578767D01*
X51663300Y11608057D01*
X51739457Y11791465D01*
X51739642Y12003605D01*
X51658631Y12199667D01*
X51508756Y12349804D01*
X51312835Y12431157D01*
X51100695Y12431342D01*
X50939550Y12364758D01*
X50939550Y12458971D01*
X50889288Y12580315D01*
X50796415Y12673188D01*
X50675071Y12723450D01*
X50425287Y12723450D01*
X50342750Y12640913D01*
X50342750Y11999650D01*
X50362750Y11999650D01*
X50362750Y11897950D01*
X50342750Y11897950D01*
X50342750Y11877950D01*
X50241050Y11877950D01*
X50241050Y11897950D01*
X49726787Y11897950D01*
X49644250Y11815413D01*
X49644250Y11438629D01*
X49678270Y11356497D01*
X49575885Y11314088D01*
X49487413Y11225616D01*
X49478900Y11231433D01*
X49478900Y11322595D01*
X49501812Y11337338D01*
X49553974Y11413679D01*
X49572325Y11504300D01*
X49572325Y12393300D01*
X49559968Y12458971D01*
X49644250Y12458971D01*
X49644250Y12082187D01*
X49726787Y11999650D01*
X50241050Y11999650D01*
X50241050Y12640913D01*
X50158513Y12723450D01*
X49908729Y12723450D01*
X49787385Y12673188D01*
X49694512Y12580315D01*
X49644250Y12458971D01*
X49559968Y12458971D01*
X49556395Y12477958D01*
X49506362Y12555712D01*
X49478900Y12574476D01*
X49478900Y12982695D01*
X49877980Y12982695D01*
X49962638Y12998625D01*
X50040392Y13048658D01*
X50092554Y13124999D01*
X50109402Y13208200D01*
X50546000Y13208200D01*
X50720887Y13242987D01*
X50869148Y13342052D01*
X51243295Y13716200D01*
X51968400Y13716200D01*
X52143287Y13750987D01*
X52291548Y13850052D01*
X52916148Y14474652D01*
X52930462Y14496075D01*
X52943000Y14496075D01*
X53027658Y14512005D01*
X53036550Y14517727D01*
X53036550Y11176349D01*
X53036550Y11176349D01*
G37*
X53036550Y11176349D02*
X52986021Y11210874D01*
X52895400Y11229225D01*
X52006400Y11229225D01*
X51921742Y11213295D01*
X51843988Y11163262D01*
X51825224Y11135800D01*
X51720329Y11135800D01*
X51739457Y11181865D01*
X51739642Y11394005D01*
X51663300Y11578767D01*
X51663300Y11608057D01*
X51739457Y11791465D01*
X51739642Y12003605D01*
X51658631Y12199667D01*
X51508756Y12349804D01*
X51312835Y12431157D01*
X51100695Y12431342D01*
X50939550Y12364758D01*
X50939550Y12458971D01*
X50889288Y12580315D01*
X50796415Y12673188D01*
X50675071Y12723450D01*
X50425287Y12723450D01*
X50342750Y12640913D01*
X50342750Y11999650D01*
X50362750Y11999650D01*
X50362750Y11897950D01*
X50342750Y11897950D01*
X50342750Y11877950D01*
X50241050Y11877950D01*
X50241050Y11897950D01*
X49726787Y11897950D01*
X49644250Y11815413D01*
X49644250Y11438629D01*
X49678270Y11356497D01*
X49575885Y11314088D01*
X49487413Y11225616D01*
X49478900Y11231433D01*
X49478900Y11322595D01*
X49501812Y11337338D01*
X49553974Y11413679D01*
X49572325Y11504300D01*
X49572325Y12393300D01*
X49559968Y12458971D01*
X49644250Y12458971D01*
X49644250Y12082187D01*
X49726787Y11999650D01*
X50241050Y11999650D01*
X50241050Y12640913D01*
X50158513Y12723450D01*
X49908729Y12723450D01*
X49787385Y12673188D01*
X49694512Y12580315D01*
X49644250Y12458971D01*
X49559968Y12458971D01*
X49556395Y12477958D01*
X49506362Y12555712D01*
X49478900Y12574476D01*
X49478900Y12982695D01*
X49877980Y12982695D01*
X49962638Y12998625D01*
X50040392Y13048658D01*
X50092554Y13124999D01*
X50109402Y13208200D01*
X50546000Y13208200D01*
X50720887Y13242987D01*
X50869148Y13342052D01*
X51243295Y13716200D01*
X51968400Y13716200D01*
X52143287Y13750987D01*
X52291548Y13850052D01*
X52916148Y14474652D01*
X52930462Y14496075D01*
X52943000Y14496075D01*
X53027658Y14512005D01*
X53036550Y14517727D01*
X53036550Y11176349D01*
G36*
X53036550Y15841573D02*
X53033621Y15843574D01*
X52943000Y15861925D01*
X52243000Y15861925D01*
X52158342Y15845995D01*
X52080588Y15795962D01*
X52028426Y15719621D01*
X52010075Y15629000D01*
X52010075Y14861171D01*
X51875422Y14726518D01*
X51875925Y14729000D01*
X51875925Y15629000D01*
X51859995Y15713658D01*
X51809962Y15791412D01*
X51733621Y15843574D01*
X51643000Y15861925D01*
X51002170Y15861925D01*
X50110905Y16753191D01*
X50110905Y17024795D01*
X50672958Y17024795D01*
X50749300Y16840033D01*
X50749300Y16810743D01*
X50673143Y16627335D01*
X50672958Y16415195D01*
X50753969Y16219133D01*
X50903844Y16068996D01*
X51099765Y15987643D01*
X51311905Y15987458D01*
X51507967Y16068469D01*
X51658104Y16218344D01*
X51731904Y16396075D01*
X52293000Y16396075D01*
X52377658Y16412005D01*
X52455412Y16462038D01*
X52507574Y16538379D01*
X52525925Y16629000D01*
X52525925Y17529000D01*
X52509995Y17613658D01*
X52459962Y17691412D01*
X52383621Y17743574D01*
X52293000Y17761925D01*
X51593000Y17761925D01*
X51508342Y17745995D01*
X51430588Y17695962D01*
X51387315Y17632630D01*
X51312835Y17663557D01*
X51100695Y17663742D01*
X50904633Y17582731D01*
X50754496Y17432856D01*
X50673143Y17236935D01*
X50672958Y17024795D01*
X50110905Y17024795D01*
X50110905Y17264380D01*
X50094975Y17349038D01*
X50044942Y17426792D01*
X49968601Y17478954D01*
X49877980Y17497305D01*
X49366791Y17497305D01*
X49015600Y17848496D01*
X48867339Y17947561D01*
X48692452Y17982348D01*
X47623988Y17982348D01*
X47806646Y18165006D01*
X48062123Y18058922D01*
X48456148Y18058579D01*
X48820312Y18209048D01*
X49099173Y18487423D01*
X49250278Y18851323D01*
X49250621Y19245348D01*
X49100152Y19609512D01*
X48821777Y19888373D01*
X48457877Y20039478D01*
X48063852Y20039821D01*
X47699688Y19889352D01*
X47420827Y19610977D01*
X47269722Y19247077D01*
X47269379Y18853052D01*
X47375698Y18595738D01*
X47067010Y18287050D01*
X46358450Y18287050D01*
X46559173Y18487423D01*
X46710278Y18851323D01*
X46710621Y19245348D01*
X46560152Y19609512D01*
X46281777Y19888373D01*
X45917877Y20039478D01*
X45523852Y20039821D01*
X45159688Y19889352D01*
X44880827Y19610977D01*
X44729722Y19247077D01*
X44729379Y18853052D01*
X44835698Y18595738D01*
X44527010Y18287050D01*
X43818450Y18287050D01*
X44019173Y18487423D01*
X44170278Y18851323D01*
X44170621Y19245348D01*
X44020152Y19609512D01*
X43741777Y19888373D01*
X43377877Y20039478D01*
X42983852Y20039821D01*
X42619688Y19889352D01*
X42367000Y19637104D01*
X42367000Y19775104D01*
X42861196Y20269300D01*
X51485104Y20269300D01*
X51816100Y19938304D01*
X51816100Y19807943D01*
X51794925Y19756947D01*
X51794925Y19811200D01*
X51778995Y19895858D01*
X51728962Y19973612D01*
X51652621Y20025774D01*
X51562000Y20044125D01*
X50038000Y20044125D01*
X49953342Y20028195D01*
X49875588Y19978162D01*
X49823426Y19901821D01*
X49805075Y19811200D01*
X49805075Y18287200D01*
X49821005Y18202542D01*
X49871038Y18124788D01*
X49947379Y18072626D01*
X50038000Y18054275D01*
X51562000Y18054275D01*
X51646658Y18070205D01*
X51724412Y18120238D01*
X51776574Y18196579D01*
X51794925Y18287200D01*
X51794925Y18669280D01*
X51820769Y18606733D01*
X51970644Y18456596D01*
X52166565Y18375243D01*
X52378705Y18375058D01*
X52574767Y18456069D01*
X52724904Y18605944D01*
X52806257Y18801865D01*
X52806442Y19014005D01*
X52730100Y19198767D01*
X52730100Y19228057D01*
X52806257Y19411465D01*
X52806442Y19623605D01*
X52730100Y19808367D01*
X52730100Y20127595D01*
X52730101Y20127600D01*
X52695313Y20302486D01*
X52596248Y20450748D01*
X51997548Y21049448D01*
X51849287Y21148513D01*
X51674400Y21183300D01*
X42671900Y21183300D01*
X42497013Y21148513D01*
X42348752Y21049448D01*
X41586852Y20287548D01*
X41487787Y20139287D01*
X41476339Y20081735D01*
X41453000Y19964400D01*
X41453000Y19636711D01*
X41201777Y19888373D01*
X40837877Y20039478D01*
X40443852Y20039821D01*
X40079688Y19889352D01*
X39966209Y19776070D01*
X40004657Y19868665D01*
X40004842Y20080805D01*
X39923831Y20276867D01*
X39773956Y20427004D01*
X39584304Y20505754D01*
X39030455Y21051825D01*
X38957268Y21099982D01*
X38884486Y21148613D01*
X38882872Y21148934D01*
X38881497Y21149839D01*
X38795461Y21166321D01*
X38709600Y21183400D01*
X9601200Y21183400D01*
X9426314Y21148613D01*
X9278052Y21049548D01*
X8516052Y20287548D01*
X8416987Y20139287D01*
X8405539Y20081735D01*
X8382200Y19964400D01*
X8382200Y19687600D01*
X8181777Y19888373D01*
X7817877Y20039478D01*
X7423852Y20039821D01*
X7059688Y19889352D01*
X6780827Y19610977D01*
X6629722Y19247077D01*
X6629379Y18853052D01*
X6779848Y18488888D01*
X7058223Y18210027D01*
X7422123Y18058922D01*
X7816148Y18058579D01*
X8180312Y18209048D01*
X8388924Y18417296D01*
X8416987Y18276213D01*
X8516052Y18127952D01*
X9906100Y16737904D01*
X9906100Y14626343D01*
X9829943Y14442935D01*
X9829758Y14230795D01*
X9854974Y14169769D01*
X8649804Y12964600D01*
X7010305Y12964600D01*
X7010300Y12964601D01*
X6835414Y12929813D01*
X6687152Y12830748D01*
X6108500Y12252096D01*
X6108500Y12560704D01*
X6531629Y12983833D01*
X6715167Y13059669D01*
X6865304Y13209544D01*
X6868655Y13217614D01*
X6875329Y13214850D01*
X7557613Y13214850D01*
X7640150Y13297387D01*
X7640150Y15044150D01*
X7741850Y15044150D01*
X7741850Y13297387D01*
X7824387Y13214850D01*
X8506671Y13214850D01*
X8628015Y13265112D01*
X8720888Y13357985D01*
X8771150Y13479329D01*
X8771150Y14961613D01*
X8688613Y15044150D01*
X7741850Y15044150D01*
X7640150Y15044150D01*
X6693387Y15044150D01*
X6610850Y14961613D01*
X6610850Y14617048D01*
X6520035Y14654757D01*
X6307895Y14654942D01*
X6111833Y14573931D01*
X5961696Y14424056D01*
X5880343Y14228135D01*
X5880158Y14015995D01*
X5956500Y13831233D01*
X5956500Y13801943D01*
X5885032Y13629828D01*
X5352970Y13097766D01*
X5352970Y14667700D01*
X5347139Y14697014D01*
X5347139Y14726900D01*
X5303636Y14945604D01*
X5277383Y15008985D01*
X5258327Y15054991D01*
X5134442Y15240399D01*
X5126931Y15247910D01*
X5550370Y15247910D01*
X5940721Y15345785D01*
X6263903Y15585591D01*
X6470714Y15930819D01*
X6507792Y16066882D01*
X6445768Y16227210D01*
X5100370Y16227210D01*
X5100370Y16207210D01*
X4998670Y16207210D01*
X4998670Y16227210D01*
X3653272Y16227210D01*
X3591248Y16066882D01*
X3628326Y15930819D01*
X3835137Y15585591D01*
X3893008Y15542650D01*
X2906572Y15542650D01*
X2964443Y15585591D01*
X3171254Y15930819D01*
X3208332Y16066882D01*
X3146308Y16227210D01*
X1800910Y16227210D01*
X1800910Y16207210D01*
X1699210Y16207210D01*
X1699210Y16227210D01*
X1679210Y16227210D01*
X1679210Y16328910D01*
X1699210Y16328910D01*
X1699210Y17308210D01*
X1800910Y17308210D01*
X1800910Y16328910D01*
X3146308Y16328910D01*
X3208332Y16489238D01*
X3591248Y16489238D01*
X3653272Y16328910D01*
X4998670Y16328910D01*
X4998670Y17308210D01*
X5100370Y17308210D01*
X5100370Y16328910D01*
X6445768Y16328910D01*
X6507792Y16489238D01*
X6470714Y16625301D01*
X6419573Y16710671D01*
X6610850Y16710671D01*
X6610850Y15228387D01*
X6693387Y15145850D01*
X7640150Y15145850D01*
X7640150Y16892613D01*
X7741850Y16892613D01*
X7741850Y15145850D01*
X8688613Y15145850D01*
X8771150Y15228387D01*
X8771150Y16710671D01*
X8720888Y16832015D01*
X8628015Y16924888D01*
X8506671Y16975150D01*
X7824387Y16975150D01*
X7741850Y16892613D01*
X7640150Y16892613D01*
X7557613Y16975150D01*
X6875329Y16975150D01*
X6753985Y16924888D01*
X6661112Y16832015D01*
X6610850Y16710671D01*
X6419573Y16710671D01*
X6263903Y16970529D01*
X5940721Y17210335D01*
X5550370Y17308210D01*
X5100370Y17308210D01*
X4998670Y17308210D01*
X4548670Y17308210D01*
X4158319Y17210335D01*
X3835137Y16970529D01*
X3628326Y16625301D01*
X3591248Y16489238D01*
X3208332Y16489238D01*
X3171254Y16625301D01*
X2964443Y16970529D01*
X2641261Y17210335D01*
X2250910Y17308210D01*
X1800910Y17308210D01*
X1699210Y17308210D01*
X1249210Y17308210D01*
X858859Y17210335D01*
X535677Y16970529D01*
X328866Y16625301D01*
X303450Y16532033D01*
X303450Y18285098D01*
X1847810Y18285098D01*
X1927296Y18119374D01*
X2329764Y17955681D01*
X2764240Y17958466D01*
X3152704Y18119374D01*
X3232190Y18285098D01*
X4387810Y18285098D01*
X4467296Y18119374D01*
X4869764Y17955681D01*
X5304240Y17958466D01*
X5692704Y18119374D01*
X5772190Y18285098D01*
X5080000Y18977287D01*
X4387810Y18285098D01*
X3232190Y18285098D01*
X2540000Y18977287D01*
X1847810Y18285098D01*
X303450Y18285098D01*
X303450Y19259436D01*
X1446481Y19259436D01*
X1449266Y18824960D01*
X1610174Y18436496D01*
X1775898Y18357010D01*
X2468087Y19049200D01*
X2611913Y19049200D01*
X3304102Y18357010D01*
X3469826Y18436496D01*
X3633519Y18838964D01*
X3630824Y19259436D01*
X3986481Y19259436D01*
X3989266Y18824960D01*
X4150174Y18436496D01*
X4315898Y18357010D01*
X5008087Y19049200D01*
X5151913Y19049200D01*
X5844102Y18357010D01*
X6009826Y18436496D01*
X6173519Y18838964D01*
X6170734Y19273440D01*
X6009826Y19661904D01*
X5844102Y19741390D01*
X5151913Y19049200D01*
X5008087Y19049200D01*
X4315898Y19741390D01*
X4150174Y19661904D01*
X3986481Y19259436D01*
X3630824Y19259436D01*
X3630734Y19273440D01*
X3469826Y19661904D01*
X3304102Y19741390D01*
X2611913Y19049200D01*
X2468087Y19049200D01*
X1775898Y19741390D01*
X1610174Y19661904D01*
X1446481Y19259436D01*
X303450Y19259436D01*
X303450Y19813302D01*
X1847810Y19813302D01*
X2540000Y19121113D01*
X3232190Y19813302D01*
X4387810Y19813302D01*
X5080000Y19121113D01*
X5772190Y19813302D01*
X5692704Y19979026D01*
X5290236Y20142719D01*
X4855760Y20139934D01*
X4467296Y19979026D01*
X4387810Y19813302D01*
X3232190Y19813302D01*
X3152704Y19979026D01*
X2750236Y20142719D01*
X2315760Y20139934D01*
X1927296Y19979026D01*
X1847810Y19813302D01*
X303450Y19813302D01*
X303450Y22555750D01*
X53036550Y22555750D01*
X53036550Y15841573D01*
X53036550Y15841573D01*
G37*
X53036550Y15841573D02*
X53033621Y15843574D01*
X52943000Y15861925D01*
X52243000Y15861925D01*
X52158342Y15845995D01*
X52080588Y15795962D01*
X52028426Y15719621D01*
X52010075Y15629000D01*
X52010075Y14861171D01*
X51875422Y14726518D01*
X51875925Y14729000D01*
X51875925Y15629000D01*
X51859995Y15713658D01*
X51809962Y15791412D01*
X51733621Y15843574D01*
X51643000Y15861925D01*
X51002170Y15861925D01*
X50110905Y16753191D01*
X50110905Y17024795D01*
X50672958Y17024795D01*
X50749300Y16840033D01*
X50749300Y16810743D01*
X50673143Y16627335D01*
X50672958Y16415195D01*
X50753969Y16219133D01*
X50903844Y16068996D01*
X51099765Y15987643D01*
X51311905Y15987458D01*
X51507967Y16068469D01*
X51658104Y16218344D01*
X51731904Y16396075D01*
X52293000Y16396075D01*
X52377658Y16412005D01*
X52455412Y16462038D01*
X52507574Y16538379D01*
X52525925Y16629000D01*
X52525925Y17529000D01*
X52509995Y17613658D01*
X52459962Y17691412D01*
X52383621Y17743574D01*
X52293000Y17761925D01*
X51593000Y17761925D01*
X51508342Y17745995D01*
X51430588Y17695962D01*
X51387315Y17632630D01*
X51312835Y17663557D01*
X51100695Y17663742D01*
X50904633Y17582731D01*
X50754496Y17432856D01*
X50673143Y17236935D01*
X50672958Y17024795D01*
X50110905Y17024795D01*
X50110905Y17264380D01*
X50094975Y17349038D01*
X50044942Y17426792D01*
X49968601Y17478954D01*
X49877980Y17497305D01*
X49366791Y17497305D01*
X49015600Y17848496D01*
X48867339Y17947561D01*
X48692452Y17982348D01*
X47623988Y17982348D01*
X47806646Y18165006D01*
X48062123Y18058922D01*
X48456148Y18058579D01*
X48820312Y18209048D01*
X49099173Y18487423D01*
X49250278Y18851323D01*
X49250621Y19245348D01*
X49100152Y19609512D01*
X48821777Y19888373D01*
X48457877Y20039478D01*
X48063852Y20039821D01*
X47699688Y19889352D01*
X47420827Y19610977D01*
X47269722Y19247077D01*
X47269379Y18853052D01*
X47375698Y18595738D01*
X47067010Y18287050D01*
X46358450Y18287050D01*
X46559173Y18487423D01*
X46710278Y18851323D01*
X46710621Y19245348D01*
X46560152Y19609512D01*
X46281777Y19888373D01*
X45917877Y20039478D01*
X45523852Y20039821D01*
X45159688Y19889352D01*
X44880827Y19610977D01*
X44729722Y19247077D01*
X44729379Y18853052D01*
X44835698Y18595738D01*
X44527010Y18287050D01*
X43818450Y18287050D01*
X44019173Y18487423D01*
X44170278Y18851323D01*
X44170621Y19245348D01*
X44020152Y19609512D01*
X43741777Y19888373D01*
X43377877Y20039478D01*
X42983852Y20039821D01*
X42619688Y19889352D01*
X42367000Y19637104D01*
X42367000Y19775104D01*
X42861196Y20269300D01*
X51485104Y20269300D01*
X51816100Y19938304D01*
X51816100Y19807943D01*
X51794925Y19756947D01*
X51794925Y19811200D01*
X51778995Y19895858D01*
X51728962Y19973612D01*
X51652621Y20025774D01*
X51562000Y20044125D01*
X50038000Y20044125D01*
X49953342Y20028195D01*
X49875588Y19978162D01*
X49823426Y19901821D01*
X49805075Y19811200D01*
X49805075Y18287200D01*
X49821005Y18202542D01*
X49871038Y18124788D01*
X49947379Y18072626D01*
X50038000Y18054275D01*
X51562000Y18054275D01*
X51646658Y18070205D01*
X51724412Y18120238D01*
X51776574Y18196579D01*
X51794925Y18287200D01*
X51794925Y18669280D01*
X51820769Y18606733D01*
X51970644Y18456596D01*
X52166565Y18375243D01*
X52378705Y18375058D01*
X52574767Y18456069D01*
X52724904Y18605944D01*
X52806257Y18801865D01*
X52806442Y19014005D01*
X52730100Y19198767D01*
X52730100Y19228057D01*
X52806257Y19411465D01*
X52806442Y19623605D01*
X52730100Y19808367D01*
X52730100Y20127595D01*
X52730101Y20127600D01*
X52695313Y20302486D01*
X52596248Y20450748D01*
X51997548Y21049448D01*
X51849287Y21148513D01*
X51674400Y21183300D01*
X42671900Y21183300D01*
X42497013Y21148513D01*
X42348752Y21049448D01*
X41586852Y20287548D01*
X41487787Y20139287D01*
X41476339Y20081735D01*
X41453000Y19964400D01*
X41453000Y19636711D01*
X41201777Y19888373D01*
X40837877Y20039478D01*
X40443852Y20039821D01*
X40079688Y19889352D01*
X39966209Y19776070D01*
X40004657Y19868665D01*
X40004842Y20080805D01*
X39923831Y20276867D01*
X39773956Y20427004D01*
X39584304Y20505754D01*
X39030455Y21051825D01*
X38957268Y21099982D01*
X38884486Y21148613D01*
X38882872Y21148934D01*
X38881497Y21149839D01*
X38795461Y21166321D01*
X38709600Y21183400D01*
X9601200Y21183400D01*
X9426314Y21148613D01*
X9278052Y21049548D01*
X8516052Y20287548D01*
X8416987Y20139287D01*
X8405539Y20081735D01*
X8382200Y19964400D01*
X8382200Y19687600D01*
X8181777Y19888373D01*
X7817877Y20039478D01*
X7423852Y20039821D01*
X7059688Y19889352D01*
X6780827Y19610977D01*
X6629722Y19247077D01*
X6629379Y18853052D01*
X6779848Y18488888D01*
X7058223Y18210027D01*
X7422123Y18058922D01*
X7816148Y18058579D01*
X8180312Y18209048D01*
X8388924Y18417296D01*
X8416987Y18276213D01*
X8516052Y18127952D01*
X9906100Y16737904D01*
X9906100Y14626343D01*
X9829943Y14442935D01*
X9829758Y14230795D01*
X9854974Y14169769D01*
X8649804Y12964600D01*
X7010305Y12964600D01*
X7010300Y12964601D01*
X6835414Y12929813D01*
X6687152Y12830748D01*
X6108500Y12252096D01*
X6108500Y12560704D01*
X6531629Y12983833D01*
X6715167Y13059669D01*
X6865304Y13209544D01*
X6868655Y13217614D01*
X6875329Y13214850D01*
X7557613Y13214850D01*
X7640150Y13297387D01*
X7640150Y15044150D01*
X7741850Y15044150D01*
X7741850Y13297387D01*
X7824387Y13214850D01*
X8506671Y13214850D01*
X8628015Y13265112D01*
X8720888Y13357985D01*
X8771150Y13479329D01*
X8771150Y14961613D01*
X8688613Y15044150D01*
X7741850Y15044150D01*
X7640150Y15044150D01*
X6693387Y15044150D01*
X6610850Y14961613D01*
X6610850Y14617048D01*
X6520035Y14654757D01*
X6307895Y14654942D01*
X6111833Y14573931D01*
X5961696Y14424056D01*
X5880343Y14228135D01*
X5880158Y14015995D01*
X5956500Y13831233D01*
X5956500Y13801943D01*
X5885032Y13629828D01*
X5352970Y13097766D01*
X5352970Y14667700D01*
X5347139Y14697014D01*
X5347139Y14726900D01*
X5303636Y14945604D01*
X5277383Y15008985D01*
X5258327Y15054991D01*
X5134442Y15240399D01*
X5126931Y15247910D01*
X5550370Y15247910D01*
X5940721Y15345785D01*
X6263903Y15585591D01*
X6470714Y15930819D01*
X6507792Y16066882D01*
X6445768Y16227210D01*
X5100370Y16227210D01*
X5100370Y16207210D01*
X4998670Y16207210D01*
X4998670Y16227210D01*
X3653272Y16227210D01*
X3591248Y16066882D01*
X3628326Y15930819D01*
X3835137Y15585591D01*
X3893008Y15542650D01*
X2906572Y15542650D01*
X2964443Y15585591D01*
X3171254Y15930819D01*
X3208332Y16066882D01*
X3146308Y16227210D01*
X1800910Y16227210D01*
X1800910Y16207210D01*
X1699210Y16207210D01*
X1699210Y16227210D01*
X1679210Y16227210D01*
X1679210Y16328910D01*
X1699210Y16328910D01*
X1699210Y17308210D01*
X1800910Y17308210D01*
X1800910Y16328910D01*
X3146308Y16328910D01*
X3208332Y16489238D01*
X3591248Y16489238D01*
X3653272Y16328910D01*
X4998670Y16328910D01*
X4998670Y17308210D01*
X5100370Y17308210D01*
X5100370Y16328910D01*
X6445768Y16328910D01*
X6507792Y16489238D01*
X6470714Y16625301D01*
X6419573Y16710671D01*
X6610850Y16710671D01*
X6610850Y15228387D01*
X6693387Y15145850D01*
X7640150Y15145850D01*
X7640150Y16892613D01*
X7741850Y16892613D01*
X7741850Y15145850D01*
X8688613Y15145850D01*
X8771150Y15228387D01*
X8771150Y16710671D01*
X8720888Y16832015D01*
X8628015Y16924888D01*
X8506671Y16975150D01*
X7824387Y16975150D01*
X7741850Y16892613D01*
X7640150Y16892613D01*
X7557613Y16975150D01*
X6875329Y16975150D01*
X6753985Y16924888D01*
X6661112Y16832015D01*
X6610850Y16710671D01*
X6419573Y16710671D01*
X6263903Y16970529D01*
X5940721Y17210335D01*
X5550370Y17308210D01*
X5100370Y17308210D01*
X4998670Y17308210D01*
X4548670Y17308210D01*
X4158319Y17210335D01*
X3835137Y16970529D01*
X3628326Y16625301D01*
X3591248Y16489238D01*
X3208332Y16489238D01*
X3171254Y16625301D01*
X2964443Y16970529D01*
X2641261Y17210335D01*
X2250910Y17308210D01*
X1800910Y17308210D01*
X1699210Y17308210D01*
X1249210Y17308210D01*
X858859Y17210335D01*
X535677Y16970529D01*
X328866Y16625301D01*
X303450Y16532033D01*
X303450Y18285098D01*
X1847810Y18285098D01*
X1927296Y18119374D01*
X2329764Y17955681D01*
X2764240Y17958466D01*
X3152704Y18119374D01*
X3232190Y18285098D01*
X4387810Y18285098D01*
X4467296Y18119374D01*
X4869764Y17955681D01*
X5304240Y17958466D01*
X5692704Y18119374D01*
X5772190Y18285098D01*
X5080000Y18977287D01*
X4387810Y18285098D01*
X3232190Y18285098D01*
X2540000Y18977287D01*
X1847810Y18285098D01*
X303450Y18285098D01*
X303450Y19259436D01*
X1446481Y19259436D01*
X1449266Y18824960D01*
X1610174Y18436496D01*
X1775898Y18357010D01*
X2468087Y19049200D01*
X2611913Y19049200D01*
X3304102Y18357010D01*
X3469826Y18436496D01*
X3633519Y18838964D01*
X3630824Y19259436D01*
X3986481Y19259436D01*
X3989266Y18824960D01*
X4150174Y18436496D01*
X4315898Y18357010D01*
X5008087Y19049200D01*
X5151913Y19049200D01*
X5844102Y18357010D01*
X6009826Y18436496D01*
X6173519Y18838964D01*
X6170734Y19273440D01*
X6009826Y19661904D01*
X5844102Y19741390D01*
X5151913Y19049200D01*
X5008087Y19049200D01*
X4315898Y19741390D01*
X4150174Y19661904D01*
X3986481Y19259436D01*
X3630824Y19259436D01*
X3630734Y19273440D01*
X3469826Y19661904D01*
X3304102Y19741390D01*
X2611913Y19049200D01*
X2468087Y19049200D01*
X1775898Y19741390D01*
X1610174Y19661904D01*
X1446481Y19259436D01*
X303450Y19259436D01*
X303450Y19813302D01*
X1847810Y19813302D01*
X2540000Y19121113D01*
X3232190Y19813302D01*
X4387810Y19813302D01*
X5080000Y19121113D01*
X5772190Y19813302D01*
X5692704Y19979026D01*
X5290236Y20142719D01*
X4855760Y20139934D01*
X4467296Y19979026D01*
X4387810Y19813302D01*
X3232190Y19813302D01*
X3152704Y19979026D01*
X2750236Y20142719D01*
X2315760Y20139934D01*
X1927296Y19979026D01*
X1847810Y19813302D01*
X303450Y19813302D01*
X303450Y22555750D01*
X53036550Y22555750D01*
X53036550Y15841573D01*
G36*
X38945351Y19852185D02*
X39014524Y19684776D01*
X39014544Y19429468D01*
X38940152Y19609512D01*
X38661777Y19888373D01*
X38297877Y20039478D01*
X37903852Y20039821D01*
X37539688Y19889352D01*
X37260827Y19610977D01*
X37109722Y19247077D01*
X37109379Y18853052D01*
X37215698Y18595738D01*
X36907010Y18287050D01*
X36198450Y18287050D01*
X36399173Y18487423D01*
X36550278Y18851323D01*
X36550621Y19245348D01*
X36400152Y19609512D01*
X36121777Y19888373D01*
X35757877Y20039478D01*
X35363852Y20039821D01*
X34999688Y19889352D01*
X34720827Y19610977D01*
X34569722Y19247077D01*
X34569379Y18853052D01*
X34675698Y18595738D01*
X32277387Y16197427D01*
X32159533Y16148731D01*
X32157698Y16146899D01*
X32151431Y16162067D01*
X32001556Y16312204D01*
X31805635Y16393557D01*
X31593495Y16393742D01*
X31397433Y16312731D01*
X31249444Y16165000D01*
X30700372Y16165000D01*
X30700476Y16284062D01*
X30589810Y16551895D01*
X30385072Y16756990D01*
X30342407Y16774706D01*
X30383995Y16791890D01*
X30589090Y16996628D01*
X30700223Y17264267D01*
X30700476Y17554062D01*
X30589810Y17821895D01*
X30385072Y18026990D01*
X30308226Y18058899D01*
X30676148Y18058579D01*
X31040312Y18209048D01*
X31319173Y18487423D01*
X31470278Y18851323D01*
X31470279Y18853052D01*
X32029379Y18853052D01*
X32179848Y18488888D01*
X32458223Y18210027D01*
X32822123Y18058922D01*
X33216148Y18058579D01*
X33580312Y18209048D01*
X33859173Y18487423D01*
X34010278Y18851323D01*
X34010621Y19245348D01*
X33860152Y19609512D01*
X33581777Y19888373D01*
X33217877Y20039478D01*
X32823852Y20039821D01*
X32459688Y19889352D01*
X32180827Y19610977D01*
X32029722Y19247077D01*
X32029379Y18853052D01*
X31470279Y18853052D01*
X31470621Y19245348D01*
X31320152Y19609512D01*
X31041777Y19888373D01*
X30677877Y20039478D01*
X30283852Y20039821D01*
X29919688Y19889352D01*
X29640827Y19610977D01*
X29489722Y19247077D01*
X29489379Y18853052D01*
X29639848Y18488888D01*
X29918223Y18210027D01*
X30091332Y18138146D01*
X29827638Y18138376D01*
X29559805Y18027710D01*
X29354710Y17822972D01*
X29243577Y17555333D01*
X29243324Y17265538D01*
X29288217Y17156887D01*
X28740515Y16609185D01*
X28674486Y16510366D01*
X28662621Y16450715D01*
X28648756Y16464604D01*
X28452835Y16545957D01*
X28240695Y16546142D01*
X28044633Y16465131D01*
X27894496Y16315256D01*
X27893029Y16311724D01*
X27857566Y16311274D01*
X25959944Y18208896D01*
X25960312Y18209048D01*
X26239173Y18487423D01*
X26390278Y18851323D01*
X26390279Y18853052D01*
X26949379Y18853052D01*
X27099848Y18488888D01*
X27378223Y18210027D01*
X27742123Y18058922D01*
X28136148Y18058579D01*
X28500312Y18209048D01*
X28779173Y18487423D01*
X28930278Y18851323D01*
X28930621Y19245348D01*
X28780152Y19609512D01*
X28501777Y19888373D01*
X28137877Y20039478D01*
X27743852Y20039821D01*
X27379688Y19889352D01*
X27100827Y19610977D01*
X26949722Y19247077D01*
X26949379Y18853052D01*
X26390279Y18853052D01*
X26390621Y19245348D01*
X26240152Y19609512D01*
X25961777Y19888373D01*
X25597877Y20039478D01*
X25203852Y20039821D01*
X24839688Y19889352D01*
X24560827Y19610977D01*
X24409722Y19247077D01*
X24409379Y18853052D01*
X24559848Y18488888D01*
X24838223Y18210027D01*
X25202123Y18058922D01*
X25248278Y18058882D01*
X26228472Y17078688D01*
X25551153Y17078688D01*
X25030057Y17599785D01*
X24931238Y17665814D01*
X24814672Y17689000D01*
X23595670Y17689000D01*
X23176403Y18108267D01*
X23420312Y18209048D01*
X23699173Y18487423D01*
X23850278Y18851323D01*
X23850621Y19245348D01*
X23700152Y19609512D01*
X23421777Y19888373D01*
X23057877Y20039478D01*
X22663852Y20039821D01*
X22299688Y19889352D01*
X22020827Y19610977D01*
X21869722Y19247077D01*
X21869379Y18853052D01*
X22019848Y18488888D01*
X22298223Y18210027D01*
X22555400Y18103237D01*
X22555400Y18001229D01*
X20807182Y18001229D01*
X20681508Y18126904D01*
X20880312Y18209048D01*
X21159173Y18487423D01*
X21310278Y18851323D01*
X21310621Y19245348D01*
X21160152Y19609512D01*
X20881777Y19888373D01*
X20517877Y20039478D01*
X20123852Y20039821D01*
X19759688Y19889352D01*
X19480827Y19610977D01*
X19329722Y19247077D01*
X19329379Y18853052D01*
X19437305Y18591850D01*
X18668190Y18591850D01*
X18664194Y18595846D01*
X18770278Y18851323D01*
X18770621Y19245348D01*
X18620152Y19609512D01*
X18341777Y19888373D01*
X17977877Y20039478D01*
X17583852Y20039821D01*
X17219688Y19889352D01*
X16940827Y19610977D01*
X16789722Y19247077D01*
X16789413Y18891595D01*
X16764000Y18896650D01*
X16230317Y18896650D01*
X16230621Y19245348D01*
X16080152Y19609512D01*
X15801777Y19888373D01*
X15437877Y20039478D01*
X15043852Y20039821D01*
X14679688Y19889352D01*
X14400827Y19610977D01*
X14249722Y19247077D01*
X14249379Y18853052D01*
X14357326Y18591800D01*
X13588170Y18591800D01*
X13584174Y18595796D01*
X13690278Y18851323D01*
X13690621Y19245348D01*
X13540152Y19609512D01*
X13261777Y19888373D01*
X12897877Y20039478D01*
X12503852Y20039821D01*
X12139688Y19889352D01*
X11860827Y19610977D01*
X11709722Y19247077D01*
X11709379Y18853052D01*
X11786031Y18667539D01*
X11188985Y19264585D01*
X11125010Y19307332D01*
X11000152Y19609512D01*
X10721777Y19888373D01*
X10357877Y20039478D01*
X9963852Y20039821D01*
X9599688Y19889352D01*
X9320827Y19610977D01*
X9296200Y19551669D01*
X9296200Y19775104D01*
X9790496Y20269400D01*
X38522194Y20269400D01*
X38945351Y19852185D01*
X38945351Y19852185D01*
G37*
X38945351Y19852185D02*
X39014524Y19684776D01*
X39014544Y19429468D01*
X38940152Y19609512D01*
X38661777Y19888373D01*
X38297877Y20039478D01*
X37903852Y20039821D01*
X37539688Y19889352D01*
X37260827Y19610977D01*
X37109722Y19247077D01*
X37109379Y18853052D01*
X37215698Y18595738D01*
X36907010Y18287050D01*
X36198450Y18287050D01*
X36399173Y18487423D01*
X36550278Y18851323D01*
X36550621Y19245348D01*
X36400152Y19609512D01*
X36121777Y19888373D01*
X35757877Y20039478D01*
X35363852Y20039821D01*
X34999688Y19889352D01*
X34720827Y19610977D01*
X34569722Y19247077D01*
X34569379Y18853052D01*
X34675698Y18595738D01*
X32277387Y16197427D01*
X32159533Y16148731D01*
X32157698Y16146899D01*
X32151431Y16162067D01*
X32001556Y16312204D01*
X31805635Y16393557D01*
X31593495Y16393742D01*
X31397433Y16312731D01*
X31249444Y16165000D01*
X30700372Y16165000D01*
X30700476Y16284062D01*
X30589810Y16551895D01*
X30385072Y16756990D01*
X30342407Y16774706D01*
X30383995Y16791890D01*
X30589090Y16996628D01*
X30700223Y17264267D01*
X30700476Y17554062D01*
X30589810Y17821895D01*
X30385072Y18026990D01*
X30308226Y18058899D01*
X30676148Y18058579D01*
X31040312Y18209048D01*
X31319173Y18487423D01*
X31470278Y18851323D01*
X31470279Y18853052D01*
X32029379Y18853052D01*
X32179848Y18488888D01*
X32458223Y18210027D01*
X32822123Y18058922D01*
X33216148Y18058579D01*
X33580312Y18209048D01*
X33859173Y18487423D01*
X34010278Y18851323D01*
X34010621Y19245348D01*
X33860152Y19609512D01*
X33581777Y19888373D01*
X33217877Y20039478D01*
X32823852Y20039821D01*
X32459688Y19889352D01*
X32180827Y19610977D01*
X32029722Y19247077D01*
X32029379Y18853052D01*
X31470279Y18853052D01*
X31470621Y19245348D01*
X31320152Y19609512D01*
X31041777Y19888373D01*
X30677877Y20039478D01*
X30283852Y20039821D01*
X29919688Y19889352D01*
X29640827Y19610977D01*
X29489722Y19247077D01*
X29489379Y18853052D01*
X29639848Y18488888D01*
X29918223Y18210027D01*
X30091332Y18138146D01*
X29827638Y18138376D01*
X29559805Y18027710D01*
X29354710Y17822972D01*
X29243577Y17555333D01*
X29243324Y17265538D01*
X29288217Y17156887D01*
X28740515Y16609185D01*
X28674486Y16510366D01*
X28662621Y16450715D01*
X28648756Y16464604D01*
X28452835Y16545957D01*
X28240695Y16546142D01*
X28044633Y16465131D01*
X27894496Y16315256D01*
X27893029Y16311724D01*
X27857566Y16311274D01*
X25959944Y18208896D01*
X25960312Y18209048D01*
X26239173Y18487423D01*
X26390278Y18851323D01*
X26390279Y18853052D01*
X26949379Y18853052D01*
X27099848Y18488888D01*
X27378223Y18210027D01*
X27742123Y18058922D01*
X28136148Y18058579D01*
X28500312Y18209048D01*
X28779173Y18487423D01*
X28930278Y18851323D01*
X28930621Y19245348D01*
X28780152Y19609512D01*
X28501777Y19888373D01*
X28137877Y20039478D01*
X27743852Y20039821D01*
X27379688Y19889352D01*
X27100827Y19610977D01*
X26949722Y19247077D01*
X26949379Y18853052D01*
X26390279Y18853052D01*
X26390621Y19245348D01*
X26240152Y19609512D01*
X25961777Y19888373D01*
X25597877Y20039478D01*
X25203852Y20039821D01*
X24839688Y19889352D01*
X24560827Y19610977D01*
X24409722Y19247077D01*
X24409379Y18853052D01*
X24559848Y18488888D01*
X24838223Y18210027D01*
X25202123Y18058922D01*
X25248278Y18058882D01*
X26228472Y17078688D01*
X25551153Y17078688D01*
X25030057Y17599785D01*
X24931238Y17665814D01*
X24814672Y17689000D01*
X23595670Y17689000D01*
X23176403Y18108267D01*
X23420312Y18209048D01*
X23699173Y18487423D01*
X23850278Y18851323D01*
X23850621Y19245348D01*
X23700152Y19609512D01*
X23421777Y19888373D01*
X23057877Y20039478D01*
X22663852Y20039821D01*
X22299688Y19889352D01*
X22020827Y19610977D01*
X21869722Y19247077D01*
X21869379Y18853052D01*
X22019848Y18488888D01*
X22298223Y18210027D01*
X22555400Y18103237D01*
X22555400Y18001229D01*
X20807182Y18001229D01*
X20681508Y18126904D01*
X20880312Y18209048D01*
X21159173Y18487423D01*
X21310278Y18851323D01*
X21310621Y19245348D01*
X21160152Y19609512D01*
X20881777Y19888373D01*
X20517877Y20039478D01*
X20123852Y20039821D01*
X19759688Y19889352D01*
X19480827Y19610977D01*
X19329722Y19247077D01*
X19329379Y18853052D01*
X19437305Y18591850D01*
X18668190Y18591850D01*
X18664194Y18595846D01*
X18770278Y18851323D01*
X18770621Y19245348D01*
X18620152Y19609512D01*
X18341777Y19888373D01*
X17977877Y20039478D01*
X17583852Y20039821D01*
X17219688Y19889352D01*
X16940827Y19610977D01*
X16789722Y19247077D01*
X16789413Y18891595D01*
X16764000Y18896650D01*
X16230317Y18896650D01*
X16230621Y19245348D01*
X16080152Y19609512D01*
X15801777Y19888373D01*
X15437877Y20039478D01*
X15043852Y20039821D01*
X14679688Y19889352D01*
X14400827Y19610977D01*
X14249722Y19247077D01*
X14249379Y18853052D01*
X14357326Y18591800D01*
X13588170Y18591800D01*
X13584174Y18595796D01*
X13690278Y18851323D01*
X13690621Y19245348D01*
X13540152Y19609512D01*
X13261777Y19888373D01*
X12897877Y20039478D01*
X12503852Y20039821D01*
X12139688Y19889352D01*
X11860827Y19610977D01*
X11709722Y19247077D01*
X11709379Y18853052D01*
X11786031Y18667539D01*
X11188985Y19264585D01*
X11125010Y19307332D01*
X11000152Y19609512D01*
X10721777Y19888373D01*
X10357877Y20039478D01*
X9963852Y20039821D01*
X9599688Y19889352D01*
X9320827Y19610977D01*
X9296200Y19551669D01*
X9296200Y19775104D01*
X9790496Y20269400D01*
X38522194Y20269400D01*
X38945351Y19852185D01*
M02*
