G04 #@! TF.FileFunction,Copper,L2,Bot,Signal*
%FSLAX46Y46*%
G04 Gerber Fmt 4.6, Leading zero omitted, Abs format (unit mm)*
G04 Created by KiCad (PCBNEW 4.0.7-e2-6376~58~ubuntu16.04.1) date Sat Feb  3 14:42:04 2018*
%MOMM*%
%LPD*%
G01*
G04 APERTURE LIST*
%ADD10C,0.100000*%
%ADD11R,0.949960X0.899160*%
%ADD12C,0.609600*%
%ADD13C,0.998220*%
%ADD14R,0.550000X0.800000*%
%ADD15R,0.700000X0.900000*%
%ADD16O,2.300000X1.400000*%
%ADD17R,1.524000X1.524000*%
%ADD18C,1.524000*%
%ADD19C,1.000000*%
%ADD20R,0.889000X0.762000*%
%ADD21R,0.762000X0.889000*%
%ADD22R,1.250000X0.600000*%
%ADD23R,3.750000X1.200000*%
%ADD24R,1.400000X1.450000*%
%ADD25R,0.600000X1.000000*%
%ADD26R,0.850000X0.950000*%
%ADD27C,0.152400*%
%ADD28C,0.457200*%
%ADD29C,0.457100*%
%ADD30C,0.152300*%
G04 APERTURE END LIST*
D10*
D11*
X49403000Y13665200D03*
X49403000Y16814800D03*
D12*
X50076100Y11328400D03*
X51155600Y9347200D03*
X50393600Y5689600D03*
X37388800Y17068800D03*
X32359600Y16611600D03*
X21691600Y15798800D03*
D13*
X29972000Y13335000D03*
D12*
X11379200Y9906000D03*
D14*
X49088000Y10623400D03*
X50038000Y10623400D03*
X50988000Y10623400D03*
X50988000Y8223400D03*
X49088000Y8223400D03*
D15*
X51943000Y17079000D03*
X51293000Y15179000D03*
X52593000Y15179000D03*
D12*
X13360400Y16510000D03*
X18237200Y7924800D03*
D16*
X1750060Y16278860D03*
X1750060Y6581140D03*
X5049520Y16278860D03*
X5049520Y6581140D03*
D12*
X36829900Y19061600D03*
D17*
X47066200Y15240000D03*
D18*
X47066200Y12700000D03*
X47066200Y10160000D03*
X47066200Y7620000D03*
D12*
X18542000Y6553200D03*
X34798000Y15849600D03*
X14884400Y9753600D03*
X38608000Y11557000D03*
X41910000Y7620000D03*
X41910000Y8890000D03*
X41910000Y10160000D03*
X43180000Y10160000D03*
X41910000Y12700000D03*
X41910000Y11430000D03*
X28092400Y10160000D03*
X28397200Y13360400D03*
X52070000Y21590000D03*
X49530000Y21590000D03*
X46990000Y21590000D03*
X44450000Y21590000D03*
X41910000Y21590000D03*
X39370000Y21590000D03*
X36830000Y21590000D03*
X34290000Y21590000D03*
X31750000Y21590000D03*
X29210000Y21590000D03*
X26670000Y21590000D03*
X24130000Y21590000D03*
X21590000Y21590000D03*
X19050000Y21590000D03*
X16510000Y21590000D03*
X13970000Y21590000D03*
X11430000Y21590000D03*
X8890000Y21590000D03*
X6350000Y21590000D03*
X3810000Y21590000D03*
X1270000Y21590000D03*
X3810000Y20066000D03*
X6350000Y19050000D03*
X21590000Y19050000D03*
X24130000Y19050000D03*
X26670000Y19050000D03*
X29210000Y19050000D03*
X31750000Y19050000D03*
X44450000Y19050000D03*
X46990000Y19050000D03*
X44450000Y3810000D03*
X39370000Y3810000D03*
X31750000Y3810000D03*
X29210000Y3810000D03*
X26670000Y3810000D03*
X24130000Y3810000D03*
X21590000Y3810000D03*
X16510000Y3810000D03*
X11430000Y3810000D03*
X3810000Y3810000D03*
X52070000Y1270000D03*
X49530000Y1270000D03*
X46990000Y1270000D03*
X44450000Y1270000D03*
X41910000Y1270000D03*
X39370000Y1270000D03*
X36830000Y1270000D03*
X34290000Y1270000D03*
X31750000Y1270000D03*
X29210000Y1270000D03*
X26670000Y1270000D03*
X24130000Y1270000D03*
X21590000Y1270000D03*
X19050000Y1270000D03*
X16510000Y1270000D03*
X13970000Y1270000D03*
X11430000Y1270000D03*
X8890000Y1270000D03*
X6350000Y1270000D03*
X3810000Y1270000D03*
X1270000Y1270000D03*
D19*
X29972000Y15875000D03*
X29972000Y17145000D03*
X29972000Y14605000D03*
X29972000Y12065000D03*
X29972000Y10795000D03*
X29972000Y9525000D03*
D17*
X50800000Y3810000D03*
D18*
X48260000Y3810000D03*
X45720000Y3810000D03*
X43180000Y3810000D03*
X40640000Y3810000D03*
X38100000Y3810000D03*
X35560000Y3810000D03*
X33020000Y3810000D03*
X30480000Y3810000D03*
X27940000Y3810000D03*
X25400000Y3810000D03*
X22860000Y3810000D03*
X20320000Y3810000D03*
X17780000Y3810000D03*
X15240000Y3810000D03*
X12700000Y3810000D03*
X10160000Y3810000D03*
X7620000Y3810000D03*
X5080000Y3810000D03*
X2540000Y3810000D03*
D17*
X50800000Y19050000D03*
D18*
X48260000Y19050000D03*
X45720000Y19050000D03*
X43180000Y19050000D03*
X40640000Y19050000D03*
X38100000Y19050000D03*
X35560000Y19050000D03*
X33020000Y19050000D03*
X30480000Y19050000D03*
X27940000Y19050000D03*
X25400000Y19050000D03*
X22860000Y19050000D03*
X20320000Y19050000D03*
X17780000Y19050000D03*
X15240000Y19050000D03*
X12700000Y19050000D03*
X10160000Y19050000D03*
X7620000Y19050000D03*
X5080000Y19050000D03*
X2540000Y19050000D03*
D20*
X51181000Y7048500D03*
X51181000Y5651500D03*
X52451000Y10731500D03*
X52451000Y9334500D03*
X49784000Y7048500D03*
X49784000Y5651500D03*
D21*
X48958500Y11938000D03*
X50355500Y11938000D03*
D22*
X13970000Y14962500D03*
X13970000Y13862500D03*
X13970000Y12762500D03*
X13970000Y11662500D03*
X13970000Y10562500D03*
X13970000Y9462500D03*
X13970000Y8362500D03*
X13970000Y7262500D03*
D23*
X11490000Y6112500D03*
D24*
X12245000Y16587500D03*
D25*
X10995000Y16812500D03*
D26*
X10020000Y15887500D03*
D12*
X19456400Y9753600D03*
X17526000Y15849600D03*
X7315200Y12649200D03*
X10210800Y5486400D03*
X7569200Y14173200D03*
X7391400Y7924800D03*
D21*
X38163500Y13208000D03*
X39560500Y13208000D03*
X39560500Y11938000D03*
X38163500Y11938000D03*
D12*
X13970000Y19050000D03*
X11430000Y19050000D03*
X12192000Y14325600D03*
X11582400Y14325600D03*
X6705600Y13411200D03*
X6718300Y6426200D03*
X52273100Y19518800D03*
X37185500Y15404000D03*
X35306000Y7569200D03*
X35585400Y8407400D03*
X36728400Y13868400D03*
X5791200Y9296400D03*
X10515600Y14478000D03*
X41757600Y15393200D03*
X41757600Y14783600D03*
X39319200Y18593600D03*
X39471500Y19976000D03*
X39801800Y14224000D03*
X31089600Y10058400D03*
X12928600Y7772400D03*
X31242000Y8839200D03*
X31089600Y14020800D03*
X31089600Y14935200D03*
X32461200Y15697200D03*
X28346400Y16002000D03*
X27990800Y15316200D03*
X26212800Y15976600D03*
X25450800Y15849600D03*
X24358600Y16129000D03*
X23469600Y15849600D03*
X30632400Y7467600D03*
X29718000Y7467600D03*
X28041600Y7467600D03*
X27584400Y6858000D03*
X26974800Y7467600D03*
X26365200Y6858000D03*
X22352000Y7772400D03*
X23012400Y8229600D03*
X23164800Y8991600D03*
X8839100Y3491400D03*
X19659600Y13258800D03*
X15544800Y16307600D03*
X22707600Y9753600D03*
X22402800Y10515600D03*
X24536400Y10515600D03*
X24536400Y11277600D03*
X8534300Y4710600D03*
X15240000Y13716000D03*
X7175500Y5486400D03*
X16002000Y14478000D03*
X22402800Y6248400D03*
X22402800Y7010400D03*
X23926800Y8991600D03*
X24688800Y9144000D03*
X23774400Y8229600D03*
X24536400Y7924800D03*
X23063200Y7467600D03*
X12192000Y9753600D03*
X23622000Y6858000D03*
X31089600Y11277600D03*
X31089600Y12344400D03*
X31089600Y13258800D03*
X26822400Y15392400D03*
X31699200Y15849600D03*
X28956000Y15544800D03*
X24536400Y12039600D03*
X22402800Y12039600D03*
X37033200Y4876800D03*
X28956000Y7467600D03*
X16459200Y17627600D03*
X28041500Y10984400D03*
X51206300Y16521600D03*
X51206300Y11898800D03*
X51206300Y11289200D03*
X51206300Y17131200D03*
X32308800Y6858000D03*
X48768000Y6400800D03*
X28041500Y14184800D03*
D27*
X38163500Y11938000D02*
X38227000Y11938000D01*
X38227000Y11938000D02*
X38608000Y11557000D01*
D28*
X13970000Y9462500D02*
X14593300Y9462500D01*
X14593300Y9462500D02*
X14884400Y9753600D01*
X50076100Y11328400D02*
X50076100Y11658600D01*
X50076100Y11658600D02*
X50355500Y11938000D01*
X50076100Y11328400D02*
X50076100Y10661500D01*
X50076100Y10661500D02*
X50038000Y10623400D01*
D29*
X11490000Y6112500D02*
X10836900Y6112500D01*
X10836900Y6112500D02*
X10210800Y5486400D01*
D28*
X49403000Y13665200D02*
X51917600Y13665200D01*
X52593000Y14340600D02*
X52593000Y15179000D01*
X51917600Y13665200D02*
X52593000Y14340600D01*
X6705600Y13411200D02*
X10668000Y13411200D01*
X10668000Y13411200D02*
X11582400Y14325600D01*
X11582400Y14325600D02*
X12192000Y14325600D01*
X48958500Y11938000D02*
X48958500Y13220700D01*
X48958500Y13220700D02*
X49403000Y13665200D01*
X48958500Y11938000D02*
X48958500Y10752900D01*
X48958500Y10752900D02*
X49088000Y10623400D01*
X49088000Y10623400D02*
X49088000Y10058300D01*
X49088000Y10058300D02*
X50922900Y8223400D01*
X50922900Y8223400D02*
X50988000Y8223400D01*
X50988000Y8223400D02*
X50922900Y8223400D01*
X50988000Y8223400D02*
X50988000Y7241500D01*
X50988000Y7241500D02*
X51181000Y7048500D01*
X51181000Y7048500D02*
X51778700Y7048500D01*
X52425200Y6402000D02*
X52425200Y2743600D01*
X51778700Y7048500D02*
X52425200Y6402000D01*
X51816000Y2134400D02*
X45720000Y2134400D01*
X52425200Y2743600D02*
X51816000Y2134400D01*
X45720000Y3810000D02*
X45720000Y2134400D01*
X45720000Y2134400D02*
X45719200Y2133600D01*
X6972300Y2133600D02*
X6413500Y2692400D01*
X6413500Y5803900D02*
X6413500Y2692400D01*
X6413500Y5803900D02*
X6718300Y6108700D01*
X6718300Y6108700D02*
X6718300Y6426200D01*
X45719200Y2133600D02*
X6972300Y2133600D01*
X6718300Y6426200D02*
X6718300Y7302500D01*
X6553200Y13258800D02*
X6705600Y13411200D01*
X6553200Y7467600D02*
X6553200Y13258800D01*
X6718300Y7302500D02*
X6553200Y7467600D01*
D29*
X42671900Y20727100D02*
X51674400Y20727100D01*
X52273100Y20128400D02*
X52273100Y19518800D01*
X51674400Y20727100D02*
X52273100Y20128400D01*
X37185500Y15404000D02*
X37196952Y15404000D01*
X41910000Y19965200D02*
X41910000Y18441200D01*
X42671900Y20727100D02*
X41910000Y19965200D01*
X41910000Y18441200D02*
X40994948Y17526148D01*
X39166700Y17526148D02*
X40994948Y17526148D01*
X37196952Y15404000D02*
X39166700Y17526148D01*
D27*
X40843198Y8203454D02*
X40843198Y16296832D01*
X45709162Y19050000D02*
X44642366Y17983204D01*
X35306000Y7518418D02*
X35306000Y7569200D01*
X39954962Y7315218D02*
X40843198Y8203454D01*
X35509200Y7315218D02*
X39954962Y7315218D01*
X35306000Y7518418D02*
X35509200Y7315218D01*
X42529570Y17983204D02*
X44642366Y17983204D01*
X40843198Y16296832D02*
X42529570Y17983204D01*
X45709162Y19050000D02*
X45720000Y19050000D01*
X35585400Y8407400D02*
X35636220Y8407400D01*
X40538396Y16423086D02*
X43165310Y19050000D01*
X39828708Y7620020D02*
X40538396Y8329708D01*
X40538396Y8329708D02*
X40538396Y16423086D01*
X36423600Y7620020D02*
X39828708Y7620020D01*
X35636220Y8407400D02*
X36423600Y7620020D01*
X43165310Y19050000D02*
X43180000Y19050000D01*
X38163500Y13208000D02*
X37388800Y13208000D01*
X37388800Y13208000D02*
X36728400Y13868400D01*
D28*
X5791200Y14630400D02*
X5791200Y9296400D01*
X6096000Y14935200D02*
X8839200Y14935200D01*
X6096000Y14935200D02*
X5791200Y14630400D01*
X8839200Y14935200D02*
X10058400Y14935200D01*
X10515600Y14478000D02*
X10058400Y14935200D01*
X41757600Y15849600D02*
X43129200Y17221200D01*
X45262948Y17526148D02*
X44958000Y17221200D01*
X48691652Y17526148D02*
X49403000Y16814800D01*
X48691652Y17526148D02*
X45262948Y17526148D01*
X43129200Y17221200D02*
X44958000Y17221200D01*
X41757600Y14783600D02*
X41757600Y15849600D01*
X51293000Y15179000D02*
X51038800Y15179000D01*
X51038800Y15179000D02*
X49403000Y16814800D01*
X9601200Y20726800D02*
X9601200Y20726400D01*
X9601200Y20726400D02*
X8839200Y19964400D01*
X8839200Y19964400D02*
X8839200Y14935200D01*
X38720700Y20726800D02*
X9601200Y20726800D01*
X38720700Y20726800D02*
X39471500Y19976000D01*
X39471500Y19976000D02*
X39471500Y18745900D01*
X39471500Y18745900D02*
X39319200Y18593600D01*
D27*
X33754362Y7620020D02*
X34594820Y7620020D01*
X31242000Y9601200D02*
X31851600Y8991600D01*
X31851600Y8991600D02*
X31851600Y8534406D01*
X31851600Y8534406D02*
X32004000Y8382006D01*
X32004000Y8382006D02*
X32992376Y8382006D01*
X32992376Y8382006D02*
X33754362Y7620020D01*
X31242000Y9601200D02*
X31089600Y9601200D01*
X40233594Y13792206D02*
X39801800Y14224000D01*
X40233594Y8455962D02*
X40233594Y13792206D01*
X39702454Y7924822D02*
X40233594Y8455962D01*
X36549854Y7924822D02*
X39702454Y7924822D01*
X36181938Y8292738D02*
X36549854Y7924822D01*
X36181938Y8623662D02*
X36181938Y8292738D01*
X35814000Y8991600D02*
X36181938Y8623662D01*
X35356800Y8991600D02*
X35814000Y8991600D01*
X34899600Y8534400D02*
X35356800Y8991600D01*
X34899600Y7924800D02*
X34899600Y8534400D01*
X34594820Y7620020D02*
X34899600Y7924800D01*
X21767044Y14478012D02*
X25598724Y14478012D01*
X25598724Y14478012D02*
X26974812Y13101924D01*
X26974812Y13101924D02*
X26974812Y9601140D01*
X26974812Y9601140D02*
X27889200Y8686752D01*
X27889200Y8686752D02*
X30175152Y8686752D01*
X30175152Y8686752D02*
X31089600Y9601200D01*
X31089600Y9601200D02*
X31089600Y10058400D01*
X15544800Y17678400D02*
X14630400Y17678400D01*
X19176254Y17068802D02*
X16154398Y17068802D01*
X16154398Y17068802D02*
X15544800Y17678400D01*
X21767044Y14478012D02*
X19176254Y17068802D01*
X10210800Y19050000D02*
X10160000Y19050000D01*
X11277600Y17983200D02*
X10210800Y19050000D01*
X14325600Y17983200D02*
X11277600Y17983200D01*
X14630400Y17678400D02*
X14325600Y17983200D01*
D28*
X12928600Y7772400D02*
X12928600Y11404600D01*
X13186500Y11662500D02*
X13970000Y11662500D01*
X12928600Y11404600D02*
X13186500Y11662500D01*
D27*
X41148000Y8077200D02*
X41148000Y16170578D01*
X44768620Y17678402D02*
X45073568Y17983350D01*
X45073568Y17983350D02*
X47193350Y17983350D01*
X31242000Y8839200D02*
X31242000Y8482112D01*
X47193350Y17983350D02*
X48260000Y19050000D01*
X40081216Y7010416D02*
X41148000Y8077200D01*
X34842832Y7010416D02*
X40081216Y7010416D01*
X34538030Y7315218D02*
X34842832Y7010416D01*
X33628108Y7315218D02*
X34538030Y7315218D01*
X32866122Y8077204D02*
X33628108Y7315218D01*
X31646908Y8077204D02*
X32866122Y8077204D01*
X31242000Y8482112D02*
X31646908Y8077204D01*
X42655824Y17678402D02*
X44768620Y17678402D01*
X41148000Y16170578D02*
X42655824Y17678402D01*
X31089600Y14020800D02*
X31089602Y14020800D01*
X39573300Y17983300D02*
X40640000Y19050000D01*
X37464356Y17983300D02*
X39573300Y17983300D01*
X37159454Y17678398D02*
X37464356Y17983300D01*
X35050510Y17678398D02*
X37159454Y17678398D01*
X33528004Y16155892D02*
X35050510Y17678398D01*
X33528004Y15418548D02*
X33528004Y16155892D01*
X32892254Y14782798D02*
X33528004Y15418548D01*
X31851600Y14782798D02*
X32892254Y14782798D01*
X31089602Y14020800D02*
X31851600Y14782798D01*
X38100000Y19050000D02*
X37033200Y17983200D01*
X31242000Y15087600D02*
X31089600Y14935200D01*
X32766000Y15087600D02*
X31242000Y15087600D01*
X33223202Y15544802D02*
X32766000Y15087600D01*
X33223202Y16282146D02*
X33223202Y15544802D01*
X34924256Y17983200D02*
X33223202Y16282146D01*
X37033200Y17983200D02*
X34924256Y17983200D01*
X32461200Y15697200D02*
X32918400Y16154400D01*
X32918400Y16408400D02*
X35560000Y19050000D01*
X32918400Y16154400D02*
X32918400Y16408400D01*
X25400000Y19050000D02*
X25400000Y18007856D01*
X27405856Y16002000D02*
X28346400Y16002000D01*
X25400000Y18007856D02*
X27405856Y16002000D01*
X27990800Y15316200D02*
X27660600Y15316200D01*
X26212798Y16764002D02*
X25398510Y16764002D01*
X25398510Y16764002D02*
X24788906Y17373606D01*
X22860000Y19050000D02*
X22860000Y18183424D01*
X23669818Y17373606D02*
X24788906Y17373606D01*
X22860000Y18183424D02*
X23669818Y17373606D01*
X27660600Y15316200D02*
X26212798Y16764002D01*
X20320000Y19050000D02*
X20320000Y18080336D01*
X25730200Y16459200D02*
X26212800Y15976600D01*
X25272256Y16459200D02*
X25730200Y16459200D01*
X24662652Y17068804D02*
X25272256Y16459200D01*
X23543564Y17068804D02*
X24662652Y17068804D01*
X23238762Y17373606D02*
X23543564Y17068804D01*
X21026730Y17373606D02*
X23238762Y17373606D01*
X20320000Y18080336D02*
X21026730Y17373606D01*
X23112508Y17068804D02*
X20900476Y17068804D01*
X24536398Y16764002D02*
X25450800Y15849600D01*
X23417310Y16764002D02*
X24536398Y16764002D01*
X23112508Y17068804D02*
X23417310Y16764002D01*
X18541990Y18288010D02*
X17780000Y19050000D01*
X19681270Y18288010D02*
X18541990Y18288010D01*
X20900476Y17068804D02*
X19681270Y18288010D01*
X19555016Y17983208D02*
X17347454Y17983208D01*
X17347454Y17983208D02*
X16737860Y18592802D01*
X16737860Y18592802D02*
X15697198Y18592802D01*
X15697198Y18592802D02*
X15240000Y19050000D01*
X19555016Y17983208D02*
X20774222Y16764002D01*
X20774222Y16764002D02*
X22986254Y16764002D01*
X22986254Y16764002D02*
X23291056Y16459200D01*
X23291056Y16459200D02*
X24028400Y16459200D01*
X24028400Y16459200D02*
X24358600Y16129000D01*
X12700000Y19050000D02*
X12700000Y18999202D01*
X12700000Y18999202D02*
X13411200Y18288002D01*
X13411200Y18288002D02*
X14451854Y18288002D01*
X14451854Y18288002D02*
X14756654Y17983202D01*
X14756654Y17983202D02*
X15697202Y17983202D01*
X15697202Y17983202D02*
X16002000Y18288000D01*
X16002000Y18288000D02*
X16611606Y18288000D01*
X16611606Y18288000D02*
X17221200Y17678406D01*
X17221200Y17678406D02*
X19428762Y17678406D01*
X19428762Y17678406D02*
X20647968Y16459200D01*
X20647968Y16459200D02*
X22860000Y16459200D01*
X22860000Y16459200D02*
X23469600Y15849600D01*
X39140654Y4876802D02*
X42113198Y4876802D01*
X30632400Y7467600D02*
X30911056Y7467600D01*
X38835854Y5181602D02*
X39140654Y4876802D01*
X37921454Y5181602D02*
X38835854Y5181602D01*
X37311848Y5791208D02*
X37921454Y5181602D01*
X34337816Y5791208D02*
X37311848Y5791208D01*
X34033014Y6096010D02*
X34337816Y5791208D01*
X32282646Y6096010D02*
X34033014Y6096010D01*
X30911056Y7467600D02*
X32282646Y6096010D01*
X42113198Y4876802D02*
X43180000Y3810000D01*
X29718000Y7467600D02*
X29739680Y7467600D01*
X39878000Y4572000D02*
X40640000Y3810000D01*
X39014400Y4572000D02*
X39878000Y4572000D01*
X38709600Y4876800D02*
X39014400Y4572000D01*
X37795200Y4876800D02*
X38709600Y4876800D01*
X37185594Y5486406D02*
X37795200Y4876800D01*
X34211562Y5486406D02*
X37185594Y5486406D01*
X33906760Y5791208D02*
X34211562Y5486406D01*
X32156392Y5791208D02*
X33906760Y5791208D01*
X31089590Y6858010D02*
X32156392Y5791208D01*
X30349270Y6858010D02*
X31089590Y6858010D01*
X29739680Y7467600D02*
X30349270Y6858010D01*
X28041600Y7467600D02*
X28041606Y7467600D01*
X36728400Y4267200D02*
X37642800Y4267200D01*
X36118798Y4876802D02*
X36728400Y4267200D01*
X33959054Y4876802D02*
X36118798Y4876802D01*
X33654252Y5181604D02*
X33959054Y4876802D01*
X31851596Y5181604D02*
X33654252Y5181604D01*
X30784794Y6248406D02*
X31851596Y5181604D01*
X30096762Y6248406D02*
X30784794Y6248406D01*
X29791962Y6553206D02*
X30096762Y6248406D01*
X29413194Y6553206D02*
X29791962Y6553206D01*
X29108394Y6858006D02*
X29413194Y6553206D01*
X28651200Y6858006D02*
X29108394Y6858006D01*
X28041606Y7467600D02*
X28651200Y6858006D01*
X37642800Y4267200D02*
X38100000Y3810000D01*
X27584404Y6858000D02*
X27889200Y6553204D01*
X27889200Y6553204D02*
X28929852Y6553204D01*
X28929852Y6553204D02*
X29234652Y6248404D01*
X29234652Y6248404D02*
X29665708Y6248404D01*
X29665708Y6248404D02*
X29970508Y5943604D01*
X29970508Y5943604D02*
X30606252Y5943604D01*
X30606252Y5943604D02*
X31673054Y4876802D01*
X31673054Y4876802D02*
X33527998Y4876802D01*
X33527998Y4876802D02*
X33832800Y4572000D01*
X33832800Y4572000D02*
X34798000Y4572000D01*
X34798000Y4572000D02*
X35560000Y3810000D01*
X27584400Y6858000D02*
X27584404Y6858000D01*
X26974800Y7467600D02*
X26974800Y6679456D01*
X32258000Y4572000D02*
X33020000Y3810000D01*
X31546800Y4572000D02*
X32258000Y4572000D01*
X30479998Y5638802D02*
X31546800Y4572000D01*
X29844254Y5638802D02*
X30479998Y5638802D01*
X29539454Y5943602D02*
X29844254Y5638802D01*
X29108398Y5943602D02*
X29539454Y5943602D01*
X28803598Y6248402D02*
X29108398Y5943602D01*
X27405854Y6248402D02*
X28803598Y6248402D01*
X26974800Y6679456D02*
X27405854Y6248402D01*
X30480000Y3810000D02*
X31089600Y4419600D01*
X27279600Y5943600D02*
X26365200Y6858000D01*
X28651200Y5943600D02*
X27279600Y5943600D01*
X28956000Y5638800D02*
X28651200Y5943600D01*
X29413200Y5638800D02*
X28956000Y5638800D01*
X29718000Y5334000D02*
X29413200Y5638800D01*
X30327600Y5334000D02*
X29718000Y5334000D01*
X31089600Y4572000D02*
X30327600Y5334000D01*
X31089600Y4419600D02*
X31089600Y4572000D01*
X22352000Y7772400D02*
X22108842Y7772400D01*
X21804042Y4865958D02*
X22860000Y3810000D01*
X21804042Y7467600D02*
X21804042Y4865958D01*
X22108842Y7772400D02*
X21804042Y7467600D01*
X21499240Y7761560D02*
X21499240Y6085160D01*
X20320000Y4905920D02*
X20320000Y3810000D01*
X21499240Y6085160D02*
X20320000Y4905920D01*
X22119680Y8382000D02*
X22860000Y8382000D01*
X21499240Y7761560D02*
X22119680Y8382000D01*
X22860000Y8382000D02*
X23012400Y8229600D01*
X23164800Y8991600D02*
X22298224Y8991600D01*
X18592800Y4571992D02*
X19555016Y4571992D01*
X18592800Y4571992D02*
X17830808Y3810000D01*
X21183598Y6200574D02*
X19555016Y4571992D01*
X21183598Y7876974D02*
X21183598Y6200574D01*
X22298224Y8991600D02*
X21183598Y7876974D01*
X17780000Y3810000D02*
X17830808Y3810000D01*
X17780000Y3759202D02*
X16611600Y2590802D01*
X9739698Y2590802D02*
X8839100Y3491400D01*
X16611600Y2590802D02*
X9739698Y2590802D01*
X19659600Y13258800D02*
X20121264Y13258800D01*
X16001200Y16764000D02*
X15544800Y16307600D01*
X19050000Y16764000D02*
X16001200Y16764000D01*
X21031200Y14782800D02*
X19050000Y16764000D01*
X21031200Y14168736D02*
X21031200Y14782800D01*
X20121264Y13258800D02*
X21031200Y14168736D01*
X22707600Y9753600D02*
X22629168Y9753600D01*
X22629168Y9753600D02*
X20878796Y8003228D01*
X17447562Y4876794D02*
X19428762Y4876794D01*
X17142762Y4571994D02*
X17447562Y4876794D01*
X16002000Y4571994D02*
X17142762Y4571994D01*
X15240006Y3810000D02*
X16002000Y4571994D01*
X20878796Y6326828D02*
X19428762Y4876794D01*
X20878796Y8003228D02*
X20878796Y6326828D01*
X15240000Y3810000D02*
X15240006Y3810000D01*
X22098004Y10210804D02*
X22098004Y9653492D01*
X22098004Y10210804D02*
X22402800Y10515600D01*
X12801604Y3810000D02*
X13563600Y4571996D01*
X13563600Y4571996D02*
X14578108Y4571996D01*
X14578108Y4571996D02*
X14882908Y4876796D01*
X14882908Y4876796D02*
X17016508Y4876796D01*
X17016508Y4876796D02*
X17321308Y5181596D01*
X17321308Y5181596D02*
X19302508Y5181596D01*
X20573994Y6453082D02*
X19302508Y5181596D01*
X20573994Y8129482D02*
X20573994Y6453082D01*
X22098004Y9653492D02*
X20573994Y8129482D01*
X12700000Y3810000D02*
X12801604Y3810000D01*
X21793202Y10694146D02*
X21793202Y9779746D01*
X21793202Y10694146D02*
X22224254Y11125198D01*
X22224254Y11125198D02*
X22555202Y11125198D01*
X22555202Y11125198D02*
X23164800Y10515600D01*
X23164800Y10515600D02*
X24536400Y10515600D01*
X10972800Y4571998D02*
X10210802Y3810000D01*
X10972800Y4571998D02*
X11861054Y4571998D01*
X11861054Y4571998D02*
X12165854Y4876798D01*
X12165854Y4876798D02*
X14451854Y4876798D01*
X14451854Y4876798D02*
X14756654Y5181598D01*
X14756654Y5181598D02*
X16890254Y5181598D01*
X16890254Y5181598D02*
X17195054Y5486398D01*
X17195054Y5486398D02*
X19176254Y5486398D01*
X20269192Y6579336D02*
X19176254Y5486398D01*
X20269192Y8255736D02*
X20269192Y6579336D01*
X21793202Y9779746D02*
X20269192Y8255736D01*
X10160000Y3810000D02*
X10210802Y3810000D01*
X21488400Y10820400D02*
X21488400Y9906000D01*
X22098000Y11430000D02*
X22860000Y11430000D01*
X22860000Y11430000D02*
X23012400Y11277600D01*
X23012400Y11277600D02*
X24536400Y11277600D01*
X8077200Y3810000D02*
X8382000Y4114800D01*
X8382000Y4114800D02*
X8991600Y4114800D01*
X8991600Y4114800D02*
X9753600Y4876800D01*
X9753600Y4876800D02*
X11734800Y4876800D01*
X11734800Y4876800D02*
X12039600Y5181600D01*
X12039600Y5181600D02*
X14325600Y5181600D01*
X14325600Y5181600D02*
X14630400Y5486400D01*
X14630400Y5486400D02*
X16764000Y5486400D01*
X16764000Y5486400D02*
X17068800Y5791200D01*
X17068800Y5791200D02*
X19050000Y5791200D01*
X21488400Y10820400D02*
X22098000Y11430000D01*
X19964390Y6705590D02*
X19050000Y5791200D01*
X19964390Y8381990D02*
X19964390Y6705590D01*
X21488400Y9906000D02*
X19964390Y8381990D01*
X7620000Y3810000D02*
X8077200Y3810000D01*
X15240000Y13716000D02*
X15240000Y14047016D01*
X8382000Y12039600D02*
X8382000Y4862900D01*
X8382000Y4862900D02*
X8534300Y4710600D01*
X8991596Y12649196D02*
X8382000Y12039600D01*
X10983634Y12649196D02*
X8991596Y12649196D01*
X11745636Y13411198D02*
X10983634Y12649196D01*
X12470654Y13411198D02*
X11745636Y13411198D01*
X13106402Y14046946D02*
X12470654Y13411198D01*
X13106402Y14325600D02*
X13106402Y14046946D01*
X13182602Y14401800D02*
X13106402Y14325600D01*
X14885216Y14401800D02*
X13182602Y14401800D01*
X15240000Y14047016D02*
X14885216Y14401800D01*
X16002000Y14478000D02*
X14935200Y15544800D01*
X12801600Y15087600D02*
X12801600Y14173200D01*
X12801600Y14173200D02*
X12344400Y13716000D01*
X12344400Y13716000D02*
X11619382Y13716000D01*
X11619382Y13716000D02*
X10857380Y12953998D01*
X10857380Y12953998D02*
X8865342Y12953998D01*
X8865342Y12953998D02*
X8077198Y12165854D01*
X7175500Y5486400D02*
X7315198Y5486400D01*
X8077198Y6248400D02*
X8077198Y12165854D01*
X7315198Y5486400D02*
X8077198Y6248400D01*
X13258800Y15544800D02*
X12801600Y15087600D01*
X14935200Y15544800D02*
X13258800Y15544800D01*
X48463200Y6858000D02*
X48463200Y9194056D01*
X30784852Y8077148D02*
X31394400Y7467600D01*
X31394400Y7467600D02*
X32613614Y7467600D01*
X32613614Y7467600D02*
X33375600Y6705614D01*
X33375600Y6705614D02*
X34285522Y6705614D01*
X34285522Y6705614D02*
X34590324Y6400812D01*
X34590324Y6400812D02*
X37564356Y6400812D01*
X37564356Y6400812D02*
X38173962Y5791206D01*
X38173962Y5791206D02*
X39088362Y5791206D01*
X39088362Y5791206D02*
X39393162Y5486406D01*
X39393162Y5486406D02*
X47091606Y5486406D01*
X22402800Y6248400D02*
X22555200Y6248400D01*
X24610368Y5943600D02*
X26743916Y8077148D01*
X22860000Y5943600D02*
X24610368Y5943600D01*
X22555200Y6248400D02*
X22860000Y5943600D01*
X26743916Y8077148D02*
X30784852Y8077148D01*
X47091606Y5486406D02*
X48463200Y6858000D01*
X48158400Y11607800D02*
X47066200Y12700000D01*
X48158400Y9498856D02*
X48158400Y11607800D01*
X48463200Y9194056D02*
X48158400Y9498856D01*
X48158398Y6984254D02*
X48158398Y9067802D01*
X30911106Y8381950D02*
X31520654Y7772402D01*
X31520654Y7772402D02*
X32739868Y7772402D01*
X32739868Y7772402D02*
X33501854Y7010416D01*
X33501854Y7010416D02*
X34411776Y7010416D01*
X34411776Y7010416D02*
X34716578Y6705614D01*
X34716578Y6705614D02*
X37690610Y6705614D01*
X37690610Y6705614D02*
X38300216Y6096008D01*
X38300216Y6096008D02*
X39214616Y6096008D01*
X39214616Y6096008D02*
X39519416Y5791208D01*
X39519416Y5791208D02*
X46965352Y5791208D01*
X46965352Y5791208D02*
X48158398Y6984254D01*
X22402800Y7010400D02*
X22555202Y7010400D01*
X24484114Y6248402D02*
X26617662Y8381950D01*
X23317200Y6248402D02*
X24484114Y6248402D01*
X22555202Y7010400D02*
X23317200Y6248402D01*
X26617662Y8381950D02*
X30911106Y8381950D01*
X48158398Y9067802D02*
X47066200Y10160000D01*
X23926800Y8991600D02*
X23926800Y9144000D01*
X14730100Y7262500D02*
X15087600Y7620000D01*
X15087600Y7620000D02*
X15087600Y8229600D01*
X15087600Y8229600D02*
X15849600Y8991600D01*
X15849600Y8991600D02*
X15849600Y9906000D01*
X15849600Y9906000D02*
X16306800Y10363200D01*
X16306800Y10363200D02*
X19812000Y10363200D01*
X19812000Y10363200D02*
X22098000Y12649200D01*
X22098000Y12649200D02*
X24841200Y12649200D01*
X24841200Y12649200D02*
X25146000Y12344400D01*
X25146000Y12344400D02*
X25146000Y10363200D01*
X14730100Y7262500D02*
X13970000Y7262500D01*
X23926800Y9144000D02*
X25146000Y10363200D01*
X13970000Y8362500D02*
X14789444Y8362500D01*
X21971746Y12954002D02*
X24967454Y12954002D01*
X24967454Y12954002D02*
X25450802Y12470654D01*
X25450802Y12470654D02*
X25450802Y9448802D01*
X25450802Y9448802D02*
X25146000Y9144000D01*
X25146000Y9144000D02*
X24688800Y9144000D01*
X19685746Y10668002D02*
X21971746Y12954002D01*
X16180546Y10668002D02*
X19685746Y10668002D01*
X15544798Y10032254D02*
X16180546Y10668002D01*
X15544798Y9117854D02*
X15544798Y10032254D01*
X14789444Y8362500D02*
X15544798Y9117854D01*
X13970000Y10562500D02*
X14372500Y10562500D01*
X14372500Y10562500D02*
X14782804Y10972804D01*
X14782804Y10972804D02*
X19559492Y10972804D01*
X19559492Y10972804D02*
X21845492Y13258804D01*
X21845492Y13258804D02*
X25093708Y13258804D01*
X25093708Y13258804D02*
X25755604Y12596908D01*
X25755604Y12596908D02*
X25755604Y9296404D01*
X25755604Y9296404D02*
X24993600Y8534400D01*
X24993600Y8534400D02*
X24384000Y8534400D01*
X24384000Y8534400D02*
X24079200Y8229600D01*
X24079200Y8229600D02*
X23774400Y8229600D01*
X13970000Y12762500D02*
X14669506Y12762500D01*
X24841200Y7924800D02*
X24536400Y7924800D01*
X26060406Y9144006D02*
X24841200Y7924800D01*
X26060406Y12723162D02*
X26060406Y9144006D01*
X25219962Y13563606D02*
X26060406Y12723162D01*
X21719238Y13563606D02*
X25219962Y13563606D01*
X19433238Y11277606D02*
X21719238Y13563606D01*
X16154400Y11277606D02*
X19433238Y11277606D01*
X14669506Y12762500D02*
X16154400Y11277606D01*
X21592984Y13868408D02*
X25346216Y13868408D01*
X15607931Y12586069D02*
X15607931Y12255131D01*
X15607931Y12255131D02*
X16280654Y11582408D01*
X16280654Y11582408D02*
X19306984Y11582408D01*
X19306984Y11582408D02*
X21592984Y13868408D01*
X15607931Y12586069D02*
X14331500Y13862500D01*
X23926800Y7467600D02*
X23063200Y7467600D01*
X24079200Y7315200D02*
X23926800Y7467600D01*
X24688800Y7315200D02*
X24079200Y7315200D01*
X26365208Y8991608D02*
X24688800Y7315200D01*
X26365208Y12849416D02*
X26365208Y8991608D01*
X25346216Y13868408D02*
X26365208Y12849416D01*
X13970000Y13862500D02*
X14331500Y13862500D01*
X13970000Y13862500D02*
X13353012Y13862500D01*
X13353012Y13862500D02*
X12954000Y13463488D01*
X12471398Y10032998D02*
X12192000Y9753600D01*
X12471398Y11709398D02*
X12471398Y10032998D01*
X12954000Y12192000D02*
X12471398Y11709398D01*
X12954000Y13463488D02*
X12954000Y12192000D01*
X13970000Y14962500D02*
X14755572Y14962500D01*
X24662656Y6858000D02*
X23622000Y6858000D01*
X26670010Y8865354D02*
X24662656Y6858000D01*
X26670010Y12975670D02*
X26670010Y8865354D01*
X25472470Y14173210D02*
X26670010Y12975670D01*
X21466730Y14173210D02*
X25472470Y14173210D01*
X19180730Y11887210D02*
X21466730Y14173210D01*
X16406908Y11887210D02*
X19180730Y11887210D01*
X15912733Y12381385D02*
X16406908Y11887210D01*
X15912733Y13805339D02*
X15912733Y12381385D01*
X14755572Y14962500D02*
X15912733Y13805339D01*
X31089600Y10820400D02*
X31699200Y10210800D01*
X39928792Y8582216D02*
X39928792Y11569708D01*
X39576200Y8229624D02*
X39928792Y8582216D01*
X36676108Y8229624D02*
X39576200Y8229624D01*
X36486740Y8418992D02*
X36676108Y8229624D01*
X36486740Y8749916D02*
X36486740Y8418992D01*
X35940254Y9296402D02*
X36486740Y8749916D01*
X35230546Y9296402D02*
X35940254Y9296402D01*
X34594798Y8660654D02*
X35230546Y9296402D01*
X34594798Y8051054D02*
X34594798Y8660654D01*
X34468566Y7924822D02*
X34594798Y8051054D01*
X33880616Y7924822D02*
X34468566Y7924822D01*
X33118630Y8686808D02*
X33880616Y7924822D01*
X32308792Y8686808D02*
X33118630Y8686808D01*
X32156402Y8839198D02*
X32308792Y8686808D01*
X32156402Y9117854D02*
X32156402Y8839198D01*
X31699200Y9575056D02*
X32156402Y9117854D01*
X31699200Y10210800D02*
X31699200Y9575056D01*
X39928792Y11569708D02*
X39560500Y11938000D01*
X39560500Y13208000D02*
X39560500Y11938000D01*
X29972000Y9525000D02*
X29972000Y9702800D01*
X29972000Y9702800D02*
X31089600Y10820400D01*
X31089600Y10820400D02*
X31089600Y11277600D01*
X29972000Y10795000D02*
X29972000Y10922000D01*
X29972000Y10922000D02*
X31089600Y12039600D01*
X31089600Y12039600D02*
X31089600Y12344400D01*
X29972000Y12065000D02*
X29972000Y12141200D01*
X29972000Y12141200D02*
X31089600Y13258800D01*
X26822400Y15392400D02*
X27153344Y15392400D01*
X27788344Y14757400D02*
X29819600Y14757400D01*
X27153344Y15392400D02*
X27788344Y14757400D01*
X29819600Y14757400D02*
X29972000Y14605000D01*
X29972000Y15875000D02*
X31673800Y15875000D01*
X31673800Y15875000D02*
X31699200Y15849600D01*
X28956000Y15544800D02*
X28956000Y15697200D01*
X22402800Y12039600D02*
X24536400Y12039600D01*
X29108400Y16281400D02*
X29972000Y17145000D01*
X29108400Y15849600D02*
X29108400Y16281400D01*
X28956000Y15697200D02*
X29108400Y15849600D01*
X28956000Y7467600D02*
X28956000Y7441456D01*
X36728396Y5181604D02*
X37033200Y4876800D01*
X34085308Y5181604D02*
X36728396Y5181604D01*
X33780506Y5486406D02*
X34085308Y5181604D01*
X32003994Y5486406D02*
X33780506Y5486406D01*
X30937192Y6553208D02*
X32003994Y5486406D01*
X30223016Y6553208D02*
X30937192Y6553208D01*
X29918216Y6858008D02*
X30223016Y6553208D01*
X29539448Y6858008D02*
X29918216Y6858008D01*
X28956000Y7441456D02*
X29539448Y6858008D01*
X16459200Y17627600D02*
X16510004Y17627600D01*
X27279614Y11746286D02*
X28041500Y10984400D01*
X27279614Y13228178D02*
X27279614Y11746286D01*
X25724978Y14782814D02*
X27279614Y13228178D01*
X21893298Y14782814D02*
X25724978Y14782814D01*
X19302508Y17373604D02*
X21893298Y14782814D01*
X16764000Y17373604D02*
X19302508Y17373604D01*
X16510004Y17627600D02*
X16764000Y17373604D01*
X49088000Y8223400D02*
X49088000Y7744500D01*
X49088000Y7744500D02*
X49784000Y7048500D01*
D28*
X51206300Y16521600D02*
X51206300Y17131200D01*
X51206300Y11898800D02*
X51206300Y10841700D01*
X51943000Y17079000D02*
X51258500Y17079000D01*
X51258500Y17079000D02*
X51206300Y17131200D01*
X51206300Y10841700D02*
X50988000Y10623400D01*
X52451000Y10731500D02*
X51096100Y10731500D01*
X51096100Y10731500D02*
X50988000Y10623400D01*
D27*
X39266908Y5181604D02*
X47217860Y5181604D01*
X32308800Y6858000D02*
X32308812Y6858000D01*
X38962108Y5486404D02*
X39266908Y5181604D01*
X38047708Y5486404D02*
X38962108Y5486404D01*
X37438102Y6096010D02*
X38047708Y5486404D01*
X34464070Y6096010D02*
X37438102Y6096010D01*
X34159268Y6400812D02*
X34464070Y6096010D01*
X32766000Y6400812D02*
X34159268Y6400812D01*
X32308812Y6858000D02*
X32766000Y6400812D01*
X48437056Y6400800D02*
X48768000Y6400800D01*
X47217860Y5181604D02*
X48437056Y6400800D01*
X28041500Y14184800D02*
X29122200Y14184800D01*
X29122200Y14184800D02*
X29972000Y13335000D01*
D30*
G36*
X50088850Y10674250D02*
X50108850Y10674250D01*
X50108850Y10572550D01*
X50088850Y10572550D01*
X50088850Y9975787D01*
X50171387Y9893250D01*
X50378671Y9893250D01*
X50500015Y9943512D01*
X50588415Y10031912D01*
X50622339Y10008732D01*
X50713000Y9990373D01*
X51263000Y9990373D01*
X51347695Y10006310D01*
X51425483Y10056364D01*
X51477668Y10132739D01*
X51496027Y10223400D01*
X51496027Y10274350D01*
X51787802Y10274350D01*
X51789410Y10265805D01*
X51839464Y10188017D01*
X51915839Y10135832D01*
X52006500Y10117473D01*
X52895500Y10117473D01*
X52980195Y10133410D01*
X53036550Y10169673D01*
X53036550Y10014427D01*
X52961171Y10045650D01*
X52584387Y10045650D01*
X52501850Y9963113D01*
X52501850Y9385350D01*
X52521850Y9385350D01*
X52521850Y9283650D01*
X52501850Y9283650D01*
X52501850Y8705887D01*
X52584387Y8623350D01*
X52961171Y8623350D01*
X53036550Y8654573D01*
X53036550Y303450D01*
X303450Y303450D01*
X303450Y3613832D01*
X1549278Y3613832D01*
X1699763Y3249632D01*
X1978166Y2970742D01*
X2342103Y2819622D01*
X2736168Y2819278D01*
X3100368Y2969763D01*
X3379258Y3248166D01*
X3530378Y3612103D01*
X3530722Y4006168D01*
X3380237Y4370368D01*
X3101834Y4649258D01*
X2737897Y4800378D01*
X2343832Y4800722D01*
X1979632Y4650237D01*
X1700742Y4371834D01*
X1549622Y4007897D01*
X1549278Y3613832D01*
X303450Y3613832D01*
X303450Y6327167D01*
X328866Y6233899D01*
X535677Y5888671D01*
X858859Y5648865D01*
X1249210Y5550990D01*
X1699210Y5550990D01*
X1699210Y6530290D01*
X1800910Y6530290D01*
X1800910Y5550990D01*
X2250910Y5550990D01*
X2641261Y5648865D01*
X2964443Y5888671D01*
X3171254Y6233899D01*
X3208332Y6369962D01*
X3591248Y6369962D01*
X3628326Y6233899D01*
X3835137Y5888671D01*
X4158319Y5648865D01*
X4548670Y5550990D01*
X4998670Y5550990D01*
X4998670Y6530290D01*
X3653272Y6530290D01*
X3591248Y6369962D01*
X3208332Y6369962D01*
X3146308Y6530290D01*
X1800910Y6530290D01*
X1699210Y6530290D01*
X1679210Y6530290D01*
X1679210Y6631990D01*
X1699210Y6631990D01*
X1699210Y6651990D01*
X1800910Y6651990D01*
X1800910Y6631990D01*
X3146308Y6631990D01*
X3208332Y6792318D01*
X3171254Y6928381D01*
X2964443Y7273609D01*
X2906572Y7316550D01*
X3893008Y7316550D01*
X3835137Y7273609D01*
X3628326Y6928381D01*
X3591248Y6792318D01*
X3653272Y6631990D01*
X4998670Y6631990D01*
X4998670Y6651990D01*
X5100370Y6651990D01*
X5100370Y6631990D01*
X5120370Y6631990D01*
X5120370Y6530290D01*
X5100370Y6530290D01*
X5100370Y5550990D01*
X5550370Y5550990D01*
X5940721Y5648865D01*
X5956350Y5660462D01*
X5956350Y4282968D01*
X5920237Y4370368D01*
X5641834Y4649258D01*
X5277897Y4800378D01*
X4883832Y4800722D01*
X4519632Y4650237D01*
X4240742Y4371834D01*
X4089622Y4007897D01*
X4089278Y3613832D01*
X4239763Y3249632D01*
X4518166Y2970742D01*
X4882103Y2819622D01*
X5276168Y2819278D01*
X5640368Y2969763D01*
X5919258Y3248166D01*
X5956350Y3337493D01*
X5956350Y2692400D01*
X5991148Y2517456D01*
X6090246Y2369146D01*
X6649046Y1810346D01*
X6797356Y1711248D01*
X6972300Y1676449D01*
X6972305Y1676450D01*
X45719200Y1676450D01*
X45723222Y1677250D01*
X51816000Y1677250D01*
X51990944Y1712048D01*
X52139254Y1811146D01*
X52748454Y2420346D01*
X52847552Y2568656D01*
X52882350Y2743600D01*
X52882350Y6402000D01*
X52847552Y6576944D01*
X52748454Y6725254D01*
X52101954Y7371754D01*
X51953644Y7470852D01*
X51846745Y7492115D01*
X51842590Y7514195D01*
X51792536Y7591983D01*
X51716161Y7644168D01*
X51625500Y7662527D01*
X51445150Y7662527D01*
X51445150Y7685148D01*
X51477668Y7732739D01*
X51496027Y7823400D01*
X51496027Y8623400D01*
X51480090Y8708095D01*
X51430036Y8785883D01*
X51353661Y8838068D01*
X51263000Y8856427D01*
X50936381Y8856427D01*
X50591695Y9201113D01*
X51676350Y9201113D01*
X51676350Y8887829D01*
X51726612Y8766485D01*
X51819485Y8673612D01*
X51940829Y8623350D01*
X52317613Y8623350D01*
X52400150Y8705887D01*
X52400150Y9283650D01*
X51758887Y9283650D01*
X51676350Y9201113D01*
X50591695Y9201113D01*
X50011637Y9781171D01*
X51676350Y9781171D01*
X51676350Y9467887D01*
X51758887Y9385350D01*
X52400150Y9385350D01*
X52400150Y9963113D01*
X52317613Y10045650D01*
X51940829Y10045650D01*
X51819485Y9995388D01*
X51726612Y9902515D01*
X51676350Y9781171D01*
X50011637Y9781171D01*
X49899558Y9893250D01*
X49904613Y9893250D01*
X49987150Y9975787D01*
X49987150Y10572550D01*
X49967150Y10572550D01*
X49967150Y10674250D01*
X49987150Y10674250D01*
X49987150Y10694250D01*
X50088850Y10694250D01*
X50088850Y10674250D01*
X50088850Y10674250D01*
G37*
X50088850Y10674250D02*
X50108850Y10674250D01*
X50108850Y10572550D01*
X50088850Y10572550D01*
X50088850Y9975787D01*
X50171387Y9893250D01*
X50378671Y9893250D01*
X50500015Y9943512D01*
X50588415Y10031912D01*
X50622339Y10008732D01*
X50713000Y9990373D01*
X51263000Y9990373D01*
X51347695Y10006310D01*
X51425483Y10056364D01*
X51477668Y10132739D01*
X51496027Y10223400D01*
X51496027Y10274350D01*
X51787802Y10274350D01*
X51789410Y10265805D01*
X51839464Y10188017D01*
X51915839Y10135832D01*
X52006500Y10117473D01*
X52895500Y10117473D01*
X52980195Y10133410D01*
X53036550Y10169673D01*
X53036550Y10014427D01*
X52961171Y10045650D01*
X52584387Y10045650D01*
X52501850Y9963113D01*
X52501850Y9385350D01*
X52521850Y9385350D01*
X52521850Y9283650D01*
X52501850Y9283650D01*
X52501850Y8705887D01*
X52584387Y8623350D01*
X52961171Y8623350D01*
X53036550Y8654573D01*
X53036550Y303450D01*
X303450Y303450D01*
X303450Y3613832D01*
X1549278Y3613832D01*
X1699763Y3249632D01*
X1978166Y2970742D01*
X2342103Y2819622D01*
X2736168Y2819278D01*
X3100368Y2969763D01*
X3379258Y3248166D01*
X3530378Y3612103D01*
X3530722Y4006168D01*
X3380237Y4370368D01*
X3101834Y4649258D01*
X2737897Y4800378D01*
X2343832Y4800722D01*
X1979632Y4650237D01*
X1700742Y4371834D01*
X1549622Y4007897D01*
X1549278Y3613832D01*
X303450Y3613832D01*
X303450Y6327167D01*
X328866Y6233899D01*
X535677Y5888671D01*
X858859Y5648865D01*
X1249210Y5550990D01*
X1699210Y5550990D01*
X1699210Y6530290D01*
X1800910Y6530290D01*
X1800910Y5550990D01*
X2250910Y5550990D01*
X2641261Y5648865D01*
X2964443Y5888671D01*
X3171254Y6233899D01*
X3208332Y6369962D01*
X3591248Y6369962D01*
X3628326Y6233899D01*
X3835137Y5888671D01*
X4158319Y5648865D01*
X4548670Y5550990D01*
X4998670Y5550990D01*
X4998670Y6530290D01*
X3653272Y6530290D01*
X3591248Y6369962D01*
X3208332Y6369962D01*
X3146308Y6530290D01*
X1800910Y6530290D01*
X1699210Y6530290D01*
X1679210Y6530290D01*
X1679210Y6631990D01*
X1699210Y6631990D01*
X1699210Y6651990D01*
X1800910Y6651990D01*
X1800910Y6631990D01*
X3146308Y6631990D01*
X3208332Y6792318D01*
X3171254Y6928381D01*
X2964443Y7273609D01*
X2906572Y7316550D01*
X3893008Y7316550D01*
X3835137Y7273609D01*
X3628326Y6928381D01*
X3591248Y6792318D01*
X3653272Y6631990D01*
X4998670Y6631990D01*
X4998670Y6651990D01*
X5100370Y6651990D01*
X5100370Y6631990D01*
X5120370Y6631990D01*
X5120370Y6530290D01*
X5100370Y6530290D01*
X5100370Y5550990D01*
X5550370Y5550990D01*
X5940721Y5648865D01*
X5956350Y5660462D01*
X5956350Y4282968D01*
X5920237Y4370368D01*
X5641834Y4649258D01*
X5277897Y4800378D01*
X4883832Y4800722D01*
X4519632Y4650237D01*
X4240742Y4371834D01*
X4089622Y4007897D01*
X4089278Y3613832D01*
X4239763Y3249632D01*
X4518166Y2970742D01*
X4882103Y2819622D01*
X5276168Y2819278D01*
X5640368Y2969763D01*
X5919258Y3248166D01*
X5956350Y3337493D01*
X5956350Y2692400D01*
X5991148Y2517456D01*
X6090246Y2369146D01*
X6649046Y1810346D01*
X6797356Y1711248D01*
X6972300Y1676449D01*
X6972305Y1676450D01*
X45719200Y1676450D01*
X45723222Y1677250D01*
X51816000Y1677250D01*
X51990944Y1712048D01*
X52139254Y1811146D01*
X52748454Y2420346D01*
X52847552Y2568656D01*
X52882350Y2743600D01*
X52882350Y6402000D01*
X52847552Y6576944D01*
X52748454Y6725254D01*
X52101954Y7371754D01*
X51953644Y7470852D01*
X51846745Y7492115D01*
X51842590Y7514195D01*
X51792536Y7591983D01*
X51716161Y7644168D01*
X51625500Y7662527D01*
X51445150Y7662527D01*
X51445150Y7685148D01*
X51477668Y7732739D01*
X51496027Y7823400D01*
X51496027Y8623400D01*
X51480090Y8708095D01*
X51430036Y8785883D01*
X51353661Y8838068D01*
X51263000Y8856427D01*
X50936381Y8856427D01*
X50591695Y9201113D01*
X51676350Y9201113D01*
X51676350Y8887829D01*
X51726612Y8766485D01*
X51819485Y8673612D01*
X51940829Y8623350D01*
X52317613Y8623350D01*
X52400150Y8705887D01*
X52400150Y9283650D01*
X51758887Y9283650D01*
X51676350Y9201113D01*
X50591695Y9201113D01*
X50011637Y9781171D01*
X51676350Y9781171D01*
X51676350Y9467887D01*
X51758887Y9385350D01*
X52400150Y9385350D01*
X52400150Y9963113D01*
X52317613Y10045650D01*
X51940829Y10045650D01*
X51819485Y9995388D01*
X51726612Y9902515D01*
X51676350Y9781171D01*
X50011637Y9781171D01*
X49899558Y9893250D01*
X49904613Y9893250D01*
X49987150Y9975787D01*
X49987150Y10572550D01*
X49967150Y10572550D01*
X49967150Y10674250D01*
X49987150Y10674250D01*
X49987150Y10694250D01*
X50088850Y10694250D01*
X50088850Y10674250D01*
G36*
X48486839Y11278832D02*
X48501350Y11275893D01*
X48501350Y10752900D01*
X48536148Y10577956D01*
X48579973Y10512368D01*
X48579973Y10223400D01*
X48595910Y10138705D01*
X48630850Y10084405D01*
X48630850Y10058300D01*
X48665648Y9883356D01*
X48764746Y9735046D01*
X50479973Y8019819D01*
X50479973Y7823400D01*
X50495910Y7738705D01*
X50530850Y7684405D01*
X50530850Y7533359D01*
X50521832Y7520161D01*
X50503473Y7429500D01*
X50503473Y6667500D01*
X50519410Y6582805D01*
X50569464Y6505017D01*
X50645839Y6452832D01*
X50736500Y6434473D01*
X51625500Y6434473D01*
X51710195Y6450410D01*
X51722417Y6458275D01*
X51968050Y6212642D01*
X51968050Y2932958D01*
X51626642Y2591550D01*
X46177150Y2591550D01*
X46177150Y2927114D01*
X46280368Y2969763D01*
X46356636Y3045898D01*
X47567810Y3045898D01*
X47647296Y2880174D01*
X48049764Y2716481D01*
X48484240Y2719266D01*
X48872704Y2880174D01*
X48952190Y3045898D01*
X48260000Y3738087D01*
X47567810Y3045898D01*
X46356636Y3045898D01*
X46559258Y3248166D01*
X46710378Y3612103D01*
X46710722Y4006168D01*
X46704910Y4020236D01*
X47166481Y4020236D01*
X47169266Y3585760D01*
X47330174Y3197296D01*
X47495898Y3117810D01*
X48188087Y3810000D01*
X48331913Y3810000D01*
X49024102Y3117810D01*
X49189826Y3197296D01*
X49353519Y3599764D01*
X49350734Y4034240D01*
X49189826Y4422704D01*
X49024102Y4502190D01*
X48331913Y3810000D01*
X48188087Y3810000D01*
X47495898Y4502190D01*
X47330174Y4422704D01*
X47166481Y4020236D01*
X46704910Y4020236D01*
X46560237Y4370368D01*
X46356859Y4574102D01*
X47567810Y4574102D01*
X48260000Y3881913D01*
X48950087Y4572000D01*
X49804973Y4572000D01*
X49804973Y3048000D01*
X49820910Y2963305D01*
X49870964Y2885517D01*
X49947339Y2833332D01*
X50038000Y2814973D01*
X51562000Y2814973D01*
X51646695Y2830910D01*
X51724483Y2880964D01*
X51776668Y2957339D01*
X51795027Y3048000D01*
X51795027Y4572000D01*
X51779090Y4656695D01*
X51729036Y4734483D01*
X51652661Y4786668D01*
X51562000Y4805027D01*
X50038000Y4805027D01*
X49953305Y4789090D01*
X49875517Y4739036D01*
X49823332Y4662661D01*
X49804973Y4572000D01*
X48950087Y4572000D01*
X48952190Y4574102D01*
X48872704Y4739826D01*
X48470236Y4903519D01*
X48035760Y4900734D01*
X47647296Y4739826D01*
X47567810Y4574102D01*
X46356859Y4574102D01*
X46281834Y4649258D01*
X45917897Y4800378D01*
X45523832Y4800722D01*
X45159632Y4650237D01*
X44880742Y4371834D01*
X44729622Y4007897D01*
X44729278Y3613832D01*
X44879763Y3249632D01*
X45158166Y2970742D01*
X45262850Y2927273D01*
X45262850Y2590750D01*
X17042530Y2590750D01*
X17362563Y2910783D01*
X17582103Y2819622D01*
X17976168Y2819278D01*
X18340368Y2969763D01*
X18619258Y3248166D01*
X18770378Y3612103D01*
X18770722Y4006168D01*
X18679275Y4227486D01*
X18719031Y4267242D01*
X19437312Y4267242D01*
X19329622Y4007897D01*
X19329278Y3613832D01*
X19479763Y3249632D01*
X19758166Y2970742D01*
X20122103Y2819622D01*
X20516168Y2819278D01*
X20880368Y2969763D01*
X21159258Y3248166D01*
X21310378Y3612103D01*
X21310722Y4006168D01*
X21160237Y4370368D01*
X20881834Y4649258D01*
X20624750Y4756009D01*
X20624750Y4779688D01*
X21499292Y5654230D01*
X21499292Y4865958D01*
X21522490Y4749335D01*
X21563058Y4688620D01*
X21588551Y4650467D01*
X21975687Y4263331D01*
X21869622Y4007897D01*
X21869278Y3613832D01*
X22019763Y3249632D01*
X22298166Y2970742D01*
X22662103Y2819622D01*
X23056168Y2819278D01*
X23420368Y2969763D01*
X23699258Y3248166D01*
X23850378Y3612103D01*
X23850379Y3613832D01*
X24409278Y3613832D01*
X24559763Y3249632D01*
X24838166Y2970742D01*
X25202103Y2819622D01*
X25596168Y2819278D01*
X25960368Y2969763D01*
X26239258Y3248166D01*
X26390378Y3612103D01*
X26390379Y3613832D01*
X26949278Y3613832D01*
X27099763Y3249632D01*
X27378166Y2970742D01*
X27742103Y2819622D01*
X28136168Y2819278D01*
X28500368Y2969763D01*
X28779258Y3248166D01*
X28930378Y3612103D01*
X28930722Y4006168D01*
X28780237Y4370368D01*
X28501834Y4649258D01*
X28137897Y4800378D01*
X27743832Y4800722D01*
X27379632Y4650237D01*
X27100742Y4371834D01*
X26949622Y4007897D01*
X26949278Y3613832D01*
X26390379Y3613832D01*
X26390722Y4006168D01*
X26240237Y4370368D01*
X25961834Y4649258D01*
X25597897Y4800378D01*
X25203832Y4800722D01*
X24839632Y4650237D01*
X24560742Y4371834D01*
X24409622Y4007897D01*
X24409278Y3613832D01*
X23850379Y3613832D01*
X23850722Y4006168D01*
X23700237Y4370368D01*
X23421834Y4649258D01*
X23057897Y4800378D01*
X22663832Y4800722D01*
X22406562Y4694420D01*
X22108792Y4992190D01*
X22108792Y5792979D01*
X22296245Y5715143D01*
X22508424Y5714958D01*
X22614026Y5758592D01*
X22644509Y5728109D01*
X22743377Y5662048D01*
X22860000Y5638850D01*
X24610368Y5638850D01*
X24726991Y5662048D01*
X24825859Y5728109D01*
X25837128Y6739379D01*
X25912784Y6556276D01*
X26062687Y6406111D01*
X26258645Y6324743D01*
X26467657Y6324561D01*
X27064109Y5728109D01*
X27162977Y5662048D01*
X27279600Y5638850D01*
X28524968Y5638850D01*
X28740509Y5423309D01*
X28839377Y5357248D01*
X28956000Y5334050D01*
X29286968Y5334050D01*
X29502509Y5118509D01*
X29601377Y5052448D01*
X29718000Y5029250D01*
X30201368Y5029250D01*
X30430024Y4800594D01*
X30283832Y4800722D01*
X29919632Y4650237D01*
X29640742Y4371834D01*
X29489622Y4007897D01*
X29489278Y3613832D01*
X29639763Y3249632D01*
X29918166Y2970742D01*
X30282103Y2819622D01*
X30676168Y2819278D01*
X31040368Y2969763D01*
X31319258Y3248166D01*
X31470378Y3612103D01*
X31470722Y4006168D01*
X31356897Y4281643D01*
X31362775Y4290440D01*
X31371153Y4302978D01*
X31375878Y4326729D01*
X31430177Y4290448D01*
X31546800Y4267250D01*
X32131768Y4267250D01*
X32135687Y4263331D01*
X32029622Y4007897D01*
X32029278Y3613832D01*
X32179763Y3249632D01*
X32458166Y2970742D01*
X32822103Y2819622D01*
X33216168Y2819278D01*
X33580368Y2969763D01*
X33859258Y3248166D01*
X34010378Y3612103D01*
X34010722Y4006168D01*
X33902845Y4267250D01*
X34671768Y4267250D01*
X34675687Y4263331D01*
X34569622Y4007897D01*
X34569278Y3613832D01*
X34719763Y3249632D01*
X34998166Y2970742D01*
X35362103Y2819622D01*
X35756168Y2819278D01*
X36120368Y2969763D01*
X36399258Y3248166D01*
X36550378Y3612103D01*
X36550722Y4006168D01*
X36539149Y4034176D01*
X36593026Y3998177D01*
X36611777Y3985648D01*
X36728400Y3962450D01*
X37109582Y3962450D01*
X37109278Y3613832D01*
X37259763Y3249632D01*
X37538166Y2970742D01*
X37902103Y2819622D01*
X38296168Y2819278D01*
X38660368Y2969763D01*
X38939258Y3248166D01*
X39090378Y3612103D01*
X39090722Y4006168D01*
X38980019Y4274089D01*
X39014400Y4267250D01*
X39751768Y4267250D01*
X39755687Y4263331D01*
X39649622Y4007897D01*
X39649278Y3613832D01*
X39799763Y3249632D01*
X40078166Y2970742D01*
X40442103Y2819622D01*
X40836168Y2819278D01*
X41200368Y2969763D01*
X41479258Y3248166D01*
X41630378Y3612103D01*
X41630722Y4006168D01*
X41480237Y4370368D01*
X41278905Y4572052D01*
X41986966Y4572052D01*
X42295687Y4263331D01*
X42189622Y4007897D01*
X42189278Y3613832D01*
X42339763Y3249632D01*
X42618166Y2970742D01*
X42982103Y2819622D01*
X43376168Y2819278D01*
X43740368Y2969763D01*
X44019258Y3248166D01*
X44170378Y3612103D01*
X44170722Y4006168D01*
X44020237Y4370368D01*
X43741834Y4649258D01*
X43377897Y4800378D01*
X42983832Y4800722D01*
X42726562Y4694420D01*
X42544128Y4876854D01*
X47217860Y4876854D01*
X47334483Y4900052D01*
X47433351Y4966113D01*
X47985350Y5518113D01*
X49009350Y5518113D01*
X49009350Y5204829D01*
X49059612Y5083485D01*
X49152485Y4990612D01*
X49273829Y4940350D01*
X49650613Y4940350D01*
X49733150Y5022887D01*
X49733150Y5600650D01*
X49834850Y5600650D01*
X49834850Y5022887D01*
X49917387Y4940350D01*
X50294171Y4940350D01*
X50415515Y4990612D01*
X50482500Y5057597D01*
X50549485Y4990612D01*
X50670829Y4940350D01*
X51047613Y4940350D01*
X51130150Y5022887D01*
X51130150Y5600650D01*
X51231850Y5600650D01*
X51231850Y5022887D01*
X51314387Y4940350D01*
X51691171Y4940350D01*
X51812515Y4990612D01*
X51905388Y5083485D01*
X51955650Y5204829D01*
X51955650Y5518113D01*
X51873113Y5600650D01*
X51231850Y5600650D01*
X51130150Y5600650D01*
X50488887Y5600650D01*
X50482500Y5594263D01*
X50476113Y5600650D01*
X49834850Y5600650D01*
X49733150Y5600650D01*
X49091887Y5600650D01*
X49009350Y5518113D01*
X47985350Y5518113D01*
X48440839Y5973602D01*
X48465487Y5948911D01*
X48661445Y5867543D01*
X48873624Y5867358D01*
X49009350Y5923438D01*
X49009350Y5784887D01*
X49091887Y5702350D01*
X49733150Y5702350D01*
X49733150Y6280113D01*
X49834850Y6280113D01*
X49834850Y5702350D01*
X50476113Y5702350D01*
X50482500Y5708737D01*
X50488887Y5702350D01*
X51130150Y5702350D01*
X51130150Y6280113D01*
X51231850Y6280113D01*
X51231850Y5702350D01*
X51873113Y5702350D01*
X51955650Y5784887D01*
X51955650Y6098171D01*
X51905388Y6219515D01*
X51812515Y6312388D01*
X51691171Y6362650D01*
X51314387Y6362650D01*
X51231850Y6280113D01*
X51130150Y6280113D01*
X51047613Y6362650D01*
X50670829Y6362650D01*
X50549485Y6312388D01*
X50482500Y6245403D01*
X50415515Y6312388D01*
X50294171Y6362650D01*
X49917387Y6362650D01*
X49834850Y6280113D01*
X49733150Y6280113D01*
X49650613Y6362650D01*
X49301317Y6362650D01*
X49301386Y6442191D01*
X49339500Y6434473D01*
X50228500Y6434473D01*
X50313195Y6450410D01*
X50390983Y6500464D01*
X50443168Y6576839D01*
X50461527Y6667500D01*
X50461527Y7429500D01*
X50445590Y7514195D01*
X50395536Y7591983D01*
X50319161Y7644168D01*
X50228500Y7662527D01*
X49600955Y7662527D01*
X49558620Y7704862D01*
X49577668Y7732739D01*
X49596027Y7823400D01*
X49596027Y8623400D01*
X49580090Y8708095D01*
X49530036Y8785883D01*
X49453661Y8838068D01*
X49363000Y8856427D01*
X48813000Y8856427D01*
X48767950Y8847950D01*
X48767950Y9194056D01*
X48744752Y9310679D01*
X48678691Y9409547D01*
X48463150Y9625088D01*
X48463150Y11295018D01*
X48486839Y11278832D01*
X48486839Y11278832D01*
G37*
X48486839Y11278832D02*
X48501350Y11275893D01*
X48501350Y10752900D01*
X48536148Y10577956D01*
X48579973Y10512368D01*
X48579973Y10223400D01*
X48595910Y10138705D01*
X48630850Y10084405D01*
X48630850Y10058300D01*
X48665648Y9883356D01*
X48764746Y9735046D01*
X50479973Y8019819D01*
X50479973Y7823400D01*
X50495910Y7738705D01*
X50530850Y7684405D01*
X50530850Y7533359D01*
X50521832Y7520161D01*
X50503473Y7429500D01*
X50503473Y6667500D01*
X50519410Y6582805D01*
X50569464Y6505017D01*
X50645839Y6452832D01*
X50736500Y6434473D01*
X51625500Y6434473D01*
X51710195Y6450410D01*
X51722417Y6458275D01*
X51968050Y6212642D01*
X51968050Y2932958D01*
X51626642Y2591550D01*
X46177150Y2591550D01*
X46177150Y2927114D01*
X46280368Y2969763D01*
X46356636Y3045898D01*
X47567810Y3045898D01*
X47647296Y2880174D01*
X48049764Y2716481D01*
X48484240Y2719266D01*
X48872704Y2880174D01*
X48952190Y3045898D01*
X48260000Y3738087D01*
X47567810Y3045898D01*
X46356636Y3045898D01*
X46559258Y3248166D01*
X46710378Y3612103D01*
X46710722Y4006168D01*
X46704910Y4020236D01*
X47166481Y4020236D01*
X47169266Y3585760D01*
X47330174Y3197296D01*
X47495898Y3117810D01*
X48188087Y3810000D01*
X48331913Y3810000D01*
X49024102Y3117810D01*
X49189826Y3197296D01*
X49353519Y3599764D01*
X49350734Y4034240D01*
X49189826Y4422704D01*
X49024102Y4502190D01*
X48331913Y3810000D01*
X48188087Y3810000D01*
X47495898Y4502190D01*
X47330174Y4422704D01*
X47166481Y4020236D01*
X46704910Y4020236D01*
X46560237Y4370368D01*
X46356859Y4574102D01*
X47567810Y4574102D01*
X48260000Y3881913D01*
X48950087Y4572000D01*
X49804973Y4572000D01*
X49804973Y3048000D01*
X49820910Y2963305D01*
X49870964Y2885517D01*
X49947339Y2833332D01*
X50038000Y2814973D01*
X51562000Y2814973D01*
X51646695Y2830910D01*
X51724483Y2880964D01*
X51776668Y2957339D01*
X51795027Y3048000D01*
X51795027Y4572000D01*
X51779090Y4656695D01*
X51729036Y4734483D01*
X51652661Y4786668D01*
X51562000Y4805027D01*
X50038000Y4805027D01*
X49953305Y4789090D01*
X49875517Y4739036D01*
X49823332Y4662661D01*
X49804973Y4572000D01*
X48950087Y4572000D01*
X48952190Y4574102D01*
X48872704Y4739826D01*
X48470236Y4903519D01*
X48035760Y4900734D01*
X47647296Y4739826D01*
X47567810Y4574102D01*
X46356859Y4574102D01*
X46281834Y4649258D01*
X45917897Y4800378D01*
X45523832Y4800722D01*
X45159632Y4650237D01*
X44880742Y4371834D01*
X44729622Y4007897D01*
X44729278Y3613832D01*
X44879763Y3249632D01*
X45158166Y2970742D01*
X45262850Y2927273D01*
X45262850Y2590750D01*
X17042530Y2590750D01*
X17362563Y2910783D01*
X17582103Y2819622D01*
X17976168Y2819278D01*
X18340368Y2969763D01*
X18619258Y3248166D01*
X18770378Y3612103D01*
X18770722Y4006168D01*
X18679275Y4227486D01*
X18719031Y4267242D01*
X19437312Y4267242D01*
X19329622Y4007897D01*
X19329278Y3613832D01*
X19479763Y3249632D01*
X19758166Y2970742D01*
X20122103Y2819622D01*
X20516168Y2819278D01*
X20880368Y2969763D01*
X21159258Y3248166D01*
X21310378Y3612103D01*
X21310722Y4006168D01*
X21160237Y4370368D01*
X20881834Y4649258D01*
X20624750Y4756009D01*
X20624750Y4779688D01*
X21499292Y5654230D01*
X21499292Y4865958D01*
X21522490Y4749335D01*
X21563058Y4688620D01*
X21588551Y4650467D01*
X21975687Y4263331D01*
X21869622Y4007897D01*
X21869278Y3613832D01*
X22019763Y3249632D01*
X22298166Y2970742D01*
X22662103Y2819622D01*
X23056168Y2819278D01*
X23420368Y2969763D01*
X23699258Y3248166D01*
X23850378Y3612103D01*
X23850379Y3613832D01*
X24409278Y3613832D01*
X24559763Y3249632D01*
X24838166Y2970742D01*
X25202103Y2819622D01*
X25596168Y2819278D01*
X25960368Y2969763D01*
X26239258Y3248166D01*
X26390378Y3612103D01*
X26390379Y3613832D01*
X26949278Y3613832D01*
X27099763Y3249632D01*
X27378166Y2970742D01*
X27742103Y2819622D01*
X28136168Y2819278D01*
X28500368Y2969763D01*
X28779258Y3248166D01*
X28930378Y3612103D01*
X28930722Y4006168D01*
X28780237Y4370368D01*
X28501834Y4649258D01*
X28137897Y4800378D01*
X27743832Y4800722D01*
X27379632Y4650237D01*
X27100742Y4371834D01*
X26949622Y4007897D01*
X26949278Y3613832D01*
X26390379Y3613832D01*
X26390722Y4006168D01*
X26240237Y4370368D01*
X25961834Y4649258D01*
X25597897Y4800378D01*
X25203832Y4800722D01*
X24839632Y4650237D01*
X24560742Y4371834D01*
X24409622Y4007897D01*
X24409278Y3613832D01*
X23850379Y3613832D01*
X23850722Y4006168D01*
X23700237Y4370368D01*
X23421834Y4649258D01*
X23057897Y4800378D01*
X22663832Y4800722D01*
X22406562Y4694420D01*
X22108792Y4992190D01*
X22108792Y5792979D01*
X22296245Y5715143D01*
X22508424Y5714958D01*
X22614026Y5758592D01*
X22644509Y5728109D01*
X22743377Y5662048D01*
X22860000Y5638850D01*
X24610368Y5638850D01*
X24726991Y5662048D01*
X24825859Y5728109D01*
X25837128Y6739379D01*
X25912784Y6556276D01*
X26062687Y6406111D01*
X26258645Y6324743D01*
X26467657Y6324561D01*
X27064109Y5728109D01*
X27162977Y5662048D01*
X27279600Y5638850D01*
X28524968Y5638850D01*
X28740509Y5423309D01*
X28839377Y5357248D01*
X28956000Y5334050D01*
X29286968Y5334050D01*
X29502509Y5118509D01*
X29601377Y5052448D01*
X29718000Y5029250D01*
X30201368Y5029250D01*
X30430024Y4800594D01*
X30283832Y4800722D01*
X29919632Y4650237D01*
X29640742Y4371834D01*
X29489622Y4007897D01*
X29489278Y3613832D01*
X29639763Y3249632D01*
X29918166Y2970742D01*
X30282103Y2819622D01*
X30676168Y2819278D01*
X31040368Y2969763D01*
X31319258Y3248166D01*
X31470378Y3612103D01*
X31470722Y4006168D01*
X31356897Y4281643D01*
X31362775Y4290440D01*
X31371153Y4302978D01*
X31375878Y4326729D01*
X31430177Y4290448D01*
X31546800Y4267250D01*
X32131768Y4267250D01*
X32135687Y4263331D01*
X32029622Y4007897D01*
X32029278Y3613832D01*
X32179763Y3249632D01*
X32458166Y2970742D01*
X32822103Y2819622D01*
X33216168Y2819278D01*
X33580368Y2969763D01*
X33859258Y3248166D01*
X34010378Y3612103D01*
X34010722Y4006168D01*
X33902845Y4267250D01*
X34671768Y4267250D01*
X34675687Y4263331D01*
X34569622Y4007897D01*
X34569278Y3613832D01*
X34719763Y3249632D01*
X34998166Y2970742D01*
X35362103Y2819622D01*
X35756168Y2819278D01*
X36120368Y2969763D01*
X36399258Y3248166D01*
X36550378Y3612103D01*
X36550722Y4006168D01*
X36539149Y4034176D01*
X36593026Y3998177D01*
X36611777Y3985648D01*
X36728400Y3962450D01*
X37109582Y3962450D01*
X37109278Y3613832D01*
X37259763Y3249632D01*
X37538166Y2970742D01*
X37902103Y2819622D01*
X38296168Y2819278D01*
X38660368Y2969763D01*
X38939258Y3248166D01*
X39090378Y3612103D01*
X39090722Y4006168D01*
X38980019Y4274089D01*
X39014400Y4267250D01*
X39751768Y4267250D01*
X39755687Y4263331D01*
X39649622Y4007897D01*
X39649278Y3613832D01*
X39799763Y3249632D01*
X40078166Y2970742D01*
X40442103Y2819622D01*
X40836168Y2819278D01*
X41200368Y2969763D01*
X41479258Y3248166D01*
X41630378Y3612103D01*
X41630722Y4006168D01*
X41480237Y4370368D01*
X41278905Y4572052D01*
X41986966Y4572052D01*
X42295687Y4263331D01*
X42189622Y4007897D01*
X42189278Y3613832D01*
X42339763Y3249632D01*
X42618166Y2970742D01*
X42982103Y2819622D01*
X43376168Y2819278D01*
X43740368Y2969763D01*
X44019258Y3248166D01*
X44170378Y3612103D01*
X44170722Y4006168D01*
X44020237Y4370368D01*
X43741834Y4649258D01*
X43377897Y4800378D01*
X42983832Y4800722D01*
X42726562Y4694420D01*
X42544128Y4876854D01*
X47217860Y4876854D01*
X47334483Y4900052D01*
X47433351Y4966113D01*
X47985350Y5518113D01*
X49009350Y5518113D01*
X49009350Y5204829D01*
X49059612Y5083485D01*
X49152485Y4990612D01*
X49273829Y4940350D01*
X49650613Y4940350D01*
X49733150Y5022887D01*
X49733150Y5600650D01*
X49834850Y5600650D01*
X49834850Y5022887D01*
X49917387Y4940350D01*
X50294171Y4940350D01*
X50415515Y4990612D01*
X50482500Y5057597D01*
X50549485Y4990612D01*
X50670829Y4940350D01*
X51047613Y4940350D01*
X51130150Y5022887D01*
X51130150Y5600650D01*
X51231850Y5600650D01*
X51231850Y5022887D01*
X51314387Y4940350D01*
X51691171Y4940350D01*
X51812515Y4990612D01*
X51905388Y5083485D01*
X51955650Y5204829D01*
X51955650Y5518113D01*
X51873113Y5600650D01*
X51231850Y5600650D01*
X51130150Y5600650D01*
X50488887Y5600650D01*
X50482500Y5594263D01*
X50476113Y5600650D01*
X49834850Y5600650D01*
X49733150Y5600650D01*
X49091887Y5600650D01*
X49009350Y5518113D01*
X47985350Y5518113D01*
X48440839Y5973602D01*
X48465487Y5948911D01*
X48661445Y5867543D01*
X48873624Y5867358D01*
X49009350Y5923438D01*
X49009350Y5784887D01*
X49091887Y5702350D01*
X49733150Y5702350D01*
X49733150Y6280113D01*
X49834850Y6280113D01*
X49834850Y5702350D01*
X50476113Y5702350D01*
X50482500Y5708737D01*
X50488887Y5702350D01*
X51130150Y5702350D01*
X51130150Y6280113D01*
X51231850Y6280113D01*
X51231850Y5702350D01*
X51873113Y5702350D01*
X51955650Y5784887D01*
X51955650Y6098171D01*
X51905388Y6219515D01*
X51812515Y6312388D01*
X51691171Y6362650D01*
X51314387Y6362650D01*
X51231850Y6280113D01*
X51130150Y6280113D01*
X51047613Y6362650D01*
X50670829Y6362650D01*
X50549485Y6312388D01*
X50482500Y6245403D01*
X50415515Y6312388D01*
X50294171Y6362650D01*
X49917387Y6362650D01*
X49834850Y6280113D01*
X49733150Y6280113D01*
X49650613Y6362650D01*
X49301317Y6362650D01*
X49301386Y6442191D01*
X49339500Y6434473D01*
X50228500Y6434473D01*
X50313195Y6450410D01*
X50390983Y6500464D01*
X50443168Y6576839D01*
X50461527Y6667500D01*
X50461527Y7429500D01*
X50445590Y7514195D01*
X50395536Y7591983D01*
X50319161Y7644168D01*
X50228500Y7662527D01*
X49600955Y7662527D01*
X49558620Y7704862D01*
X49577668Y7732739D01*
X49596027Y7823400D01*
X49596027Y8623400D01*
X49580090Y8708095D01*
X49530036Y8785883D01*
X49453661Y8838068D01*
X49363000Y8856427D01*
X48813000Y8856427D01*
X48767950Y8847950D01*
X48767950Y9194056D01*
X48744752Y9310679D01*
X48678691Y9409547D01*
X48463150Y9625088D01*
X48463150Y11295018D01*
X48486839Y11278832D01*
G36*
X11709622Y4007897D02*
X11709278Y3613832D01*
X11859763Y3249632D01*
X12138166Y2970742D01*
X12319243Y2895552D01*
X10540764Y2895552D01*
X10720368Y2969763D01*
X10999258Y3248166D01*
X11150378Y3612103D01*
X11150722Y4006168D01*
X11059273Y4227489D01*
X11099032Y4267248D01*
X11817314Y4267248D01*
X11709622Y4007897D01*
X11709622Y4007897D01*
G37*
X11709622Y4007897D02*
X11709278Y3613832D01*
X11859763Y3249632D01*
X12138166Y2970742D01*
X12319243Y2895552D01*
X10540764Y2895552D01*
X10720368Y2969763D01*
X10999258Y3248166D01*
X11150378Y3612103D01*
X11150722Y4006168D01*
X11059273Y4227489D01*
X11099032Y4267248D01*
X11817314Y4267248D01*
X11709622Y4007897D01*
G36*
X16789622Y4007897D02*
X16789278Y3613832D01*
X16910433Y3320617D01*
X16485368Y2895552D01*
X15620764Y2895552D01*
X15800368Y2969763D01*
X16079258Y3248166D01*
X16230378Y3612103D01*
X16230722Y4006168D01*
X16124422Y4263434D01*
X16128232Y4267244D01*
X16897312Y4267244D01*
X16789622Y4007897D01*
X16789622Y4007897D01*
G37*
X16789622Y4007897D02*
X16789278Y3613832D01*
X16910433Y3320617D01*
X16485368Y2895552D01*
X15620764Y2895552D01*
X15800368Y2969763D01*
X16079258Y3248166D01*
X16230378Y3612103D01*
X16230722Y4006168D01*
X16124422Y4263434D01*
X16128232Y4267244D01*
X16897312Y4267244D01*
X16789622Y4007897D01*
G36*
X12649250Y12318232D02*
X12255907Y11924889D01*
X12189846Y11826021D01*
X12166648Y11709398D01*
X12166648Y10286972D01*
X12086376Y10287042D01*
X11890276Y10206016D01*
X11740111Y10056113D01*
X11658743Y9860155D01*
X11658558Y9647976D01*
X11739584Y9451876D01*
X11889487Y9301711D01*
X12085445Y9220343D01*
X12297624Y9220158D01*
X12471450Y9291981D01*
X12471450Y8062243D01*
X12395343Y7878955D01*
X12395158Y7666776D01*
X12476184Y7470676D01*
X12626087Y7320511D01*
X12822045Y7239143D01*
X13034224Y7238958D01*
X13111973Y7271083D01*
X13111973Y7042650D01*
X11623387Y7042650D01*
X11540850Y6960113D01*
X11540850Y6163350D01*
X13612613Y6163350D01*
X13695150Y6245887D01*
X13695150Y6729473D01*
X14595000Y6729473D01*
X14679695Y6745410D01*
X14757483Y6795464D01*
X14809668Y6871839D01*
X14828027Y6962500D01*
X14828027Y6977229D01*
X14846723Y6980948D01*
X14945591Y7047009D01*
X15303091Y7404509D01*
X15369152Y7503377D01*
X15392350Y7620000D01*
X15392350Y8103368D01*
X16065091Y8776109D01*
X16097747Y8824983D01*
X16131152Y8874977D01*
X16154350Y8991600D01*
X16154350Y9779768D01*
X16433031Y10058450D01*
X19812000Y10058450D01*
X19928623Y10081648D01*
X20027491Y10147709D01*
X21869407Y11989625D01*
X21869358Y11933976D01*
X21950384Y11737876D01*
X21978548Y11709662D01*
X21962638Y11699031D01*
X21882509Y11645491D01*
X21882507Y11645488D01*
X21272909Y11035891D01*
X21206848Y10937023D01*
X21183650Y10820400D01*
X21183650Y10032232D01*
X19748899Y8597481D01*
X19682838Y8498613D01*
X19659640Y8381990D01*
X19659640Y6831822D01*
X18923768Y6095950D01*
X17068800Y6095950D01*
X16952177Y6072752D01*
X16853309Y6006691D01*
X16637768Y5791150D01*
X14630400Y5791150D01*
X14513777Y5767952D01*
X14414909Y5701891D01*
X14199368Y5486350D01*
X13695150Y5486350D01*
X13695150Y5979113D01*
X13612613Y6061650D01*
X11540850Y6061650D01*
X11540850Y5264887D01*
X11616378Y5189359D01*
X11608568Y5181550D01*
X9753600Y5181550D01*
X9636977Y5158352D01*
X9538112Y5092293D01*
X9538109Y5092291D01*
X9067572Y4621754D01*
X9067742Y4816224D01*
X8986716Y5012324D01*
X8836813Y5162489D01*
X8686750Y5224800D01*
X8686750Y5979113D01*
X9284850Y5979113D01*
X9284850Y5446829D01*
X9335112Y5325485D01*
X9427985Y5232612D01*
X9549329Y5182350D01*
X11356613Y5182350D01*
X11439150Y5264887D01*
X11439150Y6061650D01*
X9367387Y6061650D01*
X9284850Y5979113D01*
X8686750Y5979113D01*
X8686750Y6778171D01*
X9284850Y6778171D01*
X9284850Y6245887D01*
X9367387Y6163350D01*
X11439150Y6163350D01*
X11439150Y6960113D01*
X11356613Y7042650D01*
X9549329Y7042650D01*
X9427985Y6992388D01*
X9335112Y6899515D01*
X9284850Y6778171D01*
X8686750Y6778171D01*
X8686750Y11913368D01*
X9117828Y12344446D01*
X10983634Y12344446D01*
X11100257Y12367644D01*
X11199125Y12433705D01*
X11871867Y13106448D01*
X12470654Y13106448D01*
X12587277Y13129646D01*
X12649250Y13171055D01*
X12649250Y12318232D01*
X12649250Y12318232D01*
G37*
X12649250Y12318232D02*
X12255907Y11924889D01*
X12189846Y11826021D01*
X12166648Y11709398D01*
X12166648Y10286972D01*
X12086376Y10287042D01*
X11890276Y10206016D01*
X11740111Y10056113D01*
X11658743Y9860155D01*
X11658558Y9647976D01*
X11739584Y9451876D01*
X11889487Y9301711D01*
X12085445Y9220343D01*
X12297624Y9220158D01*
X12471450Y9291981D01*
X12471450Y8062243D01*
X12395343Y7878955D01*
X12395158Y7666776D01*
X12476184Y7470676D01*
X12626087Y7320511D01*
X12822045Y7239143D01*
X13034224Y7238958D01*
X13111973Y7271083D01*
X13111973Y7042650D01*
X11623387Y7042650D01*
X11540850Y6960113D01*
X11540850Y6163350D01*
X13612613Y6163350D01*
X13695150Y6245887D01*
X13695150Y6729473D01*
X14595000Y6729473D01*
X14679695Y6745410D01*
X14757483Y6795464D01*
X14809668Y6871839D01*
X14828027Y6962500D01*
X14828027Y6977229D01*
X14846723Y6980948D01*
X14945591Y7047009D01*
X15303091Y7404509D01*
X15369152Y7503377D01*
X15392350Y7620000D01*
X15392350Y8103368D01*
X16065091Y8776109D01*
X16097747Y8824983D01*
X16131152Y8874977D01*
X16154350Y8991600D01*
X16154350Y9779768D01*
X16433031Y10058450D01*
X19812000Y10058450D01*
X19928623Y10081648D01*
X20027491Y10147709D01*
X21869407Y11989625D01*
X21869358Y11933976D01*
X21950384Y11737876D01*
X21978548Y11709662D01*
X21962638Y11699031D01*
X21882509Y11645491D01*
X21882507Y11645488D01*
X21272909Y11035891D01*
X21206848Y10937023D01*
X21183650Y10820400D01*
X21183650Y10032232D01*
X19748899Y8597481D01*
X19682838Y8498613D01*
X19659640Y8381990D01*
X19659640Y6831822D01*
X18923768Y6095950D01*
X17068800Y6095950D01*
X16952177Y6072752D01*
X16853309Y6006691D01*
X16637768Y5791150D01*
X14630400Y5791150D01*
X14513777Y5767952D01*
X14414909Y5701891D01*
X14199368Y5486350D01*
X13695150Y5486350D01*
X13695150Y5979113D01*
X13612613Y6061650D01*
X11540850Y6061650D01*
X11540850Y5264887D01*
X11616378Y5189359D01*
X11608568Y5181550D01*
X9753600Y5181550D01*
X9636977Y5158352D01*
X9538112Y5092293D01*
X9538109Y5092291D01*
X9067572Y4621754D01*
X9067742Y4816224D01*
X8986716Y5012324D01*
X8836813Y5162489D01*
X8686750Y5224800D01*
X8686750Y5979113D01*
X9284850Y5979113D01*
X9284850Y5446829D01*
X9335112Y5325485D01*
X9427985Y5232612D01*
X9549329Y5182350D01*
X11356613Y5182350D01*
X11439150Y5264887D01*
X11439150Y6061650D01*
X9367387Y6061650D01*
X9284850Y5979113D01*
X8686750Y5979113D01*
X8686750Y6778171D01*
X9284850Y6778171D01*
X9284850Y6245887D01*
X9367387Y6163350D01*
X11439150Y6163350D01*
X11439150Y6960113D01*
X11356613Y7042650D01*
X9549329Y7042650D01*
X9427985Y6992388D01*
X9335112Y6899515D01*
X9284850Y6778171D01*
X8686750Y6778171D01*
X8686750Y11913368D01*
X9117828Y12344446D01*
X10983634Y12344446D01*
X11100257Y12367644D01*
X11199125Y12433705D01*
X11871867Y13106448D01*
X12470654Y13106448D01*
X12587277Y13129646D01*
X12649250Y13171055D01*
X12649250Y12318232D01*
G36*
X7861707Y12381345D02*
X7795646Y12282477D01*
X7772448Y12165854D01*
X7772448Y6374632D01*
X7377741Y5979925D01*
X7282055Y6019657D01*
X7157760Y6019765D01*
X7175450Y6108700D01*
X7175450Y6136357D01*
X7251557Y6319645D01*
X7251742Y6531824D01*
X7175450Y6716467D01*
X7175450Y7302500D01*
X7140652Y7477444D01*
X7041554Y7625754D01*
X7010350Y7656958D01*
X7010350Y12954050D01*
X8434412Y12954050D01*
X7861707Y12381345D01*
X7861707Y12381345D01*
G37*
X7861707Y12381345D02*
X7795646Y12282477D01*
X7772448Y12165854D01*
X7772448Y6374632D01*
X7377741Y5979925D01*
X7282055Y6019657D01*
X7157760Y6019765D01*
X7175450Y6108700D01*
X7175450Y6136357D01*
X7251557Y6319645D01*
X7251742Y6531824D01*
X7175450Y6716467D01*
X7175450Y7302500D01*
X7140652Y7477444D01*
X7041554Y7625754D01*
X7010350Y7656958D01*
X7010350Y12954050D01*
X8434412Y12954050D01*
X7861707Y12381345D01*
G36*
X53036550Y15841694D02*
X53033661Y15843668D01*
X52943000Y15862027D01*
X52243000Y15862027D01*
X52158305Y15846090D01*
X52080517Y15796036D01*
X52028332Y15719661D01*
X52009973Y15629000D01*
X52009973Y14729000D01*
X52025910Y14644305D01*
X52075964Y14566517D01*
X52133260Y14527368D01*
X51728242Y14122350D01*
X50109583Y14122350D01*
X50095070Y14199475D01*
X50045016Y14277263D01*
X49968641Y14329448D01*
X49877980Y14347807D01*
X48928020Y14347807D01*
X48843325Y14331870D01*
X48765537Y14281816D01*
X48713352Y14205441D01*
X48694993Y14114780D01*
X48694993Y13603701D01*
X48635246Y13543954D01*
X48536148Y13395644D01*
X48501350Y13220700D01*
X48501350Y12601198D01*
X48492805Y12599590D01*
X48415017Y12549536D01*
X48362832Y12473161D01*
X48344473Y12382500D01*
X48344473Y11852709D01*
X47950513Y12246669D01*
X48056578Y12502103D01*
X48056922Y12896168D01*
X47906437Y13260368D01*
X47628034Y13539258D01*
X47264097Y13690378D01*
X46870032Y13690722D01*
X46505832Y13540237D01*
X46226942Y13261834D01*
X46075822Y12897897D01*
X46075478Y12503832D01*
X46225963Y12139632D01*
X46504366Y11860742D01*
X46868303Y11709622D01*
X47262368Y11709278D01*
X47519638Y11815580D01*
X47853650Y11481568D01*
X47853650Y10773247D01*
X47628034Y10999258D01*
X47264097Y11150378D01*
X46870032Y11150722D01*
X46505832Y11000237D01*
X46226942Y10721834D01*
X46075822Y10357897D01*
X46075478Y9963832D01*
X46225963Y9599632D01*
X46504366Y9320742D01*
X46868303Y9169622D01*
X47262368Y9169278D01*
X47519638Y9275580D01*
X47853648Y8941570D01*
X47853648Y8233249D01*
X47628034Y8459258D01*
X47264097Y8610378D01*
X46870032Y8610722D01*
X46505832Y8460237D01*
X46226942Y8181834D01*
X46075822Y7817897D01*
X46075478Y7423832D01*
X46225963Y7059632D01*
X46504366Y6780742D01*
X46868303Y6629622D01*
X47262368Y6629278D01*
X47449946Y6706784D01*
X46839120Y6095958D01*
X39645648Y6095958D01*
X39430107Y6311499D01*
X39430104Y6311501D01*
X39331239Y6377560D01*
X39214616Y6400758D01*
X38426448Y6400758D01*
X38121540Y6705666D01*
X40081216Y6705666D01*
X40197839Y6728864D01*
X40296707Y6794925D01*
X41363491Y7861709D01*
X41429552Y7960577D01*
X41452750Y8077200D01*
X41452750Y14334052D01*
X41455087Y14331711D01*
X41651045Y14250343D01*
X41863224Y14250158D01*
X42059324Y14331184D01*
X42209489Y14481087D01*
X42290857Y14677045D01*
X42291042Y14889224D01*
X42214750Y15073867D01*
X42214750Y15103357D01*
X42216101Y15106613D01*
X45974050Y15106613D01*
X45974050Y14412329D01*
X46024312Y14290985D01*
X46117185Y14198112D01*
X46238529Y14147850D01*
X46932813Y14147850D01*
X47015350Y14230387D01*
X47015350Y15189150D01*
X47117050Y15189150D01*
X47117050Y14230387D01*
X47199587Y14147850D01*
X47893871Y14147850D01*
X48015215Y14198112D01*
X48108088Y14290985D01*
X48158350Y14412329D01*
X48158350Y15106613D01*
X48075813Y15189150D01*
X47117050Y15189150D01*
X47015350Y15189150D01*
X46056587Y15189150D01*
X45974050Y15106613D01*
X42216101Y15106613D01*
X42290857Y15286645D01*
X42291042Y15498824D01*
X42221540Y15667032D01*
X42622179Y16067671D01*
X45974050Y16067671D01*
X45974050Y15373387D01*
X46056587Y15290850D01*
X47015350Y15290850D01*
X47015350Y16249613D01*
X47117050Y16249613D01*
X47117050Y15290850D01*
X48075813Y15290850D01*
X48158350Y15373387D01*
X48158350Y16067671D01*
X48108088Y16189015D01*
X48015215Y16281888D01*
X47893871Y16332150D01*
X47199587Y16332150D01*
X47117050Y16249613D01*
X47015350Y16249613D01*
X46932813Y16332150D01*
X46238529Y16332150D01*
X46117185Y16281888D01*
X46024312Y16189015D01*
X45974050Y16067671D01*
X42622179Y16067671D01*
X43318558Y16764050D01*
X44958000Y16764050D01*
X45132944Y16798848D01*
X45281254Y16897946D01*
X45452306Y17068998D01*
X48502294Y17068998D01*
X48694993Y16876299D01*
X48694993Y16365220D01*
X48710930Y16280525D01*
X48760984Y16202737D01*
X48837359Y16150552D01*
X48928020Y16132193D01*
X49439099Y16132193D01*
X50709973Y14861319D01*
X50709973Y14729000D01*
X50725910Y14644305D01*
X50775964Y14566517D01*
X50852339Y14514332D01*
X50943000Y14495973D01*
X51643000Y14495973D01*
X51727695Y14511910D01*
X51805483Y14561964D01*
X51857668Y14638339D01*
X51876027Y14729000D01*
X51876027Y15629000D01*
X51860090Y15713695D01*
X51810036Y15791483D01*
X51733661Y15843668D01*
X51643000Y15862027D01*
X51002281Y15862027D01*
X50111007Y16753301D01*
X50111007Y17025576D01*
X50672858Y17025576D01*
X50749150Y16840933D01*
X50749150Y16811443D01*
X50673043Y16628155D01*
X50672858Y16415976D01*
X50753884Y16219876D01*
X50903787Y16069711D01*
X51099745Y15988343D01*
X51311924Y15988158D01*
X51508024Y16069184D01*
X51658189Y16219087D01*
X51731638Y16395973D01*
X52293000Y16395973D01*
X52377695Y16411910D01*
X52455483Y16461964D01*
X52507668Y16538339D01*
X52526027Y16629000D01*
X52526027Y17529000D01*
X52510090Y17613695D01*
X52460036Y17691483D01*
X52383661Y17743668D01*
X52293000Y17762027D01*
X51593000Y17762027D01*
X51508305Y17746090D01*
X51430517Y17696036D01*
X51387704Y17633377D01*
X51312855Y17664457D01*
X51100676Y17664642D01*
X50904576Y17583616D01*
X50754411Y17433713D01*
X50673043Y17237755D01*
X50672858Y17025576D01*
X50111007Y17025576D01*
X50111007Y17264380D01*
X50095070Y17349075D01*
X50045016Y17426863D01*
X49968641Y17479048D01*
X49877980Y17497407D01*
X49366901Y17497407D01*
X49014906Y17849402D01*
X48866596Y17948500D01*
X48691652Y17983298D01*
X47624280Y17983298D01*
X47806669Y18165687D01*
X48062103Y18059622D01*
X48456168Y18059278D01*
X48820368Y18209763D01*
X49099258Y18488166D01*
X49250378Y18852103D01*
X49250722Y19246168D01*
X49100237Y19610368D01*
X48821834Y19889258D01*
X48457897Y20040378D01*
X48063832Y20040722D01*
X47699632Y19890237D01*
X47420742Y19611834D01*
X47269622Y19247897D01*
X47269278Y18853832D01*
X47375580Y18596562D01*
X47067118Y18288100D01*
X46358842Y18288100D01*
X46559258Y18488166D01*
X46710378Y18852103D01*
X46710722Y19246168D01*
X46560237Y19610368D01*
X46281834Y19889258D01*
X45917897Y20040378D01*
X45523832Y20040722D01*
X45159632Y19890237D01*
X44880742Y19611834D01*
X44729622Y19247897D01*
X44729278Y18853832D01*
X44832411Y18604231D01*
X44516134Y18287954D01*
X43818696Y18287954D01*
X44019258Y18488166D01*
X44170378Y18852103D01*
X44170722Y19246168D01*
X44020237Y19610368D01*
X43741834Y19889258D01*
X43377897Y20040378D01*
X42983832Y20040722D01*
X42619632Y19890237D01*
X42367100Y19638146D01*
X42367100Y19775862D01*
X42861237Y20270000D01*
X51485062Y20270000D01*
X51816000Y19939063D01*
X51816000Y19808763D01*
X51795027Y19758254D01*
X51795027Y19812000D01*
X51779090Y19896695D01*
X51729036Y19974483D01*
X51652661Y20026668D01*
X51562000Y20045027D01*
X50038000Y20045027D01*
X49953305Y20029090D01*
X49875517Y19979036D01*
X49823332Y19902661D01*
X49804973Y19812000D01*
X49804973Y18288000D01*
X49820910Y18203305D01*
X49870964Y18125517D01*
X49947339Y18073332D01*
X50038000Y18054973D01*
X51562000Y18054973D01*
X51646695Y18070910D01*
X51724483Y18120964D01*
X51776668Y18197339D01*
X51795027Y18288000D01*
X51795027Y19279171D01*
X51820684Y19217076D01*
X51970587Y19066911D01*
X52166545Y18985543D01*
X52378724Y18985358D01*
X52574824Y19066384D01*
X52724989Y19216287D01*
X52806357Y19412245D01*
X52806542Y19624424D01*
X52730200Y19809188D01*
X52730200Y20128395D01*
X52730201Y20128400D01*
X52695406Y20303324D01*
X52639158Y20387505D01*
X52596319Y20451619D01*
X52596316Y20451621D01*
X51997619Y21050319D01*
X51849325Y21149405D01*
X51820302Y21155178D01*
X51674400Y21184201D01*
X51674395Y21184200D01*
X42671900Y21184200D01*
X42496975Y21149405D01*
X42348681Y21050319D01*
X42348679Y21050316D01*
X41586781Y20288419D01*
X41487695Y20140125D01*
X41487695Y20140124D01*
X41452899Y19965200D01*
X41452900Y19965195D01*
X41452900Y19637753D01*
X41201834Y19889258D01*
X40837897Y20040378D01*
X40443832Y20040722D01*
X40079632Y19890237D01*
X39966494Y19777297D01*
X40004757Y19869445D01*
X40004942Y20081624D01*
X39923916Y20277724D01*
X39774013Y20427889D01*
X39589506Y20504502D01*
X39043954Y21050054D01*
X38895644Y21149152D01*
X38720700Y21183950D01*
X9601200Y21183950D01*
X9426256Y21149152D01*
X9277946Y21050054D01*
X9277141Y21048849D01*
X8515946Y20287654D01*
X8416848Y20139344D01*
X8382050Y19964400D01*
X8382050Y19688692D01*
X8181834Y19889258D01*
X7817897Y20040378D01*
X7423832Y20040722D01*
X7059632Y19890237D01*
X6780742Y19611834D01*
X6629622Y19247897D01*
X6629278Y18853832D01*
X6779763Y18489632D01*
X7058166Y18210742D01*
X7422103Y18059622D01*
X7816168Y18059278D01*
X8180368Y18209763D01*
X8382050Y18411093D01*
X8382050Y15392350D01*
X6096000Y15392350D01*
X5968116Y15366913D01*
X6263903Y15586391D01*
X6470714Y15931619D01*
X6507792Y16067682D01*
X6445768Y16228010D01*
X5100370Y16228010D01*
X5100370Y16208010D01*
X4998670Y16208010D01*
X4998670Y16228010D01*
X3653272Y16228010D01*
X3591248Y16067682D01*
X3628326Y15931619D01*
X3835137Y15586391D01*
X3893008Y15543450D01*
X2906572Y15543450D01*
X2964443Y15586391D01*
X3171254Y15931619D01*
X3208332Y16067682D01*
X3146308Y16228010D01*
X1800910Y16228010D01*
X1800910Y16208010D01*
X1699210Y16208010D01*
X1699210Y16228010D01*
X1679210Y16228010D01*
X1679210Y16329710D01*
X1699210Y16329710D01*
X1699210Y17309010D01*
X1800910Y17309010D01*
X1800910Y16329710D01*
X3146308Y16329710D01*
X3208332Y16490038D01*
X3591248Y16490038D01*
X3653272Y16329710D01*
X4998670Y16329710D01*
X4998670Y17309010D01*
X5100370Y17309010D01*
X5100370Y16329710D01*
X6445768Y16329710D01*
X6507792Y16490038D01*
X6470714Y16626101D01*
X6263903Y16971329D01*
X5940721Y17211135D01*
X5550370Y17309010D01*
X5100370Y17309010D01*
X4998670Y17309010D01*
X4548670Y17309010D01*
X4158319Y17211135D01*
X3835137Y16971329D01*
X3628326Y16626101D01*
X3591248Y16490038D01*
X3208332Y16490038D01*
X3171254Y16626101D01*
X2964443Y16971329D01*
X2641261Y17211135D01*
X2250910Y17309010D01*
X1800910Y17309010D01*
X1699210Y17309010D01*
X1249210Y17309010D01*
X858859Y17211135D01*
X535677Y16971329D01*
X328866Y16626101D01*
X303450Y16532833D01*
X303450Y18285898D01*
X1847810Y18285898D01*
X1927296Y18120174D01*
X2329764Y17956481D01*
X2764240Y17959266D01*
X3152704Y18120174D01*
X3232190Y18285898D01*
X4387810Y18285898D01*
X4467296Y18120174D01*
X4869764Y17956481D01*
X5304240Y17959266D01*
X5692704Y18120174D01*
X5772190Y18285898D01*
X5080000Y18978087D01*
X4387810Y18285898D01*
X3232190Y18285898D01*
X2540000Y18978087D01*
X1847810Y18285898D01*
X303450Y18285898D01*
X303450Y19260236D01*
X1446481Y19260236D01*
X1449266Y18825760D01*
X1610174Y18437296D01*
X1775898Y18357810D01*
X2468087Y19050000D01*
X2611913Y19050000D01*
X3304102Y18357810D01*
X3469826Y18437296D01*
X3633519Y18839764D01*
X3630824Y19260236D01*
X3986481Y19260236D01*
X3989266Y18825760D01*
X4150174Y18437296D01*
X4315898Y18357810D01*
X5008087Y19050000D01*
X5151913Y19050000D01*
X5844102Y18357810D01*
X6009826Y18437296D01*
X6173519Y18839764D01*
X6170734Y19274240D01*
X6009826Y19662704D01*
X5844102Y19742190D01*
X5151913Y19050000D01*
X5008087Y19050000D01*
X4315898Y19742190D01*
X4150174Y19662704D01*
X3986481Y19260236D01*
X3630824Y19260236D01*
X3630734Y19274240D01*
X3469826Y19662704D01*
X3304102Y19742190D01*
X2611913Y19050000D01*
X2468087Y19050000D01*
X1775898Y19742190D01*
X1610174Y19662704D01*
X1446481Y19260236D01*
X303450Y19260236D01*
X303450Y19814102D01*
X1847810Y19814102D01*
X2540000Y19121913D01*
X3232190Y19814102D01*
X4387810Y19814102D01*
X5080000Y19121913D01*
X5772190Y19814102D01*
X5692704Y19979826D01*
X5290236Y20143519D01*
X4855760Y20140734D01*
X4467296Y19979826D01*
X4387810Y19814102D01*
X3232190Y19814102D01*
X3152704Y19979826D01*
X2750236Y20143519D01*
X2315760Y20140734D01*
X1927296Y19979826D01*
X1847810Y19814102D01*
X303450Y19814102D01*
X303450Y22556550D01*
X53036550Y22556550D01*
X53036550Y15841694D01*
X53036550Y15841694D01*
G37*
X53036550Y15841694D02*
X53033661Y15843668D01*
X52943000Y15862027D01*
X52243000Y15862027D01*
X52158305Y15846090D01*
X52080517Y15796036D01*
X52028332Y15719661D01*
X52009973Y15629000D01*
X52009973Y14729000D01*
X52025910Y14644305D01*
X52075964Y14566517D01*
X52133260Y14527368D01*
X51728242Y14122350D01*
X50109583Y14122350D01*
X50095070Y14199475D01*
X50045016Y14277263D01*
X49968641Y14329448D01*
X49877980Y14347807D01*
X48928020Y14347807D01*
X48843325Y14331870D01*
X48765537Y14281816D01*
X48713352Y14205441D01*
X48694993Y14114780D01*
X48694993Y13603701D01*
X48635246Y13543954D01*
X48536148Y13395644D01*
X48501350Y13220700D01*
X48501350Y12601198D01*
X48492805Y12599590D01*
X48415017Y12549536D01*
X48362832Y12473161D01*
X48344473Y12382500D01*
X48344473Y11852709D01*
X47950513Y12246669D01*
X48056578Y12502103D01*
X48056922Y12896168D01*
X47906437Y13260368D01*
X47628034Y13539258D01*
X47264097Y13690378D01*
X46870032Y13690722D01*
X46505832Y13540237D01*
X46226942Y13261834D01*
X46075822Y12897897D01*
X46075478Y12503832D01*
X46225963Y12139632D01*
X46504366Y11860742D01*
X46868303Y11709622D01*
X47262368Y11709278D01*
X47519638Y11815580D01*
X47853650Y11481568D01*
X47853650Y10773247D01*
X47628034Y10999258D01*
X47264097Y11150378D01*
X46870032Y11150722D01*
X46505832Y11000237D01*
X46226942Y10721834D01*
X46075822Y10357897D01*
X46075478Y9963832D01*
X46225963Y9599632D01*
X46504366Y9320742D01*
X46868303Y9169622D01*
X47262368Y9169278D01*
X47519638Y9275580D01*
X47853648Y8941570D01*
X47853648Y8233249D01*
X47628034Y8459258D01*
X47264097Y8610378D01*
X46870032Y8610722D01*
X46505832Y8460237D01*
X46226942Y8181834D01*
X46075822Y7817897D01*
X46075478Y7423832D01*
X46225963Y7059632D01*
X46504366Y6780742D01*
X46868303Y6629622D01*
X47262368Y6629278D01*
X47449946Y6706784D01*
X46839120Y6095958D01*
X39645648Y6095958D01*
X39430107Y6311499D01*
X39430104Y6311501D01*
X39331239Y6377560D01*
X39214616Y6400758D01*
X38426448Y6400758D01*
X38121540Y6705666D01*
X40081216Y6705666D01*
X40197839Y6728864D01*
X40296707Y6794925D01*
X41363491Y7861709D01*
X41429552Y7960577D01*
X41452750Y8077200D01*
X41452750Y14334052D01*
X41455087Y14331711D01*
X41651045Y14250343D01*
X41863224Y14250158D01*
X42059324Y14331184D01*
X42209489Y14481087D01*
X42290857Y14677045D01*
X42291042Y14889224D01*
X42214750Y15073867D01*
X42214750Y15103357D01*
X42216101Y15106613D01*
X45974050Y15106613D01*
X45974050Y14412329D01*
X46024312Y14290985D01*
X46117185Y14198112D01*
X46238529Y14147850D01*
X46932813Y14147850D01*
X47015350Y14230387D01*
X47015350Y15189150D01*
X47117050Y15189150D01*
X47117050Y14230387D01*
X47199587Y14147850D01*
X47893871Y14147850D01*
X48015215Y14198112D01*
X48108088Y14290985D01*
X48158350Y14412329D01*
X48158350Y15106613D01*
X48075813Y15189150D01*
X47117050Y15189150D01*
X47015350Y15189150D01*
X46056587Y15189150D01*
X45974050Y15106613D01*
X42216101Y15106613D01*
X42290857Y15286645D01*
X42291042Y15498824D01*
X42221540Y15667032D01*
X42622179Y16067671D01*
X45974050Y16067671D01*
X45974050Y15373387D01*
X46056587Y15290850D01*
X47015350Y15290850D01*
X47015350Y16249613D01*
X47117050Y16249613D01*
X47117050Y15290850D01*
X48075813Y15290850D01*
X48158350Y15373387D01*
X48158350Y16067671D01*
X48108088Y16189015D01*
X48015215Y16281888D01*
X47893871Y16332150D01*
X47199587Y16332150D01*
X47117050Y16249613D01*
X47015350Y16249613D01*
X46932813Y16332150D01*
X46238529Y16332150D01*
X46117185Y16281888D01*
X46024312Y16189015D01*
X45974050Y16067671D01*
X42622179Y16067671D01*
X43318558Y16764050D01*
X44958000Y16764050D01*
X45132944Y16798848D01*
X45281254Y16897946D01*
X45452306Y17068998D01*
X48502294Y17068998D01*
X48694993Y16876299D01*
X48694993Y16365220D01*
X48710930Y16280525D01*
X48760984Y16202737D01*
X48837359Y16150552D01*
X48928020Y16132193D01*
X49439099Y16132193D01*
X50709973Y14861319D01*
X50709973Y14729000D01*
X50725910Y14644305D01*
X50775964Y14566517D01*
X50852339Y14514332D01*
X50943000Y14495973D01*
X51643000Y14495973D01*
X51727695Y14511910D01*
X51805483Y14561964D01*
X51857668Y14638339D01*
X51876027Y14729000D01*
X51876027Y15629000D01*
X51860090Y15713695D01*
X51810036Y15791483D01*
X51733661Y15843668D01*
X51643000Y15862027D01*
X51002281Y15862027D01*
X50111007Y16753301D01*
X50111007Y17025576D01*
X50672858Y17025576D01*
X50749150Y16840933D01*
X50749150Y16811443D01*
X50673043Y16628155D01*
X50672858Y16415976D01*
X50753884Y16219876D01*
X50903787Y16069711D01*
X51099745Y15988343D01*
X51311924Y15988158D01*
X51508024Y16069184D01*
X51658189Y16219087D01*
X51731638Y16395973D01*
X52293000Y16395973D01*
X52377695Y16411910D01*
X52455483Y16461964D01*
X52507668Y16538339D01*
X52526027Y16629000D01*
X52526027Y17529000D01*
X52510090Y17613695D01*
X52460036Y17691483D01*
X52383661Y17743668D01*
X52293000Y17762027D01*
X51593000Y17762027D01*
X51508305Y17746090D01*
X51430517Y17696036D01*
X51387704Y17633377D01*
X51312855Y17664457D01*
X51100676Y17664642D01*
X50904576Y17583616D01*
X50754411Y17433713D01*
X50673043Y17237755D01*
X50672858Y17025576D01*
X50111007Y17025576D01*
X50111007Y17264380D01*
X50095070Y17349075D01*
X50045016Y17426863D01*
X49968641Y17479048D01*
X49877980Y17497407D01*
X49366901Y17497407D01*
X49014906Y17849402D01*
X48866596Y17948500D01*
X48691652Y17983298D01*
X47624280Y17983298D01*
X47806669Y18165687D01*
X48062103Y18059622D01*
X48456168Y18059278D01*
X48820368Y18209763D01*
X49099258Y18488166D01*
X49250378Y18852103D01*
X49250722Y19246168D01*
X49100237Y19610368D01*
X48821834Y19889258D01*
X48457897Y20040378D01*
X48063832Y20040722D01*
X47699632Y19890237D01*
X47420742Y19611834D01*
X47269622Y19247897D01*
X47269278Y18853832D01*
X47375580Y18596562D01*
X47067118Y18288100D01*
X46358842Y18288100D01*
X46559258Y18488166D01*
X46710378Y18852103D01*
X46710722Y19246168D01*
X46560237Y19610368D01*
X46281834Y19889258D01*
X45917897Y20040378D01*
X45523832Y20040722D01*
X45159632Y19890237D01*
X44880742Y19611834D01*
X44729622Y19247897D01*
X44729278Y18853832D01*
X44832411Y18604231D01*
X44516134Y18287954D01*
X43818696Y18287954D01*
X44019258Y18488166D01*
X44170378Y18852103D01*
X44170722Y19246168D01*
X44020237Y19610368D01*
X43741834Y19889258D01*
X43377897Y20040378D01*
X42983832Y20040722D01*
X42619632Y19890237D01*
X42367100Y19638146D01*
X42367100Y19775862D01*
X42861237Y20270000D01*
X51485062Y20270000D01*
X51816000Y19939063D01*
X51816000Y19808763D01*
X51795027Y19758254D01*
X51795027Y19812000D01*
X51779090Y19896695D01*
X51729036Y19974483D01*
X51652661Y20026668D01*
X51562000Y20045027D01*
X50038000Y20045027D01*
X49953305Y20029090D01*
X49875517Y19979036D01*
X49823332Y19902661D01*
X49804973Y19812000D01*
X49804973Y18288000D01*
X49820910Y18203305D01*
X49870964Y18125517D01*
X49947339Y18073332D01*
X50038000Y18054973D01*
X51562000Y18054973D01*
X51646695Y18070910D01*
X51724483Y18120964D01*
X51776668Y18197339D01*
X51795027Y18288000D01*
X51795027Y19279171D01*
X51820684Y19217076D01*
X51970587Y19066911D01*
X52166545Y18985543D01*
X52378724Y18985358D01*
X52574824Y19066384D01*
X52724989Y19216287D01*
X52806357Y19412245D01*
X52806542Y19624424D01*
X52730200Y19809188D01*
X52730200Y20128395D01*
X52730201Y20128400D01*
X52695406Y20303324D01*
X52639158Y20387505D01*
X52596319Y20451619D01*
X52596316Y20451621D01*
X51997619Y21050319D01*
X51849325Y21149405D01*
X51820302Y21155178D01*
X51674400Y21184201D01*
X51674395Y21184200D01*
X42671900Y21184200D01*
X42496975Y21149405D01*
X42348681Y21050319D01*
X42348679Y21050316D01*
X41586781Y20288419D01*
X41487695Y20140125D01*
X41487695Y20140124D01*
X41452899Y19965200D01*
X41452900Y19965195D01*
X41452900Y19637753D01*
X41201834Y19889258D01*
X40837897Y20040378D01*
X40443832Y20040722D01*
X40079632Y19890237D01*
X39966494Y19777297D01*
X40004757Y19869445D01*
X40004942Y20081624D01*
X39923916Y20277724D01*
X39774013Y20427889D01*
X39589506Y20504502D01*
X39043954Y21050054D01*
X38895644Y21149152D01*
X38720700Y21183950D01*
X9601200Y21183950D01*
X9426256Y21149152D01*
X9277946Y21050054D01*
X9277141Y21048849D01*
X8515946Y20287654D01*
X8416848Y20139344D01*
X8382050Y19964400D01*
X8382050Y19688692D01*
X8181834Y19889258D01*
X7817897Y20040378D01*
X7423832Y20040722D01*
X7059632Y19890237D01*
X6780742Y19611834D01*
X6629622Y19247897D01*
X6629278Y18853832D01*
X6779763Y18489632D01*
X7058166Y18210742D01*
X7422103Y18059622D01*
X7816168Y18059278D01*
X8180368Y18209763D01*
X8382050Y18411093D01*
X8382050Y15392350D01*
X6096000Y15392350D01*
X5968116Y15366913D01*
X6263903Y15586391D01*
X6470714Y15931619D01*
X6507792Y16067682D01*
X6445768Y16228010D01*
X5100370Y16228010D01*
X5100370Y16208010D01*
X4998670Y16208010D01*
X4998670Y16228010D01*
X3653272Y16228010D01*
X3591248Y16067682D01*
X3628326Y15931619D01*
X3835137Y15586391D01*
X3893008Y15543450D01*
X2906572Y15543450D01*
X2964443Y15586391D01*
X3171254Y15931619D01*
X3208332Y16067682D01*
X3146308Y16228010D01*
X1800910Y16228010D01*
X1800910Y16208010D01*
X1699210Y16208010D01*
X1699210Y16228010D01*
X1679210Y16228010D01*
X1679210Y16329710D01*
X1699210Y16329710D01*
X1699210Y17309010D01*
X1800910Y17309010D01*
X1800910Y16329710D01*
X3146308Y16329710D01*
X3208332Y16490038D01*
X3591248Y16490038D01*
X3653272Y16329710D01*
X4998670Y16329710D01*
X4998670Y17309010D01*
X5100370Y17309010D01*
X5100370Y16329710D01*
X6445768Y16329710D01*
X6507792Y16490038D01*
X6470714Y16626101D01*
X6263903Y16971329D01*
X5940721Y17211135D01*
X5550370Y17309010D01*
X5100370Y17309010D01*
X4998670Y17309010D01*
X4548670Y17309010D01*
X4158319Y17211135D01*
X3835137Y16971329D01*
X3628326Y16626101D01*
X3591248Y16490038D01*
X3208332Y16490038D01*
X3171254Y16626101D01*
X2964443Y16971329D01*
X2641261Y17211135D01*
X2250910Y17309010D01*
X1800910Y17309010D01*
X1699210Y17309010D01*
X1249210Y17309010D01*
X858859Y17211135D01*
X535677Y16971329D01*
X328866Y16626101D01*
X303450Y16532833D01*
X303450Y18285898D01*
X1847810Y18285898D01*
X1927296Y18120174D01*
X2329764Y17956481D01*
X2764240Y17959266D01*
X3152704Y18120174D01*
X3232190Y18285898D01*
X4387810Y18285898D01*
X4467296Y18120174D01*
X4869764Y17956481D01*
X5304240Y17959266D01*
X5692704Y18120174D01*
X5772190Y18285898D01*
X5080000Y18978087D01*
X4387810Y18285898D01*
X3232190Y18285898D01*
X2540000Y18978087D01*
X1847810Y18285898D01*
X303450Y18285898D01*
X303450Y19260236D01*
X1446481Y19260236D01*
X1449266Y18825760D01*
X1610174Y18437296D01*
X1775898Y18357810D01*
X2468087Y19050000D01*
X2611913Y19050000D01*
X3304102Y18357810D01*
X3469826Y18437296D01*
X3633519Y18839764D01*
X3630824Y19260236D01*
X3986481Y19260236D01*
X3989266Y18825760D01*
X4150174Y18437296D01*
X4315898Y18357810D01*
X5008087Y19050000D01*
X5151913Y19050000D01*
X5844102Y18357810D01*
X6009826Y18437296D01*
X6173519Y18839764D01*
X6170734Y19274240D01*
X6009826Y19662704D01*
X5844102Y19742190D01*
X5151913Y19050000D01*
X5008087Y19050000D01*
X4315898Y19742190D01*
X4150174Y19662704D01*
X3986481Y19260236D01*
X3630824Y19260236D01*
X3630734Y19274240D01*
X3469826Y19662704D01*
X3304102Y19742190D01*
X2611913Y19050000D01*
X2468087Y19050000D01*
X1775898Y19742190D01*
X1610174Y19662704D01*
X1446481Y19260236D01*
X303450Y19260236D01*
X303450Y19814102D01*
X1847810Y19814102D01*
X2540000Y19121913D01*
X3232190Y19814102D01*
X4387810Y19814102D01*
X5080000Y19121913D01*
X5772190Y19814102D01*
X5692704Y19979826D01*
X5290236Y20143519D01*
X4855760Y20140734D01*
X4467296Y19979826D01*
X4387810Y19814102D01*
X3232190Y19814102D01*
X3152704Y19979826D01*
X2750236Y20143519D01*
X2315760Y20140734D01*
X1927296Y19979826D01*
X1847810Y19814102D01*
X303450Y19814102D01*
X303450Y22556550D01*
X53036550Y22556550D01*
X53036550Y15841694D01*
G36*
X37061306Y15929769D02*
X36883776Y15856416D01*
X36733611Y15706513D01*
X36652243Y15510555D01*
X36652058Y15298376D01*
X36733084Y15102276D01*
X36882987Y14952111D01*
X37078945Y14870743D01*
X37291124Y14870558D01*
X37487224Y14951584D01*
X37637389Y15101487D01*
X37716369Y15291695D01*
X39366084Y17069048D01*
X40753376Y17069048D01*
X40322905Y16638577D01*
X40256844Y16539709D01*
X40233646Y16423086D01*
X40233646Y14546330D01*
X40104313Y14675889D01*
X39908355Y14757257D01*
X39696176Y14757442D01*
X39500076Y14676416D01*
X39349911Y14526513D01*
X39268543Y14330555D01*
X39268358Y14118376D01*
X39349384Y13922276D01*
X39386069Y13885527D01*
X39179500Y13885527D01*
X39094805Y13869590D01*
X39017017Y13819536D01*
X38964832Y13743161D01*
X38946473Y13652500D01*
X38946473Y12763500D01*
X38962410Y12678805D01*
X39012464Y12601017D01*
X39053475Y12572995D01*
X39017017Y12549536D01*
X38964832Y12473161D01*
X38946473Y12382500D01*
X38946473Y11493500D01*
X38962410Y11408805D01*
X39012464Y11331017D01*
X39088839Y11278832D01*
X39179500Y11260473D01*
X39624042Y11260473D01*
X39624042Y8708448D01*
X39449968Y8534374D01*
X36802340Y8534374D01*
X36791490Y8545224D01*
X36791490Y8749916D01*
X36768292Y8866539D01*
X36702231Y8965407D01*
X36155745Y9511893D01*
X36118364Y9536870D01*
X36056877Y9577954D01*
X35940254Y9601152D01*
X35230546Y9601152D01*
X35113923Y9577954D01*
X35015055Y9511893D01*
X35015053Y9511890D01*
X34379307Y8876145D01*
X34313246Y8777277D01*
X34290048Y8660654D01*
X34290048Y8229572D01*
X34006848Y8229572D01*
X33334121Y8902299D01*
X33318848Y8912504D01*
X33235253Y8968360D01*
X33118630Y8991558D01*
X32461152Y8991558D01*
X32461152Y9117854D01*
X32437954Y9234477D01*
X32371893Y9333345D01*
X32003950Y9701288D01*
X32003950Y10210795D01*
X32003951Y10210800D01*
X31980753Y10327422D01*
X31942581Y10384550D01*
X31914691Y10426291D01*
X31914688Y10426293D01*
X31453615Y10887367D01*
X31541489Y10975087D01*
X31622857Y11171045D01*
X31623042Y11383224D01*
X31542016Y11579324D01*
X31392113Y11729489D01*
X31263765Y11782783D01*
X31285595Y11804613D01*
X37452350Y11804613D01*
X37452350Y11427829D01*
X37502612Y11306485D01*
X37595485Y11213612D01*
X37716829Y11163350D01*
X38030113Y11163350D01*
X38112650Y11245887D01*
X38112650Y11887150D01*
X38214350Y11887150D01*
X38214350Y11245887D01*
X38296887Y11163350D01*
X38610171Y11163350D01*
X38731515Y11213612D01*
X38824388Y11306485D01*
X38874650Y11427829D01*
X38874650Y11804613D01*
X38792113Y11887150D01*
X38214350Y11887150D01*
X38112650Y11887150D01*
X37534887Y11887150D01*
X37452350Y11804613D01*
X31285595Y11804613D01*
X31305091Y11824109D01*
X31314001Y11837444D01*
X31334853Y11868651D01*
X31391324Y11891984D01*
X31541489Y12041887D01*
X31622857Y12237845D01*
X31623042Y12450024D01*
X31542016Y12646124D01*
X31392113Y12796289D01*
X31379534Y12801512D01*
X31391324Y12806384D01*
X31541489Y12956287D01*
X31622857Y13152245D01*
X31623042Y13364424D01*
X31542016Y13560524D01*
X31462872Y13639807D01*
X31541489Y13718287D01*
X31559962Y13762776D01*
X36194958Y13762776D01*
X36275984Y13566676D01*
X36425887Y13416511D01*
X36621845Y13335143D01*
X36830857Y13334961D01*
X37173309Y12992509D01*
X37272177Y12926448D01*
X37291527Y12922599D01*
X37388800Y12903249D01*
X37388805Y12903250D01*
X37549473Y12903250D01*
X37549473Y12763500D01*
X37565410Y12678805D01*
X37583613Y12650516D01*
X37502612Y12569515D01*
X37452350Y12448171D01*
X37452350Y12071387D01*
X37534887Y11988850D01*
X38112650Y11988850D01*
X38112650Y12008850D01*
X38214350Y12008850D01*
X38214350Y11988850D01*
X38792113Y11988850D01*
X38874650Y12071387D01*
X38874650Y12448171D01*
X38824388Y12569515D01*
X38743701Y12650202D01*
X38759168Y12672839D01*
X38777527Y12763500D01*
X38777527Y13652500D01*
X38761590Y13737195D01*
X38711536Y13814983D01*
X38635161Y13867168D01*
X38544500Y13885527D01*
X37782500Y13885527D01*
X37697805Y13869590D01*
X37620017Y13819536D01*
X37567832Y13743161D01*
X37549473Y13652500D01*
X37549473Y13512750D01*
X37515032Y13512750D01*
X37261661Y13766121D01*
X37261842Y13974024D01*
X37180816Y14170124D01*
X37030913Y14320289D01*
X36834955Y14401657D01*
X36622776Y14401842D01*
X36426676Y14320816D01*
X36276511Y14170913D01*
X36195143Y13974955D01*
X36194958Y13762776D01*
X31559962Y13762776D01*
X31622857Y13914245D01*
X31623039Y14123255D01*
X31977832Y14478048D01*
X32892254Y14478048D01*
X33008877Y14501246D01*
X33107745Y14567307D01*
X33743495Y15203057D01*
X33809556Y15301925D01*
X33832754Y15418548D01*
X33832754Y16029660D01*
X35176742Y17373648D01*
X37159454Y17373648D01*
X37276077Y17396846D01*
X37374945Y17462907D01*
X37590587Y17678550D01*
X38684500Y17678550D01*
X37061306Y15929769D01*
X37061306Y15929769D01*
G37*
X37061306Y15929769D02*
X36883776Y15856416D01*
X36733611Y15706513D01*
X36652243Y15510555D01*
X36652058Y15298376D01*
X36733084Y15102276D01*
X36882987Y14952111D01*
X37078945Y14870743D01*
X37291124Y14870558D01*
X37487224Y14951584D01*
X37637389Y15101487D01*
X37716369Y15291695D01*
X39366084Y17069048D01*
X40753376Y17069048D01*
X40322905Y16638577D01*
X40256844Y16539709D01*
X40233646Y16423086D01*
X40233646Y14546330D01*
X40104313Y14675889D01*
X39908355Y14757257D01*
X39696176Y14757442D01*
X39500076Y14676416D01*
X39349911Y14526513D01*
X39268543Y14330555D01*
X39268358Y14118376D01*
X39349384Y13922276D01*
X39386069Y13885527D01*
X39179500Y13885527D01*
X39094805Y13869590D01*
X39017017Y13819536D01*
X38964832Y13743161D01*
X38946473Y13652500D01*
X38946473Y12763500D01*
X38962410Y12678805D01*
X39012464Y12601017D01*
X39053475Y12572995D01*
X39017017Y12549536D01*
X38964832Y12473161D01*
X38946473Y12382500D01*
X38946473Y11493500D01*
X38962410Y11408805D01*
X39012464Y11331017D01*
X39088839Y11278832D01*
X39179500Y11260473D01*
X39624042Y11260473D01*
X39624042Y8708448D01*
X39449968Y8534374D01*
X36802340Y8534374D01*
X36791490Y8545224D01*
X36791490Y8749916D01*
X36768292Y8866539D01*
X36702231Y8965407D01*
X36155745Y9511893D01*
X36118364Y9536870D01*
X36056877Y9577954D01*
X35940254Y9601152D01*
X35230546Y9601152D01*
X35113923Y9577954D01*
X35015055Y9511893D01*
X35015053Y9511890D01*
X34379307Y8876145D01*
X34313246Y8777277D01*
X34290048Y8660654D01*
X34290048Y8229572D01*
X34006848Y8229572D01*
X33334121Y8902299D01*
X33318848Y8912504D01*
X33235253Y8968360D01*
X33118630Y8991558D01*
X32461152Y8991558D01*
X32461152Y9117854D01*
X32437954Y9234477D01*
X32371893Y9333345D01*
X32003950Y9701288D01*
X32003950Y10210795D01*
X32003951Y10210800D01*
X31980753Y10327422D01*
X31942581Y10384550D01*
X31914691Y10426291D01*
X31914688Y10426293D01*
X31453615Y10887367D01*
X31541489Y10975087D01*
X31622857Y11171045D01*
X31623042Y11383224D01*
X31542016Y11579324D01*
X31392113Y11729489D01*
X31263765Y11782783D01*
X31285595Y11804613D01*
X37452350Y11804613D01*
X37452350Y11427829D01*
X37502612Y11306485D01*
X37595485Y11213612D01*
X37716829Y11163350D01*
X38030113Y11163350D01*
X38112650Y11245887D01*
X38112650Y11887150D01*
X38214350Y11887150D01*
X38214350Y11245887D01*
X38296887Y11163350D01*
X38610171Y11163350D01*
X38731515Y11213612D01*
X38824388Y11306485D01*
X38874650Y11427829D01*
X38874650Y11804613D01*
X38792113Y11887150D01*
X38214350Y11887150D01*
X38112650Y11887150D01*
X37534887Y11887150D01*
X37452350Y11804613D01*
X31285595Y11804613D01*
X31305091Y11824109D01*
X31314001Y11837444D01*
X31334853Y11868651D01*
X31391324Y11891984D01*
X31541489Y12041887D01*
X31622857Y12237845D01*
X31623042Y12450024D01*
X31542016Y12646124D01*
X31392113Y12796289D01*
X31379534Y12801512D01*
X31391324Y12806384D01*
X31541489Y12956287D01*
X31622857Y13152245D01*
X31623042Y13364424D01*
X31542016Y13560524D01*
X31462872Y13639807D01*
X31541489Y13718287D01*
X31559962Y13762776D01*
X36194958Y13762776D01*
X36275984Y13566676D01*
X36425887Y13416511D01*
X36621845Y13335143D01*
X36830857Y13334961D01*
X37173309Y12992509D01*
X37272177Y12926448D01*
X37291527Y12922599D01*
X37388800Y12903249D01*
X37388805Y12903250D01*
X37549473Y12903250D01*
X37549473Y12763500D01*
X37565410Y12678805D01*
X37583613Y12650516D01*
X37502612Y12569515D01*
X37452350Y12448171D01*
X37452350Y12071387D01*
X37534887Y11988850D01*
X38112650Y11988850D01*
X38112650Y12008850D01*
X38214350Y12008850D01*
X38214350Y11988850D01*
X38792113Y11988850D01*
X38874650Y12071387D01*
X38874650Y12448171D01*
X38824388Y12569515D01*
X38743701Y12650202D01*
X38759168Y12672839D01*
X38777527Y12763500D01*
X38777527Y13652500D01*
X38761590Y13737195D01*
X38711536Y13814983D01*
X38635161Y13867168D01*
X38544500Y13885527D01*
X37782500Y13885527D01*
X37697805Y13869590D01*
X37620017Y13819536D01*
X37567832Y13743161D01*
X37549473Y13652500D01*
X37549473Y13512750D01*
X37515032Y13512750D01*
X37261661Y13766121D01*
X37261842Y13974024D01*
X37180816Y14170124D01*
X37030913Y14320289D01*
X36834955Y14401657D01*
X36622776Y14401842D01*
X36426676Y14320816D01*
X36276511Y14170913D01*
X36195143Y13974955D01*
X36194958Y13762776D01*
X31559962Y13762776D01*
X31622857Y13914245D01*
X31623039Y14123255D01*
X31977832Y14478048D01*
X32892254Y14478048D01*
X33008877Y14501246D01*
X33107745Y14567307D01*
X33743495Y15203057D01*
X33809556Y15301925D01*
X33832754Y15418548D01*
X33832754Y16029660D01*
X35176742Y17373648D01*
X37159454Y17373648D01*
X37276077Y17396846D01*
X37374945Y17462907D01*
X37590587Y17678550D01*
X38684500Y17678550D01*
X37061306Y15929769D01*
G36*
X15329307Y10247745D02*
X15263246Y10148877D01*
X15240048Y10032254D01*
X15240048Y9244086D01*
X14785101Y8789139D01*
X14762036Y8824983D01*
X14717066Y8855710D01*
X14782015Y8882612D01*
X14874888Y8975485D01*
X14925150Y9096829D01*
X14925150Y9329113D01*
X14842613Y9411650D01*
X14020850Y9411650D01*
X14020850Y9391650D01*
X13919150Y9391650D01*
X13919150Y9411650D01*
X13899150Y9411650D01*
X13899150Y9513350D01*
X13919150Y9513350D01*
X13919150Y9533350D01*
X14020850Y9533350D01*
X14020850Y9513350D01*
X14842613Y9513350D01*
X14925150Y9595887D01*
X14925150Y9828171D01*
X14874888Y9949515D01*
X14782015Y10042388D01*
X14716909Y10069356D01*
X14757483Y10095464D01*
X14809668Y10171839D01*
X14828027Y10262500D01*
X14828027Y10587046D01*
X14909035Y10668054D01*
X15749617Y10668054D01*
X15329307Y10247745D01*
X15329307Y10247745D01*
G37*
X15329307Y10247745D02*
X15263246Y10148877D01*
X15240048Y10032254D01*
X15240048Y9244086D01*
X14785101Y8789139D01*
X14762036Y8824983D01*
X14717066Y8855710D01*
X14782015Y8882612D01*
X14874888Y8975485D01*
X14925150Y9096829D01*
X14925150Y9329113D01*
X14842613Y9411650D01*
X14020850Y9411650D01*
X14020850Y9391650D01*
X13919150Y9391650D01*
X13919150Y9411650D01*
X13899150Y9411650D01*
X13899150Y9513350D01*
X13919150Y9513350D01*
X13919150Y9533350D01*
X14020850Y9533350D01*
X14020850Y9513350D01*
X14842613Y9513350D01*
X14925150Y9595887D01*
X14925150Y9828171D01*
X14874888Y9949515D01*
X14782015Y10042388D01*
X14716909Y10069356D01*
X14757483Y10095464D01*
X14809668Y10171839D01*
X14828027Y10262500D01*
X14828027Y10587046D01*
X14909035Y10668054D01*
X15749617Y10668054D01*
X15329307Y10247745D01*
G36*
X22936339Y15951879D02*
X22936158Y15743976D01*
X23017184Y15547876D01*
X23167087Y15397711D01*
X23363045Y15316343D01*
X23575224Y15316158D01*
X23771324Y15397184D01*
X23921489Y15547087D01*
X23999159Y15734139D01*
X24056087Y15677111D01*
X24252045Y15595743D01*
X24464224Y15595558D01*
X24660324Y15676584D01*
X24810489Y15826487D01*
X24878688Y15990730D01*
X24917539Y15951879D01*
X24917358Y15743976D01*
X24998384Y15547876D01*
X25148287Y15397711D01*
X25344245Y15316343D01*
X25556424Y15316158D01*
X25752524Y15397184D01*
X25895307Y15539718D01*
X25910287Y15524711D01*
X26106245Y15443343D01*
X26289094Y15443184D01*
X26288958Y15286776D01*
X26369984Y15090676D01*
X26519887Y14940511D01*
X26715845Y14859143D01*
X26928024Y14858958D01*
X27124124Y14939984D01*
X27149473Y14965289D01*
X27572853Y14541909D01*
X27615654Y14513310D01*
X27589611Y14487313D01*
X27508243Y14291355D01*
X27508058Y14079176D01*
X27589084Y13883076D01*
X27738987Y13732911D01*
X27934945Y13651543D01*
X28147124Y13651358D01*
X28343224Y13732384D01*
X28491148Y13880050D01*
X28995968Y13880050D01*
X29288822Y13587196D01*
X29244466Y13480376D01*
X29244214Y13190894D01*
X29354760Y12923352D01*
X29559275Y12718479D01*
X29602394Y12700574D01*
X29559849Y12682995D01*
X29354726Y12478229D01*
X29243577Y12210553D01*
X29243324Y11920718D01*
X29354005Y11652849D01*
X29558771Y11447726D01*
X29601233Y11430094D01*
X29559849Y11412995D01*
X29354726Y11208229D01*
X29243577Y10940553D01*
X29243324Y10650718D01*
X29354005Y10382849D01*
X29558771Y10177726D01*
X29601233Y10160094D01*
X29559849Y10142995D01*
X29354726Y9938229D01*
X29243577Y9670553D01*
X29243324Y9380718D01*
X29354005Y9112849D01*
X29475141Y8991502D01*
X28015432Y8991502D01*
X27279562Y9727372D01*
X27279562Y11315356D01*
X27508239Y11086679D01*
X27508058Y10878776D01*
X27589084Y10682676D01*
X27738987Y10532511D01*
X27934945Y10451143D01*
X28147124Y10450958D01*
X28343224Y10531984D01*
X28493389Y10681887D01*
X28574757Y10877845D01*
X28574942Y11090024D01*
X28493916Y11286124D01*
X28344013Y11436289D01*
X28148055Y11517657D01*
X27939042Y11517839D01*
X27584364Y11872518D01*
X27584364Y13228178D01*
X27561166Y13344801D01*
X27495105Y13443669D01*
X25940469Y14998305D01*
X25921085Y15011257D01*
X25841601Y15064366D01*
X25724978Y15087564D01*
X22019530Y15087564D01*
X20952644Y16154450D01*
X22733768Y16154450D01*
X22936339Y15951879D01*
X22936339Y15951879D01*
G37*
X22936339Y15951879D02*
X22936158Y15743976D01*
X23017184Y15547876D01*
X23167087Y15397711D01*
X23363045Y15316343D01*
X23575224Y15316158D01*
X23771324Y15397184D01*
X23921489Y15547087D01*
X23999159Y15734139D01*
X24056087Y15677111D01*
X24252045Y15595743D01*
X24464224Y15595558D01*
X24660324Y15676584D01*
X24810489Y15826487D01*
X24878688Y15990730D01*
X24917539Y15951879D01*
X24917358Y15743976D01*
X24998384Y15547876D01*
X25148287Y15397711D01*
X25344245Y15316343D01*
X25556424Y15316158D01*
X25752524Y15397184D01*
X25895307Y15539718D01*
X25910287Y15524711D01*
X26106245Y15443343D01*
X26289094Y15443184D01*
X26288958Y15286776D01*
X26369984Y15090676D01*
X26519887Y14940511D01*
X26715845Y14859143D01*
X26928024Y14858958D01*
X27124124Y14939984D01*
X27149473Y14965289D01*
X27572853Y14541909D01*
X27615654Y14513310D01*
X27589611Y14487313D01*
X27508243Y14291355D01*
X27508058Y14079176D01*
X27589084Y13883076D01*
X27738987Y13732911D01*
X27934945Y13651543D01*
X28147124Y13651358D01*
X28343224Y13732384D01*
X28491148Y13880050D01*
X28995968Y13880050D01*
X29288822Y13587196D01*
X29244466Y13480376D01*
X29244214Y13190894D01*
X29354760Y12923352D01*
X29559275Y12718479D01*
X29602394Y12700574D01*
X29559849Y12682995D01*
X29354726Y12478229D01*
X29243577Y12210553D01*
X29243324Y11920718D01*
X29354005Y11652849D01*
X29558771Y11447726D01*
X29601233Y11430094D01*
X29559849Y11412995D01*
X29354726Y11208229D01*
X29243577Y10940553D01*
X29243324Y10650718D01*
X29354005Y10382849D01*
X29558771Y10177726D01*
X29601233Y10160094D01*
X29559849Y10142995D01*
X29354726Y9938229D01*
X29243577Y9670553D01*
X29243324Y9380718D01*
X29354005Y9112849D01*
X29475141Y8991502D01*
X28015432Y8991502D01*
X27279562Y9727372D01*
X27279562Y11315356D01*
X27508239Y11086679D01*
X27508058Y10878776D01*
X27589084Y10682676D01*
X27738987Y10532511D01*
X27934945Y10451143D01*
X28147124Y10450958D01*
X28343224Y10531984D01*
X28493389Y10681887D01*
X28574757Y10877845D01*
X28574942Y11090024D01*
X28493916Y11286124D01*
X28344013Y11436289D01*
X28148055Y11517657D01*
X27939042Y11517839D01*
X27584364Y11872518D01*
X27584364Y13228178D01*
X27561166Y13344801D01*
X27495105Y13443669D01*
X25940469Y14998305D01*
X25921085Y15011257D01*
X25841601Y15064366D01*
X25724978Y15087564D01*
X22019530Y15087564D01*
X20952644Y16154450D01*
X22733768Y16154450D01*
X22936339Y15951879D01*
G36*
X53036550Y11292739D02*
X52986161Y11327168D01*
X52895500Y11345527D01*
X52006500Y11345527D01*
X51921805Y11329590D01*
X51844017Y11279536D01*
X51791832Y11203161D01*
X51788893Y11188650D01*
X51739562Y11188650D01*
X51739742Y11394824D01*
X51663450Y11579467D01*
X51663450Y11608957D01*
X51739557Y11792245D01*
X51739742Y12004424D01*
X51658716Y12200524D01*
X51508813Y12350689D01*
X51312855Y12432057D01*
X51100676Y12432242D01*
X51066650Y12418183D01*
X51066650Y12448171D01*
X51016388Y12569515D01*
X50923515Y12662388D01*
X50802171Y12712650D01*
X50488887Y12712650D01*
X50406350Y12630113D01*
X50406350Y11988850D01*
X50426350Y11988850D01*
X50426350Y11887150D01*
X50406350Y11887150D01*
X50406350Y11867150D01*
X50304650Y11867150D01*
X50304650Y11887150D01*
X49726887Y11887150D01*
X49644350Y11804613D01*
X49644350Y11427829D01*
X49678370Y11345697D01*
X49575985Y11303288D01*
X49487585Y11214888D01*
X49453661Y11238068D01*
X49415650Y11245765D01*
X49415650Y11274802D01*
X49424195Y11276410D01*
X49501983Y11326464D01*
X49554168Y11402839D01*
X49572527Y11493500D01*
X49572527Y12382500D01*
X49560170Y12448171D01*
X49644350Y12448171D01*
X49644350Y12071387D01*
X49726887Y11988850D01*
X50304650Y11988850D01*
X50304650Y12630113D01*
X50222113Y12712650D01*
X49908829Y12712650D01*
X49787485Y12662388D01*
X49694612Y12569515D01*
X49644350Y12448171D01*
X49560170Y12448171D01*
X49556590Y12467195D01*
X49506536Y12544983D01*
X49430161Y12597168D01*
X49415650Y12600107D01*
X49415650Y12982593D01*
X49877980Y12982593D01*
X49962675Y12998530D01*
X50040463Y13048584D01*
X50092648Y13124959D01*
X50109474Y13208050D01*
X51917600Y13208050D01*
X52092544Y13242848D01*
X52240854Y13341946D01*
X52916254Y14017346D01*
X53015352Y14165656D01*
X53036550Y14272227D01*
X53036550Y11292739D01*
X53036550Y11292739D01*
G37*
X53036550Y11292739D02*
X52986161Y11327168D01*
X52895500Y11345527D01*
X52006500Y11345527D01*
X51921805Y11329590D01*
X51844017Y11279536D01*
X51791832Y11203161D01*
X51788893Y11188650D01*
X51739562Y11188650D01*
X51739742Y11394824D01*
X51663450Y11579467D01*
X51663450Y11608957D01*
X51739557Y11792245D01*
X51739742Y12004424D01*
X51658716Y12200524D01*
X51508813Y12350689D01*
X51312855Y12432057D01*
X51100676Y12432242D01*
X51066650Y12418183D01*
X51066650Y12448171D01*
X51016388Y12569515D01*
X50923515Y12662388D01*
X50802171Y12712650D01*
X50488887Y12712650D01*
X50406350Y12630113D01*
X50406350Y11988850D01*
X50426350Y11988850D01*
X50426350Y11887150D01*
X50406350Y11887150D01*
X50406350Y11867150D01*
X50304650Y11867150D01*
X50304650Y11887150D01*
X49726887Y11887150D01*
X49644350Y11804613D01*
X49644350Y11427829D01*
X49678370Y11345697D01*
X49575985Y11303288D01*
X49487585Y11214888D01*
X49453661Y11238068D01*
X49415650Y11245765D01*
X49415650Y11274802D01*
X49424195Y11276410D01*
X49501983Y11326464D01*
X49554168Y11402839D01*
X49572527Y11493500D01*
X49572527Y12382500D01*
X49560170Y12448171D01*
X49644350Y12448171D01*
X49644350Y12071387D01*
X49726887Y11988850D01*
X50304650Y11988850D01*
X50304650Y12630113D01*
X50222113Y12712650D01*
X49908829Y12712650D01*
X49787485Y12662388D01*
X49694612Y12569515D01*
X49644350Y12448171D01*
X49560170Y12448171D01*
X49556590Y12467195D01*
X49506536Y12544983D01*
X49430161Y12597168D01*
X49415650Y12600107D01*
X49415650Y12982593D01*
X49877980Y12982593D01*
X49962675Y12998530D01*
X50040463Y13048584D01*
X50092648Y13124959D01*
X50109474Y13208050D01*
X51917600Y13208050D01*
X52092544Y13242848D01*
X52240854Y13341946D01*
X52916254Y14017346D01*
X53015352Y14165656D01*
X53036550Y14272227D01*
X53036550Y11292739D01*
G36*
X9319763Y18489632D02*
X9598166Y18210742D01*
X9962103Y18059622D01*
X10356168Y18059278D01*
X10649385Y18180433D01*
X11062109Y17767709D01*
X11160977Y17701648D01*
X11277600Y17678450D01*
X14199368Y17678450D01*
X14414909Y17462909D01*
X14513777Y17396848D01*
X14630400Y17373650D01*
X15418568Y17373650D01*
X15801905Y16990313D01*
X15801054Y16989744D01*
X15785709Y16979491D01*
X15647079Y16840861D01*
X15439176Y16841042D01*
X15243076Y16760016D01*
X15092911Y16610113D01*
X15011543Y16414155D01*
X15011358Y16201976D01*
X15092384Y16005876D01*
X15242287Y15855711D01*
X15438245Y15774343D01*
X15650424Y15774158D01*
X15846524Y15855184D01*
X15996689Y16005087D01*
X16078057Y16201045D01*
X16078239Y16410057D01*
X16127432Y16459250D01*
X18923768Y16459250D01*
X20726450Y14656568D01*
X20726450Y14294968D01*
X20052063Y13620581D01*
X19962113Y13710689D01*
X19766155Y13792057D01*
X19553976Y13792242D01*
X19357876Y13711216D01*
X19207711Y13561313D01*
X19126343Y13365355D01*
X19126158Y13153176D01*
X19207184Y12957076D01*
X19357087Y12806911D01*
X19553045Y12725543D01*
X19588050Y12725512D01*
X19054498Y12191960D01*
X16533140Y12191960D01*
X16217483Y12507617D01*
X16217483Y13805339D01*
X16194285Y13921962D01*
X16163704Y13967730D01*
X16303724Y14025584D01*
X16453889Y14175487D01*
X16535257Y14371445D01*
X16535442Y14583624D01*
X16454416Y14779724D01*
X16304513Y14929889D01*
X16108555Y15011257D01*
X15899543Y15011439D01*
X15150691Y15760291D01*
X15129937Y15774158D01*
X15051823Y15826352D01*
X14935200Y15849550D01*
X13275150Y15849550D01*
X13275150Y16454113D01*
X13192613Y16536650D01*
X12295850Y16536650D01*
X12295850Y15614887D01*
X12378387Y15532350D01*
X12815369Y15532350D01*
X12586109Y15303091D01*
X12520048Y15204223D01*
X12496850Y15087600D01*
X12496850Y14775148D01*
X12494513Y14777489D01*
X12298555Y14858857D01*
X12086376Y14859042D01*
X11901733Y14782750D01*
X11872243Y14782750D01*
X11688955Y14858857D01*
X11476776Y14859042D01*
X11280676Y14778016D01*
X11130511Y14628113D01*
X11053898Y14443606D01*
X11048916Y14438624D01*
X11049042Y14583624D01*
X10968016Y14779724D01*
X10818113Y14929889D01*
X10633606Y15006502D01*
X10458159Y15181949D01*
X10529695Y15195410D01*
X10607483Y15245464D01*
X10659668Y15321839D01*
X10678027Y15412500D01*
X10678027Y16082910D01*
X10695000Y16079473D01*
X11214850Y16079473D01*
X11214850Y15796829D01*
X11265112Y15675485D01*
X11357985Y15582612D01*
X11479329Y15532350D01*
X12111613Y15532350D01*
X12194150Y15614887D01*
X12194150Y16536650D01*
X12174150Y16536650D01*
X12174150Y16638350D01*
X12194150Y16638350D01*
X12194150Y17560113D01*
X12295850Y17560113D01*
X12295850Y16638350D01*
X13192613Y16638350D01*
X13275150Y16720887D01*
X13275150Y17378171D01*
X13224888Y17499515D01*
X13132015Y17592388D01*
X13010671Y17642650D01*
X12378387Y17642650D01*
X12295850Y17560113D01*
X12194150Y17560113D01*
X12111613Y17642650D01*
X11479329Y17642650D01*
X11357985Y17592388D01*
X11308409Y17542812D01*
X11295000Y17545527D01*
X10695000Y17545527D01*
X10610305Y17529590D01*
X10532517Y17479536D01*
X10480332Y17403161D01*
X10461973Y17312500D01*
X10461973Y16592090D01*
X10445000Y16595527D01*
X9595000Y16595527D01*
X9510305Y16579590D01*
X9432517Y16529536D01*
X9380332Y16453161D01*
X9361973Y16362500D01*
X9361973Y15412500D01*
X9365765Y15392350D01*
X9296350Y15392350D01*
X9296350Y18546296D01*
X9319763Y18489632D01*
X9319763Y18489632D01*
G37*
X9319763Y18489632D02*
X9598166Y18210742D01*
X9962103Y18059622D01*
X10356168Y18059278D01*
X10649385Y18180433D01*
X11062109Y17767709D01*
X11160977Y17701648D01*
X11277600Y17678450D01*
X14199368Y17678450D01*
X14414909Y17462909D01*
X14513777Y17396848D01*
X14630400Y17373650D01*
X15418568Y17373650D01*
X15801905Y16990313D01*
X15801054Y16989744D01*
X15785709Y16979491D01*
X15647079Y16840861D01*
X15439176Y16841042D01*
X15243076Y16760016D01*
X15092911Y16610113D01*
X15011543Y16414155D01*
X15011358Y16201976D01*
X15092384Y16005876D01*
X15242287Y15855711D01*
X15438245Y15774343D01*
X15650424Y15774158D01*
X15846524Y15855184D01*
X15996689Y16005087D01*
X16078057Y16201045D01*
X16078239Y16410057D01*
X16127432Y16459250D01*
X18923768Y16459250D01*
X20726450Y14656568D01*
X20726450Y14294968D01*
X20052063Y13620581D01*
X19962113Y13710689D01*
X19766155Y13792057D01*
X19553976Y13792242D01*
X19357876Y13711216D01*
X19207711Y13561313D01*
X19126343Y13365355D01*
X19126158Y13153176D01*
X19207184Y12957076D01*
X19357087Y12806911D01*
X19553045Y12725543D01*
X19588050Y12725512D01*
X19054498Y12191960D01*
X16533140Y12191960D01*
X16217483Y12507617D01*
X16217483Y13805339D01*
X16194285Y13921962D01*
X16163704Y13967730D01*
X16303724Y14025584D01*
X16453889Y14175487D01*
X16535257Y14371445D01*
X16535442Y14583624D01*
X16454416Y14779724D01*
X16304513Y14929889D01*
X16108555Y15011257D01*
X15899543Y15011439D01*
X15150691Y15760291D01*
X15129937Y15774158D01*
X15051823Y15826352D01*
X14935200Y15849550D01*
X13275150Y15849550D01*
X13275150Y16454113D01*
X13192613Y16536650D01*
X12295850Y16536650D01*
X12295850Y15614887D01*
X12378387Y15532350D01*
X12815369Y15532350D01*
X12586109Y15303091D01*
X12520048Y15204223D01*
X12496850Y15087600D01*
X12496850Y14775148D01*
X12494513Y14777489D01*
X12298555Y14858857D01*
X12086376Y14859042D01*
X11901733Y14782750D01*
X11872243Y14782750D01*
X11688955Y14858857D01*
X11476776Y14859042D01*
X11280676Y14778016D01*
X11130511Y14628113D01*
X11053898Y14443606D01*
X11048916Y14438624D01*
X11049042Y14583624D01*
X10968016Y14779724D01*
X10818113Y14929889D01*
X10633606Y15006502D01*
X10458159Y15181949D01*
X10529695Y15195410D01*
X10607483Y15245464D01*
X10659668Y15321839D01*
X10678027Y15412500D01*
X10678027Y16082910D01*
X10695000Y16079473D01*
X11214850Y16079473D01*
X11214850Y15796829D01*
X11265112Y15675485D01*
X11357985Y15582612D01*
X11479329Y15532350D01*
X12111613Y15532350D01*
X12194150Y15614887D01*
X12194150Y16536650D01*
X12174150Y16536650D01*
X12174150Y16638350D01*
X12194150Y16638350D01*
X12194150Y17560113D01*
X12295850Y17560113D01*
X12295850Y16638350D01*
X13192613Y16638350D01*
X13275150Y16720887D01*
X13275150Y17378171D01*
X13224888Y17499515D01*
X13132015Y17592388D01*
X13010671Y17642650D01*
X12378387Y17642650D01*
X12295850Y17560113D01*
X12194150Y17560113D01*
X12111613Y17642650D01*
X11479329Y17642650D01*
X11357985Y17592388D01*
X11308409Y17542812D01*
X11295000Y17545527D01*
X10695000Y17545527D01*
X10610305Y17529590D01*
X10532517Y17479536D01*
X10480332Y17403161D01*
X10461973Y17312500D01*
X10461973Y16592090D01*
X10445000Y16595527D01*
X9595000Y16595527D01*
X9510305Y16579590D01*
X9432517Y16529536D01*
X9380332Y16453161D01*
X9361973Y16362500D01*
X9361973Y15412500D01*
X9365765Y15392350D01*
X9296350Y15392350D01*
X9296350Y18546296D01*
X9319763Y18489632D01*
G36*
X9987398Y14359694D02*
X10063184Y14176276D01*
X10213087Y14026111D01*
X10409045Y13944743D01*
X10554908Y13944616D01*
X10478642Y13868350D01*
X6995443Y13868350D01*
X6812155Y13944457D01*
X6599976Y13944642D01*
X6403876Y13863616D01*
X6253711Y13713713D01*
X6248350Y13700802D01*
X6248350Y14441042D01*
X6285358Y14478050D01*
X9869042Y14478050D01*
X9987398Y14359694D01*
X9987398Y14359694D01*
G37*
X9987398Y14359694D02*
X10063184Y14176276D01*
X10213087Y14026111D01*
X10409045Y13944743D01*
X10554908Y13944616D01*
X10478642Y13868350D01*
X6995443Y13868350D01*
X6812155Y13944457D01*
X6599976Y13944642D01*
X6403876Y13863616D01*
X6253711Y13713713D01*
X6248350Y13700802D01*
X6248350Y14441042D01*
X6285358Y14478050D01*
X9869042Y14478050D01*
X9987398Y14359694D01*
G36*
X38943298Y19857694D02*
X39014350Y19685733D01*
X39014350Y19431002D01*
X38940237Y19610368D01*
X38661834Y19889258D01*
X38297897Y20040378D01*
X37903832Y20040722D01*
X37539632Y19890237D01*
X37260742Y19611834D01*
X37109622Y19247897D01*
X37109278Y18853832D01*
X37215580Y18596562D01*
X36906968Y18287950D01*
X36198692Y18287950D01*
X36399258Y18488166D01*
X36550378Y18852103D01*
X36550722Y19246168D01*
X36400237Y19610368D01*
X36121834Y19889258D01*
X35757897Y20040378D01*
X35363832Y20040722D01*
X34999632Y19890237D01*
X34720742Y19611834D01*
X34569622Y19247897D01*
X34569278Y18853832D01*
X34675580Y18596562D01*
X32702909Y16623891D01*
X32636848Y16525023D01*
X32613650Y16408400D01*
X32613650Y16280631D01*
X32563479Y16230461D01*
X32355576Y16230642D01*
X32159476Y16149616D01*
X32154411Y16144560D01*
X32151616Y16151324D01*
X32001713Y16301489D01*
X31805755Y16382857D01*
X31593576Y16383042D01*
X31397476Y16302016D01*
X31274996Y16179750D01*
X30634372Y16179750D01*
X30589995Y16287151D01*
X30385229Y16492274D01*
X30342767Y16509906D01*
X30384151Y16527005D01*
X30589274Y16731771D01*
X30700423Y16999447D01*
X30700676Y17289282D01*
X30589995Y17557151D01*
X30385229Y17762274D01*
X30117553Y17873423D01*
X29827718Y17873676D01*
X29559849Y17762995D01*
X29354726Y17558229D01*
X29243577Y17290553D01*
X29243324Y17000718D01*
X29288179Y16892161D01*
X28892909Y16496891D01*
X28826848Y16398023D01*
X28805077Y16288572D01*
X28798816Y16303724D01*
X28648913Y16453889D01*
X28452955Y16535257D01*
X28240776Y16535442D01*
X28044676Y16454416D01*
X27896752Y16306750D01*
X27532088Y16306750D01*
X25725939Y18112899D01*
X25960368Y18209763D01*
X26239258Y18488166D01*
X26390378Y18852103D01*
X26390379Y18853832D01*
X26949278Y18853832D01*
X27099763Y18489632D01*
X27378166Y18210742D01*
X27742103Y18059622D01*
X28136168Y18059278D01*
X28500368Y18209763D01*
X28779258Y18488166D01*
X28930378Y18852103D01*
X28930379Y18853832D01*
X29489278Y18853832D01*
X29639763Y18489632D01*
X29918166Y18210742D01*
X30282103Y18059622D01*
X30676168Y18059278D01*
X31040368Y18209763D01*
X31319258Y18488166D01*
X31470378Y18852103D01*
X31470379Y18853832D01*
X32029278Y18853832D01*
X32179763Y18489632D01*
X32458166Y18210742D01*
X32822103Y18059622D01*
X33216168Y18059278D01*
X33580368Y18209763D01*
X33859258Y18488166D01*
X34010378Y18852103D01*
X34010722Y19246168D01*
X33860237Y19610368D01*
X33581834Y19889258D01*
X33217897Y20040378D01*
X32823832Y20040722D01*
X32459632Y19890237D01*
X32180742Y19611834D01*
X32029622Y19247897D01*
X32029278Y18853832D01*
X31470379Y18853832D01*
X31470722Y19246168D01*
X31320237Y19610368D01*
X31041834Y19889258D01*
X30677897Y20040378D01*
X30283832Y20040722D01*
X29919632Y19890237D01*
X29640742Y19611834D01*
X29489622Y19247897D01*
X29489278Y18853832D01*
X28930379Y18853832D01*
X28930722Y19246168D01*
X28780237Y19610368D01*
X28501834Y19889258D01*
X28137897Y20040378D01*
X27743832Y20040722D01*
X27379632Y19890237D01*
X27100742Y19611834D01*
X26949622Y19247897D01*
X26949278Y18853832D01*
X26390379Y18853832D01*
X26390722Y19246168D01*
X26240237Y19610368D01*
X25961834Y19889258D01*
X25597897Y20040378D01*
X25203832Y20040722D01*
X24839632Y19890237D01*
X24560742Y19611834D01*
X24409622Y19247897D01*
X24409278Y18853832D01*
X24559763Y18489632D01*
X24838166Y18210742D01*
X25095250Y18103991D01*
X25095250Y18007856D01*
X25118448Y17891233D01*
X25180220Y17798784D01*
X25184509Y17792365D01*
X25908122Y17068752D01*
X25524742Y17068752D01*
X25004397Y17589097D01*
X24958654Y17619661D01*
X24905529Y17655158D01*
X24788906Y17678356D01*
X23796050Y17678356D01*
X23310174Y18164232D01*
X23420368Y18209763D01*
X23699258Y18488166D01*
X23850378Y18852103D01*
X23850722Y19246168D01*
X23700237Y19610368D01*
X23421834Y19889258D01*
X23057897Y20040378D01*
X22663832Y20040722D01*
X22299632Y19890237D01*
X22020742Y19611834D01*
X21869622Y19247897D01*
X21869278Y18853832D01*
X22019763Y18489632D01*
X22298166Y18210742D01*
X22572473Y18096840D01*
X22578448Y18066801D01*
X22634342Y17983149D01*
X22644509Y17967933D01*
X22934086Y17678356D01*
X21152962Y17678356D01*
X20697227Y18134091D01*
X20880368Y18209763D01*
X21159258Y18488166D01*
X21310378Y18852103D01*
X21310722Y19246168D01*
X21160237Y19610368D01*
X20881834Y19889258D01*
X20517897Y20040378D01*
X20123832Y20040722D01*
X19759632Y19890237D01*
X19480742Y19611834D01*
X19329622Y19247897D01*
X19329278Y18853832D01*
X19437151Y18592760D01*
X18668222Y18592760D01*
X18664313Y18596669D01*
X18770378Y18852103D01*
X18770722Y19246168D01*
X18620237Y19610368D01*
X18341834Y19889258D01*
X17977897Y20040378D01*
X17583832Y20040722D01*
X17219632Y19890237D01*
X16940742Y19611834D01*
X16789622Y19247897D01*
X16789307Y18887318D01*
X16737860Y18897552D01*
X16230418Y18897552D01*
X16230722Y19246168D01*
X16080237Y19610368D01*
X15801834Y19889258D01*
X15437897Y20040378D01*
X15043832Y20040722D01*
X14679632Y19890237D01*
X14400742Y19611834D01*
X14249622Y19247897D01*
X14249278Y18853832D01*
X14357155Y18592752D01*
X13582686Y18592752D01*
X13690378Y18852103D01*
X13690722Y19246168D01*
X13540237Y19610368D01*
X13261834Y19889258D01*
X12897897Y20040378D01*
X12503832Y20040722D01*
X12139632Y19890237D01*
X11860742Y19611834D01*
X11709622Y19247897D01*
X11709278Y18853832D01*
X11859763Y18489632D01*
X12061093Y18287950D01*
X11403832Y18287950D01*
X11059218Y18632564D01*
X11150378Y18852103D01*
X11150722Y19246168D01*
X11000237Y19610368D01*
X10721834Y19889258D01*
X10357897Y20040378D01*
X9963832Y20040722D01*
X9599632Y19890237D01*
X9320742Y19611834D01*
X9296350Y19553092D01*
X9296350Y19775042D01*
X9790958Y20269650D01*
X38531342Y20269650D01*
X38943298Y19857694D01*
X38943298Y19857694D01*
G37*
X38943298Y19857694D02*
X39014350Y19685733D01*
X39014350Y19431002D01*
X38940237Y19610368D01*
X38661834Y19889258D01*
X38297897Y20040378D01*
X37903832Y20040722D01*
X37539632Y19890237D01*
X37260742Y19611834D01*
X37109622Y19247897D01*
X37109278Y18853832D01*
X37215580Y18596562D01*
X36906968Y18287950D01*
X36198692Y18287950D01*
X36399258Y18488166D01*
X36550378Y18852103D01*
X36550722Y19246168D01*
X36400237Y19610368D01*
X36121834Y19889258D01*
X35757897Y20040378D01*
X35363832Y20040722D01*
X34999632Y19890237D01*
X34720742Y19611834D01*
X34569622Y19247897D01*
X34569278Y18853832D01*
X34675580Y18596562D01*
X32702909Y16623891D01*
X32636848Y16525023D01*
X32613650Y16408400D01*
X32613650Y16280631D01*
X32563479Y16230461D01*
X32355576Y16230642D01*
X32159476Y16149616D01*
X32154411Y16144560D01*
X32151616Y16151324D01*
X32001713Y16301489D01*
X31805755Y16382857D01*
X31593576Y16383042D01*
X31397476Y16302016D01*
X31274996Y16179750D01*
X30634372Y16179750D01*
X30589995Y16287151D01*
X30385229Y16492274D01*
X30342767Y16509906D01*
X30384151Y16527005D01*
X30589274Y16731771D01*
X30700423Y16999447D01*
X30700676Y17289282D01*
X30589995Y17557151D01*
X30385229Y17762274D01*
X30117553Y17873423D01*
X29827718Y17873676D01*
X29559849Y17762995D01*
X29354726Y17558229D01*
X29243577Y17290553D01*
X29243324Y17000718D01*
X29288179Y16892161D01*
X28892909Y16496891D01*
X28826848Y16398023D01*
X28805077Y16288572D01*
X28798816Y16303724D01*
X28648913Y16453889D01*
X28452955Y16535257D01*
X28240776Y16535442D01*
X28044676Y16454416D01*
X27896752Y16306750D01*
X27532088Y16306750D01*
X25725939Y18112899D01*
X25960368Y18209763D01*
X26239258Y18488166D01*
X26390378Y18852103D01*
X26390379Y18853832D01*
X26949278Y18853832D01*
X27099763Y18489632D01*
X27378166Y18210742D01*
X27742103Y18059622D01*
X28136168Y18059278D01*
X28500368Y18209763D01*
X28779258Y18488166D01*
X28930378Y18852103D01*
X28930379Y18853832D01*
X29489278Y18853832D01*
X29639763Y18489632D01*
X29918166Y18210742D01*
X30282103Y18059622D01*
X30676168Y18059278D01*
X31040368Y18209763D01*
X31319258Y18488166D01*
X31470378Y18852103D01*
X31470379Y18853832D01*
X32029278Y18853832D01*
X32179763Y18489632D01*
X32458166Y18210742D01*
X32822103Y18059622D01*
X33216168Y18059278D01*
X33580368Y18209763D01*
X33859258Y18488166D01*
X34010378Y18852103D01*
X34010722Y19246168D01*
X33860237Y19610368D01*
X33581834Y19889258D01*
X33217897Y20040378D01*
X32823832Y20040722D01*
X32459632Y19890237D01*
X32180742Y19611834D01*
X32029622Y19247897D01*
X32029278Y18853832D01*
X31470379Y18853832D01*
X31470722Y19246168D01*
X31320237Y19610368D01*
X31041834Y19889258D01*
X30677897Y20040378D01*
X30283832Y20040722D01*
X29919632Y19890237D01*
X29640742Y19611834D01*
X29489622Y19247897D01*
X29489278Y18853832D01*
X28930379Y18853832D01*
X28930722Y19246168D01*
X28780237Y19610368D01*
X28501834Y19889258D01*
X28137897Y20040378D01*
X27743832Y20040722D01*
X27379632Y19890237D01*
X27100742Y19611834D01*
X26949622Y19247897D01*
X26949278Y18853832D01*
X26390379Y18853832D01*
X26390722Y19246168D01*
X26240237Y19610368D01*
X25961834Y19889258D01*
X25597897Y20040378D01*
X25203832Y20040722D01*
X24839632Y19890237D01*
X24560742Y19611834D01*
X24409622Y19247897D01*
X24409278Y18853832D01*
X24559763Y18489632D01*
X24838166Y18210742D01*
X25095250Y18103991D01*
X25095250Y18007856D01*
X25118448Y17891233D01*
X25180220Y17798784D01*
X25184509Y17792365D01*
X25908122Y17068752D01*
X25524742Y17068752D01*
X25004397Y17589097D01*
X24958654Y17619661D01*
X24905529Y17655158D01*
X24788906Y17678356D01*
X23796050Y17678356D01*
X23310174Y18164232D01*
X23420368Y18209763D01*
X23699258Y18488166D01*
X23850378Y18852103D01*
X23850722Y19246168D01*
X23700237Y19610368D01*
X23421834Y19889258D01*
X23057897Y20040378D01*
X22663832Y20040722D01*
X22299632Y19890237D01*
X22020742Y19611834D01*
X21869622Y19247897D01*
X21869278Y18853832D01*
X22019763Y18489632D01*
X22298166Y18210742D01*
X22572473Y18096840D01*
X22578448Y18066801D01*
X22634342Y17983149D01*
X22644509Y17967933D01*
X22934086Y17678356D01*
X21152962Y17678356D01*
X20697227Y18134091D01*
X20880368Y18209763D01*
X21159258Y18488166D01*
X21310378Y18852103D01*
X21310722Y19246168D01*
X21160237Y19610368D01*
X20881834Y19889258D01*
X20517897Y20040378D01*
X20123832Y20040722D01*
X19759632Y19890237D01*
X19480742Y19611834D01*
X19329622Y19247897D01*
X19329278Y18853832D01*
X19437151Y18592760D01*
X18668222Y18592760D01*
X18664313Y18596669D01*
X18770378Y18852103D01*
X18770722Y19246168D01*
X18620237Y19610368D01*
X18341834Y19889258D01*
X17977897Y20040378D01*
X17583832Y20040722D01*
X17219632Y19890237D01*
X16940742Y19611834D01*
X16789622Y19247897D01*
X16789307Y18887318D01*
X16737860Y18897552D01*
X16230418Y18897552D01*
X16230722Y19246168D01*
X16080237Y19610368D01*
X15801834Y19889258D01*
X15437897Y20040378D01*
X15043832Y20040722D01*
X14679632Y19890237D01*
X14400742Y19611834D01*
X14249622Y19247897D01*
X14249278Y18853832D01*
X14357155Y18592752D01*
X13582686Y18592752D01*
X13690378Y18852103D01*
X13690722Y19246168D01*
X13540237Y19610368D01*
X13261834Y19889258D01*
X12897897Y20040378D01*
X12503832Y20040722D01*
X12139632Y19890237D01*
X11860742Y19611834D01*
X11709622Y19247897D01*
X11709278Y18853832D01*
X11859763Y18489632D01*
X12061093Y18287950D01*
X11403832Y18287950D01*
X11059218Y18632564D01*
X11150378Y18852103D01*
X11150722Y19246168D01*
X11000237Y19610368D01*
X10721834Y19889258D01*
X10357897Y20040378D01*
X9963832Y20040722D01*
X9599632Y19890237D01*
X9320742Y19611834D01*
X9296350Y19553092D01*
X9296350Y19775042D01*
X9790958Y20269650D01*
X38531342Y20269650D01*
X38943298Y19857694D01*
M02*
