G04 #@! TF.FileFunction,Legend,Top*
%FSLAX46Y46*%
G04 Gerber Fmt 4.6, Leading zero omitted, Abs format (unit mm)*
G04 Created by KiCad (PCBNEW 4.0.7-e2-6376~58~ubuntu16.04.1) date Sun Feb  4 19:42:12 2018*
%MOMM*%
%LPD*%
G01*
G04 APERTURE LIST*
%ADD10C,0.100000*%
%ADD11C,0.162560*%
%ADD12C,0.254000*%
%ADD13C,0.127000*%
G04 APERTURE END LIST*
D10*
D11*
X50405454Y22013650D02*
X50662841Y21241490D01*
X50920227Y22013650D01*
X51435000Y21645954D02*
X51545309Y21609185D01*
X51582078Y21572415D01*
X51618848Y21498876D01*
X51618848Y21388568D01*
X51582078Y21315029D01*
X51545309Y21278259D01*
X51471770Y21241490D01*
X51177614Y21241490D01*
X51177614Y22013650D01*
X51435000Y22013650D01*
X51508539Y21976880D01*
X51545309Y21940110D01*
X51582078Y21866571D01*
X51582078Y21793032D01*
X51545309Y21719493D01*
X51508539Y21682724D01*
X51435000Y21645954D01*
X51177614Y21645954D01*
X51949774Y21241490D02*
X51949774Y22013650D01*
X52391008Y21241490D02*
X52060082Y21682724D01*
X52391008Y22013650D02*
X51949774Y21572415D01*
X47763612Y21314229D02*
X47726842Y21277459D01*
X47616534Y21240690D01*
X47542995Y21240690D01*
X47432686Y21277459D01*
X47359147Y21350998D01*
X47322378Y21424537D01*
X47285608Y21571615D01*
X47285608Y21681924D01*
X47322378Y21829002D01*
X47359147Y21902541D01*
X47432686Y21976080D01*
X47542995Y22012850D01*
X47616534Y22012850D01*
X47726842Y21976080D01*
X47763612Y21939310D01*
X48499002Y21240690D02*
X48057768Y21240690D01*
X48278385Y21240690D02*
X48278385Y22012850D01*
X48204846Y21902541D01*
X48131307Y21829002D01*
X48057768Y21792232D01*
X48756389Y22012850D02*
X49234392Y22012850D01*
X48977006Y21718693D01*
X49087314Y21718693D01*
X49160853Y21681924D01*
X49197623Y21645154D01*
X49234392Y21571615D01*
X49234392Y21387768D01*
X49197623Y21314229D01*
X49160853Y21277459D01*
X49087314Y21240690D01*
X48866697Y21240690D01*
X48793158Y21277459D01*
X48756389Y21314229D01*
X45223612Y21314229D02*
X45186842Y21277459D01*
X45076534Y21240690D01*
X45002995Y21240690D01*
X44892686Y21277459D01*
X44819147Y21350998D01*
X44782378Y21424537D01*
X44745608Y21571615D01*
X44745608Y21681924D01*
X44782378Y21829002D01*
X44819147Y21902541D01*
X44892686Y21976080D01*
X45002995Y22012850D01*
X45076534Y22012850D01*
X45186842Y21976080D01*
X45223612Y21939310D01*
X45959002Y21240690D02*
X45517768Y21240690D01*
X45738385Y21240690D02*
X45738385Y22012850D01*
X45664846Y21902541D01*
X45591307Y21829002D01*
X45517768Y21792232D01*
X46620853Y21755463D02*
X46620853Y21240690D01*
X46437006Y22049619D02*
X46253158Y21498076D01*
X46731162Y21498076D01*
X42683612Y21314229D02*
X42646842Y21277459D01*
X42536534Y21240690D01*
X42462995Y21240690D01*
X42352686Y21277459D01*
X42279147Y21350998D01*
X42242378Y21424537D01*
X42205608Y21571615D01*
X42205608Y21681924D01*
X42242378Y21829002D01*
X42279147Y21902541D01*
X42352686Y21976080D01*
X42462995Y22012850D01*
X42536534Y22012850D01*
X42646842Y21976080D01*
X42683612Y21939310D01*
X43419002Y21240690D02*
X42977768Y21240690D01*
X43198385Y21240690D02*
X43198385Y22012850D01*
X43124846Y21902541D01*
X43051307Y21829002D01*
X42977768Y21792232D01*
X44117623Y22012850D02*
X43749928Y22012850D01*
X43713158Y21645154D01*
X43749928Y21681924D01*
X43823467Y21718693D01*
X44007314Y21718693D01*
X44080853Y21681924D01*
X44117623Y21645154D01*
X44154392Y21571615D01*
X44154392Y21387768D01*
X44117623Y21314229D01*
X44080853Y21277459D01*
X44007314Y21240690D01*
X43823467Y21240690D01*
X43749928Y21277459D01*
X43713158Y21314229D01*
X40088458Y21461307D02*
X40456153Y21461307D01*
X40014919Y21240690D02*
X40272306Y22012850D01*
X40529692Y21240690D01*
X40934157Y22012850D02*
X41007696Y22012850D01*
X41081235Y21976080D01*
X41118004Y21939310D01*
X41154774Y21865771D01*
X41191543Y21718693D01*
X41191543Y21534846D01*
X41154774Y21387768D01*
X41118004Y21314229D01*
X41081235Y21277459D01*
X41007696Y21240690D01*
X40934157Y21240690D01*
X40860618Y21277459D01*
X40823848Y21314229D01*
X40787079Y21387768D01*
X40750309Y21534846D01*
X40750309Y21718693D01*
X40787079Y21865771D01*
X40823848Y21939310D01*
X40860618Y21976080D01*
X40934157Y22012850D01*
X37548458Y21461307D02*
X37916153Y21461307D01*
X37474919Y21240690D02*
X37732306Y22012850D01*
X37989692Y21240690D01*
X38651543Y21240690D02*
X38210309Y21240690D01*
X38430926Y21240690D02*
X38430926Y22012850D01*
X38357387Y21902541D01*
X38283848Y21829002D01*
X38210309Y21792232D01*
X35008458Y21461307D02*
X35376153Y21461307D01*
X34934919Y21240690D02*
X35192306Y22012850D01*
X35449692Y21240690D01*
X35670309Y21939310D02*
X35707079Y21976080D01*
X35780618Y22012850D01*
X35964465Y22012850D01*
X36038004Y21976080D01*
X36074774Y21939310D01*
X36111543Y21865771D01*
X36111543Y21792232D01*
X36074774Y21681924D01*
X35633540Y21240690D01*
X36111543Y21240690D01*
X32468458Y21461307D02*
X32836153Y21461307D01*
X32394919Y21240690D02*
X32652306Y22012850D01*
X32909692Y21240690D01*
X33093540Y22012850D02*
X33571543Y22012850D01*
X33314157Y21718693D01*
X33424465Y21718693D01*
X33498004Y21681924D01*
X33534774Y21645154D01*
X33571543Y21571615D01*
X33571543Y21387768D01*
X33534774Y21314229D01*
X33498004Y21277459D01*
X33424465Y21240690D01*
X33203848Y21240690D01*
X33130309Y21277459D01*
X33093540Y21314229D01*
X29928458Y21461307D02*
X30296153Y21461307D01*
X29854919Y21240690D02*
X30112306Y22012850D01*
X30369692Y21240690D01*
X30958004Y21755463D02*
X30958004Y21240690D01*
X30774157Y22049619D02*
X30590309Y21498076D01*
X31068313Y21498076D01*
X27388458Y21461307D02*
X27756153Y21461307D01*
X27314919Y21240690D02*
X27572306Y22012850D01*
X27829692Y21240690D01*
X28454774Y22012850D02*
X28087079Y22012850D01*
X28050309Y21645154D01*
X28087079Y21681924D01*
X28160618Y21718693D01*
X28344465Y21718693D01*
X28418004Y21681924D01*
X28454774Y21645154D01*
X28491543Y21571615D01*
X28491543Y21387768D01*
X28454774Y21314229D01*
X28418004Y21277459D01*
X28344465Y21240690D01*
X28160618Y21240690D01*
X28087079Y21277459D01*
X28050309Y21314229D01*
X24848458Y21461307D02*
X25216153Y21461307D01*
X24774919Y21240690D02*
X25032306Y22012850D01*
X25289692Y21240690D01*
X25878004Y22012850D02*
X25730926Y22012850D01*
X25657387Y21976080D01*
X25620618Y21939310D01*
X25547079Y21829002D01*
X25510309Y21681924D01*
X25510309Y21387768D01*
X25547079Y21314229D01*
X25583848Y21277459D01*
X25657387Y21240690D01*
X25804465Y21240690D01*
X25878004Y21277459D01*
X25914774Y21314229D01*
X25951543Y21387768D01*
X25951543Y21571615D01*
X25914774Y21645154D01*
X25878004Y21681924D01*
X25804465Y21718693D01*
X25657387Y21718693D01*
X25583848Y21681924D01*
X25547079Y21645154D01*
X25510309Y21571615D01*
X22308458Y21461307D02*
X22676153Y21461307D01*
X22234919Y21240690D02*
X22492306Y22012850D01*
X22749692Y21240690D01*
X22933540Y22012850D02*
X23448313Y22012850D01*
X23117387Y21240690D01*
X20007459Y21645154D02*
X20117768Y21608385D01*
X20154537Y21571615D01*
X20191307Y21498076D01*
X20191307Y21387768D01*
X20154537Y21314229D01*
X20117768Y21277459D01*
X20044229Y21240690D01*
X19750073Y21240690D01*
X19750073Y22012850D01*
X20007459Y22012850D01*
X20080998Y21976080D01*
X20117768Y21939310D01*
X20154537Y21865771D01*
X20154537Y21792232D01*
X20117768Y21718693D01*
X20080998Y21681924D01*
X20007459Y21645154D01*
X19750073Y21645154D01*
X20669311Y22012850D02*
X20742850Y22012850D01*
X20816389Y21976080D01*
X20853158Y21939310D01*
X20889928Y21865771D01*
X20926697Y21718693D01*
X20926697Y21534846D01*
X20889928Y21387768D01*
X20853158Y21314229D01*
X20816389Y21277459D01*
X20742850Y21240690D01*
X20669311Y21240690D01*
X20595772Y21277459D01*
X20559002Y21314229D01*
X20522233Y21387768D01*
X20485463Y21534846D01*
X20485463Y21718693D01*
X20522233Y21865771D01*
X20559002Y21939310D01*
X20595772Y21976080D01*
X20669311Y22012850D01*
X17467459Y21645154D02*
X17577768Y21608385D01*
X17614537Y21571615D01*
X17651307Y21498076D01*
X17651307Y21387768D01*
X17614537Y21314229D01*
X17577768Y21277459D01*
X17504229Y21240690D01*
X17210073Y21240690D01*
X17210073Y22012850D01*
X17467459Y22012850D01*
X17540998Y21976080D01*
X17577768Y21939310D01*
X17614537Y21865771D01*
X17614537Y21792232D01*
X17577768Y21718693D01*
X17540998Y21681924D01*
X17467459Y21645154D01*
X17210073Y21645154D01*
X18386697Y21240690D02*
X17945463Y21240690D01*
X18166080Y21240690D02*
X18166080Y22012850D01*
X18092541Y21902541D01*
X18019002Y21829002D01*
X17945463Y21792232D01*
X14559764Y21645154D02*
X14670073Y21608385D01*
X14706842Y21571615D01*
X14743612Y21498076D01*
X14743612Y21387768D01*
X14706842Y21314229D01*
X14670073Y21277459D01*
X14596534Y21240690D01*
X14302378Y21240690D01*
X14302378Y22012850D01*
X14559764Y22012850D01*
X14633303Y21976080D01*
X14670073Y21939310D01*
X14706842Y21865771D01*
X14706842Y21792232D01*
X14670073Y21718693D01*
X14633303Y21681924D01*
X14559764Y21645154D01*
X14302378Y21645154D01*
X15479002Y21240690D02*
X15037768Y21240690D01*
X15258385Y21240690D02*
X15258385Y22012850D01*
X15184846Y21902541D01*
X15111307Y21829002D01*
X15037768Y21792232D01*
X15957006Y22012850D02*
X16030545Y22012850D01*
X16104084Y21976080D01*
X16140853Y21939310D01*
X16177623Y21865771D01*
X16214392Y21718693D01*
X16214392Y21534846D01*
X16177623Y21387768D01*
X16140853Y21314229D01*
X16104084Y21277459D01*
X16030545Y21240690D01*
X15957006Y21240690D01*
X15883467Y21277459D01*
X15846697Y21314229D01*
X15809928Y21387768D01*
X15773158Y21534846D01*
X15773158Y21718693D01*
X15809928Y21865771D01*
X15846697Y21939310D01*
X15883467Y21976080D01*
X15957006Y22012850D01*
X12019764Y21645154D02*
X12130073Y21608385D01*
X12166842Y21571615D01*
X12203612Y21498076D01*
X12203612Y21387768D01*
X12166842Y21314229D01*
X12130073Y21277459D01*
X12056534Y21240690D01*
X11762378Y21240690D01*
X11762378Y22012850D01*
X12019764Y22012850D01*
X12093303Y21976080D01*
X12130073Y21939310D01*
X12166842Y21865771D01*
X12166842Y21792232D01*
X12130073Y21718693D01*
X12093303Y21681924D01*
X12019764Y21645154D01*
X11762378Y21645154D01*
X12939002Y21240690D02*
X12497768Y21240690D01*
X12718385Y21240690D02*
X12718385Y22012850D01*
X12644846Y21902541D01*
X12571307Y21829002D01*
X12497768Y21792232D01*
X13674392Y21240690D02*
X13233158Y21240690D01*
X13453775Y21240690D02*
X13453775Y22012850D01*
X13380236Y21902541D01*
X13306697Y21829002D01*
X13233158Y21792232D01*
X9737151Y21240690D02*
X9479764Y21608385D01*
X9295917Y21240690D02*
X9295917Y22012850D01*
X9590073Y22012850D01*
X9663612Y21976080D01*
X9700381Y21939310D01*
X9737151Y21865771D01*
X9737151Y21755463D01*
X9700381Y21681924D01*
X9663612Y21645154D01*
X9590073Y21608385D01*
X9295917Y21608385D01*
X10031307Y21277459D02*
X10141616Y21240690D01*
X10325463Y21240690D01*
X10399002Y21277459D01*
X10435772Y21314229D01*
X10472541Y21387768D01*
X10472541Y21461307D01*
X10435772Y21534846D01*
X10399002Y21571615D01*
X10325463Y21608385D01*
X10178385Y21645154D01*
X10104846Y21681924D01*
X10068077Y21718693D01*
X10031307Y21792232D01*
X10031307Y21865771D01*
X10068077Y21939310D01*
X10104846Y21976080D01*
X10178385Y22012850D01*
X10362233Y22012850D01*
X10472541Y21976080D01*
X10693158Y22012850D02*
X11134392Y22012850D01*
X10913775Y21240690D02*
X10913775Y22012850D01*
X6663994Y22012850D02*
X7141997Y22012850D01*
X6884611Y21718693D01*
X6994919Y21718693D01*
X7068458Y21681924D01*
X7105228Y21645154D01*
X7141997Y21571615D01*
X7141997Y21387768D01*
X7105228Y21314229D01*
X7068458Y21277459D01*
X6994919Y21240690D01*
X6774302Y21240690D01*
X6700763Y21277459D01*
X6663994Y21314229D01*
X7362614Y22012850D02*
X7620001Y21240690D01*
X7877387Y22012850D01*
X8061235Y22012850D02*
X8539238Y22012850D01*
X8281852Y21718693D01*
X8392160Y21718693D01*
X8465699Y21681924D01*
X8502469Y21645154D01*
X8539238Y21571615D01*
X8539238Y21387768D01*
X8502469Y21314229D01*
X8465699Y21277459D01*
X8392160Y21240690D01*
X8171543Y21240690D01*
X8098004Y21277459D01*
X8061235Y21314229D01*
X4491687Y21976080D02*
X4418148Y22012850D01*
X4307840Y22012850D01*
X4197531Y21976080D01*
X4123992Y21902541D01*
X4087223Y21829002D01*
X4050453Y21681924D01*
X4050453Y21571615D01*
X4087223Y21424537D01*
X4123992Y21350998D01*
X4197531Y21277459D01*
X4307840Y21240690D01*
X4381379Y21240690D01*
X4491687Y21277459D01*
X4528457Y21314229D01*
X4528457Y21571615D01*
X4381379Y21571615D01*
X4859383Y21240690D02*
X4859383Y22012850D01*
X5300617Y21240690D01*
X5300617Y22012850D01*
X5668313Y21240690D02*
X5668313Y22012850D01*
X5852160Y22012850D01*
X5962469Y21976080D01*
X6036008Y21902541D01*
X6072777Y21829002D01*
X6109547Y21681924D01*
X6109547Y21571615D01*
X6072777Y21424537D01*
X6036008Y21350998D01*
X5962469Y21277459D01*
X5852160Y21240690D01*
X5668313Y21240690D01*
X1951687Y21976080D02*
X1878148Y22012850D01*
X1767840Y22012850D01*
X1657531Y21976080D01*
X1583992Y21902541D01*
X1547223Y21829002D01*
X1510453Y21681924D01*
X1510453Y21571615D01*
X1547223Y21424537D01*
X1583992Y21350998D01*
X1657531Y21277459D01*
X1767840Y21240690D01*
X1841379Y21240690D01*
X1951687Y21277459D01*
X1988457Y21314229D01*
X1988457Y21571615D01*
X1841379Y21571615D01*
X2319383Y21240690D02*
X2319383Y22012850D01*
X2760617Y21240690D01*
X2760617Y22012850D01*
X3128313Y21240690D02*
X3128313Y22012850D01*
X3312160Y22012850D01*
X3422469Y21976080D01*
X3496008Y21902541D01*
X3532777Y21829002D01*
X3569547Y21681924D01*
X3569547Y21571615D01*
X3532777Y21424537D01*
X3496008Y21350998D01*
X3422469Y21277459D01*
X3312160Y21240690D01*
X3128313Y21240690D01*
X1859764Y1325154D02*
X1970073Y1288385D01*
X2006842Y1251615D01*
X2043612Y1178076D01*
X2043612Y1067768D01*
X2006842Y994229D01*
X1970073Y957459D01*
X1896534Y920690D01*
X1602378Y920690D01*
X1602378Y1692850D01*
X1859764Y1692850D01*
X1933303Y1656080D01*
X1970073Y1619310D01*
X2006842Y1545771D01*
X2006842Y1472232D01*
X1970073Y1398693D01*
X1933303Y1361924D01*
X1859764Y1325154D01*
X1602378Y1325154D01*
X2779002Y920690D02*
X2337768Y920690D01*
X2558385Y920690D02*
X2558385Y1692850D01*
X2484846Y1582541D01*
X2411307Y1509002D01*
X2337768Y1472232D01*
X3073158Y1619310D02*
X3109928Y1656080D01*
X3183467Y1692850D01*
X3367314Y1692850D01*
X3440853Y1656080D01*
X3477623Y1619310D01*
X3514392Y1545771D01*
X3514392Y1472232D01*
X3477623Y1361924D01*
X3036389Y920690D01*
X3514392Y920690D01*
X4399764Y1325154D02*
X4510073Y1288385D01*
X4546842Y1251615D01*
X4583612Y1178076D01*
X4583612Y1067768D01*
X4546842Y994229D01*
X4510073Y957459D01*
X4436534Y920690D01*
X4142378Y920690D01*
X4142378Y1692850D01*
X4399764Y1692850D01*
X4473303Y1656080D01*
X4510073Y1619310D01*
X4546842Y1545771D01*
X4546842Y1472232D01*
X4510073Y1398693D01*
X4473303Y1361924D01*
X4399764Y1325154D01*
X4142378Y1325154D01*
X5319002Y920690D02*
X4877768Y920690D01*
X5098385Y920690D02*
X5098385Y1692850D01*
X5024846Y1582541D01*
X4951307Y1509002D01*
X4877768Y1472232D01*
X5576389Y1692850D02*
X6054392Y1692850D01*
X5797006Y1398693D01*
X5907314Y1398693D01*
X5980853Y1361924D01*
X6017623Y1325154D01*
X6054392Y1251615D01*
X6054392Y1067768D01*
X6017623Y994229D01*
X5980853Y957459D01*
X5907314Y920690D01*
X5686697Y920690D01*
X5613158Y957459D01*
X5576389Y994229D01*
X6939764Y1325154D02*
X7050073Y1288385D01*
X7086842Y1251615D01*
X7123612Y1178076D01*
X7123612Y1067768D01*
X7086842Y994229D01*
X7050073Y957459D01*
X6976534Y920690D01*
X6682378Y920690D01*
X6682378Y1692850D01*
X6939764Y1692850D01*
X7013303Y1656080D01*
X7050073Y1619310D01*
X7086842Y1545771D01*
X7086842Y1472232D01*
X7050073Y1398693D01*
X7013303Y1361924D01*
X6939764Y1325154D01*
X6682378Y1325154D01*
X7859002Y920690D02*
X7417768Y920690D01*
X7638385Y920690D02*
X7638385Y1692850D01*
X7564846Y1582541D01*
X7491307Y1509002D01*
X7417768Y1472232D01*
X8520853Y1435463D02*
X8520853Y920690D01*
X8337006Y1729619D02*
X8153158Y1178076D01*
X8631162Y1178076D01*
X9479764Y1325154D02*
X9590073Y1288385D01*
X9626842Y1251615D01*
X9663612Y1178076D01*
X9663612Y1067768D01*
X9626842Y994229D01*
X9590073Y957459D01*
X9516534Y920690D01*
X9222378Y920690D01*
X9222378Y1692850D01*
X9479764Y1692850D01*
X9553303Y1656080D01*
X9590073Y1619310D01*
X9626842Y1545771D01*
X9626842Y1472232D01*
X9590073Y1398693D01*
X9553303Y1361924D01*
X9479764Y1325154D01*
X9222378Y1325154D01*
X10399002Y920690D02*
X9957768Y920690D01*
X10178385Y920690D02*
X10178385Y1692850D01*
X10104846Y1582541D01*
X10031307Y1509002D01*
X9957768Y1472232D01*
X11097623Y1692850D02*
X10729928Y1692850D01*
X10693158Y1325154D01*
X10729928Y1361924D01*
X10803467Y1398693D01*
X10987314Y1398693D01*
X11060853Y1361924D01*
X11097623Y1325154D01*
X11134392Y1251615D01*
X11134392Y1067768D01*
X11097623Y994229D01*
X11060853Y957459D01*
X10987314Y920690D01*
X10803467Y920690D01*
X10729928Y957459D01*
X10693158Y994229D01*
X12148458Y1141307D02*
X12516153Y1141307D01*
X12074919Y920690D02*
X12332306Y1692850D01*
X12589692Y920690D01*
X12957387Y1361924D02*
X12883848Y1398693D01*
X12847079Y1435463D01*
X12810309Y1509002D01*
X12810309Y1545771D01*
X12847079Y1619310D01*
X12883848Y1656080D01*
X12957387Y1692850D01*
X13104465Y1692850D01*
X13178004Y1656080D01*
X13214774Y1619310D01*
X13251543Y1545771D01*
X13251543Y1509002D01*
X13214774Y1435463D01*
X13178004Y1398693D01*
X13104465Y1361924D01*
X12957387Y1361924D01*
X12883848Y1325154D01*
X12847079Y1288385D01*
X12810309Y1214846D01*
X12810309Y1067768D01*
X12847079Y994229D01*
X12883848Y957459D01*
X12957387Y920690D01*
X13104465Y920690D01*
X13178004Y957459D01*
X13214774Y994229D01*
X13251543Y1067768D01*
X13251543Y1214846D01*
X13214774Y1288385D01*
X13178004Y1325154D01*
X13104465Y1361924D01*
X14688458Y1141307D02*
X15056153Y1141307D01*
X14614919Y920690D02*
X14872306Y1692850D01*
X15129692Y920690D01*
X15423848Y920690D02*
X15570926Y920690D01*
X15644465Y957459D01*
X15681235Y994229D01*
X15754774Y1104537D01*
X15791543Y1251615D01*
X15791543Y1545771D01*
X15754774Y1619310D01*
X15718004Y1656080D01*
X15644465Y1692850D01*
X15497387Y1692850D01*
X15423848Y1656080D01*
X15387079Y1619310D01*
X15350309Y1545771D01*
X15350309Y1361924D01*
X15387079Y1288385D01*
X15423848Y1251615D01*
X15497387Y1214846D01*
X15644465Y1214846D01*
X15718004Y1251615D01*
X15754774Y1288385D01*
X15791543Y1361924D01*
X16860763Y1141307D02*
X17228458Y1141307D01*
X16787224Y920690D02*
X17044611Y1692850D01*
X17301997Y920690D01*
X17963848Y920690D02*
X17522614Y920690D01*
X17743231Y920690D02*
X17743231Y1692850D01*
X17669692Y1582541D01*
X17596153Y1509002D01*
X17522614Y1472232D01*
X18441852Y1692850D02*
X18515391Y1692850D01*
X18588930Y1656080D01*
X18625699Y1619310D01*
X18662469Y1545771D01*
X18699238Y1398693D01*
X18699238Y1214846D01*
X18662469Y1067768D01*
X18625699Y994229D01*
X18588930Y957459D01*
X18515391Y920690D01*
X18441852Y920690D01*
X18368313Y957459D01*
X18331543Y994229D01*
X18294774Y1067768D01*
X18258004Y1214846D01*
X18258004Y1398693D01*
X18294774Y1545771D01*
X18331543Y1619310D01*
X18368313Y1656080D01*
X18441852Y1692850D01*
X19400763Y1141307D02*
X19768458Y1141307D01*
X19327224Y920690D02*
X19584611Y1692850D01*
X19841997Y920690D01*
X20503848Y920690D02*
X20062614Y920690D01*
X20283231Y920690D02*
X20283231Y1692850D01*
X20209692Y1582541D01*
X20136153Y1509002D01*
X20062614Y1472232D01*
X21239238Y920690D02*
X20798004Y920690D01*
X21018621Y920690D02*
X21018621Y1692850D01*
X20945082Y1582541D01*
X20871543Y1509002D01*
X20798004Y1472232D01*
X21940763Y1141307D02*
X22308458Y1141307D01*
X21867224Y920690D02*
X22124611Y1692850D01*
X22381997Y920690D01*
X23043848Y920690D02*
X22602614Y920690D01*
X22823231Y920690D02*
X22823231Y1692850D01*
X22749692Y1582541D01*
X22676153Y1509002D01*
X22602614Y1472232D01*
X23338004Y1619310D02*
X23374774Y1656080D01*
X23448313Y1692850D01*
X23632160Y1692850D01*
X23705699Y1656080D01*
X23742469Y1619310D01*
X23779238Y1545771D01*
X23779238Y1472232D01*
X23742469Y1361924D01*
X23301235Y920690D01*
X23779238Y920690D01*
X24480763Y1141307D02*
X24848458Y1141307D01*
X24407224Y920690D02*
X24664611Y1692850D01*
X24921997Y920690D01*
X25583848Y920690D02*
X25142614Y920690D01*
X25363231Y920690D02*
X25363231Y1692850D01*
X25289692Y1582541D01*
X25216153Y1509002D01*
X25142614Y1472232D01*
X26282469Y1692850D02*
X25914774Y1692850D01*
X25878004Y1325154D01*
X25914774Y1361924D01*
X25988313Y1398693D01*
X26172160Y1398693D01*
X26245699Y1361924D01*
X26282469Y1325154D01*
X26319238Y1251615D01*
X26319238Y1067768D01*
X26282469Y994229D01*
X26245699Y957459D01*
X26172160Y920690D01*
X25988313Y920690D01*
X25914774Y957459D01*
X25878004Y994229D01*
X27627459Y1325154D02*
X27737768Y1288385D01*
X27774537Y1251615D01*
X27811307Y1178076D01*
X27811307Y1067768D01*
X27774537Y994229D01*
X27737768Y957459D01*
X27664229Y920690D01*
X27370073Y920690D01*
X27370073Y1692850D01*
X27627459Y1692850D01*
X27700998Y1656080D01*
X27737768Y1619310D01*
X27774537Y1545771D01*
X27774537Y1472232D01*
X27737768Y1398693D01*
X27700998Y1361924D01*
X27627459Y1325154D01*
X27370073Y1325154D01*
X28068694Y1692850D02*
X28546697Y1692850D01*
X28289311Y1398693D01*
X28399619Y1398693D01*
X28473158Y1361924D01*
X28509928Y1325154D01*
X28546697Y1251615D01*
X28546697Y1067768D01*
X28509928Y994229D01*
X28473158Y957459D01*
X28399619Y920690D01*
X28179002Y920690D01*
X28105463Y957459D01*
X28068694Y994229D01*
X30167459Y1325154D02*
X30277768Y1288385D01*
X30314537Y1251615D01*
X30351307Y1178076D01*
X30351307Y1067768D01*
X30314537Y994229D01*
X30277768Y957459D01*
X30204229Y920690D01*
X29910073Y920690D01*
X29910073Y1692850D01*
X30167459Y1692850D01*
X30240998Y1656080D01*
X30277768Y1619310D01*
X30314537Y1545771D01*
X30314537Y1472232D01*
X30277768Y1398693D01*
X30240998Y1361924D01*
X30167459Y1325154D01*
X29910073Y1325154D01*
X31013158Y1435463D02*
X31013158Y920690D01*
X30829311Y1729619D02*
X30645463Y1178076D01*
X31123467Y1178076D01*
X32707459Y1325154D02*
X32817768Y1288385D01*
X32854537Y1251615D01*
X32891307Y1178076D01*
X32891307Y1067768D01*
X32854537Y994229D01*
X32817768Y957459D01*
X32744229Y920690D01*
X32450073Y920690D01*
X32450073Y1692850D01*
X32707459Y1692850D01*
X32780998Y1656080D01*
X32817768Y1619310D01*
X32854537Y1545771D01*
X32854537Y1472232D01*
X32817768Y1398693D01*
X32780998Y1361924D01*
X32707459Y1325154D01*
X32450073Y1325154D01*
X33589928Y1692850D02*
X33222233Y1692850D01*
X33185463Y1325154D01*
X33222233Y1361924D01*
X33295772Y1398693D01*
X33479619Y1398693D01*
X33553158Y1361924D01*
X33589928Y1325154D01*
X33626697Y1251615D01*
X33626697Y1067768D01*
X33589928Y994229D01*
X33553158Y957459D01*
X33479619Y920690D01*
X33295772Y920690D01*
X33222233Y957459D01*
X33185463Y994229D01*
X35247459Y1325154D02*
X35357768Y1288385D01*
X35394537Y1251615D01*
X35431307Y1178076D01*
X35431307Y1067768D01*
X35394537Y994229D01*
X35357768Y957459D01*
X35284229Y920690D01*
X34990073Y920690D01*
X34990073Y1692850D01*
X35247459Y1692850D01*
X35320998Y1656080D01*
X35357768Y1619310D01*
X35394537Y1545771D01*
X35394537Y1472232D01*
X35357768Y1398693D01*
X35320998Y1361924D01*
X35247459Y1325154D01*
X34990073Y1325154D01*
X36093158Y1692850D02*
X35946080Y1692850D01*
X35872541Y1656080D01*
X35835772Y1619310D01*
X35762233Y1509002D01*
X35725463Y1361924D01*
X35725463Y1067768D01*
X35762233Y994229D01*
X35799002Y957459D01*
X35872541Y920690D01*
X36019619Y920690D01*
X36093158Y957459D01*
X36129928Y994229D01*
X36166697Y1067768D01*
X36166697Y1251615D01*
X36129928Y1325154D01*
X36093158Y1361924D01*
X36019619Y1398693D01*
X35872541Y1398693D01*
X35799002Y1361924D01*
X35762233Y1325154D01*
X35725463Y1251615D01*
X37787459Y1325154D02*
X37897768Y1288385D01*
X37934537Y1251615D01*
X37971307Y1178076D01*
X37971307Y1067768D01*
X37934537Y994229D01*
X37897768Y957459D01*
X37824229Y920690D01*
X37530073Y920690D01*
X37530073Y1692850D01*
X37787459Y1692850D01*
X37860998Y1656080D01*
X37897768Y1619310D01*
X37934537Y1545771D01*
X37934537Y1472232D01*
X37897768Y1398693D01*
X37860998Y1361924D01*
X37787459Y1325154D01*
X37530073Y1325154D01*
X38228694Y1692850D02*
X38743467Y1692850D01*
X38412541Y920690D01*
X40327459Y1325154D02*
X40437768Y1288385D01*
X40474537Y1251615D01*
X40511307Y1178076D01*
X40511307Y1067768D01*
X40474537Y994229D01*
X40437768Y957459D01*
X40364229Y920690D01*
X40070073Y920690D01*
X40070073Y1692850D01*
X40327459Y1692850D01*
X40400998Y1656080D01*
X40437768Y1619310D01*
X40474537Y1545771D01*
X40474537Y1472232D01*
X40437768Y1398693D01*
X40400998Y1361924D01*
X40327459Y1325154D01*
X40070073Y1325154D01*
X40952541Y1361924D02*
X40879002Y1398693D01*
X40842233Y1435463D01*
X40805463Y1509002D01*
X40805463Y1545771D01*
X40842233Y1619310D01*
X40879002Y1656080D01*
X40952541Y1692850D01*
X41099619Y1692850D01*
X41173158Y1656080D01*
X41209928Y1619310D01*
X41246697Y1545771D01*
X41246697Y1509002D01*
X41209928Y1435463D01*
X41173158Y1398693D01*
X41099619Y1361924D01*
X40952541Y1361924D01*
X40879002Y1325154D01*
X40842233Y1288385D01*
X40805463Y1214846D01*
X40805463Y1067768D01*
X40842233Y994229D01*
X40879002Y957459D01*
X40952541Y920690D01*
X41099619Y920690D01*
X41173158Y957459D01*
X41209928Y994229D01*
X41246697Y1067768D01*
X41246697Y1214846D01*
X41209928Y1288385D01*
X41173158Y1325154D01*
X41099619Y1361924D01*
X42867459Y1325154D02*
X42977768Y1288385D01*
X43014537Y1251615D01*
X43051307Y1178076D01*
X43051307Y1067768D01*
X43014537Y994229D01*
X42977768Y957459D01*
X42904229Y920690D01*
X42610073Y920690D01*
X42610073Y1692850D01*
X42867459Y1692850D01*
X42940998Y1656080D01*
X42977768Y1619310D01*
X43014537Y1545771D01*
X43014537Y1472232D01*
X42977768Y1398693D01*
X42940998Y1361924D01*
X42867459Y1325154D01*
X42610073Y1325154D01*
X43419002Y920690D02*
X43566080Y920690D01*
X43639619Y957459D01*
X43676389Y994229D01*
X43749928Y1104537D01*
X43786697Y1251615D01*
X43786697Y1545771D01*
X43749928Y1619310D01*
X43713158Y1656080D01*
X43639619Y1692850D01*
X43492541Y1692850D01*
X43419002Y1656080D01*
X43382233Y1619310D01*
X43345463Y1545771D01*
X43345463Y1361924D01*
X43382233Y1288385D01*
X43419002Y1251615D01*
X43492541Y1214846D01*
X43639619Y1214846D01*
X43713158Y1251615D01*
X43749928Y1288385D01*
X43786697Y1361924D01*
X45572923Y1692850D02*
X45205228Y1692850D01*
X45168458Y1325154D01*
X45205228Y1361924D01*
X45278767Y1398693D01*
X45462614Y1398693D01*
X45536153Y1361924D01*
X45572923Y1325154D01*
X45609692Y1251615D01*
X45609692Y1067768D01*
X45572923Y994229D01*
X45536153Y957459D01*
X45462614Y920690D01*
X45278767Y920690D01*
X45205228Y957459D01*
X45168458Y994229D01*
X45830309Y1692850D02*
X46087696Y920690D01*
X46345082Y1692850D01*
X47671687Y1656080D02*
X47598148Y1692850D01*
X47487840Y1692850D01*
X47377531Y1656080D01*
X47303992Y1582541D01*
X47267223Y1509002D01*
X47230453Y1361924D01*
X47230453Y1251615D01*
X47267223Y1104537D01*
X47303992Y1030998D01*
X47377531Y957459D01*
X47487840Y920690D01*
X47561379Y920690D01*
X47671687Y957459D01*
X47708457Y994229D01*
X47708457Y1251615D01*
X47561379Y1251615D01*
X48039383Y920690D02*
X48039383Y1692850D01*
X48480617Y920690D01*
X48480617Y1692850D01*
X48848313Y920690D02*
X48848313Y1692850D01*
X49032160Y1692850D01*
X49142469Y1656080D01*
X49216008Y1582541D01*
X49252777Y1509002D01*
X49289547Y1361924D01*
X49289547Y1251615D01*
X49252777Y1104537D01*
X49216008Y1030998D01*
X49142469Y957459D01*
X49032160Y920690D01*
X48848313Y920690D01*
X50148068Y1693650D02*
X50626071Y1693650D01*
X50368685Y1399493D01*
X50478993Y1399493D01*
X50552532Y1362724D01*
X50589302Y1325954D01*
X50626071Y1252415D01*
X50626071Y1068568D01*
X50589302Y995029D01*
X50552532Y958259D01*
X50478993Y921490D01*
X50258376Y921490D01*
X50184837Y958259D01*
X50148068Y995029D01*
X50846688Y1693650D02*
X51104075Y921490D01*
X51361461Y1693650D01*
X51545309Y1693650D02*
X52023312Y1693650D01*
X51765926Y1399493D01*
X51876234Y1399493D01*
X51949773Y1362724D01*
X51986543Y1325954D01*
X52023312Y1252415D01*
X52023312Y1068568D01*
X51986543Y995029D01*
X51949773Y958259D01*
X51876234Y921490D01*
X51655617Y921490D01*
X51582078Y958259D01*
X51545309Y995029D01*
X52317468Y1142107D02*
X52685163Y1142107D01*
X52243929Y921490D02*
X52501316Y1693650D01*
X52758702Y921490D01*
X49843994Y8042850D02*
X50321997Y8042850D01*
X50064611Y7748693D01*
X50174919Y7748693D01*
X50248458Y7711924D01*
X50285228Y7675154D01*
X50321997Y7601615D01*
X50321997Y7417768D01*
X50285228Y7344229D01*
X50248458Y7307459D01*
X50174919Y7270690D01*
X49954302Y7270690D01*
X49880763Y7307459D01*
X49843994Y7344229D01*
X50542614Y8042850D02*
X50800001Y7270690D01*
X51057387Y8042850D01*
X51241235Y8042850D02*
X51719238Y8042850D01*
X51461852Y7748693D01*
X51572160Y7748693D01*
X51645699Y7711924D01*
X51682469Y7675154D01*
X51719238Y7601615D01*
X51719238Y7417768D01*
X51682469Y7344229D01*
X51645699Y7307459D01*
X51572160Y7270690D01*
X51351543Y7270690D01*
X51278004Y7307459D01*
X51241235Y7344229D01*
X50009456Y9810690D02*
X50009456Y10582850D01*
X50193303Y10582850D01*
X50303612Y10546080D01*
X50377151Y10472541D01*
X50413920Y10399002D01*
X50450690Y10251924D01*
X50450690Y10141615D01*
X50413920Y9994537D01*
X50377151Y9920998D01*
X50303612Y9847459D01*
X50193303Y9810690D01*
X50009456Y9810690D01*
X50781616Y9810690D02*
X50781616Y10582850D01*
X51296389Y10582850D02*
X51443467Y10582850D01*
X51517006Y10546080D01*
X51590545Y10472541D01*
X51627314Y10325463D01*
X51627314Y10068076D01*
X51590545Y9920998D01*
X51517006Y9847459D01*
X51443467Y9810690D01*
X51296389Y9810690D01*
X51222850Y9847459D01*
X51149311Y9920998D01*
X51112541Y10068076D01*
X51112541Y10325463D01*
X51149311Y10472541D01*
X51222850Y10546080D01*
X51296389Y10582850D01*
X49807223Y12387459D02*
X49917532Y12350690D01*
X50101379Y12350690D01*
X50174918Y12387459D01*
X50211688Y12424229D01*
X50248457Y12497768D01*
X50248457Y12571307D01*
X50211688Y12644846D01*
X50174918Y12681615D01*
X50101379Y12718385D01*
X49954301Y12755154D01*
X49880762Y12791924D01*
X49843993Y12828693D01*
X49807223Y12902232D01*
X49807223Y12975771D01*
X49843993Y13049310D01*
X49880762Y13086080D01*
X49954301Y13122850D01*
X50138149Y13122850D01*
X50248457Y13086080D01*
X51020617Y12424229D02*
X50983847Y12387459D01*
X50873539Y12350690D01*
X50800000Y12350690D01*
X50689691Y12387459D01*
X50616152Y12460998D01*
X50579383Y12534537D01*
X50542613Y12681615D01*
X50542613Y12791924D01*
X50579383Y12939002D01*
X50616152Y13012541D01*
X50689691Y13086080D01*
X50800000Y13122850D01*
X50873539Y13122850D01*
X50983847Y13086080D01*
X51020617Y13049310D01*
X51351543Y12350690D02*
X51351543Y13122850D01*
X51792777Y12350690D02*
X51461851Y12791924D01*
X51792777Y13122850D02*
X51351543Y12681615D01*
X50211687Y15626080D02*
X50138148Y15662850D01*
X50027840Y15662850D01*
X49917531Y15626080D01*
X49843992Y15552541D01*
X49807223Y15479002D01*
X49770453Y15331924D01*
X49770453Y15221615D01*
X49807223Y15074537D01*
X49843992Y15000998D01*
X49917531Y14927459D01*
X50027840Y14890690D01*
X50101379Y14890690D01*
X50211687Y14927459D01*
X50248457Y14964229D01*
X50248457Y15221615D01*
X50101379Y15221615D01*
X50579383Y14890690D02*
X50579383Y15662850D01*
X51020617Y14890690D01*
X51020617Y15662850D01*
X51388313Y14890690D02*
X51388313Y15662850D01*
X51572160Y15662850D01*
X51682469Y15626080D01*
X51756008Y15552541D01*
X51792777Y15479002D01*
X51829547Y15331924D01*
X51829547Y15221615D01*
X51792777Y15074537D01*
X51756008Y15000998D01*
X51682469Y14927459D01*
X51572160Y14890690D01*
X51388313Y14890690D01*
X40534430Y12489290D02*
X40277043Y12856985D01*
X40093196Y12489290D02*
X40093196Y13261450D01*
X40387352Y13261450D01*
X40460891Y13224680D01*
X40497660Y13187910D01*
X40534430Y13114371D01*
X40534430Y13004063D01*
X40497660Y12930524D01*
X40460891Y12893754D01*
X40387352Y12856985D01*
X40093196Y12856985D01*
X40865356Y12893754D02*
X41122742Y12893754D01*
X41233051Y12489290D02*
X40865356Y12489290D01*
X40865356Y13261450D01*
X41233051Y13261450D01*
X41527207Y12526059D02*
X41637516Y12489290D01*
X41821363Y12489290D01*
X41894902Y12526059D01*
X41931672Y12562829D01*
X41968441Y12636368D01*
X41968441Y12709907D01*
X41931672Y12783446D01*
X41894902Y12820215D01*
X41821363Y12856985D01*
X41674285Y12893754D01*
X41600746Y12930524D01*
X41563977Y12967293D01*
X41527207Y13040832D01*
X41527207Y13114371D01*
X41563977Y13187910D01*
X41600746Y13224680D01*
X41674285Y13261450D01*
X41858133Y13261450D01*
X41968441Y13224680D01*
X42299367Y12893754D02*
X42556753Y12893754D01*
X42667062Y12489290D02*
X42299367Y12489290D01*
X42299367Y13261450D01*
X42667062Y13261450D01*
X42887679Y13261450D02*
X43328913Y13261450D01*
X43108296Y12489290D02*
X43108296Y13261450D01*
X39859273Y11268154D02*
X39969582Y11231385D01*
X40006351Y11194615D01*
X40043121Y11121076D01*
X40043121Y11010768D01*
X40006351Y10937229D01*
X39969582Y10900459D01*
X39896043Y10863690D01*
X39601887Y10863690D01*
X39601887Y11635850D01*
X39859273Y11635850D01*
X39932812Y11599080D01*
X39969582Y11562310D01*
X40006351Y11488771D01*
X40006351Y11415232D01*
X39969582Y11341693D01*
X39932812Y11304924D01*
X39859273Y11268154D01*
X39601887Y11268154D01*
X40521125Y11635850D02*
X40668203Y11635850D01*
X40741742Y11599080D01*
X40815281Y11525541D01*
X40852050Y11378463D01*
X40852050Y11121076D01*
X40815281Y10973998D01*
X40741742Y10900459D01*
X40668203Y10863690D01*
X40521125Y10863690D01*
X40447586Y10900459D01*
X40374047Y10973998D01*
X40337277Y11121076D01*
X40337277Y11378463D01*
X40374047Y11525541D01*
X40447586Y11599080D01*
X40521125Y11635850D01*
X41330055Y11635850D02*
X41477133Y11635850D01*
X41550672Y11599080D01*
X41624211Y11525541D01*
X41660980Y11378463D01*
X41660980Y11121076D01*
X41624211Y10973998D01*
X41550672Y10900459D01*
X41477133Y10863690D01*
X41330055Y10863690D01*
X41256516Y10900459D01*
X41182977Y10973998D01*
X41146207Y11121076D01*
X41146207Y11378463D01*
X41182977Y11525541D01*
X41256516Y11599080D01*
X41330055Y11635850D01*
X41881598Y11635850D02*
X42322832Y11635850D01*
X42102215Y10863690D02*
X42102215Y11635850D01*
X42727297Y11635850D02*
X42800836Y11635850D01*
X42874375Y11599080D01*
X42911144Y11562310D01*
X42947914Y11488771D01*
X42984683Y11341693D01*
X42984683Y11157846D01*
X42947914Y11010768D01*
X42911144Y10937229D01*
X42874375Y10900459D01*
X42800836Y10863690D01*
X42727297Y10863690D01*
X42653758Y10900459D01*
X42616988Y10937229D01*
X42580219Y11010768D01*
X42543449Y11157846D01*
X42543449Y11341693D01*
X42580219Y11488771D01*
X42616988Y11562310D01*
X42653758Y11599080D01*
X42727297Y11635850D01*
X40098275Y10351819D02*
X39436424Y9359042D01*
X40355663Y10315050D02*
X40355663Y9689968D01*
X40392432Y9616429D01*
X40429202Y9579659D01*
X40502741Y9542890D01*
X40649819Y9542890D01*
X40723358Y9579659D01*
X40760127Y9616429D01*
X40796897Y9689968D01*
X40796897Y10315050D01*
X41127823Y9579659D02*
X41238132Y9542890D01*
X41421979Y9542890D01*
X41495518Y9579659D01*
X41532288Y9616429D01*
X41569057Y9689968D01*
X41569057Y9763507D01*
X41532288Y9837046D01*
X41495518Y9873815D01*
X41421979Y9910585D01*
X41274901Y9947354D01*
X41201362Y9984124D01*
X41164593Y10020893D01*
X41127823Y10094432D01*
X41127823Y10167971D01*
X41164593Y10241510D01*
X41201362Y10278280D01*
X41274901Y10315050D01*
X41458749Y10315050D01*
X41569057Y10278280D01*
X41899983Y9947354D02*
X42157369Y9947354D01*
X42267678Y9542890D02*
X41899983Y9542890D01*
X41899983Y10315050D01*
X42267678Y10315050D01*
X43039838Y9542890D02*
X42782451Y9910585D01*
X42598604Y9542890D02*
X42598604Y10315050D01*
X42892760Y10315050D01*
X42966299Y10278280D01*
X43003068Y10241510D01*
X43039838Y10167971D01*
X43039838Y10057663D01*
X43003068Y9984124D01*
X42966299Y9947354D01*
X42892760Y9910585D01*
X42598604Y9910585D01*
X48754454Y5442690D02*
X48754454Y6214850D01*
X49048610Y6214850D01*
X49122149Y6178080D01*
X49158918Y6141310D01*
X49195688Y6067771D01*
X49195688Y5957463D01*
X49158918Y5883924D01*
X49122149Y5847154D01*
X49048610Y5810385D01*
X48754454Y5810385D01*
X49453075Y6214850D02*
X49636922Y5442690D01*
X49784000Y5994232D01*
X49931078Y5442690D01*
X50114926Y6214850D01*
X50850317Y5442690D02*
X50592930Y5810385D01*
X50409083Y5442690D02*
X50409083Y6214850D01*
X50703239Y6214850D01*
X50776778Y6178080D01*
X50813547Y6141310D01*
X50850317Y6067771D01*
X50850317Y5957463D01*
X50813547Y5883924D01*
X50776778Y5847154D01*
X50703239Y5810385D01*
X50409083Y5810385D01*
X47825298Y17517850D02*
X47825298Y16892768D01*
X47862067Y16819229D01*
X47898837Y16782459D01*
X47972376Y16745690D01*
X48119454Y16745690D01*
X48192993Y16782459D01*
X48229762Y16819229D01*
X48266532Y16892768D01*
X48266532Y17517850D01*
X48597458Y16782459D02*
X48707767Y16745690D01*
X48891614Y16745690D01*
X48965153Y16782459D01*
X49001923Y16819229D01*
X49038692Y16892768D01*
X49038692Y16966307D01*
X49001923Y17039846D01*
X48965153Y17076615D01*
X48891614Y17113385D01*
X48744536Y17150154D01*
X48670997Y17186924D01*
X48634228Y17223693D01*
X48597458Y17297232D01*
X48597458Y17370771D01*
X48634228Y17444310D01*
X48670997Y17481080D01*
X48744536Y17517850D01*
X48928384Y17517850D01*
X49038692Y17481080D01*
X49369618Y17150154D02*
X49627004Y17150154D01*
X49737313Y16745690D02*
X49369618Y16745690D01*
X49369618Y17517850D01*
X49737313Y17517850D01*
X50509473Y16745690D02*
X50252086Y17113385D01*
X50068239Y16745690D02*
X50068239Y17517850D01*
X50362395Y17517850D01*
X50435934Y17481080D01*
X50472703Y17444310D01*
X50509473Y17370771D01*
X50509473Y17260463D01*
X50472703Y17186924D01*
X50435934Y17150154D01*
X50362395Y17113385D01*
X50068239Y17113385D01*
D12*
X14351000Y15875000D02*
X14097000Y15875000D01*
X14097000Y15875000D02*
X14097000Y14859000D01*
X14351000Y14859000D02*
X14097000Y14859000D01*
X14351000Y15875000D02*
X14351000Y14859000D01*
D13*
X14859000Y14478000D02*
X12319000Y14478000D01*
X12319000Y16256000D02*
X14859000Y16256000D01*
X14859000Y14732000D02*
X14859000Y14478000D01*
X12319000Y14478000D02*
X12319000Y14732000D01*
X14859000Y16256000D02*
X14859000Y16002000D01*
X12319000Y16256000D02*
X12319000Y16002000D01*
G36*
X13081000Y14859000D02*
X13081000Y15875000D01*
X14097000Y15367000D01*
X13081000Y14859000D01*
X13081000Y14859000D01*
G37*
X13081000Y14859000D02*
X13081000Y15875000D01*
X14097000Y15367000D01*
X13081000Y14859000D01*
X14986000Y7620000D02*
X11430000Y7620000D01*
X11430000Y7620000D02*
X11430000Y5588000D01*
X11430000Y5588000D02*
X14986000Y5588000D01*
X14986000Y5588000D02*
X14986000Y7620000D01*
X45720000Y13208000D02*
X45720000Y16510000D01*
X45720000Y16510000D02*
X43942000Y16510000D01*
X43942000Y16510000D02*
X43942000Y13208000D01*
X45720000Y13208000D02*
X43942000Y13208000D01*
X45148500Y16319500D02*
X45402500Y16319500D01*
X45275500Y16192500D02*
X45275500Y16446500D01*
G36*
X45720000Y13208000D02*
X45720000Y13512800D01*
X45415200Y13208000D01*
X45720000Y13208000D01*
X45720000Y13208000D01*
G37*
X45720000Y13208000D02*
X45720000Y13512800D01*
X45415200Y13208000D01*
X45720000Y13208000D01*
X33528000Y6350000D02*
X33528000Y8890000D01*
X33528000Y8890000D02*
X35306000Y8890000D01*
X35306000Y8890000D02*
X35306000Y6350000D01*
X35306000Y6350000D02*
X33528000Y6350000D01*
X36880800Y11684000D02*
X40182800Y11684000D01*
X40182800Y11684000D02*
X40182800Y12954000D01*
X40182800Y12954000D02*
X36880800Y12954000D01*
X36880800Y12954000D02*
X36880800Y11684000D01*
X36830000Y12954000D02*
X36830000Y8890000D01*
X36830000Y8890000D02*
X33274000Y8890000D01*
X33274000Y8890000D02*
X33274000Y12954000D01*
X33274000Y12954000D02*
X36830000Y12954000D01*
X33274000Y4826000D02*
X20066000Y4826000D01*
X20066000Y4826000D02*
X20066000Y18034000D01*
X20066000Y18034000D02*
X33274000Y18034000D01*
X33274000Y18034000D02*
X33274000Y4826000D01*
G36*
X33274000Y4826000D02*
X33274000Y6096000D01*
X32004000Y4826000D01*
X33274000Y4826000D01*
X33274000Y4826000D01*
G37*
X33274000Y4826000D02*
X33274000Y6096000D01*
X32004000Y4826000D01*
X33274000Y4826000D01*
D12*
X40513000Y9271000D02*
X43307000Y9271000D01*
X40513000Y6477000D02*
X43307000Y6477000D01*
X40513000Y16383000D02*
X43307000Y16383000D01*
X40513000Y13589000D02*
X43307000Y13589000D01*
D13*
X48336200Y16510000D02*
X48336200Y13970000D01*
X48336200Y13970000D02*
X48336200Y6350000D01*
X48336200Y6350000D02*
X45796200Y6350000D01*
X45796200Y6350000D02*
X45796200Y13970000D01*
X45796200Y13970000D02*
X45796200Y16510000D01*
X45796200Y16510000D02*
X48336200Y16510000D01*
X48336200Y13970000D02*
X45796200Y13970000D01*
X35052000Y16764000D02*
X35052000Y13462000D01*
X35052000Y13462000D02*
X36322000Y13462000D01*
X36322000Y13462000D02*
X36322000Y16764000D01*
X36322000Y16764000D02*
X35052000Y16764000D01*
X16256000Y7620000D02*
X12700000Y7620000D01*
X12700000Y7620000D02*
X12700000Y14224000D01*
X12700000Y14224000D02*
X16256000Y14224000D01*
X16256000Y14224000D02*
X16256000Y7620000D01*
X36576000Y14351000D02*
X39624000Y14351000D01*
X39624000Y14351000D02*
X39624000Y15367000D01*
X39624000Y15367000D02*
X36576000Y15367000D01*
X36576000Y15367000D02*
X36576000Y14351000D01*
D10*
G36*
X36576000Y14351000D02*
X37719000Y14351000D01*
X36576000Y15367000D01*
X36576000Y14351000D01*
G37*
D12*
X36449000Y13335000D02*
G75*
G03X36449000Y13335000I-127000J0D01*
G01*
D13*
X9652000Y14732000D02*
X9652000Y17780000D01*
X9652000Y17780000D02*
X8636000Y17780000D01*
X8636000Y17780000D02*
X8636000Y14732000D01*
X8636000Y14732000D02*
X9652000Y14732000D01*
D10*
G36*
X9652000Y14732000D02*
X9652000Y15875000D01*
X8636000Y14732000D01*
X9652000Y14732000D01*
G37*
D12*
X10795000Y14478000D02*
G75*
G03X10795000Y14478000I-127000J0D01*
G01*
D13*
X45720000Y6604000D02*
X45720000Y8153400D01*
X45720000Y8153400D02*
X45720000Y8356600D01*
X45720000Y8356600D02*
X45720000Y9906000D01*
X45720000Y9906000D02*
X43942000Y9906000D01*
X43942000Y9906000D02*
X43942000Y8356600D01*
X43942000Y8356600D02*
X43942000Y8153400D01*
X43942000Y8153400D02*
X43942000Y6604000D01*
X43942000Y6604000D02*
X45720000Y6604000D01*
D10*
G36*
X45783500Y6350000D02*
X45783500Y6604000D01*
X43878500Y6604000D01*
X43878500Y6350000D01*
X45783500Y6350000D01*
G37*
D13*
X52070000Y2540000D02*
X49530000Y2540000D01*
X49530000Y2540000D02*
X1270000Y2540000D01*
X1270000Y2540000D02*
X1270000Y5080000D01*
X1270000Y5080000D02*
X49530000Y5080000D01*
X49530000Y5080000D02*
X52070000Y5080000D01*
X52070000Y5080000D02*
X52070000Y2540000D01*
X49530000Y2540000D02*
X49530000Y5080000D01*
X52070000Y17780000D02*
X49530000Y17780000D01*
X49530000Y17780000D02*
X1270000Y17780000D01*
X1270000Y17780000D02*
X1270000Y20320000D01*
X1270000Y20320000D02*
X49530000Y20320000D01*
X49530000Y20320000D02*
X52070000Y20320000D01*
X52070000Y20320000D02*
X52070000Y17780000D01*
X49530000Y17780000D02*
X49530000Y20320000D01*
X20066000Y5334000D02*
X17526000Y5334000D01*
X17526000Y5334000D02*
X17526000Y6604000D01*
X17526000Y6604000D02*
X20066000Y6604000D01*
X20066000Y6604000D02*
X20066000Y5334000D01*
X17526000Y7874000D02*
X20066000Y7874000D01*
X20066000Y7874000D02*
X20066000Y6604000D01*
X20066000Y6604000D02*
X17526000Y6604000D01*
X17526000Y6604000D02*
X17526000Y7874000D01*
X10160000Y7620000D02*
X10160000Y5080000D01*
X10160000Y5080000D02*
X8890000Y5080000D01*
X8890000Y5080000D02*
X8890000Y7620000D01*
X8890000Y7620000D02*
X10160000Y7620000D01*
X16256000Y7620000D02*
X16256000Y5080000D01*
X16256000Y5080000D02*
X14986000Y5080000D01*
X14986000Y5080000D02*
X14986000Y7620000D01*
X14986000Y7620000D02*
X16256000Y7620000D01*
X10160000Y13208000D02*
X7620000Y13208000D01*
X7620000Y13208000D02*
X7620000Y14478000D01*
X7620000Y14478000D02*
X10160000Y14478000D01*
X10160000Y14478000D02*
X10160000Y13208000D01*
X17399000Y16510000D02*
X19939000Y16510000D01*
X19939000Y16510000D02*
X19939000Y15240000D01*
X19939000Y15240000D02*
X17399000Y15240000D01*
X17399000Y15240000D02*
X17399000Y16510000D01*
X20066000Y16510000D02*
X17526000Y16510000D01*
X17526000Y16510000D02*
X17526000Y17780000D01*
X17526000Y17780000D02*
X20066000Y17780000D01*
X20066000Y17780000D02*
X20066000Y16510000D01*
X33274000Y15494000D02*
X33274000Y18034000D01*
X33274000Y18034000D02*
X34544000Y18034000D01*
X34544000Y18034000D02*
X34544000Y15494000D01*
X34544000Y15494000D02*
X33274000Y15494000D01*
X33782000Y12954000D02*
X33782000Y15494000D01*
X33782000Y15494000D02*
X35052000Y15494000D01*
X35052000Y15494000D02*
X35052000Y12954000D01*
X35052000Y12954000D02*
X33782000Y12954000D01*
X34544000Y18034000D02*
X37084000Y18034000D01*
X37084000Y18034000D02*
X37084000Y16764000D01*
X37084000Y16764000D02*
X34544000Y16764000D01*
X34544000Y16764000D02*
X34544000Y18034000D01*
X36830000Y11430000D02*
X39370000Y11430000D01*
X39370000Y11430000D02*
X39370000Y10160000D01*
X39370000Y10160000D02*
X36830000Y10160000D01*
X36830000Y10160000D02*
X36830000Y11430000D01*
X36830000Y10160000D02*
X39370000Y10160000D01*
X39370000Y10160000D02*
X39370000Y8890000D01*
X39370000Y8890000D02*
X36830000Y8890000D01*
X36830000Y8890000D02*
X36830000Y10160000D01*
X35814000Y5080000D02*
X33274000Y5080000D01*
X33274000Y5080000D02*
X33274000Y6350000D01*
X33274000Y6350000D02*
X35814000Y6350000D01*
X35814000Y6350000D02*
X35814000Y5080000D01*
X35560000Y7632700D02*
X38100000Y7632700D01*
X38100000Y7632700D02*
X38100000Y6362700D01*
X38100000Y6362700D02*
X35560000Y6362700D01*
X35560000Y6362700D02*
X35560000Y7632700D01*
X35560000Y8890000D02*
X38100000Y8890000D01*
X38100000Y8890000D02*
X38100000Y7620000D01*
X38100000Y7620000D02*
X35560000Y7620000D01*
X35560000Y7620000D02*
X35560000Y8890000D01*
X43434000Y6350000D02*
X45974000Y6350000D01*
X45974000Y6350000D02*
X45974000Y5080000D01*
X45974000Y5080000D02*
X43434000Y5080000D01*
X43434000Y5080000D02*
X43434000Y6350000D01*
X42418000Y16510000D02*
X39878000Y16510000D01*
X39878000Y16510000D02*
X39878000Y17780000D01*
X39878000Y17780000D02*
X42418000Y17780000D01*
X42418000Y17780000D02*
X42418000Y16510000D01*
X10160000Y5080000D02*
X10160000Y7620000D01*
X10160000Y7620000D02*
X11430000Y7620000D01*
X11430000Y7620000D02*
X11430000Y5080000D01*
X11430000Y5080000D02*
X10160000Y5080000D01*
X13589000Y17780000D02*
X16129000Y17780000D01*
X16129000Y17780000D02*
X16129000Y16510000D01*
X16129000Y16510000D02*
X13589000Y16510000D01*
X13589000Y16510000D02*
X13589000Y17780000D01*
X8890000Y8001000D02*
X8890000Y10541000D01*
X8890000Y10541000D02*
X10160000Y10541000D01*
X10160000Y10541000D02*
X10160000Y8001000D01*
X10160000Y8001000D02*
X8890000Y8001000D01*
X8890000Y10541000D02*
X8890000Y8001000D01*
X8890000Y8001000D02*
X7620000Y8001000D01*
X7620000Y8001000D02*
X7620000Y10541000D01*
X7620000Y10541000D02*
X8890000Y10541000D01*
X7620000Y11887200D02*
X10160000Y11887200D01*
X10160000Y11887200D02*
X10160000Y10617200D01*
X10160000Y10617200D02*
X7620000Y10617200D01*
X7620000Y10617200D02*
X7620000Y11887200D01*
X7620000Y13157200D02*
X10160000Y13157200D01*
X10160000Y13157200D02*
X10160000Y11887200D01*
X10160000Y11887200D02*
X7620000Y11887200D01*
X7620000Y11887200D02*
X7620000Y13157200D01*
X11049000Y17780000D02*
X13589000Y17780000D01*
X13589000Y17780000D02*
X13589000Y16510000D01*
X13589000Y16510000D02*
X11049000Y16510000D01*
X11049000Y16510000D02*
X11049000Y17780000D01*
X17399000Y17780000D02*
X17399000Y15240000D01*
X17399000Y15240000D02*
X16129000Y15240000D01*
X16129000Y15240000D02*
X16129000Y17780000D01*
X16129000Y17780000D02*
X17399000Y17780000D01*
X18923000Y13970000D02*
X16383000Y13970000D01*
X16383000Y13970000D02*
X16383000Y15240000D01*
X16383000Y15240000D02*
X18923000Y15240000D01*
X18923000Y15240000D02*
X18923000Y13970000D01*
X38354000Y5080000D02*
X35814000Y5080000D01*
X35814000Y5080000D02*
X35814000Y6350000D01*
X35814000Y6350000D02*
X38354000Y6350000D01*
X38354000Y6350000D02*
X38354000Y5080000D01*
X40894000Y5080000D02*
X38354000Y5080000D01*
X38354000Y5080000D02*
X38354000Y6350000D01*
X38354000Y6350000D02*
X40894000Y6350000D01*
X40894000Y6350000D02*
X40894000Y5080000D01*
X40894000Y6350000D02*
X43434000Y6350000D01*
X43434000Y6350000D02*
X43434000Y5080000D01*
X43434000Y5080000D02*
X40894000Y5080000D01*
X40894000Y5080000D02*
X40894000Y6350000D01*
X44958000Y16510000D02*
X42418000Y16510000D01*
X42418000Y16510000D02*
X42418000Y17780000D01*
X42418000Y17780000D02*
X44958000Y17780000D01*
X44958000Y17780000D02*
X44958000Y16510000D01*
X44450000Y10668000D02*
X44450000Y13208000D01*
X44450000Y13208000D02*
X45720000Y13208000D01*
X45720000Y13208000D02*
X45720000Y10668000D01*
X45720000Y10668000D02*
X44450000Y10668000D01*
X43180000Y10668000D02*
X43180000Y13208000D01*
X43180000Y13208000D02*
X44450000Y13208000D01*
X44450000Y13208000D02*
X44450000Y10668000D01*
X44450000Y10668000D02*
X43180000Y10668000D01*
X47472600Y16510000D02*
X44932600Y16510000D01*
X44932600Y16510000D02*
X44932600Y17780000D01*
X44932600Y17780000D02*
X47472600Y17780000D01*
X47472600Y17780000D02*
X47472600Y16510000D01*
X17526000Y7874000D02*
X17526000Y5334000D01*
X17526000Y5334000D02*
X16256000Y5334000D01*
X16256000Y5334000D02*
X16256000Y7874000D01*
X16256000Y7874000D02*
X17526000Y7874000D01*
X7493000Y5207000D02*
X7493000Y7747000D01*
X7493000Y7747000D02*
X8763000Y7747000D01*
X8763000Y7747000D02*
X8763000Y5207000D01*
X8763000Y5207000D02*
X7493000Y5207000D01*
X45974000Y6350000D02*
X48514000Y6350000D01*
X48514000Y6350000D02*
X48514000Y5080000D01*
X48514000Y5080000D02*
X45974000Y5080000D01*
X45974000Y5080000D02*
X45974000Y6350000D01*
X0Y5080000D02*
X7620000Y5080000D01*
X7620000Y5080000D02*
X7620000Y17780000D01*
X7620000Y17780000D02*
X0Y17780000D01*
M02*
