G04 #@! TF.FileFunction,Soldermask,Top*
%FSLAX46Y46*%
G04 Gerber Fmt 4.6, Leading zero omitted, Abs format (unit mm)*
G04 Created by KiCad (PCBNEW 4.0.7-e2-6376~58~ubuntu16.04.1) date Sun Feb  4 19:42:12 2018*
%MOMM*%
%LPD*%
G01*
G04 APERTURE LIST*
%ADD10C,0.100000*%
%ADD11C,0.127000*%
%ADD12R,0.899160X0.949960*%
%ADD13R,1.150000X1.400000*%
%ADD14R,0.548640X0.797560*%
%ADD15R,1.399540X0.698500*%
%ADD16R,1.016000X0.762000*%
%ADD17R,2.700000X1.500000*%
%ADD18R,1.198880X0.299720*%
%ADD19R,0.299720X1.198880*%
%ADD20R,0.625000X0.575000*%
%ADD21R,0.325000X0.700000*%
%ADD22R,1.524000X1.524000*%
%ADD23C,1.524000*%
%ADD24R,0.762000X1.016000*%
%ADD25R,2.235200X1.219200*%
%ADD26R,2.200000X3.600000*%
%ADD27R,0.550000X0.800000*%
%ADD28R,0.800000X0.550000*%
%ADD29R,1.016000X1.016000*%
%ADD30R,0.762000X0.889000*%
%ADD31R,0.889000X0.762000*%
%ADD32R,1.120140X0.398780*%
%ADD33O,2.300000X1.400000*%
G04 APERTURE END LIST*
D10*
D11*
G36*
X1300480Y7282180D02*
X2199640Y7282180D01*
X2334260Y7266940D01*
X2466340Y7228840D01*
X2588260Y7162800D01*
X2694940Y7076440D01*
X2781300Y6969760D01*
X2844800Y6850380D01*
X2885440Y6718300D01*
X2898140Y6581140D01*
X2885440Y6443980D01*
X2844800Y6314440D01*
X2781300Y6192520D01*
X2694940Y6085840D01*
X2588260Y5999480D01*
X2466340Y5933440D01*
X2334260Y5895340D01*
X2199640Y5880100D01*
X1300480Y5880100D01*
X1165860Y5895340D01*
X1033780Y5933440D01*
X911860Y5999480D01*
X805180Y6085840D01*
X718820Y6192520D01*
X655320Y6314440D01*
X614680Y6443980D01*
X601980Y6581140D01*
X614680Y6718300D01*
X655320Y6850380D01*
X718820Y6969760D01*
X805180Y7076440D01*
X911860Y7162800D01*
X1033780Y7228840D01*
X1165860Y7266940D01*
X1300480Y7282180D01*
X1300480Y7282180D01*
G37*
X1300480Y7282180D02*
X2199640Y7282180D01*
X2334260Y7266940D01*
X2466340Y7228840D01*
X2588260Y7162800D01*
X2694940Y7076440D01*
X2781300Y6969760D01*
X2844800Y6850380D01*
X2885440Y6718300D01*
X2898140Y6581140D01*
X2885440Y6443980D01*
X2844800Y6314440D01*
X2781300Y6192520D01*
X2694940Y6085840D01*
X2588260Y5999480D01*
X2466340Y5933440D01*
X2334260Y5895340D01*
X2199640Y5880100D01*
X1300480Y5880100D01*
X1165860Y5895340D01*
X1033780Y5933440D01*
X911860Y5999480D01*
X805180Y6085840D01*
X718820Y6192520D01*
X655320Y6314440D01*
X614680Y6443980D01*
X601980Y6581140D01*
X614680Y6718300D01*
X655320Y6850380D01*
X718820Y6969760D01*
X805180Y7076440D01*
X911860Y7162800D01*
X1033780Y7228840D01*
X1165860Y7266940D01*
X1300480Y7282180D01*
G36*
X1300480Y16979900D02*
X2199640Y16979900D01*
X2334260Y16964660D01*
X2466340Y16926560D01*
X2588260Y16860520D01*
X2694940Y16774160D01*
X2781300Y16667480D01*
X2844800Y16545560D01*
X2885440Y16416020D01*
X2898140Y16278860D01*
X2885440Y16141700D01*
X2844800Y16009620D01*
X2781300Y15890240D01*
X2694940Y15783560D01*
X2588260Y15697200D01*
X2466340Y15631160D01*
X2334260Y15593060D01*
X2199640Y15577820D01*
X1300480Y15577820D01*
X1165860Y15593060D01*
X1033780Y15631160D01*
X911860Y15697200D01*
X805180Y15783560D01*
X718820Y15890240D01*
X655320Y16009620D01*
X614680Y16141700D01*
X601980Y16278860D01*
X614680Y16416020D01*
X655320Y16545560D01*
X718820Y16667480D01*
X805180Y16774160D01*
X911860Y16860520D01*
X1033780Y16926560D01*
X1165860Y16964660D01*
X1300480Y16979900D01*
X1300480Y16979900D01*
G37*
X1300480Y16979900D02*
X2199640Y16979900D01*
X2334260Y16964660D01*
X2466340Y16926560D01*
X2588260Y16860520D01*
X2694940Y16774160D01*
X2781300Y16667480D01*
X2844800Y16545560D01*
X2885440Y16416020D01*
X2898140Y16278860D01*
X2885440Y16141700D01*
X2844800Y16009620D01*
X2781300Y15890240D01*
X2694940Y15783560D01*
X2588260Y15697200D01*
X2466340Y15631160D01*
X2334260Y15593060D01*
X2199640Y15577820D01*
X1300480Y15577820D01*
X1165860Y15593060D01*
X1033780Y15631160D01*
X911860Y15697200D01*
X805180Y15783560D01*
X718820Y15890240D01*
X655320Y16009620D01*
X614680Y16141700D01*
X601980Y16278860D01*
X614680Y16416020D01*
X655320Y16545560D01*
X718820Y16667480D01*
X805180Y16774160D01*
X911860Y16860520D01*
X1033780Y16926560D01*
X1165860Y16964660D01*
X1300480Y16979900D01*
G36*
X4599940Y7282180D02*
X5499100Y7282180D01*
X5636260Y7266940D01*
X5765800Y7228840D01*
X5887720Y7162800D01*
X5994400Y7076440D01*
X6080760Y6969760D01*
X6144260Y6850380D01*
X6184900Y6718300D01*
X6197600Y6581140D01*
X6184900Y6443980D01*
X6144260Y6314440D01*
X6080760Y6192520D01*
X5994400Y6085840D01*
X5887720Y5999480D01*
X5765800Y5933440D01*
X5636260Y5895340D01*
X5499100Y5880100D01*
X4599940Y5880100D01*
X4462780Y5895340D01*
X4330700Y5933440D01*
X4208780Y5999480D01*
X4104640Y6085840D01*
X4015740Y6192520D01*
X3952240Y6314440D01*
X3911600Y6443980D01*
X3898900Y6581140D01*
X3911600Y6718300D01*
X3952240Y6850380D01*
X4015740Y6969760D01*
X4104640Y7076440D01*
X4208780Y7162800D01*
X4330700Y7228840D01*
X4462780Y7266940D01*
X4599940Y7282180D01*
X4599940Y7282180D01*
G37*
X4599940Y7282180D02*
X5499100Y7282180D01*
X5636260Y7266940D01*
X5765800Y7228840D01*
X5887720Y7162800D01*
X5994400Y7076440D01*
X6080760Y6969760D01*
X6144260Y6850380D01*
X6184900Y6718300D01*
X6197600Y6581140D01*
X6184900Y6443980D01*
X6144260Y6314440D01*
X6080760Y6192520D01*
X5994400Y6085840D01*
X5887720Y5999480D01*
X5765800Y5933440D01*
X5636260Y5895340D01*
X5499100Y5880100D01*
X4599940Y5880100D01*
X4462780Y5895340D01*
X4330700Y5933440D01*
X4208780Y5999480D01*
X4104640Y6085840D01*
X4015740Y6192520D01*
X3952240Y6314440D01*
X3911600Y6443980D01*
X3898900Y6581140D01*
X3911600Y6718300D01*
X3952240Y6850380D01*
X4015740Y6969760D01*
X4104640Y7076440D01*
X4208780Y7162800D01*
X4330700Y7228840D01*
X4462780Y7266940D01*
X4599940Y7282180D01*
G36*
X4599940Y16979900D02*
X5499100Y16979900D01*
X5636260Y16964660D01*
X5765800Y16926560D01*
X5887720Y16860520D01*
X5994400Y16774160D01*
X6080760Y16667480D01*
X6144260Y16545560D01*
X6184900Y16416020D01*
X6197600Y16278860D01*
X6184900Y16141700D01*
X6144260Y16009620D01*
X6080760Y15890240D01*
X5994400Y15783560D01*
X5887720Y15697200D01*
X5765800Y15631160D01*
X5636260Y15593060D01*
X5499100Y15577820D01*
X4599940Y15577820D01*
X4462780Y15593060D01*
X4330700Y15631160D01*
X4208780Y15697200D01*
X4104640Y15783560D01*
X4015740Y15890240D01*
X3952240Y16009620D01*
X3911600Y16141700D01*
X3898900Y16278860D01*
X3911600Y16416020D01*
X3952240Y16545560D01*
X4015740Y16667480D01*
X4104640Y16774160D01*
X4208780Y16860520D01*
X4330700Y16926560D01*
X4462780Y16964660D01*
X4599940Y16979900D01*
X4599940Y16979900D01*
G37*
X4599940Y16979900D02*
X5499100Y16979900D01*
X5636260Y16964660D01*
X5765800Y16926560D01*
X5887720Y16860520D01*
X5994400Y16774160D01*
X6080760Y16667480D01*
X6144260Y16545560D01*
X6184900Y16416020D01*
X6197600Y16278860D01*
X6184900Y16141700D01*
X6144260Y16009620D01*
X6080760Y15890240D01*
X5994400Y15783560D01*
X5887720Y15697200D01*
X5765800Y15631160D01*
X5636260Y15593060D01*
X5499100Y15577820D01*
X4599940Y15577820D01*
X4462780Y15593060D01*
X4330700Y15631160D01*
X4208780Y15697200D01*
X4104640Y15783560D01*
X4015740Y15890240D01*
X3952240Y16009620D01*
X3911600Y16141700D01*
X3898900Y16278860D01*
X3911600Y16416020D01*
X3952240Y16545560D01*
X4015740Y16667480D01*
X4104640Y16774160D01*
X4208780Y16860520D01*
X4330700Y16926560D01*
X4462780Y16964660D01*
X4599940Y16979900D01*
D12*
X12014200Y15367000D03*
X15163800Y15367000D03*
D13*
X14108000Y6604000D03*
X12308000Y6604000D03*
D14*
X45280580Y14061440D03*
X44381420Y14061440D03*
X44381420Y15656560D03*
X45280580Y15656560D03*
D15*
X34417000Y6870700D03*
X34417000Y8369300D03*
D16*
X37642800Y12319000D03*
X39420800Y12319000D03*
D17*
X35052000Y11872000D03*
X35052000Y9972000D03*
D18*
X32418020Y7680960D03*
X32418020Y8181340D03*
X32418020Y8681720D03*
X32418020Y9182100D03*
X32418020Y9682480D03*
X32418020Y10180320D03*
X32418020Y10680700D03*
X32418020Y11181080D03*
X32418020Y11678920D03*
X32418020Y12179300D03*
X32418020Y12679680D03*
X32418020Y13180060D03*
X32418020Y13677900D03*
X32418020Y14178280D03*
X32418020Y14678660D03*
X32418020Y15179040D03*
D19*
X30419040Y17178020D03*
X29918660Y17178020D03*
X29418280Y17178020D03*
X28917900Y17178020D03*
X28420060Y17178020D03*
X27919680Y17178020D03*
X27419300Y17178020D03*
X26918920Y17178020D03*
X26421080Y17178020D03*
X25920700Y17178020D03*
X25420320Y17178020D03*
X24922480Y17178020D03*
X24422100Y17178020D03*
X23921720Y17178020D03*
X23421340Y17178020D03*
X22920960Y17178020D03*
D18*
X20921980Y15179040D03*
X20921980Y14678660D03*
X20921980Y14178280D03*
X20921980Y13677900D03*
X20921980Y13180060D03*
X20921980Y12679680D03*
X20921980Y12179300D03*
X20921980Y11678920D03*
X20921980Y11181080D03*
X20921980Y10680700D03*
X20921980Y10180320D03*
X20921980Y9682480D03*
X20921980Y9182100D03*
X20921980Y8681720D03*
X20921980Y8181340D03*
X20921980Y7680960D03*
D19*
X22920960Y5681980D03*
X23421340Y5681980D03*
X23921720Y5681980D03*
X24422100Y5681980D03*
X24922480Y5681980D03*
X25420320Y5681980D03*
X25920700Y5681980D03*
X26421080Y5681980D03*
X26918920Y5681980D03*
X27419300Y5681980D03*
X27919680Y5681980D03*
X28420060Y5681980D03*
X28917900Y5681980D03*
X29418280Y5681980D03*
X29918660Y5681980D03*
X30419040Y5681980D03*
D20*
X40322500Y8686000D03*
X40322500Y7061500D03*
X43497500Y8686000D03*
X43497500Y7062000D03*
D21*
X40197500Y7874000D03*
X43622500Y7874000D03*
D20*
X40322500Y15798000D03*
X40322500Y14173500D03*
X43497500Y15798000D03*
X43497500Y14174000D03*
D21*
X40197500Y14986000D03*
X43622500Y14986000D03*
D22*
X47066200Y15240000D03*
D23*
X47066200Y12700000D03*
X47066200Y10160000D03*
X47066200Y7620000D03*
D24*
X35687000Y16002000D03*
X35687000Y14224000D03*
D25*
X11379200Y13233400D03*
X11379200Y10922000D03*
X11379200Y8610600D03*
D26*
X17577000Y10922000D03*
D27*
X37150000Y13659000D03*
X38100000Y13659000D03*
X39050000Y13659000D03*
X39050000Y16059000D03*
X37150000Y16059000D03*
D28*
X10344000Y15306000D03*
X10344000Y16256000D03*
X10344000Y17206000D03*
X7944000Y17206000D03*
X7944000Y15306000D03*
D29*
X44831000Y9017000D03*
X44831000Y7493000D03*
D22*
X50800000Y3810000D03*
D23*
X48260000Y3810000D03*
X45720000Y3810000D03*
X43180000Y3810000D03*
X40640000Y3810000D03*
X38100000Y3810000D03*
X35560000Y3810000D03*
X33020000Y3810000D03*
X30480000Y3810000D03*
X27940000Y3810000D03*
X25400000Y3810000D03*
X22860000Y3810000D03*
X20320000Y3810000D03*
X17780000Y3810000D03*
X15240000Y3810000D03*
X12700000Y3810000D03*
X10160000Y3810000D03*
X7620000Y3810000D03*
X5080000Y3810000D03*
X2540000Y3810000D03*
D22*
X50800000Y19050000D03*
D23*
X48260000Y19050000D03*
X45720000Y19050000D03*
X43180000Y19050000D03*
X40640000Y19050000D03*
X38100000Y19050000D03*
X35560000Y19050000D03*
X33020000Y19050000D03*
X30480000Y19050000D03*
X27940000Y19050000D03*
X25400000Y19050000D03*
X22860000Y19050000D03*
X20320000Y19050000D03*
X17780000Y19050000D03*
X15240000Y19050000D03*
X12700000Y19050000D03*
X10160000Y19050000D03*
X7620000Y19050000D03*
X5080000Y19050000D03*
X2540000Y19050000D03*
D30*
X19494500Y5969000D03*
X18097500Y5969000D03*
X18097500Y7239000D03*
X19494500Y7239000D03*
D31*
X9525000Y7048500D03*
X9525000Y5651500D03*
X15621000Y7048500D03*
X15621000Y5651500D03*
D30*
X9588500Y13843000D03*
X8191500Y13843000D03*
X17970500Y15875000D03*
X19367500Y15875000D03*
X19494500Y17145000D03*
X18097500Y17145000D03*
D31*
X33909000Y16065500D03*
X33909000Y17462500D03*
X34417000Y13525500D03*
X34417000Y14922500D03*
D30*
X35115500Y17399000D03*
X36512500Y17399000D03*
X37401500Y10795000D03*
X38798500Y10795000D03*
X37401500Y9525000D03*
X38798500Y9525000D03*
X35242500Y5715000D03*
X33845500Y5715000D03*
X36131500Y6997700D03*
X37528500Y6997700D03*
X36131500Y8255000D03*
X37528500Y8255000D03*
X44005500Y5715000D03*
X45402500Y5715000D03*
X41846500Y17145000D03*
X40449500Y17145000D03*
D31*
X10795000Y5651500D03*
X10795000Y7048500D03*
D30*
X14160500Y17145000D03*
X15557500Y17145000D03*
D31*
X9525000Y8572500D03*
X9525000Y9969500D03*
X8255000Y9969500D03*
X8255000Y8572500D03*
D30*
X8191500Y11252200D03*
X9588500Y11252200D03*
X8191500Y12522200D03*
X9588500Y12522200D03*
X11620500Y17145000D03*
X13017500Y17145000D03*
D31*
X16764000Y17208500D03*
X16764000Y15811500D03*
D30*
X18351500Y14605000D03*
X16954500Y14605000D03*
X37782500Y5715000D03*
X36385500Y5715000D03*
X40322500Y5715000D03*
X38925500Y5715000D03*
X41465500Y5715000D03*
X42862500Y5715000D03*
X44386500Y17145000D03*
X42989500Y17145000D03*
D31*
X45085000Y11239500D03*
X45085000Y12636500D03*
X43815000Y11239500D03*
X43815000Y12636500D03*
D30*
X46901100Y17145000D03*
X45504100Y17145000D03*
D31*
X16891000Y7302500D03*
X16891000Y5905500D03*
X8128000Y5778500D03*
X8128000Y7175500D03*
D30*
X46545500Y5715000D03*
X47942500Y5715000D03*
D32*
X5847080Y12727940D03*
X5847080Y12077700D03*
X5847080Y11430000D03*
X5847080Y10782300D03*
X5847080Y10132060D03*
D33*
X1750060Y16278860D03*
X1750060Y6581140D03*
X5049520Y16278860D03*
X5049520Y6581140D03*
M02*
