G04 #@! TF.FileFunction,Paste,Bot*
%FSLAX46Y46*%
G04 Gerber Fmt 4.6, Leading zero omitted, Abs format (unit mm)*
G04 Created by KiCad (PCBNEW 4.0.7-e2-6376~58~ubuntu16.04.1) date Sun Feb  4 19:42:12 2018*
%MOMM*%
%LPD*%
G01*
G04 APERTURE LIST*
%ADD10C,0.100000*%
%ADD11C,0.127000*%
%ADD12R,0.949960X0.899160*%
%ADD13C,0.998220*%
%ADD14R,0.550000X0.800000*%
%ADD15R,0.700000X0.900000*%
%ADD16C,1.000000*%
%ADD17R,0.889000X0.762000*%
%ADD18R,0.762000X0.889000*%
%ADD19R,1.250000X0.600000*%
%ADD20R,3.750000X1.200000*%
%ADD21R,1.400000X1.450000*%
%ADD22R,0.600000X1.000000*%
%ADD23R,0.850000X0.950000*%
%ADD24O,2.300000X1.400000*%
G04 APERTURE END LIST*
D10*
D11*
G36*
X1300480Y7282180D02*
X2199640Y7282180D01*
X2334260Y7266940D01*
X2466340Y7228840D01*
X2588260Y7162800D01*
X2694940Y7076440D01*
X2781300Y6969760D01*
X2844800Y6850380D01*
X2885440Y6718300D01*
X2898140Y6581140D01*
X2885440Y6443980D01*
X2844800Y6314440D01*
X2781300Y6192520D01*
X2694940Y6085840D01*
X2588260Y5999480D01*
X2466340Y5933440D01*
X2334260Y5895340D01*
X2199640Y5880100D01*
X1300480Y5880100D01*
X1165860Y5895340D01*
X1033780Y5933440D01*
X911860Y5999480D01*
X805180Y6085840D01*
X718820Y6192520D01*
X655320Y6314440D01*
X614680Y6443980D01*
X601980Y6581140D01*
X614680Y6718300D01*
X655320Y6850380D01*
X718820Y6969760D01*
X805180Y7076440D01*
X911860Y7162800D01*
X1033780Y7228840D01*
X1165860Y7266940D01*
X1300480Y7282180D01*
X1300480Y7282180D01*
G37*
X1300480Y7282180D02*
X2199640Y7282180D01*
X2334260Y7266940D01*
X2466340Y7228840D01*
X2588260Y7162800D01*
X2694940Y7076440D01*
X2781300Y6969760D01*
X2844800Y6850380D01*
X2885440Y6718300D01*
X2898140Y6581140D01*
X2885440Y6443980D01*
X2844800Y6314440D01*
X2781300Y6192520D01*
X2694940Y6085840D01*
X2588260Y5999480D01*
X2466340Y5933440D01*
X2334260Y5895340D01*
X2199640Y5880100D01*
X1300480Y5880100D01*
X1165860Y5895340D01*
X1033780Y5933440D01*
X911860Y5999480D01*
X805180Y6085840D01*
X718820Y6192520D01*
X655320Y6314440D01*
X614680Y6443980D01*
X601980Y6581140D01*
X614680Y6718300D01*
X655320Y6850380D01*
X718820Y6969760D01*
X805180Y7076440D01*
X911860Y7162800D01*
X1033780Y7228840D01*
X1165860Y7266940D01*
X1300480Y7282180D01*
G36*
X1300480Y16979900D02*
X2199640Y16979900D01*
X2334260Y16964660D01*
X2466340Y16926560D01*
X2588260Y16860520D01*
X2694940Y16774160D01*
X2781300Y16667480D01*
X2844800Y16545560D01*
X2885440Y16416020D01*
X2898140Y16278860D01*
X2885440Y16141700D01*
X2844800Y16009620D01*
X2781300Y15890240D01*
X2694940Y15783560D01*
X2588260Y15697200D01*
X2466340Y15631160D01*
X2334260Y15593060D01*
X2199640Y15577820D01*
X1300480Y15577820D01*
X1165860Y15593060D01*
X1033780Y15631160D01*
X911860Y15697200D01*
X805180Y15783560D01*
X718820Y15890240D01*
X655320Y16009620D01*
X614680Y16141700D01*
X601980Y16278860D01*
X614680Y16416020D01*
X655320Y16545560D01*
X718820Y16667480D01*
X805180Y16774160D01*
X911860Y16860520D01*
X1033780Y16926560D01*
X1165860Y16964660D01*
X1300480Y16979900D01*
X1300480Y16979900D01*
G37*
X1300480Y16979900D02*
X2199640Y16979900D01*
X2334260Y16964660D01*
X2466340Y16926560D01*
X2588260Y16860520D01*
X2694940Y16774160D01*
X2781300Y16667480D01*
X2844800Y16545560D01*
X2885440Y16416020D01*
X2898140Y16278860D01*
X2885440Y16141700D01*
X2844800Y16009620D01*
X2781300Y15890240D01*
X2694940Y15783560D01*
X2588260Y15697200D01*
X2466340Y15631160D01*
X2334260Y15593060D01*
X2199640Y15577820D01*
X1300480Y15577820D01*
X1165860Y15593060D01*
X1033780Y15631160D01*
X911860Y15697200D01*
X805180Y15783560D01*
X718820Y15890240D01*
X655320Y16009620D01*
X614680Y16141700D01*
X601980Y16278860D01*
X614680Y16416020D01*
X655320Y16545560D01*
X718820Y16667480D01*
X805180Y16774160D01*
X911860Y16860520D01*
X1033780Y16926560D01*
X1165860Y16964660D01*
X1300480Y16979900D01*
G36*
X4599940Y7282180D02*
X5499100Y7282180D01*
X5636260Y7266940D01*
X5765800Y7228840D01*
X5887720Y7162800D01*
X5994400Y7076440D01*
X6080760Y6969760D01*
X6144260Y6850380D01*
X6184900Y6718300D01*
X6197600Y6581140D01*
X6184900Y6443980D01*
X6144260Y6314440D01*
X6080760Y6192520D01*
X5994400Y6085840D01*
X5887720Y5999480D01*
X5765800Y5933440D01*
X5636260Y5895340D01*
X5499100Y5880100D01*
X4599940Y5880100D01*
X4462780Y5895340D01*
X4330700Y5933440D01*
X4208780Y5999480D01*
X4104640Y6085840D01*
X4015740Y6192520D01*
X3952240Y6314440D01*
X3911600Y6443980D01*
X3898900Y6581140D01*
X3911600Y6718300D01*
X3952240Y6850380D01*
X4015740Y6969760D01*
X4104640Y7076440D01*
X4208780Y7162800D01*
X4330700Y7228840D01*
X4462780Y7266940D01*
X4599940Y7282180D01*
X4599940Y7282180D01*
G37*
X4599940Y7282180D02*
X5499100Y7282180D01*
X5636260Y7266940D01*
X5765800Y7228840D01*
X5887720Y7162800D01*
X5994400Y7076440D01*
X6080760Y6969760D01*
X6144260Y6850380D01*
X6184900Y6718300D01*
X6197600Y6581140D01*
X6184900Y6443980D01*
X6144260Y6314440D01*
X6080760Y6192520D01*
X5994400Y6085840D01*
X5887720Y5999480D01*
X5765800Y5933440D01*
X5636260Y5895340D01*
X5499100Y5880100D01*
X4599940Y5880100D01*
X4462780Y5895340D01*
X4330700Y5933440D01*
X4208780Y5999480D01*
X4104640Y6085840D01*
X4015740Y6192520D01*
X3952240Y6314440D01*
X3911600Y6443980D01*
X3898900Y6581140D01*
X3911600Y6718300D01*
X3952240Y6850380D01*
X4015740Y6969760D01*
X4104640Y7076440D01*
X4208780Y7162800D01*
X4330700Y7228840D01*
X4462780Y7266940D01*
X4599940Y7282180D01*
G36*
X4599940Y16979900D02*
X5499100Y16979900D01*
X5636260Y16964660D01*
X5765800Y16926560D01*
X5887720Y16860520D01*
X5994400Y16774160D01*
X6080760Y16667480D01*
X6144260Y16545560D01*
X6184900Y16416020D01*
X6197600Y16278860D01*
X6184900Y16141700D01*
X6144260Y16009620D01*
X6080760Y15890240D01*
X5994400Y15783560D01*
X5887720Y15697200D01*
X5765800Y15631160D01*
X5636260Y15593060D01*
X5499100Y15577820D01*
X4599940Y15577820D01*
X4462780Y15593060D01*
X4330700Y15631160D01*
X4208780Y15697200D01*
X4104640Y15783560D01*
X4015740Y15890240D01*
X3952240Y16009620D01*
X3911600Y16141700D01*
X3898900Y16278860D01*
X3911600Y16416020D01*
X3952240Y16545560D01*
X4015740Y16667480D01*
X4104640Y16774160D01*
X4208780Y16860520D01*
X4330700Y16926560D01*
X4462780Y16964660D01*
X4599940Y16979900D01*
X4599940Y16979900D01*
G37*
X4599940Y16979900D02*
X5499100Y16979900D01*
X5636260Y16964660D01*
X5765800Y16926560D01*
X5887720Y16860520D01*
X5994400Y16774160D01*
X6080760Y16667480D01*
X6144260Y16545560D01*
X6184900Y16416020D01*
X6197600Y16278860D01*
X6184900Y16141700D01*
X6144260Y16009620D01*
X6080760Y15890240D01*
X5994400Y15783560D01*
X5887720Y15697200D01*
X5765800Y15631160D01*
X5636260Y15593060D01*
X5499100Y15577820D01*
X4599940Y15577820D01*
X4462780Y15593060D01*
X4330700Y15631160D01*
X4208780Y15697200D01*
X4104640Y15783560D01*
X4015740Y15890240D01*
X3952240Y16009620D01*
X3911600Y16141700D01*
X3898900Y16278860D01*
X3911600Y16416020D01*
X3952240Y16545560D01*
X4015740Y16667480D01*
X4104640Y16774160D01*
X4208780Y16860520D01*
X4330700Y16926560D01*
X4462780Y16964660D01*
X4599940Y16979900D01*
D12*
X49403000Y13665200D03*
X49403000Y16814800D03*
D13*
X29972000Y13335000D03*
D14*
X49088000Y10623400D03*
X50038000Y10623400D03*
X50988000Y10623400D03*
X50988000Y8223400D03*
X49088000Y8223400D03*
D15*
X51943000Y17079000D03*
X51293000Y15179000D03*
X52593000Y15179000D03*
D16*
X29972000Y15875000D03*
X29972000Y17145000D03*
X29972000Y14605000D03*
X29972000Y12065000D03*
X29972000Y10795000D03*
X29972000Y9525000D03*
D17*
X51181000Y7048500D03*
X51181000Y5651500D03*
X52451000Y10731500D03*
X52451000Y9334500D03*
X49784000Y7048500D03*
X49784000Y5651500D03*
D18*
X48958500Y11938000D03*
X50355500Y11938000D03*
D19*
X13970000Y14962500D03*
X13970000Y13862500D03*
X13970000Y12762500D03*
X13970000Y11662500D03*
X13970000Y10562500D03*
X13970000Y9462500D03*
X13970000Y8362500D03*
X13970000Y7262500D03*
D20*
X11490000Y6112500D03*
D21*
X12245000Y16587500D03*
D22*
X10995000Y16812500D03*
D23*
X10020000Y15887500D03*
D18*
X38163500Y13208000D03*
X39560500Y13208000D03*
X39560500Y11938000D03*
X38163500Y11938000D03*
D24*
X1750060Y16278860D03*
X1750060Y6581140D03*
X5049520Y16278860D03*
X5049520Y6581140D03*
M02*
