M48
INCH,TZ
T1C0.012
T2C0.031
T3C0.040
%
G90
G05
T1
X500Y8500
X500Y500
X1500Y8500
X1500Y7900
X1500Y1500
X1500Y500
X2280Y3660
X2280Y3420
X2500Y8500
X2500Y7500
X2500Y500
X2640Y5520
X2640Y5280
X2645Y2530
X2825Y2160
X2880Y4980
X2880Y2520
X2910Y3120
X2980Y5580
X3360Y1855
X3480Y1375
X3500Y8500
X3500Y500
X4020Y2160
X4140Y5700
X4140Y5460
X4480Y3900
X4500Y8500
X4500Y7500
X4500Y1500
X4500Y500
X4560Y5640
X4800Y5640
X4800Y3840
X5090Y3060
X5260Y6500
X5500Y8500
X5500Y7500
X5500Y500
X5860Y3840
X6000Y5400
X6120Y6420
X6300Y5700
X6480Y6940
X6500Y8500
X6500Y1500
X6500Y500
X6900Y6240
X7180Y3120
X7300Y2580
X7500Y8500
X7500Y500
X7660Y3840
X7740Y5220
X8500Y8500
X8500Y7500
X8500Y1500
X8500Y500
X8540Y6220
X8800Y3060
X8820Y4740
X8820Y4140
X8820Y2760
X8820Y2460
X8940Y3840
X9060Y3240
X9080Y2940
X9120Y3540
X9240Y6240
X9300Y2700
X9360Y3240
X9420Y3540
X9500Y8500
X9500Y7500
X9500Y1500
X9500Y500
X9590Y6350
X9660Y4740
X9660Y4440
X9660Y4140
X9660Y3120
X9720Y3600
X10020Y6240
X10320Y6290
X10380Y2700
X10500Y8500
X10500Y7500
X10500Y1500
X10500Y500
X10560Y6060
X10620Y2940
X10860Y2700
X11020Y6030
X11040Y5585
X11040Y4325
X11040Y2940
X11060Y4000
X11160Y6300
X11180Y5260
X11400Y6120
X11400Y2940
X11500Y8500
X11500Y7500
X11500Y1500
X11500Y500
X11700Y2940
X12060Y2940
X12240Y5880
X12240Y5520
X12240Y5220
X12240Y4860
X12240Y4440
X12240Y3960
X12300Y3480
X12480Y6240
X12500Y8500
X12500Y7500
X12500Y1500
X12500Y500
X12720Y2700
X12740Y6540
X12780Y6180
X13500Y8500
X13500Y500
X13700Y6240
X13900Y2980
X14010Y3310
X14460Y5460
X14500Y7505
X14500Y8500
X14500Y500
X14580Y1920
X14640Y6065
X14720Y6720
X15200Y4550
X15480Y7860
X15480Y7620
X15500Y8500
X15500Y1500
X15500Y500
X15670Y5600
X16440Y6060
X16440Y5820
X16500Y8500
X16500Y5000
X16500Y4500
X16500Y4000
X16500Y3500
X16500Y3000
X16500Y500
X17000Y4000
X17500Y8500
X17500Y7500
X17500Y1500
X17500Y500
X18500Y8500
X18500Y7500
X18500Y500
X19200Y2520
X19500Y8500
X19500Y500
X19715Y4460
X19840Y2240
X20140Y3680
X20160Y6745
X20160Y6505
X20160Y4685
X20160Y4445
X20500Y8500
X20500Y500
X20580Y7685
X20580Y7440
T3
X1000Y7500
X1000Y1500
X2000Y7500
X2000Y1500
X3000Y7500
X3000Y1500
X4000Y7500
X4000Y1500
X5000Y7500
X5000Y1500
X6000Y7500
X6000Y1500
X7000Y7500
X7000Y1500
X8000Y7500
X8000Y1500
X9000Y7500
X9000Y1500
X10000Y7500
X10000Y1500
X11000Y7500
X11000Y1500
X12000Y7500
X12000Y1500
X13000Y7500
X13000Y1500
X14000Y7500
X14000Y1500
X15000Y7500
X15000Y1500
X16000Y7500
X16000Y1500
X17000Y7500
X17000Y1500
X18000Y7500
X18000Y1500
X18530Y6000
X18530Y5000
X18530Y4000
X18530Y3000
X19000Y7500
X19000Y1500
X20000Y7500
X20000Y1500
T2
X512Y6409G85X866Y6409
G05
X512Y2591G85X866Y2591
G05
X1811Y6409G85X2165Y6409
G05
X1811Y2591G85X2165Y2591
G05
T0
M30
