G04 #@! TF.FileFunction,Legend,Top*
%FSLAX46Y46*%
G04 Gerber Fmt 4.6, Leading zero omitted, Abs format (unit mm)*
G04 Created by KiCad (PCBNEW 4.0.6) date 10/14/17 17:52:05*
%MOMM*%
%LPD*%
G01*
G04 APERTURE LIST*
%ADD10C,0.150000*%
%ADD11C,0.187500*%
%ADD12C,0.175000*%
%ADD13C,0.200000*%
G04 APERTURE END LIST*
D10*
D11*
X58665724Y-24238229D02*
X59353819Y-24238229D01*
X59434771Y-24202514D01*
X59475248Y-24166800D01*
X59515724Y-24095371D01*
X59515724Y-23952514D01*
X59475248Y-23881086D01*
X59434771Y-23845371D01*
X59353819Y-23809657D01*
X58665724Y-23809657D01*
X59475248Y-23488229D02*
X59515724Y-23381086D01*
X59515724Y-23202515D01*
X59475248Y-23131086D01*
X59434771Y-23095372D01*
X59353819Y-23059657D01*
X59272867Y-23059657D01*
X59191914Y-23095372D01*
X59151438Y-23131086D01*
X59110962Y-23202515D01*
X59070486Y-23345372D01*
X59030010Y-23416800D01*
X58989533Y-23452515D01*
X58908581Y-23488229D01*
X58827629Y-23488229D01*
X58746676Y-23452515D01*
X58706200Y-23416800D01*
X58665724Y-23345372D01*
X58665724Y-23166800D01*
X58706200Y-23059657D01*
X59070486Y-22488229D02*
X59110962Y-22381086D01*
X59151438Y-22345371D01*
X59232390Y-22309657D01*
X59353819Y-22309657D01*
X59434771Y-22345371D01*
X59475248Y-22381086D01*
X59515724Y-22452514D01*
X59515724Y-22738229D01*
X58665724Y-22738229D01*
X58665724Y-22488229D01*
X58706200Y-22416800D01*
X58746676Y-22381086D01*
X58827629Y-22345371D01*
X58908581Y-22345371D01*
X58989533Y-22381086D01*
X59030010Y-22416800D01*
X59070486Y-22488229D01*
X59070486Y-22738229D01*
D12*
X14279667Y-17009724D02*
X14713000Y-17009724D01*
X14479667Y-17333533D01*
X14579667Y-17333533D01*
X14646334Y-17374010D01*
X14679667Y-17414486D01*
X14713000Y-17495438D01*
X14713000Y-17697819D01*
X14679667Y-17778771D01*
X14646334Y-17819248D01*
X14579667Y-17859724D01*
X14379667Y-17859724D01*
X14313000Y-17819248D01*
X14279667Y-17778771D01*
X14946334Y-17293057D02*
X15113001Y-17859724D01*
X15279667Y-17293057D01*
X15479667Y-17009724D02*
X15913000Y-17009724D01*
X15679667Y-17333533D01*
X15779667Y-17333533D01*
X15846334Y-17374010D01*
X15879667Y-17414486D01*
X15913000Y-17495438D01*
X15913000Y-17697819D01*
X15879667Y-17778771D01*
X15846334Y-17819248D01*
X15779667Y-17859724D01*
X15579667Y-17859724D01*
X15513000Y-17819248D01*
X15479667Y-17778771D01*
X16550667Y-21934048D02*
X16650667Y-21974524D01*
X16817334Y-21974524D01*
X16884001Y-21934048D01*
X16917334Y-21893571D01*
X16950667Y-21812619D01*
X16950667Y-21731667D01*
X16917334Y-21650714D01*
X16884001Y-21610238D01*
X16817334Y-21569762D01*
X16684001Y-21529286D01*
X16617334Y-21488810D01*
X16584001Y-21448333D01*
X16550667Y-21367381D01*
X16550667Y-21286429D01*
X16584001Y-21205476D01*
X16617334Y-21165000D01*
X16684001Y-21124524D01*
X16850667Y-21124524D01*
X16950667Y-21165000D01*
X17184001Y-21124524D02*
X17350668Y-21974524D01*
X17484001Y-21367381D01*
X17617334Y-21974524D01*
X17784001Y-21124524D01*
X18050668Y-21974524D02*
X18050668Y-21124524D01*
X18217334Y-21124524D01*
X18317334Y-21165000D01*
X18384001Y-21245952D01*
X18417334Y-21326905D01*
X18450668Y-21488810D01*
X18450668Y-21610238D01*
X18417334Y-21772143D01*
X18384001Y-21853095D01*
X18317334Y-21934048D01*
X18217334Y-21974524D01*
X18050668Y-21974524D01*
X18750668Y-21974524D02*
X18750668Y-21124524D01*
X19217334Y-21124524D02*
X19350667Y-21124524D01*
X19417334Y-21165000D01*
X19484001Y-21245952D01*
X19517334Y-21407857D01*
X19517334Y-21691190D01*
X19484001Y-21853095D01*
X19417334Y-21934048D01*
X19350667Y-21974524D01*
X19217334Y-21974524D01*
X19150667Y-21934048D01*
X19084001Y-21853095D01*
X19050667Y-21691190D01*
X19050667Y-21407857D01*
X19084001Y-21245952D01*
X19150667Y-21165000D01*
X19217334Y-21124524D01*
X16608666Y-24474048D02*
X16708666Y-24514524D01*
X16875333Y-24514524D01*
X16942000Y-24474048D01*
X16975333Y-24433571D01*
X17008666Y-24352619D01*
X17008666Y-24271667D01*
X16975333Y-24190714D01*
X16942000Y-24150238D01*
X16875333Y-24109762D01*
X16742000Y-24069286D01*
X16675333Y-24028810D01*
X16642000Y-23988333D01*
X16608666Y-23907381D01*
X16608666Y-23826429D01*
X16642000Y-23745476D01*
X16675333Y-23705000D01*
X16742000Y-23664524D01*
X16908666Y-23664524D01*
X17008666Y-23705000D01*
X17242000Y-23664524D02*
X17408667Y-24514524D01*
X17542000Y-23907381D01*
X17675333Y-24514524D01*
X17842000Y-23664524D01*
X18108667Y-24514524D02*
X18108667Y-23664524D01*
X18275333Y-23664524D01*
X18375333Y-23705000D01*
X18442000Y-23785952D01*
X18475333Y-23866905D01*
X18508667Y-24028810D01*
X18508667Y-24150238D01*
X18475333Y-24312143D01*
X18442000Y-24393095D01*
X18375333Y-24474048D01*
X18275333Y-24514524D01*
X18108667Y-24514524D01*
X19208667Y-24433571D02*
X19175333Y-24474048D01*
X19075333Y-24514524D01*
X19008667Y-24514524D01*
X18908667Y-24474048D01*
X18842000Y-24393095D01*
X18808667Y-24312143D01*
X18775333Y-24150238D01*
X18775333Y-24028810D01*
X18808667Y-23866905D01*
X18842000Y-23785952D01*
X18908667Y-23705000D01*
X19008667Y-23664524D01*
X19075333Y-23664524D01*
X19175333Y-23705000D01*
X19208667Y-23745476D01*
X19842000Y-24514524D02*
X19508667Y-24514524D01*
X19508667Y-23664524D01*
X20075334Y-24514524D02*
X20075334Y-23664524D01*
X20475334Y-24514524D02*
X20175334Y-24028810D01*
X20475334Y-23664524D02*
X20075334Y-24150238D01*
X14808267Y-28124600D02*
X14741601Y-28084124D01*
X14641601Y-28084124D01*
X14541601Y-28124600D01*
X14474934Y-28205552D01*
X14441601Y-28286505D01*
X14408267Y-28448410D01*
X14408267Y-28569838D01*
X14441601Y-28731743D01*
X14474934Y-28812695D01*
X14541601Y-28893648D01*
X14641601Y-28934124D01*
X14708267Y-28934124D01*
X14808267Y-28893648D01*
X14841601Y-28853171D01*
X14841601Y-28569838D01*
X14708267Y-28569838D01*
X15141601Y-28934124D02*
X15141601Y-28084124D01*
X15541601Y-28934124D01*
X15541601Y-28084124D01*
X15874934Y-28934124D02*
X15874934Y-28084124D01*
X16041600Y-28084124D01*
X16141600Y-28124600D01*
X16208267Y-28205552D01*
X16241600Y-28286505D01*
X16274934Y-28448410D01*
X16274934Y-28569838D01*
X16241600Y-28731743D01*
X16208267Y-28812695D01*
X16141600Y-28893648D01*
X16041600Y-28934124D01*
X15874934Y-28934124D01*
D13*
X21323514Y-29230581D02*
X21323514Y-28230581D01*
X21704467Y-28230581D01*
X21799705Y-28278200D01*
X21847324Y-28325819D01*
X21894943Y-28421057D01*
X21894943Y-28563914D01*
X21847324Y-28659152D01*
X21799705Y-28706771D01*
X21704467Y-28754390D01*
X21323514Y-28754390D01*
X22894943Y-29135343D02*
X22847324Y-29182962D01*
X22704467Y-29230581D01*
X22609229Y-29230581D01*
X22466371Y-29182962D01*
X22371133Y-29087724D01*
X22323514Y-28992486D01*
X22275895Y-28802010D01*
X22275895Y-28659152D01*
X22323514Y-28468676D01*
X22371133Y-28373438D01*
X22466371Y-28278200D01*
X22609229Y-28230581D01*
X22704467Y-28230581D01*
X22847324Y-28278200D01*
X22894943Y-28325819D01*
X23847324Y-29230581D02*
X23275895Y-29230581D01*
X23561609Y-29230581D02*
X23561609Y-28230581D01*
X23466371Y-28373438D01*
X23371133Y-28468676D01*
X23275895Y-28516295D01*
X24180657Y-28230581D02*
X24799705Y-28230581D01*
X24466371Y-28611533D01*
X24609229Y-28611533D01*
X24704467Y-28659152D01*
X24752086Y-28706771D01*
X24799705Y-28802010D01*
X24799705Y-29040105D01*
X24752086Y-29135343D01*
X24704467Y-29182962D01*
X24609229Y-29230581D01*
X24323514Y-29230581D01*
X24228276Y-29182962D01*
X24180657Y-29135343D01*
D11*
X61306657Y-28730924D02*
X61306657Y-27880924D01*
X61592372Y-27880924D01*
X61663800Y-27921400D01*
X61699515Y-27961876D01*
X61735229Y-28042829D01*
X61735229Y-28164257D01*
X61699515Y-28245210D01*
X61663800Y-28285686D01*
X61592372Y-28326162D01*
X61306657Y-28326162D01*
X62163800Y-28730924D02*
X62092372Y-28690448D01*
X62056657Y-28649971D01*
X62020943Y-28569019D01*
X62020943Y-28326162D01*
X62056657Y-28245210D01*
X62092372Y-28204733D01*
X62163800Y-28164257D01*
X62270943Y-28164257D01*
X62342372Y-28204733D01*
X62378086Y-28245210D01*
X62413800Y-28326162D01*
X62413800Y-28569019D01*
X62378086Y-28649971D01*
X62342372Y-28690448D01*
X62270943Y-28730924D01*
X62163800Y-28730924D01*
X62663800Y-28164257D02*
X62806657Y-28730924D01*
X62949514Y-28326162D01*
X63092371Y-28730924D01*
X63235228Y-28164257D01*
X63806657Y-28690448D02*
X63735228Y-28730924D01*
X63592371Y-28730924D01*
X63520942Y-28690448D01*
X63485228Y-28609495D01*
X63485228Y-28285686D01*
X63520942Y-28204733D01*
X63592371Y-28164257D01*
X63735228Y-28164257D01*
X63806657Y-28204733D01*
X63842371Y-28285686D01*
X63842371Y-28366638D01*
X63485228Y-28447590D01*
X64163799Y-28730924D02*
X64163799Y-28164257D01*
X64163799Y-28326162D02*
X64199514Y-28245210D01*
X64235228Y-28204733D01*
X64306657Y-28164257D01*
X64378085Y-28164257D01*
X55032047Y-26870429D02*
X55153476Y-26906143D01*
X55193952Y-26941857D01*
X55234428Y-27013286D01*
X55234428Y-27120429D01*
X55193952Y-27191857D01*
X55153476Y-27227571D01*
X55072523Y-27263286D01*
X54748714Y-27263286D01*
X54748714Y-26513286D01*
X55032047Y-26513286D01*
X55113000Y-26549000D01*
X55153476Y-26584714D01*
X55193952Y-26656143D01*
X55193952Y-26727571D01*
X55153476Y-26799000D01*
X55113000Y-26834714D01*
X55032047Y-26870429D01*
X54748714Y-26870429D01*
X55720143Y-27263286D02*
X55639190Y-27227571D01*
X55598714Y-27191857D01*
X55558238Y-27120429D01*
X55558238Y-26906143D01*
X55598714Y-26834714D01*
X55639190Y-26799000D01*
X55720143Y-26763286D01*
X55841571Y-26763286D01*
X55922523Y-26799000D01*
X55963000Y-26834714D01*
X56003476Y-26906143D01*
X56003476Y-27120429D01*
X55963000Y-27191857D01*
X55922523Y-27227571D01*
X55841571Y-27263286D01*
X55720143Y-27263286D01*
X56489191Y-27263286D02*
X56408238Y-27227571D01*
X56367762Y-27191857D01*
X56327286Y-27120429D01*
X56327286Y-26906143D01*
X56367762Y-26834714D01*
X56408238Y-26799000D01*
X56489191Y-26763286D01*
X56610619Y-26763286D01*
X56691571Y-26799000D01*
X56732048Y-26834714D01*
X56772524Y-26906143D01*
X56772524Y-27120429D01*
X56732048Y-27191857D01*
X56691571Y-27227571D01*
X56610619Y-27263286D01*
X56489191Y-27263286D01*
X57015381Y-26763286D02*
X57339191Y-26763286D01*
X57136810Y-26513286D02*
X57136810Y-27156143D01*
X57177286Y-27227571D01*
X57258239Y-27263286D01*
X57339191Y-27263286D01*
X58067762Y-27263286D02*
X57582048Y-27263286D01*
X57824905Y-27263286D02*
X57824905Y-26513286D01*
X57743953Y-26620429D01*
X57663000Y-26691857D01*
X57582048Y-26727571D01*
X55032047Y-25346429D02*
X55153476Y-25382143D01*
X55193952Y-25417857D01*
X55234428Y-25489286D01*
X55234428Y-25596429D01*
X55193952Y-25667857D01*
X55153476Y-25703571D01*
X55072523Y-25739286D01*
X54748714Y-25739286D01*
X54748714Y-24989286D01*
X55032047Y-24989286D01*
X55113000Y-25025000D01*
X55153476Y-25060714D01*
X55193952Y-25132143D01*
X55193952Y-25203571D01*
X55153476Y-25275000D01*
X55113000Y-25310714D01*
X55032047Y-25346429D01*
X54748714Y-25346429D01*
X55720143Y-25739286D02*
X55639190Y-25703571D01*
X55598714Y-25667857D01*
X55558238Y-25596429D01*
X55558238Y-25382143D01*
X55598714Y-25310714D01*
X55639190Y-25275000D01*
X55720143Y-25239286D01*
X55841571Y-25239286D01*
X55922523Y-25275000D01*
X55963000Y-25310714D01*
X56003476Y-25382143D01*
X56003476Y-25596429D01*
X55963000Y-25667857D01*
X55922523Y-25703571D01*
X55841571Y-25739286D01*
X55720143Y-25739286D01*
X56489191Y-25739286D02*
X56408238Y-25703571D01*
X56367762Y-25667857D01*
X56327286Y-25596429D01*
X56327286Y-25382143D01*
X56367762Y-25310714D01*
X56408238Y-25275000D01*
X56489191Y-25239286D01*
X56610619Y-25239286D01*
X56691571Y-25275000D01*
X56732048Y-25310714D01*
X56772524Y-25382143D01*
X56772524Y-25596429D01*
X56732048Y-25667857D01*
X56691571Y-25703571D01*
X56610619Y-25739286D01*
X56489191Y-25739286D01*
X57015381Y-25239286D02*
X57339191Y-25239286D01*
X57136810Y-24989286D02*
X57136810Y-25632143D01*
X57177286Y-25703571D01*
X57258239Y-25739286D01*
X57339191Y-25739286D01*
X57784429Y-24989286D02*
X57865381Y-24989286D01*
X57946333Y-25025000D01*
X57986810Y-25060714D01*
X58027286Y-25132143D01*
X58067762Y-25275000D01*
X58067762Y-25453571D01*
X58027286Y-25596429D01*
X57986810Y-25667857D01*
X57946333Y-25703571D01*
X57865381Y-25739286D01*
X57784429Y-25739286D01*
X57703476Y-25703571D01*
X57663000Y-25667857D01*
X57622524Y-25596429D01*
X57582048Y-25453571D01*
X57582048Y-25275000D01*
X57622524Y-25132143D01*
X57663000Y-25060714D01*
X57703476Y-25025000D01*
X57784429Y-24989286D01*
D13*
X52609905Y-17775181D02*
X52276571Y-17298990D01*
X52038476Y-17775181D02*
X52038476Y-16775181D01*
X52419429Y-16775181D01*
X52514667Y-16822800D01*
X52562286Y-16870419D01*
X52609905Y-16965657D01*
X52609905Y-17108514D01*
X52562286Y-17203752D01*
X52514667Y-17251371D01*
X52419429Y-17298990D01*
X52038476Y-17298990D01*
X53419429Y-17727562D02*
X53324191Y-17775181D01*
X53133714Y-17775181D01*
X53038476Y-17727562D01*
X52990857Y-17632324D01*
X52990857Y-17251371D01*
X53038476Y-17156133D01*
X53133714Y-17108514D01*
X53324191Y-17108514D01*
X53419429Y-17156133D01*
X53467048Y-17251371D01*
X53467048Y-17346610D01*
X52990857Y-17441848D01*
X53848000Y-17727562D02*
X53943238Y-17775181D01*
X54133714Y-17775181D01*
X54228953Y-17727562D01*
X54276572Y-17632324D01*
X54276572Y-17584705D01*
X54228953Y-17489467D01*
X54133714Y-17441848D01*
X53990857Y-17441848D01*
X53895619Y-17394229D01*
X53848000Y-17298990D01*
X53848000Y-17251371D01*
X53895619Y-17156133D01*
X53990857Y-17108514D01*
X54133714Y-17108514D01*
X54228953Y-17156133D01*
X55086096Y-17727562D02*
X54990858Y-17775181D01*
X54800381Y-17775181D01*
X54705143Y-17727562D01*
X54657524Y-17632324D01*
X54657524Y-17251371D01*
X54705143Y-17156133D01*
X54800381Y-17108514D01*
X54990858Y-17108514D01*
X55086096Y-17156133D01*
X55133715Y-17251371D01*
X55133715Y-17346610D01*
X54657524Y-17441848D01*
X55419429Y-17108514D02*
X55800381Y-17108514D01*
X55562286Y-16775181D02*
X55562286Y-17632324D01*
X55609905Y-17727562D01*
X55705143Y-17775181D01*
X55800381Y-17775181D01*
D12*
X62883333Y-13655286D02*
X62983333Y-13695762D01*
X63016666Y-13736238D01*
X63050000Y-13817190D01*
X63050000Y-13938619D01*
X63016666Y-14019571D01*
X62983333Y-14060048D01*
X62916666Y-14100524D01*
X62650000Y-14100524D01*
X62650000Y-13250524D01*
X62883333Y-13250524D01*
X62950000Y-13291000D01*
X62983333Y-13331476D01*
X63016666Y-13412429D01*
X63016666Y-13493381D01*
X62983333Y-13574333D01*
X62950000Y-13614810D01*
X62883333Y-13655286D01*
X62650000Y-13655286D01*
X63716666Y-14100524D02*
X63316666Y-14100524D01*
X63516666Y-14100524D02*
X63516666Y-13250524D01*
X63450000Y-13371952D01*
X63383333Y-13452905D01*
X63316666Y-13493381D01*
X63983333Y-13331476D02*
X64016667Y-13291000D01*
X64083333Y-13250524D01*
X64250000Y-13250524D01*
X64316667Y-13291000D01*
X64350000Y-13331476D01*
X64383333Y-13412429D01*
X64383333Y-13493381D01*
X64350000Y-13614810D01*
X63950000Y-14100524D01*
X64383333Y-14100524D01*
X60343333Y-13655286D02*
X60443333Y-13695762D01*
X60476666Y-13736238D01*
X60510000Y-13817190D01*
X60510000Y-13938619D01*
X60476666Y-14019571D01*
X60443333Y-14060048D01*
X60376666Y-14100524D01*
X60110000Y-14100524D01*
X60110000Y-13250524D01*
X60343333Y-13250524D01*
X60410000Y-13291000D01*
X60443333Y-13331476D01*
X60476666Y-13412429D01*
X60476666Y-13493381D01*
X60443333Y-13574333D01*
X60410000Y-13614810D01*
X60343333Y-13655286D01*
X60110000Y-13655286D01*
X61176666Y-14100524D02*
X60776666Y-14100524D01*
X60976666Y-14100524D02*
X60976666Y-13250524D01*
X60910000Y-13371952D01*
X60843333Y-13452905D01*
X60776666Y-13493381D01*
X61410000Y-13250524D02*
X61843333Y-13250524D01*
X61610000Y-13574333D01*
X61710000Y-13574333D01*
X61776667Y-13614810D01*
X61810000Y-13655286D01*
X61843333Y-13736238D01*
X61843333Y-13938619D01*
X61810000Y-14019571D01*
X61776667Y-14060048D01*
X61710000Y-14100524D01*
X61510000Y-14100524D01*
X61443333Y-14060048D01*
X61410000Y-14019571D01*
X57803333Y-13655286D02*
X57903333Y-13695762D01*
X57936666Y-13736238D01*
X57970000Y-13817190D01*
X57970000Y-13938619D01*
X57936666Y-14019571D01*
X57903333Y-14060048D01*
X57836666Y-14100524D01*
X57570000Y-14100524D01*
X57570000Y-13250524D01*
X57803333Y-13250524D01*
X57870000Y-13291000D01*
X57903333Y-13331476D01*
X57936666Y-13412429D01*
X57936666Y-13493381D01*
X57903333Y-13574333D01*
X57870000Y-13614810D01*
X57803333Y-13655286D01*
X57570000Y-13655286D01*
X58636666Y-14100524D02*
X58236666Y-14100524D01*
X58436666Y-14100524D02*
X58436666Y-13250524D01*
X58370000Y-13371952D01*
X58303333Y-13452905D01*
X58236666Y-13493381D01*
X59236667Y-13533857D02*
X59236667Y-14100524D01*
X59070000Y-13210048D02*
X58903333Y-13817190D01*
X59336667Y-13817190D01*
X55263333Y-13655286D02*
X55363333Y-13695762D01*
X55396666Y-13736238D01*
X55430000Y-13817190D01*
X55430000Y-13938619D01*
X55396666Y-14019571D01*
X55363333Y-14060048D01*
X55296666Y-14100524D01*
X55030000Y-14100524D01*
X55030000Y-13250524D01*
X55263333Y-13250524D01*
X55330000Y-13291000D01*
X55363333Y-13331476D01*
X55396666Y-13412429D01*
X55396666Y-13493381D01*
X55363333Y-13574333D01*
X55330000Y-13614810D01*
X55263333Y-13655286D01*
X55030000Y-13655286D01*
X56096666Y-14100524D02*
X55696666Y-14100524D01*
X55896666Y-14100524D02*
X55896666Y-13250524D01*
X55830000Y-13371952D01*
X55763333Y-13452905D01*
X55696666Y-13493381D01*
X56730000Y-13250524D02*
X56396667Y-13250524D01*
X56363333Y-13655286D01*
X56396667Y-13614810D01*
X56463333Y-13574333D01*
X56630000Y-13574333D01*
X56696667Y-13614810D01*
X56730000Y-13655286D01*
X56763333Y-13736238D01*
X56763333Y-13938619D01*
X56730000Y-14019571D01*
X56696667Y-14060048D01*
X56630000Y-14100524D01*
X56463333Y-14100524D01*
X56396667Y-14060048D01*
X56363333Y-14019571D01*
X52840000Y-13857667D02*
X53173334Y-13857667D01*
X52773334Y-14100524D02*
X53006667Y-13250524D01*
X53240000Y-14100524D01*
X53573334Y-13614810D02*
X53506667Y-13574333D01*
X53473334Y-13533857D01*
X53440000Y-13452905D01*
X53440000Y-13412429D01*
X53473334Y-13331476D01*
X53506667Y-13291000D01*
X53573334Y-13250524D01*
X53706667Y-13250524D01*
X53773334Y-13291000D01*
X53806667Y-13331476D01*
X53840000Y-13412429D01*
X53840000Y-13452905D01*
X53806667Y-13533857D01*
X53773334Y-13574333D01*
X53706667Y-13614810D01*
X53573334Y-13614810D01*
X53506667Y-13655286D01*
X53473334Y-13695762D01*
X53440000Y-13776714D01*
X53440000Y-13938619D01*
X53473334Y-14019571D01*
X53506667Y-14060048D01*
X53573334Y-14100524D01*
X53706667Y-14100524D01*
X53773334Y-14060048D01*
X53806667Y-14019571D01*
X53840000Y-13938619D01*
X53840000Y-13776714D01*
X53806667Y-13695762D01*
X53773334Y-13655286D01*
X53706667Y-13614810D01*
X50300000Y-13857667D02*
X50633334Y-13857667D01*
X50233334Y-14100524D02*
X50466667Y-13250524D01*
X50700000Y-14100524D01*
X50966667Y-14100524D02*
X51100000Y-14100524D01*
X51166667Y-14060048D01*
X51200000Y-14019571D01*
X51266667Y-13898143D01*
X51300000Y-13736238D01*
X51300000Y-13412429D01*
X51266667Y-13331476D01*
X51233334Y-13291000D01*
X51166667Y-13250524D01*
X51033334Y-13250524D01*
X50966667Y-13291000D01*
X50933334Y-13331476D01*
X50900000Y-13412429D01*
X50900000Y-13614810D01*
X50933334Y-13695762D01*
X50966667Y-13736238D01*
X51033334Y-13776714D01*
X51166667Y-13776714D01*
X51233334Y-13736238D01*
X51266667Y-13695762D01*
X51300000Y-13614810D01*
X47426666Y-13857667D02*
X47760000Y-13857667D01*
X47360000Y-14100524D02*
X47593333Y-13250524D01*
X47826666Y-14100524D01*
X48426666Y-14100524D02*
X48026666Y-14100524D01*
X48226666Y-14100524D02*
X48226666Y-13250524D01*
X48160000Y-13371952D01*
X48093333Y-13452905D01*
X48026666Y-13493381D01*
X48860000Y-13250524D02*
X48926667Y-13250524D01*
X48993333Y-13291000D01*
X49026667Y-13331476D01*
X49060000Y-13412429D01*
X49093333Y-13574333D01*
X49093333Y-13776714D01*
X49060000Y-13938619D01*
X49026667Y-14019571D01*
X48993333Y-14060048D01*
X48926667Y-14100524D01*
X48860000Y-14100524D01*
X48793333Y-14060048D01*
X48760000Y-14019571D01*
X48726667Y-13938619D01*
X48693333Y-13776714D01*
X48693333Y-13574333D01*
X48726667Y-13412429D01*
X48760000Y-13331476D01*
X48793333Y-13291000D01*
X48860000Y-13250524D01*
X44886666Y-13857667D02*
X45220000Y-13857667D01*
X44820000Y-14100524D02*
X45053333Y-13250524D01*
X45286666Y-14100524D01*
X45886666Y-14100524D02*
X45486666Y-14100524D01*
X45686666Y-14100524D02*
X45686666Y-13250524D01*
X45620000Y-13371952D01*
X45553333Y-13452905D01*
X45486666Y-13493381D01*
X46553333Y-14100524D02*
X46153333Y-14100524D01*
X46353333Y-14100524D02*
X46353333Y-13250524D01*
X46286667Y-13371952D01*
X46220000Y-13452905D01*
X46153333Y-13493381D01*
X42346666Y-13857667D02*
X42680000Y-13857667D01*
X42280000Y-14100524D02*
X42513333Y-13250524D01*
X42746666Y-14100524D01*
X43346666Y-14100524D02*
X42946666Y-14100524D01*
X43146666Y-14100524D02*
X43146666Y-13250524D01*
X43080000Y-13371952D01*
X43013333Y-13452905D01*
X42946666Y-13493381D01*
X43613333Y-13331476D02*
X43646667Y-13291000D01*
X43713333Y-13250524D01*
X43880000Y-13250524D01*
X43946667Y-13291000D01*
X43980000Y-13331476D01*
X44013333Y-13412429D01*
X44013333Y-13493381D01*
X43980000Y-13614810D01*
X43580000Y-14100524D01*
X44013333Y-14100524D01*
X39806666Y-13857667D02*
X40140000Y-13857667D01*
X39740000Y-14100524D02*
X39973333Y-13250524D01*
X40206666Y-14100524D01*
X40806666Y-14100524D02*
X40406666Y-14100524D01*
X40606666Y-14100524D02*
X40606666Y-13250524D01*
X40540000Y-13371952D01*
X40473333Y-13452905D01*
X40406666Y-13493381D01*
X41440000Y-13250524D02*
X41106667Y-13250524D01*
X41073333Y-13655286D01*
X41106667Y-13614810D01*
X41173333Y-13574333D01*
X41340000Y-13574333D01*
X41406667Y-13614810D01*
X41440000Y-13655286D01*
X41473333Y-13736238D01*
X41473333Y-13938619D01*
X41440000Y-14019571D01*
X41406667Y-14060048D01*
X41340000Y-14100524D01*
X41173333Y-14100524D01*
X41106667Y-14060048D01*
X41073333Y-14019571D01*
X37816667Y-13655286D02*
X37916667Y-13695762D01*
X37950000Y-13736238D01*
X37983334Y-13817190D01*
X37983334Y-13938619D01*
X37950000Y-14019571D01*
X37916667Y-14060048D01*
X37850000Y-14100524D01*
X37583334Y-14100524D01*
X37583334Y-13250524D01*
X37816667Y-13250524D01*
X37883334Y-13291000D01*
X37916667Y-13331476D01*
X37950000Y-13412429D01*
X37950000Y-13493381D01*
X37916667Y-13574333D01*
X37883334Y-13614810D01*
X37816667Y-13655286D01*
X37583334Y-13655286D01*
X38216667Y-13250524D02*
X38650000Y-13250524D01*
X38416667Y-13574333D01*
X38516667Y-13574333D01*
X38583334Y-13614810D01*
X38616667Y-13655286D01*
X38650000Y-13736238D01*
X38650000Y-13938619D01*
X38616667Y-14019571D01*
X38583334Y-14060048D01*
X38516667Y-14100524D01*
X38316667Y-14100524D01*
X38250000Y-14060048D01*
X38216667Y-14019571D01*
X35276667Y-13655286D02*
X35376667Y-13695762D01*
X35410000Y-13736238D01*
X35443334Y-13817190D01*
X35443334Y-13938619D01*
X35410000Y-14019571D01*
X35376667Y-14060048D01*
X35310000Y-14100524D01*
X35043334Y-14100524D01*
X35043334Y-13250524D01*
X35276667Y-13250524D01*
X35343334Y-13291000D01*
X35376667Y-13331476D01*
X35410000Y-13412429D01*
X35410000Y-13493381D01*
X35376667Y-13574333D01*
X35343334Y-13614810D01*
X35276667Y-13655286D01*
X35043334Y-13655286D01*
X36043334Y-13533857D02*
X36043334Y-14100524D01*
X35876667Y-13210048D02*
X35710000Y-13817190D01*
X36143334Y-13817190D01*
X32736667Y-13655286D02*
X32836667Y-13695762D01*
X32870000Y-13736238D01*
X32903334Y-13817190D01*
X32903334Y-13938619D01*
X32870000Y-14019571D01*
X32836667Y-14060048D01*
X32770000Y-14100524D01*
X32503334Y-14100524D01*
X32503334Y-13250524D01*
X32736667Y-13250524D01*
X32803334Y-13291000D01*
X32836667Y-13331476D01*
X32870000Y-13412429D01*
X32870000Y-13493381D01*
X32836667Y-13574333D01*
X32803334Y-13614810D01*
X32736667Y-13655286D01*
X32503334Y-13655286D01*
X33536667Y-13250524D02*
X33203334Y-13250524D01*
X33170000Y-13655286D01*
X33203334Y-13614810D01*
X33270000Y-13574333D01*
X33436667Y-13574333D01*
X33503334Y-13614810D01*
X33536667Y-13655286D01*
X33570000Y-13736238D01*
X33570000Y-13938619D01*
X33536667Y-14019571D01*
X33503334Y-14060048D01*
X33436667Y-14100524D01*
X33270000Y-14100524D01*
X33203334Y-14060048D01*
X33170000Y-14019571D01*
X30196667Y-13655286D02*
X30296667Y-13695762D01*
X30330000Y-13736238D01*
X30363334Y-13817190D01*
X30363334Y-13938619D01*
X30330000Y-14019571D01*
X30296667Y-14060048D01*
X30230000Y-14100524D01*
X29963334Y-14100524D01*
X29963334Y-13250524D01*
X30196667Y-13250524D01*
X30263334Y-13291000D01*
X30296667Y-13331476D01*
X30330000Y-13412429D01*
X30330000Y-13493381D01*
X30296667Y-13574333D01*
X30263334Y-13614810D01*
X30196667Y-13655286D01*
X29963334Y-13655286D01*
X30963334Y-13250524D02*
X30830000Y-13250524D01*
X30763334Y-13291000D01*
X30730000Y-13331476D01*
X30663334Y-13452905D01*
X30630000Y-13614810D01*
X30630000Y-13938619D01*
X30663334Y-14019571D01*
X30696667Y-14060048D01*
X30763334Y-14100524D01*
X30896667Y-14100524D01*
X30963334Y-14060048D01*
X30996667Y-14019571D01*
X31030000Y-13938619D01*
X31030000Y-13736238D01*
X30996667Y-13655286D01*
X30963334Y-13614810D01*
X30896667Y-13574333D01*
X30763334Y-13574333D01*
X30696667Y-13614810D01*
X30663334Y-13655286D01*
X30630000Y-13736238D01*
X27656667Y-13655286D02*
X27756667Y-13695762D01*
X27790000Y-13736238D01*
X27823334Y-13817190D01*
X27823334Y-13938619D01*
X27790000Y-14019571D01*
X27756667Y-14060048D01*
X27690000Y-14100524D01*
X27423334Y-14100524D01*
X27423334Y-13250524D01*
X27656667Y-13250524D01*
X27723334Y-13291000D01*
X27756667Y-13331476D01*
X27790000Y-13412429D01*
X27790000Y-13493381D01*
X27756667Y-13574333D01*
X27723334Y-13614810D01*
X27656667Y-13655286D01*
X27423334Y-13655286D01*
X28056667Y-13250524D02*
X28523334Y-13250524D01*
X28223334Y-14100524D01*
X25116667Y-13655286D02*
X25216667Y-13695762D01*
X25250000Y-13736238D01*
X25283334Y-13817190D01*
X25283334Y-13938619D01*
X25250000Y-14019571D01*
X25216667Y-14060048D01*
X25150000Y-14100524D01*
X24883334Y-14100524D01*
X24883334Y-13250524D01*
X25116667Y-13250524D01*
X25183334Y-13291000D01*
X25216667Y-13331476D01*
X25250000Y-13412429D01*
X25250000Y-13493381D01*
X25216667Y-13574333D01*
X25183334Y-13614810D01*
X25116667Y-13655286D01*
X24883334Y-13655286D01*
X25683334Y-13614810D02*
X25616667Y-13574333D01*
X25583334Y-13533857D01*
X25550000Y-13452905D01*
X25550000Y-13412429D01*
X25583334Y-13331476D01*
X25616667Y-13291000D01*
X25683334Y-13250524D01*
X25816667Y-13250524D01*
X25883334Y-13291000D01*
X25916667Y-13331476D01*
X25950000Y-13412429D01*
X25950000Y-13452905D01*
X25916667Y-13533857D01*
X25883334Y-13574333D01*
X25816667Y-13614810D01*
X25683334Y-13614810D01*
X25616667Y-13655286D01*
X25583334Y-13695762D01*
X25550000Y-13776714D01*
X25550000Y-13938619D01*
X25583334Y-14019571D01*
X25616667Y-14060048D01*
X25683334Y-14100524D01*
X25816667Y-14100524D01*
X25883334Y-14060048D01*
X25916667Y-14019571D01*
X25950000Y-13938619D01*
X25950000Y-13776714D01*
X25916667Y-13695762D01*
X25883334Y-13655286D01*
X25816667Y-13614810D01*
X22576667Y-13655286D02*
X22676667Y-13695762D01*
X22710000Y-13736238D01*
X22743334Y-13817190D01*
X22743334Y-13938619D01*
X22710000Y-14019571D01*
X22676667Y-14060048D01*
X22610000Y-14100524D01*
X22343334Y-14100524D01*
X22343334Y-13250524D01*
X22576667Y-13250524D01*
X22643334Y-13291000D01*
X22676667Y-13331476D01*
X22710000Y-13412429D01*
X22710000Y-13493381D01*
X22676667Y-13574333D01*
X22643334Y-13614810D01*
X22576667Y-13655286D01*
X22343334Y-13655286D01*
X23076667Y-14100524D02*
X23210000Y-14100524D01*
X23276667Y-14060048D01*
X23310000Y-14019571D01*
X23376667Y-13898143D01*
X23410000Y-13736238D01*
X23410000Y-13412429D01*
X23376667Y-13331476D01*
X23343334Y-13291000D01*
X23276667Y-13250524D01*
X23143334Y-13250524D01*
X23076667Y-13291000D01*
X23043334Y-13331476D01*
X23010000Y-13412429D01*
X23010000Y-13614810D01*
X23043334Y-13695762D01*
X23076667Y-13736238D01*
X23143334Y-13776714D01*
X23276667Y-13776714D01*
X23343334Y-13736238D01*
X23376667Y-13695762D01*
X23410000Y-13614810D01*
X20567667Y-13250524D02*
X20234334Y-13250524D01*
X20201000Y-13655286D01*
X20234334Y-13614810D01*
X20301000Y-13574333D01*
X20467667Y-13574333D01*
X20534334Y-13614810D01*
X20567667Y-13655286D01*
X20601000Y-13736238D01*
X20601000Y-13938619D01*
X20567667Y-14019571D01*
X20534334Y-14060048D01*
X20467667Y-14100524D01*
X20301000Y-14100524D01*
X20234334Y-14060048D01*
X20201000Y-14019571D01*
X20801001Y-13250524D02*
X21034334Y-14100524D01*
X21267667Y-13250524D01*
X17463400Y-13291000D02*
X17396734Y-13250524D01*
X17296734Y-13250524D01*
X17196734Y-13291000D01*
X17130067Y-13371952D01*
X17096734Y-13452905D01*
X17063400Y-13614810D01*
X17063400Y-13736238D01*
X17096734Y-13898143D01*
X17130067Y-13979095D01*
X17196734Y-14060048D01*
X17296734Y-14100524D01*
X17363400Y-14100524D01*
X17463400Y-14060048D01*
X17496734Y-14019571D01*
X17496734Y-13736238D01*
X17363400Y-13736238D01*
X17796734Y-14100524D02*
X17796734Y-13250524D01*
X18196734Y-14100524D01*
X18196734Y-13250524D01*
X18530067Y-14100524D02*
X18530067Y-13250524D01*
X18696733Y-13250524D01*
X18796733Y-13291000D01*
X18863400Y-13371952D01*
X18896733Y-13452905D01*
X18930067Y-13614810D01*
X18930067Y-13736238D01*
X18896733Y-13898143D01*
X18863400Y-13979095D01*
X18796733Y-14060048D01*
X18696733Y-14100524D01*
X18530067Y-14100524D01*
X19530067Y-14100524D02*
X19530067Y-13655286D01*
X19496733Y-13574333D01*
X19430067Y-13533857D01*
X19296733Y-13533857D01*
X19230067Y-13574333D01*
X19530067Y-14060048D02*
X19463400Y-14100524D01*
X19296733Y-14100524D01*
X19230067Y-14060048D01*
X19196733Y-13979095D01*
X19196733Y-13898143D01*
X19230067Y-13817190D01*
X19296733Y-13776714D01*
X19463400Y-13776714D01*
X19530067Y-13736238D01*
X14217000Y-13250524D02*
X14650333Y-13250524D01*
X14417000Y-13574333D01*
X14517000Y-13574333D01*
X14583667Y-13614810D01*
X14617000Y-13655286D01*
X14650333Y-13736238D01*
X14650333Y-13938619D01*
X14617000Y-14019571D01*
X14583667Y-14060048D01*
X14517000Y-14100524D01*
X14317000Y-14100524D01*
X14250333Y-14060048D01*
X14217000Y-14019571D01*
X14883667Y-13533857D02*
X15050334Y-14100524D01*
X15217000Y-13533857D01*
X15417000Y-13250524D02*
X15850333Y-13250524D01*
X15617000Y-13574333D01*
X15717000Y-13574333D01*
X15783667Y-13614810D01*
X15817000Y-13655286D01*
X15850333Y-13736238D01*
X15850333Y-13938619D01*
X15817000Y-14019571D01*
X15783667Y-14060048D01*
X15717000Y-14100524D01*
X15517000Y-14100524D01*
X15450333Y-14060048D01*
X15417000Y-14019571D01*
X16450334Y-14100524D02*
X16450334Y-13655286D01*
X16417000Y-13574333D01*
X16350334Y-13533857D01*
X16217000Y-13533857D01*
X16150334Y-13574333D01*
X16450334Y-14060048D02*
X16383667Y-14100524D01*
X16217000Y-14100524D01*
X16150334Y-14060048D01*
X16117000Y-13979095D01*
X16117000Y-13898143D01*
X16150334Y-13817190D01*
X16217000Y-13776714D01*
X16383667Y-13776714D01*
X16450334Y-13736238D01*
X62966667Y-31579000D02*
X62900001Y-31538524D01*
X62800001Y-31538524D01*
X62700001Y-31579000D01*
X62633334Y-31659952D01*
X62600001Y-31740905D01*
X62566667Y-31902810D01*
X62566667Y-32024238D01*
X62600001Y-32186143D01*
X62633334Y-32267095D01*
X62700001Y-32348048D01*
X62800001Y-32388524D01*
X62866667Y-32388524D01*
X62966667Y-32348048D01*
X63000001Y-32307571D01*
X63000001Y-32024238D01*
X62866667Y-32024238D01*
X63300001Y-32388524D02*
X63300001Y-31538524D01*
X63700001Y-32388524D01*
X63700001Y-31538524D01*
X64033334Y-32388524D02*
X64033334Y-31538524D01*
X64200000Y-31538524D01*
X64300000Y-31579000D01*
X64366667Y-31659952D01*
X64400000Y-31740905D01*
X64433334Y-31902810D01*
X64433334Y-32024238D01*
X64400000Y-32186143D01*
X64366667Y-32267095D01*
X64300000Y-32348048D01*
X64200000Y-32388524D01*
X64033334Y-32388524D01*
X60426667Y-31579000D02*
X60360001Y-31538524D01*
X60260001Y-31538524D01*
X60160001Y-31579000D01*
X60093334Y-31659952D01*
X60060001Y-31740905D01*
X60026667Y-31902810D01*
X60026667Y-32024238D01*
X60060001Y-32186143D01*
X60093334Y-32267095D01*
X60160001Y-32348048D01*
X60260001Y-32388524D01*
X60326667Y-32388524D01*
X60426667Y-32348048D01*
X60460001Y-32307571D01*
X60460001Y-32024238D01*
X60326667Y-32024238D01*
X60760001Y-32388524D02*
X60760001Y-31538524D01*
X61160001Y-32388524D01*
X61160001Y-31538524D01*
X61493334Y-32388524D02*
X61493334Y-31538524D01*
X61660000Y-31538524D01*
X61760000Y-31579000D01*
X61826667Y-31659952D01*
X61860000Y-31740905D01*
X61893334Y-31902810D01*
X61893334Y-32024238D01*
X61860000Y-32186143D01*
X61826667Y-32267095D01*
X61760000Y-32348048D01*
X61660000Y-32388524D01*
X61493334Y-32388524D01*
X57586667Y-31538524D02*
X58020000Y-31538524D01*
X57786667Y-31862333D01*
X57886667Y-31862333D01*
X57953334Y-31902810D01*
X57986667Y-31943286D01*
X58020000Y-32024238D01*
X58020000Y-32226619D01*
X57986667Y-32307571D01*
X57953334Y-32348048D01*
X57886667Y-32388524D01*
X57686667Y-32388524D01*
X57620000Y-32348048D01*
X57586667Y-32307571D01*
X58253334Y-31821857D02*
X58420001Y-32388524D01*
X58586667Y-31821857D01*
X58786667Y-31538524D02*
X59220000Y-31538524D01*
X58986667Y-31862333D01*
X59086667Y-31862333D01*
X59153334Y-31902810D01*
X59186667Y-31943286D01*
X59220000Y-32024238D01*
X59220000Y-32226619D01*
X59186667Y-32307571D01*
X59153334Y-32348048D01*
X59086667Y-32388524D01*
X58886667Y-32388524D01*
X58820000Y-32348048D01*
X58786667Y-32307571D01*
X55496667Y-32388524D02*
X55263333Y-31983762D01*
X55096667Y-32388524D02*
X55096667Y-31538524D01*
X55363333Y-31538524D01*
X55430000Y-31579000D01*
X55463333Y-31619476D01*
X55496667Y-31700429D01*
X55496667Y-31821857D01*
X55463333Y-31902810D01*
X55430000Y-31943286D01*
X55363333Y-31983762D01*
X55096667Y-31983762D01*
X55763333Y-32348048D02*
X55863333Y-32388524D01*
X56030000Y-32388524D01*
X56096667Y-32348048D01*
X56130000Y-32307571D01*
X56163333Y-32226619D01*
X56163333Y-32145667D01*
X56130000Y-32064714D01*
X56096667Y-32024238D01*
X56030000Y-31983762D01*
X55896667Y-31943286D01*
X55830000Y-31902810D01*
X55796667Y-31862333D01*
X55763333Y-31781381D01*
X55763333Y-31700429D01*
X55796667Y-31619476D01*
X55830000Y-31579000D01*
X55896667Y-31538524D01*
X56063333Y-31538524D01*
X56163333Y-31579000D01*
X56363334Y-31538524D02*
X56763334Y-31538524D01*
X56563334Y-32388524D02*
X56563334Y-31538524D01*
X52723333Y-31943286D02*
X52823333Y-31983762D01*
X52856666Y-32024238D01*
X52890000Y-32105190D01*
X52890000Y-32226619D01*
X52856666Y-32307571D01*
X52823333Y-32348048D01*
X52756666Y-32388524D01*
X52490000Y-32388524D01*
X52490000Y-31538524D01*
X52723333Y-31538524D01*
X52790000Y-31579000D01*
X52823333Y-31619476D01*
X52856666Y-31700429D01*
X52856666Y-31781381D01*
X52823333Y-31862333D01*
X52790000Y-31902810D01*
X52723333Y-31943286D01*
X52490000Y-31943286D01*
X53556666Y-32388524D02*
X53156666Y-32388524D01*
X53356666Y-32388524D02*
X53356666Y-31538524D01*
X53290000Y-31659952D01*
X53223333Y-31740905D01*
X53156666Y-31781381D01*
X54223333Y-32388524D02*
X53823333Y-32388524D01*
X54023333Y-32388524D02*
X54023333Y-31538524D01*
X53956667Y-31659952D01*
X53890000Y-31740905D01*
X53823333Y-31781381D01*
X50183333Y-31943286D02*
X50283333Y-31983762D01*
X50316666Y-32024238D01*
X50350000Y-32105190D01*
X50350000Y-32226619D01*
X50316666Y-32307571D01*
X50283333Y-32348048D01*
X50216666Y-32388524D01*
X49950000Y-32388524D01*
X49950000Y-31538524D01*
X50183333Y-31538524D01*
X50250000Y-31579000D01*
X50283333Y-31619476D01*
X50316666Y-31700429D01*
X50316666Y-31781381D01*
X50283333Y-31862333D01*
X50250000Y-31902810D01*
X50183333Y-31943286D01*
X49950000Y-31943286D01*
X51016666Y-32388524D02*
X50616666Y-32388524D01*
X50816666Y-32388524D02*
X50816666Y-31538524D01*
X50750000Y-31659952D01*
X50683333Y-31740905D01*
X50616666Y-31781381D01*
X51450000Y-31538524D02*
X51516667Y-31538524D01*
X51583333Y-31579000D01*
X51616667Y-31619476D01*
X51650000Y-31700429D01*
X51683333Y-31862333D01*
X51683333Y-32064714D01*
X51650000Y-32226619D01*
X51616667Y-32307571D01*
X51583333Y-32348048D01*
X51516667Y-32388524D01*
X51450000Y-32388524D01*
X51383333Y-32348048D01*
X51350000Y-32307571D01*
X51316667Y-32226619D01*
X51283333Y-32064714D01*
X51283333Y-31862333D01*
X51316667Y-31700429D01*
X51350000Y-31619476D01*
X51383333Y-31579000D01*
X51450000Y-31538524D01*
X47976667Y-31943286D02*
X48076667Y-31983762D01*
X48110000Y-32024238D01*
X48143334Y-32105190D01*
X48143334Y-32226619D01*
X48110000Y-32307571D01*
X48076667Y-32348048D01*
X48010000Y-32388524D01*
X47743334Y-32388524D01*
X47743334Y-31538524D01*
X47976667Y-31538524D01*
X48043334Y-31579000D01*
X48076667Y-31619476D01*
X48110000Y-31700429D01*
X48110000Y-31781381D01*
X48076667Y-31862333D01*
X48043334Y-31902810D01*
X47976667Y-31943286D01*
X47743334Y-31943286D01*
X48810000Y-32388524D02*
X48410000Y-32388524D01*
X48610000Y-32388524D02*
X48610000Y-31538524D01*
X48543334Y-31659952D01*
X48476667Y-31740905D01*
X48410000Y-31781381D01*
X45436667Y-31943286D02*
X45536667Y-31983762D01*
X45570000Y-32024238D01*
X45603334Y-32105190D01*
X45603334Y-32226619D01*
X45570000Y-32307571D01*
X45536667Y-32348048D01*
X45470000Y-32388524D01*
X45203334Y-32388524D01*
X45203334Y-31538524D01*
X45436667Y-31538524D01*
X45503334Y-31579000D01*
X45536667Y-31619476D01*
X45570000Y-31700429D01*
X45570000Y-31781381D01*
X45536667Y-31862333D01*
X45503334Y-31902810D01*
X45436667Y-31943286D01*
X45203334Y-31943286D01*
X46036667Y-31538524D02*
X46103334Y-31538524D01*
X46170000Y-31579000D01*
X46203334Y-31619476D01*
X46236667Y-31700429D01*
X46270000Y-31862333D01*
X46270000Y-32064714D01*
X46236667Y-32226619D01*
X46203334Y-32307571D01*
X46170000Y-32348048D01*
X46103334Y-32388524D01*
X46036667Y-32388524D01*
X45970000Y-32348048D01*
X45936667Y-32307571D01*
X45903334Y-32226619D01*
X45870000Y-32064714D01*
X45870000Y-31862333D01*
X45903334Y-31700429D01*
X45936667Y-31619476D01*
X45970000Y-31579000D01*
X46036667Y-31538524D01*
X42680000Y-32145667D02*
X43013334Y-32145667D01*
X42613334Y-32388524D02*
X42846667Y-31538524D01*
X43080000Y-32388524D01*
X43246667Y-31538524D02*
X43713334Y-31538524D01*
X43413334Y-32388524D01*
X40140000Y-32145667D02*
X40473334Y-32145667D01*
X40073334Y-32388524D02*
X40306667Y-31538524D01*
X40540000Y-32388524D01*
X41073334Y-31538524D02*
X40940000Y-31538524D01*
X40873334Y-31579000D01*
X40840000Y-31619476D01*
X40773334Y-31740905D01*
X40740000Y-31902810D01*
X40740000Y-32226619D01*
X40773334Y-32307571D01*
X40806667Y-32348048D01*
X40873334Y-32388524D01*
X41006667Y-32388524D01*
X41073334Y-32348048D01*
X41106667Y-32307571D01*
X41140000Y-32226619D01*
X41140000Y-32024238D01*
X41106667Y-31943286D01*
X41073334Y-31902810D01*
X41006667Y-31862333D01*
X40873334Y-31862333D01*
X40806667Y-31902810D01*
X40773334Y-31943286D01*
X40740000Y-32024238D01*
X37600000Y-32145667D02*
X37933334Y-32145667D01*
X37533334Y-32388524D02*
X37766667Y-31538524D01*
X38000000Y-32388524D01*
X38566667Y-31538524D02*
X38233334Y-31538524D01*
X38200000Y-31943286D01*
X38233334Y-31902810D01*
X38300000Y-31862333D01*
X38466667Y-31862333D01*
X38533334Y-31902810D01*
X38566667Y-31943286D01*
X38600000Y-32024238D01*
X38600000Y-32226619D01*
X38566667Y-32307571D01*
X38533334Y-32348048D01*
X38466667Y-32388524D01*
X38300000Y-32388524D01*
X38233334Y-32348048D01*
X38200000Y-32307571D01*
X35060000Y-32145667D02*
X35393334Y-32145667D01*
X34993334Y-32388524D02*
X35226667Y-31538524D01*
X35460000Y-32388524D01*
X35993334Y-31821857D02*
X35993334Y-32388524D01*
X35826667Y-31498048D02*
X35660000Y-32105190D01*
X36093334Y-32105190D01*
X32520000Y-32145667D02*
X32853334Y-32145667D01*
X32453334Y-32388524D02*
X32686667Y-31538524D01*
X32920000Y-32388524D01*
X33086667Y-31538524D02*
X33520000Y-31538524D01*
X33286667Y-31862333D01*
X33386667Y-31862333D01*
X33453334Y-31902810D01*
X33486667Y-31943286D01*
X33520000Y-32024238D01*
X33520000Y-32226619D01*
X33486667Y-32307571D01*
X33453334Y-32348048D01*
X33386667Y-32388524D01*
X33186667Y-32388524D01*
X33120000Y-32348048D01*
X33086667Y-32307571D01*
X29980000Y-32145667D02*
X30313334Y-32145667D01*
X29913334Y-32388524D02*
X30146667Y-31538524D01*
X30380000Y-32388524D01*
X30580000Y-31619476D02*
X30613334Y-31579000D01*
X30680000Y-31538524D01*
X30846667Y-31538524D01*
X30913334Y-31579000D01*
X30946667Y-31619476D01*
X30980000Y-31700429D01*
X30980000Y-31781381D01*
X30946667Y-31902810D01*
X30546667Y-32388524D01*
X30980000Y-32388524D01*
X27440000Y-32145667D02*
X27773334Y-32145667D01*
X27373334Y-32388524D02*
X27606667Y-31538524D01*
X27840000Y-32388524D01*
X28440000Y-32388524D02*
X28040000Y-32388524D01*
X28240000Y-32388524D02*
X28240000Y-31538524D01*
X28173334Y-31659952D01*
X28106667Y-31740905D01*
X28040000Y-31781381D01*
X24900000Y-32145667D02*
X25233334Y-32145667D01*
X24833334Y-32388524D02*
X25066667Y-31538524D01*
X25300000Y-32388524D01*
X25666667Y-31538524D02*
X25733334Y-31538524D01*
X25800000Y-31579000D01*
X25833334Y-31619476D01*
X25866667Y-31700429D01*
X25900000Y-31862333D01*
X25900000Y-32064714D01*
X25866667Y-32226619D01*
X25833334Y-32307571D01*
X25800000Y-32348048D01*
X25733334Y-32388524D01*
X25666667Y-32388524D01*
X25600000Y-32348048D01*
X25566667Y-32307571D01*
X25533334Y-32226619D01*
X25500000Y-32064714D01*
X25500000Y-31862333D01*
X25533334Y-31700429D01*
X25566667Y-31619476D01*
X25600000Y-31579000D01*
X25666667Y-31538524D01*
X14240001Y-31821857D02*
X14406668Y-32388524D01*
X14573334Y-31821857D01*
X14840001Y-32388524D02*
X14840001Y-31538524D01*
X14840001Y-31862333D02*
X14906667Y-31821857D01*
X15040001Y-31821857D01*
X15106667Y-31862333D01*
X15140001Y-31902810D01*
X15173334Y-31983762D01*
X15173334Y-32226619D01*
X15140001Y-32307571D01*
X15106667Y-32348048D01*
X15040001Y-32388524D01*
X14906667Y-32388524D01*
X14840001Y-32348048D01*
X15773334Y-32388524D02*
X15773334Y-31943286D01*
X15740000Y-31862333D01*
X15673334Y-31821857D01*
X15540000Y-31821857D01*
X15473334Y-31862333D01*
X15773334Y-32348048D02*
X15706667Y-32388524D01*
X15540000Y-32388524D01*
X15473334Y-32348048D01*
X15440000Y-32267095D01*
X15440000Y-32186143D01*
X15473334Y-32105190D01*
X15540000Y-32064714D01*
X15706667Y-32064714D01*
X15773334Y-32024238D01*
X16006667Y-31821857D02*
X16273333Y-31821857D01*
X16106667Y-31538524D02*
X16106667Y-32267095D01*
X16140000Y-32348048D01*
X16206667Y-32388524D01*
X16273333Y-32388524D01*
X22481120Y-32307571D02*
X22447786Y-32348048D01*
X22347786Y-32388524D01*
X22281120Y-32388524D01*
X22181120Y-32348048D01*
X22114453Y-32267095D01*
X22081120Y-32186143D01*
X22047786Y-32024238D01*
X22047786Y-31902810D01*
X22081120Y-31740905D01*
X22114453Y-31659952D01*
X22181120Y-31579000D01*
X22281120Y-31538524D01*
X22347786Y-31538524D01*
X22447786Y-31579000D01*
X22481120Y-31619476D01*
X23147786Y-32388524D02*
X22747786Y-32388524D01*
X22947786Y-32388524D02*
X22947786Y-31538524D01*
X22881120Y-31659952D01*
X22814453Y-31740905D01*
X22747786Y-31781381D01*
X23781120Y-31538524D02*
X23447787Y-31538524D01*
X23414453Y-31943286D01*
X23447787Y-31902810D01*
X23514453Y-31862333D01*
X23681120Y-31862333D01*
X23747787Y-31902810D01*
X23781120Y-31943286D01*
X23814453Y-32024238D01*
X23814453Y-32226619D01*
X23781120Y-32307571D01*
X23747787Y-32348048D01*
X23681120Y-32388524D01*
X23514453Y-32388524D01*
X23447787Y-32348048D01*
X23414453Y-32307571D01*
X19870000Y-32307571D02*
X19836666Y-32348048D01*
X19736666Y-32388524D01*
X19670000Y-32388524D01*
X19570000Y-32348048D01*
X19503333Y-32267095D01*
X19470000Y-32186143D01*
X19436666Y-32024238D01*
X19436666Y-31902810D01*
X19470000Y-31740905D01*
X19503333Y-31659952D01*
X19570000Y-31579000D01*
X19670000Y-31538524D01*
X19736666Y-31538524D01*
X19836666Y-31579000D01*
X19870000Y-31619476D01*
X20536666Y-32388524D02*
X20136666Y-32388524D01*
X20336666Y-32388524D02*
X20336666Y-31538524D01*
X20270000Y-31659952D01*
X20203333Y-31740905D01*
X20136666Y-31781381D01*
X21136667Y-31821857D02*
X21136667Y-32388524D01*
X20970000Y-31498048D02*
X20803333Y-32105190D01*
X21236667Y-32105190D01*
X17340160Y-32307571D02*
X17306826Y-32348048D01*
X17206826Y-32388524D01*
X17140160Y-32388524D01*
X17040160Y-32348048D01*
X16973493Y-32267095D01*
X16940160Y-32186143D01*
X16906826Y-32024238D01*
X16906826Y-31902810D01*
X16940160Y-31740905D01*
X16973493Y-31659952D01*
X17040160Y-31579000D01*
X17140160Y-31538524D01*
X17206826Y-31538524D01*
X17306826Y-31579000D01*
X17340160Y-31619476D01*
X18006826Y-32388524D02*
X17606826Y-32388524D01*
X17806826Y-32388524D02*
X17806826Y-31538524D01*
X17740160Y-31659952D01*
X17673493Y-31740905D01*
X17606826Y-31781381D01*
X18240160Y-31538524D02*
X18673493Y-31538524D01*
X18440160Y-31862333D01*
X18540160Y-31862333D01*
X18606827Y-31902810D01*
X18640160Y-31943286D01*
X18673493Y-32024238D01*
X18673493Y-32226619D01*
X18640160Y-32307571D01*
X18606827Y-32348048D01*
X18540160Y-32388524D01*
X18340160Y-32388524D01*
X18273493Y-32348048D01*
X18240160Y-32307571D01*
D10*
X34677600Y-17685000D02*
X34677600Y-18685000D01*
X45027600Y-17685000D02*
X45027600Y-18760000D01*
X45027600Y-28035000D02*
X45027600Y-26960000D01*
X34677600Y-28035000D02*
X34677600Y-26960000D01*
X34677600Y-17685000D02*
X35752600Y-17685000D01*
X34677600Y-28035000D02*
X35752600Y-28035000D01*
X45027600Y-28035000D02*
X43952600Y-28035000D01*
X45027600Y-17685000D02*
X43952600Y-17685000D01*
X34677600Y-18685000D02*
X33652600Y-18685000D01*
X60447600Y-19643400D02*
X60447600Y-19993400D01*
X62447600Y-19643400D02*
X60447600Y-19643400D01*
X60447600Y-27143400D02*
X60447600Y-26693400D01*
X62447600Y-27143400D02*
X60447600Y-27143400D01*
X64547600Y-19643400D02*
X64247600Y-19643400D01*
X64547600Y-27143400D02*
X64547600Y-19643400D01*
X64247600Y-27143400D02*
X64547600Y-27143400D01*
X32166800Y-19758800D02*
X32166800Y-26008800D01*
X27116800Y-19758800D02*
X27116800Y-26008800D01*
X27116800Y-19758800D02*
G75*
G02X32166800Y-19758800I2525000J0D01*
G01*
X27116800Y-26008800D02*
G75*
G03X32166800Y-26008800I2525000J0D01*
G01*
X17592400Y-17421200D02*
X17592400Y-19221200D01*
X20812400Y-19221200D02*
X20812400Y-16771200D01*
X51296000Y-23296800D02*
X51296000Y-23096800D01*
X51296000Y-19296800D02*
X51296000Y-22096800D01*
X51296000Y-18096800D02*
X51296000Y-18296800D01*
X56496000Y-18096800D02*
X51296000Y-18096800D01*
X56496000Y-18296800D02*
X56496000Y-18096800D01*
X56496000Y-21896800D02*
X56496000Y-19496800D01*
X56496000Y-23296800D02*
X56496000Y-23096800D01*
X51296000Y-23296800D02*
X56496000Y-23296800D01*
X20766000Y-28640000D02*
X20766000Y-27240000D01*
X20766000Y-27240000D02*
X17966000Y-27240000D01*
X20766000Y-28640000D02*
X17966000Y-28640000D01*
X60812000Y-29046400D02*
X60812000Y-27646400D01*
X60812000Y-27646400D02*
X58012000Y-27646400D01*
X60812000Y-29046400D02*
X58012000Y-29046400D01*
X22406000Y-19901800D02*
X22406000Y-19301800D01*
X22406000Y-19301800D02*
X26006000Y-19301800D01*
X26006000Y-19301800D02*
X26006000Y-19901800D01*
X22406000Y-25401800D02*
X22406000Y-21601800D01*
X23706000Y-27701800D02*
X22406000Y-27701800D01*
X26006000Y-27701800D02*
X24706000Y-27701800D01*
X22406000Y-27701800D02*
X22406000Y-27101800D01*
X26006000Y-27701800D02*
X26006000Y-27101800D01*
X26006000Y-21601800D02*
X26006000Y-25401800D01*
X24706000Y-27701800D02*
G75*
G03X23706000Y-27701800I-500000J0D01*
G01*
X37941524Y-23518762D02*
X38084381Y-23566381D01*
X38322477Y-23566381D01*
X38417715Y-23518762D01*
X38465334Y-23471143D01*
X38512953Y-23375905D01*
X38512953Y-23280667D01*
X38465334Y-23185429D01*
X38417715Y-23137810D01*
X38322477Y-23090190D01*
X38132000Y-23042571D01*
X38036762Y-22994952D01*
X37989143Y-22947333D01*
X37941524Y-22852095D01*
X37941524Y-22756857D01*
X37989143Y-22661619D01*
X38036762Y-22614000D01*
X38132000Y-22566381D01*
X38370096Y-22566381D01*
X38512953Y-22614000D01*
X38798667Y-22566381D02*
X39370096Y-22566381D01*
X39084381Y-23566381D02*
X39084381Y-22566381D01*
X39703429Y-23566381D02*
X39703429Y-22566381D01*
X40036763Y-23280667D01*
X40370096Y-22566381D01*
X40370096Y-23566381D01*
X40751048Y-22566381D02*
X41370096Y-22566381D01*
X41036762Y-22947333D01*
X41179620Y-22947333D01*
X41274858Y-22994952D01*
X41322477Y-23042571D01*
X41370096Y-23137810D01*
X41370096Y-23375905D01*
X41322477Y-23471143D01*
X41274858Y-23518762D01*
X41179620Y-23566381D01*
X40893905Y-23566381D01*
X40798667Y-23518762D01*
X40751048Y-23471143D01*
X41751048Y-22661619D02*
X41798667Y-22614000D01*
X41893905Y-22566381D01*
X42132001Y-22566381D01*
X42227239Y-22614000D01*
X42274858Y-22661619D01*
X42322477Y-22756857D01*
X42322477Y-22852095D01*
X42274858Y-22994952D01*
X41703429Y-23566381D01*
X42322477Y-23566381D01*
X29694190Y-23359991D02*
X30170381Y-23359991D01*
X29170381Y-23693324D02*
X29694190Y-23359991D01*
X29170381Y-23026657D01*
X30170381Y-22169514D02*
X30170381Y-22740943D01*
X30170381Y-22455229D02*
X29170381Y-22455229D01*
X29313238Y-22550467D01*
X29408476Y-22645705D01*
X29456095Y-22740943D01*
X21093181Y-19049905D02*
X21902705Y-19049905D01*
X21997943Y-19002286D01*
X22045562Y-18954667D01*
X22093181Y-18859429D01*
X22093181Y-18668952D01*
X22045562Y-18573714D01*
X21997943Y-18526095D01*
X21902705Y-18478476D01*
X21093181Y-18478476D01*
X21093181Y-18097524D02*
X21093181Y-17478476D01*
X21474133Y-17811810D01*
X21474133Y-17668952D01*
X21521752Y-17573714D01*
X21569371Y-17526095D01*
X21664610Y-17478476D01*
X21902705Y-17478476D01*
X21997943Y-17526095D01*
X22045562Y-17573714D01*
X22093181Y-17668952D01*
X22093181Y-17954667D01*
X22045562Y-18049905D01*
X21997943Y-18097524D01*
X24360190Y-23977991D02*
X24836381Y-23977991D01*
X23836381Y-24311324D02*
X24360190Y-23977991D01*
X23836381Y-23644657D01*
X23931619Y-23358943D02*
X23884000Y-23311324D01*
X23836381Y-23216086D01*
X23836381Y-22977990D01*
X23884000Y-22882752D01*
X23931619Y-22835133D01*
X24026857Y-22787514D01*
X24122095Y-22787514D01*
X24264952Y-22835133D01*
X24836381Y-23406562D01*
X24836381Y-22787514D01*
M02*
