G04 #@! TF.FileFunction,Copper,L1,Top,Signal*
%FSLAX46Y46*%
G04 Gerber Fmt 4.6, Leading zero omitted, Abs format (unit mm)*
G04 Created by KiCad (PCBNEW 4.0.6) date 10/14/17 17:52:05*
%MOMM*%
%LPD*%
G01*
G04 APERTURE LIST*
%ADD10C,0.150000*%
%ADD11R,1.700000X1.700000*%
%ADD12O,1.700000X1.700000*%
%ADD13R,1.000000X0.250000*%
%ADD14R,0.250000X1.000000*%
%ADD15R,1.350000X0.400000*%
%ADD16O,0.950000X1.250000*%
%ADD17O,1.550000X0.900000*%
%ADD18R,1.550000X0.750000*%
%ADD19R,0.200000X0.450000*%
%ADD20R,0.250000X0.200000*%
%ADD21R,1.550000X1.500000*%
%ADD22C,1.500000*%
%ADD23R,0.650000X1.060000*%
%ADD24R,1.000000X0.600000*%
%ADD25R,1.200000X1.200000*%
%ADD26R,1.900000X1.300000*%
%ADD27C,0.762000*%
%ADD28C,0.635000*%
%ADD29C,0.304800*%
%ADD30C,0.203200*%
G04 APERTURE END LIST*
D10*
D11*
X15240000Y-15240000D03*
D12*
X17780000Y-15240000D03*
X20320000Y-15240000D03*
X22860000Y-15240000D03*
X25400000Y-15240000D03*
X27940000Y-15240000D03*
X30480000Y-15240000D03*
X33020000Y-15240000D03*
X35560000Y-15240000D03*
X38100000Y-15240000D03*
X40640000Y-15240000D03*
X43180000Y-15240000D03*
X45720000Y-15240000D03*
X48260000Y-15240000D03*
X50800000Y-15240000D03*
X53340000Y-15240000D03*
X55880000Y-15240000D03*
X58420000Y-15240000D03*
X60960000Y-15240000D03*
X63500000Y-15240000D03*
D13*
X34152600Y-19110000D03*
X34152600Y-19610000D03*
X34152600Y-20110000D03*
X34152600Y-20610000D03*
X34152600Y-21110000D03*
X34152600Y-21610000D03*
X34152600Y-22110000D03*
X34152600Y-22610000D03*
X34152600Y-23110000D03*
X34152600Y-23610000D03*
X34152600Y-24110000D03*
X34152600Y-24610000D03*
X34152600Y-25110000D03*
X34152600Y-25610000D03*
X34152600Y-26110000D03*
X34152600Y-26610000D03*
D14*
X36102600Y-28560000D03*
X36602600Y-28560000D03*
X37102600Y-28560000D03*
X37602600Y-28560000D03*
X38102600Y-28560000D03*
X38602600Y-28560000D03*
X39102600Y-28560000D03*
X39602600Y-28560000D03*
X40102600Y-28560000D03*
X40602600Y-28560000D03*
X41102600Y-28560000D03*
X41602600Y-28560000D03*
X42102600Y-28560000D03*
X42602600Y-28560000D03*
X43102600Y-28560000D03*
X43602600Y-28560000D03*
D13*
X45552600Y-26610000D03*
X45552600Y-26110000D03*
X45552600Y-25610000D03*
X45552600Y-25110000D03*
X45552600Y-24610000D03*
X45552600Y-24110000D03*
X45552600Y-23610000D03*
X45552600Y-23110000D03*
X45552600Y-22610000D03*
X45552600Y-22110000D03*
X45552600Y-21610000D03*
X45552600Y-21110000D03*
X45552600Y-20610000D03*
X45552600Y-20110000D03*
X45552600Y-19610000D03*
X45552600Y-19110000D03*
D14*
X43602600Y-17160000D03*
X43102600Y-17160000D03*
X42602600Y-17160000D03*
X42102600Y-17160000D03*
X41602600Y-17160000D03*
X41102600Y-17160000D03*
X40602600Y-17160000D03*
X40102600Y-17160000D03*
X39602600Y-17160000D03*
X39102600Y-17160000D03*
X38602600Y-17160000D03*
X38102600Y-17160000D03*
X37602600Y-17160000D03*
X37102600Y-17160000D03*
X36602600Y-17160000D03*
X36102600Y-17160000D03*
D15*
X60647600Y-23393400D03*
X60647600Y-22743400D03*
X60647600Y-22093400D03*
X60647600Y-24043400D03*
X60647600Y-24693400D03*
D16*
X60647600Y-25893400D03*
X60647600Y-20893400D03*
D17*
X63347600Y-26893400D03*
X63347600Y-19893400D03*
D18*
X63347600Y-26068400D03*
D19*
X62672600Y-26668400D03*
D20*
X62897600Y-26543400D03*
X63797600Y-26543400D03*
D19*
X64022600Y-26668400D03*
X62672600Y-20118400D03*
D20*
X62897600Y-20243400D03*
X63797600Y-20243400D03*
D19*
X64022600Y-20118400D03*
D21*
X63347600Y-22393400D03*
X63347600Y-24393400D03*
D18*
X63347600Y-20718400D03*
D22*
X29641800Y-20443800D03*
X29641800Y-25323800D03*
D23*
X20152400Y-17221200D03*
X19202400Y-17221200D03*
X18252400Y-17221200D03*
X18252400Y-19421200D03*
X20152400Y-19421200D03*
D11*
X53340000Y-24765000D03*
D12*
X53340000Y-27305000D03*
X50800000Y-24765000D03*
X50800000Y-27305000D03*
D24*
X56896000Y-18846800D03*
X50896000Y-22546800D03*
X56896000Y-22546800D03*
X50896000Y-18846800D03*
D25*
X17866000Y-27940000D03*
X20066000Y-27940000D03*
D11*
X15240000Y-26670000D03*
D12*
X15240000Y-24130000D03*
X15240000Y-21590000D03*
X15240000Y-19050000D03*
D11*
X63500000Y-30480000D03*
D12*
X60960000Y-30480000D03*
X58420000Y-30480000D03*
X55880000Y-30480000D03*
X53340000Y-30480000D03*
X50800000Y-30480000D03*
X48260000Y-30480000D03*
X45720000Y-30480000D03*
X43180000Y-30480000D03*
X40640000Y-30480000D03*
X38100000Y-30480000D03*
X35560000Y-30480000D03*
X33020000Y-30480000D03*
X30480000Y-30480000D03*
X27940000Y-30480000D03*
X25400000Y-30480000D03*
X22860000Y-30480000D03*
X20320000Y-30480000D03*
X17780000Y-30480000D03*
X15240000Y-30480000D03*
D25*
X57912000Y-28346400D03*
X60112000Y-28346400D03*
D26*
X25806000Y-26251800D03*
X25806000Y-20751800D03*
X22606000Y-20751800D03*
X22606000Y-26251800D03*
D27*
X59359800Y-22987000D03*
X59588400Y-21996400D03*
D28*
X38201600Y-21031200D03*
X39689586Y-22519186D03*
X40261086Y-21947686D03*
X38760400Y-20472400D03*
X35915600Y-18719800D03*
X51511200Y-21945600D03*
X36118800Y-27539298D03*
X58750200Y-21031200D03*
X44558302Y-27368500D03*
X45364400Y-18643600D03*
D27*
X56997600Y-20040600D03*
D28*
X57429400Y-24638000D03*
D27*
X17272000Y-20320000D03*
X17272000Y-21285200D03*
D28*
X34045958Y-17464630D03*
X37080661Y-27458408D03*
X35167530Y-20866110D03*
X51536600Y-19634200D03*
X55346600Y-21869400D03*
X55372000Y-25527000D03*
X52857400Y-20040600D03*
X32319742Y-21840310D03*
X33147000Y-22860000D03*
X43131310Y-26754059D03*
X44547732Y-19362432D03*
X25590506Y-23241000D03*
X22184360Y-27223720D03*
X26481386Y-23230186D03*
X26212800Y-27228800D03*
X24511000Y-26314400D03*
D27*
X24130000Y-14401800D03*
X61707353Y-25150838D03*
X20701000Y-16459200D03*
X57150000Y-14452600D03*
X44475400Y-14427200D03*
D28*
X24333200Y-23266400D03*
X42468800Y-18973800D03*
X19989800Y-23037800D03*
X44538370Y-20903161D03*
X20421600Y-22275800D03*
X61752361Y-24199400D03*
X61645800Y-23368000D03*
X42288340Y-26812760D03*
X41488040Y-26563555D03*
X39590146Y-26685861D03*
X39627934Y-27523211D03*
X38836600Y-27127200D03*
X31292800Y-27635200D03*
X29895800Y-27660600D03*
X28856030Y-27608315D03*
X23444200Y-23266400D03*
X19558000Y-25654000D03*
X36703000Y-19126200D03*
X26669196Y-16559996D03*
X37269372Y-19837400D03*
X38743451Y-19175421D03*
X39580155Y-19125336D03*
X40446622Y-19111737D03*
X41190567Y-18635367D03*
X42000280Y-18181143D03*
X42838391Y-18168779D03*
X59283600Y-18872200D03*
X63119000Y-18415000D03*
X52959000Y-19177000D03*
X62046822Y-21914360D03*
X52832000Y-18338800D03*
X42595800Y-22225000D03*
X41960800Y-24638000D03*
X59182000Y-28346400D03*
X19177000Y-27051000D03*
X25120600Y-18503921D03*
X35204400Y-24536400D03*
X29006800Y-22606000D03*
D27*
X18849664Y-16117528D03*
D28*
X24253492Y-18799508D03*
X19511424Y-19912773D03*
X35165567Y-25395584D03*
X28370390Y-23151494D03*
D29*
X60647600Y-22743400D02*
X59603400Y-22743400D01*
X59603400Y-22743400D02*
X59359800Y-22987000D01*
X60647600Y-22093400D02*
X59685400Y-22093400D01*
X59685400Y-22093400D02*
X59588400Y-21996400D01*
D30*
X39689586Y-22519186D02*
X38201600Y-21031200D01*
X38760400Y-20472400D02*
X40235686Y-21947686D01*
X40235686Y-21947686D02*
X40261086Y-21947686D01*
X63347600Y-26068400D02*
X63347600Y-26893400D01*
D29*
X60647600Y-22743400D02*
X60647600Y-22093400D01*
X60647600Y-22093400D02*
X60193400Y-22093400D01*
D30*
X35915600Y-18719800D02*
X36602600Y-18032800D01*
X36602600Y-18032800D02*
X36602600Y-17160000D01*
X50896000Y-22546800D02*
X50910000Y-22546800D01*
X50910000Y-22546800D02*
X51511200Y-21945600D01*
X36602600Y-28560000D02*
X36602600Y-27856800D01*
X36285098Y-27539298D02*
X36118800Y-27539298D01*
X36602600Y-27856800D02*
X36285098Y-27539298D01*
X50896000Y-22750000D02*
X50896000Y-22674681D01*
X43602600Y-28560000D02*
X43602600Y-28324202D01*
X43602600Y-28324202D02*
X44558302Y-27368500D01*
X45364400Y-18643600D02*
X45364400Y-18921800D01*
X45364400Y-18921800D02*
X45552600Y-19110000D01*
X58420000Y-30480000D02*
X58420000Y-28854400D01*
X58420000Y-28854400D02*
X57912000Y-28346400D01*
X34350588Y-17160000D02*
X34045958Y-17464630D01*
X36102600Y-17160000D02*
X34350588Y-17160000D01*
X37102600Y-28560000D02*
X37102600Y-27480347D01*
X37102600Y-27480347D02*
X37080661Y-27458408D01*
X36102600Y-17160000D02*
X36021298Y-17160000D01*
X35167530Y-20866110D02*
X35167530Y-21798270D01*
X35167530Y-21798270D02*
X34855800Y-22110000D01*
X34855800Y-22110000D02*
X34152600Y-22110000D01*
X50896000Y-18846800D02*
X50896000Y-18993600D01*
X50896000Y-18993600D02*
X51536600Y-19634200D01*
X52857400Y-20040600D02*
X53517800Y-20040600D01*
X53517800Y-20040600D02*
X55346600Y-21869400D01*
X34164600Y-22098000D02*
X34152600Y-22110000D01*
X55372000Y-25527000D02*
X55372000Y-29972000D01*
X55372000Y-29972000D02*
X55880000Y-30480000D01*
X32923116Y-21235855D02*
X32923116Y-21236936D01*
X32923116Y-21236936D02*
X32319742Y-21840310D01*
X34152600Y-21110000D02*
X33048971Y-21110000D01*
X33048971Y-21110000D02*
X32923116Y-21235855D01*
X30127000Y-20929000D02*
X29641800Y-20443800D01*
X29460800Y-20443800D02*
X29387800Y-20443800D01*
X33131898Y-22047638D02*
X33131898Y-22844898D01*
X33131898Y-22844898D02*
X33147000Y-22860000D01*
X34152600Y-21610000D02*
X33569536Y-21610000D01*
X33569536Y-21610000D02*
X33131898Y-22047638D01*
X34152600Y-21610000D02*
X33990600Y-21610000D01*
X43102600Y-28560000D02*
X43102600Y-26782769D01*
X43102600Y-26782769D02*
X43131310Y-26754059D01*
X45552600Y-19610000D02*
X44795300Y-19610000D01*
X44795300Y-19610000D02*
X44547732Y-19362432D01*
X34152600Y-20110000D02*
X31536706Y-20110000D01*
X31536706Y-20110000D02*
X30132906Y-21513800D01*
X30132906Y-21513800D02*
X28473400Y-21513800D01*
X26312085Y-22519421D02*
X25590506Y-23241000D01*
X28473400Y-21513800D02*
X27467779Y-22519421D01*
X27467779Y-22519421D02*
X26312085Y-22519421D01*
X22606000Y-26251800D02*
X22606000Y-26802080D01*
X22606000Y-26802080D02*
X22184360Y-27223720D01*
X22631400Y-26277200D02*
X22606000Y-26251800D01*
X30301246Y-21920210D02*
X31611456Y-20610000D01*
X31611456Y-20610000D02*
X34152600Y-20610000D01*
X27234753Y-22925831D02*
X27636120Y-22925830D01*
X27636120Y-22925830D02*
X28641740Y-21920210D01*
X28641740Y-21920210D02*
X30301246Y-21920210D01*
X26481386Y-23230186D02*
X26930398Y-23230186D01*
X26930398Y-23230186D02*
X27234753Y-22925831D01*
X26212800Y-27228800D02*
X26212800Y-26658600D01*
X26212800Y-26658600D02*
X25806000Y-26251800D01*
X24511000Y-26314400D02*
X25743400Y-26314400D01*
X25743400Y-26314400D02*
X25806000Y-26251800D01*
D29*
X17176927Y-13983599D02*
X20320000Y-13983599D01*
X20320000Y-13983599D02*
X23711799Y-13983599D01*
X20320000Y-15240000D02*
X20320000Y-13983599D01*
X23711799Y-13983599D02*
X24130000Y-14401800D01*
X60647600Y-24693400D02*
X61122600Y-24693400D01*
X61122600Y-24693400D02*
X61627400Y-25198200D01*
X61627400Y-25198200D02*
X61659991Y-25198200D01*
X61659991Y-25198200D02*
X61707353Y-25150838D01*
X18252400Y-17221200D02*
X17622600Y-17221200D01*
X17622600Y-17221200D02*
X16523599Y-16122199D01*
X16523599Y-16122199D02*
X16523599Y-14636927D01*
X16523599Y-14636927D02*
X17176927Y-13983599D01*
X20152400Y-17221200D02*
X20152400Y-17007800D01*
X20152400Y-17007800D02*
X20701000Y-16459200D01*
X20152400Y-15407600D02*
X20320000Y-15240000D01*
X57150000Y-14452600D02*
X56680999Y-13983599D01*
X56680999Y-13983599D02*
X44919001Y-13983599D01*
X44919001Y-13983599D02*
X44475400Y-14427200D01*
D30*
X24333200Y-23266400D02*
X24752303Y-22847297D01*
X27584410Y-20208940D02*
X28514740Y-19278610D01*
X24752303Y-22847297D02*
X24752303Y-22542497D01*
X24752303Y-22542497D02*
X25181789Y-22113011D01*
X27584410Y-21696782D02*
X27584410Y-20208940D01*
X25181789Y-22113011D02*
X27168181Y-22113011D01*
X27168181Y-22113011D02*
X27584410Y-21696782D01*
X28514740Y-19278610D02*
X30037716Y-19278610D01*
X30037716Y-19278610D02*
X30369106Y-19610000D01*
X30369106Y-19610000D02*
X34152600Y-19610000D01*
X17805400Y-30454600D02*
X17780000Y-30480000D01*
X43602600Y-18478951D02*
X43107751Y-18973800D01*
X43107751Y-18973800D02*
X42468800Y-18973800D01*
X15570200Y-23037800D02*
X15240000Y-23368000D01*
X19989800Y-23037800D02*
X15570200Y-23037800D01*
X15240000Y-23368000D02*
X15240000Y-24130000D01*
X43602600Y-17160000D02*
X43602600Y-18478951D01*
X45552600Y-20110000D02*
X44849400Y-20110000D01*
X44849400Y-20110000D02*
X44538370Y-20421030D01*
X44538370Y-20421030D02*
X44538370Y-20903161D01*
X20421600Y-22275800D02*
X17172430Y-22275800D01*
X17172430Y-22275800D02*
X16486630Y-21590000D01*
X16486630Y-21590000D02*
X15240000Y-21590000D01*
X60647600Y-24043400D02*
X61596361Y-24043400D01*
X61596361Y-24043400D02*
X61752361Y-24199400D01*
X60647600Y-23393400D02*
X61620400Y-23393400D01*
X61620400Y-23393400D02*
X61645800Y-23368000D01*
X42509010Y-27792768D02*
X42509010Y-27033430D01*
X42509010Y-27033430D02*
X42288340Y-26812760D01*
X42602600Y-28560000D02*
X42602600Y-27886358D01*
X42602600Y-27886358D02*
X42509010Y-27792768D01*
X42009010Y-27413496D02*
X41488040Y-26892526D01*
X41488040Y-26892526D02*
X41488040Y-26563555D01*
X42102600Y-28560000D02*
X42102600Y-27980200D01*
X42102600Y-27980200D02*
X42009010Y-27886610D01*
X42009010Y-27886610D02*
X42009010Y-27413496D01*
X42102600Y-28560000D02*
X42102600Y-28285000D01*
X41102600Y-27656586D02*
X40131875Y-26685861D01*
X40131875Y-26685861D02*
X39590146Y-26685861D01*
X41102600Y-28560000D02*
X41102600Y-27656586D01*
X40602600Y-28560000D02*
X40602600Y-27856800D01*
X40602600Y-27856800D02*
X40269011Y-27523211D01*
X40269011Y-27523211D02*
X39627934Y-27523211D01*
X39032401Y-27881801D02*
X38836600Y-27686000D01*
X38836600Y-27686000D02*
X38836600Y-27127200D01*
X39102600Y-28560000D02*
X39102600Y-28129800D01*
X39102600Y-28129800D02*
X39032401Y-28059601D01*
X39032401Y-28059601D02*
X39032401Y-27881801D01*
X38602600Y-28560000D02*
X38602600Y-29263200D01*
X38602600Y-29263200D02*
X38969401Y-29630001D01*
X38969401Y-29630001D02*
X39790001Y-29630001D01*
X39790001Y-29630001D02*
X40640000Y-30480000D01*
X38102600Y-28560000D02*
X38102600Y-30477400D01*
X38102600Y-30477400D02*
X38100000Y-30480000D01*
X37602600Y-28560000D02*
X37602600Y-29233642D01*
X37602600Y-29233642D02*
X37206241Y-29630001D01*
X37206241Y-29630001D02*
X36409999Y-29630001D01*
X36409999Y-29630001D02*
X35560000Y-30480000D01*
X34010600Y-30320294D02*
X33179706Y-30320294D01*
X33179706Y-30320294D02*
X33020000Y-30480000D01*
X36102600Y-28560000D02*
X35770894Y-28560000D01*
X35770894Y-28560000D02*
X34010600Y-30320294D01*
X34152600Y-26610000D02*
X33777600Y-26610000D01*
X33777600Y-26610000D02*
X32752400Y-27635200D01*
X32752400Y-27635200D02*
X31292800Y-27635200D01*
X30346394Y-27660600D02*
X29895800Y-27660600D01*
X32626301Y-27012899D02*
X30994095Y-27012899D01*
X30994095Y-27012899D02*
X30346394Y-27660600D01*
X34152600Y-26110000D02*
X33524150Y-26110000D01*
X33524150Y-26110000D02*
X32837141Y-26797009D01*
X32837141Y-26797009D02*
X32837141Y-26802059D01*
X32837141Y-26802059D02*
X32626301Y-27012899D01*
X34152600Y-25610000D02*
X33445000Y-25610000D01*
X33445000Y-25610000D02*
X32448511Y-26606489D01*
X32448511Y-26606489D02*
X30825754Y-26606490D01*
X29426046Y-27038299D02*
X28856030Y-27608315D01*
X30825754Y-26606490D02*
X30393945Y-27038299D01*
X30393945Y-27038299D02*
X29426046Y-27038299D01*
X23914100Y-22791988D02*
X23914100Y-22796500D01*
X23914100Y-22796500D02*
X23444200Y-23266400D01*
X31632200Y-19110000D02*
X31394400Y-18872200D01*
X31394400Y-18872200D02*
X28346400Y-18872200D01*
X28346400Y-18872200D02*
X27178000Y-20040600D01*
X23914100Y-22791988D02*
X24999487Y-21706601D01*
X24999487Y-21706601D02*
X26999841Y-21706601D01*
X26999841Y-21706601D02*
X27178000Y-21528442D01*
X27178000Y-21528442D02*
X27178000Y-20040600D01*
X31632200Y-19110000D02*
X34152600Y-19110000D01*
X17961186Y-25623688D02*
X19527688Y-25623688D01*
X19527688Y-25623688D02*
X19558000Y-25654000D01*
X33777600Y-19110000D02*
X34152600Y-19110000D01*
X15240000Y-30480000D02*
X16445601Y-29274399D01*
X16445601Y-29274399D02*
X16445601Y-27139273D01*
X16445601Y-27139273D02*
X17961186Y-25623688D01*
X15336550Y-30480000D02*
X15240000Y-30480000D01*
X36703000Y-19126200D02*
X37020499Y-18808701D01*
X37020499Y-18808701D02*
X37020499Y-18020051D01*
X37020499Y-18020051D02*
X37102600Y-17937950D01*
X23045106Y-15425106D02*
X22860000Y-15240000D01*
X37102600Y-17160000D02*
X37102600Y-17937950D01*
X26669196Y-16559996D02*
X26669196Y-16509196D01*
X26669196Y-16509196D02*
X25400000Y-15240000D01*
X25476200Y-15316200D02*
X25400000Y-15240000D01*
X37269372Y-19837400D02*
X37269372Y-19388388D01*
X37269372Y-19388388D02*
X37602600Y-19055160D01*
X37602600Y-19055160D02*
X37602600Y-17160000D01*
X25890788Y-15730788D02*
X25400000Y-15240000D01*
X38602600Y-17160000D02*
X38602600Y-19034570D01*
X38602600Y-19034570D02*
X38743451Y-19175421D01*
X39102600Y-17160000D02*
X39102600Y-18647781D01*
X39102600Y-18647781D02*
X39580155Y-19125336D01*
X39602600Y-17160000D02*
X39602600Y-18267715D01*
X39602600Y-18267715D02*
X40446622Y-19111737D01*
X40781309Y-18587101D02*
X41142301Y-18587101D01*
X41142301Y-18587101D02*
X41190567Y-18635367D01*
X40102600Y-17160000D02*
X40102600Y-17908392D01*
X40102600Y-17908392D02*
X40781309Y-18587101D01*
X40602600Y-17160000D02*
X40602600Y-17833642D01*
X40602600Y-17833642D02*
X40733759Y-17964801D01*
X40733759Y-17964801D02*
X41783938Y-17964801D01*
X41783938Y-17964801D02*
X42000280Y-18181143D01*
X43102600Y-17160000D02*
X43102600Y-17904570D01*
X43102600Y-17904570D02*
X42838391Y-18168779D01*
X43102600Y-17160000D02*
X43144200Y-17160000D01*
X57353200Y-17805400D02*
X59283600Y-17805400D01*
X59283600Y-17805400D02*
X61823600Y-17805400D01*
X59283600Y-18872200D02*
X59283600Y-17805400D01*
X61823600Y-17805400D02*
X62509400Y-17805400D01*
X62509400Y-17805400D02*
X63119000Y-18415000D01*
X45552600Y-20610000D02*
X46226242Y-20610000D01*
X46357401Y-20478841D02*
X46357401Y-18525501D01*
X46226242Y-20610000D02*
X46357401Y-20478841D01*
X44094400Y-15323506D02*
X43263506Y-15323506D01*
X46357401Y-18525501D02*
X46354980Y-18523080D01*
X43263506Y-15323506D02*
X43180000Y-15240000D01*
X46354980Y-18523080D02*
X46354980Y-17584086D01*
X46354980Y-17584086D02*
X44094400Y-15323506D01*
X52959000Y-19177000D02*
X53276499Y-18859501D01*
X54686190Y-18491210D02*
X54863990Y-18313410D01*
X53276499Y-18859501D02*
X53378099Y-18859501D01*
X53378099Y-18859501D02*
X53746390Y-18491210D01*
X53746390Y-18491210D02*
X54686190Y-18491210D01*
X54863990Y-18313410D02*
X54889390Y-18313410D01*
X54889390Y-18313410D02*
X55168790Y-18034010D01*
X55168790Y-18034010D02*
X57124590Y-18034010D01*
X57124590Y-18034010D02*
X57353200Y-17805400D01*
X43180000Y-15290800D02*
X43180000Y-15240000D01*
X63741301Y-18713705D02*
X63741301Y-18116295D01*
X63741301Y-18116295D02*
X62897006Y-17272000D01*
X62897006Y-17272000D02*
X57283498Y-17272000D01*
X62709948Y-19138590D02*
X63316416Y-19138590D01*
X63316416Y-19138590D02*
X63741301Y-18713705D01*
X62046822Y-21914360D02*
X62046822Y-19801716D01*
X53295294Y-18338800D02*
X52832000Y-18338800D01*
X62046822Y-19801716D02*
X62709948Y-19138590D01*
X56927898Y-17627600D02*
X54960506Y-17627600D01*
X54503306Y-18084800D02*
X53549294Y-18084800D01*
X57283498Y-17272000D02*
X56927898Y-17627600D01*
X54960506Y-17627600D02*
X54503306Y-18084800D01*
X53549294Y-18084800D02*
X53295294Y-18338800D01*
X45552600Y-21110000D02*
X46300992Y-21110000D01*
X46300992Y-21110000D02*
X46763811Y-20647181D01*
X46761390Y-16281390D02*
X45720000Y-15240000D01*
X46763811Y-20647181D02*
X46763810Y-18357160D01*
X46763810Y-18357160D02*
X46761390Y-18354740D01*
X46761390Y-18354740D02*
X46761390Y-16281390D01*
X45552600Y-21610000D02*
X46375742Y-21610000D01*
X47170220Y-20815520D02*
X47170220Y-18188820D01*
X47167800Y-18186400D02*
X47167800Y-15519400D01*
X46375742Y-21610000D02*
X47170220Y-20815520D01*
X47170220Y-18188820D02*
X47167800Y-18186400D01*
X47167800Y-15519400D02*
X47447200Y-15240000D01*
X47447200Y-15240000D02*
X48260000Y-15240000D01*
X49689706Y-15519400D02*
X50520600Y-15519400D01*
X50520600Y-15519400D02*
X50800000Y-15240000D01*
X48814305Y-16394801D02*
X49689706Y-15519400D01*
X47574210Y-17195810D02*
X47574210Y-16560790D01*
X47574210Y-16560790D02*
X47740199Y-16394801D01*
X47740199Y-16394801D02*
X48814305Y-16394801D01*
X45552600Y-22110000D02*
X46450489Y-22110000D01*
X46450489Y-22110000D02*
X47576630Y-20983860D01*
X47576630Y-20983860D02*
X47576630Y-17198230D01*
X47576630Y-17198230D02*
X47574210Y-17195810D01*
X50444380Y-15595620D02*
X50800000Y-15240000D01*
X52044600Y-15704506D02*
X52044600Y-15333319D01*
X52044600Y-15333319D02*
X52137919Y-15240000D01*
X52137919Y-15240000D02*
X53340000Y-15240000D01*
X51354305Y-16394801D02*
X52044600Y-15704506D01*
X48982646Y-16801210D02*
X49389055Y-16394801D01*
X49389055Y-16394801D02*
X51354305Y-16394801D01*
X47983040Y-21152200D02*
X47983040Y-17020440D01*
X47983040Y-17020440D02*
X48202269Y-16801211D01*
X48202269Y-16801211D02*
X48982646Y-16801210D01*
X45552600Y-22610000D02*
X46525239Y-22610000D01*
X46525239Y-22610000D02*
X47983040Y-21152200D01*
X53111400Y-15240000D02*
X53340000Y-15240000D01*
X45552600Y-25110000D02*
X46255800Y-25110000D01*
X46357401Y-25008399D02*
X46357401Y-23352588D01*
X46255800Y-25110000D02*
X46357401Y-25008399D01*
X46357401Y-23352588D02*
X48389450Y-21320540D01*
X51929055Y-16394801D02*
X53894305Y-16394801D01*
X48389450Y-21320540D02*
X48389450Y-17523550D01*
X49150987Y-17207619D02*
X49557395Y-16801211D01*
X48389450Y-17523550D02*
X48705381Y-17207619D01*
X48705381Y-17207619D02*
X49150987Y-17207619D01*
X53894305Y-16394801D02*
X54845906Y-15443200D01*
X49557395Y-16801211D02*
X51522646Y-16801210D01*
X51522646Y-16801210D02*
X51929055Y-16394801D01*
X54845906Y-15443200D02*
X55676800Y-15443200D01*
X55676800Y-15443200D02*
X55880000Y-15240000D01*
X45552600Y-25610000D02*
X46330550Y-25610000D01*
X46330550Y-25610000D02*
X46763811Y-25176739D01*
X46763811Y-25176739D02*
X46763811Y-23568789D01*
X46763811Y-23568789D02*
X48412400Y-21920200D01*
X48412400Y-21920200D02*
X48412400Y-21872339D01*
X48412400Y-21872339D02*
X48795860Y-21488880D01*
X48795860Y-21488880D02*
X48795860Y-18137496D01*
X48795860Y-18137496D02*
X49712156Y-17221200D01*
X54062646Y-16801210D02*
X54469055Y-16394801D01*
X49712156Y-17221200D02*
X51677404Y-17221200D01*
X57360506Y-15468600D02*
X58191400Y-15468600D01*
X51677404Y-17221200D02*
X52097393Y-16801211D01*
X58191400Y-15468600D02*
X58420000Y-15240000D01*
X52097393Y-16801211D02*
X54062646Y-16801210D01*
X54469055Y-16394801D02*
X56434305Y-16394801D01*
X56434305Y-16394801D02*
X57360506Y-15468600D01*
X58166000Y-15494000D02*
X58420000Y-15240000D01*
X51845745Y-17627609D02*
X52265735Y-17207619D01*
X49885590Y-17627610D02*
X51845745Y-17627609D01*
X49202270Y-21657220D02*
X49202270Y-18310930D01*
X49202270Y-18310930D02*
X49885590Y-17627610D01*
X47170221Y-23737129D02*
X48996600Y-21910750D01*
X48996600Y-21862890D02*
X49202270Y-21657220D01*
X48996600Y-21910750D02*
X48996600Y-21862890D01*
X47170221Y-25345079D02*
X47170221Y-23737129D01*
X46405300Y-26110000D02*
X47170221Y-25345079D01*
X59875106Y-15494000D02*
X60706000Y-15494000D01*
X60706000Y-15494000D02*
X60960000Y-15240000D01*
X58974305Y-16394801D02*
X59875106Y-15494000D01*
X56604789Y-16801211D02*
X57011199Y-16394801D01*
X57011199Y-16394801D02*
X58974305Y-16394801D01*
X54230987Y-17207619D02*
X54637395Y-16801211D01*
X54637395Y-16801211D02*
X56604789Y-16801211D01*
X52265735Y-17207619D02*
X54230987Y-17207619D01*
X45552600Y-26110000D02*
X46405300Y-26110000D01*
X51993800Y-18059400D02*
X52439171Y-17614029D01*
X54805735Y-17207621D02*
X56773130Y-17207620D01*
X50033275Y-18054675D02*
X50038000Y-18059400D01*
X50038000Y-18059400D02*
X51993800Y-18059400D01*
X52439171Y-17614029D02*
X54399328Y-17614028D01*
X54399328Y-17614028D02*
X54805735Y-17207621D01*
X56773130Y-17207620D02*
X57179539Y-16801211D01*
X57179539Y-16801211D02*
X59142646Y-16801210D01*
X59142646Y-16801210D02*
X59549055Y-16394801D01*
X59549055Y-16394801D02*
X61506999Y-16394801D01*
X45552600Y-26610000D02*
X46480050Y-26610000D01*
X46480050Y-26610000D02*
X47576631Y-25513419D01*
X47576631Y-25513419D02*
X47576631Y-23905469D01*
X47576631Y-23905469D02*
X49608680Y-21873420D01*
X49608680Y-21873420D02*
X49608680Y-18488720D01*
X49608680Y-18488720D02*
X49834800Y-18262600D01*
X62407800Y-15494000D02*
X63246000Y-15494000D01*
X49834800Y-18262600D02*
X49834800Y-18253150D01*
X49834800Y-18253150D02*
X50033275Y-18054675D01*
X61506999Y-16394801D02*
X62407800Y-15494000D01*
X63246000Y-15494000D02*
X63500000Y-15240000D01*
X42341800Y-20066000D02*
X42595800Y-20320000D01*
X42595800Y-20320000D02*
X42595800Y-22225000D01*
X42339147Y-20066000D02*
X42341800Y-20066000D01*
X42110545Y-19837400D02*
X42339147Y-20066000D01*
X38484424Y-19837400D02*
X42110545Y-19837400D01*
X38102600Y-19455576D02*
X38484424Y-19837400D01*
X38102600Y-17160000D02*
X38102600Y-19455576D01*
X41602600Y-28560000D02*
X41602600Y-27581836D01*
X41602600Y-27581836D02*
X40513000Y-26492236D01*
X40513000Y-26492236D02*
X40513000Y-26085800D01*
X40513000Y-26085800D02*
X41960800Y-24638000D01*
X59182000Y-28346400D02*
X60112000Y-28346400D01*
X19177000Y-27051000D02*
X20066000Y-27940000D01*
X20575813Y-27430187D02*
X20066000Y-27940000D01*
X20132040Y-27416760D02*
X20142200Y-27406600D01*
X19202400Y-17221200D02*
X19202400Y-17954400D01*
X19202400Y-17954400D02*
X19354801Y-18106801D01*
X19354801Y-18106801D02*
X24723480Y-18106801D01*
X24723480Y-18106801D02*
X25120600Y-18503921D01*
X34152600Y-24610000D02*
X33398400Y-24610000D01*
X33398400Y-24610000D02*
X31394400Y-22606000D01*
X31394400Y-22606000D02*
X29006800Y-22606000D01*
X35130800Y-24610000D02*
X35204400Y-24536400D01*
D29*
X19202400Y-17221200D02*
X19202400Y-16470264D01*
X19202400Y-16470264D02*
X18849664Y-16117528D01*
D30*
X34152600Y-24610000D02*
X35130800Y-24610000D01*
X20152400Y-19421200D02*
X20152400Y-18688000D01*
X20152400Y-18688000D02*
X20327189Y-18513211D01*
X20327189Y-18513211D02*
X23923411Y-18513211D01*
X23923411Y-18513211D02*
X24209708Y-18799508D01*
X24209708Y-18799508D02*
X24253492Y-18799508D01*
X19511424Y-19912773D02*
X19660827Y-19912773D01*
X19660827Y-19912773D02*
X20152400Y-19421200D01*
X28370390Y-23151494D02*
X28631288Y-23151494D01*
X34133201Y-25090601D02*
X34152600Y-25110000D01*
X28631288Y-23151494D02*
X28708095Y-23228301D01*
X28708095Y-23228301D02*
X29476699Y-23228301D01*
X29489398Y-23241000D02*
X31371926Y-23241000D01*
X29476699Y-23228301D02*
X29489398Y-23241000D01*
X33221527Y-25090601D02*
X34133201Y-25090601D01*
X31371926Y-23241000D02*
X33221527Y-25090601D01*
X34879983Y-25110000D02*
X35165567Y-25395584D01*
X20152400Y-19421200D02*
X19847200Y-19421200D01*
D29*
X20152400Y-19421200D02*
X20152400Y-19090600D01*
X20152400Y-19421200D02*
X19907199Y-19421200D01*
D30*
X34152600Y-25110000D02*
X34879983Y-25110000D01*
G36*
X64415200Y-14548424D02*
X64316567Y-14400809D01*
X63941923Y-14150480D01*
X63500000Y-14062576D01*
X63058077Y-14150480D01*
X62683433Y-14400809D01*
X62433104Y-14775453D01*
X62369499Y-15095219D01*
X62252277Y-15118535D01*
X62120432Y-15206632D01*
X62113952Y-15213112D01*
X62026896Y-14775453D01*
X61776567Y-14400809D01*
X61401923Y-14150480D01*
X60960000Y-14062576D01*
X60518077Y-14150480D01*
X60143433Y-14400809D01*
X59893104Y-14775453D01*
X59829198Y-15096732D01*
X59719583Y-15118535D01*
X59587738Y-15206632D01*
X59574800Y-15219570D01*
X59574800Y-15217376D01*
X59486896Y-14775453D01*
X59236567Y-14400809D01*
X58861923Y-14150480D01*
X58420000Y-14062576D01*
X57978077Y-14150480D01*
X57812827Y-14260897D01*
X57731732Y-14064633D01*
X57538982Y-13871546D01*
X57287013Y-13766919D01*
X57110743Y-13766765D01*
X57004288Y-13660310D01*
X56855962Y-13561201D01*
X56680999Y-13526399D01*
X44919001Y-13526399D01*
X44744038Y-13561201D01*
X44595712Y-13660309D01*
X44514588Y-13741434D01*
X44339584Y-13741281D01*
X44087433Y-13845468D01*
X43894346Y-14038218D01*
X43798687Y-14268590D01*
X43621923Y-14150480D01*
X43180000Y-14062576D01*
X42738077Y-14150480D01*
X42363433Y-14400809D01*
X42113104Y-14775453D01*
X42025200Y-15217376D01*
X42025200Y-15262624D01*
X42113104Y-15704547D01*
X42363433Y-16079191D01*
X42738077Y-16329520D01*
X42905430Y-16362809D01*
X42864648Y-16370482D01*
X42853900Y-16377398D01*
X42848507Y-16373713D01*
X42727600Y-16349229D01*
X42477600Y-16349229D01*
X42364648Y-16370482D01*
X42353900Y-16377398D01*
X42348507Y-16373713D01*
X42227600Y-16349229D01*
X41977600Y-16349229D01*
X41864648Y-16370482D01*
X41853900Y-16377398D01*
X41848507Y-16373713D01*
X41727600Y-16349229D01*
X41477600Y-16349229D01*
X41364648Y-16370482D01*
X41353900Y-16377398D01*
X41348507Y-16373713D01*
X41227600Y-16349229D01*
X40982839Y-16349229D01*
X41081923Y-16329520D01*
X41456567Y-16079191D01*
X41706896Y-15704547D01*
X41794800Y-15262624D01*
X41794800Y-15217376D01*
X41706896Y-14775453D01*
X41456567Y-14400809D01*
X41081923Y-14150480D01*
X40640000Y-14062576D01*
X40198077Y-14150480D01*
X39823433Y-14400809D01*
X39573104Y-14775453D01*
X39485200Y-15217376D01*
X39485200Y-15262624D01*
X39573104Y-15704547D01*
X39823433Y-16079191D01*
X40198077Y-16329520D01*
X40384874Y-16366676D01*
X40364648Y-16370482D01*
X40353900Y-16377398D01*
X40348507Y-16373713D01*
X40227600Y-16349229D01*
X39977600Y-16349229D01*
X39864648Y-16370482D01*
X39853900Y-16377398D01*
X39848507Y-16373713D01*
X39727600Y-16349229D01*
X39477600Y-16349229D01*
X39364648Y-16370482D01*
X39353900Y-16377398D01*
X39348507Y-16373713D01*
X39227600Y-16349229D01*
X38977600Y-16349229D01*
X38864648Y-16370482D01*
X38853900Y-16377398D01*
X38848507Y-16373713D01*
X38727600Y-16349229D01*
X38477600Y-16349229D01*
X38364648Y-16370482D01*
X38353900Y-16377398D01*
X38348507Y-16373713D01*
X38334257Y-16370827D01*
X38541923Y-16329520D01*
X38916567Y-16079191D01*
X39166896Y-15704547D01*
X39254800Y-15262624D01*
X39254800Y-15217376D01*
X39166896Y-14775453D01*
X38916567Y-14400809D01*
X38541923Y-14150480D01*
X38100000Y-14062576D01*
X37658077Y-14150480D01*
X37283433Y-14400809D01*
X37033104Y-14775453D01*
X36945200Y-15217376D01*
X36945200Y-15262624D01*
X37033104Y-15704547D01*
X37283433Y-16079191D01*
X37658077Y-16329520D01*
X37864497Y-16370579D01*
X37853900Y-16377398D01*
X37848507Y-16373713D01*
X37727600Y-16349229D01*
X37477600Y-16349229D01*
X37364648Y-16370482D01*
X37353900Y-16377398D01*
X37348507Y-16373713D01*
X37227600Y-16349229D01*
X36977600Y-16349229D01*
X36918838Y-16360286D01*
X36868658Y-16325999D01*
X36727600Y-16297434D01*
X36477600Y-16297434D01*
X36345823Y-16322230D01*
X36292096Y-16356802D01*
X36288229Y-16355200D01*
X36241300Y-16355200D01*
X36165100Y-16431400D01*
X36165100Y-16487474D01*
X36143599Y-16518942D01*
X36115034Y-16660000D01*
X36115034Y-17268900D01*
X36040100Y-17268900D01*
X36040100Y-17248900D01*
X35749000Y-17248900D01*
X35672800Y-17325100D01*
X35672800Y-17720628D01*
X35719203Y-17832655D01*
X35804944Y-17918397D01*
X35916971Y-17964800D01*
X35963900Y-17964800D01*
X36013698Y-17915002D01*
X36013698Y-17964800D01*
X36024022Y-17964800D01*
X35942099Y-18046723D01*
X35782299Y-18046583D01*
X35534817Y-18148841D01*
X35345306Y-18338022D01*
X35242617Y-18585325D01*
X35242383Y-18853101D01*
X35344641Y-19100583D01*
X35533822Y-19290094D01*
X35781125Y-19392783D01*
X36048901Y-19393017D01*
X36126644Y-19360894D01*
X36175132Y-19478244D01*
X36350035Y-19653453D01*
X36578674Y-19748392D01*
X36647149Y-19748452D01*
X36646964Y-19960640D01*
X36741504Y-20189444D01*
X36916407Y-20364653D01*
X37145046Y-20459592D01*
X37392612Y-20459808D01*
X37621416Y-20365268D01*
X37796625Y-20190365D01*
X37891564Y-19961726D01*
X37891688Y-19819400D01*
X38182127Y-20109839D01*
X38087417Y-20337925D01*
X38087399Y-20358000D01*
X38068299Y-20357983D01*
X37820817Y-20460241D01*
X37631306Y-20649422D01*
X37528617Y-20896725D01*
X37528383Y-21164501D01*
X37630641Y-21411983D01*
X37819822Y-21601494D01*
X38067125Y-21704183D01*
X38228146Y-21704324D01*
X39016509Y-22492687D01*
X39016369Y-22652487D01*
X39118627Y-22899969D01*
X39307808Y-23089480D01*
X39555111Y-23192169D01*
X39822887Y-23192403D01*
X40070369Y-23090145D01*
X40259880Y-22900964D01*
X40362569Y-22653661D01*
X40362598Y-22620875D01*
X40394387Y-22620903D01*
X40641869Y-22518645D01*
X40831380Y-22329464D01*
X40934069Y-22082161D01*
X40934303Y-21814385D01*
X40832045Y-21566903D01*
X40642864Y-21377392D01*
X40395561Y-21274703D01*
X40209119Y-21274540D01*
X39433477Y-20498899D01*
X39433617Y-20339099D01*
X39394240Y-20243800D01*
X41942210Y-20243800D01*
X42051780Y-20353370D01*
X42059778Y-20358714D01*
X42189400Y-20488336D01*
X42189400Y-21751393D01*
X42068547Y-21872035D01*
X41973608Y-22100674D01*
X41973392Y-22348240D01*
X42067932Y-22577044D01*
X42242835Y-22752253D01*
X42471474Y-22847192D01*
X42719040Y-22847408D01*
X42947844Y-22752868D01*
X43123053Y-22577965D01*
X43217992Y-22349326D01*
X43218208Y-22101760D01*
X43123668Y-21872956D01*
X43002200Y-21751275D01*
X43002200Y-20320000D01*
X42971265Y-20164477D01*
X42883168Y-20032632D01*
X42629168Y-19778632D01*
X42621173Y-19773290D01*
X42443960Y-19596079D01*
X42592040Y-19596208D01*
X42820844Y-19501668D01*
X42942525Y-19380200D01*
X43107751Y-19380200D01*
X43263274Y-19349265D01*
X43395119Y-19261168D01*
X43889968Y-18766319D01*
X43978065Y-18634474D01*
X44009000Y-18478951D01*
X44009000Y-17788059D01*
X44013887Y-17780907D01*
X44038371Y-17660000D01*
X44038371Y-16660000D01*
X44017118Y-16547048D01*
X43950363Y-16443308D01*
X43848507Y-16373713D01*
X43727600Y-16349229D01*
X43522839Y-16349229D01*
X43621923Y-16329520D01*
X43996567Y-16079191D01*
X44108231Y-15912073D01*
X45948580Y-17752422D01*
X45948580Y-18523080D01*
X45951001Y-18535251D01*
X45951001Y-18680200D01*
X45717700Y-18680200D01*
X45641500Y-18756400D01*
X45641500Y-19047500D01*
X45661500Y-19047500D01*
X45661500Y-19172500D01*
X45641500Y-19172500D01*
X45641500Y-19174229D01*
X45463700Y-19174229D01*
X45463700Y-19172500D01*
X45443700Y-19172500D01*
X45443700Y-19047500D01*
X45463700Y-19047500D01*
X45463700Y-18756400D01*
X45387500Y-18680200D01*
X44991972Y-18680200D01*
X44879945Y-18726603D01*
X44809314Y-18797233D01*
X44672058Y-18740240D01*
X44424492Y-18740024D01*
X44195688Y-18834564D01*
X44020479Y-19009467D01*
X43925540Y-19238106D01*
X43925324Y-19485672D01*
X44019864Y-19714476D01*
X44194767Y-19889685D01*
X44406896Y-19977768D01*
X44251002Y-20133662D01*
X44162905Y-20265507D01*
X44131970Y-20421030D01*
X44131970Y-20429554D01*
X44011117Y-20550196D01*
X43916178Y-20778835D01*
X43915962Y-21026401D01*
X44010502Y-21255205D01*
X44185405Y-21430414D01*
X44414044Y-21525353D01*
X44661610Y-21525569D01*
X44741829Y-21492423D01*
X44741829Y-21735000D01*
X44763082Y-21847952D01*
X44769998Y-21858700D01*
X44766313Y-21864093D01*
X44741829Y-21985000D01*
X44741829Y-22235000D01*
X44763082Y-22347952D01*
X44769998Y-22358700D01*
X44766313Y-22364093D01*
X44741829Y-22485000D01*
X44741829Y-22735000D01*
X44763082Y-22847952D01*
X44769998Y-22858700D01*
X44766313Y-22864093D01*
X44741829Y-22985000D01*
X44741829Y-23235000D01*
X44763082Y-23347952D01*
X44769998Y-23358700D01*
X44766313Y-23364093D01*
X44741829Y-23485000D01*
X44741829Y-23735000D01*
X44763082Y-23847952D01*
X44769998Y-23858700D01*
X44766313Y-23864093D01*
X44741829Y-23985000D01*
X44741829Y-24235000D01*
X44763082Y-24347952D01*
X44769998Y-24358700D01*
X44766313Y-24364093D01*
X44741829Y-24485000D01*
X44741829Y-24735000D01*
X44763082Y-24847952D01*
X44769998Y-24858700D01*
X44766313Y-24864093D01*
X44741829Y-24985000D01*
X44741829Y-25235000D01*
X44763082Y-25347952D01*
X44769998Y-25358700D01*
X44766313Y-25364093D01*
X44741829Y-25485000D01*
X44741829Y-25735000D01*
X44763082Y-25847952D01*
X44769998Y-25858700D01*
X44766313Y-25864093D01*
X44741829Y-25985000D01*
X44741829Y-26235000D01*
X44763082Y-26347952D01*
X44769998Y-26358700D01*
X44766313Y-26364093D01*
X44741829Y-26485000D01*
X44741829Y-26735000D01*
X44763082Y-26847952D01*
X44829837Y-26951692D01*
X44931693Y-27021287D01*
X45052600Y-27045771D01*
X46052600Y-27045771D01*
X46165552Y-27024518D01*
X46178168Y-27016400D01*
X46480050Y-27016400D01*
X46635573Y-26985465D01*
X46767418Y-26897368D01*
X47863999Y-25800787D01*
X47879733Y-25777240D01*
X47952096Y-25668942D01*
X47983031Y-25513419D01*
X47983031Y-24742376D01*
X49645200Y-24742376D01*
X49645200Y-24787624D01*
X49733104Y-25229547D01*
X49983433Y-25604191D01*
X50358077Y-25854520D01*
X50800000Y-25942424D01*
X51241923Y-25854520D01*
X51616567Y-25604191D01*
X51866896Y-25229547D01*
X51926459Y-24930100D01*
X52185200Y-24930100D01*
X52185200Y-25675628D01*
X52231603Y-25787655D01*
X52317344Y-25873397D01*
X52429371Y-25919800D01*
X53174900Y-25919800D01*
X53251100Y-25843600D01*
X53251100Y-24853900D01*
X53428900Y-24853900D01*
X53428900Y-25843600D01*
X53505100Y-25919800D01*
X54250629Y-25919800D01*
X54362656Y-25873397D01*
X54448397Y-25787655D01*
X54494800Y-25675628D01*
X54494800Y-24930100D01*
X54418600Y-24853900D01*
X53428900Y-24853900D01*
X53251100Y-24853900D01*
X52261400Y-24853900D01*
X52185200Y-24930100D01*
X51926459Y-24930100D01*
X51954800Y-24787624D01*
X51954800Y-24742376D01*
X51866896Y-24300453D01*
X51616567Y-23925809D01*
X51509654Y-23854372D01*
X52185200Y-23854372D01*
X52185200Y-24599900D01*
X52261400Y-24676100D01*
X53251100Y-24676100D01*
X53251100Y-23686400D01*
X53428900Y-23686400D01*
X53428900Y-24676100D01*
X54418600Y-24676100D01*
X54494800Y-24599900D01*
X54494800Y-23854372D01*
X54448397Y-23742345D01*
X54362656Y-23656603D01*
X54250629Y-23610200D01*
X53505100Y-23610200D01*
X53428900Y-23686400D01*
X53251100Y-23686400D01*
X53174900Y-23610200D01*
X52429371Y-23610200D01*
X52317344Y-23656603D01*
X52231603Y-23742345D01*
X52185200Y-23854372D01*
X51509654Y-23854372D01*
X51241923Y-23675480D01*
X50800000Y-23587576D01*
X50358077Y-23675480D01*
X49983433Y-23925809D01*
X49733104Y-24300453D01*
X49645200Y-24742376D01*
X47983031Y-24742376D01*
X47983031Y-24073805D01*
X49810036Y-22246800D01*
X50033434Y-22246800D01*
X50033434Y-22846800D01*
X50058230Y-22978577D01*
X50136110Y-23099607D01*
X50254942Y-23180801D01*
X50396000Y-23209366D01*
X51396000Y-23209366D01*
X51527777Y-23184570D01*
X51648807Y-23106690D01*
X51730001Y-22987858D01*
X51758566Y-22846800D01*
X51758566Y-22571686D01*
X51891983Y-22516559D01*
X52081494Y-22327378D01*
X52184183Y-22080075D01*
X52184417Y-21812299D01*
X52082159Y-21564817D01*
X51892978Y-21375306D01*
X51645675Y-21272617D01*
X51377899Y-21272383D01*
X51130417Y-21374641D01*
X50940906Y-21563822D01*
X50838217Y-21811125D01*
X50838153Y-21884234D01*
X50396000Y-21884234D01*
X50264223Y-21909030D01*
X50143193Y-21986910D01*
X50061999Y-22105742D01*
X50033434Y-22246800D01*
X49810036Y-22246800D01*
X49896048Y-22160788D01*
X49984145Y-22028943D01*
X50015080Y-21873420D01*
X50015080Y-18657056D01*
X50085229Y-18586907D01*
X50085229Y-19146800D01*
X50106482Y-19259752D01*
X50173237Y-19363492D01*
X50275093Y-19433087D01*
X50396000Y-19457571D01*
X50785235Y-19457571D01*
X50914341Y-19586677D01*
X50914192Y-19757440D01*
X51008732Y-19986244D01*
X51183635Y-20161453D01*
X51412274Y-20256392D01*
X51659840Y-20256608D01*
X51888644Y-20162068D01*
X52063853Y-19987165D01*
X52158792Y-19758526D01*
X52159008Y-19510960D01*
X52064468Y-19282156D01*
X51889565Y-19106947D01*
X51706771Y-19031044D01*
X51706771Y-18546800D01*
X51691530Y-18465800D01*
X51993800Y-18465800D01*
X52149323Y-18434865D01*
X52209651Y-18394555D01*
X52209592Y-18462040D01*
X52304132Y-18690844D01*
X52434423Y-18821363D01*
X52431747Y-18824035D01*
X52336808Y-19052674D01*
X52336592Y-19300240D01*
X52431132Y-19529044D01*
X52460023Y-19557986D01*
X52330147Y-19687635D01*
X52235208Y-19916274D01*
X52234992Y-20163840D01*
X52329532Y-20392644D01*
X52504435Y-20567853D01*
X52733074Y-20662792D01*
X52980640Y-20663008D01*
X53209444Y-20568468D01*
X53331125Y-20447000D01*
X53349464Y-20447000D01*
X54724341Y-21821877D01*
X54724192Y-21992640D01*
X54818732Y-22221444D01*
X54993635Y-22396653D01*
X55222274Y-22491592D01*
X55469840Y-22491808D01*
X55698644Y-22397268D01*
X55849375Y-22246800D01*
X56085229Y-22246800D01*
X56085229Y-22846800D01*
X56106482Y-22959752D01*
X56173237Y-23063492D01*
X56275093Y-23133087D01*
X56396000Y-23157571D01*
X57396000Y-23157571D01*
X57508952Y-23136318D01*
X57612692Y-23069563D01*
X57682287Y-22967707D01*
X57706771Y-22846800D01*
X57706771Y-22246800D01*
X57685518Y-22133848D01*
X57618763Y-22030108D01*
X57516907Y-21960513D01*
X57396000Y-21936029D01*
X56396000Y-21936029D01*
X56283048Y-21957282D01*
X56179308Y-22024037D01*
X56109713Y-22125893D01*
X56085229Y-22246800D01*
X55849375Y-22246800D01*
X55873853Y-22222365D01*
X55968792Y-21993726D01*
X55969008Y-21746160D01*
X55874468Y-21517356D01*
X55699565Y-21342147D01*
X55470926Y-21247208D01*
X55298994Y-21247058D01*
X53805168Y-19753232D01*
X53798248Y-19748608D01*
X53673323Y-19665135D01*
X53517800Y-19634200D01*
X53381836Y-19634200D01*
X53486253Y-19529965D01*
X53581192Y-19301326D01*
X53581278Y-19203123D01*
X53665467Y-19146869D01*
X53914726Y-18897610D01*
X54686190Y-18897610D01*
X54841713Y-18866675D01*
X54973558Y-18778578D01*
X55100209Y-18651927D01*
X55176758Y-18600778D01*
X55337126Y-18440410D01*
X56106773Y-18440410D01*
X56085229Y-18546800D01*
X56085229Y-19146800D01*
X56106482Y-19259752D01*
X56173237Y-19363492D01*
X56275093Y-19433087D01*
X56396000Y-19457571D01*
X57396000Y-19457571D01*
X57508952Y-19436318D01*
X57612692Y-19369563D01*
X57682287Y-19267707D01*
X57706771Y-19146800D01*
X57706771Y-18546800D01*
X57685518Y-18433848D01*
X57618763Y-18330108D01*
X57516907Y-18260513D01*
X57480247Y-18253089D01*
X57521536Y-18211800D01*
X58877200Y-18211800D01*
X58877200Y-18398593D01*
X58756347Y-18519235D01*
X58661408Y-18747874D01*
X58661192Y-18995440D01*
X58755732Y-19224244D01*
X58930635Y-19399453D01*
X59159274Y-19494392D01*
X59406840Y-19494608D01*
X59635644Y-19400068D01*
X59810853Y-19225165D01*
X59905792Y-18996526D01*
X59906008Y-18748960D01*
X59811468Y-18520156D01*
X59690000Y-18398475D01*
X59690000Y-18211800D01*
X62341064Y-18211800D01*
X62496741Y-18367477D01*
X62496592Y-18538240D01*
X62586848Y-18756676D01*
X62554425Y-18763125D01*
X62447510Y-18834564D01*
X62422580Y-18851222D01*
X61759454Y-19514348D01*
X61671357Y-19646193D01*
X61640422Y-19801716D01*
X61640422Y-21440753D01*
X61519569Y-21561395D01*
X61507858Y-21589599D01*
X61463658Y-21559399D01*
X61322600Y-21530834D01*
X61314503Y-21530834D01*
X61414974Y-21380468D01*
X61478200Y-21062611D01*
X61478200Y-20724189D01*
X61414974Y-20406332D01*
X61234923Y-20136866D01*
X60965457Y-19956815D01*
X60647600Y-19893589D01*
X60329743Y-19956815D01*
X60060277Y-20136866D01*
X59880226Y-20406332D01*
X59817000Y-20724189D01*
X59817000Y-21062611D01*
X59867115Y-21314554D01*
X59735562Y-21259928D01*
X59442524Y-21259672D01*
X59171695Y-21371577D01*
X58964305Y-21578605D01*
X58851928Y-21849238D01*
X58851672Y-22142276D01*
X58942698Y-22362574D01*
X58735705Y-22569205D01*
X58623328Y-22839838D01*
X58623072Y-23132876D01*
X58734977Y-23403705D01*
X58942005Y-23611095D01*
X59212638Y-23723472D01*
X59505676Y-23723728D01*
X59673318Y-23654459D01*
X59683082Y-23706352D01*
X59689998Y-23717100D01*
X59686313Y-23722493D01*
X59661829Y-23843400D01*
X59661829Y-24243400D01*
X59683082Y-24356352D01*
X59689998Y-24367100D01*
X59686313Y-24372493D01*
X59661829Y-24493400D01*
X59661829Y-24893400D01*
X59683082Y-25006352D01*
X59749837Y-25110092D01*
X59851693Y-25179687D01*
X59972600Y-25204171D01*
X60015305Y-25204171D01*
X59880226Y-25406332D01*
X59817000Y-25724189D01*
X59817000Y-26062611D01*
X59880226Y-26380468D01*
X60060277Y-26649934D01*
X60329743Y-26829985D01*
X60647600Y-26893211D01*
X60965457Y-26829985D01*
X61234923Y-26649934D01*
X61414974Y-26380468D01*
X61478200Y-26062611D01*
X61478200Y-25798259D01*
X61570340Y-25836519D01*
X61843169Y-25836757D01*
X62095320Y-25732570D01*
X62229157Y-25598966D01*
X62210034Y-25693400D01*
X62210034Y-26817065D01*
X62194850Y-26893400D01*
X62256173Y-27201690D01*
X62430805Y-27463045D01*
X62692160Y-27637677D01*
X63000450Y-27699000D01*
X63694750Y-27699000D01*
X64003040Y-27637677D01*
X64264395Y-27463045D01*
X64415200Y-27237350D01*
X64415200Y-29280637D01*
X64350000Y-29267434D01*
X62650000Y-29267434D01*
X62518223Y-29292230D01*
X62397193Y-29370110D01*
X62315999Y-29488942D01*
X62287434Y-29630000D01*
X62287434Y-31330000D01*
X62312230Y-31461777D01*
X62390110Y-31582807D01*
X62508942Y-31664001D01*
X62650000Y-31692566D01*
X64350000Y-31692566D01*
X64415200Y-31680298D01*
X64415200Y-32665200D01*
X14324800Y-32665200D01*
X14324800Y-31171576D01*
X14423433Y-31319191D01*
X14798077Y-31569520D01*
X15240000Y-31657424D01*
X15681923Y-31569520D01*
X16056567Y-31319191D01*
X16306896Y-30944547D01*
X16394800Y-30502624D01*
X16394800Y-30457376D01*
X16625200Y-30457376D01*
X16625200Y-30502624D01*
X16713104Y-30944547D01*
X16963433Y-31319191D01*
X17338077Y-31569520D01*
X17780000Y-31657424D01*
X18221923Y-31569520D01*
X18596567Y-31319191D01*
X18846896Y-30944547D01*
X18934800Y-30502624D01*
X18934800Y-30457376D01*
X19165200Y-30457376D01*
X19165200Y-30502624D01*
X19253104Y-30944547D01*
X19503433Y-31319191D01*
X19878077Y-31569520D01*
X20320000Y-31657424D01*
X20761923Y-31569520D01*
X21136567Y-31319191D01*
X21386896Y-30944547D01*
X21474800Y-30502624D01*
X21474800Y-30457376D01*
X21705200Y-30457376D01*
X21705200Y-30502624D01*
X21793104Y-30944547D01*
X22043433Y-31319191D01*
X22418077Y-31569520D01*
X22860000Y-31657424D01*
X23301923Y-31569520D01*
X23676567Y-31319191D01*
X23926896Y-30944547D01*
X24014800Y-30502624D01*
X24014800Y-30457376D01*
X24245200Y-30457376D01*
X24245200Y-30502624D01*
X24333104Y-30944547D01*
X24583433Y-31319191D01*
X24958077Y-31569520D01*
X25400000Y-31657424D01*
X25841923Y-31569520D01*
X26216567Y-31319191D01*
X26466896Y-30944547D01*
X26554800Y-30502624D01*
X26554800Y-30457376D01*
X26785200Y-30457376D01*
X26785200Y-30502624D01*
X26873104Y-30944547D01*
X27123433Y-31319191D01*
X27498077Y-31569520D01*
X27940000Y-31657424D01*
X28381923Y-31569520D01*
X28756567Y-31319191D01*
X29006896Y-30944547D01*
X29094800Y-30502624D01*
X29094800Y-30457376D01*
X29325200Y-30457376D01*
X29325200Y-30502624D01*
X29413104Y-30944547D01*
X29663433Y-31319191D01*
X30038077Y-31569520D01*
X30480000Y-31657424D01*
X30921923Y-31569520D01*
X31296567Y-31319191D01*
X31546896Y-30944547D01*
X31634800Y-30502624D01*
X31634800Y-30457376D01*
X31865200Y-30457376D01*
X31865200Y-30502624D01*
X31953104Y-30944547D01*
X32203433Y-31319191D01*
X32578077Y-31569520D01*
X33020000Y-31657424D01*
X33461923Y-31569520D01*
X33836567Y-31319191D01*
X34086896Y-30944547D01*
X34135158Y-30701918D01*
X34166123Y-30695759D01*
X34297968Y-30607662D01*
X34405200Y-30500430D01*
X34405200Y-30502624D01*
X34493104Y-30944547D01*
X34743433Y-31319191D01*
X35118077Y-31569520D01*
X35560000Y-31657424D01*
X36001923Y-31569520D01*
X36376567Y-31319191D01*
X36626896Y-30944547D01*
X36714800Y-30502624D01*
X36714800Y-30457376D01*
X36631063Y-30036401D01*
X37028937Y-30036401D01*
X36945200Y-30457376D01*
X36945200Y-30502624D01*
X37033104Y-30944547D01*
X37283433Y-31319191D01*
X37658077Y-31569520D01*
X38100000Y-31657424D01*
X38541923Y-31569520D01*
X38916567Y-31319191D01*
X39166896Y-30944547D01*
X39254800Y-30502624D01*
X39254800Y-30457376D01*
X39171063Y-30036401D01*
X39568937Y-30036401D01*
X39485200Y-30457376D01*
X39485200Y-30502624D01*
X39573104Y-30944547D01*
X39823433Y-31319191D01*
X40198077Y-31569520D01*
X40640000Y-31657424D01*
X41081923Y-31569520D01*
X41456567Y-31319191D01*
X41706896Y-30944547D01*
X41794800Y-30502624D01*
X41794800Y-30457376D01*
X41706896Y-30015453D01*
X41456567Y-29640809D01*
X41081923Y-29390480D01*
X40982839Y-29370771D01*
X41227600Y-29370771D01*
X41340552Y-29349518D01*
X41351300Y-29342602D01*
X41356693Y-29346287D01*
X41477600Y-29370771D01*
X41727600Y-29370771D01*
X41840552Y-29349518D01*
X41851300Y-29342602D01*
X41856693Y-29346287D01*
X41977600Y-29370771D01*
X42227600Y-29370771D01*
X42340552Y-29349518D01*
X42351300Y-29342602D01*
X42356693Y-29346287D01*
X42477600Y-29370771D01*
X42727600Y-29370771D01*
X42840552Y-29349518D01*
X42851300Y-29342602D01*
X42856693Y-29346287D01*
X42908008Y-29356679D01*
X42738077Y-29390480D01*
X42363433Y-29640809D01*
X42113104Y-30015453D01*
X42025200Y-30457376D01*
X42025200Y-30502624D01*
X42113104Y-30944547D01*
X42363433Y-31319191D01*
X42738077Y-31569520D01*
X43180000Y-31657424D01*
X43621923Y-31569520D01*
X43996567Y-31319191D01*
X44246896Y-30944547D01*
X44334800Y-30502624D01*
X44334800Y-30457376D01*
X44565200Y-30457376D01*
X44565200Y-30502624D01*
X44653104Y-30944547D01*
X44903433Y-31319191D01*
X45278077Y-31569520D01*
X45720000Y-31657424D01*
X46161923Y-31569520D01*
X46536567Y-31319191D01*
X46786896Y-30944547D01*
X46874800Y-30502624D01*
X46874800Y-30457376D01*
X47105200Y-30457376D01*
X47105200Y-30502624D01*
X47193104Y-30944547D01*
X47443433Y-31319191D01*
X47818077Y-31569520D01*
X48260000Y-31657424D01*
X48701923Y-31569520D01*
X49076567Y-31319191D01*
X49326896Y-30944547D01*
X49414800Y-30502624D01*
X49414800Y-30457376D01*
X49645200Y-30457376D01*
X49645200Y-30502624D01*
X49733104Y-30944547D01*
X49983433Y-31319191D01*
X50358077Y-31569520D01*
X50800000Y-31657424D01*
X51241923Y-31569520D01*
X51616567Y-31319191D01*
X51866896Y-30944547D01*
X51954800Y-30502624D01*
X51954800Y-30457376D01*
X52185200Y-30457376D01*
X52185200Y-30502624D01*
X52273104Y-30944547D01*
X52523433Y-31319191D01*
X52898077Y-31569520D01*
X53340000Y-31657424D01*
X53781923Y-31569520D01*
X54156567Y-31319191D01*
X54406896Y-30944547D01*
X54494800Y-30502624D01*
X54494800Y-30457376D01*
X54725200Y-30457376D01*
X54725200Y-30502624D01*
X54813104Y-30944547D01*
X55063433Y-31319191D01*
X55438077Y-31569520D01*
X55880000Y-31657424D01*
X56321923Y-31569520D01*
X56696567Y-31319191D01*
X56946896Y-30944547D01*
X56986007Y-30747921D01*
X57296700Y-30747921D01*
X57484735Y-31157395D01*
X57815156Y-31463742D01*
X58152080Y-31603291D01*
X58331100Y-31554930D01*
X58331100Y-30568900D01*
X58508900Y-30568900D01*
X58508900Y-31554930D01*
X58687920Y-31603291D01*
X59024844Y-31463742D01*
X59355265Y-31157395D01*
X59543300Y-30747921D01*
X59495182Y-30568900D01*
X58508900Y-30568900D01*
X58331100Y-30568900D01*
X57344818Y-30568900D01*
X57296700Y-30747921D01*
X56986007Y-30747921D01*
X57034800Y-30502624D01*
X57034800Y-30457376D01*
X57034603Y-30456381D01*
X59754400Y-30456381D01*
X59754400Y-30503619D01*
X59846171Y-30964982D01*
X60107512Y-31356107D01*
X60498637Y-31617448D01*
X60960000Y-31709219D01*
X61421363Y-31617448D01*
X61812488Y-31356107D01*
X62073829Y-30964982D01*
X62165600Y-30503619D01*
X62165600Y-30456381D01*
X62073829Y-29995018D01*
X61812488Y-29603893D01*
X61421363Y-29342552D01*
X60960000Y-29250781D01*
X60498637Y-29342552D01*
X60107512Y-29603893D01*
X59846171Y-29995018D01*
X59754400Y-30456381D01*
X57034603Y-30456381D01*
X56986008Y-30212079D01*
X57296700Y-30212079D01*
X57344818Y-30391100D01*
X58331100Y-30391100D01*
X58331100Y-29405070D01*
X58508900Y-29405070D01*
X58508900Y-30391100D01*
X59495182Y-30391100D01*
X59543300Y-30212079D01*
X59355265Y-29802605D01*
X59024844Y-29496258D01*
X58687920Y-29356709D01*
X58508900Y-29405070D01*
X58331100Y-29405070D01*
X58152080Y-29356709D01*
X57815156Y-29496258D01*
X57484735Y-29802605D01*
X57296700Y-30212079D01*
X56986008Y-30212079D01*
X56946896Y-30015453D01*
X56696567Y-29640809D01*
X56321923Y-29390480D01*
X55880000Y-29302576D01*
X55778400Y-29322786D01*
X55778400Y-28511500D01*
X57007200Y-28511500D01*
X57007200Y-29007029D01*
X57053603Y-29119056D01*
X57139345Y-29204797D01*
X57251372Y-29251200D01*
X57746900Y-29251200D01*
X57823100Y-29175000D01*
X57823100Y-28435300D01*
X57083400Y-28435300D01*
X57007200Y-28511500D01*
X55778400Y-28511500D01*
X55778400Y-27685771D01*
X57007200Y-27685771D01*
X57007200Y-28181300D01*
X57083400Y-28257500D01*
X57823100Y-28257500D01*
X57823100Y-27517800D01*
X58000900Y-27517800D01*
X58000900Y-28257500D01*
X58020900Y-28257500D01*
X58020900Y-28435300D01*
X58000900Y-28435300D01*
X58000900Y-29175000D01*
X58077100Y-29251200D01*
X58572628Y-29251200D01*
X58684655Y-29204797D01*
X58770397Y-29119056D01*
X58816800Y-29007029D01*
X58816800Y-28861397D01*
X58829035Y-28873653D01*
X59057674Y-28968592D01*
X59205429Y-28968721D01*
X59222482Y-29059352D01*
X59289237Y-29163092D01*
X59391093Y-29232687D01*
X59512000Y-29257171D01*
X60712000Y-29257171D01*
X60824952Y-29235918D01*
X60928692Y-29169163D01*
X60998287Y-29067307D01*
X61022771Y-28946400D01*
X61022771Y-27746400D01*
X61001518Y-27633448D01*
X60934763Y-27529708D01*
X60832907Y-27460113D01*
X60712000Y-27435629D01*
X59512000Y-27435629D01*
X59399048Y-27456882D01*
X59295308Y-27523637D01*
X59225713Y-27625493D01*
X59205741Y-27724120D01*
X59058760Y-27723992D01*
X58829956Y-27818532D01*
X58816800Y-27831665D01*
X58816800Y-27685771D01*
X58770397Y-27573744D01*
X58684655Y-27488003D01*
X58572628Y-27441600D01*
X58077100Y-27441600D01*
X58000900Y-27517800D01*
X57823100Y-27517800D01*
X57746900Y-27441600D01*
X57251372Y-27441600D01*
X57139345Y-27488003D01*
X57053603Y-27573744D01*
X57007200Y-27685771D01*
X55778400Y-27685771D01*
X55778400Y-26000607D01*
X55899253Y-25879965D01*
X55994192Y-25651326D01*
X55994408Y-25403760D01*
X55899868Y-25174956D01*
X55724965Y-24999747D01*
X55496326Y-24904808D01*
X55248760Y-24904592D01*
X55019956Y-24999132D01*
X54844747Y-25174035D01*
X54749808Y-25402674D01*
X54749592Y-25650240D01*
X54844132Y-25879044D01*
X54965600Y-26000725D01*
X54965600Y-29787227D01*
X54813104Y-30015453D01*
X54725200Y-30457376D01*
X54494800Y-30457376D01*
X54406896Y-30015453D01*
X54156567Y-29640809D01*
X53781923Y-29390480D01*
X53340000Y-29302576D01*
X52898077Y-29390480D01*
X52523433Y-29640809D01*
X52273104Y-30015453D01*
X52185200Y-30457376D01*
X51954800Y-30457376D01*
X51866896Y-30015453D01*
X51616567Y-29640809D01*
X51241923Y-29390480D01*
X50800000Y-29302576D01*
X50358077Y-29390480D01*
X49983433Y-29640809D01*
X49733104Y-30015453D01*
X49645200Y-30457376D01*
X49414800Y-30457376D01*
X49326896Y-30015453D01*
X49076567Y-29640809D01*
X48701923Y-29390480D01*
X48260000Y-29302576D01*
X47818077Y-29390480D01*
X47443433Y-29640809D01*
X47193104Y-30015453D01*
X47105200Y-30457376D01*
X46874800Y-30457376D01*
X46786896Y-30015453D01*
X46536567Y-29640809D01*
X46161923Y-29390480D01*
X45720000Y-29302576D01*
X45278077Y-29390480D01*
X44903433Y-29640809D01*
X44653104Y-30015453D01*
X44565200Y-30457376D01*
X44334800Y-30457376D01*
X44246896Y-30015453D01*
X43996567Y-29640809D01*
X43621923Y-29390480D01*
X43468698Y-29360002D01*
X43540100Y-29288600D01*
X43540100Y-28648900D01*
X43665100Y-28648900D01*
X43665100Y-29288600D01*
X43741300Y-29364800D01*
X43788229Y-29364800D01*
X43900256Y-29318397D01*
X43985997Y-29232655D01*
X44032400Y-29120628D01*
X44032400Y-28725100D01*
X43956200Y-28648900D01*
X43665100Y-28648900D01*
X43540100Y-28648900D01*
X43538371Y-28648900D01*
X43538371Y-28471100D01*
X43540100Y-28471100D01*
X43540100Y-27831400D01*
X43665100Y-27831400D01*
X43665100Y-28471100D01*
X43956200Y-28471100D01*
X44032400Y-28394900D01*
X44032400Y-27999372D01*
X43985997Y-27887345D01*
X43900256Y-27801603D01*
X43788229Y-27755200D01*
X43741300Y-27755200D01*
X43665100Y-27831400D01*
X43540100Y-27831400D01*
X43509000Y-27800300D01*
X43509000Y-27282376D01*
X49645200Y-27282376D01*
X49645200Y-27327624D01*
X49733104Y-27769547D01*
X49983433Y-28144191D01*
X50358077Y-28394520D01*
X50800000Y-28482424D01*
X51241923Y-28394520D01*
X51616567Y-28144191D01*
X51866896Y-27769547D01*
X51906007Y-27572921D01*
X52216700Y-27572921D01*
X52404735Y-27982395D01*
X52735156Y-28288742D01*
X53072080Y-28428291D01*
X53251100Y-28379930D01*
X53251100Y-27393900D01*
X53428900Y-27393900D01*
X53428900Y-28379930D01*
X53607920Y-28428291D01*
X53944844Y-28288742D01*
X54275265Y-27982395D01*
X54463300Y-27572921D01*
X54415182Y-27393900D01*
X53428900Y-27393900D01*
X53251100Y-27393900D01*
X52264818Y-27393900D01*
X52216700Y-27572921D01*
X51906007Y-27572921D01*
X51954800Y-27327624D01*
X51954800Y-27282376D01*
X51906008Y-27037079D01*
X52216700Y-27037079D01*
X52264818Y-27216100D01*
X53251100Y-27216100D01*
X53251100Y-26230070D01*
X53428900Y-26230070D01*
X53428900Y-27216100D01*
X54415182Y-27216100D01*
X54463300Y-27037079D01*
X54275265Y-26627605D01*
X53944844Y-26321258D01*
X53607920Y-26181709D01*
X53428900Y-26230070D01*
X53251100Y-26230070D01*
X53072080Y-26181709D01*
X52735156Y-26321258D01*
X52404735Y-26627605D01*
X52216700Y-27037079D01*
X51906008Y-27037079D01*
X51866896Y-26840453D01*
X51616567Y-26465809D01*
X51241923Y-26215480D01*
X50800000Y-26127576D01*
X50358077Y-26215480D01*
X49983433Y-26465809D01*
X49733104Y-26840453D01*
X49645200Y-27282376D01*
X43509000Y-27282376D01*
X43509000Y-27256326D01*
X43658563Y-27107024D01*
X43753502Y-26878385D01*
X43753718Y-26630819D01*
X43659178Y-26402015D01*
X43484275Y-26226806D01*
X43255636Y-26131867D01*
X43008070Y-26131651D01*
X42779266Y-26226191D01*
X42680507Y-26324778D01*
X42641305Y-26285507D01*
X42412666Y-26190568D01*
X42165100Y-26190352D01*
X42030197Y-26246093D01*
X42015908Y-26211511D01*
X41841005Y-26036302D01*
X41612366Y-25941363D01*
X41364800Y-25941147D01*
X41139154Y-26034382D01*
X41913277Y-25260259D01*
X42084040Y-25260408D01*
X42312844Y-25165868D01*
X42488053Y-24990965D01*
X42582992Y-24762326D01*
X42583208Y-24514760D01*
X42488668Y-24285956D01*
X42313765Y-24110747D01*
X42085126Y-24015808D01*
X41837560Y-24015592D01*
X41608756Y-24110132D01*
X41433547Y-24285035D01*
X41338608Y-24513674D01*
X41338458Y-24685606D01*
X40225632Y-25798432D01*
X40137535Y-25930277D01*
X40106600Y-26085800D01*
X40106600Y-26279461D01*
X40063753Y-26279461D01*
X39943111Y-26158608D01*
X39714472Y-26063669D01*
X39466906Y-26063453D01*
X39238102Y-26157993D01*
X39062893Y-26332896D01*
X38986941Y-26515810D01*
X38960926Y-26505008D01*
X38713360Y-26504792D01*
X38484556Y-26599332D01*
X38309347Y-26774235D01*
X38214408Y-27002874D01*
X38214192Y-27250440D01*
X38308732Y-27479244D01*
X38430200Y-27600925D01*
X38430200Y-27686000D01*
X38444033Y-27755545D01*
X38364648Y-27770482D01*
X38353900Y-27777398D01*
X38348507Y-27773713D01*
X38227600Y-27749229D01*
X37977600Y-27749229D01*
X37864648Y-27770482D01*
X37853900Y-27777398D01*
X37848507Y-27773713D01*
X37727600Y-27749229D01*
X37477600Y-27749229D01*
X37364648Y-27770482D01*
X37349169Y-27780442D01*
X37288229Y-27755200D01*
X37241300Y-27755200D01*
X37165100Y-27831400D01*
X37165100Y-28471100D01*
X37166829Y-28471100D01*
X37166829Y-28648900D01*
X37165100Y-28648900D01*
X37165100Y-28668900D01*
X37090166Y-28668900D01*
X37090166Y-28060000D01*
X37065370Y-27928223D01*
X37059800Y-27919567D01*
X37059800Y-27856800D01*
X37024998Y-27681837D01*
X36925889Y-27533511D01*
X36787540Y-27395162D01*
X36689759Y-27158515D01*
X36500578Y-26969004D01*
X36253275Y-26866315D01*
X35985499Y-26866081D01*
X35738017Y-26968339D01*
X35548506Y-27157520D01*
X35445817Y-27404823D01*
X35445583Y-27672599D01*
X35547841Y-27920081D01*
X35670318Y-28042771D01*
X35666829Y-28060000D01*
X35666829Y-28174300D01*
X35615371Y-28184535D01*
X35497642Y-28263200D01*
X35483526Y-28272632D01*
X33948231Y-29807927D01*
X33836567Y-29640809D01*
X33461923Y-29390480D01*
X33020000Y-29302576D01*
X32578077Y-29390480D01*
X32203433Y-29640809D01*
X31953104Y-30015453D01*
X31865200Y-30457376D01*
X31634800Y-30457376D01*
X31546896Y-30015453D01*
X31296567Y-29640809D01*
X30921923Y-29390480D01*
X30480000Y-29302576D01*
X30038077Y-29390480D01*
X29663433Y-29640809D01*
X29413104Y-30015453D01*
X29325200Y-30457376D01*
X29094800Y-30457376D01*
X29006896Y-30015453D01*
X28756567Y-29640809D01*
X28381923Y-29390480D01*
X27940000Y-29302576D01*
X27498077Y-29390480D01*
X27123433Y-29640809D01*
X26873104Y-30015453D01*
X26785200Y-30457376D01*
X26554800Y-30457376D01*
X26466896Y-30015453D01*
X26216567Y-29640809D01*
X25841923Y-29390480D01*
X25400000Y-29302576D01*
X24958077Y-29390480D01*
X24583433Y-29640809D01*
X24333104Y-30015453D01*
X24245200Y-30457376D01*
X24014800Y-30457376D01*
X23926896Y-30015453D01*
X23676567Y-29640809D01*
X23301923Y-29390480D01*
X22860000Y-29302576D01*
X22418077Y-29390480D01*
X22043433Y-29640809D01*
X21793104Y-30015453D01*
X21705200Y-30457376D01*
X21474800Y-30457376D01*
X21386896Y-30015453D01*
X21136567Y-29640809D01*
X20761923Y-29390480D01*
X20320000Y-29302576D01*
X19878077Y-29390480D01*
X19503433Y-29640809D01*
X19253104Y-30015453D01*
X19165200Y-30457376D01*
X18934800Y-30457376D01*
X18846896Y-30015453D01*
X18596567Y-29640809D01*
X18221923Y-29390480D01*
X17780000Y-29302576D01*
X17338077Y-29390480D01*
X16963433Y-29640809D01*
X16713104Y-30015453D01*
X16625200Y-30457376D01*
X16394800Y-30457376D01*
X16306896Y-30015453D01*
X16295836Y-29998900D01*
X16732969Y-29561767D01*
X16821066Y-29429922D01*
X16852001Y-29274399D01*
X16852001Y-28105100D01*
X16961200Y-28105100D01*
X16961200Y-28600629D01*
X17007603Y-28712656D01*
X17093345Y-28798397D01*
X17205372Y-28844800D01*
X17700900Y-28844800D01*
X17777100Y-28768600D01*
X17777100Y-28028900D01*
X17954900Y-28028900D01*
X17954900Y-28768600D01*
X18031100Y-28844800D01*
X18526628Y-28844800D01*
X18638655Y-28798397D01*
X18724397Y-28712656D01*
X18770800Y-28600629D01*
X18770800Y-28105100D01*
X18694600Y-28028900D01*
X17954900Y-28028900D01*
X17777100Y-28028900D01*
X17037400Y-28028900D01*
X16961200Y-28105100D01*
X16852001Y-28105100D01*
X16852001Y-27307609D01*
X16880239Y-27279371D01*
X16961200Y-27279371D01*
X16961200Y-27774900D01*
X17037400Y-27851100D01*
X17777100Y-27851100D01*
X17777100Y-27111400D01*
X17954900Y-27111400D01*
X17954900Y-27851100D01*
X18694600Y-27851100D01*
X18770800Y-27774900D01*
X18770800Y-27524925D01*
X18824035Y-27578253D01*
X19052674Y-27673192D01*
X19155229Y-27673281D01*
X19155229Y-28540000D01*
X19176482Y-28652952D01*
X19243237Y-28756692D01*
X19345093Y-28826287D01*
X19466000Y-28850771D01*
X20666000Y-28850771D01*
X20778952Y-28829518D01*
X20882692Y-28762763D01*
X20952287Y-28660907D01*
X20976771Y-28540000D01*
X20976771Y-27457542D01*
X20982212Y-27430187D01*
X20976771Y-27402832D01*
X20976771Y-27340000D01*
X20955518Y-27227048D01*
X20888763Y-27123308D01*
X20786907Y-27053713D01*
X20666000Y-27029229D01*
X20603168Y-27029229D01*
X20575813Y-27023788D01*
X20548458Y-27029229D01*
X20288140Y-27029229D01*
X20142200Y-27000201D01*
X19996260Y-27029229D01*
X19799319Y-27029229D01*
X19799408Y-26927760D01*
X19704868Y-26698956D01*
X19529965Y-26523747D01*
X19301326Y-26428808D01*
X19053760Y-26428592D01*
X18824956Y-26523132D01*
X18649747Y-26698035D01*
X18554808Y-26926674D01*
X18554703Y-27046829D01*
X18526628Y-27035200D01*
X18031100Y-27035200D01*
X17954900Y-27111400D01*
X17777100Y-27111400D01*
X17700900Y-27035200D01*
X17205372Y-27035200D01*
X17093345Y-27081603D01*
X17007603Y-27167344D01*
X16961200Y-27279371D01*
X16880239Y-27279371D01*
X18129522Y-26030088D01*
X19054134Y-26030088D01*
X19205035Y-26181253D01*
X19433674Y-26276192D01*
X19681240Y-26276408D01*
X19910044Y-26181868D01*
X20085253Y-26006965D01*
X20180192Y-25778326D01*
X20180346Y-25601800D01*
X21345229Y-25601800D01*
X21345229Y-26901800D01*
X21366482Y-27014752D01*
X21433237Y-27118492D01*
X21535093Y-27188087D01*
X21562086Y-27193553D01*
X21561952Y-27346960D01*
X21656492Y-27575764D01*
X21831395Y-27750973D01*
X22060034Y-27845912D01*
X22307600Y-27846128D01*
X22536404Y-27751588D01*
X22711613Y-27576685D01*
X22806552Y-27348046D01*
X22806670Y-27212571D01*
X23556000Y-27212571D01*
X23668952Y-27191318D01*
X23772692Y-27124563D01*
X23842287Y-27022707D01*
X23866771Y-26901800D01*
X23866771Y-26437640D01*
X23888592Y-26437640D01*
X23983132Y-26666444D01*
X24158035Y-26841653D01*
X24386674Y-26936592D01*
X24551803Y-26936736D01*
X24566482Y-27014752D01*
X24633237Y-27118492D01*
X24735093Y-27188087D01*
X24856000Y-27212571D01*
X25590514Y-27212571D01*
X25590392Y-27352040D01*
X25684932Y-27580844D01*
X25859835Y-27756053D01*
X26088474Y-27850992D01*
X26336040Y-27851208D01*
X26564844Y-27756668D01*
X26740053Y-27581765D01*
X26834992Y-27353126D01*
X26835128Y-27197682D01*
X26868952Y-27191318D01*
X26972692Y-27124563D01*
X27042287Y-27022707D01*
X27066771Y-26901800D01*
X27066771Y-25601800D01*
X27053768Y-25532692D01*
X28586817Y-25532692D01*
X28747062Y-25920516D01*
X29043524Y-26217495D01*
X29431067Y-26378417D01*
X29850692Y-26378783D01*
X30238516Y-26218538D01*
X30535495Y-25922076D01*
X30696417Y-25534533D01*
X30696783Y-25114908D01*
X30536538Y-24727084D01*
X30240076Y-24430105D01*
X29852533Y-24269183D01*
X29432908Y-24268817D01*
X29045084Y-24429062D01*
X28748105Y-24725524D01*
X28587183Y-25113067D01*
X28586817Y-25532692D01*
X27053768Y-25532692D01*
X27045518Y-25488848D01*
X26978763Y-25385108D01*
X26876907Y-25315513D01*
X26756000Y-25291029D01*
X24856000Y-25291029D01*
X24743048Y-25312282D01*
X24639308Y-25379037D01*
X24569713Y-25480893D01*
X24545229Y-25601800D01*
X24545229Y-25692129D01*
X24387760Y-25691992D01*
X24158956Y-25786532D01*
X23983747Y-25961435D01*
X23888808Y-26190074D01*
X23888592Y-26437640D01*
X23866771Y-26437640D01*
X23866771Y-25601800D01*
X23845518Y-25488848D01*
X23778763Y-25385108D01*
X23676907Y-25315513D01*
X23556000Y-25291029D01*
X21656000Y-25291029D01*
X21543048Y-25312282D01*
X21439308Y-25379037D01*
X21369713Y-25480893D01*
X21345229Y-25601800D01*
X20180346Y-25601800D01*
X20180408Y-25530760D01*
X20085868Y-25301956D01*
X19910965Y-25126747D01*
X19682326Y-25031808D01*
X19434760Y-25031592D01*
X19205956Y-25126132D01*
X19114641Y-25217288D01*
X17961186Y-25217288D01*
X17805663Y-25248223D01*
X17725247Y-25301956D01*
X17673818Y-25336320D01*
X16452566Y-26557572D01*
X16452566Y-25820000D01*
X16427770Y-25688223D01*
X16357600Y-25579175D01*
X16357600Y-24430755D01*
X16417424Y-24130000D01*
X16357600Y-23829245D01*
X16357600Y-23444200D01*
X19516193Y-23444200D01*
X19636835Y-23565053D01*
X19865474Y-23659992D01*
X20113040Y-23660208D01*
X20341844Y-23565668D01*
X20517053Y-23390765D01*
X20517520Y-23389640D01*
X22821792Y-23389640D01*
X22916332Y-23618444D01*
X23091235Y-23793653D01*
X23319874Y-23888592D01*
X23567440Y-23888808D01*
X23796244Y-23794268D01*
X23888708Y-23701966D01*
X23980235Y-23793653D01*
X24208874Y-23888592D01*
X24456440Y-23888808D01*
X24685244Y-23794268D01*
X24860453Y-23619365D01*
X24955392Y-23390726D01*
X24955542Y-23218794D01*
X24968236Y-23206100D01*
X24968098Y-23364240D01*
X25062638Y-23593044D01*
X25237541Y-23768253D01*
X25466180Y-23863192D01*
X25713746Y-23863408D01*
X25942550Y-23768868D01*
X26041362Y-23670228D01*
X26128421Y-23757439D01*
X26357060Y-23852378D01*
X26604626Y-23852594D01*
X26833430Y-23758054D01*
X26961260Y-23630447D01*
X27085921Y-23605651D01*
X27217766Y-23517554D01*
X27403089Y-23332231D01*
X27636121Y-23332230D01*
X27761439Y-23307303D01*
X27842522Y-23503538D01*
X28017425Y-23678747D01*
X28246064Y-23773686D01*
X28493630Y-23773902D01*
X28722434Y-23679362D01*
X28767173Y-23634701D01*
X29425555Y-23634701D01*
X29489398Y-23647400D01*
X31203590Y-23647400D01*
X32934159Y-25377969D01*
X33034949Y-25445315D01*
X32280175Y-26200089D01*
X30825754Y-26200090D01*
X30670231Y-26231025D01*
X30538386Y-26319122D01*
X30225609Y-26631899D01*
X29426046Y-26631899D01*
X29270523Y-26662834D01*
X29138678Y-26750931D01*
X28903553Y-26986056D01*
X28732790Y-26985907D01*
X28503986Y-27080447D01*
X28328777Y-27255350D01*
X28233838Y-27483989D01*
X28233622Y-27731555D01*
X28328162Y-27960359D01*
X28503065Y-28135568D01*
X28731704Y-28230507D01*
X28979270Y-28230723D01*
X29208074Y-28136183D01*
X29357389Y-27987129D01*
X29367932Y-28012644D01*
X29542835Y-28187853D01*
X29771474Y-28282792D01*
X30019040Y-28283008D01*
X30247844Y-28188468D01*
X30375280Y-28061254D01*
X30501917Y-28036065D01*
X30633762Y-27947968D01*
X30715097Y-27866633D01*
X30764932Y-27987244D01*
X30939835Y-28162453D01*
X31168474Y-28257392D01*
X31416040Y-28257608D01*
X31644844Y-28163068D01*
X31766525Y-28041600D01*
X32752400Y-28041600D01*
X32907923Y-28010665D01*
X33039768Y-27922568D01*
X33916565Y-27045771D01*
X34652600Y-27045771D01*
X34765552Y-27024518D01*
X34869292Y-26957763D01*
X34938887Y-26855907D01*
X34963371Y-26735000D01*
X34963371Y-26485000D01*
X34942118Y-26372048D01*
X34935202Y-26361300D01*
X34938887Y-26355907D01*
X34963371Y-26235000D01*
X34963371Y-25985442D01*
X35041241Y-26017776D01*
X35288807Y-26017992D01*
X35517611Y-25923452D01*
X35692820Y-25748549D01*
X35787759Y-25519910D01*
X35787975Y-25272344D01*
X35693435Y-25043540D01*
X35635423Y-24985427D01*
X35731653Y-24889365D01*
X35826592Y-24660726D01*
X35826808Y-24413160D01*
X35732268Y-24184356D01*
X35557365Y-24009147D01*
X35328726Y-23914208D01*
X35081160Y-23913992D01*
X34959471Y-23964273D01*
X34942118Y-23872048D01*
X34935202Y-23861300D01*
X34938887Y-23855907D01*
X34963371Y-23735000D01*
X34963371Y-23485000D01*
X34942118Y-23372048D01*
X34935202Y-23361300D01*
X34938887Y-23355907D01*
X34963371Y-23235000D01*
X34963371Y-22985000D01*
X34942118Y-22872048D01*
X34935202Y-22861300D01*
X34938887Y-22855907D01*
X34963371Y-22735000D01*
X34963371Y-22495003D01*
X35011323Y-22485465D01*
X35143168Y-22397368D01*
X35454898Y-22085638D01*
X35480289Y-22047638D01*
X35542995Y-21953793D01*
X35573930Y-21798270D01*
X35573930Y-21339717D01*
X35694783Y-21219075D01*
X35789722Y-20990436D01*
X35789938Y-20742870D01*
X35695398Y-20514066D01*
X35520495Y-20338857D01*
X35291856Y-20243918D01*
X35044290Y-20243702D01*
X34954059Y-20280985D01*
X34963371Y-20235000D01*
X34963371Y-19985000D01*
X34942118Y-19872048D01*
X34935202Y-19861300D01*
X34938887Y-19855907D01*
X34963371Y-19735000D01*
X34963371Y-19485000D01*
X34942118Y-19372048D01*
X34935202Y-19361300D01*
X34938887Y-19355907D01*
X34963371Y-19235000D01*
X34963371Y-18985000D01*
X34942118Y-18872048D01*
X34875363Y-18768308D01*
X34773507Y-18698713D01*
X34652600Y-18674229D01*
X33652600Y-18674229D01*
X33539648Y-18695482D01*
X33527032Y-18703600D01*
X31800536Y-18703600D01*
X31681768Y-18584832D01*
X31680327Y-18583869D01*
X31549923Y-18496735D01*
X31394400Y-18465800D01*
X28346400Y-18465800D01*
X28190877Y-18496735D01*
X28059032Y-18584832D01*
X26890632Y-19753232D01*
X26852341Y-19810538D01*
X26756000Y-19791029D01*
X24856000Y-19791029D01*
X24743048Y-19812282D01*
X24639308Y-19879037D01*
X24569713Y-19980893D01*
X24545229Y-20101800D01*
X24545229Y-21401800D01*
X24566482Y-21514752D01*
X24586105Y-21545247D01*
X23626732Y-22504620D01*
X23617646Y-22518218D01*
X23491723Y-22644141D01*
X23320960Y-22643992D01*
X23092156Y-22738532D01*
X22916947Y-22913435D01*
X22822008Y-23142074D01*
X22821792Y-23389640D01*
X20517520Y-23389640D01*
X20611992Y-23162126D01*
X20612208Y-22914560D01*
X20596612Y-22876816D01*
X20773644Y-22803668D01*
X20948853Y-22628765D01*
X21043792Y-22400126D01*
X21044008Y-22152560D01*
X20949468Y-21923756D01*
X20774565Y-21748547D01*
X20545926Y-21653608D01*
X20298360Y-21653392D01*
X20069556Y-21747932D01*
X19947875Y-21869400D01*
X17340766Y-21869400D01*
X16773998Y-21302632D01*
X16755665Y-21290382D01*
X16642153Y-21214535D01*
X16486630Y-21183600D01*
X16357600Y-21183600D01*
X16357600Y-19331660D01*
X16363291Y-19317920D01*
X16357600Y-19296853D01*
X16357600Y-18891200D01*
X17616629Y-18891200D01*
X17616629Y-19951200D01*
X17637882Y-20064152D01*
X17704637Y-20167892D01*
X17806493Y-20237487D01*
X17927400Y-20261971D01*
X18577400Y-20261971D01*
X18690352Y-20240718D01*
X18794092Y-20173963D01*
X18863687Y-20072107D01*
X18888171Y-19951200D01*
X18888171Y-18891200D01*
X18866918Y-18778248D01*
X18800163Y-18674508D01*
X18698307Y-18604913D01*
X18577400Y-18580429D01*
X17927400Y-18580429D01*
X17814448Y-18601682D01*
X17710708Y-18668437D01*
X17641113Y-18770293D01*
X17616629Y-18891200D01*
X16357600Y-18891200D01*
X16357600Y-18803147D01*
X16363291Y-18782080D01*
X16357600Y-18768340D01*
X16357600Y-17780000D01*
X16350652Y-17743073D01*
X16328828Y-17709157D01*
X16295528Y-17686405D01*
X16256000Y-17678400D01*
X14324800Y-17678400D01*
X14324800Y-16387568D01*
X14390000Y-16400771D01*
X16090000Y-16400771D01*
X16161448Y-16387327D01*
X16200310Y-16445488D01*
X17299311Y-17544489D01*
X17447637Y-17643598D01*
X17616629Y-17677212D01*
X17616629Y-17751200D01*
X17637882Y-17864152D01*
X17704637Y-17967892D01*
X17806493Y-18037487D01*
X17927400Y-18061971D01*
X18577400Y-18061971D01*
X18690352Y-18040718D01*
X18726849Y-18017232D01*
X18756493Y-18037487D01*
X18814879Y-18049310D01*
X18826935Y-18109923D01*
X18894898Y-18211636D01*
X18915032Y-18241768D01*
X19067433Y-18394170D01*
X19199279Y-18482267D01*
X19354801Y-18513201D01*
X19789815Y-18513201D01*
X19776935Y-18532477D01*
X19765064Y-18592158D01*
X19714448Y-18601682D01*
X19610708Y-18668437D01*
X19541113Y-18770293D01*
X19516629Y-18891200D01*
X19516629Y-19198489D01*
X19471735Y-19265677D01*
X19466811Y-19290434D01*
X19388184Y-19290365D01*
X19159380Y-19384905D01*
X18984171Y-19559808D01*
X18889232Y-19788447D01*
X18889016Y-20036013D01*
X18983556Y-20264817D01*
X19158459Y-20440026D01*
X19387098Y-20534965D01*
X19634664Y-20535181D01*
X19863468Y-20440641D01*
X20038677Y-20265738D01*
X20040241Y-20261971D01*
X20477400Y-20261971D01*
X20590352Y-20240718D01*
X20694092Y-20173963D01*
X20743398Y-20101800D01*
X21345229Y-20101800D01*
X21345229Y-21401800D01*
X21366482Y-21514752D01*
X21433237Y-21618492D01*
X21535093Y-21688087D01*
X21656000Y-21712571D01*
X23556000Y-21712571D01*
X23668952Y-21691318D01*
X23772692Y-21624563D01*
X23842287Y-21522707D01*
X23866771Y-21401800D01*
X23866771Y-20101800D01*
X23845518Y-19988848D01*
X23778763Y-19885108D01*
X23676907Y-19815513D01*
X23556000Y-19791029D01*
X21656000Y-19791029D01*
X21543048Y-19812282D01*
X21439308Y-19879037D01*
X21369713Y-19980893D01*
X21345229Y-20101800D01*
X20743398Y-20101800D01*
X20763687Y-20072107D01*
X20788171Y-19951200D01*
X20788171Y-18919611D01*
X23631087Y-18919611D01*
X23631084Y-18922748D01*
X23725624Y-19151552D01*
X23900527Y-19326761D01*
X24129166Y-19421700D01*
X24376732Y-19421916D01*
X24605536Y-19327376D01*
X24780745Y-19152473D01*
X24821777Y-19053656D01*
X24996274Y-19126113D01*
X25243840Y-19126329D01*
X25472644Y-19031789D01*
X25647853Y-18856886D01*
X25742792Y-18628247D01*
X25743008Y-18380681D01*
X25648468Y-18151877D01*
X25473565Y-17976668D01*
X25244926Y-17881729D01*
X25072994Y-17881579D01*
X25010848Y-17819433D01*
X24998125Y-17810932D01*
X24879003Y-17731336D01*
X24723480Y-17700401D01*
X20788171Y-17700401D01*
X20788171Y-17145077D01*
X20836816Y-17145119D01*
X21088967Y-17040932D01*
X21282054Y-16848182D01*
X21386681Y-16596213D01*
X21386919Y-16323384D01*
X21282732Y-16071233D01*
X21198359Y-15986713D01*
X21386896Y-15704547D01*
X21474800Y-15262624D01*
X21474800Y-15217376D01*
X21386896Y-14775453D01*
X21163287Y-14440799D01*
X22016713Y-14440799D01*
X21793104Y-14775453D01*
X21705200Y-15217376D01*
X21705200Y-15262624D01*
X21793104Y-15704547D01*
X22043433Y-16079191D01*
X22418077Y-16329520D01*
X22860000Y-16417424D01*
X23301923Y-16329520D01*
X23676567Y-16079191D01*
X23926896Y-15704547D01*
X24014800Y-15262624D01*
X24014800Y-15217376D01*
X23988600Y-15085659D01*
X23992987Y-15087481D01*
X24265816Y-15087719D01*
X24271454Y-15085390D01*
X24245200Y-15217376D01*
X24245200Y-15262624D01*
X24333104Y-15704547D01*
X24583433Y-16079191D01*
X24958077Y-16329520D01*
X25400000Y-16417424D01*
X25841923Y-16329520D01*
X25885600Y-16300336D01*
X26046981Y-16461717D01*
X26046788Y-16683236D01*
X26141328Y-16912040D01*
X26316231Y-17087249D01*
X26544870Y-17182188D01*
X26792436Y-17182404D01*
X27021240Y-17087864D01*
X27196449Y-16912961D01*
X27291388Y-16684322D01*
X27291462Y-16599372D01*
X35672800Y-16599372D01*
X35672800Y-16994900D01*
X35749000Y-17071100D01*
X36040100Y-17071100D01*
X36040100Y-16431400D01*
X35963900Y-16355200D01*
X35916971Y-16355200D01*
X35804944Y-16401603D01*
X35719203Y-16487345D01*
X35672800Y-16599372D01*
X27291462Y-16599372D01*
X27291604Y-16436756D01*
X27197064Y-16207952D01*
X27022161Y-16032743D01*
X26793522Y-15937804D01*
X26672434Y-15937698D01*
X26455836Y-15721100D01*
X26466896Y-15704547D01*
X26554800Y-15262624D01*
X26554800Y-15217376D01*
X26785200Y-15217376D01*
X26785200Y-15262624D01*
X26873104Y-15704547D01*
X27123433Y-16079191D01*
X27498077Y-16329520D01*
X27940000Y-16417424D01*
X28381923Y-16329520D01*
X28756567Y-16079191D01*
X29006896Y-15704547D01*
X29094800Y-15262624D01*
X29094800Y-15217376D01*
X29325200Y-15217376D01*
X29325200Y-15262624D01*
X29413104Y-15704547D01*
X29663433Y-16079191D01*
X30038077Y-16329520D01*
X30480000Y-16417424D01*
X30921923Y-16329520D01*
X31296567Y-16079191D01*
X31546896Y-15704547D01*
X31634800Y-15262624D01*
X31634800Y-15217376D01*
X31865200Y-15217376D01*
X31865200Y-15262624D01*
X31953104Y-15704547D01*
X32203433Y-16079191D01*
X32578077Y-16329520D01*
X33020000Y-16417424D01*
X33461923Y-16329520D01*
X33836567Y-16079191D01*
X34086896Y-15704547D01*
X34174800Y-15262624D01*
X34174800Y-15217376D01*
X34405200Y-15217376D01*
X34405200Y-15262624D01*
X34493104Y-15704547D01*
X34743433Y-16079191D01*
X35118077Y-16329520D01*
X35560000Y-16417424D01*
X36001923Y-16329520D01*
X36376567Y-16079191D01*
X36626896Y-15704547D01*
X36714800Y-15262624D01*
X36714800Y-15217376D01*
X36626896Y-14775453D01*
X36376567Y-14400809D01*
X36001923Y-14150480D01*
X35560000Y-14062576D01*
X35118077Y-14150480D01*
X34743433Y-14400809D01*
X34493104Y-14775453D01*
X34405200Y-15217376D01*
X34174800Y-15217376D01*
X34086896Y-14775453D01*
X33836567Y-14400809D01*
X33461923Y-14150480D01*
X33020000Y-14062576D01*
X32578077Y-14150480D01*
X32203433Y-14400809D01*
X31953104Y-14775453D01*
X31865200Y-15217376D01*
X31634800Y-15217376D01*
X31546896Y-14775453D01*
X31296567Y-14400809D01*
X30921923Y-14150480D01*
X30480000Y-14062576D01*
X30038077Y-14150480D01*
X29663433Y-14400809D01*
X29413104Y-14775453D01*
X29325200Y-15217376D01*
X29094800Y-15217376D01*
X29006896Y-14775453D01*
X28756567Y-14400809D01*
X28381923Y-14150480D01*
X27940000Y-14062576D01*
X27498077Y-14150480D01*
X27123433Y-14400809D01*
X26873104Y-14775453D01*
X26785200Y-15217376D01*
X26554800Y-15217376D01*
X26466896Y-14775453D01*
X26216567Y-14400809D01*
X25841923Y-14150480D01*
X25400000Y-14062576D01*
X24958077Y-14150480D01*
X24809276Y-14249906D01*
X24711732Y-14013833D01*
X24518982Y-13820746D01*
X24267013Y-13716119D01*
X24090743Y-13715965D01*
X24035088Y-13660310D01*
X23886762Y-13561201D01*
X23711799Y-13526399D01*
X17176927Y-13526399D01*
X17001964Y-13561201D01*
X16853638Y-13660310D01*
X16323678Y-14190270D01*
X16312763Y-14173308D01*
X16210907Y-14103713D01*
X16090000Y-14079229D01*
X14390000Y-14079229D01*
X14324800Y-14091497D01*
X14324800Y-13054800D01*
X64415200Y-13054800D01*
X64415200Y-14548424D01*
X64415200Y-14548424D01*
G37*
X64415200Y-14548424D02*
X64316567Y-14400809D01*
X63941923Y-14150480D01*
X63500000Y-14062576D01*
X63058077Y-14150480D01*
X62683433Y-14400809D01*
X62433104Y-14775453D01*
X62369499Y-15095219D01*
X62252277Y-15118535D01*
X62120432Y-15206632D01*
X62113952Y-15213112D01*
X62026896Y-14775453D01*
X61776567Y-14400809D01*
X61401923Y-14150480D01*
X60960000Y-14062576D01*
X60518077Y-14150480D01*
X60143433Y-14400809D01*
X59893104Y-14775453D01*
X59829198Y-15096732D01*
X59719583Y-15118535D01*
X59587738Y-15206632D01*
X59574800Y-15219570D01*
X59574800Y-15217376D01*
X59486896Y-14775453D01*
X59236567Y-14400809D01*
X58861923Y-14150480D01*
X58420000Y-14062576D01*
X57978077Y-14150480D01*
X57812827Y-14260897D01*
X57731732Y-14064633D01*
X57538982Y-13871546D01*
X57287013Y-13766919D01*
X57110743Y-13766765D01*
X57004288Y-13660310D01*
X56855962Y-13561201D01*
X56680999Y-13526399D01*
X44919001Y-13526399D01*
X44744038Y-13561201D01*
X44595712Y-13660309D01*
X44514588Y-13741434D01*
X44339584Y-13741281D01*
X44087433Y-13845468D01*
X43894346Y-14038218D01*
X43798687Y-14268590D01*
X43621923Y-14150480D01*
X43180000Y-14062576D01*
X42738077Y-14150480D01*
X42363433Y-14400809D01*
X42113104Y-14775453D01*
X42025200Y-15217376D01*
X42025200Y-15262624D01*
X42113104Y-15704547D01*
X42363433Y-16079191D01*
X42738077Y-16329520D01*
X42905430Y-16362809D01*
X42864648Y-16370482D01*
X42853900Y-16377398D01*
X42848507Y-16373713D01*
X42727600Y-16349229D01*
X42477600Y-16349229D01*
X42364648Y-16370482D01*
X42353900Y-16377398D01*
X42348507Y-16373713D01*
X42227600Y-16349229D01*
X41977600Y-16349229D01*
X41864648Y-16370482D01*
X41853900Y-16377398D01*
X41848507Y-16373713D01*
X41727600Y-16349229D01*
X41477600Y-16349229D01*
X41364648Y-16370482D01*
X41353900Y-16377398D01*
X41348507Y-16373713D01*
X41227600Y-16349229D01*
X40982839Y-16349229D01*
X41081923Y-16329520D01*
X41456567Y-16079191D01*
X41706896Y-15704547D01*
X41794800Y-15262624D01*
X41794800Y-15217376D01*
X41706896Y-14775453D01*
X41456567Y-14400809D01*
X41081923Y-14150480D01*
X40640000Y-14062576D01*
X40198077Y-14150480D01*
X39823433Y-14400809D01*
X39573104Y-14775453D01*
X39485200Y-15217376D01*
X39485200Y-15262624D01*
X39573104Y-15704547D01*
X39823433Y-16079191D01*
X40198077Y-16329520D01*
X40384874Y-16366676D01*
X40364648Y-16370482D01*
X40353900Y-16377398D01*
X40348507Y-16373713D01*
X40227600Y-16349229D01*
X39977600Y-16349229D01*
X39864648Y-16370482D01*
X39853900Y-16377398D01*
X39848507Y-16373713D01*
X39727600Y-16349229D01*
X39477600Y-16349229D01*
X39364648Y-16370482D01*
X39353900Y-16377398D01*
X39348507Y-16373713D01*
X39227600Y-16349229D01*
X38977600Y-16349229D01*
X38864648Y-16370482D01*
X38853900Y-16377398D01*
X38848507Y-16373713D01*
X38727600Y-16349229D01*
X38477600Y-16349229D01*
X38364648Y-16370482D01*
X38353900Y-16377398D01*
X38348507Y-16373713D01*
X38334257Y-16370827D01*
X38541923Y-16329520D01*
X38916567Y-16079191D01*
X39166896Y-15704547D01*
X39254800Y-15262624D01*
X39254800Y-15217376D01*
X39166896Y-14775453D01*
X38916567Y-14400809D01*
X38541923Y-14150480D01*
X38100000Y-14062576D01*
X37658077Y-14150480D01*
X37283433Y-14400809D01*
X37033104Y-14775453D01*
X36945200Y-15217376D01*
X36945200Y-15262624D01*
X37033104Y-15704547D01*
X37283433Y-16079191D01*
X37658077Y-16329520D01*
X37864497Y-16370579D01*
X37853900Y-16377398D01*
X37848507Y-16373713D01*
X37727600Y-16349229D01*
X37477600Y-16349229D01*
X37364648Y-16370482D01*
X37353900Y-16377398D01*
X37348507Y-16373713D01*
X37227600Y-16349229D01*
X36977600Y-16349229D01*
X36918838Y-16360286D01*
X36868658Y-16325999D01*
X36727600Y-16297434D01*
X36477600Y-16297434D01*
X36345823Y-16322230D01*
X36292096Y-16356802D01*
X36288229Y-16355200D01*
X36241300Y-16355200D01*
X36165100Y-16431400D01*
X36165100Y-16487474D01*
X36143599Y-16518942D01*
X36115034Y-16660000D01*
X36115034Y-17268900D01*
X36040100Y-17268900D01*
X36040100Y-17248900D01*
X35749000Y-17248900D01*
X35672800Y-17325100D01*
X35672800Y-17720628D01*
X35719203Y-17832655D01*
X35804944Y-17918397D01*
X35916971Y-17964800D01*
X35963900Y-17964800D01*
X36013698Y-17915002D01*
X36013698Y-17964800D01*
X36024022Y-17964800D01*
X35942099Y-18046723D01*
X35782299Y-18046583D01*
X35534817Y-18148841D01*
X35345306Y-18338022D01*
X35242617Y-18585325D01*
X35242383Y-18853101D01*
X35344641Y-19100583D01*
X35533822Y-19290094D01*
X35781125Y-19392783D01*
X36048901Y-19393017D01*
X36126644Y-19360894D01*
X36175132Y-19478244D01*
X36350035Y-19653453D01*
X36578674Y-19748392D01*
X36647149Y-19748452D01*
X36646964Y-19960640D01*
X36741504Y-20189444D01*
X36916407Y-20364653D01*
X37145046Y-20459592D01*
X37392612Y-20459808D01*
X37621416Y-20365268D01*
X37796625Y-20190365D01*
X37891564Y-19961726D01*
X37891688Y-19819400D01*
X38182127Y-20109839D01*
X38087417Y-20337925D01*
X38087399Y-20358000D01*
X38068299Y-20357983D01*
X37820817Y-20460241D01*
X37631306Y-20649422D01*
X37528617Y-20896725D01*
X37528383Y-21164501D01*
X37630641Y-21411983D01*
X37819822Y-21601494D01*
X38067125Y-21704183D01*
X38228146Y-21704324D01*
X39016509Y-22492687D01*
X39016369Y-22652487D01*
X39118627Y-22899969D01*
X39307808Y-23089480D01*
X39555111Y-23192169D01*
X39822887Y-23192403D01*
X40070369Y-23090145D01*
X40259880Y-22900964D01*
X40362569Y-22653661D01*
X40362598Y-22620875D01*
X40394387Y-22620903D01*
X40641869Y-22518645D01*
X40831380Y-22329464D01*
X40934069Y-22082161D01*
X40934303Y-21814385D01*
X40832045Y-21566903D01*
X40642864Y-21377392D01*
X40395561Y-21274703D01*
X40209119Y-21274540D01*
X39433477Y-20498899D01*
X39433617Y-20339099D01*
X39394240Y-20243800D01*
X41942210Y-20243800D01*
X42051780Y-20353370D01*
X42059778Y-20358714D01*
X42189400Y-20488336D01*
X42189400Y-21751393D01*
X42068547Y-21872035D01*
X41973608Y-22100674D01*
X41973392Y-22348240D01*
X42067932Y-22577044D01*
X42242835Y-22752253D01*
X42471474Y-22847192D01*
X42719040Y-22847408D01*
X42947844Y-22752868D01*
X43123053Y-22577965D01*
X43217992Y-22349326D01*
X43218208Y-22101760D01*
X43123668Y-21872956D01*
X43002200Y-21751275D01*
X43002200Y-20320000D01*
X42971265Y-20164477D01*
X42883168Y-20032632D01*
X42629168Y-19778632D01*
X42621173Y-19773290D01*
X42443960Y-19596079D01*
X42592040Y-19596208D01*
X42820844Y-19501668D01*
X42942525Y-19380200D01*
X43107751Y-19380200D01*
X43263274Y-19349265D01*
X43395119Y-19261168D01*
X43889968Y-18766319D01*
X43978065Y-18634474D01*
X44009000Y-18478951D01*
X44009000Y-17788059D01*
X44013887Y-17780907D01*
X44038371Y-17660000D01*
X44038371Y-16660000D01*
X44017118Y-16547048D01*
X43950363Y-16443308D01*
X43848507Y-16373713D01*
X43727600Y-16349229D01*
X43522839Y-16349229D01*
X43621923Y-16329520D01*
X43996567Y-16079191D01*
X44108231Y-15912073D01*
X45948580Y-17752422D01*
X45948580Y-18523080D01*
X45951001Y-18535251D01*
X45951001Y-18680200D01*
X45717700Y-18680200D01*
X45641500Y-18756400D01*
X45641500Y-19047500D01*
X45661500Y-19047500D01*
X45661500Y-19172500D01*
X45641500Y-19172500D01*
X45641500Y-19174229D01*
X45463700Y-19174229D01*
X45463700Y-19172500D01*
X45443700Y-19172500D01*
X45443700Y-19047500D01*
X45463700Y-19047500D01*
X45463700Y-18756400D01*
X45387500Y-18680200D01*
X44991972Y-18680200D01*
X44879945Y-18726603D01*
X44809314Y-18797233D01*
X44672058Y-18740240D01*
X44424492Y-18740024D01*
X44195688Y-18834564D01*
X44020479Y-19009467D01*
X43925540Y-19238106D01*
X43925324Y-19485672D01*
X44019864Y-19714476D01*
X44194767Y-19889685D01*
X44406896Y-19977768D01*
X44251002Y-20133662D01*
X44162905Y-20265507D01*
X44131970Y-20421030D01*
X44131970Y-20429554D01*
X44011117Y-20550196D01*
X43916178Y-20778835D01*
X43915962Y-21026401D01*
X44010502Y-21255205D01*
X44185405Y-21430414D01*
X44414044Y-21525353D01*
X44661610Y-21525569D01*
X44741829Y-21492423D01*
X44741829Y-21735000D01*
X44763082Y-21847952D01*
X44769998Y-21858700D01*
X44766313Y-21864093D01*
X44741829Y-21985000D01*
X44741829Y-22235000D01*
X44763082Y-22347952D01*
X44769998Y-22358700D01*
X44766313Y-22364093D01*
X44741829Y-22485000D01*
X44741829Y-22735000D01*
X44763082Y-22847952D01*
X44769998Y-22858700D01*
X44766313Y-22864093D01*
X44741829Y-22985000D01*
X44741829Y-23235000D01*
X44763082Y-23347952D01*
X44769998Y-23358700D01*
X44766313Y-23364093D01*
X44741829Y-23485000D01*
X44741829Y-23735000D01*
X44763082Y-23847952D01*
X44769998Y-23858700D01*
X44766313Y-23864093D01*
X44741829Y-23985000D01*
X44741829Y-24235000D01*
X44763082Y-24347952D01*
X44769998Y-24358700D01*
X44766313Y-24364093D01*
X44741829Y-24485000D01*
X44741829Y-24735000D01*
X44763082Y-24847952D01*
X44769998Y-24858700D01*
X44766313Y-24864093D01*
X44741829Y-24985000D01*
X44741829Y-25235000D01*
X44763082Y-25347952D01*
X44769998Y-25358700D01*
X44766313Y-25364093D01*
X44741829Y-25485000D01*
X44741829Y-25735000D01*
X44763082Y-25847952D01*
X44769998Y-25858700D01*
X44766313Y-25864093D01*
X44741829Y-25985000D01*
X44741829Y-26235000D01*
X44763082Y-26347952D01*
X44769998Y-26358700D01*
X44766313Y-26364093D01*
X44741829Y-26485000D01*
X44741829Y-26735000D01*
X44763082Y-26847952D01*
X44829837Y-26951692D01*
X44931693Y-27021287D01*
X45052600Y-27045771D01*
X46052600Y-27045771D01*
X46165552Y-27024518D01*
X46178168Y-27016400D01*
X46480050Y-27016400D01*
X46635573Y-26985465D01*
X46767418Y-26897368D01*
X47863999Y-25800787D01*
X47879733Y-25777240D01*
X47952096Y-25668942D01*
X47983031Y-25513419D01*
X47983031Y-24742376D01*
X49645200Y-24742376D01*
X49645200Y-24787624D01*
X49733104Y-25229547D01*
X49983433Y-25604191D01*
X50358077Y-25854520D01*
X50800000Y-25942424D01*
X51241923Y-25854520D01*
X51616567Y-25604191D01*
X51866896Y-25229547D01*
X51926459Y-24930100D01*
X52185200Y-24930100D01*
X52185200Y-25675628D01*
X52231603Y-25787655D01*
X52317344Y-25873397D01*
X52429371Y-25919800D01*
X53174900Y-25919800D01*
X53251100Y-25843600D01*
X53251100Y-24853900D01*
X53428900Y-24853900D01*
X53428900Y-25843600D01*
X53505100Y-25919800D01*
X54250629Y-25919800D01*
X54362656Y-25873397D01*
X54448397Y-25787655D01*
X54494800Y-25675628D01*
X54494800Y-24930100D01*
X54418600Y-24853900D01*
X53428900Y-24853900D01*
X53251100Y-24853900D01*
X52261400Y-24853900D01*
X52185200Y-24930100D01*
X51926459Y-24930100D01*
X51954800Y-24787624D01*
X51954800Y-24742376D01*
X51866896Y-24300453D01*
X51616567Y-23925809D01*
X51509654Y-23854372D01*
X52185200Y-23854372D01*
X52185200Y-24599900D01*
X52261400Y-24676100D01*
X53251100Y-24676100D01*
X53251100Y-23686400D01*
X53428900Y-23686400D01*
X53428900Y-24676100D01*
X54418600Y-24676100D01*
X54494800Y-24599900D01*
X54494800Y-23854372D01*
X54448397Y-23742345D01*
X54362656Y-23656603D01*
X54250629Y-23610200D01*
X53505100Y-23610200D01*
X53428900Y-23686400D01*
X53251100Y-23686400D01*
X53174900Y-23610200D01*
X52429371Y-23610200D01*
X52317344Y-23656603D01*
X52231603Y-23742345D01*
X52185200Y-23854372D01*
X51509654Y-23854372D01*
X51241923Y-23675480D01*
X50800000Y-23587576D01*
X50358077Y-23675480D01*
X49983433Y-23925809D01*
X49733104Y-24300453D01*
X49645200Y-24742376D01*
X47983031Y-24742376D01*
X47983031Y-24073805D01*
X49810036Y-22246800D01*
X50033434Y-22246800D01*
X50033434Y-22846800D01*
X50058230Y-22978577D01*
X50136110Y-23099607D01*
X50254942Y-23180801D01*
X50396000Y-23209366D01*
X51396000Y-23209366D01*
X51527777Y-23184570D01*
X51648807Y-23106690D01*
X51730001Y-22987858D01*
X51758566Y-22846800D01*
X51758566Y-22571686D01*
X51891983Y-22516559D01*
X52081494Y-22327378D01*
X52184183Y-22080075D01*
X52184417Y-21812299D01*
X52082159Y-21564817D01*
X51892978Y-21375306D01*
X51645675Y-21272617D01*
X51377899Y-21272383D01*
X51130417Y-21374641D01*
X50940906Y-21563822D01*
X50838217Y-21811125D01*
X50838153Y-21884234D01*
X50396000Y-21884234D01*
X50264223Y-21909030D01*
X50143193Y-21986910D01*
X50061999Y-22105742D01*
X50033434Y-22246800D01*
X49810036Y-22246800D01*
X49896048Y-22160788D01*
X49984145Y-22028943D01*
X50015080Y-21873420D01*
X50015080Y-18657056D01*
X50085229Y-18586907D01*
X50085229Y-19146800D01*
X50106482Y-19259752D01*
X50173237Y-19363492D01*
X50275093Y-19433087D01*
X50396000Y-19457571D01*
X50785235Y-19457571D01*
X50914341Y-19586677D01*
X50914192Y-19757440D01*
X51008732Y-19986244D01*
X51183635Y-20161453D01*
X51412274Y-20256392D01*
X51659840Y-20256608D01*
X51888644Y-20162068D01*
X52063853Y-19987165D01*
X52158792Y-19758526D01*
X52159008Y-19510960D01*
X52064468Y-19282156D01*
X51889565Y-19106947D01*
X51706771Y-19031044D01*
X51706771Y-18546800D01*
X51691530Y-18465800D01*
X51993800Y-18465800D01*
X52149323Y-18434865D01*
X52209651Y-18394555D01*
X52209592Y-18462040D01*
X52304132Y-18690844D01*
X52434423Y-18821363D01*
X52431747Y-18824035D01*
X52336808Y-19052674D01*
X52336592Y-19300240D01*
X52431132Y-19529044D01*
X52460023Y-19557986D01*
X52330147Y-19687635D01*
X52235208Y-19916274D01*
X52234992Y-20163840D01*
X52329532Y-20392644D01*
X52504435Y-20567853D01*
X52733074Y-20662792D01*
X52980640Y-20663008D01*
X53209444Y-20568468D01*
X53331125Y-20447000D01*
X53349464Y-20447000D01*
X54724341Y-21821877D01*
X54724192Y-21992640D01*
X54818732Y-22221444D01*
X54993635Y-22396653D01*
X55222274Y-22491592D01*
X55469840Y-22491808D01*
X55698644Y-22397268D01*
X55849375Y-22246800D01*
X56085229Y-22246800D01*
X56085229Y-22846800D01*
X56106482Y-22959752D01*
X56173237Y-23063492D01*
X56275093Y-23133087D01*
X56396000Y-23157571D01*
X57396000Y-23157571D01*
X57508952Y-23136318D01*
X57612692Y-23069563D01*
X57682287Y-22967707D01*
X57706771Y-22846800D01*
X57706771Y-22246800D01*
X57685518Y-22133848D01*
X57618763Y-22030108D01*
X57516907Y-21960513D01*
X57396000Y-21936029D01*
X56396000Y-21936029D01*
X56283048Y-21957282D01*
X56179308Y-22024037D01*
X56109713Y-22125893D01*
X56085229Y-22246800D01*
X55849375Y-22246800D01*
X55873853Y-22222365D01*
X55968792Y-21993726D01*
X55969008Y-21746160D01*
X55874468Y-21517356D01*
X55699565Y-21342147D01*
X55470926Y-21247208D01*
X55298994Y-21247058D01*
X53805168Y-19753232D01*
X53798248Y-19748608D01*
X53673323Y-19665135D01*
X53517800Y-19634200D01*
X53381836Y-19634200D01*
X53486253Y-19529965D01*
X53581192Y-19301326D01*
X53581278Y-19203123D01*
X53665467Y-19146869D01*
X53914726Y-18897610D01*
X54686190Y-18897610D01*
X54841713Y-18866675D01*
X54973558Y-18778578D01*
X55100209Y-18651927D01*
X55176758Y-18600778D01*
X55337126Y-18440410D01*
X56106773Y-18440410D01*
X56085229Y-18546800D01*
X56085229Y-19146800D01*
X56106482Y-19259752D01*
X56173237Y-19363492D01*
X56275093Y-19433087D01*
X56396000Y-19457571D01*
X57396000Y-19457571D01*
X57508952Y-19436318D01*
X57612692Y-19369563D01*
X57682287Y-19267707D01*
X57706771Y-19146800D01*
X57706771Y-18546800D01*
X57685518Y-18433848D01*
X57618763Y-18330108D01*
X57516907Y-18260513D01*
X57480247Y-18253089D01*
X57521536Y-18211800D01*
X58877200Y-18211800D01*
X58877200Y-18398593D01*
X58756347Y-18519235D01*
X58661408Y-18747874D01*
X58661192Y-18995440D01*
X58755732Y-19224244D01*
X58930635Y-19399453D01*
X59159274Y-19494392D01*
X59406840Y-19494608D01*
X59635644Y-19400068D01*
X59810853Y-19225165D01*
X59905792Y-18996526D01*
X59906008Y-18748960D01*
X59811468Y-18520156D01*
X59690000Y-18398475D01*
X59690000Y-18211800D01*
X62341064Y-18211800D01*
X62496741Y-18367477D01*
X62496592Y-18538240D01*
X62586848Y-18756676D01*
X62554425Y-18763125D01*
X62447510Y-18834564D01*
X62422580Y-18851222D01*
X61759454Y-19514348D01*
X61671357Y-19646193D01*
X61640422Y-19801716D01*
X61640422Y-21440753D01*
X61519569Y-21561395D01*
X61507858Y-21589599D01*
X61463658Y-21559399D01*
X61322600Y-21530834D01*
X61314503Y-21530834D01*
X61414974Y-21380468D01*
X61478200Y-21062611D01*
X61478200Y-20724189D01*
X61414974Y-20406332D01*
X61234923Y-20136866D01*
X60965457Y-19956815D01*
X60647600Y-19893589D01*
X60329743Y-19956815D01*
X60060277Y-20136866D01*
X59880226Y-20406332D01*
X59817000Y-20724189D01*
X59817000Y-21062611D01*
X59867115Y-21314554D01*
X59735562Y-21259928D01*
X59442524Y-21259672D01*
X59171695Y-21371577D01*
X58964305Y-21578605D01*
X58851928Y-21849238D01*
X58851672Y-22142276D01*
X58942698Y-22362574D01*
X58735705Y-22569205D01*
X58623328Y-22839838D01*
X58623072Y-23132876D01*
X58734977Y-23403705D01*
X58942005Y-23611095D01*
X59212638Y-23723472D01*
X59505676Y-23723728D01*
X59673318Y-23654459D01*
X59683082Y-23706352D01*
X59689998Y-23717100D01*
X59686313Y-23722493D01*
X59661829Y-23843400D01*
X59661829Y-24243400D01*
X59683082Y-24356352D01*
X59689998Y-24367100D01*
X59686313Y-24372493D01*
X59661829Y-24493400D01*
X59661829Y-24893400D01*
X59683082Y-25006352D01*
X59749837Y-25110092D01*
X59851693Y-25179687D01*
X59972600Y-25204171D01*
X60015305Y-25204171D01*
X59880226Y-25406332D01*
X59817000Y-25724189D01*
X59817000Y-26062611D01*
X59880226Y-26380468D01*
X60060277Y-26649934D01*
X60329743Y-26829985D01*
X60647600Y-26893211D01*
X60965457Y-26829985D01*
X61234923Y-26649934D01*
X61414974Y-26380468D01*
X61478200Y-26062611D01*
X61478200Y-25798259D01*
X61570340Y-25836519D01*
X61843169Y-25836757D01*
X62095320Y-25732570D01*
X62229157Y-25598966D01*
X62210034Y-25693400D01*
X62210034Y-26817065D01*
X62194850Y-26893400D01*
X62256173Y-27201690D01*
X62430805Y-27463045D01*
X62692160Y-27637677D01*
X63000450Y-27699000D01*
X63694750Y-27699000D01*
X64003040Y-27637677D01*
X64264395Y-27463045D01*
X64415200Y-27237350D01*
X64415200Y-29280637D01*
X64350000Y-29267434D01*
X62650000Y-29267434D01*
X62518223Y-29292230D01*
X62397193Y-29370110D01*
X62315999Y-29488942D01*
X62287434Y-29630000D01*
X62287434Y-31330000D01*
X62312230Y-31461777D01*
X62390110Y-31582807D01*
X62508942Y-31664001D01*
X62650000Y-31692566D01*
X64350000Y-31692566D01*
X64415200Y-31680298D01*
X64415200Y-32665200D01*
X14324800Y-32665200D01*
X14324800Y-31171576D01*
X14423433Y-31319191D01*
X14798077Y-31569520D01*
X15240000Y-31657424D01*
X15681923Y-31569520D01*
X16056567Y-31319191D01*
X16306896Y-30944547D01*
X16394800Y-30502624D01*
X16394800Y-30457376D01*
X16625200Y-30457376D01*
X16625200Y-30502624D01*
X16713104Y-30944547D01*
X16963433Y-31319191D01*
X17338077Y-31569520D01*
X17780000Y-31657424D01*
X18221923Y-31569520D01*
X18596567Y-31319191D01*
X18846896Y-30944547D01*
X18934800Y-30502624D01*
X18934800Y-30457376D01*
X19165200Y-30457376D01*
X19165200Y-30502624D01*
X19253104Y-30944547D01*
X19503433Y-31319191D01*
X19878077Y-31569520D01*
X20320000Y-31657424D01*
X20761923Y-31569520D01*
X21136567Y-31319191D01*
X21386896Y-30944547D01*
X21474800Y-30502624D01*
X21474800Y-30457376D01*
X21705200Y-30457376D01*
X21705200Y-30502624D01*
X21793104Y-30944547D01*
X22043433Y-31319191D01*
X22418077Y-31569520D01*
X22860000Y-31657424D01*
X23301923Y-31569520D01*
X23676567Y-31319191D01*
X23926896Y-30944547D01*
X24014800Y-30502624D01*
X24014800Y-30457376D01*
X24245200Y-30457376D01*
X24245200Y-30502624D01*
X24333104Y-30944547D01*
X24583433Y-31319191D01*
X24958077Y-31569520D01*
X25400000Y-31657424D01*
X25841923Y-31569520D01*
X26216567Y-31319191D01*
X26466896Y-30944547D01*
X26554800Y-30502624D01*
X26554800Y-30457376D01*
X26785200Y-30457376D01*
X26785200Y-30502624D01*
X26873104Y-30944547D01*
X27123433Y-31319191D01*
X27498077Y-31569520D01*
X27940000Y-31657424D01*
X28381923Y-31569520D01*
X28756567Y-31319191D01*
X29006896Y-30944547D01*
X29094800Y-30502624D01*
X29094800Y-30457376D01*
X29325200Y-30457376D01*
X29325200Y-30502624D01*
X29413104Y-30944547D01*
X29663433Y-31319191D01*
X30038077Y-31569520D01*
X30480000Y-31657424D01*
X30921923Y-31569520D01*
X31296567Y-31319191D01*
X31546896Y-30944547D01*
X31634800Y-30502624D01*
X31634800Y-30457376D01*
X31865200Y-30457376D01*
X31865200Y-30502624D01*
X31953104Y-30944547D01*
X32203433Y-31319191D01*
X32578077Y-31569520D01*
X33020000Y-31657424D01*
X33461923Y-31569520D01*
X33836567Y-31319191D01*
X34086896Y-30944547D01*
X34135158Y-30701918D01*
X34166123Y-30695759D01*
X34297968Y-30607662D01*
X34405200Y-30500430D01*
X34405200Y-30502624D01*
X34493104Y-30944547D01*
X34743433Y-31319191D01*
X35118077Y-31569520D01*
X35560000Y-31657424D01*
X36001923Y-31569520D01*
X36376567Y-31319191D01*
X36626896Y-30944547D01*
X36714800Y-30502624D01*
X36714800Y-30457376D01*
X36631063Y-30036401D01*
X37028937Y-30036401D01*
X36945200Y-30457376D01*
X36945200Y-30502624D01*
X37033104Y-30944547D01*
X37283433Y-31319191D01*
X37658077Y-31569520D01*
X38100000Y-31657424D01*
X38541923Y-31569520D01*
X38916567Y-31319191D01*
X39166896Y-30944547D01*
X39254800Y-30502624D01*
X39254800Y-30457376D01*
X39171063Y-30036401D01*
X39568937Y-30036401D01*
X39485200Y-30457376D01*
X39485200Y-30502624D01*
X39573104Y-30944547D01*
X39823433Y-31319191D01*
X40198077Y-31569520D01*
X40640000Y-31657424D01*
X41081923Y-31569520D01*
X41456567Y-31319191D01*
X41706896Y-30944547D01*
X41794800Y-30502624D01*
X41794800Y-30457376D01*
X41706896Y-30015453D01*
X41456567Y-29640809D01*
X41081923Y-29390480D01*
X40982839Y-29370771D01*
X41227600Y-29370771D01*
X41340552Y-29349518D01*
X41351300Y-29342602D01*
X41356693Y-29346287D01*
X41477600Y-29370771D01*
X41727600Y-29370771D01*
X41840552Y-29349518D01*
X41851300Y-29342602D01*
X41856693Y-29346287D01*
X41977600Y-29370771D01*
X42227600Y-29370771D01*
X42340552Y-29349518D01*
X42351300Y-29342602D01*
X42356693Y-29346287D01*
X42477600Y-29370771D01*
X42727600Y-29370771D01*
X42840552Y-29349518D01*
X42851300Y-29342602D01*
X42856693Y-29346287D01*
X42908008Y-29356679D01*
X42738077Y-29390480D01*
X42363433Y-29640809D01*
X42113104Y-30015453D01*
X42025200Y-30457376D01*
X42025200Y-30502624D01*
X42113104Y-30944547D01*
X42363433Y-31319191D01*
X42738077Y-31569520D01*
X43180000Y-31657424D01*
X43621923Y-31569520D01*
X43996567Y-31319191D01*
X44246896Y-30944547D01*
X44334800Y-30502624D01*
X44334800Y-30457376D01*
X44565200Y-30457376D01*
X44565200Y-30502624D01*
X44653104Y-30944547D01*
X44903433Y-31319191D01*
X45278077Y-31569520D01*
X45720000Y-31657424D01*
X46161923Y-31569520D01*
X46536567Y-31319191D01*
X46786896Y-30944547D01*
X46874800Y-30502624D01*
X46874800Y-30457376D01*
X47105200Y-30457376D01*
X47105200Y-30502624D01*
X47193104Y-30944547D01*
X47443433Y-31319191D01*
X47818077Y-31569520D01*
X48260000Y-31657424D01*
X48701923Y-31569520D01*
X49076567Y-31319191D01*
X49326896Y-30944547D01*
X49414800Y-30502624D01*
X49414800Y-30457376D01*
X49645200Y-30457376D01*
X49645200Y-30502624D01*
X49733104Y-30944547D01*
X49983433Y-31319191D01*
X50358077Y-31569520D01*
X50800000Y-31657424D01*
X51241923Y-31569520D01*
X51616567Y-31319191D01*
X51866896Y-30944547D01*
X51954800Y-30502624D01*
X51954800Y-30457376D01*
X52185200Y-30457376D01*
X52185200Y-30502624D01*
X52273104Y-30944547D01*
X52523433Y-31319191D01*
X52898077Y-31569520D01*
X53340000Y-31657424D01*
X53781923Y-31569520D01*
X54156567Y-31319191D01*
X54406896Y-30944547D01*
X54494800Y-30502624D01*
X54494800Y-30457376D01*
X54725200Y-30457376D01*
X54725200Y-30502624D01*
X54813104Y-30944547D01*
X55063433Y-31319191D01*
X55438077Y-31569520D01*
X55880000Y-31657424D01*
X56321923Y-31569520D01*
X56696567Y-31319191D01*
X56946896Y-30944547D01*
X56986007Y-30747921D01*
X57296700Y-30747921D01*
X57484735Y-31157395D01*
X57815156Y-31463742D01*
X58152080Y-31603291D01*
X58331100Y-31554930D01*
X58331100Y-30568900D01*
X58508900Y-30568900D01*
X58508900Y-31554930D01*
X58687920Y-31603291D01*
X59024844Y-31463742D01*
X59355265Y-31157395D01*
X59543300Y-30747921D01*
X59495182Y-30568900D01*
X58508900Y-30568900D01*
X58331100Y-30568900D01*
X57344818Y-30568900D01*
X57296700Y-30747921D01*
X56986007Y-30747921D01*
X57034800Y-30502624D01*
X57034800Y-30457376D01*
X57034603Y-30456381D01*
X59754400Y-30456381D01*
X59754400Y-30503619D01*
X59846171Y-30964982D01*
X60107512Y-31356107D01*
X60498637Y-31617448D01*
X60960000Y-31709219D01*
X61421363Y-31617448D01*
X61812488Y-31356107D01*
X62073829Y-30964982D01*
X62165600Y-30503619D01*
X62165600Y-30456381D01*
X62073829Y-29995018D01*
X61812488Y-29603893D01*
X61421363Y-29342552D01*
X60960000Y-29250781D01*
X60498637Y-29342552D01*
X60107512Y-29603893D01*
X59846171Y-29995018D01*
X59754400Y-30456381D01*
X57034603Y-30456381D01*
X56986008Y-30212079D01*
X57296700Y-30212079D01*
X57344818Y-30391100D01*
X58331100Y-30391100D01*
X58331100Y-29405070D01*
X58508900Y-29405070D01*
X58508900Y-30391100D01*
X59495182Y-30391100D01*
X59543300Y-30212079D01*
X59355265Y-29802605D01*
X59024844Y-29496258D01*
X58687920Y-29356709D01*
X58508900Y-29405070D01*
X58331100Y-29405070D01*
X58152080Y-29356709D01*
X57815156Y-29496258D01*
X57484735Y-29802605D01*
X57296700Y-30212079D01*
X56986008Y-30212079D01*
X56946896Y-30015453D01*
X56696567Y-29640809D01*
X56321923Y-29390480D01*
X55880000Y-29302576D01*
X55778400Y-29322786D01*
X55778400Y-28511500D01*
X57007200Y-28511500D01*
X57007200Y-29007029D01*
X57053603Y-29119056D01*
X57139345Y-29204797D01*
X57251372Y-29251200D01*
X57746900Y-29251200D01*
X57823100Y-29175000D01*
X57823100Y-28435300D01*
X57083400Y-28435300D01*
X57007200Y-28511500D01*
X55778400Y-28511500D01*
X55778400Y-27685771D01*
X57007200Y-27685771D01*
X57007200Y-28181300D01*
X57083400Y-28257500D01*
X57823100Y-28257500D01*
X57823100Y-27517800D01*
X58000900Y-27517800D01*
X58000900Y-28257500D01*
X58020900Y-28257500D01*
X58020900Y-28435300D01*
X58000900Y-28435300D01*
X58000900Y-29175000D01*
X58077100Y-29251200D01*
X58572628Y-29251200D01*
X58684655Y-29204797D01*
X58770397Y-29119056D01*
X58816800Y-29007029D01*
X58816800Y-28861397D01*
X58829035Y-28873653D01*
X59057674Y-28968592D01*
X59205429Y-28968721D01*
X59222482Y-29059352D01*
X59289237Y-29163092D01*
X59391093Y-29232687D01*
X59512000Y-29257171D01*
X60712000Y-29257171D01*
X60824952Y-29235918D01*
X60928692Y-29169163D01*
X60998287Y-29067307D01*
X61022771Y-28946400D01*
X61022771Y-27746400D01*
X61001518Y-27633448D01*
X60934763Y-27529708D01*
X60832907Y-27460113D01*
X60712000Y-27435629D01*
X59512000Y-27435629D01*
X59399048Y-27456882D01*
X59295308Y-27523637D01*
X59225713Y-27625493D01*
X59205741Y-27724120D01*
X59058760Y-27723992D01*
X58829956Y-27818532D01*
X58816800Y-27831665D01*
X58816800Y-27685771D01*
X58770397Y-27573744D01*
X58684655Y-27488003D01*
X58572628Y-27441600D01*
X58077100Y-27441600D01*
X58000900Y-27517800D01*
X57823100Y-27517800D01*
X57746900Y-27441600D01*
X57251372Y-27441600D01*
X57139345Y-27488003D01*
X57053603Y-27573744D01*
X57007200Y-27685771D01*
X55778400Y-27685771D01*
X55778400Y-26000607D01*
X55899253Y-25879965D01*
X55994192Y-25651326D01*
X55994408Y-25403760D01*
X55899868Y-25174956D01*
X55724965Y-24999747D01*
X55496326Y-24904808D01*
X55248760Y-24904592D01*
X55019956Y-24999132D01*
X54844747Y-25174035D01*
X54749808Y-25402674D01*
X54749592Y-25650240D01*
X54844132Y-25879044D01*
X54965600Y-26000725D01*
X54965600Y-29787227D01*
X54813104Y-30015453D01*
X54725200Y-30457376D01*
X54494800Y-30457376D01*
X54406896Y-30015453D01*
X54156567Y-29640809D01*
X53781923Y-29390480D01*
X53340000Y-29302576D01*
X52898077Y-29390480D01*
X52523433Y-29640809D01*
X52273104Y-30015453D01*
X52185200Y-30457376D01*
X51954800Y-30457376D01*
X51866896Y-30015453D01*
X51616567Y-29640809D01*
X51241923Y-29390480D01*
X50800000Y-29302576D01*
X50358077Y-29390480D01*
X49983433Y-29640809D01*
X49733104Y-30015453D01*
X49645200Y-30457376D01*
X49414800Y-30457376D01*
X49326896Y-30015453D01*
X49076567Y-29640809D01*
X48701923Y-29390480D01*
X48260000Y-29302576D01*
X47818077Y-29390480D01*
X47443433Y-29640809D01*
X47193104Y-30015453D01*
X47105200Y-30457376D01*
X46874800Y-30457376D01*
X46786896Y-30015453D01*
X46536567Y-29640809D01*
X46161923Y-29390480D01*
X45720000Y-29302576D01*
X45278077Y-29390480D01*
X44903433Y-29640809D01*
X44653104Y-30015453D01*
X44565200Y-30457376D01*
X44334800Y-30457376D01*
X44246896Y-30015453D01*
X43996567Y-29640809D01*
X43621923Y-29390480D01*
X43468698Y-29360002D01*
X43540100Y-29288600D01*
X43540100Y-28648900D01*
X43665100Y-28648900D01*
X43665100Y-29288600D01*
X43741300Y-29364800D01*
X43788229Y-29364800D01*
X43900256Y-29318397D01*
X43985997Y-29232655D01*
X44032400Y-29120628D01*
X44032400Y-28725100D01*
X43956200Y-28648900D01*
X43665100Y-28648900D01*
X43540100Y-28648900D01*
X43538371Y-28648900D01*
X43538371Y-28471100D01*
X43540100Y-28471100D01*
X43540100Y-27831400D01*
X43665100Y-27831400D01*
X43665100Y-28471100D01*
X43956200Y-28471100D01*
X44032400Y-28394900D01*
X44032400Y-27999372D01*
X43985997Y-27887345D01*
X43900256Y-27801603D01*
X43788229Y-27755200D01*
X43741300Y-27755200D01*
X43665100Y-27831400D01*
X43540100Y-27831400D01*
X43509000Y-27800300D01*
X43509000Y-27282376D01*
X49645200Y-27282376D01*
X49645200Y-27327624D01*
X49733104Y-27769547D01*
X49983433Y-28144191D01*
X50358077Y-28394520D01*
X50800000Y-28482424D01*
X51241923Y-28394520D01*
X51616567Y-28144191D01*
X51866896Y-27769547D01*
X51906007Y-27572921D01*
X52216700Y-27572921D01*
X52404735Y-27982395D01*
X52735156Y-28288742D01*
X53072080Y-28428291D01*
X53251100Y-28379930D01*
X53251100Y-27393900D01*
X53428900Y-27393900D01*
X53428900Y-28379930D01*
X53607920Y-28428291D01*
X53944844Y-28288742D01*
X54275265Y-27982395D01*
X54463300Y-27572921D01*
X54415182Y-27393900D01*
X53428900Y-27393900D01*
X53251100Y-27393900D01*
X52264818Y-27393900D01*
X52216700Y-27572921D01*
X51906007Y-27572921D01*
X51954800Y-27327624D01*
X51954800Y-27282376D01*
X51906008Y-27037079D01*
X52216700Y-27037079D01*
X52264818Y-27216100D01*
X53251100Y-27216100D01*
X53251100Y-26230070D01*
X53428900Y-26230070D01*
X53428900Y-27216100D01*
X54415182Y-27216100D01*
X54463300Y-27037079D01*
X54275265Y-26627605D01*
X53944844Y-26321258D01*
X53607920Y-26181709D01*
X53428900Y-26230070D01*
X53251100Y-26230070D01*
X53072080Y-26181709D01*
X52735156Y-26321258D01*
X52404735Y-26627605D01*
X52216700Y-27037079D01*
X51906008Y-27037079D01*
X51866896Y-26840453D01*
X51616567Y-26465809D01*
X51241923Y-26215480D01*
X50800000Y-26127576D01*
X50358077Y-26215480D01*
X49983433Y-26465809D01*
X49733104Y-26840453D01*
X49645200Y-27282376D01*
X43509000Y-27282376D01*
X43509000Y-27256326D01*
X43658563Y-27107024D01*
X43753502Y-26878385D01*
X43753718Y-26630819D01*
X43659178Y-26402015D01*
X43484275Y-26226806D01*
X43255636Y-26131867D01*
X43008070Y-26131651D01*
X42779266Y-26226191D01*
X42680507Y-26324778D01*
X42641305Y-26285507D01*
X42412666Y-26190568D01*
X42165100Y-26190352D01*
X42030197Y-26246093D01*
X42015908Y-26211511D01*
X41841005Y-26036302D01*
X41612366Y-25941363D01*
X41364800Y-25941147D01*
X41139154Y-26034382D01*
X41913277Y-25260259D01*
X42084040Y-25260408D01*
X42312844Y-25165868D01*
X42488053Y-24990965D01*
X42582992Y-24762326D01*
X42583208Y-24514760D01*
X42488668Y-24285956D01*
X42313765Y-24110747D01*
X42085126Y-24015808D01*
X41837560Y-24015592D01*
X41608756Y-24110132D01*
X41433547Y-24285035D01*
X41338608Y-24513674D01*
X41338458Y-24685606D01*
X40225632Y-25798432D01*
X40137535Y-25930277D01*
X40106600Y-26085800D01*
X40106600Y-26279461D01*
X40063753Y-26279461D01*
X39943111Y-26158608D01*
X39714472Y-26063669D01*
X39466906Y-26063453D01*
X39238102Y-26157993D01*
X39062893Y-26332896D01*
X38986941Y-26515810D01*
X38960926Y-26505008D01*
X38713360Y-26504792D01*
X38484556Y-26599332D01*
X38309347Y-26774235D01*
X38214408Y-27002874D01*
X38214192Y-27250440D01*
X38308732Y-27479244D01*
X38430200Y-27600925D01*
X38430200Y-27686000D01*
X38444033Y-27755545D01*
X38364648Y-27770482D01*
X38353900Y-27777398D01*
X38348507Y-27773713D01*
X38227600Y-27749229D01*
X37977600Y-27749229D01*
X37864648Y-27770482D01*
X37853900Y-27777398D01*
X37848507Y-27773713D01*
X37727600Y-27749229D01*
X37477600Y-27749229D01*
X37364648Y-27770482D01*
X37349169Y-27780442D01*
X37288229Y-27755200D01*
X37241300Y-27755200D01*
X37165100Y-27831400D01*
X37165100Y-28471100D01*
X37166829Y-28471100D01*
X37166829Y-28648900D01*
X37165100Y-28648900D01*
X37165100Y-28668900D01*
X37090166Y-28668900D01*
X37090166Y-28060000D01*
X37065370Y-27928223D01*
X37059800Y-27919567D01*
X37059800Y-27856800D01*
X37024998Y-27681837D01*
X36925889Y-27533511D01*
X36787540Y-27395162D01*
X36689759Y-27158515D01*
X36500578Y-26969004D01*
X36253275Y-26866315D01*
X35985499Y-26866081D01*
X35738017Y-26968339D01*
X35548506Y-27157520D01*
X35445817Y-27404823D01*
X35445583Y-27672599D01*
X35547841Y-27920081D01*
X35670318Y-28042771D01*
X35666829Y-28060000D01*
X35666829Y-28174300D01*
X35615371Y-28184535D01*
X35497642Y-28263200D01*
X35483526Y-28272632D01*
X33948231Y-29807927D01*
X33836567Y-29640809D01*
X33461923Y-29390480D01*
X33020000Y-29302576D01*
X32578077Y-29390480D01*
X32203433Y-29640809D01*
X31953104Y-30015453D01*
X31865200Y-30457376D01*
X31634800Y-30457376D01*
X31546896Y-30015453D01*
X31296567Y-29640809D01*
X30921923Y-29390480D01*
X30480000Y-29302576D01*
X30038077Y-29390480D01*
X29663433Y-29640809D01*
X29413104Y-30015453D01*
X29325200Y-30457376D01*
X29094800Y-30457376D01*
X29006896Y-30015453D01*
X28756567Y-29640809D01*
X28381923Y-29390480D01*
X27940000Y-29302576D01*
X27498077Y-29390480D01*
X27123433Y-29640809D01*
X26873104Y-30015453D01*
X26785200Y-30457376D01*
X26554800Y-30457376D01*
X26466896Y-30015453D01*
X26216567Y-29640809D01*
X25841923Y-29390480D01*
X25400000Y-29302576D01*
X24958077Y-29390480D01*
X24583433Y-29640809D01*
X24333104Y-30015453D01*
X24245200Y-30457376D01*
X24014800Y-30457376D01*
X23926896Y-30015453D01*
X23676567Y-29640809D01*
X23301923Y-29390480D01*
X22860000Y-29302576D01*
X22418077Y-29390480D01*
X22043433Y-29640809D01*
X21793104Y-30015453D01*
X21705200Y-30457376D01*
X21474800Y-30457376D01*
X21386896Y-30015453D01*
X21136567Y-29640809D01*
X20761923Y-29390480D01*
X20320000Y-29302576D01*
X19878077Y-29390480D01*
X19503433Y-29640809D01*
X19253104Y-30015453D01*
X19165200Y-30457376D01*
X18934800Y-30457376D01*
X18846896Y-30015453D01*
X18596567Y-29640809D01*
X18221923Y-29390480D01*
X17780000Y-29302576D01*
X17338077Y-29390480D01*
X16963433Y-29640809D01*
X16713104Y-30015453D01*
X16625200Y-30457376D01*
X16394800Y-30457376D01*
X16306896Y-30015453D01*
X16295836Y-29998900D01*
X16732969Y-29561767D01*
X16821066Y-29429922D01*
X16852001Y-29274399D01*
X16852001Y-28105100D01*
X16961200Y-28105100D01*
X16961200Y-28600629D01*
X17007603Y-28712656D01*
X17093345Y-28798397D01*
X17205372Y-28844800D01*
X17700900Y-28844800D01*
X17777100Y-28768600D01*
X17777100Y-28028900D01*
X17954900Y-28028900D01*
X17954900Y-28768600D01*
X18031100Y-28844800D01*
X18526628Y-28844800D01*
X18638655Y-28798397D01*
X18724397Y-28712656D01*
X18770800Y-28600629D01*
X18770800Y-28105100D01*
X18694600Y-28028900D01*
X17954900Y-28028900D01*
X17777100Y-28028900D01*
X17037400Y-28028900D01*
X16961200Y-28105100D01*
X16852001Y-28105100D01*
X16852001Y-27307609D01*
X16880239Y-27279371D01*
X16961200Y-27279371D01*
X16961200Y-27774900D01*
X17037400Y-27851100D01*
X17777100Y-27851100D01*
X17777100Y-27111400D01*
X17954900Y-27111400D01*
X17954900Y-27851100D01*
X18694600Y-27851100D01*
X18770800Y-27774900D01*
X18770800Y-27524925D01*
X18824035Y-27578253D01*
X19052674Y-27673192D01*
X19155229Y-27673281D01*
X19155229Y-28540000D01*
X19176482Y-28652952D01*
X19243237Y-28756692D01*
X19345093Y-28826287D01*
X19466000Y-28850771D01*
X20666000Y-28850771D01*
X20778952Y-28829518D01*
X20882692Y-28762763D01*
X20952287Y-28660907D01*
X20976771Y-28540000D01*
X20976771Y-27457542D01*
X20982212Y-27430187D01*
X20976771Y-27402832D01*
X20976771Y-27340000D01*
X20955518Y-27227048D01*
X20888763Y-27123308D01*
X20786907Y-27053713D01*
X20666000Y-27029229D01*
X20603168Y-27029229D01*
X20575813Y-27023788D01*
X20548458Y-27029229D01*
X20288140Y-27029229D01*
X20142200Y-27000201D01*
X19996260Y-27029229D01*
X19799319Y-27029229D01*
X19799408Y-26927760D01*
X19704868Y-26698956D01*
X19529965Y-26523747D01*
X19301326Y-26428808D01*
X19053760Y-26428592D01*
X18824956Y-26523132D01*
X18649747Y-26698035D01*
X18554808Y-26926674D01*
X18554703Y-27046829D01*
X18526628Y-27035200D01*
X18031100Y-27035200D01*
X17954900Y-27111400D01*
X17777100Y-27111400D01*
X17700900Y-27035200D01*
X17205372Y-27035200D01*
X17093345Y-27081603D01*
X17007603Y-27167344D01*
X16961200Y-27279371D01*
X16880239Y-27279371D01*
X18129522Y-26030088D01*
X19054134Y-26030088D01*
X19205035Y-26181253D01*
X19433674Y-26276192D01*
X19681240Y-26276408D01*
X19910044Y-26181868D01*
X20085253Y-26006965D01*
X20180192Y-25778326D01*
X20180346Y-25601800D01*
X21345229Y-25601800D01*
X21345229Y-26901800D01*
X21366482Y-27014752D01*
X21433237Y-27118492D01*
X21535093Y-27188087D01*
X21562086Y-27193553D01*
X21561952Y-27346960D01*
X21656492Y-27575764D01*
X21831395Y-27750973D01*
X22060034Y-27845912D01*
X22307600Y-27846128D01*
X22536404Y-27751588D01*
X22711613Y-27576685D01*
X22806552Y-27348046D01*
X22806670Y-27212571D01*
X23556000Y-27212571D01*
X23668952Y-27191318D01*
X23772692Y-27124563D01*
X23842287Y-27022707D01*
X23866771Y-26901800D01*
X23866771Y-26437640D01*
X23888592Y-26437640D01*
X23983132Y-26666444D01*
X24158035Y-26841653D01*
X24386674Y-26936592D01*
X24551803Y-26936736D01*
X24566482Y-27014752D01*
X24633237Y-27118492D01*
X24735093Y-27188087D01*
X24856000Y-27212571D01*
X25590514Y-27212571D01*
X25590392Y-27352040D01*
X25684932Y-27580844D01*
X25859835Y-27756053D01*
X26088474Y-27850992D01*
X26336040Y-27851208D01*
X26564844Y-27756668D01*
X26740053Y-27581765D01*
X26834992Y-27353126D01*
X26835128Y-27197682D01*
X26868952Y-27191318D01*
X26972692Y-27124563D01*
X27042287Y-27022707D01*
X27066771Y-26901800D01*
X27066771Y-25601800D01*
X27053768Y-25532692D01*
X28586817Y-25532692D01*
X28747062Y-25920516D01*
X29043524Y-26217495D01*
X29431067Y-26378417D01*
X29850692Y-26378783D01*
X30238516Y-26218538D01*
X30535495Y-25922076D01*
X30696417Y-25534533D01*
X30696783Y-25114908D01*
X30536538Y-24727084D01*
X30240076Y-24430105D01*
X29852533Y-24269183D01*
X29432908Y-24268817D01*
X29045084Y-24429062D01*
X28748105Y-24725524D01*
X28587183Y-25113067D01*
X28586817Y-25532692D01*
X27053768Y-25532692D01*
X27045518Y-25488848D01*
X26978763Y-25385108D01*
X26876907Y-25315513D01*
X26756000Y-25291029D01*
X24856000Y-25291029D01*
X24743048Y-25312282D01*
X24639308Y-25379037D01*
X24569713Y-25480893D01*
X24545229Y-25601800D01*
X24545229Y-25692129D01*
X24387760Y-25691992D01*
X24158956Y-25786532D01*
X23983747Y-25961435D01*
X23888808Y-26190074D01*
X23888592Y-26437640D01*
X23866771Y-26437640D01*
X23866771Y-25601800D01*
X23845518Y-25488848D01*
X23778763Y-25385108D01*
X23676907Y-25315513D01*
X23556000Y-25291029D01*
X21656000Y-25291029D01*
X21543048Y-25312282D01*
X21439308Y-25379037D01*
X21369713Y-25480893D01*
X21345229Y-25601800D01*
X20180346Y-25601800D01*
X20180408Y-25530760D01*
X20085868Y-25301956D01*
X19910965Y-25126747D01*
X19682326Y-25031808D01*
X19434760Y-25031592D01*
X19205956Y-25126132D01*
X19114641Y-25217288D01*
X17961186Y-25217288D01*
X17805663Y-25248223D01*
X17725247Y-25301956D01*
X17673818Y-25336320D01*
X16452566Y-26557572D01*
X16452566Y-25820000D01*
X16427770Y-25688223D01*
X16357600Y-25579175D01*
X16357600Y-24430755D01*
X16417424Y-24130000D01*
X16357600Y-23829245D01*
X16357600Y-23444200D01*
X19516193Y-23444200D01*
X19636835Y-23565053D01*
X19865474Y-23659992D01*
X20113040Y-23660208D01*
X20341844Y-23565668D01*
X20517053Y-23390765D01*
X20517520Y-23389640D01*
X22821792Y-23389640D01*
X22916332Y-23618444D01*
X23091235Y-23793653D01*
X23319874Y-23888592D01*
X23567440Y-23888808D01*
X23796244Y-23794268D01*
X23888708Y-23701966D01*
X23980235Y-23793653D01*
X24208874Y-23888592D01*
X24456440Y-23888808D01*
X24685244Y-23794268D01*
X24860453Y-23619365D01*
X24955392Y-23390726D01*
X24955542Y-23218794D01*
X24968236Y-23206100D01*
X24968098Y-23364240D01*
X25062638Y-23593044D01*
X25237541Y-23768253D01*
X25466180Y-23863192D01*
X25713746Y-23863408D01*
X25942550Y-23768868D01*
X26041362Y-23670228D01*
X26128421Y-23757439D01*
X26357060Y-23852378D01*
X26604626Y-23852594D01*
X26833430Y-23758054D01*
X26961260Y-23630447D01*
X27085921Y-23605651D01*
X27217766Y-23517554D01*
X27403089Y-23332231D01*
X27636121Y-23332230D01*
X27761439Y-23307303D01*
X27842522Y-23503538D01*
X28017425Y-23678747D01*
X28246064Y-23773686D01*
X28493630Y-23773902D01*
X28722434Y-23679362D01*
X28767173Y-23634701D01*
X29425555Y-23634701D01*
X29489398Y-23647400D01*
X31203590Y-23647400D01*
X32934159Y-25377969D01*
X33034949Y-25445315D01*
X32280175Y-26200089D01*
X30825754Y-26200090D01*
X30670231Y-26231025D01*
X30538386Y-26319122D01*
X30225609Y-26631899D01*
X29426046Y-26631899D01*
X29270523Y-26662834D01*
X29138678Y-26750931D01*
X28903553Y-26986056D01*
X28732790Y-26985907D01*
X28503986Y-27080447D01*
X28328777Y-27255350D01*
X28233838Y-27483989D01*
X28233622Y-27731555D01*
X28328162Y-27960359D01*
X28503065Y-28135568D01*
X28731704Y-28230507D01*
X28979270Y-28230723D01*
X29208074Y-28136183D01*
X29357389Y-27987129D01*
X29367932Y-28012644D01*
X29542835Y-28187853D01*
X29771474Y-28282792D01*
X30019040Y-28283008D01*
X30247844Y-28188468D01*
X30375280Y-28061254D01*
X30501917Y-28036065D01*
X30633762Y-27947968D01*
X30715097Y-27866633D01*
X30764932Y-27987244D01*
X30939835Y-28162453D01*
X31168474Y-28257392D01*
X31416040Y-28257608D01*
X31644844Y-28163068D01*
X31766525Y-28041600D01*
X32752400Y-28041600D01*
X32907923Y-28010665D01*
X33039768Y-27922568D01*
X33916565Y-27045771D01*
X34652600Y-27045771D01*
X34765552Y-27024518D01*
X34869292Y-26957763D01*
X34938887Y-26855907D01*
X34963371Y-26735000D01*
X34963371Y-26485000D01*
X34942118Y-26372048D01*
X34935202Y-26361300D01*
X34938887Y-26355907D01*
X34963371Y-26235000D01*
X34963371Y-25985442D01*
X35041241Y-26017776D01*
X35288807Y-26017992D01*
X35517611Y-25923452D01*
X35692820Y-25748549D01*
X35787759Y-25519910D01*
X35787975Y-25272344D01*
X35693435Y-25043540D01*
X35635423Y-24985427D01*
X35731653Y-24889365D01*
X35826592Y-24660726D01*
X35826808Y-24413160D01*
X35732268Y-24184356D01*
X35557365Y-24009147D01*
X35328726Y-23914208D01*
X35081160Y-23913992D01*
X34959471Y-23964273D01*
X34942118Y-23872048D01*
X34935202Y-23861300D01*
X34938887Y-23855907D01*
X34963371Y-23735000D01*
X34963371Y-23485000D01*
X34942118Y-23372048D01*
X34935202Y-23361300D01*
X34938887Y-23355907D01*
X34963371Y-23235000D01*
X34963371Y-22985000D01*
X34942118Y-22872048D01*
X34935202Y-22861300D01*
X34938887Y-22855907D01*
X34963371Y-22735000D01*
X34963371Y-22495003D01*
X35011323Y-22485465D01*
X35143168Y-22397368D01*
X35454898Y-22085638D01*
X35480289Y-22047638D01*
X35542995Y-21953793D01*
X35573930Y-21798270D01*
X35573930Y-21339717D01*
X35694783Y-21219075D01*
X35789722Y-20990436D01*
X35789938Y-20742870D01*
X35695398Y-20514066D01*
X35520495Y-20338857D01*
X35291856Y-20243918D01*
X35044290Y-20243702D01*
X34954059Y-20280985D01*
X34963371Y-20235000D01*
X34963371Y-19985000D01*
X34942118Y-19872048D01*
X34935202Y-19861300D01*
X34938887Y-19855907D01*
X34963371Y-19735000D01*
X34963371Y-19485000D01*
X34942118Y-19372048D01*
X34935202Y-19361300D01*
X34938887Y-19355907D01*
X34963371Y-19235000D01*
X34963371Y-18985000D01*
X34942118Y-18872048D01*
X34875363Y-18768308D01*
X34773507Y-18698713D01*
X34652600Y-18674229D01*
X33652600Y-18674229D01*
X33539648Y-18695482D01*
X33527032Y-18703600D01*
X31800536Y-18703600D01*
X31681768Y-18584832D01*
X31680327Y-18583869D01*
X31549923Y-18496735D01*
X31394400Y-18465800D01*
X28346400Y-18465800D01*
X28190877Y-18496735D01*
X28059032Y-18584832D01*
X26890632Y-19753232D01*
X26852341Y-19810538D01*
X26756000Y-19791029D01*
X24856000Y-19791029D01*
X24743048Y-19812282D01*
X24639308Y-19879037D01*
X24569713Y-19980893D01*
X24545229Y-20101800D01*
X24545229Y-21401800D01*
X24566482Y-21514752D01*
X24586105Y-21545247D01*
X23626732Y-22504620D01*
X23617646Y-22518218D01*
X23491723Y-22644141D01*
X23320960Y-22643992D01*
X23092156Y-22738532D01*
X22916947Y-22913435D01*
X22822008Y-23142074D01*
X22821792Y-23389640D01*
X20517520Y-23389640D01*
X20611992Y-23162126D01*
X20612208Y-22914560D01*
X20596612Y-22876816D01*
X20773644Y-22803668D01*
X20948853Y-22628765D01*
X21043792Y-22400126D01*
X21044008Y-22152560D01*
X20949468Y-21923756D01*
X20774565Y-21748547D01*
X20545926Y-21653608D01*
X20298360Y-21653392D01*
X20069556Y-21747932D01*
X19947875Y-21869400D01*
X17340766Y-21869400D01*
X16773998Y-21302632D01*
X16755665Y-21290382D01*
X16642153Y-21214535D01*
X16486630Y-21183600D01*
X16357600Y-21183600D01*
X16357600Y-19331660D01*
X16363291Y-19317920D01*
X16357600Y-19296853D01*
X16357600Y-18891200D01*
X17616629Y-18891200D01*
X17616629Y-19951200D01*
X17637882Y-20064152D01*
X17704637Y-20167892D01*
X17806493Y-20237487D01*
X17927400Y-20261971D01*
X18577400Y-20261971D01*
X18690352Y-20240718D01*
X18794092Y-20173963D01*
X18863687Y-20072107D01*
X18888171Y-19951200D01*
X18888171Y-18891200D01*
X18866918Y-18778248D01*
X18800163Y-18674508D01*
X18698307Y-18604913D01*
X18577400Y-18580429D01*
X17927400Y-18580429D01*
X17814448Y-18601682D01*
X17710708Y-18668437D01*
X17641113Y-18770293D01*
X17616629Y-18891200D01*
X16357600Y-18891200D01*
X16357600Y-18803147D01*
X16363291Y-18782080D01*
X16357600Y-18768340D01*
X16357600Y-17780000D01*
X16350652Y-17743073D01*
X16328828Y-17709157D01*
X16295528Y-17686405D01*
X16256000Y-17678400D01*
X14324800Y-17678400D01*
X14324800Y-16387568D01*
X14390000Y-16400771D01*
X16090000Y-16400771D01*
X16161448Y-16387327D01*
X16200310Y-16445488D01*
X17299311Y-17544489D01*
X17447637Y-17643598D01*
X17616629Y-17677212D01*
X17616629Y-17751200D01*
X17637882Y-17864152D01*
X17704637Y-17967892D01*
X17806493Y-18037487D01*
X17927400Y-18061971D01*
X18577400Y-18061971D01*
X18690352Y-18040718D01*
X18726849Y-18017232D01*
X18756493Y-18037487D01*
X18814879Y-18049310D01*
X18826935Y-18109923D01*
X18894898Y-18211636D01*
X18915032Y-18241768D01*
X19067433Y-18394170D01*
X19199279Y-18482267D01*
X19354801Y-18513201D01*
X19789815Y-18513201D01*
X19776935Y-18532477D01*
X19765064Y-18592158D01*
X19714448Y-18601682D01*
X19610708Y-18668437D01*
X19541113Y-18770293D01*
X19516629Y-18891200D01*
X19516629Y-19198489D01*
X19471735Y-19265677D01*
X19466811Y-19290434D01*
X19388184Y-19290365D01*
X19159380Y-19384905D01*
X18984171Y-19559808D01*
X18889232Y-19788447D01*
X18889016Y-20036013D01*
X18983556Y-20264817D01*
X19158459Y-20440026D01*
X19387098Y-20534965D01*
X19634664Y-20535181D01*
X19863468Y-20440641D01*
X20038677Y-20265738D01*
X20040241Y-20261971D01*
X20477400Y-20261971D01*
X20590352Y-20240718D01*
X20694092Y-20173963D01*
X20743398Y-20101800D01*
X21345229Y-20101800D01*
X21345229Y-21401800D01*
X21366482Y-21514752D01*
X21433237Y-21618492D01*
X21535093Y-21688087D01*
X21656000Y-21712571D01*
X23556000Y-21712571D01*
X23668952Y-21691318D01*
X23772692Y-21624563D01*
X23842287Y-21522707D01*
X23866771Y-21401800D01*
X23866771Y-20101800D01*
X23845518Y-19988848D01*
X23778763Y-19885108D01*
X23676907Y-19815513D01*
X23556000Y-19791029D01*
X21656000Y-19791029D01*
X21543048Y-19812282D01*
X21439308Y-19879037D01*
X21369713Y-19980893D01*
X21345229Y-20101800D01*
X20743398Y-20101800D01*
X20763687Y-20072107D01*
X20788171Y-19951200D01*
X20788171Y-18919611D01*
X23631087Y-18919611D01*
X23631084Y-18922748D01*
X23725624Y-19151552D01*
X23900527Y-19326761D01*
X24129166Y-19421700D01*
X24376732Y-19421916D01*
X24605536Y-19327376D01*
X24780745Y-19152473D01*
X24821777Y-19053656D01*
X24996274Y-19126113D01*
X25243840Y-19126329D01*
X25472644Y-19031789D01*
X25647853Y-18856886D01*
X25742792Y-18628247D01*
X25743008Y-18380681D01*
X25648468Y-18151877D01*
X25473565Y-17976668D01*
X25244926Y-17881729D01*
X25072994Y-17881579D01*
X25010848Y-17819433D01*
X24998125Y-17810932D01*
X24879003Y-17731336D01*
X24723480Y-17700401D01*
X20788171Y-17700401D01*
X20788171Y-17145077D01*
X20836816Y-17145119D01*
X21088967Y-17040932D01*
X21282054Y-16848182D01*
X21386681Y-16596213D01*
X21386919Y-16323384D01*
X21282732Y-16071233D01*
X21198359Y-15986713D01*
X21386896Y-15704547D01*
X21474800Y-15262624D01*
X21474800Y-15217376D01*
X21386896Y-14775453D01*
X21163287Y-14440799D01*
X22016713Y-14440799D01*
X21793104Y-14775453D01*
X21705200Y-15217376D01*
X21705200Y-15262624D01*
X21793104Y-15704547D01*
X22043433Y-16079191D01*
X22418077Y-16329520D01*
X22860000Y-16417424D01*
X23301923Y-16329520D01*
X23676567Y-16079191D01*
X23926896Y-15704547D01*
X24014800Y-15262624D01*
X24014800Y-15217376D01*
X23988600Y-15085659D01*
X23992987Y-15087481D01*
X24265816Y-15087719D01*
X24271454Y-15085390D01*
X24245200Y-15217376D01*
X24245200Y-15262624D01*
X24333104Y-15704547D01*
X24583433Y-16079191D01*
X24958077Y-16329520D01*
X25400000Y-16417424D01*
X25841923Y-16329520D01*
X25885600Y-16300336D01*
X26046981Y-16461717D01*
X26046788Y-16683236D01*
X26141328Y-16912040D01*
X26316231Y-17087249D01*
X26544870Y-17182188D01*
X26792436Y-17182404D01*
X27021240Y-17087864D01*
X27196449Y-16912961D01*
X27291388Y-16684322D01*
X27291462Y-16599372D01*
X35672800Y-16599372D01*
X35672800Y-16994900D01*
X35749000Y-17071100D01*
X36040100Y-17071100D01*
X36040100Y-16431400D01*
X35963900Y-16355200D01*
X35916971Y-16355200D01*
X35804944Y-16401603D01*
X35719203Y-16487345D01*
X35672800Y-16599372D01*
X27291462Y-16599372D01*
X27291604Y-16436756D01*
X27197064Y-16207952D01*
X27022161Y-16032743D01*
X26793522Y-15937804D01*
X26672434Y-15937698D01*
X26455836Y-15721100D01*
X26466896Y-15704547D01*
X26554800Y-15262624D01*
X26554800Y-15217376D01*
X26785200Y-15217376D01*
X26785200Y-15262624D01*
X26873104Y-15704547D01*
X27123433Y-16079191D01*
X27498077Y-16329520D01*
X27940000Y-16417424D01*
X28381923Y-16329520D01*
X28756567Y-16079191D01*
X29006896Y-15704547D01*
X29094800Y-15262624D01*
X29094800Y-15217376D01*
X29325200Y-15217376D01*
X29325200Y-15262624D01*
X29413104Y-15704547D01*
X29663433Y-16079191D01*
X30038077Y-16329520D01*
X30480000Y-16417424D01*
X30921923Y-16329520D01*
X31296567Y-16079191D01*
X31546896Y-15704547D01*
X31634800Y-15262624D01*
X31634800Y-15217376D01*
X31865200Y-15217376D01*
X31865200Y-15262624D01*
X31953104Y-15704547D01*
X32203433Y-16079191D01*
X32578077Y-16329520D01*
X33020000Y-16417424D01*
X33461923Y-16329520D01*
X33836567Y-16079191D01*
X34086896Y-15704547D01*
X34174800Y-15262624D01*
X34174800Y-15217376D01*
X34405200Y-15217376D01*
X34405200Y-15262624D01*
X34493104Y-15704547D01*
X34743433Y-16079191D01*
X35118077Y-16329520D01*
X35560000Y-16417424D01*
X36001923Y-16329520D01*
X36376567Y-16079191D01*
X36626896Y-15704547D01*
X36714800Y-15262624D01*
X36714800Y-15217376D01*
X36626896Y-14775453D01*
X36376567Y-14400809D01*
X36001923Y-14150480D01*
X35560000Y-14062576D01*
X35118077Y-14150480D01*
X34743433Y-14400809D01*
X34493104Y-14775453D01*
X34405200Y-15217376D01*
X34174800Y-15217376D01*
X34086896Y-14775453D01*
X33836567Y-14400809D01*
X33461923Y-14150480D01*
X33020000Y-14062576D01*
X32578077Y-14150480D01*
X32203433Y-14400809D01*
X31953104Y-14775453D01*
X31865200Y-15217376D01*
X31634800Y-15217376D01*
X31546896Y-14775453D01*
X31296567Y-14400809D01*
X30921923Y-14150480D01*
X30480000Y-14062576D01*
X30038077Y-14150480D01*
X29663433Y-14400809D01*
X29413104Y-14775453D01*
X29325200Y-15217376D01*
X29094800Y-15217376D01*
X29006896Y-14775453D01*
X28756567Y-14400809D01*
X28381923Y-14150480D01*
X27940000Y-14062576D01*
X27498077Y-14150480D01*
X27123433Y-14400809D01*
X26873104Y-14775453D01*
X26785200Y-15217376D01*
X26554800Y-15217376D01*
X26466896Y-14775453D01*
X26216567Y-14400809D01*
X25841923Y-14150480D01*
X25400000Y-14062576D01*
X24958077Y-14150480D01*
X24809276Y-14249906D01*
X24711732Y-14013833D01*
X24518982Y-13820746D01*
X24267013Y-13716119D01*
X24090743Y-13715965D01*
X24035088Y-13660310D01*
X23886762Y-13561201D01*
X23711799Y-13526399D01*
X17176927Y-13526399D01*
X17001964Y-13561201D01*
X16853638Y-13660310D01*
X16323678Y-14190270D01*
X16312763Y-14173308D01*
X16210907Y-14103713D01*
X16090000Y-14079229D01*
X14390000Y-14079229D01*
X14324800Y-14091497D01*
X14324800Y-13054800D01*
X64415200Y-13054800D01*
X64415200Y-14548424D01*
M02*
