M48
;DRILL file {KiCad 4.0.6} date 10/14/17 17:52:08
;FORMAT={2:4/ absolute / inch / keep zeros}
FMAT,2
INCH,TZ
T1C0.012
T2C0.020
T3C0.022
T4C0.031
T5C0.039
%
G90
G05
M72
T1
X006800Y-008000
X006800Y-008380
X007421Y-006345
X007550Y-010650
X007682Y-007840
X007700Y-010100
X007870Y-009070
X008040Y-008770
X008150Y-006480
X008734Y-010718
X009230Y-009160
X009500Y-005670
X009549Y-007401
X009580Y-009160
X009650Y-010360
X009890Y-007285
X010075Y-009150
X010320Y-010720
X010426Y-009146
X010500Y-006520
X011169Y-009115
X011361Y-010869
X011420Y-008900
X011770Y-010890
X012320Y-010880
X012724Y-008599
X013050Y-009000
X013404Y-006876
X013845Y-009998
X013845Y-008215
X013860Y-009660
X014140Y-007370
X014220Y-010842
X014450Y-007530
X014599Y-010810
X014673Y-007810
X015040Y-008280
X015253Y-007549
X015260Y-008060
X015290Y-010680
X015583Y-007530
X015587Y-010506
X015602Y-010836
X015626Y-008866
X015851Y-008641
X015924Y-007524
X016217Y-007337
X016334Y-010458
X016520Y-009700
X016536Y-007158
X016649Y-010556
X016720Y-007470
X016770Y-008750
X016866Y-007153
X016981Y-010533
X017510Y-005680
X017535Y-008230
X017538Y-007623
X017543Y-010775
X017860Y-007340
X020280Y-008640
X020290Y-007730
X020800Y-007220
X020810Y-007890
X020850Y-007550
X021790Y-008610
X021800Y-010050
X022440Y-007890
X022500Y-005690
X022610Y-009700
X023130Y-008280
X023300Y-011160
X023340Y-007430
X023370Y-009050
X023460Y-008660
X024270Y-009200
X024294Y-009902
X024312Y-009527
X024428Y-008628
X024850Y-007250
T4
X011670Y-008049
X011670Y-009970
T5
X006000Y-006000
X006000Y-007500
X006000Y-008500
X006000Y-009500
X006000Y-010500
X006000Y-012000
X007000Y-006000
X007000Y-012000
X008000Y-006000
X008000Y-012000
X009000Y-006000
X009000Y-012000
X010000Y-006000
X010000Y-012000
X011000Y-006000
X011000Y-012000
X012000Y-006000
X012000Y-012000
X013000Y-006000
X013000Y-012000
X014000Y-006000
X014000Y-012000
X015000Y-006000
X015000Y-012000
X016000Y-006000
X016000Y-012000
X017000Y-006000
X017000Y-012000
X018000Y-006000
X018000Y-012000
X019000Y-006000
X019000Y-012000
X020000Y-006000
X020000Y-009750
X020000Y-010750
X020000Y-012000
X021000Y-006000
X021000Y-009750
X021000Y-010750
X021000Y-012000
X022000Y-006000
X022000Y-012000
X023000Y-006000
X023000Y-012000
X024000Y-006000
X024000Y-012000
X025000Y-006000
X025000Y-012000
T2
X024812Y-007832G85X025068Y-007832
G05
X024812Y-010588G85X025068Y-010588
G05
T3
X023877Y-008285G85X023877Y-008167
G05
X023877Y-010253G85X023877Y-010135
G05
T0
M30
