G04 #@! TF.FileFunction,Paste,Bot*
%FSLAX46Y46*%
G04 Gerber Fmt 4.6, Leading zero omitted, Abs format (unit mm)*
G04 Created by KiCad (PCBNEW 4.0.6) date 10/14/17 17:52:05*
%MOMM*%
%LPD*%
G01*
G04 APERTURE LIST*
%ADD10C,0.150000*%
%ADD11R,0.750000X0.800000*%
%ADD12R,0.500000X0.900000*%
%ADD13R,0.900000X0.500000*%
%ADD14R,0.800000X0.750000*%
%ADD15R,0.650000X1.060000*%
G04 APERTURE END LIST*
D10*
D11*
X61645800Y-17346800D03*
X61645800Y-18846800D03*
D12*
X59664600Y-20904200D03*
X58164600Y-20904200D03*
D11*
X43662600Y-25855800D03*
X43662600Y-27355800D03*
D13*
X63855600Y-22479000D03*
X63855600Y-23979000D03*
D12*
X61468000Y-28346400D03*
X59968000Y-28346400D03*
X56846600Y-24663400D03*
X55346600Y-24663400D03*
X49022000Y-23876000D03*
X47522000Y-23876000D03*
D13*
X62509400Y-22479000D03*
X62509400Y-23979000D03*
D14*
X24714200Y-27929840D03*
X26214200Y-27929840D03*
D11*
X31089600Y-23291800D03*
X31089600Y-24791800D03*
X31089600Y-22353400D03*
X31089600Y-20853400D03*
D12*
X20423000Y-27940000D03*
X18923000Y-27940000D03*
D11*
X16967200Y-23623400D03*
X16967200Y-22123400D03*
D14*
X37515800Y-28549600D03*
X36015800Y-28549600D03*
D11*
X50901600Y-21439000D03*
X50901600Y-19939000D03*
D14*
X34593400Y-18034000D03*
X36093400Y-18034000D03*
D11*
X34239200Y-25577800D03*
X34239200Y-24077800D03*
X45440600Y-21132800D03*
X45440600Y-19632800D03*
D14*
X23674200Y-27929840D03*
X22174200Y-27929840D03*
D12*
X47522000Y-25400000D03*
X49022000Y-25400000D03*
D15*
X58298000Y-17221200D03*
X59248000Y-17221200D03*
X60198000Y-17221200D03*
X60198000Y-19421200D03*
X58298000Y-19421200D03*
D11*
X56515000Y-17296000D03*
X56515000Y-18796000D03*
D14*
X19023200Y-17221200D03*
X20523200Y-17221200D03*
D11*
X17449800Y-17272000D03*
X17449800Y-18772000D03*
D14*
X20523200Y-19024600D03*
X19023200Y-19024600D03*
D11*
X55245000Y-18796000D03*
X55245000Y-17296000D03*
X33070800Y-25591200D03*
X33070800Y-24091200D03*
X46761400Y-19634200D03*
X46761400Y-21134200D03*
X45212000Y-27357200D03*
X45212000Y-25857200D03*
M02*
