G04 #@! TF.FileFunction,Soldermask,Top*
%FSLAX46Y46*%
G04 Gerber Fmt 4.6, Leading zero omitted, Abs format (unit mm)*
G04 Created by KiCad (PCBNEW 4.0.6) date 10/14/17 17:52:06*
%MOMM*%
%LPD*%
G01*
G04 APERTURE LIST*
%ADD10C,0.150000*%
%ADD11R,1.700000X1.700000*%
%ADD12O,1.700000X1.700000*%
%ADD13R,1.000000X0.250000*%
%ADD14R,0.250000X1.000000*%
%ADD15R,1.350000X0.400000*%
%ADD16O,0.950000X1.250000*%
%ADD17O,1.550000X0.900000*%
%ADD18R,1.550000X0.750000*%
%ADD19R,0.200000X0.450000*%
%ADD20R,0.250000X0.200000*%
%ADD21R,1.550000X1.500000*%
%ADD22C,1.500000*%
%ADD23R,0.650000X1.060000*%
%ADD24R,1.000000X0.600000*%
%ADD25R,1.200000X1.200000*%
%ADD26R,1.900000X1.300000*%
G04 APERTURE END LIST*
D10*
D11*
X15240000Y-15240000D03*
D12*
X17780000Y-15240000D03*
X20320000Y-15240000D03*
X22860000Y-15240000D03*
X25400000Y-15240000D03*
X27940000Y-15240000D03*
X30480000Y-15240000D03*
X33020000Y-15240000D03*
X35560000Y-15240000D03*
X38100000Y-15240000D03*
X40640000Y-15240000D03*
X43180000Y-15240000D03*
X45720000Y-15240000D03*
X48260000Y-15240000D03*
X50800000Y-15240000D03*
X53340000Y-15240000D03*
X55880000Y-15240000D03*
X58420000Y-15240000D03*
X60960000Y-15240000D03*
X63500000Y-15240000D03*
D13*
X34152600Y-19110000D03*
X34152600Y-19610000D03*
X34152600Y-20110000D03*
X34152600Y-20610000D03*
X34152600Y-21110000D03*
X34152600Y-21610000D03*
X34152600Y-22110000D03*
X34152600Y-22610000D03*
X34152600Y-23110000D03*
X34152600Y-23610000D03*
X34152600Y-24110000D03*
X34152600Y-24610000D03*
X34152600Y-25110000D03*
X34152600Y-25610000D03*
X34152600Y-26110000D03*
X34152600Y-26610000D03*
D14*
X36102600Y-28560000D03*
X36602600Y-28560000D03*
X37102600Y-28560000D03*
X37602600Y-28560000D03*
X38102600Y-28560000D03*
X38602600Y-28560000D03*
X39102600Y-28560000D03*
X39602600Y-28560000D03*
X40102600Y-28560000D03*
X40602600Y-28560000D03*
X41102600Y-28560000D03*
X41602600Y-28560000D03*
X42102600Y-28560000D03*
X42602600Y-28560000D03*
X43102600Y-28560000D03*
X43602600Y-28560000D03*
D13*
X45552600Y-26610000D03*
X45552600Y-26110000D03*
X45552600Y-25610000D03*
X45552600Y-25110000D03*
X45552600Y-24610000D03*
X45552600Y-24110000D03*
X45552600Y-23610000D03*
X45552600Y-23110000D03*
X45552600Y-22610000D03*
X45552600Y-22110000D03*
X45552600Y-21610000D03*
X45552600Y-21110000D03*
X45552600Y-20610000D03*
X45552600Y-20110000D03*
X45552600Y-19610000D03*
X45552600Y-19110000D03*
D14*
X43602600Y-17160000D03*
X43102600Y-17160000D03*
X42602600Y-17160000D03*
X42102600Y-17160000D03*
X41602600Y-17160000D03*
X41102600Y-17160000D03*
X40602600Y-17160000D03*
X40102600Y-17160000D03*
X39602600Y-17160000D03*
X39102600Y-17160000D03*
X38602600Y-17160000D03*
X38102600Y-17160000D03*
X37602600Y-17160000D03*
X37102600Y-17160000D03*
X36602600Y-17160000D03*
X36102600Y-17160000D03*
D15*
X60647600Y-23393400D03*
X60647600Y-22743400D03*
X60647600Y-22093400D03*
X60647600Y-24043400D03*
X60647600Y-24693400D03*
D16*
X60647600Y-25893400D03*
X60647600Y-20893400D03*
D17*
X63347600Y-26893400D03*
X63347600Y-19893400D03*
D18*
X63347600Y-26068400D03*
D19*
X62672600Y-26668400D03*
D20*
X62897600Y-26543400D03*
X63797600Y-26543400D03*
D19*
X64022600Y-26668400D03*
X62672600Y-20118400D03*
D20*
X62897600Y-20243400D03*
X63797600Y-20243400D03*
D19*
X64022600Y-20118400D03*
D21*
X63347600Y-22393400D03*
X63347600Y-24393400D03*
D18*
X63347600Y-20718400D03*
D22*
X29641800Y-20443800D03*
X29641800Y-25323800D03*
D23*
X20152400Y-17221200D03*
X19202400Y-17221200D03*
X18252400Y-17221200D03*
X18252400Y-19421200D03*
X20152400Y-19421200D03*
D11*
X53340000Y-24765000D03*
D12*
X53340000Y-27305000D03*
X50800000Y-24765000D03*
X50800000Y-27305000D03*
D24*
X56896000Y-18846800D03*
X50896000Y-22546800D03*
X56896000Y-22546800D03*
X50896000Y-18846800D03*
D25*
X17866000Y-27940000D03*
X20066000Y-27940000D03*
D11*
X15240000Y-26670000D03*
D12*
X15240000Y-24130000D03*
X15240000Y-21590000D03*
X15240000Y-19050000D03*
D11*
X63500000Y-30480000D03*
D12*
X60960000Y-30480000D03*
X58420000Y-30480000D03*
X55880000Y-30480000D03*
X53340000Y-30480000D03*
X50800000Y-30480000D03*
X48260000Y-30480000D03*
X45720000Y-30480000D03*
X43180000Y-30480000D03*
X40640000Y-30480000D03*
X38100000Y-30480000D03*
X35560000Y-30480000D03*
X33020000Y-30480000D03*
X30480000Y-30480000D03*
X27940000Y-30480000D03*
X25400000Y-30480000D03*
X22860000Y-30480000D03*
X20320000Y-30480000D03*
X17780000Y-30480000D03*
X15240000Y-30480000D03*
D25*
X57912000Y-28346400D03*
X60112000Y-28346400D03*
D26*
X25806000Y-26251800D03*
X25806000Y-20751800D03*
X22606000Y-20751800D03*
X22606000Y-26251800D03*
M02*
