G75*
%MOIN*%
%OFA0B0*%
%FSLAX25Y25*%
%IPPOS*%
%LPD*%
%AMOC8*
5,1,8,0,0,1.08239X$1,22.5*
%
%ADD10C,0.00000*%
D10*
X0185000Y0255000D02*
X0185000Y0284843D01*
X0204882Y0284843D01*
X0204882Y0315157D01*
X0185000Y0315157D01*
X0185000Y0345000D01*
X0395000Y0345000D01*
X0395000Y0255000D01*
X0185000Y0255000D01*
X0190118Y0279331D02*
X0193661Y0279331D01*
X0195236Y0280906D02*
X0195234Y0280983D01*
X0195228Y0281060D01*
X0195219Y0281137D01*
X0195206Y0281213D01*
X0195189Y0281289D01*
X0195168Y0281363D01*
X0195144Y0281437D01*
X0195116Y0281509D01*
X0195085Y0281579D01*
X0195050Y0281648D01*
X0195012Y0281716D01*
X0194971Y0281781D01*
X0194926Y0281844D01*
X0194878Y0281905D01*
X0194828Y0281964D01*
X0194775Y0282020D01*
X0194719Y0282073D01*
X0194660Y0282123D01*
X0194599Y0282171D01*
X0194536Y0282216D01*
X0194471Y0282257D01*
X0194403Y0282295D01*
X0194334Y0282330D01*
X0194264Y0282361D01*
X0194192Y0282389D01*
X0194118Y0282413D01*
X0194044Y0282434D01*
X0193968Y0282451D01*
X0193892Y0282464D01*
X0193815Y0282473D01*
X0193738Y0282479D01*
X0193661Y0282481D01*
X0193661Y0282480D02*
X0190118Y0282480D01*
X0188543Y0280906D02*
X0188545Y0280829D01*
X0188551Y0280752D01*
X0188560Y0280675D01*
X0188573Y0280599D01*
X0188590Y0280523D01*
X0188611Y0280449D01*
X0188635Y0280375D01*
X0188663Y0280303D01*
X0188694Y0280233D01*
X0188729Y0280164D01*
X0188767Y0280096D01*
X0188808Y0280031D01*
X0188853Y0279968D01*
X0188901Y0279907D01*
X0188951Y0279848D01*
X0189004Y0279792D01*
X0189060Y0279739D01*
X0189119Y0279689D01*
X0189180Y0279641D01*
X0189243Y0279596D01*
X0189308Y0279555D01*
X0189376Y0279517D01*
X0189445Y0279482D01*
X0189515Y0279451D01*
X0189587Y0279423D01*
X0189661Y0279399D01*
X0189735Y0279378D01*
X0189811Y0279361D01*
X0189887Y0279348D01*
X0189964Y0279339D01*
X0190041Y0279333D01*
X0190118Y0279331D01*
X0188543Y0280906D02*
X0188545Y0280983D01*
X0188551Y0281060D01*
X0188560Y0281137D01*
X0188573Y0281213D01*
X0188590Y0281289D01*
X0188611Y0281363D01*
X0188635Y0281437D01*
X0188663Y0281509D01*
X0188694Y0281579D01*
X0188729Y0281648D01*
X0188767Y0281716D01*
X0188808Y0281781D01*
X0188853Y0281844D01*
X0188901Y0281905D01*
X0188951Y0281964D01*
X0189004Y0282020D01*
X0189060Y0282073D01*
X0189119Y0282123D01*
X0189180Y0282171D01*
X0189243Y0282216D01*
X0189308Y0282257D01*
X0189376Y0282295D01*
X0189445Y0282330D01*
X0189515Y0282361D01*
X0189587Y0282389D01*
X0189661Y0282413D01*
X0189735Y0282434D01*
X0189811Y0282451D01*
X0189887Y0282464D01*
X0189964Y0282473D01*
X0190041Y0282479D01*
X0190118Y0282481D01*
X0193661Y0279331D02*
X0193738Y0279333D01*
X0193815Y0279339D01*
X0193892Y0279348D01*
X0193968Y0279361D01*
X0194044Y0279378D01*
X0194118Y0279399D01*
X0194192Y0279423D01*
X0194264Y0279451D01*
X0194334Y0279482D01*
X0194403Y0279517D01*
X0194471Y0279555D01*
X0194536Y0279596D01*
X0194599Y0279641D01*
X0194660Y0279689D01*
X0194719Y0279739D01*
X0194775Y0279792D01*
X0194828Y0279848D01*
X0194878Y0279907D01*
X0194926Y0279968D01*
X0194971Y0280031D01*
X0195012Y0280096D01*
X0195050Y0280164D01*
X0195085Y0280233D01*
X0195116Y0280303D01*
X0195144Y0280375D01*
X0195168Y0280449D01*
X0195189Y0280523D01*
X0195206Y0280599D01*
X0195219Y0280675D01*
X0195228Y0280752D01*
X0195234Y0280829D01*
X0195236Y0280906D01*
X0201535Y0280906D02*
X0201537Y0280829D01*
X0201543Y0280752D01*
X0201552Y0280675D01*
X0201565Y0280599D01*
X0201582Y0280523D01*
X0201603Y0280449D01*
X0201627Y0280375D01*
X0201655Y0280303D01*
X0201686Y0280233D01*
X0201721Y0280164D01*
X0201759Y0280096D01*
X0201800Y0280031D01*
X0201845Y0279968D01*
X0201893Y0279907D01*
X0201943Y0279848D01*
X0201996Y0279792D01*
X0202052Y0279739D01*
X0202111Y0279689D01*
X0202172Y0279641D01*
X0202235Y0279596D01*
X0202300Y0279555D01*
X0202368Y0279517D01*
X0202437Y0279482D01*
X0202507Y0279451D01*
X0202579Y0279423D01*
X0202653Y0279399D01*
X0202727Y0279378D01*
X0202803Y0279361D01*
X0202879Y0279348D01*
X0202956Y0279339D01*
X0203033Y0279333D01*
X0203110Y0279331D01*
X0206654Y0279331D01*
X0208229Y0280906D02*
X0208227Y0280983D01*
X0208221Y0281060D01*
X0208212Y0281137D01*
X0208199Y0281213D01*
X0208182Y0281289D01*
X0208161Y0281363D01*
X0208137Y0281437D01*
X0208109Y0281509D01*
X0208078Y0281579D01*
X0208043Y0281648D01*
X0208005Y0281716D01*
X0207964Y0281781D01*
X0207919Y0281844D01*
X0207871Y0281905D01*
X0207821Y0281964D01*
X0207768Y0282020D01*
X0207712Y0282073D01*
X0207653Y0282123D01*
X0207592Y0282171D01*
X0207529Y0282216D01*
X0207464Y0282257D01*
X0207396Y0282295D01*
X0207327Y0282330D01*
X0207257Y0282361D01*
X0207185Y0282389D01*
X0207111Y0282413D01*
X0207037Y0282434D01*
X0206961Y0282451D01*
X0206885Y0282464D01*
X0206808Y0282473D01*
X0206731Y0282479D01*
X0206654Y0282481D01*
X0206654Y0282480D02*
X0203110Y0282480D01*
X0203110Y0282481D02*
X0203033Y0282479D01*
X0202956Y0282473D01*
X0202879Y0282464D01*
X0202803Y0282451D01*
X0202727Y0282434D01*
X0202653Y0282413D01*
X0202579Y0282389D01*
X0202507Y0282361D01*
X0202437Y0282330D01*
X0202368Y0282295D01*
X0202300Y0282257D01*
X0202235Y0282216D01*
X0202172Y0282171D01*
X0202111Y0282123D01*
X0202052Y0282073D01*
X0201996Y0282020D01*
X0201943Y0281964D01*
X0201893Y0281905D01*
X0201845Y0281844D01*
X0201800Y0281781D01*
X0201759Y0281716D01*
X0201721Y0281648D01*
X0201686Y0281579D01*
X0201655Y0281509D01*
X0201627Y0281437D01*
X0201603Y0281363D01*
X0201582Y0281289D01*
X0201565Y0281213D01*
X0201552Y0281137D01*
X0201543Y0281060D01*
X0201537Y0280983D01*
X0201535Y0280906D01*
X0206654Y0279331D02*
X0206731Y0279333D01*
X0206808Y0279339D01*
X0206885Y0279348D01*
X0206961Y0279361D01*
X0207037Y0279378D01*
X0207111Y0279399D01*
X0207185Y0279423D01*
X0207257Y0279451D01*
X0207327Y0279482D01*
X0207396Y0279517D01*
X0207464Y0279555D01*
X0207529Y0279596D01*
X0207592Y0279641D01*
X0207653Y0279689D01*
X0207712Y0279739D01*
X0207768Y0279792D01*
X0207821Y0279848D01*
X0207871Y0279907D01*
X0207919Y0279968D01*
X0207964Y0280031D01*
X0208005Y0280096D01*
X0208043Y0280164D01*
X0208078Y0280233D01*
X0208109Y0280303D01*
X0208137Y0280375D01*
X0208161Y0280449D01*
X0208182Y0280523D01*
X0208199Y0280599D01*
X0208212Y0280675D01*
X0208221Y0280752D01*
X0208227Y0280829D01*
X0208229Y0280906D01*
X0206654Y0317520D02*
X0203110Y0317520D01*
X0203110Y0317519D02*
X0203033Y0317521D01*
X0202956Y0317527D01*
X0202879Y0317536D01*
X0202803Y0317549D01*
X0202727Y0317566D01*
X0202653Y0317587D01*
X0202579Y0317611D01*
X0202507Y0317639D01*
X0202437Y0317670D01*
X0202368Y0317705D01*
X0202300Y0317743D01*
X0202235Y0317784D01*
X0202172Y0317829D01*
X0202111Y0317877D01*
X0202052Y0317927D01*
X0201996Y0317980D01*
X0201943Y0318036D01*
X0201893Y0318095D01*
X0201845Y0318156D01*
X0201800Y0318219D01*
X0201759Y0318284D01*
X0201721Y0318352D01*
X0201686Y0318421D01*
X0201655Y0318491D01*
X0201627Y0318563D01*
X0201603Y0318637D01*
X0201582Y0318711D01*
X0201565Y0318787D01*
X0201552Y0318863D01*
X0201543Y0318940D01*
X0201537Y0319017D01*
X0201535Y0319094D01*
X0201537Y0319171D01*
X0201543Y0319248D01*
X0201552Y0319325D01*
X0201565Y0319401D01*
X0201582Y0319477D01*
X0201603Y0319551D01*
X0201627Y0319625D01*
X0201655Y0319697D01*
X0201686Y0319767D01*
X0201721Y0319836D01*
X0201759Y0319904D01*
X0201800Y0319969D01*
X0201845Y0320032D01*
X0201893Y0320093D01*
X0201943Y0320152D01*
X0201996Y0320208D01*
X0202052Y0320261D01*
X0202111Y0320311D01*
X0202172Y0320359D01*
X0202235Y0320404D01*
X0202300Y0320445D01*
X0202368Y0320483D01*
X0202437Y0320518D01*
X0202507Y0320549D01*
X0202579Y0320577D01*
X0202653Y0320601D01*
X0202727Y0320622D01*
X0202803Y0320639D01*
X0202879Y0320652D01*
X0202956Y0320661D01*
X0203033Y0320667D01*
X0203110Y0320669D01*
X0206654Y0320669D01*
X0206731Y0320667D01*
X0206808Y0320661D01*
X0206885Y0320652D01*
X0206961Y0320639D01*
X0207037Y0320622D01*
X0207111Y0320601D01*
X0207185Y0320577D01*
X0207257Y0320549D01*
X0207327Y0320518D01*
X0207396Y0320483D01*
X0207464Y0320445D01*
X0207529Y0320404D01*
X0207592Y0320359D01*
X0207653Y0320311D01*
X0207712Y0320261D01*
X0207768Y0320208D01*
X0207821Y0320152D01*
X0207871Y0320093D01*
X0207919Y0320032D01*
X0207964Y0319969D01*
X0208005Y0319904D01*
X0208043Y0319836D01*
X0208078Y0319767D01*
X0208109Y0319697D01*
X0208137Y0319625D01*
X0208161Y0319551D01*
X0208182Y0319477D01*
X0208199Y0319401D01*
X0208212Y0319325D01*
X0208221Y0319248D01*
X0208227Y0319171D01*
X0208229Y0319094D01*
X0208227Y0319017D01*
X0208221Y0318940D01*
X0208212Y0318863D01*
X0208199Y0318787D01*
X0208182Y0318711D01*
X0208161Y0318637D01*
X0208137Y0318563D01*
X0208109Y0318491D01*
X0208078Y0318421D01*
X0208043Y0318352D01*
X0208005Y0318284D01*
X0207964Y0318219D01*
X0207919Y0318156D01*
X0207871Y0318095D01*
X0207821Y0318036D01*
X0207768Y0317980D01*
X0207712Y0317927D01*
X0207653Y0317877D01*
X0207592Y0317829D01*
X0207529Y0317784D01*
X0207464Y0317743D01*
X0207396Y0317705D01*
X0207327Y0317670D01*
X0207257Y0317639D01*
X0207185Y0317611D01*
X0207111Y0317587D01*
X0207037Y0317566D01*
X0206961Y0317549D01*
X0206885Y0317536D01*
X0206808Y0317527D01*
X0206731Y0317521D01*
X0206654Y0317519D01*
X0193661Y0317520D02*
X0190118Y0317520D01*
X0190118Y0317519D02*
X0190041Y0317521D01*
X0189964Y0317527D01*
X0189887Y0317536D01*
X0189811Y0317549D01*
X0189735Y0317566D01*
X0189661Y0317587D01*
X0189587Y0317611D01*
X0189515Y0317639D01*
X0189445Y0317670D01*
X0189376Y0317705D01*
X0189308Y0317743D01*
X0189243Y0317784D01*
X0189180Y0317829D01*
X0189119Y0317877D01*
X0189060Y0317927D01*
X0189004Y0317980D01*
X0188951Y0318036D01*
X0188901Y0318095D01*
X0188853Y0318156D01*
X0188808Y0318219D01*
X0188767Y0318284D01*
X0188729Y0318352D01*
X0188694Y0318421D01*
X0188663Y0318491D01*
X0188635Y0318563D01*
X0188611Y0318637D01*
X0188590Y0318711D01*
X0188573Y0318787D01*
X0188560Y0318863D01*
X0188551Y0318940D01*
X0188545Y0319017D01*
X0188543Y0319094D01*
X0188545Y0319171D01*
X0188551Y0319248D01*
X0188560Y0319325D01*
X0188573Y0319401D01*
X0188590Y0319477D01*
X0188611Y0319551D01*
X0188635Y0319625D01*
X0188663Y0319697D01*
X0188694Y0319767D01*
X0188729Y0319836D01*
X0188767Y0319904D01*
X0188808Y0319969D01*
X0188853Y0320032D01*
X0188901Y0320093D01*
X0188951Y0320152D01*
X0189004Y0320208D01*
X0189060Y0320261D01*
X0189119Y0320311D01*
X0189180Y0320359D01*
X0189243Y0320404D01*
X0189308Y0320445D01*
X0189376Y0320483D01*
X0189445Y0320518D01*
X0189515Y0320549D01*
X0189587Y0320577D01*
X0189661Y0320601D01*
X0189735Y0320622D01*
X0189811Y0320639D01*
X0189887Y0320652D01*
X0189964Y0320661D01*
X0190041Y0320667D01*
X0190118Y0320669D01*
X0193661Y0320669D01*
X0193738Y0320667D01*
X0193815Y0320661D01*
X0193892Y0320652D01*
X0193968Y0320639D01*
X0194044Y0320622D01*
X0194118Y0320601D01*
X0194192Y0320577D01*
X0194264Y0320549D01*
X0194334Y0320518D01*
X0194403Y0320483D01*
X0194471Y0320445D01*
X0194536Y0320404D01*
X0194599Y0320359D01*
X0194660Y0320311D01*
X0194719Y0320261D01*
X0194775Y0320208D01*
X0194828Y0320152D01*
X0194878Y0320093D01*
X0194926Y0320032D01*
X0194971Y0319969D01*
X0195012Y0319904D01*
X0195050Y0319836D01*
X0195085Y0319767D01*
X0195116Y0319697D01*
X0195144Y0319625D01*
X0195168Y0319551D01*
X0195189Y0319477D01*
X0195206Y0319401D01*
X0195219Y0319325D01*
X0195228Y0319248D01*
X0195234Y0319171D01*
X0195236Y0319094D01*
X0195234Y0319017D01*
X0195228Y0318940D01*
X0195219Y0318863D01*
X0195206Y0318787D01*
X0195189Y0318711D01*
X0195168Y0318637D01*
X0195144Y0318563D01*
X0195116Y0318491D01*
X0195085Y0318421D01*
X0195050Y0318352D01*
X0195012Y0318284D01*
X0194971Y0318219D01*
X0194926Y0318156D01*
X0194878Y0318095D01*
X0194828Y0318036D01*
X0194775Y0317980D01*
X0194719Y0317927D01*
X0194660Y0317877D01*
X0194599Y0317829D01*
X0194536Y0317784D01*
X0194471Y0317743D01*
X0194403Y0317705D01*
X0194334Y0317670D01*
X0194264Y0317639D01*
X0194192Y0317611D01*
X0194118Y0317587D01*
X0194044Y0317566D01*
X0193968Y0317549D01*
X0193892Y0317536D01*
X0193815Y0317527D01*
X0193738Y0317521D01*
X0193661Y0317519D01*
M02*
