G75*
%MOIN*%
%OFA0B0*%
%FSLAX25Y25*%
%IPPOS*%
%LPD*%
%AMOC8*
5,1,8,0,0,1.08239X$1,22.5*
%
%ADD10C,0.00000*%
%ADD11C,0.00600*%
%ADD12R,0.06000X0.06000*%
%ADD13C,0.06000*%
%ADD14C,0.05512*%
%ADD15C,0.03937*%
%ADD16R,0.04921X0.02362*%
%ADD17R,0.14764X0.04724*%
%ADD18R,0.05512X0.05709*%
%ADD19R,0.02362X0.03937*%
%ADD20R,0.03346X0.03740*%
%ADD21R,0.02165X0.03150*%
%ADD22R,0.03500X0.03000*%
%ADD23R,0.03000X0.03500*%
%ADD24R,0.02756X0.03543*%
%ADD25R,0.03740X0.03543*%
%ADD26C,0.02400*%
%ADD27C,0.01800*%
D10*
X0185000Y0255000D02*
X0185000Y0284843D01*
X0204882Y0284843D01*
X0204882Y0315157D01*
X0185000Y0315157D01*
X0185000Y0345000D01*
X0395000Y0345000D01*
X0395000Y0255000D01*
X0185000Y0255000D01*
X0190118Y0279331D02*
X0193661Y0279331D01*
X0195236Y0280906D02*
X0195234Y0280983D01*
X0195228Y0281060D01*
X0195219Y0281137D01*
X0195206Y0281213D01*
X0195189Y0281289D01*
X0195168Y0281363D01*
X0195144Y0281437D01*
X0195116Y0281509D01*
X0195085Y0281579D01*
X0195050Y0281648D01*
X0195012Y0281716D01*
X0194971Y0281781D01*
X0194926Y0281844D01*
X0194878Y0281905D01*
X0194828Y0281964D01*
X0194775Y0282020D01*
X0194719Y0282073D01*
X0194660Y0282123D01*
X0194599Y0282171D01*
X0194536Y0282216D01*
X0194471Y0282257D01*
X0194403Y0282295D01*
X0194334Y0282330D01*
X0194264Y0282361D01*
X0194192Y0282389D01*
X0194118Y0282413D01*
X0194044Y0282434D01*
X0193968Y0282451D01*
X0193892Y0282464D01*
X0193815Y0282473D01*
X0193738Y0282479D01*
X0193661Y0282481D01*
X0193661Y0282480D02*
X0190118Y0282480D01*
X0188543Y0280906D02*
X0188545Y0280829D01*
X0188551Y0280752D01*
X0188560Y0280675D01*
X0188573Y0280599D01*
X0188590Y0280523D01*
X0188611Y0280449D01*
X0188635Y0280375D01*
X0188663Y0280303D01*
X0188694Y0280233D01*
X0188729Y0280164D01*
X0188767Y0280096D01*
X0188808Y0280031D01*
X0188853Y0279968D01*
X0188901Y0279907D01*
X0188951Y0279848D01*
X0189004Y0279792D01*
X0189060Y0279739D01*
X0189119Y0279689D01*
X0189180Y0279641D01*
X0189243Y0279596D01*
X0189308Y0279555D01*
X0189376Y0279517D01*
X0189445Y0279482D01*
X0189515Y0279451D01*
X0189587Y0279423D01*
X0189661Y0279399D01*
X0189735Y0279378D01*
X0189811Y0279361D01*
X0189887Y0279348D01*
X0189964Y0279339D01*
X0190041Y0279333D01*
X0190118Y0279331D01*
X0188543Y0280906D02*
X0188545Y0280983D01*
X0188551Y0281060D01*
X0188560Y0281137D01*
X0188573Y0281213D01*
X0188590Y0281289D01*
X0188611Y0281363D01*
X0188635Y0281437D01*
X0188663Y0281509D01*
X0188694Y0281579D01*
X0188729Y0281648D01*
X0188767Y0281716D01*
X0188808Y0281781D01*
X0188853Y0281844D01*
X0188901Y0281905D01*
X0188951Y0281964D01*
X0189004Y0282020D01*
X0189060Y0282073D01*
X0189119Y0282123D01*
X0189180Y0282171D01*
X0189243Y0282216D01*
X0189308Y0282257D01*
X0189376Y0282295D01*
X0189445Y0282330D01*
X0189515Y0282361D01*
X0189587Y0282389D01*
X0189661Y0282413D01*
X0189735Y0282434D01*
X0189811Y0282451D01*
X0189887Y0282464D01*
X0189964Y0282473D01*
X0190041Y0282479D01*
X0190118Y0282481D01*
X0193661Y0279331D02*
X0193738Y0279333D01*
X0193815Y0279339D01*
X0193892Y0279348D01*
X0193968Y0279361D01*
X0194044Y0279378D01*
X0194118Y0279399D01*
X0194192Y0279423D01*
X0194264Y0279451D01*
X0194334Y0279482D01*
X0194403Y0279517D01*
X0194471Y0279555D01*
X0194536Y0279596D01*
X0194599Y0279641D01*
X0194660Y0279689D01*
X0194719Y0279739D01*
X0194775Y0279792D01*
X0194828Y0279848D01*
X0194878Y0279907D01*
X0194926Y0279968D01*
X0194971Y0280031D01*
X0195012Y0280096D01*
X0195050Y0280164D01*
X0195085Y0280233D01*
X0195116Y0280303D01*
X0195144Y0280375D01*
X0195168Y0280449D01*
X0195189Y0280523D01*
X0195206Y0280599D01*
X0195219Y0280675D01*
X0195228Y0280752D01*
X0195234Y0280829D01*
X0195236Y0280906D01*
X0201535Y0280906D02*
X0201537Y0280829D01*
X0201543Y0280752D01*
X0201552Y0280675D01*
X0201565Y0280599D01*
X0201582Y0280523D01*
X0201603Y0280449D01*
X0201627Y0280375D01*
X0201655Y0280303D01*
X0201686Y0280233D01*
X0201721Y0280164D01*
X0201759Y0280096D01*
X0201800Y0280031D01*
X0201845Y0279968D01*
X0201893Y0279907D01*
X0201943Y0279848D01*
X0201996Y0279792D01*
X0202052Y0279739D01*
X0202111Y0279689D01*
X0202172Y0279641D01*
X0202235Y0279596D01*
X0202300Y0279555D01*
X0202368Y0279517D01*
X0202437Y0279482D01*
X0202507Y0279451D01*
X0202579Y0279423D01*
X0202653Y0279399D01*
X0202727Y0279378D01*
X0202803Y0279361D01*
X0202879Y0279348D01*
X0202956Y0279339D01*
X0203033Y0279333D01*
X0203110Y0279331D01*
X0206654Y0279331D01*
X0208229Y0280906D02*
X0208227Y0280983D01*
X0208221Y0281060D01*
X0208212Y0281137D01*
X0208199Y0281213D01*
X0208182Y0281289D01*
X0208161Y0281363D01*
X0208137Y0281437D01*
X0208109Y0281509D01*
X0208078Y0281579D01*
X0208043Y0281648D01*
X0208005Y0281716D01*
X0207964Y0281781D01*
X0207919Y0281844D01*
X0207871Y0281905D01*
X0207821Y0281964D01*
X0207768Y0282020D01*
X0207712Y0282073D01*
X0207653Y0282123D01*
X0207592Y0282171D01*
X0207529Y0282216D01*
X0207464Y0282257D01*
X0207396Y0282295D01*
X0207327Y0282330D01*
X0207257Y0282361D01*
X0207185Y0282389D01*
X0207111Y0282413D01*
X0207037Y0282434D01*
X0206961Y0282451D01*
X0206885Y0282464D01*
X0206808Y0282473D01*
X0206731Y0282479D01*
X0206654Y0282481D01*
X0206654Y0282480D02*
X0203110Y0282480D01*
X0203110Y0282481D02*
X0203033Y0282479D01*
X0202956Y0282473D01*
X0202879Y0282464D01*
X0202803Y0282451D01*
X0202727Y0282434D01*
X0202653Y0282413D01*
X0202579Y0282389D01*
X0202507Y0282361D01*
X0202437Y0282330D01*
X0202368Y0282295D01*
X0202300Y0282257D01*
X0202235Y0282216D01*
X0202172Y0282171D01*
X0202111Y0282123D01*
X0202052Y0282073D01*
X0201996Y0282020D01*
X0201943Y0281964D01*
X0201893Y0281905D01*
X0201845Y0281844D01*
X0201800Y0281781D01*
X0201759Y0281716D01*
X0201721Y0281648D01*
X0201686Y0281579D01*
X0201655Y0281509D01*
X0201627Y0281437D01*
X0201603Y0281363D01*
X0201582Y0281289D01*
X0201565Y0281213D01*
X0201552Y0281137D01*
X0201543Y0281060D01*
X0201537Y0280983D01*
X0201535Y0280906D01*
X0206654Y0279331D02*
X0206731Y0279333D01*
X0206808Y0279339D01*
X0206885Y0279348D01*
X0206961Y0279361D01*
X0207037Y0279378D01*
X0207111Y0279399D01*
X0207185Y0279423D01*
X0207257Y0279451D01*
X0207327Y0279482D01*
X0207396Y0279517D01*
X0207464Y0279555D01*
X0207529Y0279596D01*
X0207592Y0279641D01*
X0207653Y0279689D01*
X0207712Y0279739D01*
X0207768Y0279792D01*
X0207821Y0279848D01*
X0207871Y0279907D01*
X0207919Y0279968D01*
X0207964Y0280031D01*
X0208005Y0280096D01*
X0208043Y0280164D01*
X0208078Y0280233D01*
X0208109Y0280303D01*
X0208137Y0280375D01*
X0208161Y0280449D01*
X0208182Y0280523D01*
X0208199Y0280599D01*
X0208212Y0280675D01*
X0208221Y0280752D01*
X0208227Y0280829D01*
X0208229Y0280906D01*
X0206654Y0317520D02*
X0203110Y0317520D01*
X0203110Y0317519D02*
X0203033Y0317521D01*
X0202956Y0317527D01*
X0202879Y0317536D01*
X0202803Y0317549D01*
X0202727Y0317566D01*
X0202653Y0317587D01*
X0202579Y0317611D01*
X0202507Y0317639D01*
X0202437Y0317670D01*
X0202368Y0317705D01*
X0202300Y0317743D01*
X0202235Y0317784D01*
X0202172Y0317829D01*
X0202111Y0317877D01*
X0202052Y0317927D01*
X0201996Y0317980D01*
X0201943Y0318036D01*
X0201893Y0318095D01*
X0201845Y0318156D01*
X0201800Y0318219D01*
X0201759Y0318284D01*
X0201721Y0318352D01*
X0201686Y0318421D01*
X0201655Y0318491D01*
X0201627Y0318563D01*
X0201603Y0318637D01*
X0201582Y0318711D01*
X0201565Y0318787D01*
X0201552Y0318863D01*
X0201543Y0318940D01*
X0201537Y0319017D01*
X0201535Y0319094D01*
X0201537Y0319171D01*
X0201543Y0319248D01*
X0201552Y0319325D01*
X0201565Y0319401D01*
X0201582Y0319477D01*
X0201603Y0319551D01*
X0201627Y0319625D01*
X0201655Y0319697D01*
X0201686Y0319767D01*
X0201721Y0319836D01*
X0201759Y0319904D01*
X0201800Y0319969D01*
X0201845Y0320032D01*
X0201893Y0320093D01*
X0201943Y0320152D01*
X0201996Y0320208D01*
X0202052Y0320261D01*
X0202111Y0320311D01*
X0202172Y0320359D01*
X0202235Y0320404D01*
X0202300Y0320445D01*
X0202368Y0320483D01*
X0202437Y0320518D01*
X0202507Y0320549D01*
X0202579Y0320577D01*
X0202653Y0320601D01*
X0202727Y0320622D01*
X0202803Y0320639D01*
X0202879Y0320652D01*
X0202956Y0320661D01*
X0203033Y0320667D01*
X0203110Y0320669D01*
X0206654Y0320669D01*
X0206731Y0320667D01*
X0206808Y0320661D01*
X0206885Y0320652D01*
X0206961Y0320639D01*
X0207037Y0320622D01*
X0207111Y0320601D01*
X0207185Y0320577D01*
X0207257Y0320549D01*
X0207327Y0320518D01*
X0207396Y0320483D01*
X0207464Y0320445D01*
X0207529Y0320404D01*
X0207592Y0320359D01*
X0207653Y0320311D01*
X0207712Y0320261D01*
X0207768Y0320208D01*
X0207821Y0320152D01*
X0207871Y0320093D01*
X0207919Y0320032D01*
X0207964Y0319969D01*
X0208005Y0319904D01*
X0208043Y0319836D01*
X0208078Y0319767D01*
X0208109Y0319697D01*
X0208137Y0319625D01*
X0208161Y0319551D01*
X0208182Y0319477D01*
X0208199Y0319401D01*
X0208212Y0319325D01*
X0208221Y0319248D01*
X0208227Y0319171D01*
X0208229Y0319094D01*
X0208227Y0319017D01*
X0208221Y0318940D01*
X0208212Y0318863D01*
X0208199Y0318787D01*
X0208182Y0318711D01*
X0208161Y0318637D01*
X0208137Y0318563D01*
X0208109Y0318491D01*
X0208078Y0318421D01*
X0208043Y0318352D01*
X0208005Y0318284D01*
X0207964Y0318219D01*
X0207919Y0318156D01*
X0207871Y0318095D01*
X0207821Y0318036D01*
X0207768Y0317980D01*
X0207712Y0317927D01*
X0207653Y0317877D01*
X0207592Y0317829D01*
X0207529Y0317784D01*
X0207464Y0317743D01*
X0207396Y0317705D01*
X0207327Y0317670D01*
X0207257Y0317639D01*
X0207185Y0317611D01*
X0207111Y0317587D01*
X0207037Y0317566D01*
X0206961Y0317549D01*
X0206885Y0317536D01*
X0206808Y0317527D01*
X0206731Y0317521D01*
X0206654Y0317519D01*
X0193661Y0317520D02*
X0190118Y0317520D01*
X0190118Y0317519D02*
X0190041Y0317521D01*
X0189964Y0317527D01*
X0189887Y0317536D01*
X0189811Y0317549D01*
X0189735Y0317566D01*
X0189661Y0317587D01*
X0189587Y0317611D01*
X0189515Y0317639D01*
X0189445Y0317670D01*
X0189376Y0317705D01*
X0189308Y0317743D01*
X0189243Y0317784D01*
X0189180Y0317829D01*
X0189119Y0317877D01*
X0189060Y0317927D01*
X0189004Y0317980D01*
X0188951Y0318036D01*
X0188901Y0318095D01*
X0188853Y0318156D01*
X0188808Y0318219D01*
X0188767Y0318284D01*
X0188729Y0318352D01*
X0188694Y0318421D01*
X0188663Y0318491D01*
X0188635Y0318563D01*
X0188611Y0318637D01*
X0188590Y0318711D01*
X0188573Y0318787D01*
X0188560Y0318863D01*
X0188551Y0318940D01*
X0188545Y0319017D01*
X0188543Y0319094D01*
X0188545Y0319171D01*
X0188551Y0319248D01*
X0188560Y0319325D01*
X0188573Y0319401D01*
X0188590Y0319477D01*
X0188611Y0319551D01*
X0188635Y0319625D01*
X0188663Y0319697D01*
X0188694Y0319767D01*
X0188729Y0319836D01*
X0188767Y0319904D01*
X0188808Y0319969D01*
X0188853Y0320032D01*
X0188901Y0320093D01*
X0188951Y0320152D01*
X0189004Y0320208D01*
X0189060Y0320261D01*
X0189119Y0320311D01*
X0189180Y0320359D01*
X0189243Y0320404D01*
X0189308Y0320445D01*
X0189376Y0320483D01*
X0189445Y0320518D01*
X0189515Y0320549D01*
X0189587Y0320577D01*
X0189661Y0320601D01*
X0189735Y0320622D01*
X0189811Y0320639D01*
X0189887Y0320652D01*
X0189964Y0320661D01*
X0190041Y0320667D01*
X0190118Y0320669D01*
X0193661Y0320669D01*
X0193738Y0320667D01*
X0193815Y0320661D01*
X0193892Y0320652D01*
X0193968Y0320639D01*
X0194044Y0320622D01*
X0194118Y0320601D01*
X0194192Y0320577D01*
X0194264Y0320549D01*
X0194334Y0320518D01*
X0194403Y0320483D01*
X0194471Y0320445D01*
X0194536Y0320404D01*
X0194599Y0320359D01*
X0194660Y0320311D01*
X0194719Y0320261D01*
X0194775Y0320208D01*
X0194828Y0320152D01*
X0194878Y0320093D01*
X0194926Y0320032D01*
X0194971Y0319969D01*
X0195012Y0319904D01*
X0195050Y0319836D01*
X0195085Y0319767D01*
X0195116Y0319697D01*
X0195144Y0319625D01*
X0195168Y0319551D01*
X0195189Y0319477D01*
X0195206Y0319401D01*
X0195219Y0319325D01*
X0195228Y0319248D01*
X0195234Y0319171D01*
X0195236Y0319094D01*
X0195234Y0319017D01*
X0195228Y0318940D01*
X0195219Y0318863D01*
X0195206Y0318787D01*
X0195189Y0318711D01*
X0195168Y0318637D01*
X0195144Y0318563D01*
X0195116Y0318491D01*
X0195085Y0318421D01*
X0195050Y0318352D01*
X0195012Y0318284D01*
X0194971Y0318219D01*
X0194926Y0318156D01*
X0194878Y0318095D01*
X0194828Y0318036D01*
X0194775Y0317980D01*
X0194719Y0317927D01*
X0194660Y0317877D01*
X0194599Y0317829D01*
X0194536Y0317784D01*
X0194471Y0317743D01*
X0194403Y0317705D01*
X0194334Y0317670D01*
X0194264Y0317639D01*
X0194192Y0317611D01*
X0194118Y0317587D01*
X0194044Y0317566D01*
X0193968Y0317549D01*
X0193892Y0317536D01*
X0193815Y0317527D01*
X0193738Y0317521D01*
X0193661Y0317519D01*
D11*
X0194989Y0316457D02*
X0195040Y0316509D01*
X0195484Y0317173D01*
X0195790Y0317911D01*
X0195946Y0318695D01*
X0195946Y0318794D01*
X0192190Y0318794D01*
X0192190Y0319394D01*
X0195946Y0319394D01*
X0195946Y0319494D01*
X0195790Y0320278D01*
X0195484Y0321016D01*
X0195040Y0321680D01*
X0194475Y0322245D01*
X0193811Y0322689D01*
X0193073Y0322995D01*
X0192289Y0323150D01*
X0192190Y0323150D01*
X0192190Y0319395D01*
X0191590Y0319395D01*
X0191590Y0323150D01*
X0191490Y0323150D01*
X0190707Y0322995D01*
X0189969Y0322689D01*
X0189304Y0322245D01*
X0188739Y0321680D01*
X0188295Y0321016D01*
X0187990Y0320278D01*
X0187834Y0319494D01*
X0187834Y0319394D01*
X0191590Y0319394D01*
X0191590Y0318794D01*
X0187834Y0318794D01*
X0187834Y0318695D01*
X0187990Y0317911D01*
X0188295Y0317173D01*
X0188739Y0316509D01*
X0188791Y0316457D01*
X0186300Y0316457D01*
X0186300Y0343700D01*
X0393700Y0343700D01*
X0393700Y0317431D01*
X0390308Y0317431D01*
X0389781Y0316904D01*
X0389781Y0313527D01*
X0389219Y0312964D01*
X0389219Y0316904D01*
X0388692Y0317431D01*
X0385815Y0317431D01*
X0382270Y0320976D01*
X0382270Y0323345D01*
X0381743Y0323872D01*
X0379374Y0323872D01*
X0378501Y0324746D01*
X0377446Y0325800D01*
X0372497Y0325800D01*
X0373215Y0326518D01*
X0374224Y0326100D01*
X0375776Y0326100D01*
X0377209Y0326694D01*
X0378306Y0327791D01*
X0378900Y0329224D01*
X0378900Y0330776D01*
X0378306Y0332209D01*
X0377209Y0333306D01*
X0375776Y0333900D01*
X0374224Y0333900D01*
X0372791Y0333306D01*
X0371694Y0332209D01*
X0371100Y0330776D01*
X0371100Y0329224D01*
X0371518Y0328215D01*
X0370303Y0327000D01*
X0367515Y0327000D01*
X0368306Y0327791D01*
X0368900Y0329224D01*
X0368900Y0330776D01*
X0368306Y0332209D01*
X0367209Y0333306D01*
X0365776Y0333900D01*
X0364224Y0333900D01*
X0362791Y0333306D01*
X0361694Y0332209D01*
X0361100Y0330776D01*
X0361100Y0329224D01*
X0361518Y0328215D01*
X0360303Y0327000D01*
X0357515Y0327000D01*
X0358306Y0327791D01*
X0358900Y0329224D01*
X0358900Y0330776D01*
X0358306Y0332209D01*
X0357209Y0333306D01*
X0355776Y0333900D01*
X0354224Y0333900D01*
X0352791Y0333306D01*
X0351800Y0332315D01*
X0351800Y0332754D01*
X0353746Y0334700D01*
X0387754Y0334700D01*
X0389000Y0333454D01*
X0389000Y0332970D01*
X0388900Y0332870D01*
X0388900Y0333373D01*
X0388373Y0333900D01*
X0381627Y0333900D01*
X0381100Y0333373D01*
X0381100Y0326627D01*
X0381627Y0326100D01*
X0388373Y0326100D01*
X0388900Y0326627D01*
X0388900Y0328330D01*
X0389930Y0327300D01*
X0391670Y0327300D01*
X0392900Y0328530D01*
X0392900Y0330270D01*
X0392600Y0330570D01*
X0392600Y0330630D01*
X0392900Y0330930D01*
X0392900Y0332670D01*
X0392600Y0332970D01*
X0392600Y0334946D01*
X0389246Y0338300D01*
X0352254Y0338300D01*
X0351200Y0337246D01*
X0351200Y0337246D01*
X0349254Y0335300D01*
X0348200Y0334246D01*
X0348200Y0332315D01*
X0347209Y0333306D01*
X0345776Y0333900D01*
X0344224Y0333900D01*
X0342791Y0333306D01*
X0342500Y0333015D01*
X0342500Y0334470D01*
X0341270Y0335700D01*
X0340846Y0335700D01*
X0339300Y0337246D01*
X0338246Y0338300D01*
X0222254Y0338300D01*
X0217700Y0333746D01*
X0217700Y0332815D01*
X0217209Y0333306D01*
X0215776Y0333900D01*
X0214224Y0333900D01*
X0212791Y0333306D01*
X0211694Y0332209D01*
X0211100Y0330776D01*
X0211100Y0329224D01*
X0211694Y0327791D01*
X0212791Y0326694D01*
X0214224Y0326100D01*
X0215776Y0326100D01*
X0217209Y0326694D01*
X0217700Y0327185D01*
X0217700Y0315600D01*
X0208254Y0315600D01*
X0206182Y0313527D01*
X0206182Y0315243D01*
X0206803Y0315500D01*
X0207467Y0315944D01*
X0208032Y0316509D01*
X0208476Y0317173D01*
X0208782Y0317911D01*
X0208938Y0318695D01*
X0208938Y0318794D01*
X0205182Y0318794D01*
X0205182Y0319394D01*
X0208938Y0319394D01*
X0208938Y0319494D01*
X0208782Y0320278D01*
X0208476Y0321016D01*
X0208032Y0321680D01*
X0207467Y0322245D01*
X0206803Y0322689D01*
X0206065Y0322995D01*
X0205281Y0323150D01*
X0205182Y0323150D01*
X0205182Y0319395D01*
X0204582Y0319395D01*
X0204582Y0323150D01*
X0204482Y0323150D01*
X0203699Y0322995D01*
X0202961Y0322689D01*
X0202296Y0322245D01*
X0201731Y0321680D01*
X0201288Y0321016D01*
X0200982Y0320278D01*
X0200826Y0319494D01*
X0200826Y0319394D01*
X0204582Y0319394D01*
X0204582Y0318794D01*
X0200826Y0318794D01*
X0200826Y0318695D01*
X0200982Y0317911D01*
X0201288Y0317173D01*
X0201731Y0316509D01*
X0201783Y0316457D01*
X0194989Y0316457D01*
X0195132Y0316647D02*
X0201639Y0316647D01*
X0201258Y0317245D02*
X0195514Y0317245D01*
X0195762Y0317844D02*
X0201010Y0317844D01*
X0200876Y0318442D02*
X0195895Y0318442D01*
X0195917Y0319639D02*
X0200855Y0319639D01*
X0200974Y0320238D02*
X0195798Y0320238D01*
X0195558Y0320836D02*
X0201213Y0320836D01*
X0201568Y0321435D02*
X0195204Y0321435D01*
X0194687Y0322033D02*
X0202085Y0322033D01*
X0202875Y0322632D02*
X0193896Y0322632D01*
X0192190Y0322632D02*
X0191590Y0322632D01*
X0191590Y0322033D02*
X0192190Y0322033D01*
X0192190Y0321435D02*
X0191590Y0321435D01*
X0191590Y0320836D02*
X0192190Y0320836D01*
X0192190Y0320238D02*
X0191590Y0320238D01*
X0191590Y0319639D02*
X0192190Y0319639D01*
X0192190Y0319041D02*
X0204582Y0319041D01*
X0204582Y0319639D02*
X0205182Y0319639D01*
X0205182Y0319041D02*
X0217700Y0319041D01*
X0217700Y0319639D02*
X0208909Y0319639D01*
X0208790Y0320238D02*
X0217700Y0320238D01*
X0217700Y0320836D02*
X0208551Y0320836D01*
X0208196Y0321435D02*
X0217700Y0321435D01*
X0217700Y0322033D02*
X0207679Y0322033D01*
X0206888Y0322632D02*
X0217700Y0322632D01*
X0217700Y0323230D02*
X0186300Y0323230D01*
X0186300Y0322632D02*
X0189883Y0322632D01*
X0189093Y0322033D02*
X0186300Y0322033D01*
X0186300Y0321435D02*
X0188575Y0321435D01*
X0188221Y0320836D02*
X0186300Y0320836D01*
X0186300Y0320238D02*
X0187982Y0320238D01*
X0187863Y0319639D02*
X0186300Y0319639D01*
X0186300Y0319041D02*
X0191590Y0319041D01*
X0187884Y0318442D02*
X0186300Y0318442D01*
X0186300Y0317844D02*
X0188018Y0317844D01*
X0188266Y0317245D02*
X0186300Y0317245D01*
X0186300Y0316647D02*
X0188647Y0316647D01*
X0186300Y0323829D02*
X0217700Y0323829D01*
X0217700Y0324427D02*
X0186300Y0324427D01*
X0186300Y0325026D02*
X0217700Y0325026D01*
X0217700Y0325624D02*
X0186300Y0325624D01*
X0186300Y0326223D02*
X0192941Y0326223D01*
X0192746Y0326322D02*
X0193349Y0326015D01*
X0193993Y0325806D01*
X0194662Y0325700D01*
X0194700Y0325700D01*
X0194700Y0329700D01*
X0190700Y0329700D01*
X0190700Y0329662D01*
X0190806Y0328993D01*
X0191015Y0328349D01*
X0191322Y0327746D01*
X0191720Y0327199D01*
X0192199Y0326720D01*
X0192746Y0326322D01*
X0192098Y0326821D02*
X0186300Y0326821D01*
X0186300Y0327420D02*
X0191559Y0327420D01*
X0191184Y0328018D02*
X0186300Y0328018D01*
X0186300Y0328617D02*
X0190928Y0328617D01*
X0190771Y0329215D02*
X0186300Y0329215D01*
X0186300Y0329814D02*
X0194700Y0329814D01*
X0194700Y0329700D02*
X0194700Y0330300D01*
X0194700Y0334300D01*
X0194662Y0334300D01*
X0193993Y0334194D01*
X0193349Y0333985D01*
X0192746Y0333678D01*
X0192199Y0333280D01*
X0191720Y0332801D01*
X0191322Y0332254D01*
X0191015Y0331651D01*
X0190806Y0331007D01*
X0190700Y0330338D01*
X0190700Y0330300D01*
X0194700Y0330300D01*
X0195300Y0330300D01*
X0195300Y0334300D01*
X0195338Y0334300D01*
X0196007Y0334194D01*
X0196651Y0333985D01*
X0197254Y0333678D01*
X0197801Y0333280D01*
X0198280Y0332801D01*
X0198678Y0332254D01*
X0198985Y0331651D01*
X0199194Y0331007D01*
X0199300Y0330338D01*
X0199300Y0330300D01*
X0195300Y0330300D01*
X0195300Y0329700D01*
X0199300Y0329700D01*
X0199300Y0329662D01*
X0199194Y0328993D01*
X0198985Y0328349D01*
X0198678Y0327746D01*
X0198280Y0327199D01*
X0197801Y0326720D01*
X0197254Y0326322D01*
X0196651Y0326015D01*
X0196007Y0325806D01*
X0195338Y0325700D01*
X0195300Y0325700D01*
X0195300Y0329700D01*
X0194700Y0329700D01*
X0194700Y0329215D02*
X0195300Y0329215D01*
X0195300Y0328617D02*
X0194700Y0328617D01*
X0194700Y0328018D02*
X0195300Y0328018D01*
X0195300Y0327420D02*
X0194700Y0327420D01*
X0194700Y0326821D02*
X0195300Y0326821D01*
X0195300Y0326223D02*
X0194700Y0326223D01*
X0197058Y0326223D02*
X0202941Y0326223D01*
X0202746Y0326322D02*
X0203349Y0326015D01*
X0203993Y0325806D01*
X0204662Y0325700D01*
X0204700Y0325700D01*
X0204700Y0329700D01*
X0200700Y0329700D01*
X0200700Y0329662D01*
X0200806Y0328993D01*
X0201015Y0328349D01*
X0201322Y0327746D01*
X0201720Y0327199D01*
X0202199Y0326720D01*
X0202746Y0326322D01*
X0202098Y0326821D02*
X0197902Y0326821D01*
X0198441Y0327420D02*
X0201559Y0327420D01*
X0201184Y0328018D02*
X0198816Y0328018D01*
X0199072Y0328617D02*
X0200928Y0328617D01*
X0200771Y0329215D02*
X0199229Y0329215D01*
X0199288Y0330412D02*
X0200712Y0330412D01*
X0200700Y0330338D02*
X0200700Y0330300D01*
X0204700Y0330300D01*
X0204700Y0334300D01*
X0204662Y0334300D01*
X0203993Y0334194D01*
X0203349Y0333985D01*
X0202746Y0333678D01*
X0202199Y0333280D01*
X0201720Y0332801D01*
X0201322Y0332254D01*
X0201015Y0331651D01*
X0200806Y0331007D01*
X0200700Y0330338D01*
X0200807Y0331011D02*
X0199193Y0331011D01*
X0198998Y0331609D02*
X0201002Y0331609D01*
X0201299Y0332208D02*
X0198701Y0332208D01*
X0198275Y0332806D02*
X0201725Y0332806D01*
X0202371Y0333405D02*
X0197629Y0333405D01*
X0196594Y0334003D02*
X0203406Y0334003D01*
X0204700Y0334003D02*
X0205300Y0334003D01*
X0205300Y0334300D02*
X0205300Y0330300D01*
X0204700Y0330300D01*
X0204700Y0329700D01*
X0205300Y0329700D01*
X0205300Y0330300D01*
X0209300Y0330300D01*
X0209300Y0330338D01*
X0209194Y0331007D01*
X0208985Y0331651D01*
X0208678Y0332254D01*
X0208280Y0332801D01*
X0207801Y0333280D01*
X0207254Y0333678D01*
X0206651Y0333985D01*
X0206007Y0334194D01*
X0205338Y0334300D01*
X0205300Y0334300D01*
X0205300Y0333405D02*
X0204700Y0333405D01*
X0204700Y0332806D02*
X0205300Y0332806D01*
X0205300Y0332208D02*
X0204700Y0332208D01*
X0204700Y0331609D02*
X0205300Y0331609D01*
X0205300Y0331011D02*
X0204700Y0331011D01*
X0204700Y0330412D02*
X0205300Y0330412D01*
X0205300Y0329814D02*
X0211100Y0329814D01*
X0211100Y0330412D02*
X0209288Y0330412D01*
X0209193Y0331011D02*
X0211197Y0331011D01*
X0211445Y0331609D02*
X0208998Y0331609D01*
X0208701Y0332208D02*
X0211693Y0332208D01*
X0212291Y0332806D02*
X0208275Y0332806D01*
X0207629Y0333405D02*
X0213029Y0333405D01*
X0216971Y0333405D02*
X0217700Y0333405D01*
X0217958Y0334003D02*
X0206594Y0334003D01*
X0205300Y0329700D02*
X0209300Y0329700D01*
X0209300Y0329662D01*
X0209194Y0328993D01*
X0208985Y0328349D01*
X0208678Y0327746D01*
X0208280Y0327199D01*
X0207801Y0326720D01*
X0207254Y0326322D01*
X0206651Y0326015D01*
X0206007Y0325806D01*
X0205338Y0325700D01*
X0205300Y0325700D01*
X0205300Y0329700D01*
X0205300Y0329215D02*
X0204700Y0329215D01*
X0204700Y0328617D02*
X0205300Y0328617D01*
X0205300Y0328018D02*
X0204700Y0328018D01*
X0204700Y0327420D02*
X0205300Y0327420D01*
X0205300Y0326821D02*
X0204700Y0326821D01*
X0204700Y0326223D02*
X0205300Y0326223D01*
X0207058Y0326223D02*
X0213928Y0326223D01*
X0212663Y0326821D02*
X0207902Y0326821D01*
X0208441Y0327420D02*
X0212065Y0327420D01*
X0211599Y0328018D02*
X0208816Y0328018D01*
X0209072Y0328617D02*
X0211352Y0328617D01*
X0211104Y0329215D02*
X0209229Y0329215D01*
X0204700Y0329814D02*
X0195300Y0329814D01*
X0195300Y0330412D02*
X0194700Y0330412D01*
X0194700Y0331011D02*
X0195300Y0331011D01*
X0195300Y0331609D02*
X0194700Y0331609D01*
X0194700Y0332208D02*
X0195300Y0332208D01*
X0195300Y0332806D02*
X0194700Y0332806D01*
X0194700Y0333405D02*
X0195300Y0333405D01*
X0195300Y0334003D02*
X0194700Y0334003D01*
X0193406Y0334003D02*
X0186300Y0334003D01*
X0186300Y0333405D02*
X0192371Y0333405D01*
X0191725Y0332806D02*
X0186300Y0332806D01*
X0186300Y0332208D02*
X0191299Y0332208D01*
X0191002Y0331609D02*
X0186300Y0331609D01*
X0186300Y0331011D02*
X0190807Y0331011D01*
X0190712Y0330412D02*
X0186300Y0330412D01*
X0186300Y0334602D02*
X0218556Y0334602D01*
X0219155Y0335201D02*
X0186300Y0335201D01*
X0186300Y0335799D02*
X0219753Y0335799D01*
X0220352Y0336398D02*
X0186300Y0336398D01*
X0186300Y0336996D02*
X0220950Y0336996D01*
X0221549Y0337595D02*
X0186300Y0337595D01*
X0186300Y0338193D02*
X0222147Y0338193D01*
X0223746Y0334700D02*
X0221300Y0332254D01*
X0221300Y0331259D01*
X0221694Y0332209D01*
X0222791Y0333306D01*
X0224224Y0333900D01*
X0225776Y0333900D01*
X0227209Y0333306D01*
X0228306Y0332209D01*
X0228724Y0331200D01*
X0229897Y0331200D01*
X0231100Y0329997D01*
X0231100Y0330776D01*
X0231694Y0332209D01*
X0232791Y0333306D01*
X0234224Y0333900D01*
X0235776Y0333900D01*
X0237209Y0333306D01*
X0238306Y0332209D01*
X0238900Y0330776D01*
X0238900Y0329224D01*
X0238482Y0328215D01*
X0238497Y0328200D01*
X0241524Y0328200D01*
X0241100Y0329224D01*
X0241100Y0330776D01*
X0241694Y0332209D01*
X0242791Y0333306D01*
X0244224Y0333900D01*
X0245776Y0333900D01*
X0247209Y0333306D01*
X0248306Y0332209D01*
X0248900Y0330776D01*
X0248900Y0329224D01*
X0248724Y0328800D01*
X0251276Y0328800D01*
X0251100Y0329224D01*
X0251100Y0330776D01*
X0251694Y0332209D01*
X0252791Y0333306D01*
X0254224Y0333900D01*
X0255776Y0333900D01*
X0257209Y0333306D01*
X0258306Y0332209D01*
X0258900Y0330776D01*
X0258900Y0329224D01*
X0258482Y0328215D01*
X0258497Y0328200D01*
X0261524Y0328200D01*
X0261100Y0329224D01*
X0261100Y0330776D01*
X0261694Y0332209D01*
X0262791Y0333306D01*
X0264224Y0333900D01*
X0265776Y0333900D01*
X0267209Y0333306D01*
X0268306Y0332209D01*
X0268900Y0330776D01*
X0268900Y0329224D01*
X0268306Y0327791D01*
X0267209Y0326694D01*
X0266498Y0326399D01*
X0268297Y0324600D01*
X0275103Y0324600D01*
X0274503Y0325200D01*
X0273800Y0325903D01*
X0273800Y0326276D01*
X0272791Y0326694D01*
X0271694Y0327791D01*
X0271100Y0329224D01*
X0271100Y0330776D01*
X0271694Y0332209D01*
X0272791Y0333306D01*
X0274224Y0333900D01*
X0275776Y0333900D01*
X0277209Y0333306D01*
X0278306Y0332209D01*
X0278900Y0330776D01*
X0278900Y0329224D01*
X0278306Y0327791D01*
X0277209Y0326694D01*
X0276639Y0326458D01*
X0278497Y0324600D01*
X0283297Y0324600D01*
X0285697Y0322200D01*
X0287203Y0322200D01*
X0283800Y0325603D01*
X0283800Y0326276D01*
X0282791Y0326694D01*
X0281694Y0327791D01*
X0281100Y0329224D01*
X0281100Y0330776D01*
X0281694Y0332209D01*
X0282791Y0333306D01*
X0284224Y0333900D01*
X0285776Y0333900D01*
X0287209Y0333306D01*
X0288306Y0332209D01*
X0288900Y0330776D01*
X0288900Y0329224D01*
X0288306Y0327791D01*
X0287209Y0326694D01*
X0286427Y0326370D01*
X0293597Y0319200D01*
X0294830Y0319200D01*
X0295730Y0320100D01*
X0297470Y0320100D01*
X0298400Y0319170D01*
X0298400Y0319597D01*
X0300307Y0321505D01*
X0300131Y0321929D01*
X0300131Y0323071D01*
X0300568Y0324125D01*
X0301375Y0324932D01*
X0302429Y0325368D01*
X0303571Y0325368D01*
X0304625Y0324932D01*
X0305432Y0324125D01*
X0305868Y0323071D01*
X0305868Y0321929D01*
X0305432Y0320875D01*
X0304625Y0320068D01*
X0304460Y0320000D01*
X0304625Y0319932D01*
X0305432Y0319125D01*
X0305649Y0318600D01*
X0308030Y0318600D01*
X0308930Y0319500D01*
X0310670Y0319500D01*
X0311600Y0318570D01*
X0311930Y0318900D01*
X0312300Y0318900D01*
X0312300Y0318997D01*
X0321518Y0328215D01*
X0321100Y0329224D01*
X0321100Y0330776D01*
X0321694Y0332209D01*
X0322791Y0333306D01*
X0324224Y0333900D01*
X0325776Y0333900D01*
X0327209Y0333306D01*
X0328306Y0332209D01*
X0328900Y0330776D01*
X0328900Y0329224D01*
X0328306Y0327791D01*
X0327515Y0327000D01*
X0330303Y0327000D01*
X0331518Y0328215D01*
X0331100Y0329224D01*
X0331100Y0330776D01*
X0331694Y0332209D01*
X0332791Y0333306D01*
X0334224Y0333900D01*
X0335776Y0333900D01*
X0337209Y0333306D01*
X0338306Y0332209D01*
X0338600Y0331500D01*
X0338600Y0332430D01*
X0338300Y0332730D01*
X0338300Y0333154D01*
X0336754Y0334700D01*
X0223746Y0334700D01*
X0223648Y0334602D02*
X0336852Y0334602D01*
X0337451Y0334003D02*
X0223049Y0334003D01*
X0223029Y0333405D02*
X0222451Y0333405D01*
X0222291Y0332806D02*
X0221852Y0332806D01*
X0221693Y0332208D02*
X0221300Y0332208D01*
X0221300Y0331609D02*
X0221445Y0331609D01*
X0221300Y0328741D02*
X0221694Y0327791D01*
X0222791Y0326694D01*
X0224224Y0326100D01*
X0225776Y0326100D01*
X0227209Y0326694D01*
X0228306Y0327791D01*
X0228724Y0328800D01*
X0228903Y0328800D01*
X0232400Y0325303D01*
X0233103Y0324600D01*
X0240903Y0324600D01*
X0241400Y0324103D01*
X0242103Y0323400D01*
X0245703Y0323400D01*
X0247203Y0321900D01*
X0246603Y0321300D01*
X0245330Y0321300D01*
X0244100Y0320070D01*
X0244100Y0318330D01*
X0245330Y0317100D01*
X0247070Y0317100D01*
X0248300Y0318330D01*
X0248300Y0319603D01*
X0248497Y0319800D01*
X0258903Y0319800D01*
X0266600Y0312103D01*
X0266600Y0311297D01*
X0263936Y0308633D01*
X0263270Y0309300D01*
X0261530Y0309300D01*
X0260300Y0308070D01*
X0260300Y0306330D01*
X0261530Y0305100D01*
X0262203Y0305100D01*
X0260103Y0303000D01*
X0250297Y0303000D01*
X0248600Y0304697D01*
X0248600Y0309900D01*
X0248870Y0309900D01*
X0250100Y0311130D01*
X0250100Y0312870D01*
X0248870Y0314100D01*
X0247597Y0314100D01*
X0243697Y0318000D01*
X0237265Y0318000D01*
X0237265Y0320005D01*
X0233509Y0320005D01*
X0233509Y0320605D01*
X0237265Y0320605D01*
X0237265Y0323331D01*
X0237176Y0323661D01*
X0237005Y0323958D01*
X0236763Y0324200D01*
X0236466Y0324371D01*
X0236136Y0324459D01*
X0233509Y0324459D01*
X0233509Y0320605D01*
X0232909Y0320605D01*
X0232909Y0324459D01*
X0230282Y0324459D01*
X0229951Y0324371D01*
X0229655Y0324200D01*
X0229514Y0324059D01*
X0226734Y0324059D01*
X0226206Y0323532D01*
X0226206Y0320319D01*
X0222403Y0320319D01*
X0221876Y0319792D01*
X0221876Y0315600D01*
X0221300Y0315600D01*
X0221300Y0328741D01*
X0221300Y0328617D02*
X0221352Y0328617D01*
X0221300Y0328018D02*
X0221599Y0328018D01*
X0221300Y0327420D02*
X0222065Y0327420D01*
X0222663Y0326821D02*
X0221300Y0326821D01*
X0221300Y0326223D02*
X0223928Y0326223D01*
X0226072Y0326223D02*
X0231480Y0326223D01*
X0230882Y0326821D02*
X0227337Y0326821D01*
X0227935Y0327420D02*
X0230283Y0327420D01*
X0229685Y0328018D02*
X0228401Y0328018D01*
X0228648Y0328617D02*
X0229086Y0328617D01*
X0229400Y0330000D02*
X0233600Y0325800D01*
X0241400Y0325800D01*
X0242600Y0324600D01*
X0246200Y0324600D01*
X0248600Y0322200D01*
X0260000Y0322200D01*
X0270200Y0312000D01*
X0285800Y0312000D01*
X0291200Y0306600D01*
X0291200Y0292800D01*
X0294800Y0289200D01*
X0303800Y0289200D01*
X0307400Y0292800D01*
X0308000Y0292800D01*
X0310400Y0290400D01*
X0310400Y0288600D01*
X0311000Y0288000D01*
X0314600Y0288000D01*
X0317600Y0285000D01*
X0321200Y0285000D01*
X0323000Y0286800D01*
X0323000Y0289200D01*
X0324200Y0290400D01*
X0326000Y0290400D01*
X0327800Y0288600D01*
X0327800Y0287400D01*
X0329000Y0286200D01*
X0342200Y0286200D01*
X0343400Y0287400D01*
X0343400Y0309300D01*
X0341700Y0311000D01*
X0343213Y0312457D02*
X0343400Y0312457D01*
X0343400Y0312270D02*
X0342570Y0313100D01*
X0340830Y0313100D01*
X0339600Y0311870D01*
X0339600Y0310130D01*
X0340080Y0309650D01*
X0338877Y0309650D01*
X0338350Y0309123D01*
X0338350Y0304877D01*
X0338727Y0304500D01*
X0338350Y0304123D01*
X0338350Y0299877D01*
X0338877Y0299350D01*
X0341000Y0299350D01*
X0341000Y0288600D01*
X0330200Y0288600D01*
X0330200Y0289697D01*
X0327800Y0292097D01*
X0327097Y0292800D01*
X0323103Y0292800D01*
X0321303Y0291000D01*
X0320600Y0290297D01*
X0320600Y0287897D01*
X0320103Y0287400D01*
X0318697Y0287400D01*
X0316400Y0289697D01*
X0315697Y0290400D01*
X0312800Y0290400D01*
X0312800Y0291497D01*
X0311000Y0293297D01*
X0311000Y0295697D01*
X0308833Y0297864D01*
X0309500Y0298530D01*
X0309500Y0300270D01*
X0308270Y0301500D01*
X0309500Y0302730D01*
X0309500Y0304470D01*
X0308570Y0305400D01*
X0309500Y0306330D01*
X0309500Y0308070D01*
X0308870Y0308700D01*
X0309500Y0309330D01*
X0309500Y0310603D01*
X0310897Y0312000D01*
X0315070Y0312000D01*
X0315773Y0312703D01*
X0317600Y0314530D01*
X0317600Y0317303D01*
X0323697Y0323400D01*
X0331897Y0323400D01*
X0333097Y0324600D01*
X0341297Y0324600D01*
X0343215Y0326518D01*
X0344224Y0326100D01*
X0345776Y0326100D01*
X0346081Y0326226D01*
X0337254Y0317400D01*
X0332570Y0317400D01*
X0332270Y0317700D01*
X0330530Y0317700D01*
X0329300Y0316470D01*
X0329300Y0314730D01*
X0330530Y0313500D01*
X0332270Y0313500D01*
X0332570Y0313800D01*
X0338746Y0313800D01*
X0343400Y0318454D01*
X0343400Y0312270D01*
X0343400Y0313056D02*
X0342614Y0313056D01*
X0343400Y0313654D02*
X0332424Y0313654D01*
X0330376Y0313654D02*
X0316724Y0313654D01*
X0316126Y0313056D02*
X0340786Y0313056D01*
X0340187Y0312457D02*
X0315527Y0312457D01*
X0314573Y0313200D02*
X0310400Y0313200D01*
X0307400Y0310200D01*
X0309500Y0310063D02*
X0327400Y0310063D01*
X0327400Y0310370D02*
X0327400Y0308630D01*
X0328630Y0307400D01*
X0329903Y0307400D01*
X0331503Y0305800D01*
X0332850Y0305800D01*
X0332850Y0304877D01*
X0332944Y0304783D01*
X0332710Y0304548D01*
X0332539Y0304252D01*
X0332450Y0303921D01*
X0332450Y0302300D01*
X0334950Y0302300D01*
X0334950Y0301700D01*
X0332450Y0301700D01*
X0332450Y0300079D01*
X0332539Y0299748D01*
X0332710Y0299452D01*
X0332952Y0299210D01*
X0333248Y0299039D01*
X0333579Y0298950D01*
X0334950Y0298950D01*
X0334950Y0301700D01*
X0335550Y0301700D01*
X0335550Y0302300D01*
X0338050Y0302300D01*
X0338050Y0303921D01*
X0337961Y0304252D01*
X0337790Y0304548D01*
X0337556Y0304783D01*
X0337650Y0304877D01*
X0337650Y0309123D01*
X0337123Y0309650D01*
X0333377Y0309650D01*
X0332850Y0309123D01*
X0332850Y0308200D01*
X0332497Y0308200D01*
X0331600Y0309097D01*
X0331600Y0310370D01*
X0330370Y0311600D01*
X0328630Y0311600D01*
X0327400Y0310370D01*
X0327692Y0310662D02*
X0309559Y0310662D01*
X0310157Y0311260D02*
X0328290Y0311260D01*
X0327400Y0309465D02*
X0309500Y0309465D01*
X0309036Y0308866D02*
X0327400Y0308866D01*
X0327763Y0308268D02*
X0309302Y0308268D01*
X0309500Y0307669D02*
X0328361Y0307669D01*
X0330232Y0307070D02*
X0309500Y0307070D01*
X0309500Y0306472D02*
X0330831Y0306472D01*
X0331429Y0305873D02*
X0309043Y0305873D01*
X0308695Y0305275D02*
X0332850Y0305275D01*
X0332838Y0304676D02*
X0309293Y0304676D01*
X0309500Y0304078D02*
X0332492Y0304078D01*
X0332450Y0303479D02*
X0309500Y0303479D01*
X0309500Y0302881D02*
X0332450Y0302881D01*
X0332450Y0301684D02*
X0308454Y0301684D01*
X0308270Y0301500D02*
X0308197Y0301500D01*
X0308197Y0301500D01*
X0308270Y0301500D01*
X0308684Y0301085D02*
X0332450Y0301085D01*
X0332450Y0300487D02*
X0309283Y0300487D01*
X0309500Y0299888D02*
X0332501Y0299888D01*
X0332872Y0299290D02*
X0309500Y0299290D01*
X0309500Y0298691D02*
X0341000Y0298691D01*
X0341000Y0298093D02*
X0309063Y0298093D01*
X0309203Y0297494D02*
X0341000Y0297494D01*
X0341000Y0296896D02*
X0309801Y0296896D01*
X0310400Y0296297D02*
X0341000Y0296297D01*
X0341000Y0295699D02*
X0310998Y0295699D01*
X0311000Y0295100D02*
X0341000Y0295100D01*
X0341000Y0294502D02*
X0311000Y0294502D01*
X0311000Y0293903D02*
X0341000Y0293903D01*
X0341000Y0293305D02*
X0311000Y0293305D01*
X0311591Y0292706D02*
X0323009Y0292706D01*
X0322411Y0292108D02*
X0312189Y0292108D01*
X0312788Y0291509D02*
X0321812Y0291509D01*
X0321214Y0290911D02*
X0312800Y0290911D01*
X0311600Y0291000D02*
X0309800Y0292800D01*
X0309800Y0295200D01*
X0307400Y0297600D01*
X0303200Y0293400D01*
X0303200Y0292500D01*
X0303000Y0292500D01*
X0300945Y0294502D02*
X0292400Y0294502D01*
X0292400Y0295100D02*
X0301343Y0295100D01*
X0301375Y0295068D02*
X0300568Y0295875D01*
X0300131Y0296929D01*
X0300131Y0298071D01*
X0300568Y0299125D01*
X0301375Y0299932D01*
X0301540Y0300000D01*
X0301375Y0300068D01*
X0300568Y0300875D01*
X0300131Y0301929D01*
X0300131Y0303071D01*
X0300568Y0304125D01*
X0301375Y0304932D01*
X0301540Y0305000D01*
X0301375Y0305068D01*
X0300568Y0305875D01*
X0300131Y0306929D01*
X0300131Y0308071D01*
X0300307Y0308495D01*
X0299203Y0309600D01*
X0297170Y0309600D01*
X0296270Y0308700D01*
X0294530Y0308700D01*
X0293300Y0309930D01*
X0293300Y0311670D01*
X0293667Y0312036D01*
X0293000Y0312703D01*
X0291836Y0313867D01*
X0291470Y0313500D01*
X0289730Y0313500D01*
X0288500Y0314730D01*
X0288500Y0315800D01*
X0287330Y0315800D01*
X0286950Y0316180D01*
X0286070Y0315300D01*
X0284330Y0315300D01*
X0283100Y0316530D01*
X0283100Y0317803D01*
X0283000Y0317903D01*
X0283000Y0317730D01*
X0281770Y0316500D01*
X0280030Y0316500D01*
X0279500Y0317030D01*
X0279500Y0316530D01*
X0278270Y0315300D01*
X0276530Y0315300D01*
X0275300Y0316530D01*
X0275300Y0317203D01*
X0273903Y0318600D01*
X0267097Y0318600D01*
X0271297Y0314400D01*
X0286897Y0314400D01*
X0287600Y0313697D01*
X0292897Y0308400D01*
X0293600Y0307697D01*
X0293600Y0301697D01*
X0294997Y0300300D01*
X0296270Y0300300D01*
X0297500Y0299070D01*
X0297500Y0297330D01*
X0296270Y0296100D01*
X0294530Y0296100D01*
X0293300Y0297330D01*
X0293300Y0298603D01*
X0292400Y0299503D01*
X0292400Y0293297D01*
X0295297Y0290400D01*
X0301043Y0290400D01*
X0300568Y0290875D01*
X0300131Y0291929D01*
X0300131Y0293071D01*
X0300568Y0294125D01*
X0301375Y0294932D01*
X0301540Y0295000D01*
X0301375Y0295068D01*
X0300745Y0295699D02*
X0292400Y0295699D01*
X0292400Y0296297D02*
X0294333Y0296297D01*
X0293734Y0296896D02*
X0292400Y0296896D01*
X0292400Y0297494D02*
X0293300Y0297494D01*
X0293300Y0298093D02*
X0292400Y0298093D01*
X0292400Y0298691D02*
X0293212Y0298691D01*
X0292613Y0299290D02*
X0292400Y0299290D01*
X0292400Y0301200D02*
X0295400Y0298200D01*
X0297500Y0298093D02*
X0300141Y0298093D01*
X0300131Y0297494D02*
X0297500Y0297494D01*
X0297066Y0296896D02*
X0300145Y0296896D01*
X0300393Y0296297D02*
X0296467Y0296297D01*
X0297500Y0298691D02*
X0300389Y0298691D01*
X0300733Y0299290D02*
X0297280Y0299290D01*
X0296681Y0299888D02*
X0301332Y0299888D01*
X0300956Y0300487D02*
X0294810Y0300487D01*
X0294212Y0301085D02*
X0300481Y0301085D01*
X0300233Y0301684D02*
X0293613Y0301684D01*
X0293600Y0302282D02*
X0300131Y0302282D01*
X0300131Y0302881D02*
X0293600Y0302881D01*
X0293600Y0303479D02*
X0300301Y0303479D01*
X0300549Y0304078D02*
X0293600Y0304078D01*
X0293600Y0304676D02*
X0301120Y0304676D01*
X0301168Y0305275D02*
X0293600Y0305275D01*
X0293600Y0305873D02*
X0300570Y0305873D01*
X0300321Y0306472D02*
X0293600Y0306472D01*
X0293600Y0307070D02*
X0300131Y0307070D01*
X0300131Y0307669D02*
X0293600Y0307669D01*
X0293030Y0308268D02*
X0300213Y0308268D01*
X0299937Y0308866D02*
X0296436Y0308866D01*
X0297034Y0309465D02*
X0299338Y0309465D01*
X0299700Y0310800D02*
X0303000Y0307500D01*
X0307400Y0307200D02*
X0307400Y0306900D01*
X0303000Y0302500D01*
X0307400Y0302400D02*
X0303000Y0298000D01*
X0303000Y0297500D01*
X0300476Y0293903D02*
X0292400Y0293903D01*
X0292400Y0293305D02*
X0300228Y0293305D01*
X0300131Y0292706D02*
X0292991Y0292706D01*
X0293589Y0292108D02*
X0300131Y0292108D01*
X0300306Y0291509D02*
X0294188Y0291509D01*
X0294786Y0290911D02*
X0300553Y0290911D01*
X0302000Y0284400D02*
X0304400Y0282000D01*
X0307400Y0282000D01*
X0311600Y0277800D01*
X0318200Y0277800D01*
X0319400Y0276600D01*
X0331400Y0276600D01*
X0333800Y0274200D01*
X0336800Y0274200D01*
X0338000Y0273000D01*
X0342000Y0273000D01*
X0345000Y0270000D01*
X0348900Y0269963D02*
X0351100Y0269963D01*
X0351100Y0270561D02*
X0348900Y0270561D01*
X0348900Y0270776D02*
X0348476Y0271800D01*
X0351503Y0271800D01*
X0351518Y0271785D01*
X0351100Y0270776D01*
X0351100Y0269224D01*
X0351694Y0267791D01*
X0352791Y0266694D01*
X0354224Y0266100D01*
X0355776Y0266100D01*
X0357209Y0266694D01*
X0358306Y0267791D01*
X0358900Y0269224D01*
X0358900Y0270776D01*
X0358306Y0272209D01*
X0357515Y0273000D01*
X0362485Y0273000D01*
X0361694Y0272209D01*
X0361100Y0270776D01*
X0361100Y0269224D01*
X0361694Y0267791D01*
X0362791Y0266694D01*
X0363200Y0266524D01*
X0363200Y0265200D01*
X0252097Y0265200D01*
X0252200Y0265303D01*
X0253356Y0266459D01*
X0254224Y0266100D01*
X0255776Y0266100D01*
X0257209Y0266694D01*
X0258306Y0267791D01*
X0258900Y0269224D01*
X0258900Y0270776D01*
X0258541Y0271644D01*
X0258697Y0271800D01*
X0261524Y0271800D01*
X0261100Y0270776D01*
X0261100Y0269224D01*
X0261694Y0267791D01*
X0262791Y0266694D01*
X0264224Y0266100D01*
X0265776Y0266100D01*
X0267209Y0266694D01*
X0268306Y0267791D01*
X0268900Y0269224D01*
X0268900Y0270776D01*
X0268306Y0272209D01*
X0267209Y0273306D01*
X0266200Y0273724D01*
X0266200Y0273903D01*
X0269600Y0277303D01*
X0269600Y0273703D01*
X0271518Y0271785D01*
X0271100Y0270776D01*
X0271100Y0269224D01*
X0271694Y0267791D01*
X0272791Y0266694D01*
X0274224Y0266100D01*
X0275776Y0266100D01*
X0277209Y0266694D01*
X0278306Y0267791D01*
X0278900Y0269224D01*
X0278900Y0270776D01*
X0278306Y0272209D01*
X0277209Y0273306D01*
X0275776Y0273900D01*
X0274224Y0273900D01*
X0273215Y0273482D01*
X0272000Y0274697D01*
X0272000Y0277830D01*
X0272330Y0277500D01*
X0273603Y0277500D01*
X0273903Y0277200D01*
X0282697Y0277200D01*
X0283400Y0277903D01*
X0286700Y0281203D01*
X0286700Y0281130D01*
X0287930Y0279900D01*
X0289203Y0279900D01*
X0291200Y0277903D01*
X0291903Y0277200D01*
X0296703Y0277200D01*
X0297200Y0276703D01*
X0297200Y0276703D01*
X0297903Y0276000D01*
X0299703Y0276000D01*
X0300200Y0275503D01*
X0300903Y0274800D01*
X0303903Y0274800D01*
X0304803Y0273900D01*
X0304224Y0273900D01*
X0302791Y0273306D01*
X0301694Y0272209D01*
X0301100Y0270776D01*
X0301100Y0269224D01*
X0301694Y0267791D01*
X0302791Y0266694D01*
X0304224Y0266100D01*
X0305776Y0266100D01*
X0307209Y0266694D01*
X0308306Y0267791D01*
X0308900Y0269224D01*
X0308900Y0270776D01*
X0308315Y0272188D01*
X0308703Y0271800D01*
X0311503Y0271800D01*
X0311518Y0271785D01*
X0311100Y0270776D01*
X0311100Y0269224D01*
X0311694Y0267791D01*
X0312791Y0266694D01*
X0314224Y0266100D01*
X0315776Y0266100D01*
X0317209Y0266694D01*
X0318306Y0267791D01*
X0318900Y0269224D01*
X0318900Y0270776D01*
X0318476Y0271800D01*
X0321503Y0271800D01*
X0321518Y0271785D01*
X0321100Y0270776D01*
X0321100Y0269224D01*
X0321694Y0267791D01*
X0322791Y0266694D01*
X0324224Y0266100D01*
X0325776Y0266100D01*
X0327209Y0266694D01*
X0328306Y0267791D01*
X0328900Y0269224D01*
X0328900Y0270776D01*
X0328456Y0271846D01*
X0329703Y0270600D01*
X0331100Y0270600D01*
X0331100Y0269224D01*
X0331694Y0267791D01*
X0332791Y0266694D01*
X0334224Y0266100D01*
X0335776Y0266100D01*
X0337209Y0266694D01*
X0338306Y0267791D01*
X0338900Y0269224D01*
X0338900Y0270776D01*
X0338476Y0271800D01*
X0341503Y0271800D01*
X0341518Y0271785D01*
X0341100Y0270776D01*
X0341100Y0269224D01*
X0341694Y0267791D01*
X0342791Y0266694D01*
X0344224Y0266100D01*
X0345776Y0266100D01*
X0347209Y0266694D01*
X0348306Y0267791D01*
X0348900Y0269224D01*
X0348900Y0270776D01*
X0348741Y0271160D02*
X0351259Y0271160D01*
X0351507Y0271758D02*
X0348493Y0271758D01*
X0347600Y0273000D02*
X0352000Y0273000D01*
X0355000Y0270000D01*
X0358900Y0269963D02*
X0361100Y0269963D01*
X0361100Y0270561D02*
X0358900Y0270561D01*
X0358741Y0271160D02*
X0361259Y0271160D01*
X0361507Y0271758D02*
X0358493Y0271758D01*
X0358159Y0272357D02*
X0361841Y0272357D01*
X0362440Y0272955D02*
X0357560Y0272955D01*
X0358900Y0269364D02*
X0361100Y0269364D01*
X0361290Y0268766D02*
X0358710Y0268766D01*
X0358462Y0268167D02*
X0361538Y0268167D01*
X0361916Y0267569D02*
X0358084Y0267569D01*
X0357486Y0266970D02*
X0362514Y0266970D01*
X0363200Y0266372D02*
X0356432Y0266372D01*
X0353568Y0266372D02*
X0346432Y0266372D01*
X0347486Y0266970D02*
X0352514Y0266970D01*
X0351916Y0267569D02*
X0348084Y0267569D01*
X0348462Y0268167D02*
X0351538Y0268167D01*
X0351290Y0268766D02*
X0348710Y0268766D01*
X0348900Y0269364D02*
X0351100Y0269364D01*
X0347600Y0273000D02*
X0346400Y0274200D01*
X0338600Y0274200D01*
X0337400Y0275400D01*
X0334400Y0275400D01*
X0332000Y0277800D01*
X0320000Y0277800D01*
X0318800Y0279000D01*
X0312200Y0279000D01*
X0306800Y0284400D01*
X0305600Y0284400D01*
X0306200Y0286800D02*
X0290600Y0286800D01*
X0282200Y0278400D01*
X0274400Y0278400D01*
X0273200Y0279600D01*
X0272087Y0277743D02*
X0272000Y0277743D01*
X0272000Y0277145D02*
X0296758Y0277145D01*
X0297357Y0276546D02*
X0272000Y0276546D01*
X0272000Y0275948D02*
X0299755Y0275948D01*
X0300354Y0275349D02*
X0272000Y0275349D01*
X0272000Y0274751D02*
X0303952Y0274751D01*
X0304551Y0274152D02*
X0272545Y0274152D01*
X0273143Y0273554D02*
X0273389Y0273554D01*
X0271507Y0271758D02*
X0268493Y0271758D01*
X0268741Y0271160D02*
X0271259Y0271160D01*
X0271100Y0270561D02*
X0268900Y0270561D01*
X0268900Y0269963D02*
X0271100Y0269963D01*
X0271100Y0269364D02*
X0268900Y0269364D01*
X0268710Y0268766D02*
X0271290Y0268766D01*
X0271538Y0268167D02*
X0268462Y0268167D01*
X0268084Y0267569D02*
X0271916Y0267569D01*
X0272514Y0266970D02*
X0267486Y0266970D01*
X0266432Y0266372D02*
X0273568Y0266372D01*
X0276432Y0266372D02*
X0283568Y0266372D01*
X0284224Y0266100D02*
X0285776Y0266100D01*
X0287209Y0266694D01*
X0288306Y0267791D01*
X0288900Y0269224D01*
X0288900Y0270776D01*
X0288306Y0272209D01*
X0287209Y0273306D01*
X0285776Y0273900D01*
X0284224Y0273900D01*
X0282791Y0273306D01*
X0281694Y0272209D01*
X0281100Y0270776D01*
X0281100Y0269224D01*
X0281694Y0267791D01*
X0282791Y0266694D01*
X0284224Y0266100D01*
X0282514Y0266970D02*
X0277486Y0266970D01*
X0278084Y0267569D02*
X0281916Y0267569D01*
X0281538Y0268167D02*
X0278462Y0268167D01*
X0278710Y0268766D02*
X0281290Y0268766D01*
X0281100Y0269364D02*
X0278900Y0269364D01*
X0278900Y0269963D02*
X0281100Y0269963D01*
X0281100Y0270561D02*
X0278900Y0270561D01*
X0278741Y0271160D02*
X0281259Y0271160D01*
X0281507Y0271758D02*
X0278493Y0271758D01*
X0278159Y0272357D02*
X0281841Y0272357D01*
X0282440Y0272955D02*
X0277560Y0272955D01*
X0276611Y0273554D02*
X0283389Y0273554D01*
X0286611Y0273554D02*
X0293389Y0273554D01*
X0292791Y0273306D02*
X0291694Y0272209D01*
X0291100Y0270776D01*
X0291100Y0269224D01*
X0291694Y0267791D01*
X0292791Y0266694D01*
X0294224Y0266100D01*
X0295776Y0266100D01*
X0297209Y0266694D01*
X0298306Y0267791D01*
X0298900Y0269224D01*
X0298900Y0270776D01*
X0298306Y0272209D01*
X0297209Y0273306D01*
X0295776Y0273900D01*
X0294224Y0273900D01*
X0292791Y0273306D01*
X0292440Y0272955D02*
X0287560Y0272955D01*
X0288159Y0272357D02*
X0291841Y0272357D01*
X0291507Y0271758D02*
X0288493Y0271758D01*
X0288741Y0271160D02*
X0291259Y0271160D01*
X0291100Y0270561D02*
X0288900Y0270561D01*
X0288900Y0269963D02*
X0291100Y0269963D01*
X0291100Y0269364D02*
X0288900Y0269364D01*
X0288710Y0268766D02*
X0291290Y0268766D01*
X0291538Y0268167D02*
X0288462Y0268167D01*
X0288084Y0267569D02*
X0291916Y0267569D01*
X0292514Y0266970D02*
X0287486Y0266970D01*
X0286432Y0266372D02*
X0293568Y0266372D01*
X0296432Y0266372D02*
X0303568Y0266372D01*
X0302514Y0266970D02*
X0297486Y0266970D01*
X0298084Y0267569D02*
X0301916Y0267569D01*
X0301538Y0268167D02*
X0298462Y0268167D01*
X0298710Y0268766D02*
X0301290Y0268766D01*
X0301100Y0269364D02*
X0298900Y0269364D01*
X0298900Y0269963D02*
X0301100Y0269963D01*
X0301100Y0270561D02*
X0298900Y0270561D01*
X0298741Y0271160D02*
X0301259Y0271160D01*
X0301507Y0271758D02*
X0298493Y0271758D01*
X0298159Y0272357D02*
X0301841Y0272357D01*
X0302440Y0272955D02*
X0297560Y0272955D01*
X0296611Y0273554D02*
X0303389Y0273554D01*
X0304400Y0276000D02*
X0306800Y0273600D01*
X0306800Y0271800D01*
X0305000Y0270000D01*
X0308900Y0269963D02*
X0311100Y0269963D01*
X0311100Y0270561D02*
X0308900Y0270561D01*
X0308741Y0271160D02*
X0311259Y0271160D01*
X0311507Y0271758D02*
X0308493Y0271758D01*
X0309200Y0273000D02*
X0305000Y0277200D01*
X0302000Y0277200D01*
X0300800Y0278400D01*
X0299000Y0278400D01*
X0297800Y0279600D01*
X0293000Y0279600D01*
X0291200Y0281400D01*
X0291200Y0284400D01*
X0288800Y0282000D02*
X0292400Y0278400D01*
X0297200Y0278400D01*
X0298400Y0277200D01*
X0300200Y0277200D01*
X0301400Y0276000D01*
X0304400Y0276000D01*
X0305600Y0278400D02*
X0302600Y0278400D01*
X0301400Y0279600D01*
X0299600Y0279600D01*
X0298400Y0280800D01*
X0294800Y0280800D01*
X0293600Y0282000D01*
X0295400Y0284400D02*
X0297800Y0282000D01*
X0299000Y0282000D01*
X0300200Y0280800D01*
X0302000Y0280800D01*
X0303200Y0279600D01*
X0306200Y0279600D01*
X0310400Y0275400D01*
X0317000Y0275400D01*
X0318200Y0274200D01*
X0327800Y0274200D01*
X0330200Y0271800D01*
X0332600Y0271800D01*
X0334400Y0270000D01*
X0335000Y0270000D01*
X0338900Y0269963D02*
X0341100Y0269963D01*
X0341100Y0270561D02*
X0338900Y0270561D01*
X0338741Y0271160D02*
X0341259Y0271160D01*
X0341507Y0271758D02*
X0338493Y0271758D01*
X0338900Y0269364D02*
X0341100Y0269364D01*
X0341290Y0268766D02*
X0338710Y0268766D01*
X0338462Y0268167D02*
X0341538Y0268167D01*
X0341916Y0267569D02*
X0338084Y0267569D01*
X0337486Y0266970D02*
X0342514Y0266970D01*
X0343568Y0266372D02*
X0336432Y0266372D01*
X0333568Y0266372D02*
X0326432Y0266372D01*
X0327486Y0266970D02*
X0332514Y0266970D01*
X0331916Y0267569D02*
X0328084Y0267569D01*
X0328462Y0268167D02*
X0331538Y0268167D01*
X0331290Y0268766D02*
X0328710Y0268766D01*
X0328900Y0269364D02*
X0331100Y0269364D01*
X0331100Y0269963D02*
X0328900Y0269963D01*
X0328900Y0270561D02*
X0331100Y0270561D01*
X0329143Y0271160D02*
X0328741Y0271160D01*
X0328545Y0271758D02*
X0328493Y0271758D01*
X0330800Y0274200D02*
X0329600Y0275400D01*
X0318800Y0275400D01*
X0317600Y0276600D01*
X0311000Y0276600D01*
X0306800Y0280800D01*
X0303800Y0280800D01*
X0302600Y0282000D01*
X0301100Y0282000D01*
X0298700Y0284400D01*
X0306200Y0286800D02*
X0308600Y0284400D01*
X0312800Y0284400D01*
X0315800Y0281400D01*
X0320000Y0281400D01*
X0321200Y0280200D01*
X0333200Y0280200D01*
X0335600Y0277800D01*
X0338600Y0277800D01*
X0339800Y0276600D01*
X0347600Y0276600D01*
X0348800Y0275400D01*
X0368600Y0275400D01*
X0375800Y0282600D01*
X0375800Y0291600D01*
X0374600Y0292800D01*
X0374600Y0296400D01*
X0370300Y0300700D01*
X0370300Y0305000D01*
X0373912Y0306472D02*
X0375950Y0306472D01*
X0375950Y0307070D02*
X0373664Y0307070D01*
X0373606Y0307209D02*
X0372509Y0308306D01*
X0371076Y0308900D01*
X0369524Y0308900D01*
X0368091Y0308306D01*
X0366994Y0307209D01*
X0366400Y0305776D01*
X0366400Y0304224D01*
X0366994Y0302791D01*
X0368091Y0301694D01*
X0369100Y0301276D01*
X0369100Y0300203D01*
X0369803Y0299500D01*
X0370403Y0298900D01*
X0369524Y0298900D01*
X0368091Y0298306D01*
X0366994Y0297209D01*
X0366400Y0295776D01*
X0366400Y0294224D01*
X0366994Y0292791D01*
X0368091Y0291694D01*
X0369524Y0291100D01*
X0371076Y0291100D01*
X0372085Y0291518D01*
X0373400Y0290203D01*
X0373400Y0287415D01*
X0372509Y0288306D01*
X0371076Y0288900D01*
X0369524Y0288900D01*
X0368091Y0288306D01*
X0366994Y0287209D01*
X0366400Y0285776D01*
X0366400Y0284224D01*
X0366994Y0282791D01*
X0368091Y0281694D01*
X0369524Y0281100D01*
X0370803Y0281100D01*
X0367503Y0277800D01*
X0349897Y0277800D01*
X0348697Y0279000D01*
X0340897Y0279000D01*
X0339697Y0280200D01*
X0336697Y0280200D01*
X0335497Y0281400D01*
X0344497Y0281400D01*
X0348200Y0285103D01*
X0348200Y0311430D01*
X0348530Y0311100D01*
X0350270Y0311100D01*
X0351500Y0312330D01*
X0351500Y0314070D01*
X0351200Y0314370D01*
X0351200Y0314430D01*
X0351500Y0314730D01*
X0351500Y0316470D01*
X0350958Y0317012D01*
X0354946Y0321000D01*
X0363346Y0321000D01*
X0364546Y0322200D01*
X0375955Y0322200D01*
X0376730Y0321425D01*
X0376730Y0319056D01*
X0377257Y0318529D01*
X0379626Y0318529D01*
X0384663Y0313492D01*
X0384663Y0312615D01*
X0384966Y0312312D01*
X0384200Y0311546D01*
X0383254Y0310599D01*
X0382270Y0310599D01*
X0382270Y0310944D01*
X0381743Y0311471D01*
X0377257Y0311471D01*
X0376730Y0310944D01*
X0376730Y0308575D01*
X0375950Y0307795D01*
X0375950Y0304650D01*
X0375877Y0304650D01*
X0375350Y0304123D01*
X0375350Y0299877D01*
X0375877Y0299350D01*
X0375950Y0299350D01*
X0375950Y0296589D01*
X0376277Y0296261D01*
X0376277Y0294877D01*
X0376460Y0294694D01*
X0376460Y0294110D01*
X0383757Y0286813D01*
X0383757Y0285428D01*
X0383940Y0285245D01*
X0383940Y0284713D01*
X0383850Y0284623D01*
X0383850Y0280877D01*
X0384377Y0280350D01*
X0388623Y0280350D01*
X0388664Y0280391D01*
X0389600Y0279454D01*
X0389600Y0266546D01*
X0388254Y0265200D01*
X0366800Y0265200D01*
X0366800Y0266524D01*
X0367209Y0266694D01*
X0368306Y0267791D01*
X0368900Y0269224D01*
X0368900Y0270776D01*
X0368306Y0272209D01*
X0367515Y0273000D01*
X0371919Y0273000D01*
X0371720Y0272801D01*
X0371322Y0272254D01*
X0371015Y0271651D01*
X0370806Y0271007D01*
X0370700Y0270338D01*
X0370700Y0270300D01*
X0374700Y0270300D01*
X0374700Y0269700D01*
X0375300Y0269700D01*
X0375300Y0270300D01*
X0379300Y0270300D01*
X0379300Y0270338D01*
X0379194Y0271007D01*
X0378985Y0271651D01*
X0378678Y0272254D01*
X0378280Y0272801D01*
X0378125Y0272956D01*
X0379100Y0273930D01*
X0379100Y0274450D01*
X0380700Y0274450D01*
X0380700Y0276950D01*
X0377950Y0276950D01*
X0377950Y0276820D01*
X0377870Y0276900D01*
X0376130Y0276900D01*
X0374900Y0275670D01*
X0374900Y0275400D01*
X0370297Y0275400D01*
X0376297Y0281400D01*
X0377000Y0282103D01*
X0377000Y0284901D01*
X0377152Y0284901D01*
X0378350Y0283703D01*
X0378350Y0280877D01*
X0378877Y0280350D01*
X0383123Y0280350D01*
X0383650Y0280877D01*
X0383650Y0284623D01*
X0383123Y0285150D01*
X0380297Y0285150D01*
X0380131Y0285316D01*
X0380243Y0285428D01*
X0380243Y0289323D01*
X0379715Y0289850D01*
X0377000Y0289850D01*
X0377000Y0292097D01*
X0376297Y0292800D01*
X0375800Y0293297D01*
X0375800Y0296897D01*
X0371500Y0301197D01*
X0371500Y0301276D01*
X0372509Y0301694D01*
X0373606Y0302791D01*
X0374200Y0304224D01*
X0374200Y0305776D01*
X0373606Y0307209D01*
X0373146Y0307669D02*
X0375950Y0307669D01*
X0376423Y0308268D02*
X0372548Y0308268D01*
X0371158Y0308866D02*
X0376730Y0308866D01*
X0376730Y0309465D02*
X0348200Y0309465D01*
X0348200Y0310063D02*
X0376730Y0310063D01*
X0376730Y0310662D02*
X0348200Y0310662D01*
X0348200Y0311260D02*
X0348370Y0311260D01*
X0350430Y0311260D02*
X0366226Y0311260D01*
X0366260Y0311202D02*
X0366502Y0310960D01*
X0366798Y0310789D01*
X0367129Y0310700D01*
X0370000Y0310700D01*
X0370000Y0314700D01*
X0370600Y0314700D01*
X0370600Y0315300D01*
X0374600Y0315300D01*
X0374600Y0318171D01*
X0374511Y0318502D01*
X0374340Y0318798D01*
X0374098Y0319040D01*
X0373802Y0319211D01*
X0373471Y0319300D01*
X0370600Y0319300D01*
X0370600Y0315300D01*
X0370000Y0315300D01*
X0370000Y0319300D01*
X0367129Y0319300D01*
X0366798Y0319211D01*
X0366502Y0319040D01*
X0366260Y0318798D01*
X0366089Y0318502D01*
X0366000Y0318171D01*
X0366000Y0315300D01*
X0370000Y0315300D01*
X0370000Y0314700D01*
X0366000Y0314700D01*
X0366000Y0311829D01*
X0366089Y0311498D01*
X0366260Y0311202D01*
X0366000Y0311859D02*
X0351028Y0311859D01*
X0351500Y0312457D02*
X0366000Y0312457D01*
X0366000Y0313056D02*
X0351500Y0313056D01*
X0351500Y0313654D02*
X0366000Y0313654D01*
X0366000Y0314253D02*
X0351317Y0314253D01*
X0351500Y0314851D02*
X0370000Y0314851D01*
X0370000Y0314253D02*
X0370600Y0314253D01*
X0370600Y0314700D02*
X0370600Y0310700D01*
X0373471Y0310700D01*
X0373802Y0310789D01*
X0374098Y0310960D01*
X0374340Y0311202D01*
X0374511Y0311498D01*
X0374600Y0311829D01*
X0374600Y0314700D01*
X0370600Y0314700D01*
X0370600Y0314851D02*
X0383304Y0314851D01*
X0383903Y0314253D02*
X0374600Y0314253D01*
X0374600Y0313654D02*
X0384501Y0313654D01*
X0384663Y0313056D02*
X0374600Y0313056D01*
X0374600Y0312457D02*
X0384821Y0312457D01*
X0384513Y0311859D02*
X0374600Y0311859D01*
X0374374Y0311260D02*
X0377046Y0311260D01*
X0374600Y0315450D02*
X0382706Y0315450D01*
X0382107Y0316048D02*
X0374600Y0316048D01*
X0374600Y0316647D02*
X0381509Y0316647D01*
X0380910Y0317245D02*
X0374600Y0317245D01*
X0374600Y0317844D02*
X0380312Y0317844D01*
X0379713Y0318442D02*
X0374527Y0318442D01*
X0374097Y0319041D02*
X0376746Y0319041D01*
X0376730Y0319639D02*
X0353585Y0319639D01*
X0352986Y0319041D02*
X0366503Y0319041D01*
X0366073Y0318442D02*
X0352388Y0318442D01*
X0351789Y0317844D02*
X0366000Y0317844D01*
X0366000Y0317245D02*
X0351191Y0317245D01*
X0351323Y0316647D02*
X0366000Y0316647D01*
X0366000Y0316048D02*
X0351500Y0316048D01*
X0351500Y0315450D02*
X0366000Y0315450D01*
X0370000Y0315450D02*
X0370600Y0315450D01*
X0370600Y0316048D02*
X0370000Y0316048D01*
X0370000Y0316647D02*
X0370600Y0316647D01*
X0370600Y0317245D02*
X0370000Y0317245D01*
X0370000Y0317844D02*
X0370600Y0317844D01*
X0370600Y0318442D02*
X0370000Y0318442D01*
X0370000Y0319041D02*
X0370600Y0319041D01*
X0370600Y0313654D02*
X0370000Y0313654D01*
X0370000Y0313056D02*
X0370600Y0313056D01*
X0370600Y0312457D02*
X0370000Y0312457D01*
X0370000Y0311859D02*
X0370600Y0311859D01*
X0370600Y0311260D02*
X0370000Y0311260D01*
X0369442Y0308866D02*
X0348200Y0308866D01*
X0348200Y0308268D02*
X0368052Y0308268D01*
X0367454Y0307669D02*
X0348200Y0307669D01*
X0348200Y0307070D02*
X0366936Y0307070D01*
X0366688Y0306472D02*
X0348200Y0306472D01*
X0348200Y0305873D02*
X0366440Y0305873D01*
X0366400Y0305275D02*
X0348200Y0305275D01*
X0348200Y0304676D02*
X0366400Y0304676D01*
X0366461Y0304078D02*
X0348200Y0304078D01*
X0348200Y0303479D02*
X0366709Y0303479D01*
X0366956Y0302881D02*
X0348200Y0302881D01*
X0348200Y0302282D02*
X0367502Y0302282D01*
X0368115Y0301684D02*
X0348200Y0301684D01*
X0348200Y0301085D02*
X0369100Y0301085D01*
X0369100Y0300487D02*
X0348200Y0300487D01*
X0348200Y0299888D02*
X0369415Y0299888D01*
X0370013Y0299290D02*
X0348200Y0299290D01*
X0348200Y0298691D02*
X0369020Y0298691D01*
X0367877Y0298093D02*
X0348200Y0298093D01*
X0348200Y0297494D02*
X0367279Y0297494D01*
X0366864Y0296896D02*
X0348200Y0296896D01*
X0348200Y0296297D02*
X0366616Y0296297D01*
X0366400Y0295699D02*
X0348200Y0295699D01*
X0348200Y0295100D02*
X0366400Y0295100D01*
X0366400Y0294502D02*
X0348200Y0294502D01*
X0348200Y0293903D02*
X0366533Y0293903D01*
X0366781Y0293305D02*
X0348200Y0293305D01*
X0348200Y0292706D02*
X0367078Y0292706D01*
X0367677Y0292108D02*
X0348200Y0292108D01*
X0348200Y0291509D02*
X0368536Y0291509D01*
X0368599Y0288517D02*
X0348200Y0288517D01*
X0348200Y0289115D02*
X0373400Y0289115D01*
X0373400Y0288517D02*
X0372001Y0288517D01*
X0372897Y0287918D02*
X0373400Y0287918D01*
X0373400Y0289714D02*
X0348200Y0289714D01*
X0348200Y0290312D02*
X0373291Y0290312D01*
X0372692Y0290911D02*
X0348200Y0290911D01*
X0348200Y0287918D02*
X0367703Y0287918D01*
X0367104Y0287320D02*
X0348200Y0287320D01*
X0348200Y0286721D02*
X0366792Y0286721D01*
X0366544Y0286123D02*
X0348200Y0286123D01*
X0348200Y0285524D02*
X0366400Y0285524D01*
X0366400Y0284926D02*
X0348023Y0284926D01*
X0347424Y0284327D02*
X0366400Y0284327D01*
X0366605Y0283729D02*
X0346826Y0283729D01*
X0346227Y0283130D02*
X0366853Y0283130D01*
X0367253Y0282532D02*
X0345629Y0282532D01*
X0345030Y0281933D02*
X0367852Y0281933D01*
X0368958Y0281334D02*
X0335563Y0281334D01*
X0336161Y0280736D02*
X0370439Y0280736D01*
X0369840Y0280137D02*
X0339760Y0280137D01*
X0340358Y0279539D02*
X0369242Y0279539D01*
X0368643Y0278940D02*
X0348757Y0278940D01*
X0349355Y0278342D02*
X0368045Y0278342D01*
X0368000Y0276600D02*
X0374600Y0283200D01*
X0374600Y0290700D01*
X0370300Y0295000D01*
X0372064Y0291509D02*
X0372094Y0291509D01*
X0375800Y0293305D02*
X0377265Y0293305D01*
X0376667Y0293903D02*
X0375800Y0293903D01*
X0375800Y0294502D02*
X0376460Y0294502D01*
X0376277Y0295100D02*
X0375800Y0295100D01*
X0375800Y0295699D02*
X0376277Y0295699D01*
X0376241Y0296297D02*
X0375800Y0296297D01*
X0375800Y0296896D02*
X0375950Y0296896D01*
X0375950Y0297494D02*
X0375203Y0297494D01*
X0374604Y0298093D02*
X0375950Y0298093D01*
X0375950Y0298691D02*
X0374006Y0298691D01*
X0373407Y0299290D02*
X0375950Y0299290D01*
X0375350Y0299888D02*
X0372809Y0299888D01*
X0372210Y0300487D02*
X0375350Y0300487D01*
X0375350Y0301085D02*
X0371612Y0301085D01*
X0372485Y0301684D02*
X0375350Y0301684D01*
X0375350Y0302282D02*
X0373098Y0302282D01*
X0373644Y0302881D02*
X0375350Y0302881D01*
X0375350Y0303479D02*
X0373891Y0303479D01*
X0374139Y0304078D02*
X0375350Y0304078D01*
X0375950Y0304676D02*
X0374200Y0304676D01*
X0374200Y0305275D02*
X0375950Y0305275D01*
X0375950Y0305873D02*
X0374160Y0305873D01*
X0379550Y0305873D02*
X0393700Y0305873D01*
X0393700Y0305275D02*
X0379550Y0305275D01*
X0379550Y0304676D02*
X0380838Y0304676D01*
X0380952Y0304790D02*
X0380710Y0304548D01*
X0380539Y0304252D01*
X0380450Y0303921D01*
X0380450Y0302300D01*
X0382950Y0302300D01*
X0382950Y0305050D01*
X0381579Y0305050D01*
X0381248Y0304961D01*
X0380952Y0304790D01*
X0380492Y0304078D02*
X0380150Y0304078D01*
X0380150Y0304123D02*
X0379623Y0304650D01*
X0379550Y0304650D01*
X0379550Y0306128D01*
X0381743Y0306128D01*
X0382270Y0306655D01*
X0382270Y0306999D01*
X0384745Y0306999D01*
X0386746Y0309000D01*
X0390346Y0309000D01*
X0392746Y0311400D01*
X0393434Y0312088D01*
X0393700Y0312088D01*
X0393700Y0299573D01*
X0393623Y0299650D01*
X0389377Y0299650D01*
X0388850Y0299123D01*
X0388850Y0299050D01*
X0388620Y0299050D01*
X0388700Y0299130D01*
X0388700Y0300870D01*
X0388400Y0301170D01*
X0388400Y0301230D01*
X0388700Y0301530D01*
X0388700Y0303270D01*
X0387470Y0304500D01*
X0385818Y0304500D01*
X0385790Y0304548D01*
X0385548Y0304790D01*
X0385252Y0304961D01*
X0384921Y0305050D01*
X0383550Y0305050D01*
X0383550Y0302300D01*
X0382950Y0302300D01*
X0382950Y0301700D01*
X0383550Y0301700D01*
X0383550Y0299620D01*
X0383254Y0299699D01*
X0382950Y0299699D01*
X0382950Y0301700D01*
X0380450Y0301700D01*
X0380450Y0300079D01*
X0380539Y0299748D01*
X0380591Y0299658D01*
X0380416Y0299611D01*
X0380119Y0299439D01*
X0379877Y0299197D01*
X0379855Y0299159D01*
X0379715Y0299299D01*
X0379550Y0299299D01*
X0379550Y0299350D01*
X0379623Y0299350D01*
X0380150Y0299877D01*
X0380150Y0304123D01*
X0380150Y0303479D02*
X0380450Y0303479D01*
X0380450Y0302881D02*
X0380150Y0302881D01*
X0380150Y0302282D02*
X0382950Y0302282D01*
X0382950Y0301684D02*
X0383550Y0301684D01*
X0383550Y0301085D02*
X0382950Y0301085D01*
X0382950Y0300487D02*
X0383550Y0300487D01*
X0383550Y0299888D02*
X0382950Y0299888D01*
X0382241Y0298950D02*
X0382241Y0297066D01*
X0381759Y0297066D01*
X0381759Y0298950D01*
X0382241Y0298950D01*
X0382241Y0298691D02*
X0381759Y0298691D01*
X0381759Y0298093D02*
X0382241Y0298093D01*
X0382241Y0297494D02*
X0381759Y0297494D01*
X0381759Y0296583D02*
X0382241Y0296583D01*
X0382241Y0293950D01*
X0383254Y0293950D01*
X0383584Y0294038D01*
X0383881Y0294209D01*
X0384123Y0294451D01*
X0384145Y0294489D01*
X0384285Y0294350D01*
X0387196Y0294350D01*
X0387723Y0294877D01*
X0387723Y0295450D01*
X0388850Y0295450D01*
X0388850Y0295377D01*
X0389377Y0294850D01*
X0393623Y0294850D01*
X0393700Y0294927D01*
X0393700Y0294475D01*
X0393421Y0294550D01*
X0391800Y0294550D01*
X0391800Y0292050D01*
X0391200Y0292050D01*
X0391200Y0294550D01*
X0389579Y0294550D01*
X0389248Y0294461D01*
X0388952Y0294290D01*
X0388710Y0294048D01*
X0388539Y0293752D01*
X0388450Y0293421D01*
X0388450Y0292050D01*
X0391200Y0292050D01*
X0391200Y0291450D01*
X0391800Y0291450D01*
X0391800Y0288950D01*
X0393421Y0288950D01*
X0393700Y0289025D01*
X0393700Y0256300D01*
X0186300Y0256300D01*
X0186300Y0283543D01*
X0188791Y0283543D01*
X0188739Y0283491D01*
X0188295Y0282827D01*
X0187990Y0282089D01*
X0187834Y0281305D01*
X0187834Y0281205D01*
X0191590Y0281205D01*
X0191590Y0280606D01*
X0187834Y0280606D01*
X0187834Y0280506D01*
X0187990Y0279722D01*
X0188295Y0278984D01*
X0188739Y0278320D01*
X0189304Y0277755D01*
X0189969Y0277311D01*
X0190707Y0277005D01*
X0191490Y0276850D01*
X0191590Y0276850D01*
X0191590Y0280605D01*
X0192190Y0280605D01*
X0192190Y0276850D01*
X0192289Y0276850D01*
X0193073Y0277005D01*
X0193811Y0277311D01*
X0194475Y0277755D01*
X0195040Y0278320D01*
X0195484Y0278984D01*
X0195790Y0279722D01*
X0195946Y0280506D01*
X0195946Y0280606D01*
X0192190Y0280606D01*
X0192190Y0281205D01*
X0195946Y0281205D01*
X0195946Y0281305D01*
X0195790Y0282089D01*
X0195484Y0282827D01*
X0195040Y0283491D01*
X0194989Y0283543D01*
X0201783Y0283543D01*
X0201731Y0283491D01*
X0201288Y0282827D01*
X0200982Y0282089D01*
X0200826Y0281305D01*
X0200826Y0281205D01*
X0204582Y0281205D01*
X0204582Y0280606D01*
X0200826Y0280606D01*
X0200826Y0280506D01*
X0200982Y0279722D01*
X0201288Y0278984D01*
X0201731Y0278320D01*
X0202296Y0277755D01*
X0202961Y0277311D01*
X0203699Y0277005D01*
X0204482Y0276850D01*
X0204582Y0276850D01*
X0204582Y0280605D01*
X0205182Y0280605D01*
X0205182Y0276850D01*
X0205281Y0276850D01*
X0206065Y0277005D01*
X0206803Y0277311D01*
X0207467Y0277755D01*
X0208032Y0278320D01*
X0208476Y0278984D01*
X0208782Y0279722D01*
X0208938Y0280506D01*
X0208938Y0280606D01*
X0205182Y0280606D01*
X0205182Y0281205D01*
X0208938Y0281205D01*
X0208938Y0281305D01*
X0208782Y0282089D01*
X0208476Y0282827D01*
X0208032Y0283491D01*
X0207467Y0284056D01*
X0206803Y0284500D01*
X0206182Y0284757D01*
X0206182Y0287848D01*
X0206930Y0287100D01*
X0208670Y0287100D01*
X0209000Y0287430D01*
X0209000Y0284254D01*
X0209600Y0283654D01*
X0209600Y0281470D01*
X0209300Y0281170D01*
X0209300Y0279446D01*
X0208400Y0278546D01*
X0208400Y0271983D01*
X0208306Y0272209D01*
X0207209Y0273306D01*
X0205776Y0273900D01*
X0204224Y0273900D01*
X0202791Y0273306D01*
X0201694Y0272209D01*
X0201100Y0270776D01*
X0201100Y0269224D01*
X0201694Y0267791D01*
X0202791Y0266694D01*
X0204224Y0266100D01*
X0205776Y0266100D01*
X0207209Y0266694D01*
X0208306Y0267791D01*
X0208400Y0268017D01*
X0208400Y0265054D01*
X0209454Y0264000D01*
X0211854Y0261600D01*
X0389746Y0261600D01*
X0390800Y0262654D01*
X0390800Y0262654D01*
X0392146Y0264000D01*
X0393200Y0265054D01*
X0393200Y0280946D01*
X0389596Y0284550D01*
X0389150Y0284550D01*
X0389150Y0284623D01*
X0388623Y0285150D01*
X0387540Y0285150D01*
X0387540Y0285245D01*
X0387723Y0285428D01*
X0387723Y0289323D01*
X0387196Y0289850D01*
X0385811Y0289850D01*
X0381712Y0293950D01*
X0381759Y0293950D01*
X0381759Y0296583D01*
X0381759Y0296297D02*
X0382241Y0296297D01*
X0382241Y0295699D02*
X0381759Y0295699D01*
X0381759Y0295100D02*
X0382241Y0295100D01*
X0382241Y0294502D02*
X0381759Y0294502D01*
X0381758Y0293903D02*
X0388626Y0293903D01*
X0388450Y0293305D02*
X0382357Y0293305D01*
X0382955Y0292706D02*
X0388450Y0292706D01*
X0388450Y0292108D02*
X0383554Y0292108D01*
X0384152Y0291509D02*
X0391200Y0291509D01*
X0391200Y0291450D02*
X0388450Y0291450D01*
X0388450Y0290079D01*
X0388539Y0289748D01*
X0388710Y0289452D01*
X0388952Y0289210D01*
X0389248Y0289039D01*
X0389579Y0288950D01*
X0391200Y0288950D01*
X0391200Y0291450D01*
X0391200Y0290911D02*
X0391800Y0290911D01*
X0391800Y0290312D02*
X0391200Y0290312D01*
X0391200Y0289714D02*
X0391800Y0289714D01*
X0391800Y0289115D02*
X0391200Y0289115D01*
X0389116Y0289115D02*
X0387723Y0289115D01*
X0387723Y0288517D02*
X0393700Y0288517D01*
X0393700Y0287918D02*
X0387723Y0287918D01*
X0387723Y0287320D02*
X0393700Y0287320D01*
X0393700Y0286721D02*
X0387723Y0286721D01*
X0387723Y0286123D02*
X0393700Y0286123D01*
X0393700Y0285524D02*
X0387723Y0285524D01*
X0388847Y0284926D02*
X0393700Y0284926D01*
X0393700Y0284327D02*
X0389819Y0284327D01*
X0390417Y0283729D02*
X0393700Y0283729D01*
X0393700Y0283130D02*
X0391016Y0283130D01*
X0391614Y0282532D02*
X0393700Y0282532D01*
X0393700Y0281933D02*
X0392213Y0281933D01*
X0392811Y0281334D02*
X0393700Y0281334D01*
X0393700Y0280736D02*
X0393200Y0280736D01*
X0393200Y0280137D02*
X0393700Y0280137D01*
X0393700Y0279539D02*
X0393200Y0279539D01*
X0393200Y0278940D02*
X0393700Y0278940D01*
X0393700Y0278342D02*
X0393200Y0278342D01*
X0393200Y0277743D02*
X0393700Y0277743D01*
X0393700Y0277145D02*
X0393200Y0277145D01*
X0393200Y0276546D02*
X0393700Y0276546D01*
X0393700Y0275948D02*
X0393200Y0275948D01*
X0393200Y0275349D02*
X0393700Y0275349D01*
X0393700Y0274751D02*
X0393200Y0274751D01*
X0393200Y0274152D02*
X0393700Y0274152D01*
X0393700Y0273554D02*
X0393200Y0273554D01*
X0393200Y0272955D02*
X0393700Y0272955D01*
X0393700Y0272357D02*
X0393200Y0272357D01*
X0393200Y0271758D02*
X0393700Y0271758D01*
X0393700Y0271160D02*
X0393200Y0271160D01*
X0393200Y0270561D02*
X0393700Y0270561D01*
X0393700Y0269963D02*
X0393200Y0269963D01*
X0393200Y0269364D02*
X0393700Y0269364D01*
X0393700Y0268766D02*
X0393200Y0268766D01*
X0393200Y0268167D02*
X0393700Y0268167D01*
X0393700Y0267569D02*
X0393200Y0267569D01*
X0393200Y0266970D02*
X0393700Y0266970D01*
X0393700Y0266372D02*
X0393200Y0266372D01*
X0393200Y0265773D02*
X0393700Y0265773D01*
X0393700Y0265175D02*
X0393200Y0265175D01*
X0392722Y0264576D02*
X0393700Y0264576D01*
X0393700Y0263978D02*
X0392123Y0263978D01*
X0392146Y0264000D02*
X0392146Y0264000D01*
X0391525Y0263379D02*
X0393700Y0263379D01*
X0393700Y0262781D02*
X0390926Y0262781D01*
X0390328Y0262182D02*
X0393700Y0262182D01*
X0393700Y0261584D02*
X0186300Y0261584D01*
X0186300Y0262182D02*
X0211272Y0262182D01*
X0210674Y0262781D02*
X0186300Y0262781D01*
X0186300Y0263379D02*
X0210075Y0263379D01*
X0209477Y0263978D02*
X0186300Y0263978D01*
X0186300Y0264576D02*
X0208878Y0264576D01*
X0208400Y0265175D02*
X0186300Y0265175D01*
X0186300Y0265773D02*
X0208400Y0265773D01*
X0208400Y0266372D02*
X0206432Y0266372D01*
X0207486Y0266970D02*
X0208400Y0266970D01*
X0208400Y0267569D02*
X0208084Y0267569D01*
X0203568Y0266372D02*
X0196432Y0266372D01*
X0195776Y0266100D02*
X0197209Y0266694D01*
X0198306Y0267791D01*
X0198900Y0269224D01*
X0198900Y0270776D01*
X0198306Y0272209D01*
X0197209Y0273306D01*
X0195776Y0273900D01*
X0194224Y0273900D01*
X0192791Y0273306D01*
X0191694Y0272209D01*
X0191100Y0270776D01*
X0191100Y0269224D01*
X0191694Y0267791D01*
X0192791Y0266694D01*
X0194224Y0266100D01*
X0195776Y0266100D01*
X0197486Y0266970D02*
X0202514Y0266970D01*
X0201916Y0267569D02*
X0198084Y0267569D01*
X0198462Y0268167D02*
X0201538Y0268167D01*
X0201290Y0268766D02*
X0198710Y0268766D01*
X0198900Y0269364D02*
X0201100Y0269364D01*
X0201100Y0269963D02*
X0198900Y0269963D01*
X0198900Y0270561D02*
X0201100Y0270561D01*
X0201259Y0271160D02*
X0198741Y0271160D01*
X0198493Y0271758D02*
X0201507Y0271758D01*
X0201841Y0272357D02*
X0198159Y0272357D01*
X0197560Y0272955D02*
X0202440Y0272955D01*
X0203389Y0273554D02*
X0196611Y0273554D01*
X0193389Y0273554D02*
X0186300Y0273554D01*
X0186300Y0274152D02*
X0208400Y0274152D01*
X0208400Y0273554D02*
X0206611Y0273554D01*
X0207560Y0272955D02*
X0208400Y0272955D01*
X0208400Y0272357D02*
X0208159Y0272357D01*
X0208400Y0274751D02*
X0186300Y0274751D01*
X0186300Y0275349D02*
X0208400Y0275349D01*
X0208400Y0275948D02*
X0186300Y0275948D01*
X0186300Y0276546D02*
X0208400Y0276546D01*
X0208400Y0277145D02*
X0206402Y0277145D01*
X0207450Y0277743D02*
X0208400Y0277743D01*
X0208400Y0278342D02*
X0208047Y0278342D01*
X0208447Y0278940D02*
X0208795Y0278940D01*
X0208706Y0279539D02*
X0209300Y0279539D01*
X0209300Y0280137D02*
X0208864Y0280137D01*
X0209300Y0280736D02*
X0205182Y0280736D01*
X0205182Y0280137D02*
X0204582Y0280137D01*
X0204582Y0279539D02*
X0205182Y0279539D01*
X0205182Y0278940D02*
X0204582Y0278940D01*
X0204582Y0278342D02*
X0205182Y0278342D01*
X0205182Y0277743D02*
X0204582Y0277743D01*
X0204582Y0277145D02*
X0205182Y0277145D01*
X0203362Y0277145D02*
X0193409Y0277145D01*
X0194458Y0277743D02*
X0202314Y0277743D01*
X0201717Y0278342D02*
X0195055Y0278342D01*
X0195455Y0278940D02*
X0201317Y0278940D01*
X0201058Y0279539D02*
X0195714Y0279539D01*
X0195872Y0280137D02*
X0200899Y0280137D01*
X0200832Y0281334D02*
X0195940Y0281334D01*
X0195821Y0281933D02*
X0200951Y0281933D01*
X0201165Y0282532D02*
X0195606Y0282532D01*
X0195281Y0283130D02*
X0201490Y0283130D01*
X0204582Y0280736D02*
X0192190Y0280736D01*
X0192190Y0280137D02*
X0191590Y0280137D01*
X0191590Y0279539D02*
X0192190Y0279539D01*
X0192190Y0278940D02*
X0191590Y0278940D01*
X0191590Y0278342D02*
X0192190Y0278342D01*
X0192190Y0277743D02*
X0191590Y0277743D01*
X0191590Y0277145D02*
X0192190Y0277145D01*
X0190370Y0277145D02*
X0186300Y0277145D01*
X0186300Y0277743D02*
X0189322Y0277743D01*
X0188725Y0278342D02*
X0186300Y0278342D01*
X0186300Y0278940D02*
X0188325Y0278940D01*
X0188066Y0279539D02*
X0186300Y0279539D01*
X0186300Y0280137D02*
X0187907Y0280137D01*
X0187840Y0281334D02*
X0186300Y0281334D01*
X0186300Y0280736D02*
X0191590Y0280736D01*
X0187959Y0281933D02*
X0186300Y0281933D01*
X0186300Y0282532D02*
X0188173Y0282532D01*
X0188498Y0283130D02*
X0186300Y0283130D01*
X0186300Y0272955D02*
X0192440Y0272955D01*
X0191841Y0272357D02*
X0186300Y0272357D01*
X0186300Y0271758D02*
X0191507Y0271758D01*
X0191259Y0271160D02*
X0186300Y0271160D01*
X0186300Y0270561D02*
X0191100Y0270561D01*
X0191100Y0269963D02*
X0186300Y0269963D01*
X0186300Y0269364D02*
X0191100Y0269364D01*
X0191290Y0268766D02*
X0186300Y0268766D01*
X0186300Y0268167D02*
X0191538Y0268167D01*
X0191916Y0267569D02*
X0186300Y0267569D01*
X0186300Y0266970D02*
X0192514Y0266970D01*
X0193568Y0266372D02*
X0186300Y0266372D01*
X0186300Y0260985D02*
X0393700Y0260985D01*
X0393700Y0260387D02*
X0186300Y0260387D01*
X0186300Y0259788D02*
X0393700Y0259788D01*
X0393700Y0259190D02*
X0186300Y0259190D01*
X0186300Y0258591D02*
X0393700Y0258591D01*
X0393700Y0257993D02*
X0186300Y0257993D01*
X0186300Y0257394D02*
X0393700Y0257394D01*
X0393700Y0256796D02*
X0186300Y0256796D01*
X0215000Y0270000D02*
X0216200Y0271200D01*
X0220400Y0271200D01*
X0223400Y0274200D01*
X0231200Y0274200D01*
X0232400Y0275400D01*
X0240800Y0275400D01*
X0242000Y0276600D01*
X0250400Y0276600D01*
X0251600Y0277800D01*
X0259400Y0277800D01*
X0263600Y0282000D01*
X0263600Y0288600D01*
X0269600Y0294600D01*
X0269600Y0297600D01*
X0272000Y0300000D01*
X0274400Y0300000D01*
X0275000Y0299400D01*
X0281600Y0299400D01*
X0281600Y0302400D02*
X0273200Y0302400D01*
X0271467Y0301164D02*
X0268400Y0298097D01*
X0268400Y0295097D01*
X0263103Y0289800D01*
X0262400Y0289097D01*
X0262400Y0282497D01*
X0258903Y0279000D01*
X0251103Y0279000D01*
X0249903Y0277800D01*
X0241503Y0277800D01*
X0240800Y0277097D01*
X0240303Y0276600D01*
X0238918Y0276600D01*
X0238918Y0278765D01*
X0230536Y0278765D01*
X0230536Y0275403D01*
X0230706Y0275403D01*
X0230703Y0275400D01*
X0222903Y0275400D01*
X0222200Y0274697D01*
X0220700Y0273197D01*
X0220700Y0274470D01*
X0219470Y0275700D01*
X0219200Y0275700D01*
X0219200Y0301303D01*
X0221497Y0303600D01*
X0229297Y0303600D01*
X0230000Y0304303D01*
X0232297Y0306600D01*
X0234697Y0306600D01*
X0234800Y0306703D01*
X0234800Y0303497D01*
X0233103Y0301800D01*
X0232400Y0301097D01*
X0232400Y0295500D01*
X0232130Y0295500D01*
X0230900Y0294270D01*
X0230900Y0292530D01*
X0232130Y0291300D01*
X0233870Y0291300D01*
X0234100Y0291530D01*
X0234100Y0286770D01*
X0233800Y0286470D01*
X0233800Y0284730D01*
X0235030Y0283500D01*
X0236639Y0283500D01*
X0236639Y0282727D01*
X0230536Y0282727D01*
X0230536Y0279365D01*
X0229936Y0279365D01*
X0229936Y0278765D01*
X0221554Y0278765D01*
X0221554Y0276532D01*
X0221643Y0276201D01*
X0221814Y0275905D01*
X0222056Y0275663D01*
X0222353Y0275491D01*
X0222683Y0275403D01*
X0229936Y0275403D01*
X0229936Y0278765D01*
X0230536Y0278765D01*
X0230536Y0279365D01*
X0238918Y0279365D01*
X0238918Y0281511D01*
X0242833Y0281511D01*
X0243361Y0282039D01*
X0243361Y0282864D01*
X0243800Y0283303D01*
X0245000Y0284503D01*
X0245000Y0286303D01*
X0248600Y0289903D01*
X0248600Y0293503D01*
X0249697Y0294600D01*
X0264097Y0294600D01*
X0264800Y0295303D01*
X0271100Y0301603D01*
X0271100Y0301530D01*
X0271467Y0301164D01*
X0271388Y0301085D02*
X0270582Y0301085D01*
X0270790Y0300487D02*
X0269984Y0300487D01*
X0270191Y0299888D02*
X0269385Y0299888D01*
X0269593Y0299290D02*
X0268787Y0299290D01*
X0268994Y0298691D02*
X0268188Y0298691D01*
X0268400Y0298093D02*
X0267590Y0298093D01*
X0266991Y0297494D02*
X0268400Y0297494D01*
X0268400Y0296896D02*
X0266393Y0296896D01*
X0265794Y0296297D02*
X0268400Y0296297D01*
X0268400Y0295699D02*
X0265196Y0295699D01*
X0264597Y0295100D02*
X0268400Y0295100D01*
X0267805Y0294502D02*
X0249599Y0294502D01*
X0249000Y0293903D02*
X0267206Y0293903D01*
X0266608Y0293305D02*
X0248600Y0293305D01*
X0248600Y0292706D02*
X0266009Y0292706D01*
X0265411Y0292108D02*
X0248600Y0292108D01*
X0248600Y0291509D02*
X0264812Y0291509D01*
X0264214Y0290911D02*
X0248600Y0290911D01*
X0248600Y0290312D02*
X0263615Y0290312D01*
X0263017Y0289714D02*
X0248411Y0289714D01*
X0247812Y0289115D02*
X0262418Y0289115D01*
X0262400Y0288517D02*
X0247214Y0288517D01*
X0246615Y0287918D02*
X0262400Y0287918D01*
X0262400Y0287320D02*
X0246017Y0287320D01*
X0245418Y0286721D02*
X0262400Y0286721D01*
X0262400Y0286123D02*
X0245000Y0286123D01*
X0245000Y0285524D02*
X0262400Y0285524D01*
X0262400Y0284926D02*
X0245000Y0284926D01*
X0244824Y0284327D02*
X0262400Y0284327D01*
X0262400Y0283729D02*
X0244226Y0283729D01*
X0243627Y0283130D02*
X0262400Y0283130D01*
X0262400Y0282532D02*
X0243361Y0282532D01*
X0243255Y0281933D02*
X0261836Y0281933D01*
X0261237Y0281334D02*
X0238918Y0281334D01*
X0238918Y0280736D02*
X0260639Y0280736D01*
X0260040Y0280137D02*
X0238918Y0280137D01*
X0238918Y0279539D02*
X0259442Y0279539D01*
X0260000Y0276600D02*
X0252200Y0276600D01*
X0251000Y0275400D01*
X0242600Y0275400D01*
X0241400Y0274200D01*
X0233000Y0274200D01*
X0231800Y0273000D01*
X0228000Y0273000D01*
X0225000Y0270000D01*
X0228900Y0269963D02*
X0231100Y0269963D01*
X0231100Y0270561D02*
X0228900Y0270561D01*
X0228900Y0270776D02*
X0228482Y0271785D01*
X0228497Y0271800D01*
X0231524Y0271800D01*
X0231100Y0270776D01*
X0231100Y0269224D01*
X0231694Y0267791D01*
X0232485Y0267000D01*
X0227515Y0267000D01*
X0228306Y0267791D01*
X0228900Y0269224D01*
X0228900Y0270776D01*
X0228741Y0271160D02*
X0231259Y0271160D01*
X0231507Y0271758D02*
X0228493Y0271758D01*
X0228900Y0269364D02*
X0231100Y0269364D01*
X0231290Y0268766D02*
X0228710Y0268766D01*
X0228462Y0268167D02*
X0231538Y0268167D01*
X0231916Y0267569D02*
X0228084Y0267569D01*
X0222800Y0265800D02*
X0219800Y0268800D01*
X0222800Y0265800D02*
X0251000Y0265800D01*
X0255000Y0269800D01*
X0255000Y0270000D01*
X0255200Y0270000D01*
X0258200Y0273000D01*
X0261800Y0273000D01*
X0268400Y0279600D01*
X0268400Y0286200D01*
X0272600Y0290400D01*
X0276200Y0290400D01*
X0275000Y0288000D02*
X0275600Y0287400D01*
X0275000Y0288000D02*
X0272000Y0288000D01*
X0269600Y0285600D01*
X0269600Y0279000D01*
X0265000Y0274400D01*
X0265000Y0270000D01*
X0261100Y0269963D02*
X0258900Y0269963D01*
X0258900Y0270561D02*
X0261100Y0270561D01*
X0261259Y0271160D02*
X0258741Y0271160D01*
X0258655Y0271758D02*
X0261507Y0271758D01*
X0261100Y0269364D02*
X0258900Y0269364D01*
X0258710Y0268766D02*
X0261290Y0268766D01*
X0261538Y0268167D02*
X0258462Y0268167D01*
X0258084Y0267569D02*
X0261916Y0267569D01*
X0262514Y0266970D02*
X0257486Y0266970D01*
X0256432Y0266372D02*
X0263568Y0266372D01*
X0268159Y0272357D02*
X0270946Y0272357D01*
X0270348Y0272955D02*
X0267560Y0272955D01*
X0266611Y0273554D02*
X0269749Y0273554D01*
X0269600Y0274152D02*
X0266449Y0274152D01*
X0267048Y0274751D02*
X0269600Y0274751D01*
X0269600Y0275349D02*
X0267646Y0275349D01*
X0268245Y0275948D02*
X0269600Y0275948D01*
X0269600Y0276546D02*
X0268843Y0276546D01*
X0269442Y0277145D02*
X0269600Y0277145D01*
X0270800Y0274200D02*
X0275000Y0270000D01*
X0270800Y0274200D02*
X0270800Y0284400D01*
X0272000Y0285600D01*
X0272900Y0285600D01*
X0273200Y0282600D02*
X0274400Y0282600D01*
X0277400Y0279600D01*
X0281600Y0279600D01*
X0290000Y0288000D01*
X0306800Y0288000D01*
X0309200Y0285600D01*
X0313400Y0285600D01*
X0316400Y0282600D01*
X0320600Y0282600D01*
X0321800Y0281400D01*
X0333800Y0281400D01*
X0336200Y0279000D01*
X0339200Y0279000D01*
X0340400Y0277800D01*
X0348200Y0277800D01*
X0349400Y0276600D01*
X0368000Y0276600D01*
X0370845Y0275948D02*
X0375178Y0275948D01*
X0375777Y0276546D02*
X0371443Y0276546D01*
X0372042Y0277145D02*
X0380700Y0277145D01*
X0380700Y0276950D02*
X0380700Y0277550D01*
X0380700Y0280050D01*
X0379079Y0280050D01*
X0378748Y0279961D01*
X0378452Y0279790D01*
X0378210Y0279548D01*
X0378039Y0279252D01*
X0377950Y0278921D01*
X0377950Y0277550D01*
X0380700Y0277550D01*
X0381300Y0277550D01*
X0381300Y0280050D01*
X0382921Y0280050D01*
X0383252Y0279961D01*
X0383548Y0279790D01*
X0383750Y0279588D01*
X0383952Y0279790D01*
X0384248Y0279961D01*
X0384579Y0280050D01*
X0386200Y0280050D01*
X0386200Y0277550D01*
X0386800Y0277550D01*
X0386800Y0280050D01*
X0388421Y0280050D01*
X0388752Y0279961D01*
X0389048Y0279790D01*
X0389290Y0279548D01*
X0389461Y0279252D01*
X0389550Y0278921D01*
X0389550Y0277550D01*
X0386800Y0277550D01*
X0386800Y0276950D01*
X0389550Y0276950D01*
X0389550Y0275579D01*
X0389461Y0275248D01*
X0389290Y0274952D01*
X0389048Y0274710D01*
X0388752Y0274539D01*
X0388421Y0274450D01*
X0386800Y0274450D01*
X0386800Y0276950D01*
X0386200Y0276950D01*
X0386200Y0274450D01*
X0384579Y0274450D01*
X0384248Y0274539D01*
X0383952Y0274710D01*
X0383750Y0274912D01*
X0383548Y0274710D01*
X0383252Y0274539D01*
X0382921Y0274450D01*
X0381300Y0274450D01*
X0381300Y0276950D01*
X0381300Y0277550D01*
X0384050Y0277550D01*
X0386200Y0277550D01*
X0386200Y0276950D01*
X0381300Y0276950D01*
X0380700Y0276950D01*
X0380700Y0276546D02*
X0381300Y0276546D01*
X0381300Y0275948D02*
X0380700Y0275948D01*
X0380700Y0275349D02*
X0381300Y0275349D01*
X0381300Y0274751D02*
X0380700Y0274751D01*
X0381627Y0273900D02*
X0381100Y0273373D01*
X0381100Y0266627D01*
X0381627Y0266100D01*
X0388373Y0266100D01*
X0388900Y0266627D01*
X0388900Y0273373D01*
X0388373Y0273900D01*
X0381627Y0273900D01*
X0381281Y0273554D02*
X0378724Y0273554D01*
X0379100Y0274152D02*
X0389600Y0274152D01*
X0389600Y0273554D02*
X0388719Y0273554D01*
X0388900Y0272955D02*
X0389600Y0272955D01*
X0389600Y0272357D02*
X0388900Y0272357D01*
X0388900Y0271758D02*
X0389600Y0271758D01*
X0389600Y0271160D02*
X0388900Y0271160D01*
X0388900Y0270561D02*
X0389600Y0270561D01*
X0389600Y0269963D02*
X0388900Y0269963D01*
X0388900Y0269364D02*
X0389600Y0269364D01*
X0389600Y0268766D02*
X0388900Y0268766D01*
X0388900Y0268167D02*
X0389600Y0268167D01*
X0389600Y0267569D02*
X0388900Y0267569D01*
X0388900Y0266970D02*
X0389600Y0266970D01*
X0389426Y0266372D02*
X0388645Y0266372D01*
X0388828Y0265773D02*
X0375801Y0265773D01*
X0376007Y0265806D02*
X0376651Y0266015D01*
X0377254Y0266322D01*
X0377801Y0266720D01*
X0378280Y0267199D01*
X0378678Y0267746D01*
X0378985Y0268349D01*
X0379194Y0268993D01*
X0379300Y0269662D01*
X0379300Y0269700D01*
X0375300Y0269700D01*
X0375300Y0265700D01*
X0375338Y0265700D01*
X0376007Y0265806D01*
X0375300Y0265773D02*
X0374700Y0265773D01*
X0374700Y0265700D02*
X0374700Y0269700D01*
X0370700Y0269700D01*
X0370700Y0269662D01*
X0370806Y0268993D01*
X0371015Y0268349D01*
X0371322Y0267746D01*
X0371720Y0267199D01*
X0372199Y0266720D01*
X0372746Y0266322D01*
X0373349Y0266015D01*
X0373993Y0265806D01*
X0374662Y0265700D01*
X0374700Y0265700D01*
X0374199Y0265773D02*
X0366800Y0265773D01*
X0366800Y0266372D02*
X0372678Y0266372D01*
X0371949Y0266970D02*
X0367486Y0266970D01*
X0368084Y0267569D02*
X0371451Y0267569D01*
X0371108Y0268167D02*
X0368462Y0268167D01*
X0368710Y0268766D02*
X0370880Y0268766D01*
X0370747Y0269364D02*
X0368900Y0269364D01*
X0368900Y0269963D02*
X0374700Y0269963D01*
X0374700Y0269364D02*
X0375300Y0269364D01*
X0375300Y0268766D02*
X0374700Y0268766D01*
X0374700Y0268167D02*
X0375300Y0268167D01*
X0375300Y0267569D02*
X0374700Y0267569D01*
X0374700Y0266970D02*
X0375300Y0266970D01*
X0375300Y0266372D02*
X0374700Y0266372D01*
X0377322Y0266372D02*
X0381355Y0266372D01*
X0381100Y0266970D02*
X0378051Y0266970D01*
X0378549Y0267569D02*
X0381100Y0267569D01*
X0381100Y0268167D02*
X0378892Y0268167D01*
X0379120Y0268766D02*
X0381100Y0268766D01*
X0381100Y0269364D02*
X0379253Y0269364D01*
X0379265Y0270561D02*
X0381100Y0270561D01*
X0381100Y0269963D02*
X0375300Y0269963D01*
X0379144Y0271160D02*
X0381100Y0271160D01*
X0381100Y0271758D02*
X0378930Y0271758D01*
X0378603Y0272357D02*
X0381100Y0272357D01*
X0381100Y0272955D02*
X0378126Y0272955D01*
X0376400Y0274200D02*
X0377000Y0274800D01*
X0376400Y0274200D02*
X0348200Y0274200D01*
X0347000Y0275400D01*
X0339200Y0275400D01*
X0338000Y0276600D01*
X0335000Y0276600D01*
X0332600Y0279000D01*
X0320600Y0279000D01*
X0319400Y0280200D01*
X0314000Y0280200D01*
X0312200Y0282000D01*
X0314000Y0286800D02*
X0317000Y0283800D01*
X0321200Y0283800D01*
X0322400Y0282600D01*
X0344000Y0282600D01*
X0347000Y0285600D01*
X0347000Y0318500D01*
X0353100Y0324600D01*
X0361400Y0324600D01*
X0362600Y0325800D01*
X0370800Y0325800D01*
X0375000Y0330000D01*
X0377709Y0332806D02*
X0381100Y0332806D01*
X0381100Y0332208D02*
X0378307Y0332208D01*
X0378555Y0331609D02*
X0381100Y0331609D01*
X0381100Y0331011D02*
X0378803Y0331011D01*
X0378900Y0330412D02*
X0381100Y0330412D01*
X0381100Y0329814D02*
X0378900Y0329814D01*
X0378896Y0329215D02*
X0381100Y0329215D01*
X0381100Y0328617D02*
X0378648Y0328617D01*
X0378401Y0328018D02*
X0381100Y0328018D01*
X0381100Y0327420D02*
X0377935Y0327420D01*
X0377337Y0326821D02*
X0381100Y0326821D01*
X0381504Y0326223D02*
X0376072Y0326223D01*
X0377622Y0325624D02*
X0393700Y0325624D01*
X0393700Y0325026D02*
X0378221Y0325026D01*
X0378501Y0324746D02*
X0378501Y0324746D01*
X0378819Y0324427D02*
X0387265Y0324427D01*
X0387222Y0324385D02*
X0387749Y0324912D01*
X0391251Y0324912D01*
X0391778Y0324385D01*
X0391778Y0320096D01*
X0391251Y0319569D01*
X0388700Y0319569D01*
X0388700Y0318930D01*
X0387470Y0317700D01*
X0385730Y0317700D01*
X0384500Y0318930D01*
X0384500Y0320670D01*
X0384800Y0320970D01*
X0384800Y0321030D01*
X0384500Y0321330D01*
X0384500Y0323070D01*
X0385730Y0324300D01*
X0387222Y0324300D01*
X0387222Y0324385D01*
X0385259Y0323829D02*
X0381786Y0323829D01*
X0382270Y0323230D02*
X0384660Y0323230D01*
X0384500Y0322632D02*
X0382270Y0322632D01*
X0382270Y0322033D02*
X0384500Y0322033D01*
X0384500Y0321435D02*
X0382270Y0321435D01*
X0382410Y0320836D02*
X0384666Y0320836D01*
X0384500Y0320238D02*
X0383009Y0320238D01*
X0383607Y0319639D02*
X0384500Y0319639D01*
X0384500Y0319041D02*
X0384206Y0319041D01*
X0384804Y0318442D02*
X0384988Y0318442D01*
X0385403Y0317844D02*
X0385586Y0317844D01*
X0387614Y0317844D02*
X0393700Y0317844D01*
X0393700Y0318442D02*
X0388212Y0318442D01*
X0388700Y0319041D02*
X0393700Y0319041D01*
X0393700Y0319639D02*
X0391321Y0319639D01*
X0391778Y0320238D02*
X0393700Y0320238D01*
X0393700Y0320836D02*
X0391778Y0320836D01*
X0391778Y0321435D02*
X0393700Y0321435D01*
X0393700Y0322033D02*
X0391778Y0322033D01*
X0391778Y0322632D02*
X0393700Y0322632D01*
X0393700Y0323230D02*
X0391778Y0323230D01*
X0391778Y0323829D02*
X0393700Y0323829D01*
X0393700Y0324427D02*
X0391735Y0324427D01*
X0393700Y0326223D02*
X0388496Y0326223D01*
X0388900Y0326821D02*
X0393700Y0326821D01*
X0393700Y0327420D02*
X0391790Y0327420D01*
X0392388Y0328018D02*
X0393700Y0328018D01*
X0393700Y0328617D02*
X0392900Y0328617D01*
X0392900Y0329215D02*
X0393700Y0329215D01*
X0393700Y0329814D02*
X0392900Y0329814D01*
X0392757Y0330412D02*
X0393700Y0330412D01*
X0393700Y0331011D02*
X0392900Y0331011D01*
X0392900Y0331609D02*
X0393700Y0331609D01*
X0393700Y0332208D02*
X0392900Y0332208D01*
X0392763Y0332806D02*
X0393700Y0332806D01*
X0393700Y0333405D02*
X0392600Y0333405D01*
X0392600Y0334003D02*
X0393700Y0334003D01*
X0393700Y0334602D02*
X0392600Y0334602D01*
X0392345Y0335201D02*
X0393700Y0335201D01*
X0393700Y0335799D02*
X0391747Y0335799D01*
X0391148Y0336398D02*
X0393700Y0336398D01*
X0393700Y0336996D02*
X0390550Y0336996D01*
X0389951Y0337595D02*
X0393700Y0337595D01*
X0393700Y0338193D02*
X0389352Y0338193D01*
X0387852Y0334602D02*
X0353648Y0334602D01*
X0353049Y0334003D02*
X0388451Y0334003D01*
X0388868Y0333405D02*
X0389000Y0333405D01*
X0388900Y0328018D02*
X0389212Y0328018D01*
X0388900Y0327420D02*
X0389810Y0327420D01*
X0390122Y0317245D02*
X0388878Y0317245D01*
X0389219Y0316647D02*
X0389781Y0316647D01*
X0389781Y0316048D02*
X0389219Y0316048D01*
X0389219Y0315450D02*
X0389781Y0315450D01*
X0389781Y0314851D02*
X0389219Y0314851D01*
X0389219Y0314253D02*
X0389781Y0314253D01*
X0389781Y0313654D02*
X0389219Y0313654D01*
X0389219Y0313056D02*
X0389310Y0313056D01*
X0392007Y0310662D02*
X0393700Y0310662D01*
X0393700Y0311260D02*
X0392606Y0311260D01*
X0393204Y0311859D02*
X0393700Y0311859D01*
X0393700Y0310063D02*
X0391409Y0310063D01*
X0390810Y0309465D02*
X0393700Y0309465D01*
X0393700Y0308866D02*
X0386612Y0308866D01*
X0386013Y0308268D02*
X0393700Y0308268D01*
X0393700Y0307669D02*
X0385415Y0307669D01*
X0384816Y0307070D02*
X0393700Y0307070D01*
X0393700Y0306472D02*
X0382087Y0306472D01*
X0382950Y0304676D02*
X0383550Y0304676D01*
X0383550Y0304078D02*
X0382950Y0304078D01*
X0382950Y0303479D02*
X0383550Y0303479D01*
X0383550Y0302881D02*
X0382950Y0302881D01*
X0380450Y0301684D02*
X0380150Y0301684D01*
X0380150Y0301085D02*
X0380450Y0301085D01*
X0380450Y0300487D02*
X0380150Y0300487D01*
X0380150Y0299888D02*
X0380501Y0299888D01*
X0379969Y0299290D02*
X0379725Y0299290D01*
X0377864Y0292706D02*
X0376391Y0292706D01*
X0376989Y0292108D02*
X0378462Y0292108D01*
X0379061Y0291509D02*
X0377000Y0291509D01*
X0377000Y0290911D02*
X0379659Y0290911D01*
X0380258Y0290312D02*
X0377000Y0290312D01*
X0379852Y0289714D02*
X0380856Y0289714D01*
X0381455Y0289115D02*
X0380243Y0289115D01*
X0380243Y0288517D02*
X0382054Y0288517D01*
X0382652Y0287918D02*
X0380243Y0287918D01*
X0380243Y0287320D02*
X0383251Y0287320D01*
X0383757Y0286721D02*
X0380243Y0286721D01*
X0380243Y0286123D02*
X0383757Y0286123D01*
X0383757Y0285524D02*
X0380243Y0285524D01*
X0378260Y0285490D02*
X0381000Y0282750D01*
X0383650Y0282532D02*
X0383850Y0282532D01*
X0383850Y0283130D02*
X0383650Y0283130D01*
X0383650Y0283729D02*
X0383850Y0283729D01*
X0383850Y0284327D02*
X0383650Y0284327D01*
X0383940Y0284926D02*
X0383347Y0284926D01*
X0383650Y0281933D02*
X0383850Y0281933D01*
X0383850Y0281334D02*
X0383650Y0281334D01*
X0383509Y0280736D02*
X0383991Y0280736D01*
X0386200Y0279539D02*
X0386800Y0279539D01*
X0386800Y0278940D02*
X0386200Y0278940D01*
X0386200Y0278342D02*
X0386800Y0278342D01*
X0386800Y0277743D02*
X0386200Y0277743D01*
X0386200Y0277145D02*
X0381300Y0277145D01*
X0381300Y0277743D02*
X0380700Y0277743D01*
X0380700Y0278342D02*
X0381300Y0278342D01*
X0381300Y0278940D02*
X0380700Y0278940D01*
X0380700Y0279539D02*
X0381300Y0279539D01*
X0378491Y0280736D02*
X0375633Y0280736D01*
X0375035Y0280137D02*
X0388917Y0280137D01*
X0389296Y0279539D02*
X0389515Y0279539D01*
X0389545Y0278940D02*
X0389600Y0278940D01*
X0389600Y0278342D02*
X0389550Y0278342D01*
X0389550Y0277743D02*
X0389600Y0277743D01*
X0389600Y0277145D02*
X0386800Y0277145D01*
X0386800Y0276546D02*
X0386200Y0276546D01*
X0386200Y0275948D02*
X0386800Y0275948D01*
X0386800Y0275349D02*
X0386200Y0275349D01*
X0386200Y0274751D02*
X0386800Y0274751D01*
X0389089Y0274751D02*
X0389600Y0274751D01*
X0389600Y0275349D02*
X0389488Y0275349D01*
X0389550Y0275948D02*
X0389600Y0275948D01*
X0389600Y0276546D02*
X0389550Y0276546D01*
X0383911Y0274751D02*
X0383589Y0274751D01*
X0377950Y0277743D02*
X0372640Y0277743D01*
X0373239Y0278342D02*
X0377950Y0278342D01*
X0377955Y0278940D02*
X0373837Y0278940D01*
X0374436Y0279539D02*
X0378204Y0279539D01*
X0378350Y0281334D02*
X0376232Y0281334D01*
X0376830Y0281933D02*
X0378350Y0281933D01*
X0378350Y0282532D02*
X0377000Y0282532D01*
X0377000Y0283130D02*
X0378350Y0283130D01*
X0378324Y0283729D02*
X0377000Y0283729D01*
X0377000Y0284327D02*
X0377726Y0284327D01*
X0378260Y0285490D02*
X0378260Y0287376D01*
X0384751Y0290911D02*
X0388450Y0290911D01*
X0388450Y0290312D02*
X0385349Y0290312D01*
X0387332Y0289714D02*
X0388559Y0289714D01*
X0391200Y0292108D02*
X0391800Y0292108D01*
X0391800Y0292706D02*
X0391200Y0292706D01*
X0391200Y0293305D02*
X0391800Y0293305D01*
X0391800Y0293903D02*
X0391200Y0293903D01*
X0391200Y0294502D02*
X0391800Y0294502D01*
X0393601Y0294502D02*
X0393700Y0294502D01*
X0389399Y0294502D02*
X0387348Y0294502D01*
X0387723Y0295100D02*
X0389127Y0295100D01*
X0389017Y0299290D02*
X0388700Y0299290D01*
X0388700Y0299888D02*
X0393700Y0299888D01*
X0393700Y0300487D02*
X0388700Y0300487D01*
X0388484Y0301085D02*
X0393700Y0301085D01*
X0393700Y0301684D02*
X0388700Y0301684D01*
X0388700Y0302282D02*
X0393700Y0302282D01*
X0393700Y0302881D02*
X0388700Y0302881D01*
X0388490Y0303479D02*
X0393700Y0303479D01*
X0393700Y0304078D02*
X0387892Y0304078D01*
X0385662Y0304676D02*
X0393700Y0304676D01*
X0383914Y0311260D02*
X0381954Y0311260D01*
X0382270Y0310662D02*
X0383316Y0310662D01*
X0376730Y0320238D02*
X0354183Y0320238D01*
X0354782Y0320836D02*
X0376730Y0320836D01*
X0376720Y0321435D02*
X0363780Y0321435D01*
X0364379Y0322033D02*
X0376122Y0322033D01*
X0373928Y0326223D02*
X0372920Y0326223D01*
X0371321Y0328018D02*
X0368401Y0328018D01*
X0368648Y0328617D02*
X0371352Y0328617D01*
X0371104Y0329215D02*
X0368896Y0329215D01*
X0368900Y0329814D02*
X0371100Y0329814D01*
X0371100Y0330412D02*
X0368900Y0330412D01*
X0368803Y0331011D02*
X0371197Y0331011D01*
X0371445Y0331609D02*
X0368555Y0331609D01*
X0368307Y0332208D02*
X0371693Y0332208D01*
X0372291Y0332806D02*
X0367709Y0332806D01*
X0366971Y0333405D02*
X0373029Y0333405D01*
X0376971Y0333405D02*
X0381132Y0333405D01*
X0370723Y0327420D02*
X0367935Y0327420D01*
X0365000Y0330000D02*
X0360800Y0325800D01*
X0352500Y0325800D01*
X0345800Y0319100D01*
X0345800Y0286200D01*
X0343400Y0283800D01*
X0325000Y0283800D01*
X0324000Y0284800D01*
X0321800Y0287400D02*
X0320600Y0286200D01*
X0318200Y0286200D01*
X0315200Y0289200D01*
X0312200Y0289200D01*
X0311600Y0289800D01*
X0311600Y0291000D01*
X0308000Y0289800D02*
X0308000Y0288600D01*
X0309800Y0286800D01*
X0314000Y0286800D01*
X0316383Y0289714D02*
X0320600Y0289714D01*
X0320615Y0290312D02*
X0315785Y0290312D01*
X0316982Y0289115D02*
X0320600Y0289115D01*
X0320600Y0288517D02*
X0317580Y0288517D01*
X0318179Y0287918D02*
X0320600Y0287918D01*
X0321800Y0287400D02*
X0321800Y0289800D01*
X0323600Y0291600D01*
X0326600Y0291600D01*
X0329000Y0289200D01*
X0329000Y0288000D01*
X0329600Y0287400D01*
X0341600Y0287400D01*
X0342200Y0288000D01*
X0342200Y0300600D01*
X0340800Y0302000D01*
X0340750Y0302000D01*
X0340750Y0307000D01*
X0338350Y0307070D02*
X0337650Y0307070D01*
X0337650Y0306472D02*
X0338350Y0306472D01*
X0338350Y0305873D02*
X0337650Y0305873D01*
X0337650Y0305275D02*
X0338350Y0305275D01*
X0338551Y0304676D02*
X0337662Y0304676D01*
X0338008Y0304078D02*
X0338350Y0304078D01*
X0338350Y0303479D02*
X0338050Y0303479D01*
X0338050Y0302881D02*
X0338350Y0302881D01*
X0338350Y0302282D02*
X0335550Y0302282D01*
X0335550Y0301700D02*
X0338050Y0301700D01*
X0338050Y0300079D01*
X0337961Y0299748D01*
X0337790Y0299452D01*
X0337548Y0299210D01*
X0337252Y0299039D01*
X0336921Y0298950D01*
X0335550Y0298950D01*
X0335550Y0301700D01*
X0335550Y0301684D02*
X0334950Y0301684D01*
X0334950Y0302282D02*
X0309052Y0302282D01*
X0307400Y0302400D02*
X0307400Y0303600D01*
X0307400Y0299400D02*
X0307400Y0297600D01*
X0307400Y0294600D02*
X0307400Y0292800D01*
X0292400Y0301200D02*
X0292400Y0307200D01*
X0286400Y0313200D01*
X0270800Y0313200D01*
X0260600Y0323400D01*
X0251600Y0323400D01*
X0250700Y0324300D01*
X0249800Y0324300D01*
X0251000Y0326400D02*
X0247400Y0326400D01*
X0246800Y0325800D01*
X0243200Y0325800D01*
X0242000Y0327000D01*
X0238000Y0327000D01*
X0235000Y0330000D01*
X0237709Y0332806D02*
X0242291Y0332806D01*
X0241693Y0332208D02*
X0238307Y0332208D01*
X0238555Y0331609D02*
X0241445Y0331609D01*
X0241197Y0331011D02*
X0238803Y0331011D01*
X0238900Y0330412D02*
X0241100Y0330412D01*
X0241100Y0329814D02*
X0238900Y0329814D01*
X0238896Y0329215D02*
X0241104Y0329215D01*
X0241352Y0328617D02*
X0238648Y0328617D01*
X0236256Y0324427D02*
X0241076Y0324427D01*
X0241674Y0323829D02*
X0237079Y0323829D01*
X0237265Y0323230D02*
X0245873Y0323230D01*
X0246471Y0322632D02*
X0237265Y0322632D01*
X0237265Y0322033D02*
X0247070Y0322033D01*
X0246738Y0321435D02*
X0237265Y0321435D01*
X0237265Y0320836D02*
X0244866Y0320836D01*
X0244268Y0320238D02*
X0233509Y0320238D01*
X0233509Y0320005D02*
X0233509Y0316151D01*
X0234254Y0316151D01*
X0234200Y0316097D01*
X0234200Y0313170D01*
X0233870Y0313500D01*
X0232130Y0313500D01*
X0231830Y0313200D01*
X0231770Y0313200D01*
X0231470Y0313500D01*
X0229730Y0313500D01*
X0228500Y0312270D01*
X0228500Y0311846D01*
X0228500Y0311846D01*
X0228500Y0312870D01*
X0227270Y0314100D01*
X0226846Y0314100D01*
X0226400Y0314546D01*
X0226166Y0314779D01*
X0226495Y0314779D01*
X0227022Y0315306D01*
X0227022Y0318322D01*
X0229153Y0318322D01*
X0229153Y0317280D01*
X0229241Y0316949D01*
X0229412Y0316653D01*
X0229655Y0316411D01*
X0229951Y0316239D01*
X0230282Y0316151D01*
X0232909Y0316151D01*
X0232909Y0320005D01*
X0233509Y0320005D01*
X0233509Y0319639D02*
X0232909Y0319639D01*
X0232909Y0319041D02*
X0233509Y0319041D01*
X0233509Y0318442D02*
X0232909Y0318442D01*
X0232909Y0317844D02*
X0233509Y0317844D01*
X0233509Y0317245D02*
X0232909Y0317245D01*
X0232909Y0316647D02*
X0233509Y0316647D01*
X0234200Y0316048D02*
X0227022Y0316048D01*
X0227022Y0315450D02*
X0234200Y0315450D01*
X0234200Y0314851D02*
X0226567Y0314851D01*
X0226693Y0314253D02*
X0234200Y0314253D01*
X0234200Y0313654D02*
X0227716Y0313654D01*
X0228314Y0313056D02*
X0229286Y0313056D01*
X0228687Y0312457D02*
X0228500Y0312457D01*
X0228500Y0311859D02*
X0228500Y0311859D01*
X0226554Y0309900D02*
X0226254Y0309600D01*
X0213500Y0309600D01*
X0213500Y0311070D01*
X0212570Y0312000D01*
X0223854Y0312000D01*
X0224300Y0311554D01*
X0224300Y0311130D01*
X0225530Y0309900D01*
X0226554Y0309900D01*
X0225367Y0310063D02*
X0213500Y0310063D01*
X0213500Y0310662D02*
X0224769Y0310662D01*
X0224300Y0311260D02*
X0213310Y0311260D01*
X0212711Y0311859D02*
X0223996Y0311859D01*
X0221876Y0316048D02*
X0221300Y0316048D01*
X0221300Y0316647D02*
X0221876Y0316647D01*
X0221876Y0317245D02*
X0221300Y0317245D01*
X0221300Y0317844D02*
X0221876Y0317844D01*
X0221876Y0318442D02*
X0221300Y0318442D01*
X0221300Y0319041D02*
X0221876Y0319041D01*
X0221876Y0319639D02*
X0221300Y0319639D01*
X0221300Y0320238D02*
X0222321Y0320238D01*
X0221300Y0320836D02*
X0226206Y0320836D01*
X0226206Y0321435D02*
X0221300Y0321435D01*
X0221300Y0322033D02*
X0226206Y0322033D01*
X0226206Y0322632D02*
X0221300Y0322632D01*
X0221300Y0323230D02*
X0226206Y0323230D01*
X0226503Y0323829D02*
X0221300Y0323829D01*
X0221300Y0324427D02*
X0230162Y0324427D01*
X0232079Y0325624D02*
X0221300Y0325624D01*
X0221300Y0325026D02*
X0232677Y0325026D01*
X0232909Y0324427D02*
X0233509Y0324427D01*
X0233509Y0323829D02*
X0232909Y0323829D01*
X0232909Y0323230D02*
X0233509Y0323230D01*
X0233509Y0322632D02*
X0232909Y0322632D01*
X0232909Y0322033D02*
X0233509Y0322033D01*
X0233509Y0321435D02*
X0232909Y0321435D01*
X0232909Y0320836D02*
X0233509Y0320836D01*
X0237265Y0319639D02*
X0244100Y0319639D01*
X0244100Y0319041D02*
X0237265Y0319041D01*
X0237265Y0318442D02*
X0244100Y0318442D01*
X0243853Y0317844D02*
X0244586Y0317844D01*
X0244452Y0317245D02*
X0245185Y0317245D01*
X0245050Y0316647D02*
X0262056Y0316647D01*
X0261458Y0317245D02*
X0247215Y0317245D01*
X0247814Y0317844D02*
X0260859Y0317844D01*
X0260261Y0318442D02*
X0248300Y0318442D01*
X0248300Y0319041D02*
X0259662Y0319041D01*
X0259064Y0319639D02*
X0248336Y0319639D01*
X0248000Y0321000D02*
X0246200Y0319200D01*
X0248000Y0321000D02*
X0259400Y0321000D01*
X0267800Y0312600D01*
X0267800Y0310800D01*
X0264200Y0307200D01*
X0262400Y0307200D01*
X0260300Y0307070D02*
X0248600Y0307070D01*
X0248600Y0306472D02*
X0260300Y0306472D01*
X0260757Y0305873D02*
X0248600Y0305873D01*
X0248600Y0305275D02*
X0261355Y0305275D01*
X0261779Y0304676D02*
X0248621Y0304676D01*
X0249219Y0304078D02*
X0261181Y0304078D01*
X0260582Y0303479D02*
X0249818Y0303479D01*
X0249800Y0301800D02*
X0247400Y0304200D01*
X0247400Y0309600D01*
X0243093Y0313907D01*
X0240000Y0313907D01*
X0237200Y0311700D02*
X0243500Y0311700D01*
X0245000Y0310200D01*
X0245000Y0309000D01*
X0248600Y0308866D02*
X0261096Y0308866D01*
X0260498Y0308268D02*
X0248600Y0308268D01*
X0248600Y0307669D02*
X0260300Y0307669D01*
X0263704Y0308866D02*
X0264169Y0308866D01*
X0264767Y0309465D02*
X0248600Y0309465D01*
X0249033Y0310063D02*
X0265366Y0310063D01*
X0265965Y0310662D02*
X0249631Y0310662D01*
X0250100Y0311260D02*
X0266563Y0311260D01*
X0266600Y0311859D02*
X0250100Y0311859D01*
X0250100Y0312457D02*
X0266246Y0312457D01*
X0265647Y0313056D02*
X0249914Y0313056D01*
X0249316Y0313654D02*
X0265049Y0313654D01*
X0264450Y0314253D02*
X0247444Y0314253D01*
X0246846Y0314851D02*
X0263852Y0314851D01*
X0263253Y0315450D02*
X0246247Y0315450D01*
X0245649Y0316048D02*
X0262655Y0316048D01*
X0266000Y0319800D02*
X0261200Y0324600D01*
X0252800Y0324600D01*
X0251000Y0326400D01*
X0251600Y0327600D02*
X0247400Y0327600D01*
X0245000Y0330000D01*
X0247709Y0332806D02*
X0252291Y0332806D01*
X0251693Y0332208D02*
X0248307Y0332208D01*
X0248555Y0331609D02*
X0251445Y0331609D01*
X0251197Y0331011D02*
X0248803Y0331011D01*
X0248900Y0330412D02*
X0251100Y0330412D01*
X0251100Y0329814D02*
X0248900Y0329814D01*
X0248896Y0329215D02*
X0251104Y0329215D01*
X0251600Y0327600D02*
X0253400Y0325800D01*
X0261800Y0325800D01*
X0266600Y0321000D01*
X0275000Y0321000D01*
X0276200Y0319800D01*
X0279700Y0319800D01*
X0280900Y0318600D01*
X0282515Y0317245D02*
X0283100Y0317245D01*
X0283100Y0316647D02*
X0281917Y0316647D01*
X0283000Y0317844D02*
X0283059Y0317844D01*
X0283582Y0316048D02*
X0279018Y0316048D01*
X0279500Y0316647D02*
X0279883Y0316647D01*
X0278419Y0315450D02*
X0284180Y0315450D01*
X0286219Y0315450D02*
X0288500Y0315450D01*
X0288500Y0314851D02*
X0270846Y0314851D01*
X0270247Y0315450D02*
X0276380Y0315450D01*
X0275782Y0316048D02*
X0269649Y0316048D01*
X0269050Y0316647D02*
X0275300Y0316647D01*
X0275258Y0317245D02*
X0268452Y0317245D01*
X0267853Y0317844D02*
X0274659Y0317844D01*
X0274061Y0318442D02*
X0267255Y0318442D01*
X0266000Y0319800D02*
X0274400Y0319800D01*
X0276800Y0317400D01*
X0277400Y0317400D01*
X0276800Y0321000D02*
X0275600Y0322200D01*
X0267200Y0322200D01*
X0262400Y0327000D01*
X0258000Y0327000D01*
X0255000Y0330000D01*
X0257709Y0332806D02*
X0262291Y0332806D01*
X0261693Y0332208D02*
X0258307Y0332208D01*
X0258555Y0331609D02*
X0261445Y0331609D01*
X0261197Y0331011D02*
X0258803Y0331011D01*
X0258900Y0330412D02*
X0261100Y0330412D01*
X0261100Y0329814D02*
X0258900Y0329814D01*
X0258896Y0329215D02*
X0261104Y0329215D01*
X0261352Y0328617D02*
X0258648Y0328617D01*
X0256971Y0333405D02*
X0263029Y0333405D01*
X0265000Y0330000D02*
X0265000Y0326200D01*
X0267800Y0323400D01*
X0276200Y0323400D01*
X0277400Y0322200D01*
X0282200Y0322200D01*
X0284600Y0319800D01*
X0286300Y0319800D01*
X0288200Y0317900D01*
X0287082Y0316048D02*
X0286818Y0316048D01*
X0287044Y0314253D02*
X0288978Y0314253D01*
X0289576Y0313654D02*
X0287643Y0313654D01*
X0288241Y0313056D02*
X0292647Y0313056D01*
X0292049Y0313654D02*
X0291624Y0313654D01*
X0291800Y0315600D02*
X0290600Y0315600D01*
X0291800Y0315600D02*
X0294200Y0313200D01*
X0302300Y0313200D01*
X0303000Y0312500D01*
X0299700Y0310800D02*
X0295400Y0310800D01*
X0293300Y0310662D02*
X0290635Y0310662D01*
X0290037Y0311260D02*
X0293300Y0311260D01*
X0293489Y0311859D02*
X0289438Y0311859D01*
X0288840Y0312457D02*
X0293246Y0312457D01*
X0293300Y0310063D02*
X0291234Y0310063D01*
X0291833Y0309465D02*
X0293766Y0309465D01*
X0294364Y0308866D02*
X0292431Y0308866D01*
X0290000Y0306000D02*
X0290000Y0289800D01*
X0282200Y0282000D01*
X0278000Y0282000D01*
X0279200Y0283800D02*
X0278600Y0284400D01*
X0275800Y0284400D01*
X0279200Y0283800D02*
X0282200Y0283800D01*
X0288800Y0290400D01*
X0288800Y0305400D01*
X0284600Y0309600D01*
X0270200Y0309600D01*
X0261200Y0300600D01*
X0249200Y0300600D01*
X0246200Y0303600D01*
X0246200Y0304800D01*
X0241423Y0309577D01*
X0240000Y0309577D01*
X0239423Y0309000D01*
X0237200Y0309000D01*
X0236000Y0307800D01*
X0236000Y0303000D01*
X0233600Y0300600D01*
X0233600Y0294000D01*
X0233000Y0293400D01*
X0230900Y0293305D02*
X0219200Y0293305D01*
X0219200Y0293903D02*
X0230900Y0293903D01*
X0231132Y0294502D02*
X0219200Y0294502D01*
X0219200Y0295100D02*
X0231730Y0295100D01*
X0232400Y0295699D02*
X0219200Y0295699D01*
X0219200Y0296297D02*
X0232400Y0296297D01*
X0232400Y0296896D02*
X0219200Y0296896D01*
X0219200Y0297494D02*
X0232400Y0297494D01*
X0232400Y0298093D02*
X0219200Y0298093D01*
X0219200Y0298691D02*
X0232400Y0298691D01*
X0232400Y0299290D02*
X0219200Y0299290D01*
X0219200Y0299888D02*
X0232400Y0299888D01*
X0232400Y0300487D02*
X0219200Y0300487D01*
X0219200Y0301085D02*
X0232400Y0301085D01*
X0232987Y0301684D02*
X0219581Y0301684D01*
X0220179Y0302282D02*
X0233585Y0302282D01*
X0234184Y0302881D02*
X0220778Y0302881D01*
X0221376Y0303479D02*
X0234782Y0303479D01*
X0234800Y0304078D02*
X0229775Y0304078D01*
X0230373Y0304676D02*
X0234800Y0304676D01*
X0234800Y0305275D02*
X0230972Y0305275D01*
X0231571Y0305873D02*
X0234800Y0305873D01*
X0234800Y0306472D02*
X0232169Y0306472D01*
X0231800Y0307800D02*
X0228800Y0304800D01*
X0221000Y0304800D01*
X0218000Y0301800D01*
X0218000Y0274200D01*
X0218600Y0273600D01*
X0220700Y0273554D02*
X0221057Y0273554D01*
X0220700Y0274152D02*
X0221655Y0274152D01*
X0222254Y0274751D02*
X0220419Y0274751D01*
X0219820Y0275349D02*
X0222852Y0275349D01*
X0221789Y0275948D02*
X0219200Y0275948D01*
X0219200Y0276546D02*
X0221554Y0276546D01*
X0221554Y0277145D02*
X0219200Y0277145D01*
X0219200Y0277743D02*
X0221554Y0277743D01*
X0221554Y0278342D02*
X0219200Y0278342D01*
X0219200Y0278940D02*
X0229936Y0278940D01*
X0229936Y0279365D02*
X0221554Y0279365D01*
X0221554Y0281598D01*
X0221643Y0281929D01*
X0221814Y0282225D01*
X0222056Y0282467D01*
X0222353Y0282639D01*
X0222683Y0282727D01*
X0229936Y0282727D01*
X0229936Y0279365D01*
X0229936Y0279539D02*
X0230536Y0279539D01*
X0230536Y0280137D02*
X0229936Y0280137D01*
X0229936Y0280736D02*
X0230536Y0280736D01*
X0230536Y0281334D02*
X0229936Y0281334D01*
X0229936Y0281933D02*
X0230536Y0281933D01*
X0230536Y0282532D02*
X0229936Y0282532D01*
X0230536Y0278940D02*
X0251043Y0278940D01*
X0250445Y0278342D02*
X0238918Y0278342D01*
X0238918Y0277743D02*
X0241446Y0277743D01*
X0240848Y0277145D02*
X0238918Y0277145D01*
X0243200Y0274200D02*
X0251600Y0274200D01*
X0252800Y0275400D01*
X0260600Y0275400D01*
X0266000Y0280800D01*
X0266000Y0287400D01*
X0272000Y0293400D01*
X0272000Y0295200D01*
X0273200Y0296400D01*
X0273800Y0298800D02*
X0276200Y0296400D01*
X0281600Y0296400D01*
X0284000Y0295800D02*
X0284000Y0303000D01*
X0282200Y0304800D01*
X0272600Y0304800D01*
X0263600Y0295800D01*
X0249200Y0295800D01*
X0247400Y0294000D01*
X0247400Y0290400D01*
X0243800Y0286800D01*
X0243800Y0285000D01*
X0242600Y0283800D01*
X0240207Y0283800D01*
X0240000Y0283593D01*
X0236639Y0283130D02*
X0219200Y0283130D01*
X0219200Y0282532D02*
X0222167Y0282532D01*
X0221645Y0281933D02*
X0219200Y0281933D01*
X0219200Y0281334D02*
X0221554Y0281334D01*
X0221554Y0280736D02*
X0219200Y0280736D01*
X0219200Y0280137D02*
X0221554Y0280137D01*
X0221554Y0279539D02*
X0219200Y0279539D01*
X0216800Y0279000D02*
X0214400Y0276600D01*
X0213200Y0276600D01*
X0215600Y0279497D02*
X0215600Y0280470D01*
X0214370Y0281700D01*
X0213200Y0281700D01*
X0213200Y0285146D01*
X0212600Y0285746D01*
X0212600Y0306000D01*
X0218703Y0306000D01*
X0215600Y0302897D01*
X0215600Y0279497D01*
X0215600Y0279497D01*
X0215600Y0279539D02*
X0215600Y0279539D01*
X0215600Y0280137D02*
X0215600Y0280137D01*
X0215600Y0280736D02*
X0215334Y0280736D01*
X0215600Y0281334D02*
X0214735Y0281334D01*
X0215600Y0281933D02*
X0213200Y0281933D01*
X0213200Y0282532D02*
X0215600Y0282532D01*
X0215600Y0283130D02*
X0213200Y0283130D01*
X0213200Y0283729D02*
X0215600Y0283729D01*
X0215600Y0284327D02*
X0213200Y0284327D01*
X0213200Y0284926D02*
X0215600Y0284926D01*
X0215600Y0285524D02*
X0212821Y0285524D01*
X0212600Y0286123D02*
X0215600Y0286123D01*
X0215600Y0286721D02*
X0212600Y0286721D01*
X0212600Y0287320D02*
X0215600Y0287320D01*
X0215600Y0287918D02*
X0212600Y0287918D01*
X0212600Y0288517D02*
X0215600Y0288517D01*
X0215600Y0289115D02*
X0212600Y0289115D01*
X0212600Y0289714D02*
X0215600Y0289714D01*
X0215600Y0290312D02*
X0212600Y0290312D01*
X0212600Y0290911D02*
X0215600Y0290911D01*
X0215600Y0291509D02*
X0212600Y0291509D01*
X0212600Y0292108D02*
X0215600Y0292108D01*
X0215600Y0292706D02*
X0212600Y0292706D01*
X0212600Y0293305D02*
X0215600Y0293305D01*
X0215600Y0293903D02*
X0212600Y0293903D01*
X0212600Y0294502D02*
X0215600Y0294502D01*
X0215600Y0295100D02*
X0212600Y0295100D01*
X0212600Y0295699D02*
X0215600Y0295699D01*
X0215600Y0296297D02*
X0212600Y0296297D01*
X0212600Y0296896D02*
X0215600Y0296896D01*
X0215600Y0297494D02*
X0212600Y0297494D01*
X0212600Y0298093D02*
X0215600Y0298093D01*
X0215600Y0298691D02*
X0212600Y0298691D01*
X0212600Y0299290D02*
X0215600Y0299290D01*
X0215600Y0299888D02*
X0212600Y0299888D01*
X0212600Y0300487D02*
X0215600Y0300487D01*
X0215600Y0301085D02*
X0212600Y0301085D01*
X0212600Y0301684D02*
X0215600Y0301684D01*
X0215600Y0302282D02*
X0212600Y0302282D01*
X0212600Y0302881D02*
X0215600Y0302881D01*
X0216182Y0303479D02*
X0212600Y0303479D01*
X0212600Y0304078D02*
X0216781Y0304078D01*
X0217379Y0304676D02*
X0212600Y0304676D01*
X0212600Y0305275D02*
X0217978Y0305275D01*
X0218576Y0305873D02*
X0212600Y0305873D01*
X0216800Y0302400D02*
X0220400Y0306000D01*
X0228200Y0306000D01*
X0231200Y0309000D01*
X0233600Y0309000D01*
X0235400Y0310800D01*
X0235400Y0315600D01*
X0236600Y0316800D01*
X0243200Y0316800D01*
X0248000Y0312000D01*
X0242754Y0305246D02*
X0240000Y0305246D01*
X0242754Y0305246D02*
X0248600Y0299400D01*
X0261800Y0299400D01*
X0270800Y0308400D01*
X0284000Y0308400D01*
X0287600Y0304800D01*
X0287600Y0291000D01*
X0282800Y0286200D01*
X0281600Y0286200D01*
X0279800Y0287400D02*
X0278600Y0287400D01*
X0279800Y0287400D02*
X0281000Y0288600D01*
X0283400Y0288600D01*
X0286400Y0291600D01*
X0286400Y0304200D01*
X0283400Y0307200D01*
X0271400Y0307200D01*
X0262400Y0298200D01*
X0243200Y0298200D01*
X0242000Y0297000D01*
X0240415Y0297000D01*
X0240000Y0296585D01*
X0243361Y0296664D02*
X0243697Y0297000D01*
X0246903Y0297000D01*
X0245703Y0295800D01*
X0245000Y0295097D01*
X0245000Y0291497D01*
X0243170Y0289667D01*
X0242971Y0289867D01*
X0243259Y0290033D01*
X0243501Y0290275D01*
X0243672Y0290571D01*
X0243761Y0290902D01*
X0243761Y0291963D01*
X0240291Y0291963D01*
X0240291Y0292544D01*
X0243761Y0292544D01*
X0243761Y0293606D01*
X0243672Y0293937D01*
X0243501Y0294233D01*
X0243259Y0294475D01*
X0242971Y0294641D01*
X0243361Y0295031D01*
X0243361Y0296664D01*
X0243593Y0296896D02*
X0246799Y0296896D01*
X0246200Y0296297D02*
X0243361Y0296297D01*
X0243361Y0295699D02*
X0245602Y0295699D01*
X0245003Y0295100D02*
X0243361Y0295100D01*
X0243213Y0294502D02*
X0245000Y0294502D01*
X0245000Y0293903D02*
X0243681Y0293903D01*
X0243761Y0293305D02*
X0245000Y0293305D01*
X0245000Y0292706D02*
X0243761Y0292706D01*
X0243761Y0291509D02*
X0245000Y0291509D01*
X0245000Y0292108D02*
X0240291Y0292108D01*
X0243761Y0290911D02*
X0244414Y0290911D01*
X0243815Y0290312D02*
X0243523Y0290312D01*
X0243217Y0289714D02*
X0243124Y0289714D01*
X0243200Y0288000D02*
X0240077Y0288000D01*
X0240000Y0287923D01*
X0243200Y0288000D02*
X0246200Y0291000D01*
X0246200Y0294600D01*
X0248600Y0297000D01*
X0263000Y0297000D01*
X0272000Y0306000D01*
X0282800Y0306000D01*
X0285200Y0303600D01*
X0285200Y0292200D01*
X0284000Y0291000D01*
X0282200Y0291000D01*
X0279200Y0291000D02*
X0284000Y0295800D01*
X0279200Y0291000D02*
X0279200Y0290400D01*
X0274400Y0293400D02*
X0273800Y0293400D01*
X0267200Y0286800D01*
X0267200Y0280200D01*
X0261200Y0274200D01*
X0253400Y0274200D01*
X0252200Y0273000D01*
X0248000Y0273000D01*
X0245000Y0270000D01*
X0248900Y0269963D02*
X0251100Y0269963D01*
X0251100Y0270561D02*
X0248900Y0270561D01*
X0248900Y0270776D02*
X0248482Y0271785D01*
X0248497Y0271800D01*
X0251524Y0271800D01*
X0251100Y0270776D01*
X0251100Y0269224D01*
X0251577Y0268074D01*
X0250503Y0267000D01*
X0247515Y0267000D01*
X0248306Y0267791D01*
X0248900Y0269224D01*
X0248900Y0270776D01*
X0248741Y0271160D02*
X0251259Y0271160D01*
X0251507Y0271758D02*
X0248493Y0271758D01*
X0248900Y0269364D02*
X0251100Y0269364D01*
X0251290Y0268766D02*
X0248710Y0268766D01*
X0248462Y0268167D02*
X0251538Y0268167D01*
X0251072Y0267569D02*
X0248084Y0267569D01*
X0252670Y0265773D02*
X0363200Y0265773D01*
X0368900Y0270561D02*
X0370735Y0270561D01*
X0370856Y0271160D02*
X0368741Y0271160D01*
X0368493Y0271758D02*
X0371070Y0271758D01*
X0371397Y0272357D02*
X0368159Y0272357D01*
X0367560Y0272955D02*
X0371874Y0272955D01*
X0344600Y0286800D02*
X0342800Y0285000D01*
X0328200Y0285000D01*
X0325100Y0288100D01*
X0328388Y0291509D02*
X0341000Y0291509D01*
X0341000Y0290911D02*
X0328986Y0290911D01*
X0329585Y0290312D02*
X0341000Y0290312D01*
X0341000Y0289714D02*
X0330183Y0289714D01*
X0330200Y0289115D02*
X0341000Y0289115D01*
X0341000Y0292108D02*
X0327789Y0292108D01*
X0327191Y0292706D02*
X0341000Y0292706D01*
X0341000Y0299290D02*
X0337628Y0299290D01*
X0337999Y0299888D02*
X0338350Y0299888D01*
X0338350Y0300487D02*
X0338050Y0300487D01*
X0338050Y0301085D02*
X0338350Y0301085D01*
X0338350Y0301684D02*
X0338050Y0301684D01*
X0335550Y0301085D02*
X0334950Y0301085D01*
X0334950Y0300487D02*
X0335550Y0300487D01*
X0335550Y0299888D02*
X0334950Y0299888D01*
X0334950Y0299290D02*
X0335550Y0299290D01*
X0335250Y0307000D02*
X0332000Y0307000D01*
X0329500Y0309500D01*
X0331600Y0309465D02*
X0333192Y0309465D01*
X0332850Y0308866D02*
X0331831Y0308866D01*
X0332430Y0308268D02*
X0332850Y0308268D01*
X0331600Y0310063D02*
X0339667Y0310063D01*
X0339600Y0310662D02*
X0331308Y0310662D01*
X0330710Y0311260D02*
X0339600Y0311260D01*
X0339600Y0311859D02*
X0310756Y0311859D01*
X0308000Y0314400D02*
X0307400Y0313800D01*
X0308000Y0314400D02*
X0314000Y0314400D01*
X0315200Y0315600D01*
X0315200Y0318400D01*
X0322600Y0325800D01*
X0330800Y0325800D01*
X0335000Y0330000D01*
X0337709Y0332806D02*
X0338300Y0332806D01*
X0338307Y0332208D02*
X0338600Y0332208D01*
X0338600Y0331609D02*
X0338555Y0331609D01*
X0338049Y0333405D02*
X0336971Y0333405D01*
X0333029Y0333405D02*
X0326971Y0333405D01*
X0327709Y0332806D02*
X0332291Y0332806D01*
X0331693Y0332208D02*
X0328307Y0332208D01*
X0328555Y0331609D02*
X0331445Y0331609D01*
X0331197Y0331011D02*
X0328803Y0331011D01*
X0328900Y0330412D02*
X0331100Y0330412D01*
X0331100Y0329814D02*
X0328900Y0329814D01*
X0328896Y0329215D02*
X0331104Y0329215D01*
X0331352Y0328617D02*
X0328648Y0328617D01*
X0328401Y0328018D02*
X0331321Y0328018D01*
X0330723Y0327420D02*
X0327935Y0327420D01*
X0325000Y0330000D02*
X0313500Y0318500D01*
X0313500Y0317500D01*
X0312800Y0316800D01*
X0312344Y0319041D02*
X0311129Y0319041D01*
X0312942Y0319639D02*
X0304917Y0319639D01*
X0304794Y0320238D02*
X0313541Y0320238D01*
X0314139Y0320836D02*
X0305393Y0320836D01*
X0305664Y0321435D02*
X0314738Y0321435D01*
X0315336Y0322033D02*
X0305868Y0322033D01*
X0305868Y0322632D02*
X0315935Y0322632D01*
X0316533Y0323230D02*
X0305802Y0323230D01*
X0305554Y0323829D02*
X0317132Y0323829D01*
X0317730Y0324427D02*
X0305129Y0324427D01*
X0304398Y0325026D02*
X0318329Y0325026D01*
X0318927Y0325624D02*
X0287173Y0325624D01*
X0287771Y0325026D02*
X0301602Y0325026D01*
X0300871Y0324427D02*
X0288370Y0324427D01*
X0288968Y0323829D02*
X0300446Y0323829D01*
X0300198Y0323230D02*
X0289567Y0323230D01*
X0290165Y0322632D02*
X0300131Y0322632D01*
X0300131Y0322033D02*
X0290764Y0322033D01*
X0291362Y0321435D02*
X0300238Y0321435D01*
X0299639Y0320836D02*
X0291961Y0320836D01*
X0292559Y0320238D02*
X0299041Y0320238D01*
X0298442Y0319639D02*
X0297931Y0319639D01*
X0299600Y0319100D02*
X0303000Y0322500D01*
X0304224Y0326100D02*
X0305776Y0326100D01*
X0307209Y0326694D01*
X0308306Y0327791D01*
X0308900Y0329224D01*
X0308900Y0330776D01*
X0308306Y0332209D01*
X0307209Y0333306D01*
X0305776Y0333900D01*
X0304224Y0333900D01*
X0302791Y0333306D01*
X0301694Y0332209D01*
X0301100Y0330776D01*
X0301100Y0329224D01*
X0301694Y0327791D01*
X0302791Y0326694D01*
X0304224Y0326100D01*
X0303928Y0326223D02*
X0296072Y0326223D01*
X0295776Y0326100D02*
X0297209Y0326694D01*
X0298306Y0327791D01*
X0298900Y0329224D01*
X0298900Y0330776D01*
X0298306Y0332209D01*
X0297209Y0333306D01*
X0295776Y0333900D01*
X0294224Y0333900D01*
X0292791Y0333306D01*
X0291694Y0332209D01*
X0291100Y0330776D01*
X0291100Y0329224D01*
X0291694Y0327791D01*
X0292791Y0326694D01*
X0294224Y0326100D01*
X0295776Y0326100D01*
X0297337Y0326821D02*
X0302663Y0326821D01*
X0302065Y0327420D02*
X0297935Y0327420D01*
X0298401Y0328018D02*
X0301599Y0328018D01*
X0301352Y0328617D02*
X0298648Y0328617D01*
X0298896Y0329215D02*
X0301104Y0329215D01*
X0301100Y0329814D02*
X0298900Y0329814D01*
X0298900Y0330412D02*
X0301100Y0330412D01*
X0301197Y0331011D02*
X0298803Y0331011D01*
X0298555Y0331609D02*
X0301445Y0331609D01*
X0301693Y0332208D02*
X0298307Y0332208D01*
X0297709Y0332806D02*
X0302291Y0332806D01*
X0303029Y0333405D02*
X0296971Y0333405D01*
X0293029Y0333405D02*
X0286971Y0333405D01*
X0287709Y0332806D02*
X0292291Y0332806D01*
X0291693Y0332208D02*
X0288307Y0332208D01*
X0288555Y0331609D02*
X0291445Y0331609D01*
X0291197Y0331011D02*
X0288803Y0331011D01*
X0288900Y0330412D02*
X0291100Y0330412D01*
X0291100Y0329814D02*
X0288900Y0329814D01*
X0288896Y0329215D02*
X0291104Y0329215D01*
X0291352Y0328617D02*
X0288648Y0328617D01*
X0288401Y0328018D02*
X0291599Y0328018D01*
X0292065Y0327420D02*
X0287935Y0327420D01*
X0287337Y0326821D02*
X0292663Y0326821D01*
X0293928Y0326223D02*
X0286574Y0326223D01*
X0285000Y0326100D02*
X0293100Y0318000D01*
X0296600Y0318000D01*
X0295269Y0319639D02*
X0293158Y0319639D01*
X0294000Y0315300D02*
X0288300Y0321000D01*
X0285200Y0321000D01*
X0282800Y0323400D01*
X0278000Y0323400D01*
X0275000Y0326400D01*
X0275000Y0330000D01*
X0277709Y0332806D02*
X0282291Y0332806D01*
X0281693Y0332208D02*
X0278307Y0332208D01*
X0278555Y0331609D02*
X0281445Y0331609D01*
X0281197Y0331011D02*
X0278803Y0331011D01*
X0278900Y0330412D02*
X0281100Y0330412D01*
X0281100Y0329814D02*
X0278900Y0329814D01*
X0278896Y0329215D02*
X0281104Y0329215D01*
X0281352Y0328617D02*
X0278648Y0328617D01*
X0278401Y0328018D02*
X0281599Y0328018D01*
X0282065Y0327420D02*
X0277935Y0327420D01*
X0277337Y0326821D02*
X0282663Y0326821D01*
X0283800Y0326223D02*
X0276874Y0326223D01*
X0277473Y0325624D02*
X0283800Y0325624D01*
X0284377Y0325026D02*
X0278071Y0325026D01*
X0274677Y0325026D02*
X0267871Y0325026D01*
X0267273Y0325624D02*
X0274079Y0325624D01*
X0273800Y0326223D02*
X0266674Y0326223D01*
X0267337Y0326821D02*
X0272663Y0326821D01*
X0272065Y0327420D02*
X0267935Y0327420D01*
X0268401Y0328018D02*
X0271599Y0328018D01*
X0271352Y0328617D02*
X0268648Y0328617D01*
X0268896Y0329215D02*
X0271104Y0329215D01*
X0271100Y0329814D02*
X0268900Y0329814D01*
X0268900Y0330412D02*
X0271100Y0330412D01*
X0271197Y0331011D02*
X0268803Y0331011D01*
X0268555Y0331609D02*
X0271445Y0331609D01*
X0271693Y0332208D02*
X0268307Y0332208D01*
X0267709Y0332806D02*
X0272291Y0332806D01*
X0273029Y0333405D02*
X0266971Y0333405D01*
X0276971Y0333405D02*
X0283029Y0333405D01*
X0285000Y0330000D02*
X0285000Y0326100D01*
X0284976Y0324427D02*
X0283470Y0324427D01*
X0284068Y0323829D02*
X0285574Y0323829D01*
X0286173Y0323230D02*
X0284667Y0323230D01*
X0285265Y0322632D02*
X0286771Y0322632D01*
X0281600Y0321000D02*
X0285200Y0317400D01*
X0281600Y0321000D02*
X0276800Y0321000D01*
X0269600Y0310800D02*
X0260600Y0301800D01*
X0249800Y0301800D01*
X0236600Y0310200D02*
X0234200Y0307800D01*
X0231800Y0307800D01*
X0236600Y0310200D02*
X0236600Y0311100D01*
X0237200Y0311700D01*
X0229418Y0316647D02*
X0227022Y0316647D01*
X0227022Y0317245D02*
X0229162Y0317245D01*
X0229153Y0317844D02*
X0227022Y0317844D01*
X0217700Y0317844D02*
X0208754Y0317844D01*
X0208887Y0318442D02*
X0217700Y0318442D01*
X0217700Y0317245D02*
X0208506Y0317245D01*
X0208124Y0316647D02*
X0217700Y0316647D01*
X0217700Y0316048D02*
X0207571Y0316048D01*
X0208104Y0315450D02*
X0206681Y0315450D01*
X0206182Y0314851D02*
X0207506Y0314851D01*
X0206907Y0314253D02*
X0206182Y0314253D01*
X0206182Y0313654D02*
X0206309Y0313654D01*
X0205182Y0320238D02*
X0204582Y0320238D01*
X0204582Y0320836D02*
X0205182Y0320836D01*
X0205182Y0321435D02*
X0204582Y0321435D01*
X0204582Y0322033D02*
X0205182Y0322033D01*
X0205182Y0322632D02*
X0204582Y0322632D01*
X0216072Y0326223D02*
X0217700Y0326223D01*
X0217700Y0326821D02*
X0217337Y0326821D01*
X0225000Y0330000D02*
X0229400Y0330000D01*
X0230086Y0331011D02*
X0231197Y0331011D01*
X0231100Y0330412D02*
X0230685Y0330412D01*
X0231445Y0331609D02*
X0228555Y0331609D01*
X0228307Y0332208D02*
X0231693Y0332208D01*
X0232291Y0332806D02*
X0227709Y0332806D01*
X0226971Y0333405D02*
X0233029Y0333405D01*
X0236971Y0333405D02*
X0243029Y0333405D01*
X0246971Y0333405D02*
X0253029Y0333405D01*
X0269600Y0310800D02*
X0285200Y0310800D01*
X0290000Y0306000D01*
X0294000Y0315300D02*
X0295200Y0315300D01*
X0299000Y0316200D02*
X0299600Y0316800D01*
X0299600Y0319100D01*
X0303000Y0317500D02*
X0303100Y0317400D01*
X0309800Y0317400D01*
X0308471Y0319041D02*
X0305467Y0319041D01*
X0314573Y0313200D02*
X0316400Y0315027D01*
X0316400Y0317800D01*
X0323200Y0324600D01*
X0331400Y0324600D01*
X0332600Y0325800D01*
X0340800Y0325800D01*
X0345000Y0330000D01*
X0347709Y0332806D02*
X0348200Y0332806D01*
X0348200Y0333405D02*
X0346971Y0333405D01*
X0348200Y0334003D02*
X0342500Y0334003D01*
X0342500Y0333405D02*
X0343029Y0333405D01*
X0342368Y0334602D02*
X0348556Y0334602D01*
X0349155Y0335201D02*
X0341769Y0335201D01*
X0340747Y0335799D02*
X0349753Y0335799D01*
X0349254Y0335300D02*
X0349254Y0335300D01*
X0350352Y0336398D02*
X0340148Y0336398D01*
X0339550Y0336996D02*
X0350950Y0336996D01*
X0351549Y0337595D02*
X0338951Y0337595D01*
X0338352Y0338193D02*
X0352147Y0338193D01*
X0352451Y0333405D02*
X0353029Y0333405D01*
X0352291Y0332806D02*
X0351852Y0332806D01*
X0355000Y0330000D02*
X0344600Y0319600D01*
X0344600Y0286800D01*
X0325000Y0270000D02*
X0322000Y0273000D01*
X0317600Y0273000D01*
X0316400Y0274200D01*
X0309800Y0274200D01*
X0305600Y0278400D01*
X0309200Y0273000D02*
X0312000Y0273000D01*
X0315000Y0270000D01*
X0318900Y0269963D02*
X0321100Y0269963D01*
X0321100Y0270561D02*
X0318900Y0270561D01*
X0318741Y0271160D02*
X0321259Y0271160D01*
X0321507Y0271758D02*
X0318493Y0271758D01*
X0318900Y0269364D02*
X0321100Y0269364D01*
X0321290Y0268766D02*
X0318710Y0268766D01*
X0318462Y0268167D02*
X0321538Y0268167D01*
X0321916Y0267569D02*
X0318084Y0267569D01*
X0317486Y0266970D02*
X0322514Y0266970D01*
X0323568Y0266372D02*
X0316432Y0266372D01*
X0313568Y0266372D02*
X0306432Y0266372D01*
X0307486Y0266970D02*
X0312514Y0266970D01*
X0311916Y0267569D02*
X0308084Y0267569D01*
X0308462Y0268167D02*
X0311538Y0268167D01*
X0311290Y0268766D02*
X0308710Y0268766D01*
X0308900Y0269364D02*
X0311100Y0269364D01*
X0291360Y0277743D02*
X0283240Y0277743D01*
X0283839Y0278342D02*
X0290761Y0278342D01*
X0290162Y0278940D02*
X0284437Y0278940D01*
X0285036Y0279539D02*
X0289564Y0279539D01*
X0287693Y0280137D02*
X0285635Y0280137D01*
X0286233Y0280736D02*
X0287094Y0280736D01*
X0270800Y0294000D02*
X0264800Y0288000D01*
X0264800Y0281400D01*
X0260000Y0276600D01*
X0253568Y0266372D02*
X0253269Y0266372D01*
X0243200Y0274200D02*
X0239000Y0270000D01*
X0235000Y0270000D01*
X0230536Y0275948D02*
X0229936Y0275948D01*
X0229936Y0276546D02*
X0230536Y0276546D01*
X0230536Y0277145D02*
X0229936Y0277145D01*
X0229936Y0277743D02*
X0230536Y0277743D01*
X0230536Y0278342D02*
X0229936Y0278342D01*
X0234802Y0283729D02*
X0219200Y0283729D01*
X0219200Y0284327D02*
X0234203Y0284327D01*
X0233800Y0284926D02*
X0219200Y0284926D01*
X0219200Y0285524D02*
X0233800Y0285524D01*
X0233800Y0286123D02*
X0219200Y0286123D01*
X0219200Y0286721D02*
X0234051Y0286721D01*
X0234100Y0287320D02*
X0219200Y0287320D01*
X0219200Y0287918D02*
X0234100Y0287918D01*
X0234100Y0288517D02*
X0219200Y0288517D01*
X0219200Y0289115D02*
X0234100Y0289115D01*
X0234100Y0289714D02*
X0219200Y0289714D01*
X0219200Y0290312D02*
X0234100Y0290312D01*
X0234100Y0290911D02*
X0219200Y0290911D01*
X0219200Y0291509D02*
X0231921Y0291509D01*
X0231322Y0292108D02*
X0219200Y0292108D01*
X0219200Y0292706D02*
X0230900Y0292706D01*
X0234079Y0291509D02*
X0234100Y0291509D01*
X0216800Y0302400D02*
X0216800Y0279000D01*
X0209465Y0281334D02*
X0208932Y0281334D01*
X0208813Y0281933D02*
X0209600Y0281933D01*
X0209600Y0282532D02*
X0208598Y0282532D01*
X0208273Y0283130D02*
X0209600Y0283130D01*
X0209526Y0283729D02*
X0207795Y0283729D01*
X0207062Y0284327D02*
X0209000Y0284327D01*
X0209000Y0284926D02*
X0206182Y0284926D01*
X0206182Y0285524D02*
X0209000Y0285524D01*
X0209000Y0286123D02*
X0206182Y0286123D01*
X0206182Y0286721D02*
X0209000Y0286721D01*
X0209000Y0287320D02*
X0208889Y0287320D01*
X0206711Y0287320D02*
X0206182Y0287320D01*
X0270800Y0294000D02*
X0270800Y0297000D01*
X0272600Y0298800D01*
X0273800Y0298800D01*
X0306072Y0326223D02*
X0313928Y0326223D01*
X0314224Y0326100D02*
X0315776Y0326100D01*
X0317209Y0326694D01*
X0318306Y0327791D01*
X0318900Y0329224D01*
X0318900Y0330776D01*
X0318306Y0332209D01*
X0317209Y0333306D01*
X0315776Y0333900D01*
X0314224Y0333900D01*
X0312791Y0333306D01*
X0311694Y0332209D01*
X0311100Y0330776D01*
X0311100Y0329224D01*
X0311694Y0327791D01*
X0312791Y0326694D01*
X0314224Y0326100D01*
X0312663Y0326821D02*
X0307337Y0326821D01*
X0307935Y0327420D02*
X0312065Y0327420D01*
X0311599Y0328018D02*
X0308401Y0328018D01*
X0308648Y0328617D02*
X0311352Y0328617D01*
X0311104Y0329215D02*
X0308896Y0329215D01*
X0308900Y0329814D02*
X0311100Y0329814D01*
X0311100Y0330412D02*
X0308900Y0330412D01*
X0308803Y0331011D02*
X0311197Y0331011D01*
X0311445Y0331609D02*
X0308555Y0331609D01*
X0308307Y0332208D02*
X0311693Y0332208D01*
X0312291Y0332806D02*
X0307709Y0332806D01*
X0306971Y0333405D02*
X0313029Y0333405D01*
X0316971Y0333405D02*
X0323029Y0333405D01*
X0322291Y0332806D02*
X0317709Y0332806D01*
X0318307Y0332208D02*
X0321693Y0332208D01*
X0321445Y0331609D02*
X0318555Y0331609D01*
X0318803Y0331011D02*
X0321197Y0331011D01*
X0321100Y0330412D02*
X0318900Y0330412D01*
X0318900Y0329814D02*
X0321100Y0329814D01*
X0321104Y0329215D02*
X0318896Y0329215D01*
X0318648Y0328617D02*
X0321352Y0328617D01*
X0321321Y0328018D02*
X0318401Y0328018D01*
X0317935Y0327420D02*
X0320723Y0327420D01*
X0320124Y0326821D02*
X0317337Y0326821D01*
X0316072Y0326223D02*
X0319526Y0326223D01*
X0322929Y0322632D02*
X0342486Y0322632D01*
X0343085Y0323230D02*
X0323527Y0323230D01*
X0322330Y0322033D02*
X0341888Y0322033D01*
X0341289Y0321435D02*
X0321732Y0321435D01*
X0321133Y0320836D02*
X0340691Y0320836D01*
X0340092Y0320238D02*
X0320535Y0320238D01*
X0319936Y0319639D02*
X0339494Y0319639D01*
X0338895Y0319041D02*
X0319338Y0319041D01*
X0318739Y0318442D02*
X0338297Y0318442D01*
X0337698Y0317844D02*
X0318141Y0317844D01*
X0317600Y0317245D02*
X0330075Y0317245D01*
X0329477Y0316647D02*
X0317600Y0316647D01*
X0317600Y0316048D02*
X0329300Y0316048D01*
X0329300Y0315450D02*
X0317600Y0315450D01*
X0317600Y0314851D02*
X0329300Y0314851D01*
X0329778Y0314253D02*
X0317323Y0314253D01*
X0332326Y0323829D02*
X0343683Y0323829D01*
X0344282Y0324427D02*
X0332924Y0324427D01*
X0341723Y0325026D02*
X0344880Y0325026D01*
X0345479Y0325624D02*
X0342321Y0325624D01*
X0342920Y0326223D02*
X0343928Y0326223D01*
X0346072Y0326223D02*
X0346077Y0326223D01*
X0357935Y0327420D02*
X0360723Y0327420D01*
X0361321Y0328018D02*
X0358401Y0328018D01*
X0358648Y0328617D02*
X0361352Y0328617D01*
X0361104Y0329215D02*
X0358896Y0329215D01*
X0358900Y0329814D02*
X0361100Y0329814D01*
X0361100Y0330412D02*
X0358900Y0330412D01*
X0358803Y0331011D02*
X0361197Y0331011D01*
X0361445Y0331609D02*
X0358555Y0331609D01*
X0358307Y0332208D02*
X0361693Y0332208D01*
X0362291Y0332806D02*
X0357709Y0332806D01*
X0356971Y0333405D02*
X0363029Y0333405D01*
X0343400Y0318442D02*
X0343388Y0318442D01*
X0343400Y0317844D02*
X0342789Y0317844D01*
X0342191Y0317245D02*
X0343400Y0317245D01*
X0343400Y0316647D02*
X0341592Y0316647D01*
X0340994Y0316048D02*
X0343400Y0316048D01*
X0343400Y0315450D02*
X0340395Y0315450D01*
X0339797Y0314851D02*
X0343400Y0314851D01*
X0343400Y0314253D02*
X0339198Y0314253D01*
X0338692Y0309465D02*
X0337308Y0309465D01*
X0337650Y0308866D02*
X0338350Y0308866D01*
X0338350Y0308268D02*
X0337650Y0308268D01*
X0337650Y0307669D02*
X0338350Y0307669D01*
X0393700Y0338792D02*
X0186300Y0338792D01*
X0186300Y0339390D02*
X0393700Y0339390D01*
X0393700Y0339989D02*
X0186300Y0339989D01*
X0186300Y0340587D02*
X0393700Y0340587D01*
X0393700Y0341186D02*
X0186300Y0341186D01*
X0186300Y0341784D02*
X0393700Y0341784D01*
X0393700Y0342383D02*
X0186300Y0342383D01*
X0186300Y0342981D02*
X0393700Y0342981D01*
X0393700Y0343580D02*
X0186300Y0343580D01*
X0569709Y0032773D02*
X0569709Y0031705D01*
X0569709Y0029570D02*
X0569709Y0025300D01*
X0570776Y0025300D02*
X0568641Y0025300D01*
X0566466Y0026368D02*
X0565398Y0027435D01*
X0563263Y0027435D01*
X0562196Y0028503D01*
X0563263Y0029570D01*
X0566466Y0029570D01*
X0568641Y0029570D02*
X0569709Y0029570D01*
X0572938Y0028503D02*
X0574006Y0029570D01*
X0577209Y0029570D01*
X0577209Y0031705D02*
X0577209Y0025300D01*
X0574006Y0025300D01*
X0572938Y0026368D01*
X0572938Y0028503D01*
X0579384Y0028503D02*
X0579384Y0026368D01*
X0580451Y0025300D01*
X0582586Y0025300D01*
X0583654Y0027435D02*
X0579384Y0027435D01*
X0579384Y0028503D02*
X0580451Y0029570D01*
X0582586Y0029570D01*
X0583654Y0028503D01*
X0583654Y0027435D01*
X0592275Y0027435D02*
X0594410Y0025300D01*
X0596572Y0025300D02*
X0597639Y0025300D01*
X0597639Y0026368D01*
X0596572Y0026368D01*
X0596572Y0025300D01*
X0599794Y0026368D02*
X0600862Y0025300D01*
X0602997Y0025300D01*
X0604065Y0026368D01*
X0604065Y0027435D01*
X0602997Y0028503D01*
X0600862Y0028503D01*
X0599794Y0029570D01*
X0599794Y0030638D01*
X0600862Y0031705D01*
X0602997Y0031705D01*
X0604065Y0030638D01*
X0606240Y0030638D02*
X0606240Y0026368D01*
X0607308Y0025300D01*
X0609443Y0025300D01*
X0610510Y0026368D01*
X0610510Y0030638D01*
X0609443Y0031705D01*
X0607308Y0031705D01*
X0606240Y0030638D01*
X0612685Y0031705D02*
X0612685Y0025300D01*
X0616956Y0025300D01*
X0619131Y0025300D02*
X0621266Y0027435D01*
X0621266Y0029570D01*
X0619131Y0031705D01*
X0594410Y0031705D02*
X0592275Y0029570D01*
X0592275Y0027435D01*
X0566466Y0026368D02*
X0565398Y0025300D01*
X0562196Y0025300D01*
X0553582Y0029570D02*
X0552514Y0029570D01*
X0550379Y0027435D01*
X0550379Y0025300D02*
X0550379Y0029570D01*
X0548204Y0028503D02*
X0548204Y0027435D01*
X0543933Y0027435D01*
X0543933Y0026368D02*
X0543933Y0028503D01*
X0545001Y0029570D01*
X0547136Y0029570D01*
X0548204Y0028503D01*
X0547136Y0025300D02*
X0545001Y0025300D01*
X0543933Y0026368D01*
X0541758Y0025300D02*
X0538556Y0025300D01*
X0537488Y0026368D01*
X0537488Y0028503D01*
X0538556Y0029570D01*
X0541758Y0029570D01*
X0541758Y0031705D02*
X0541758Y0025300D01*
X0535326Y0025300D02*
X0533191Y0025300D01*
X0534259Y0025300D02*
X0534259Y0031705D01*
X0533191Y0031705D01*
X0531016Y0028503D02*
X0529948Y0029570D01*
X0527813Y0029570D01*
X0526745Y0028503D01*
X0526745Y0026368D01*
X0527813Y0025300D01*
X0529948Y0025300D01*
X0531016Y0026368D01*
X0531016Y0028503D01*
X0524570Y0027435D02*
X0524570Y0026368D01*
X0523503Y0025300D01*
X0521368Y0025300D01*
X0520300Y0026368D01*
X0521368Y0028503D02*
X0523503Y0028503D01*
X0524570Y0027435D01*
X0524570Y0030638D02*
X0523503Y0031705D01*
X0521368Y0031705D01*
X0520300Y0030638D01*
X0520300Y0029570D01*
X0521368Y0028503D01*
D12*
X0385000Y0270000D03*
X0370300Y0315000D03*
X0385000Y0330000D03*
D13*
X0375000Y0330000D03*
X0365000Y0330000D03*
X0355000Y0330000D03*
X0345000Y0330000D03*
X0335000Y0330000D03*
X0325000Y0330000D03*
X0315000Y0330000D03*
X0305000Y0330000D03*
X0295000Y0330000D03*
X0285000Y0330000D03*
X0275000Y0330000D03*
X0265000Y0330000D03*
X0255000Y0330000D03*
X0245000Y0330000D03*
X0235000Y0330000D03*
X0225000Y0330000D03*
X0215000Y0330000D03*
X0205000Y0330000D03*
X0195000Y0330000D03*
X0195000Y0270000D03*
X0205000Y0270000D03*
X0215000Y0270000D03*
X0225000Y0270000D03*
X0235000Y0270000D03*
X0245000Y0270000D03*
X0255000Y0270000D03*
X0265000Y0270000D03*
X0275000Y0270000D03*
X0285000Y0270000D03*
X0295000Y0270000D03*
X0305000Y0270000D03*
X0315000Y0270000D03*
X0325000Y0270000D03*
X0335000Y0270000D03*
X0345000Y0270000D03*
X0355000Y0270000D03*
X0365000Y0270000D03*
X0375000Y0270000D03*
X0370300Y0285000D03*
X0370300Y0295000D03*
X0370300Y0305000D03*
D14*
X0204882Y0319094D03*
X0191890Y0319094D03*
X0191890Y0280906D03*
X0204882Y0280906D03*
D15*
X0303000Y0292500D03*
X0303000Y0297500D03*
X0303000Y0302500D03*
X0303000Y0307500D03*
X0303000Y0312500D03*
X0303000Y0317500D03*
X0303000Y0322500D03*
D16*
X0240000Y0313907D03*
X0240000Y0309577D03*
X0240000Y0305246D03*
X0240000Y0300915D03*
X0240000Y0296585D03*
X0240000Y0292254D03*
X0240000Y0287923D03*
X0240000Y0283593D03*
D17*
X0230236Y0279065D03*
D18*
X0233209Y0320305D03*
D19*
X0228287Y0321191D03*
D20*
X0224449Y0317549D03*
D21*
X0378260Y0296824D03*
X0382000Y0296824D03*
X0385740Y0296824D03*
X0385740Y0287376D03*
X0378260Y0287376D03*
D22*
X0381000Y0282750D03*
X0381000Y0277250D03*
X0386500Y0277250D03*
X0386500Y0282750D03*
X0391500Y0291750D03*
X0391500Y0297250D03*
D23*
X0383250Y0302000D03*
X0377750Y0302000D03*
X0340750Y0302000D03*
X0340750Y0307000D03*
X0335250Y0307000D03*
X0335250Y0302000D03*
D24*
X0386941Y0314760D03*
X0392059Y0314760D03*
X0389500Y0322240D03*
D25*
X0379500Y0321201D03*
X0379500Y0308799D03*
D26*
X0386600Y0302400D03*
X0386600Y0300000D03*
X0382200Y0299600D03*
X0386400Y0291800D03*
X0383400Y0277400D03*
X0377000Y0274800D03*
X0380000Y0260000D03*
X0370000Y0260000D03*
X0360000Y0260000D03*
X0350000Y0260000D03*
X0340000Y0260000D03*
X0340000Y0270000D03*
X0330800Y0274200D03*
X0324000Y0284800D03*
X0325100Y0288100D03*
X0312200Y0282000D03*
X0305600Y0284400D03*
X0302000Y0284400D03*
X0298700Y0284400D03*
X0295400Y0284400D03*
X0293600Y0282000D03*
X0291200Y0284400D03*
X0288800Y0282000D03*
X0281600Y0286200D03*
X0278600Y0287400D03*
X0275600Y0287400D03*
X0275800Y0284400D03*
X0272900Y0285600D03*
X0273200Y0282600D03*
X0273200Y0279600D03*
X0278000Y0282000D03*
X0279200Y0290400D03*
X0276200Y0290400D03*
X0274400Y0293400D03*
X0273200Y0296400D03*
X0273200Y0302400D03*
X0281600Y0302400D03*
X0281600Y0299400D03*
X0281600Y0296400D03*
X0282200Y0291000D03*
X0295600Y0295000D03*
X0295400Y0298200D03*
X0300000Y0300000D03*
X0307400Y0299400D03*
X0307400Y0303600D03*
X0307400Y0307200D03*
X0307400Y0310200D03*
X0307400Y0313800D03*
X0309800Y0317400D03*
X0312800Y0316800D03*
X0312400Y0320400D03*
X0322000Y0317400D03*
X0329500Y0309500D03*
X0331400Y0315600D03*
X0332200Y0322200D03*
X0339800Y0328200D03*
X0340400Y0333600D03*
X0340000Y0340000D03*
X0350000Y0340000D03*
X0360000Y0340000D03*
X0360000Y0330000D03*
X0370000Y0330000D03*
X0370000Y0340000D03*
X0380000Y0340000D03*
X0390000Y0340000D03*
X0390800Y0331800D03*
X0390800Y0329400D03*
X0386600Y0322200D03*
X0386600Y0319800D03*
X0349400Y0315600D03*
X0349400Y0313200D03*
X0341700Y0311000D03*
X0350000Y0305000D03*
X0350000Y0300000D03*
X0350000Y0295000D03*
X0350000Y0290000D03*
X0350000Y0285000D03*
X0355000Y0295000D03*
X0337000Y0300500D03*
X0307400Y0294600D03*
X0308000Y0289800D03*
X0296800Y0307600D03*
X0295400Y0310800D03*
X0295200Y0315300D03*
X0296600Y0318000D03*
X0299000Y0316200D03*
X0290600Y0315600D03*
X0288200Y0317900D03*
X0285200Y0317400D03*
X0280900Y0318600D03*
X0277400Y0317400D03*
X0270400Y0317200D03*
X0262400Y0307200D03*
X0254000Y0317400D03*
X0246200Y0319200D03*
X0249800Y0324300D03*
X0237600Y0320000D03*
X0233000Y0311400D03*
X0230600Y0311400D03*
X0226400Y0312000D03*
X0214800Y0310800D03*
X0211400Y0310200D03*
X0211400Y0307800D03*
X0213800Y0304800D03*
X0229800Y0294000D03*
X0233000Y0293400D03*
X0235900Y0285600D03*
X0243600Y0293400D03*
X0256800Y0286200D03*
X0258000Y0280800D03*
X0250000Y0270000D03*
X0250000Y0260000D03*
X0260000Y0260000D03*
X0270000Y0260000D03*
X0270000Y0270000D03*
X0280000Y0270000D03*
X0290000Y0270000D03*
X0300000Y0270000D03*
X0300000Y0260000D03*
X0290000Y0260000D03*
X0280000Y0260000D03*
X0310000Y0260000D03*
X0320000Y0260000D03*
X0330000Y0260000D03*
X0310000Y0270000D03*
X0360000Y0270000D03*
X0390000Y0260000D03*
X0330000Y0330000D03*
X0330000Y0340000D03*
X0320000Y0340000D03*
X0310000Y0340000D03*
X0310000Y0330000D03*
X0300000Y0330000D03*
X0300000Y0340000D03*
X0290000Y0340000D03*
X0290000Y0330000D03*
X0280000Y0330000D03*
X0280000Y0340000D03*
X0270000Y0340000D03*
X0270000Y0330000D03*
X0260000Y0340000D03*
X0250000Y0340000D03*
X0240000Y0340000D03*
X0230000Y0340000D03*
X0220000Y0340000D03*
X0210000Y0340000D03*
X0210000Y0330000D03*
X0200000Y0334000D03*
X0200000Y0340000D03*
X0190000Y0340000D03*
X0245000Y0309000D03*
X0248000Y0312000D03*
X0261600Y0293400D03*
X0230000Y0270000D03*
X0225200Y0276600D03*
X0218600Y0273600D03*
X0219800Y0268800D03*
X0213200Y0276600D03*
X0213500Y0279600D03*
X0211400Y0280300D03*
X0214100Y0286200D03*
X0207800Y0289200D03*
X0207800Y0291700D03*
X0200000Y0270000D03*
X0200000Y0260000D03*
X0210000Y0260000D03*
X0220000Y0260000D03*
X0230000Y0260000D03*
X0240000Y0260000D03*
X0190000Y0260000D03*
D27*
X0210200Y0265800D02*
X0210200Y0277800D01*
X0211400Y0279000D01*
X0212000Y0279600D01*
X0213500Y0279600D01*
X0211400Y0279000D02*
X0211400Y0280300D01*
X0211400Y0284400D01*
X0210800Y0285000D01*
X0210800Y0307200D01*
X0211400Y0307800D01*
X0227000Y0307800D01*
X0230600Y0311400D01*
X0233000Y0311400D01*
X0226400Y0312000D02*
X0224600Y0313800D01*
X0219800Y0313800D01*
X0219500Y0314100D01*
X0219500Y0333000D01*
X0223000Y0336500D01*
X0337500Y0336500D01*
X0340400Y0333600D01*
X0340400Y0328800D01*
X0339800Y0328200D01*
X0350000Y0327600D02*
X0350000Y0333500D01*
X0353000Y0336500D01*
X0388500Y0336500D01*
X0390800Y0334200D01*
X0390800Y0331800D01*
X0390800Y0329400D01*
X0389500Y0322240D02*
X0386640Y0322240D01*
X0386600Y0322200D01*
X0386600Y0319800D01*
X0386941Y0314760D02*
X0385941Y0314760D01*
X0379500Y0321201D01*
X0376701Y0324000D01*
X0363800Y0324000D01*
X0362600Y0322800D01*
X0354200Y0322800D01*
X0348800Y0317400D01*
X0348800Y0316200D01*
X0349400Y0315600D01*
X0349400Y0313800D01*
X0338000Y0315600D02*
X0350000Y0327600D01*
X0338000Y0315600D02*
X0331400Y0315600D01*
X0377750Y0307049D02*
X0377750Y0302000D01*
X0377750Y0297334D01*
X0378260Y0296824D01*
X0378260Y0294856D01*
X0385740Y0287376D01*
X0385740Y0283510D01*
X0386500Y0282750D01*
X0388850Y0282750D01*
X0391400Y0280200D01*
X0391400Y0265800D01*
X0389000Y0263400D01*
X0365000Y0263400D01*
X0365000Y0270000D01*
X0365000Y0263400D02*
X0212600Y0263400D01*
X0210200Y0265800D01*
X0235900Y0285600D02*
X0235900Y0299900D01*
X0236915Y0300915D01*
X0240000Y0300915D01*
X0219800Y0313800D02*
X0209000Y0313800D01*
X0207800Y0312600D01*
X0207800Y0291700D01*
X0207800Y0289200D01*
X0211400Y0307800D02*
X0211400Y0310200D01*
X0377750Y0307049D02*
X0379500Y0308799D01*
X0383999Y0308799D01*
X0386000Y0310800D01*
X0389600Y0310800D01*
X0392000Y0313200D01*
X0392000Y0314701D01*
X0392059Y0314760D01*
X0386600Y0302400D02*
X0386600Y0300000D01*
X0386600Y0297684D01*
X0387034Y0297250D01*
X0391500Y0297250D01*
X0386600Y0297684D02*
X0385740Y0296824D01*
X0382000Y0296824D02*
X0382000Y0299600D01*
X0382200Y0299600D01*
X0383250Y0300650D01*
X0383250Y0302000D01*
M02*
