G75*
%MOIN*%
%OFA0B0*%
%FSLAX25Y25*%
%IPPOS*%
%LPD*%
%AMOC8*
5,1,8,0,0,1.08239X$1,22.5*
%
%ADD10C,0.00000*%
%ADD11C,0.00600*%
%ADD12R,0.05124X0.01581*%
%ADD13R,0.01581X0.05124*%
%ADD14R,0.06400X0.06400*%
%ADD15C,0.06400*%
%ADD16R,0.02664X0.02861*%
%ADD17R,0.01680X0.03150*%
%ADD18C,0.05912*%
%ADD19R,0.04928X0.01975*%
%ADD20C,0.00500*%
%ADD21R,0.04400X0.04400*%
%ADD22R,0.03400X0.03900*%
%ADD23R,0.03900X0.03400*%
%ADD24R,0.11030X0.06306*%
%ADD25R,0.05912X0.03156*%
%ADD26R,0.09200X0.05200*%
%ADD27R,0.09061X0.14573*%
%ADD28R,0.03550X0.02565*%
%ADD29R,0.03400X0.04400*%
%ADD30R,0.02565X0.03550*%
%ADD31R,0.03943X0.04140*%
%ADD32R,0.04400X0.03400*%
%ADD33R,0.04928X0.05912*%
D10*
X0185000Y0255000D02*
X0185000Y0284843D01*
X0204882Y0284843D01*
X0204882Y0315157D01*
X0185000Y0315157D01*
X0185000Y0345000D01*
X0395000Y0345000D01*
X0395000Y0255000D01*
X0185000Y0255000D01*
D11*
X0520300Y0030638D02*
X0520300Y0029570D01*
X0521368Y0028503D01*
X0523503Y0028503D01*
X0524570Y0027435D01*
X0524570Y0026368D01*
X0523503Y0025300D01*
X0521368Y0025300D01*
X0520300Y0026368D01*
X0520300Y0030638D02*
X0521368Y0031705D01*
X0523503Y0031705D01*
X0524570Y0030638D01*
X0526745Y0028503D02*
X0526745Y0026368D01*
X0527813Y0025300D01*
X0529948Y0025300D01*
X0531016Y0026368D01*
X0531016Y0028503D01*
X0529948Y0029570D01*
X0527813Y0029570D01*
X0526745Y0028503D01*
X0533191Y0031705D02*
X0534259Y0031705D01*
X0534259Y0025300D01*
X0535326Y0025300D02*
X0533191Y0025300D01*
X0537488Y0026368D02*
X0537488Y0028503D01*
X0538556Y0029570D01*
X0541758Y0029570D01*
X0541758Y0031705D02*
X0541758Y0025300D01*
X0538556Y0025300D01*
X0537488Y0026368D01*
X0543933Y0026368D02*
X0543933Y0028503D01*
X0545001Y0029570D01*
X0547136Y0029570D01*
X0548204Y0028503D01*
X0548204Y0027435D01*
X0543933Y0027435D01*
X0543933Y0026368D02*
X0545001Y0025300D01*
X0547136Y0025300D01*
X0550379Y0025300D02*
X0550379Y0029570D01*
X0550379Y0027435D02*
X0552514Y0029570D01*
X0553582Y0029570D01*
X0562196Y0028503D02*
X0563263Y0029570D01*
X0566466Y0029570D01*
X0568641Y0029570D02*
X0570776Y0029570D01*
X0569709Y0030638D02*
X0569709Y0026368D01*
X0570776Y0025300D01*
X0572938Y0026368D02*
X0574006Y0025300D01*
X0576141Y0025300D01*
X0577209Y0026368D01*
X0577209Y0028503D01*
X0576141Y0029570D01*
X0574006Y0029570D01*
X0572938Y0028503D01*
X0572938Y0026368D01*
X0566466Y0026368D02*
X0565398Y0027435D01*
X0563263Y0027435D01*
X0562196Y0028503D01*
X0562196Y0025300D02*
X0565398Y0025300D01*
X0566466Y0026368D01*
X0579384Y0025300D02*
X0582586Y0025300D01*
X0583654Y0026368D01*
X0583654Y0028503D01*
X0582586Y0029570D01*
X0579384Y0029570D01*
X0579384Y0023165D01*
X0592275Y0025300D02*
X0592275Y0029570D01*
X0593342Y0029570D01*
X0594410Y0028503D01*
X0595477Y0029570D01*
X0596545Y0028503D01*
X0596545Y0025300D01*
X0594410Y0025300D02*
X0594410Y0028503D01*
X0598720Y0026368D02*
X0599788Y0027435D01*
X0602991Y0027435D01*
X0602991Y0028503D02*
X0602991Y0025300D01*
X0599788Y0025300D01*
X0598720Y0026368D01*
X0599788Y0029570D02*
X0601923Y0029570D01*
X0602991Y0028503D01*
X0605166Y0028503D02*
X0606233Y0029570D01*
X0609436Y0029570D01*
X0608368Y0027435D02*
X0606233Y0027435D01*
X0605166Y0028503D01*
X0605166Y0025300D02*
X0608368Y0025300D01*
X0609436Y0026368D01*
X0608368Y0027435D01*
X0611611Y0027435D02*
X0614814Y0025300D01*
X0611611Y0025300D02*
X0611611Y0031705D01*
X0614814Y0029570D02*
X0611611Y0027435D01*
X0623428Y0026368D02*
X0624496Y0025300D01*
X0626631Y0025300D01*
X0627698Y0026368D01*
X0629873Y0025300D02*
X0629873Y0031705D01*
X0632009Y0029570D01*
X0634144Y0031705D01*
X0634144Y0025300D01*
X0636319Y0025300D02*
X0636319Y0031705D01*
X0639522Y0031705D01*
X0640589Y0030638D01*
X0640589Y0028503D01*
X0639522Y0027435D01*
X0636319Y0027435D01*
X0627698Y0030638D02*
X0626631Y0031705D01*
X0624496Y0031705D01*
X0623428Y0030638D01*
X0623428Y0026368D01*
X0649210Y0027435D02*
X0651345Y0025300D01*
X0653507Y0025300D02*
X0654575Y0025300D01*
X0654575Y0026368D01*
X0653507Y0026368D01*
X0653507Y0025300D01*
X0656730Y0026368D02*
X0657797Y0025300D01*
X0659932Y0025300D01*
X0661000Y0026368D01*
X0661000Y0027435D01*
X0659932Y0028503D01*
X0657797Y0028503D01*
X0656730Y0029570D01*
X0656730Y0030638D01*
X0657797Y0031705D01*
X0659932Y0031705D01*
X0661000Y0030638D01*
X0663175Y0031705D02*
X0667445Y0031705D01*
X0665310Y0031705D02*
X0665310Y0025300D01*
X0669621Y0026368D02*
X0669621Y0030638D01*
X0670688Y0031705D01*
X0672823Y0031705D01*
X0673891Y0030638D01*
X0676066Y0031705D02*
X0678201Y0029570D01*
X0678201Y0027435D01*
X0676066Y0025300D01*
X0673891Y0026368D02*
X0672823Y0025300D01*
X0670688Y0025300D01*
X0669621Y0026368D01*
X0651345Y0031705D02*
X0649210Y0029570D01*
X0649210Y0027435D01*
D12*
X0312638Y0285236D03*
X0312638Y0287205D03*
X0312638Y0289173D03*
X0312638Y0291142D03*
X0312638Y0293110D03*
X0312638Y0295079D03*
X0312638Y0297047D03*
X0312638Y0299016D03*
X0312638Y0300984D03*
X0312638Y0302953D03*
X0312638Y0304921D03*
X0312638Y0306890D03*
X0312638Y0308858D03*
X0312638Y0310827D03*
X0312638Y0312795D03*
X0312638Y0314764D03*
X0267362Y0314764D03*
X0267362Y0312795D03*
X0267362Y0310827D03*
X0267362Y0308858D03*
X0267362Y0306890D03*
X0267362Y0304921D03*
X0267362Y0302953D03*
X0267362Y0300984D03*
X0267362Y0299016D03*
X0267362Y0297047D03*
X0267362Y0295079D03*
X0267362Y0293110D03*
X0267362Y0291142D03*
X0267362Y0289173D03*
X0267362Y0287205D03*
X0267362Y0285236D03*
D13*
X0275236Y0277362D03*
X0277205Y0277362D03*
X0279173Y0277362D03*
X0281142Y0277362D03*
X0283110Y0277362D03*
X0285079Y0277362D03*
X0287047Y0277362D03*
X0289016Y0277362D03*
X0290984Y0277362D03*
X0292953Y0277362D03*
X0294921Y0277362D03*
X0296890Y0277362D03*
X0298858Y0277362D03*
X0300827Y0277362D03*
X0302795Y0277362D03*
X0304764Y0277362D03*
X0304764Y0322638D03*
X0302795Y0322638D03*
X0300827Y0322638D03*
X0298858Y0322638D03*
X0296890Y0322638D03*
X0294921Y0322638D03*
X0292953Y0322638D03*
X0290984Y0322638D03*
X0289016Y0322638D03*
X0287047Y0322638D03*
X0285079Y0322638D03*
X0283110Y0322638D03*
X0281142Y0322638D03*
X0279173Y0322638D03*
X0277205Y0322638D03*
X0275236Y0322638D03*
D14*
X0370300Y0315000D03*
X0385000Y0330000D03*
X0385000Y0270000D03*
D15*
X0375000Y0270000D03*
X0365000Y0270000D03*
X0355000Y0270000D03*
X0345000Y0270000D03*
X0335000Y0270000D03*
X0325000Y0270000D03*
X0315000Y0270000D03*
X0305000Y0270000D03*
X0295000Y0270000D03*
X0285000Y0270000D03*
X0275000Y0270000D03*
X0265000Y0270000D03*
X0255000Y0270000D03*
X0245000Y0270000D03*
X0235000Y0270000D03*
X0225000Y0270000D03*
X0215000Y0270000D03*
X0205000Y0270000D03*
X0195000Y0270000D03*
X0195000Y0330000D03*
X0205000Y0330000D03*
X0215000Y0330000D03*
X0225000Y0330000D03*
X0235000Y0330000D03*
X0245000Y0330000D03*
X0255000Y0330000D03*
X0265000Y0330000D03*
X0275000Y0330000D03*
X0285000Y0330000D03*
X0295000Y0330000D03*
X0305000Y0330000D03*
X0315000Y0330000D03*
X0325000Y0330000D03*
X0335000Y0330000D03*
X0345000Y0330000D03*
X0355000Y0330000D03*
X0365000Y0330000D03*
X0375000Y0330000D03*
X0370300Y0305000D03*
X0370300Y0295000D03*
X0370300Y0285000D03*
D16*
X0356250Y0282803D03*
X0356250Y0289197D03*
X0343750Y0289197D03*
X0343750Y0282801D03*
X0343750Y0310801D03*
X0343750Y0317197D03*
X0356250Y0317197D03*
X0356250Y0310803D03*
D17*
X0356742Y0314000D03*
X0343258Y0314000D03*
X0343258Y0286000D03*
X0356742Y0286000D03*
D18*
X0204882Y0280906D03*
X0191890Y0280906D03*
X0191890Y0319094D03*
X0204882Y0319094D03*
D19*
X0207972Y0305118D03*
X0207972Y0302559D03*
X0207972Y0300000D03*
X0207972Y0297441D03*
X0207972Y0294882D03*
D20*
X0206654Y0283661D02*
X0203110Y0283661D01*
X0202573Y0283608D01*
X0202056Y0283452D01*
X0201579Y0283197D01*
X0201162Y0282854D01*
X0200819Y0282437D01*
X0200564Y0281960D01*
X0200407Y0281443D01*
X0200354Y0280906D01*
X0200407Y0280368D01*
X0200564Y0279851D01*
X0200819Y0279374D01*
X0201162Y0278957D01*
X0201579Y0278614D01*
X0202056Y0278359D01*
X0202573Y0278203D01*
X0203110Y0278150D01*
X0206654Y0278150D01*
X0207191Y0278203D01*
X0207708Y0278359D01*
X0208185Y0278614D01*
X0208602Y0278957D01*
X0208945Y0279374D01*
X0209200Y0279851D01*
X0209356Y0280368D01*
X0209409Y0280906D01*
X0209356Y0281443D01*
X0209200Y0281960D01*
X0208945Y0282437D01*
X0208602Y0282854D01*
X0208185Y0283197D01*
X0207708Y0283452D01*
X0207191Y0283608D01*
X0206654Y0283661D01*
X0207776Y0283415D02*
X0201987Y0283415D01*
X0201238Y0282917D02*
X0208526Y0282917D01*
X0208955Y0282418D02*
X0200809Y0282418D01*
X0200552Y0281920D02*
X0209212Y0281920D01*
X0209359Y0281421D02*
X0200405Y0281421D01*
X0200356Y0280923D02*
X0209408Y0280923D01*
X0209362Y0280424D02*
X0200402Y0280424D01*
X0200541Y0279926D02*
X0209222Y0279926D01*
X0208973Y0279427D02*
X0200791Y0279427D01*
X0201196Y0278929D02*
X0208568Y0278929D01*
X0207840Y0278430D02*
X0201923Y0278430D01*
X0196230Y0279926D02*
X0187549Y0279926D01*
X0187572Y0279851D02*
X0187415Y0280368D01*
X0187362Y0280906D01*
X0187415Y0281443D01*
X0187572Y0281960D01*
X0187827Y0282437D01*
X0188169Y0282854D01*
X0188587Y0283197D01*
X0189063Y0283452D01*
X0189580Y0283608D01*
X0190118Y0283661D01*
X0193661Y0283661D01*
X0194199Y0283608D01*
X0194716Y0283452D01*
X0195193Y0283197D01*
X0195610Y0282854D01*
X0195953Y0282437D01*
X0196208Y0281960D01*
X0196364Y0281443D01*
X0196417Y0280906D01*
X0196364Y0280368D01*
X0196208Y0279851D01*
X0195953Y0279374D01*
X0195610Y0278957D01*
X0195193Y0278614D01*
X0194716Y0278359D01*
X0194199Y0278203D01*
X0193661Y0278150D01*
X0190118Y0278150D01*
X0189580Y0278203D01*
X0189063Y0278359D01*
X0188587Y0278614D01*
X0188169Y0278957D01*
X0187827Y0279374D01*
X0187572Y0279851D01*
X0187799Y0279427D02*
X0195981Y0279427D01*
X0195576Y0278929D02*
X0188204Y0278929D01*
X0188931Y0278430D02*
X0194848Y0278430D01*
X0196370Y0280424D02*
X0187410Y0280424D01*
X0187364Y0280923D02*
X0196416Y0280923D01*
X0196367Y0281421D02*
X0187413Y0281421D01*
X0187560Y0281920D02*
X0196220Y0281920D01*
X0195963Y0282418D02*
X0187817Y0282418D01*
X0188245Y0282917D02*
X0195534Y0282917D01*
X0194784Y0283415D02*
X0188995Y0283415D01*
X0190118Y0316339D02*
X0189580Y0316392D01*
X0189063Y0316548D01*
X0188587Y0316803D01*
X0188169Y0317146D01*
X0187827Y0317563D01*
X0187572Y0318040D01*
X0187415Y0318557D01*
X0187362Y0319094D01*
X0187415Y0319632D01*
X0187572Y0320149D01*
X0187827Y0320626D01*
X0188169Y0321043D01*
X0188587Y0321386D01*
X0189063Y0321641D01*
X0189580Y0321797D01*
X0190118Y0321850D01*
X0193661Y0321850D01*
X0194199Y0321797D01*
X0194716Y0321641D01*
X0195193Y0321386D01*
X0195610Y0321043D01*
X0195953Y0320626D01*
X0196208Y0320149D01*
X0196364Y0319632D01*
X0196417Y0319094D01*
X0196364Y0318557D01*
X0196208Y0318040D01*
X0195953Y0317563D01*
X0195610Y0317146D01*
X0195193Y0316803D01*
X0194716Y0316548D01*
X0194199Y0316392D01*
X0193661Y0316339D01*
X0190118Y0316339D01*
X0188572Y0316815D02*
X0195208Y0316815D01*
X0195748Y0317314D02*
X0188031Y0317314D01*
X0187694Y0317812D02*
X0196086Y0317812D01*
X0196290Y0318311D02*
X0187490Y0318311D01*
X0187390Y0318809D02*
X0196389Y0318809D01*
X0196396Y0319308D02*
X0187383Y0319308D01*
X0187468Y0319806D02*
X0196311Y0319806D01*
X0196124Y0320305D02*
X0187655Y0320305D01*
X0187973Y0320803D02*
X0195807Y0320803D01*
X0195295Y0321302D02*
X0188485Y0321302D01*
X0189612Y0321801D02*
X0194168Y0321801D01*
X0200460Y0319806D02*
X0209304Y0319806D01*
X0209356Y0319632D02*
X0209409Y0319094D01*
X0209356Y0318557D01*
X0209200Y0318040D01*
X0208945Y0317563D01*
X0208602Y0317146D01*
X0208185Y0316803D01*
X0207708Y0316548D01*
X0207191Y0316392D01*
X0206654Y0316339D01*
X0203110Y0316339D01*
X0202573Y0316392D01*
X0202056Y0316548D01*
X0201579Y0316803D01*
X0201162Y0317146D01*
X0200819Y0317563D01*
X0200564Y0318040D01*
X0200407Y0318557D01*
X0200354Y0319094D01*
X0200407Y0319632D01*
X0200564Y0320149D01*
X0200819Y0320626D01*
X0201162Y0321043D01*
X0201579Y0321386D01*
X0202056Y0321641D01*
X0202573Y0321797D01*
X0203110Y0321850D01*
X0206654Y0321850D01*
X0207191Y0321797D01*
X0207708Y0321641D01*
X0208185Y0321386D01*
X0208602Y0321043D01*
X0208945Y0320626D01*
X0209200Y0320149D01*
X0209356Y0319632D01*
X0209388Y0319308D02*
X0200375Y0319308D01*
X0200382Y0318809D02*
X0209381Y0318809D01*
X0209282Y0318311D02*
X0200482Y0318311D01*
X0200686Y0317812D02*
X0209078Y0317812D01*
X0208740Y0317314D02*
X0201024Y0317314D01*
X0201564Y0316815D02*
X0208200Y0316815D01*
X0209116Y0320305D02*
X0200647Y0320305D01*
X0200965Y0320803D02*
X0208799Y0320803D01*
X0208287Y0321302D02*
X0201477Y0321302D01*
X0202604Y0321801D02*
X0207160Y0321801D01*
D21*
X0361500Y0290500D03*
X0361500Y0284500D03*
D22*
X0363750Y0277500D03*
X0368250Y0277500D03*
X0373750Y0277500D03*
X0358250Y0277500D03*
X0353750Y0277500D03*
X0348250Y0277500D03*
X0343750Y0277500D03*
X0338250Y0277500D03*
X0333750Y0277500D03*
X0332750Y0282500D03*
X0332750Y0287500D03*
X0332250Y0292500D03*
X0332250Y0297500D03*
X0337750Y0297500D03*
X0337750Y0292500D03*
X0327250Y0287500D03*
X0327250Y0282500D03*
X0328250Y0277500D03*
X0323750Y0277500D03*
X0318250Y0277500D03*
X0323250Y0323500D03*
X0328750Y0323500D03*
X0344250Y0322500D03*
X0349750Y0322500D03*
X0354250Y0322500D03*
X0359750Y0322500D03*
X0364150Y0322500D03*
X0369650Y0322500D03*
X0261750Y0322500D03*
X0261250Y0317500D03*
X0255750Y0317500D03*
X0256250Y0322500D03*
X0246250Y0322500D03*
X0240750Y0322500D03*
X0236250Y0322500D03*
X0230750Y0322500D03*
X0222750Y0309500D03*
X0222750Y0304300D03*
X0222750Y0299300D03*
X0217250Y0299300D03*
X0217250Y0304300D03*
X0217250Y0309500D03*
X0251750Y0312500D03*
X0257250Y0312500D03*
X0256250Y0283500D03*
X0256250Y0278500D03*
X0261750Y0278500D03*
X0261750Y0283500D03*
D23*
X0251500Y0283750D03*
X0246500Y0282750D03*
X0246500Y0277250D03*
X0251500Y0278250D03*
X0227500Y0277250D03*
X0222500Y0277250D03*
X0222500Y0282750D03*
X0227500Y0282750D03*
X0222500Y0288750D03*
X0217500Y0288750D03*
X0217500Y0294250D03*
X0222500Y0294250D03*
X0217000Y0282750D03*
X0217000Y0277250D03*
X0251000Y0317250D03*
X0251000Y0322750D03*
X0318500Y0323750D03*
X0318500Y0318250D03*
X0320500Y0313750D03*
X0320500Y0308250D03*
X0357500Y0304750D03*
X0362500Y0304750D03*
X0362500Y0299250D03*
X0357500Y0299250D03*
D24*
X0323000Y0301740D03*
X0323000Y0294260D03*
D25*
X0320500Y0287953D03*
X0320500Y0282047D03*
D26*
X0229800Y0288900D03*
X0229800Y0298000D03*
X0229800Y0307100D03*
D27*
X0254201Y0298000D03*
D28*
X0225724Y0315260D03*
X0225724Y0319000D03*
X0225724Y0322740D03*
X0216276Y0322740D03*
X0216276Y0315260D03*
D29*
X0325500Y0318000D03*
X0325500Y0311000D03*
D30*
X0331260Y0308776D03*
X0335000Y0308776D03*
X0338740Y0308776D03*
X0338740Y0318224D03*
X0331260Y0318224D03*
X0359728Y0316650D03*
X0363272Y0316650D03*
X0363272Y0310350D03*
X0359728Y0310350D03*
D31*
X0244701Y0315500D03*
X0232299Y0315500D03*
D32*
X0333200Y0303500D03*
X0340200Y0303500D03*
D33*
X0240543Y0281000D03*
X0233457Y0281000D03*
M02*
