G75*
%MOIN*%
%OFA0B0*%
%FSLAX25Y25*%
%IPPOS*%
%LPD*%
%AMOC8*
5,1,8,0,0,1.08239X$1,22.5*
%
%ADD10C,0.00000*%
%ADD11C,0.00600*%
%ADD12C,0.00500*%
%ADD13C,0.01000*%
%ADD14R,0.07500X0.01000*%
%ADD15R,0.01000X0.04000*%
D10*
X0185000Y0255000D02*
X0185000Y0284843D01*
X0204882Y0284843D01*
X0204882Y0315157D01*
X0185000Y0315157D01*
X0185000Y0345000D01*
X0395000Y0345000D01*
X0395000Y0255000D01*
X0185000Y0255000D01*
D11*
X0190880Y0258700D02*
X0192181Y0258700D01*
X0192615Y0259134D01*
X0192615Y0259567D01*
X0192181Y0260001D01*
X0190880Y0260001D01*
X0190880Y0258700D02*
X0190880Y0261302D01*
X0192181Y0261302D01*
X0192615Y0260869D01*
X0192615Y0260435D01*
X0192181Y0260001D01*
X0193827Y0260435D02*
X0194694Y0261302D01*
X0194694Y0258700D01*
X0193827Y0258700D02*
X0195562Y0258700D01*
X0196773Y0258700D02*
X0198508Y0260435D01*
X0198508Y0260869D01*
X0198074Y0261302D01*
X0197207Y0261302D01*
X0196773Y0260869D01*
X0196773Y0258700D02*
X0198508Y0258700D01*
X0200880Y0258700D02*
X0202181Y0258700D01*
X0202615Y0259134D01*
X0202615Y0259567D01*
X0202181Y0260001D01*
X0200880Y0260001D01*
X0200880Y0258700D02*
X0200880Y0261302D01*
X0202181Y0261302D01*
X0202615Y0260869D01*
X0202615Y0260435D01*
X0202181Y0260001D01*
X0203827Y0260435D02*
X0204694Y0261302D01*
X0204694Y0258700D01*
X0203827Y0258700D02*
X0205562Y0258700D01*
X0206773Y0259134D02*
X0207207Y0258700D01*
X0208074Y0258700D01*
X0208508Y0259134D01*
X0208508Y0259567D01*
X0208074Y0260001D01*
X0207641Y0260001D01*
X0208074Y0260001D02*
X0208508Y0260435D01*
X0208508Y0260869D01*
X0208074Y0261302D01*
X0207207Y0261302D01*
X0206773Y0260869D01*
X0210880Y0261302D02*
X0212181Y0261302D01*
X0212615Y0260869D01*
X0212615Y0260435D01*
X0212181Y0260001D01*
X0210880Y0260001D01*
X0210880Y0258700D02*
X0212181Y0258700D01*
X0212615Y0259134D01*
X0212615Y0259567D01*
X0212181Y0260001D01*
X0213827Y0260435D02*
X0214694Y0261302D01*
X0214694Y0258700D01*
X0213827Y0258700D02*
X0215562Y0258700D01*
X0216773Y0260001D02*
X0218508Y0260001D01*
X0218074Y0258700D02*
X0218074Y0261302D01*
X0216773Y0260001D01*
X0220880Y0260001D02*
X0222181Y0260001D01*
X0222615Y0259567D01*
X0222615Y0259134D01*
X0222181Y0258700D01*
X0220880Y0258700D01*
X0220880Y0261302D01*
X0222181Y0261302D01*
X0222615Y0260869D01*
X0222615Y0260435D01*
X0222181Y0260001D01*
X0223827Y0260435D02*
X0224694Y0261302D01*
X0224694Y0258700D01*
X0223827Y0258700D02*
X0225562Y0258700D01*
X0226773Y0259134D02*
X0227207Y0258700D01*
X0228074Y0258700D01*
X0228508Y0259134D01*
X0228508Y0260001D01*
X0228074Y0260435D01*
X0227641Y0260435D01*
X0226773Y0260001D01*
X0226773Y0261302D01*
X0228508Y0261302D01*
X0232353Y0260435D02*
X0233221Y0261302D01*
X0234088Y0260435D01*
X0234088Y0258700D01*
X0235300Y0259134D02*
X0235300Y0259567D01*
X0235734Y0260001D01*
X0236601Y0260001D01*
X0237035Y0259567D01*
X0237035Y0259134D01*
X0236601Y0258700D01*
X0235734Y0258700D01*
X0235300Y0259134D01*
X0235734Y0260001D02*
X0235300Y0260435D01*
X0235300Y0260869D01*
X0235734Y0261302D01*
X0236601Y0261302D01*
X0237035Y0260869D01*
X0237035Y0260435D01*
X0236601Y0260001D01*
X0234088Y0260001D02*
X0232353Y0260001D01*
X0232353Y0260435D02*
X0232353Y0258700D01*
X0242353Y0258700D02*
X0242353Y0260435D01*
X0243221Y0261302D01*
X0244088Y0260435D01*
X0244088Y0258700D01*
X0245300Y0259134D02*
X0245734Y0258700D01*
X0246601Y0258700D01*
X0247035Y0259134D01*
X0247035Y0260869D01*
X0246601Y0261302D01*
X0245734Y0261302D01*
X0245300Y0260869D01*
X0245300Y0260435D01*
X0245734Y0260001D01*
X0247035Y0260001D01*
X0244088Y0260001D02*
X0242353Y0260001D01*
X0250880Y0260001D02*
X0252615Y0260001D01*
X0252615Y0260435D02*
X0252615Y0258700D01*
X0253827Y0258700D02*
X0255562Y0258700D01*
X0254694Y0258700D02*
X0254694Y0261302D01*
X0253827Y0260435D01*
X0252615Y0260435D02*
X0251748Y0261302D01*
X0250880Y0260435D01*
X0250880Y0258700D01*
X0256773Y0259134D02*
X0258508Y0260869D01*
X0258508Y0259134D01*
X0258074Y0258700D01*
X0257207Y0258700D01*
X0256773Y0259134D01*
X0256773Y0260869D01*
X0257207Y0261302D01*
X0258074Y0261302D01*
X0258508Y0260869D01*
X0260880Y0260435D02*
X0261748Y0261302D01*
X0262615Y0260435D01*
X0262615Y0258700D01*
X0263827Y0258700D02*
X0265562Y0258700D01*
X0264694Y0258700D02*
X0264694Y0261302D01*
X0263827Y0260435D01*
X0262615Y0260001D02*
X0260880Y0260001D01*
X0260880Y0260435D02*
X0260880Y0258700D01*
X0266773Y0258700D02*
X0268508Y0258700D01*
X0267641Y0258700D02*
X0267641Y0261302D01*
X0266773Y0260435D01*
X0270880Y0260435D02*
X0271748Y0261302D01*
X0272615Y0260435D01*
X0272615Y0258700D01*
X0273827Y0258700D02*
X0275562Y0258700D01*
X0274694Y0258700D02*
X0274694Y0261302D01*
X0273827Y0260435D01*
X0272615Y0260001D02*
X0270880Y0260001D01*
X0270880Y0260435D02*
X0270880Y0258700D01*
X0276773Y0258700D02*
X0278508Y0260435D01*
X0278508Y0260869D01*
X0278074Y0261302D01*
X0277207Y0261302D01*
X0276773Y0260869D01*
X0276773Y0258700D02*
X0278508Y0258700D01*
X0280880Y0258700D02*
X0280880Y0260435D01*
X0281748Y0261302D01*
X0282615Y0260435D01*
X0282615Y0258700D01*
X0283827Y0258700D02*
X0285562Y0258700D01*
X0284694Y0258700D02*
X0284694Y0261302D01*
X0283827Y0260435D01*
X0282615Y0260001D02*
X0280880Y0260001D01*
X0286773Y0260001D02*
X0286773Y0261302D01*
X0288508Y0261302D01*
X0288074Y0260435D02*
X0288508Y0260001D01*
X0288508Y0259134D01*
X0288074Y0258700D01*
X0287207Y0258700D01*
X0286773Y0259134D01*
X0286773Y0260001D02*
X0287641Y0260435D01*
X0288074Y0260435D01*
X0292353Y0260001D02*
X0293655Y0260001D01*
X0294088Y0259567D01*
X0294088Y0259134D01*
X0293655Y0258700D01*
X0292353Y0258700D01*
X0292353Y0261302D01*
X0293655Y0261302D01*
X0294088Y0260869D01*
X0294088Y0260435D01*
X0293655Y0260001D01*
X0295300Y0259134D02*
X0295734Y0258700D01*
X0296601Y0258700D01*
X0297035Y0259134D01*
X0297035Y0259567D01*
X0296601Y0260001D01*
X0296167Y0260001D01*
X0296601Y0260001D02*
X0297035Y0260435D01*
X0297035Y0260869D01*
X0296601Y0261302D01*
X0295734Y0261302D01*
X0295300Y0260869D01*
X0302353Y0261302D02*
X0302353Y0258700D01*
X0303655Y0258700D01*
X0304088Y0259134D01*
X0304088Y0259567D01*
X0303655Y0260001D01*
X0302353Y0260001D01*
X0302353Y0261302D02*
X0303655Y0261302D01*
X0304088Y0260869D01*
X0304088Y0260435D01*
X0303655Y0260001D01*
X0305300Y0260001D02*
X0307035Y0260001D01*
X0306601Y0258700D02*
X0306601Y0261302D01*
X0305300Y0260001D01*
X0312353Y0260001D02*
X0313655Y0260001D01*
X0314088Y0259567D01*
X0314088Y0259134D01*
X0313655Y0258700D01*
X0312353Y0258700D01*
X0312353Y0261302D01*
X0313655Y0261302D01*
X0314088Y0260869D01*
X0314088Y0260435D01*
X0313655Y0260001D01*
X0315300Y0260001D02*
X0316167Y0260435D01*
X0316601Y0260435D01*
X0317035Y0260001D01*
X0317035Y0259134D01*
X0316601Y0258700D01*
X0315734Y0258700D01*
X0315300Y0259134D01*
X0315300Y0260001D02*
X0315300Y0261302D01*
X0317035Y0261302D01*
X0322353Y0261302D02*
X0323655Y0261302D01*
X0324088Y0260869D01*
X0324088Y0260435D01*
X0323655Y0260001D01*
X0322353Y0260001D01*
X0322353Y0258700D02*
X0323655Y0258700D01*
X0324088Y0259134D01*
X0324088Y0259567D01*
X0323655Y0260001D01*
X0325300Y0260001D02*
X0326601Y0260001D01*
X0327035Y0259567D01*
X0327035Y0259134D01*
X0326601Y0258700D01*
X0325734Y0258700D01*
X0325300Y0259134D01*
X0325300Y0260001D01*
X0326167Y0260869D01*
X0327035Y0261302D01*
X0322353Y0261302D02*
X0322353Y0258700D01*
X0332353Y0258700D02*
X0333655Y0258700D01*
X0334088Y0259134D01*
X0334088Y0259567D01*
X0333655Y0260001D01*
X0332353Y0260001D01*
X0332353Y0258700D02*
X0332353Y0261302D01*
X0333655Y0261302D01*
X0334088Y0260869D01*
X0334088Y0260435D01*
X0333655Y0260001D01*
X0335300Y0259134D02*
X0335300Y0258700D01*
X0335300Y0259134D02*
X0337035Y0260869D01*
X0337035Y0261302D01*
X0335300Y0261302D01*
X0342353Y0261302D02*
X0342353Y0258700D01*
X0343655Y0258700D01*
X0344088Y0259134D01*
X0344088Y0259567D01*
X0343655Y0260001D01*
X0342353Y0260001D01*
X0342353Y0261302D02*
X0343655Y0261302D01*
X0344088Y0260869D01*
X0344088Y0260435D01*
X0343655Y0260001D01*
X0345300Y0259567D02*
X0345734Y0260001D01*
X0346601Y0260001D01*
X0347035Y0259567D01*
X0347035Y0259134D01*
X0346601Y0258700D01*
X0345734Y0258700D01*
X0345300Y0259134D01*
X0345300Y0259567D01*
X0345734Y0260001D02*
X0345300Y0260435D01*
X0345300Y0260869D01*
X0345734Y0261302D01*
X0346601Y0261302D01*
X0347035Y0260869D01*
X0347035Y0260435D01*
X0346601Y0260001D01*
X0352353Y0260001D02*
X0353655Y0260001D01*
X0354088Y0259567D01*
X0354088Y0259134D01*
X0353655Y0258700D01*
X0352353Y0258700D01*
X0352353Y0261302D01*
X0353655Y0261302D01*
X0354088Y0260869D01*
X0354088Y0260435D01*
X0353655Y0260001D01*
X0355300Y0260435D02*
X0355734Y0260001D01*
X0357035Y0260001D01*
X0357035Y0259134D02*
X0357035Y0260869D01*
X0356601Y0261302D01*
X0355734Y0261302D01*
X0355300Y0260869D01*
X0355300Y0260435D01*
X0355300Y0259134D02*
X0355734Y0258700D01*
X0356601Y0258700D01*
X0357035Y0259134D01*
X0362353Y0259134D02*
X0362787Y0258700D01*
X0363655Y0258700D01*
X0364088Y0259134D01*
X0364088Y0260001D01*
X0363655Y0260435D01*
X0363221Y0260435D01*
X0362353Y0260001D01*
X0362353Y0261302D01*
X0364088Y0261302D01*
X0365300Y0261302D02*
X0365300Y0259567D01*
X0366167Y0258700D01*
X0367035Y0259567D01*
X0367035Y0261302D01*
X0370880Y0260869D02*
X0370880Y0259134D01*
X0371314Y0258700D01*
X0372181Y0258700D01*
X0372615Y0259134D01*
X0372615Y0260001D01*
X0371748Y0260001D01*
X0372615Y0260869D02*
X0372181Y0261302D01*
X0371314Y0261302D01*
X0370880Y0260869D01*
X0373827Y0261302D02*
X0375562Y0258700D01*
X0375562Y0261302D01*
X0376773Y0261302D02*
X0378074Y0261302D01*
X0378508Y0260869D01*
X0378508Y0259134D01*
X0378074Y0258700D01*
X0376773Y0258700D01*
X0376773Y0261302D01*
X0373827Y0261302D02*
X0373827Y0258700D01*
X0381407Y0259134D02*
X0381841Y0258700D01*
X0382708Y0258700D01*
X0383142Y0259134D01*
X0383142Y0259567D01*
X0382708Y0260001D01*
X0382274Y0260001D01*
X0382708Y0260001D02*
X0383142Y0260435D01*
X0383142Y0260869D01*
X0382708Y0261302D01*
X0381841Y0261302D01*
X0381407Y0260869D01*
X0384353Y0261302D02*
X0384353Y0259567D01*
X0385221Y0258700D01*
X0386088Y0259567D01*
X0386088Y0261302D01*
X0387300Y0260869D02*
X0387734Y0261302D01*
X0388601Y0261302D01*
X0389035Y0260869D01*
X0389035Y0260435D01*
X0388601Y0260001D01*
X0389035Y0259567D01*
X0389035Y0259134D01*
X0388601Y0258700D01*
X0387734Y0258700D01*
X0387300Y0259134D01*
X0388167Y0260001D02*
X0388601Y0260001D01*
X0390247Y0260001D02*
X0391981Y0260001D01*
X0391981Y0260435D02*
X0391981Y0258700D01*
X0390247Y0258700D02*
X0390247Y0260435D01*
X0391114Y0261302D01*
X0391981Y0260435D01*
X0384808Y0276200D02*
X0383941Y0277067D01*
X0384374Y0277067D02*
X0383073Y0277067D01*
X0383073Y0276200D02*
X0383073Y0278802D01*
X0384374Y0278802D01*
X0384808Y0278369D01*
X0384808Y0277501D01*
X0384374Y0277067D01*
X0381862Y0276200D02*
X0381862Y0278802D01*
X0380127Y0278802D02*
X0380127Y0276200D01*
X0380994Y0277067D01*
X0381862Y0276200D01*
X0378915Y0277501D02*
X0378481Y0277067D01*
X0377180Y0277067D01*
X0377180Y0276200D02*
X0377180Y0278802D01*
X0378481Y0278802D01*
X0378915Y0278369D01*
X0378915Y0277501D01*
X0379314Y0283700D02*
X0378880Y0284134D01*
X0379314Y0283700D02*
X0380181Y0283700D01*
X0380615Y0284134D01*
X0380615Y0284567D01*
X0380181Y0285001D01*
X0379748Y0285001D01*
X0380181Y0285001D02*
X0380615Y0285435D01*
X0380615Y0285869D01*
X0380181Y0286302D01*
X0379314Y0286302D01*
X0378880Y0285869D01*
X0381827Y0286302D02*
X0381827Y0284567D01*
X0382694Y0283700D01*
X0383562Y0284567D01*
X0383562Y0286302D01*
X0384773Y0285869D02*
X0385207Y0286302D01*
X0386074Y0286302D01*
X0386508Y0285869D01*
X0386508Y0285435D01*
X0386074Y0285001D01*
X0386508Y0284567D01*
X0386508Y0284134D01*
X0386074Y0283700D01*
X0385207Y0283700D01*
X0384773Y0284134D01*
X0385641Y0285001D02*
X0386074Y0285001D01*
X0385583Y0293700D02*
X0386017Y0294134D01*
X0386017Y0295869D01*
X0385583Y0296302D01*
X0384716Y0296302D01*
X0384282Y0295869D01*
X0384282Y0294134D01*
X0384716Y0293700D01*
X0385583Y0293700D01*
X0383185Y0293700D02*
X0382318Y0293700D01*
X0382752Y0293700D02*
X0382752Y0296302D01*
X0383185Y0296302D02*
X0382318Y0296302D01*
X0381106Y0295869D02*
X0380672Y0296302D01*
X0379371Y0296302D01*
X0379371Y0293700D01*
X0380672Y0293700D01*
X0381106Y0294134D01*
X0381106Y0295869D01*
X0380181Y0303700D02*
X0379314Y0303700D01*
X0378880Y0304134D01*
X0379314Y0305001D02*
X0380181Y0305001D01*
X0380615Y0304567D01*
X0380615Y0304134D01*
X0380181Y0303700D01*
X0379314Y0305001D02*
X0378880Y0305435D01*
X0378880Y0305869D01*
X0379314Y0306302D01*
X0380181Y0306302D01*
X0380615Y0305869D01*
X0381827Y0305869D02*
X0381827Y0304134D01*
X0382260Y0303700D01*
X0383128Y0303700D01*
X0383562Y0304134D01*
X0384773Y0304567D02*
X0386508Y0306302D01*
X0384773Y0306302D02*
X0384773Y0303700D01*
X0385207Y0305001D02*
X0386508Y0303700D01*
X0383562Y0305869D02*
X0383128Y0306302D01*
X0382260Y0306302D01*
X0381827Y0305869D01*
X0381827Y0313700D02*
X0381827Y0316302D01*
X0383562Y0313700D01*
X0383562Y0316302D01*
X0384773Y0316302D02*
X0386074Y0316302D01*
X0386508Y0315869D01*
X0386508Y0314134D01*
X0386074Y0313700D01*
X0384773Y0313700D01*
X0384773Y0316302D01*
X0380615Y0315869D02*
X0380181Y0316302D01*
X0379314Y0316302D01*
X0378880Y0315869D01*
X0378880Y0314134D01*
X0379314Y0313700D01*
X0380181Y0313700D01*
X0380615Y0314134D01*
X0380615Y0315001D01*
X0379748Y0315001D01*
X0378900Y0321300D02*
X0380635Y0321300D01*
X0381847Y0321300D02*
X0381847Y0323902D01*
X0383148Y0323902D01*
X0383581Y0323469D01*
X0383581Y0322601D01*
X0383148Y0322167D01*
X0381847Y0322167D01*
X0382714Y0322167D02*
X0383581Y0321300D01*
X0380635Y0323902D02*
X0378900Y0323902D01*
X0378900Y0321300D01*
X0377688Y0321734D02*
X0377255Y0321300D01*
X0376387Y0321300D01*
X0375953Y0321734D01*
X0376387Y0322601D02*
X0377255Y0322601D01*
X0377688Y0322167D01*
X0377688Y0321734D01*
X0378900Y0322601D02*
X0379767Y0322601D01*
X0377688Y0323469D02*
X0377255Y0323902D01*
X0376387Y0323902D01*
X0375953Y0323469D01*
X0375953Y0323035D01*
X0376387Y0322601D01*
X0374742Y0321734D02*
X0374742Y0323902D01*
X0373007Y0323902D02*
X0373007Y0321734D01*
X0373441Y0321300D01*
X0374308Y0321300D01*
X0374742Y0321734D01*
X0374694Y0338700D02*
X0374694Y0341302D01*
X0373827Y0340435D01*
X0372615Y0340869D02*
X0372181Y0341302D01*
X0371314Y0341302D01*
X0370880Y0340869D01*
X0370880Y0339134D01*
X0371314Y0338700D01*
X0372181Y0338700D01*
X0372615Y0339134D01*
X0373827Y0338700D02*
X0375562Y0338700D01*
X0376773Y0339134D02*
X0377207Y0338700D01*
X0378074Y0338700D01*
X0378508Y0339134D01*
X0378508Y0339567D01*
X0378074Y0340001D01*
X0377641Y0340001D01*
X0378074Y0340001D02*
X0378508Y0340435D01*
X0378508Y0340869D01*
X0378074Y0341302D01*
X0377207Y0341302D01*
X0376773Y0340869D01*
X0382880Y0341302D02*
X0382880Y0339567D01*
X0383748Y0338700D01*
X0384615Y0339567D01*
X0384615Y0341302D01*
X0385827Y0341302D02*
X0387128Y0341302D01*
X0387562Y0340869D01*
X0387562Y0340435D01*
X0387128Y0340001D01*
X0385827Y0340001D01*
X0387128Y0340001D02*
X0387562Y0339567D01*
X0387562Y0339134D01*
X0387128Y0338700D01*
X0385827Y0338700D01*
X0385827Y0341302D01*
X0388773Y0341302D02*
X0388773Y0338700D01*
X0388773Y0339567D02*
X0390508Y0341302D01*
X0389207Y0340001D02*
X0390508Y0338700D01*
X0368508Y0340001D02*
X0366773Y0340001D01*
X0368074Y0341302D01*
X0368074Y0338700D01*
X0365562Y0338700D02*
X0363827Y0338700D01*
X0364694Y0338700D02*
X0364694Y0341302D01*
X0363827Y0340435D01*
X0362615Y0340869D02*
X0362181Y0341302D01*
X0361314Y0341302D01*
X0360880Y0340869D01*
X0360880Y0339134D01*
X0361314Y0338700D01*
X0362181Y0338700D01*
X0362615Y0339134D01*
X0358508Y0339134D02*
X0358074Y0338700D01*
X0357207Y0338700D01*
X0356773Y0339134D01*
X0356773Y0340001D02*
X0357641Y0340435D01*
X0358074Y0340435D01*
X0358508Y0340001D01*
X0358508Y0339134D01*
X0356773Y0340001D02*
X0356773Y0341302D01*
X0358508Y0341302D01*
X0354694Y0341302D02*
X0354694Y0338700D01*
X0353827Y0338700D02*
X0355562Y0338700D01*
X0353827Y0340435D02*
X0354694Y0341302D01*
X0352615Y0340869D02*
X0352181Y0341302D01*
X0351314Y0341302D01*
X0350880Y0340869D01*
X0350880Y0339134D01*
X0351314Y0338700D01*
X0352181Y0338700D01*
X0352615Y0339134D01*
X0347035Y0339134D02*
X0346601Y0338700D01*
X0345734Y0338700D01*
X0345300Y0339134D01*
X0347035Y0340869D01*
X0347035Y0339134D01*
X0347035Y0340869D02*
X0346601Y0341302D01*
X0345734Y0341302D01*
X0345300Y0340869D01*
X0345300Y0339134D01*
X0344088Y0338700D02*
X0344088Y0340435D01*
X0343221Y0341302D01*
X0342353Y0340435D01*
X0342353Y0338700D01*
X0342353Y0340001D02*
X0344088Y0340001D01*
X0337035Y0338700D02*
X0335300Y0338700D01*
X0336167Y0338700D02*
X0336167Y0341302D01*
X0335300Y0340435D01*
X0334088Y0340435D02*
X0334088Y0338700D01*
X0334088Y0340001D02*
X0332353Y0340001D01*
X0332353Y0340435D02*
X0333221Y0341302D01*
X0334088Y0340435D01*
X0332353Y0340435D02*
X0332353Y0338700D01*
X0327035Y0338700D02*
X0325300Y0338700D01*
X0327035Y0340435D01*
X0327035Y0340869D01*
X0326601Y0341302D01*
X0325734Y0341302D01*
X0325300Y0340869D01*
X0324088Y0340435D02*
X0324088Y0338700D01*
X0324088Y0340001D02*
X0322353Y0340001D01*
X0322353Y0340435D02*
X0323221Y0341302D01*
X0324088Y0340435D01*
X0322353Y0340435D02*
X0322353Y0338700D01*
X0317035Y0339134D02*
X0316601Y0338700D01*
X0315734Y0338700D01*
X0315300Y0339134D01*
X0316167Y0340001D02*
X0316601Y0340001D01*
X0317035Y0339567D01*
X0317035Y0339134D01*
X0316601Y0340001D02*
X0317035Y0340435D01*
X0317035Y0340869D01*
X0316601Y0341302D01*
X0315734Y0341302D01*
X0315300Y0340869D01*
X0314088Y0340435D02*
X0313221Y0341302D01*
X0312353Y0340435D01*
X0312353Y0338700D01*
X0312353Y0340001D02*
X0314088Y0340001D01*
X0314088Y0340435D02*
X0314088Y0338700D01*
X0307035Y0340001D02*
X0305300Y0340001D01*
X0306601Y0341302D01*
X0306601Y0338700D01*
X0304088Y0338700D02*
X0304088Y0340435D01*
X0303221Y0341302D01*
X0302353Y0340435D01*
X0302353Y0338700D01*
X0302353Y0340001D02*
X0304088Y0340001D01*
X0297035Y0340001D02*
X0297035Y0339134D01*
X0296601Y0338700D01*
X0295734Y0338700D01*
X0295300Y0339134D01*
X0295300Y0340001D02*
X0296167Y0340435D01*
X0296601Y0340435D01*
X0297035Y0340001D01*
X0297035Y0341302D02*
X0295300Y0341302D01*
X0295300Y0340001D01*
X0294088Y0340001D02*
X0292353Y0340001D01*
X0292353Y0340435D02*
X0293221Y0341302D01*
X0294088Y0340435D01*
X0294088Y0338700D01*
X0292353Y0338700D02*
X0292353Y0340435D01*
X0287035Y0341302D02*
X0286167Y0340869D01*
X0285300Y0340001D01*
X0286601Y0340001D01*
X0287035Y0339567D01*
X0287035Y0339134D01*
X0286601Y0338700D01*
X0285734Y0338700D01*
X0285300Y0339134D01*
X0285300Y0340001D01*
X0284088Y0340001D02*
X0282353Y0340001D01*
X0282353Y0340435D02*
X0283221Y0341302D01*
X0284088Y0340435D01*
X0284088Y0338700D01*
X0282353Y0338700D02*
X0282353Y0340435D01*
X0277035Y0340869D02*
X0275300Y0339134D01*
X0275300Y0338700D01*
X0274088Y0338700D02*
X0274088Y0340435D01*
X0273221Y0341302D01*
X0272353Y0340435D01*
X0272353Y0338700D01*
X0272353Y0340001D02*
X0274088Y0340001D01*
X0275300Y0341302D02*
X0277035Y0341302D01*
X0277035Y0340869D01*
X0267035Y0340869D02*
X0265300Y0339134D01*
X0265734Y0338700D01*
X0266601Y0338700D01*
X0267035Y0339134D01*
X0267035Y0340869D01*
X0266601Y0341302D01*
X0265734Y0341302D01*
X0265300Y0340869D01*
X0265300Y0339134D01*
X0264088Y0339134D02*
X0263655Y0338700D01*
X0262353Y0338700D01*
X0262353Y0341302D01*
X0263655Y0341302D01*
X0264088Y0340869D01*
X0264088Y0340435D01*
X0263655Y0340001D01*
X0262353Y0340001D01*
X0263655Y0340001D02*
X0264088Y0339567D01*
X0264088Y0339134D01*
X0257035Y0338700D02*
X0255300Y0338700D01*
X0256167Y0338700D02*
X0256167Y0341302D01*
X0255300Y0340435D01*
X0254088Y0340435D02*
X0253655Y0340001D01*
X0252353Y0340001D01*
X0252353Y0338700D02*
X0253655Y0338700D01*
X0254088Y0339134D01*
X0254088Y0339567D01*
X0253655Y0340001D01*
X0254088Y0340435D02*
X0254088Y0340869D01*
X0253655Y0341302D01*
X0252353Y0341302D01*
X0252353Y0338700D01*
X0248508Y0339134D02*
X0248508Y0340869D01*
X0246773Y0339134D01*
X0247207Y0338700D01*
X0248074Y0338700D01*
X0248508Y0339134D01*
X0248508Y0340869D02*
X0248074Y0341302D01*
X0247207Y0341302D01*
X0246773Y0340869D01*
X0246773Y0339134D01*
X0245562Y0338700D02*
X0243827Y0338700D01*
X0244694Y0338700D02*
X0244694Y0341302D01*
X0243827Y0340435D01*
X0242615Y0340435D02*
X0242181Y0340001D01*
X0240880Y0340001D01*
X0240880Y0338700D02*
X0242181Y0338700D01*
X0242615Y0339134D01*
X0242615Y0339567D01*
X0242181Y0340001D01*
X0242615Y0340435D02*
X0242615Y0340869D01*
X0242181Y0341302D01*
X0240880Y0341302D01*
X0240880Y0338700D01*
X0238508Y0338700D02*
X0236773Y0338700D01*
X0237641Y0338700D02*
X0237641Y0341302D01*
X0236773Y0340435D01*
X0235562Y0338700D02*
X0233827Y0338700D01*
X0234694Y0338700D02*
X0234694Y0341302D01*
X0233827Y0340435D01*
X0232615Y0340435D02*
X0232181Y0340001D01*
X0230880Y0340001D01*
X0230880Y0338700D02*
X0232181Y0338700D01*
X0232615Y0339134D01*
X0232615Y0339567D01*
X0232181Y0340001D01*
X0232615Y0340435D02*
X0232615Y0340869D01*
X0232181Y0341302D01*
X0230880Y0341302D01*
X0230880Y0338700D01*
X0227641Y0338700D02*
X0227641Y0341302D01*
X0228508Y0341302D02*
X0226773Y0341302D01*
X0225562Y0340869D02*
X0225128Y0341302D01*
X0224260Y0341302D01*
X0223827Y0340869D01*
X0223827Y0340435D01*
X0224260Y0340001D01*
X0225128Y0340001D01*
X0225562Y0339567D01*
X0225562Y0339134D01*
X0225128Y0338700D01*
X0224260Y0338700D01*
X0223827Y0339134D01*
X0222615Y0338700D02*
X0221748Y0339567D01*
X0222181Y0339567D02*
X0220880Y0339567D01*
X0220880Y0338700D02*
X0220880Y0341302D01*
X0222181Y0341302D01*
X0222615Y0340869D01*
X0222615Y0340001D01*
X0222181Y0339567D01*
X0218508Y0339567D02*
X0218508Y0339134D01*
X0218074Y0338700D01*
X0217207Y0338700D01*
X0216773Y0339134D01*
X0217641Y0340001D02*
X0218074Y0340001D01*
X0218508Y0339567D01*
X0218074Y0340001D02*
X0218508Y0340435D01*
X0218508Y0340869D01*
X0218074Y0341302D01*
X0217207Y0341302D01*
X0216773Y0340869D01*
X0215562Y0341302D02*
X0215562Y0339567D01*
X0214694Y0338700D01*
X0213827Y0339567D01*
X0213827Y0341302D01*
X0212615Y0340869D02*
X0212615Y0340435D01*
X0212181Y0340001D01*
X0212615Y0339567D01*
X0212615Y0339134D01*
X0212181Y0338700D01*
X0211314Y0338700D01*
X0210880Y0339134D01*
X0211748Y0340001D02*
X0212181Y0340001D01*
X0212615Y0340869D02*
X0212181Y0341302D01*
X0211314Y0341302D01*
X0210880Y0340869D01*
X0208508Y0340869D02*
X0208074Y0341302D01*
X0206773Y0341302D01*
X0206773Y0338700D01*
X0208074Y0338700D01*
X0208508Y0339134D01*
X0208508Y0340869D01*
X0205562Y0341302D02*
X0205562Y0338700D01*
X0203827Y0341302D01*
X0203827Y0338700D01*
X0202615Y0339134D02*
X0202615Y0340001D01*
X0201748Y0340001D01*
X0202615Y0339134D02*
X0202181Y0338700D01*
X0201314Y0338700D01*
X0200880Y0339134D01*
X0200880Y0340869D01*
X0201314Y0341302D01*
X0202181Y0341302D01*
X0202615Y0340869D01*
X0198508Y0340869D02*
X0198074Y0341302D01*
X0196773Y0341302D01*
X0196773Y0338700D01*
X0198074Y0338700D01*
X0198508Y0339134D01*
X0198508Y0340869D01*
X0195562Y0341302D02*
X0195562Y0338700D01*
X0193827Y0341302D01*
X0193827Y0338700D01*
X0192615Y0339134D02*
X0192615Y0340001D01*
X0191748Y0340001D01*
X0192615Y0339134D02*
X0192181Y0338700D01*
X0191314Y0338700D01*
X0190880Y0339134D01*
X0190880Y0340869D01*
X0191314Y0341302D01*
X0192181Y0341302D01*
X0192615Y0340869D01*
X0210880Y0261302D02*
X0210880Y0258700D01*
X0340734Y0292200D02*
X0342469Y0294802D01*
X0343680Y0294802D02*
X0343680Y0292634D01*
X0344114Y0292200D01*
X0344981Y0292200D01*
X0345415Y0292634D01*
X0345415Y0294802D01*
X0346627Y0294369D02*
X0346627Y0293935D01*
X0347060Y0293501D01*
X0347928Y0293501D01*
X0348362Y0293067D01*
X0348362Y0292634D01*
X0347928Y0292200D01*
X0347060Y0292200D01*
X0346627Y0292634D01*
X0346627Y0294369D02*
X0347060Y0294802D01*
X0347928Y0294802D01*
X0348362Y0294369D01*
X0349573Y0294802D02*
X0349573Y0292200D01*
X0351308Y0292200D01*
X0352520Y0292200D02*
X0352520Y0294802D01*
X0353821Y0294802D01*
X0354255Y0294369D01*
X0354255Y0293501D01*
X0353821Y0293067D01*
X0352520Y0293067D01*
X0353387Y0293067D02*
X0354255Y0292200D01*
X0351308Y0294802D02*
X0349573Y0294802D01*
X0349573Y0293501D02*
X0350441Y0293501D01*
X0350441Y0297000D02*
X0350441Y0299602D01*
X0351308Y0299602D02*
X0349573Y0299602D01*
X0348362Y0299169D02*
X0347928Y0299602D01*
X0347060Y0299602D01*
X0346627Y0299169D01*
X0346627Y0297434D01*
X0347060Y0297000D01*
X0347928Y0297000D01*
X0348362Y0297434D01*
X0348362Y0299169D01*
X0345415Y0299169D02*
X0345415Y0297434D01*
X0344981Y0297000D01*
X0344114Y0297000D01*
X0343680Y0297434D01*
X0343680Y0299169D01*
X0344114Y0299602D01*
X0344981Y0299602D01*
X0345415Y0299169D01*
X0342469Y0299169D02*
X0342469Y0298735D01*
X0342035Y0298301D01*
X0340734Y0298301D01*
X0342035Y0298301D02*
X0342469Y0297867D01*
X0342469Y0297434D01*
X0342035Y0297000D01*
X0340734Y0297000D01*
X0340734Y0299602D01*
X0342035Y0299602D01*
X0342469Y0299169D01*
X0342669Y0304900D02*
X0341801Y0305767D01*
X0342235Y0305767D02*
X0340934Y0305767D01*
X0340934Y0304900D02*
X0340934Y0307502D01*
X0342235Y0307502D01*
X0342669Y0307069D01*
X0342669Y0306201D01*
X0342235Y0305767D01*
X0343880Y0306201D02*
X0344748Y0306201D01*
X0343880Y0304900D02*
X0345615Y0304900D01*
X0346827Y0305334D02*
X0347260Y0304900D01*
X0348128Y0304900D01*
X0348562Y0305334D01*
X0348562Y0305767D01*
X0348128Y0306201D01*
X0347260Y0306201D01*
X0346827Y0306635D01*
X0346827Y0307069D01*
X0347260Y0307502D01*
X0348128Y0307502D01*
X0348562Y0307069D01*
X0349773Y0307502D02*
X0349773Y0304900D01*
X0351508Y0304900D01*
X0350641Y0306201D02*
X0349773Y0306201D01*
X0349773Y0307502D02*
X0351508Y0307502D01*
X0352720Y0307502D02*
X0354455Y0307502D01*
X0353587Y0307502D02*
X0353587Y0304900D01*
X0353821Y0299602D02*
X0354255Y0299169D01*
X0352520Y0297434D01*
X0352953Y0297000D01*
X0353821Y0297000D01*
X0354255Y0297434D01*
X0354255Y0299169D01*
X0353821Y0299602D02*
X0352953Y0299602D01*
X0352520Y0299169D01*
X0352520Y0297434D01*
X0343880Y0304900D02*
X0343880Y0307502D01*
X0345615Y0307502D01*
X0527813Y0032773D02*
X0527813Y0031705D01*
X0527813Y0029570D02*
X0527813Y0025300D01*
X0526745Y0025300D02*
X0528881Y0025300D01*
X0531042Y0025300D02*
X0533178Y0025300D01*
X0532110Y0025300D02*
X0532110Y0031705D01*
X0531042Y0031705D01*
X0527813Y0029570D02*
X0526745Y0029570D01*
X0524570Y0030638D02*
X0523503Y0031705D01*
X0521368Y0031705D01*
X0520300Y0030638D01*
X0520300Y0029570D01*
X0521368Y0028503D01*
X0523503Y0028503D01*
X0524570Y0027435D01*
X0524570Y0026368D01*
X0523503Y0025300D01*
X0521368Y0025300D01*
X0520300Y0026368D01*
X0535339Y0027435D02*
X0538542Y0029570D01*
X0535339Y0027435D02*
X0538542Y0025300D01*
X0535339Y0025300D02*
X0535339Y0031705D01*
X0547156Y0028503D02*
X0548224Y0029570D01*
X0551427Y0029570D01*
X0550359Y0027435D02*
X0551427Y0026368D01*
X0550359Y0025300D01*
X0547156Y0025300D01*
X0548224Y0027435D02*
X0547156Y0028503D01*
X0548224Y0027435D02*
X0550359Y0027435D01*
X0553602Y0026368D02*
X0554669Y0025300D01*
X0557872Y0025300D01*
X0560047Y0025300D02*
X0560047Y0029570D01*
X0560047Y0027435D02*
X0562182Y0029570D01*
X0563250Y0029570D01*
X0565418Y0028503D02*
X0566486Y0029570D01*
X0568621Y0029570D01*
X0569689Y0028503D01*
X0569689Y0027435D01*
X0565418Y0027435D01*
X0565418Y0026368D02*
X0565418Y0028503D01*
X0565418Y0026368D02*
X0566486Y0025300D01*
X0568621Y0025300D01*
X0571864Y0026368D02*
X0571864Y0028503D01*
X0572932Y0029570D01*
X0575067Y0029570D01*
X0576134Y0028503D01*
X0576134Y0027435D01*
X0571864Y0027435D01*
X0571864Y0026368D02*
X0572932Y0025300D01*
X0575067Y0025300D01*
X0578309Y0025300D02*
X0578309Y0029570D01*
X0581512Y0029570D01*
X0582580Y0028503D01*
X0582580Y0025300D01*
X0591200Y0026368D02*
X0591200Y0030638D01*
X0592268Y0031705D01*
X0594403Y0031705D01*
X0595471Y0030638D01*
X0597646Y0031705D02*
X0599781Y0029570D01*
X0601916Y0031705D01*
X0601916Y0025300D01*
X0604091Y0025300D02*
X0604091Y0031705D01*
X0607294Y0031705D01*
X0608362Y0030638D01*
X0608362Y0028503D01*
X0607294Y0027435D01*
X0604091Y0027435D01*
X0597646Y0025300D02*
X0597646Y0031705D01*
X0595471Y0026368D02*
X0594403Y0025300D01*
X0592268Y0025300D01*
X0591200Y0026368D01*
X0616982Y0027435D02*
X0616982Y0029570D01*
X0619118Y0031705D01*
X0616982Y0027435D02*
X0619118Y0025300D01*
X0621279Y0025300D02*
X0622347Y0025300D01*
X0622347Y0026368D01*
X0621279Y0026368D01*
X0621279Y0025300D01*
X0624502Y0025300D02*
X0624502Y0031705D01*
X0627705Y0031705D01*
X0628773Y0030638D01*
X0628773Y0028503D01*
X0627705Y0027435D01*
X0624502Y0027435D01*
X0630948Y0025300D02*
X0635218Y0025300D01*
X0637393Y0026368D02*
X0638461Y0025300D01*
X0640596Y0025300D01*
X0641664Y0026368D01*
X0643839Y0025300D02*
X0645974Y0027435D01*
X0645974Y0029570D01*
X0643839Y0031705D01*
X0641664Y0030638D02*
X0640596Y0031705D01*
X0638461Y0031705D01*
X0637393Y0030638D01*
X0637393Y0026368D01*
X0630948Y0025300D02*
X0630948Y0031705D01*
X0557872Y0029570D02*
X0554669Y0029570D01*
X0553602Y0028503D01*
X0553602Y0026368D01*
D12*
X0390000Y0265000D02*
X0380000Y0265000D01*
X0380000Y0275000D01*
X0390000Y0275000D01*
X0390000Y0265000D01*
X0380000Y0265000D02*
X0190000Y0265000D01*
X0190000Y0275000D01*
X0380000Y0275000D01*
X0376000Y0275000D02*
X0376000Y0280000D01*
X0366000Y0280000D01*
X0366000Y0275000D01*
X0376000Y0275000D01*
X0375300Y0280000D02*
X0365300Y0280000D01*
X0365300Y0310000D01*
X0375300Y0310000D01*
X0375300Y0280000D01*
X0366000Y0280000D02*
X0366000Y0275000D01*
X0356000Y0275000D01*
X0356000Y0280000D01*
X0366000Y0280000D01*
X0365000Y0281000D02*
X0358000Y0281000D01*
X0358000Y0287100D01*
X0358000Y0287900D01*
X0358000Y0294000D01*
X0365000Y0294000D01*
X0365000Y0287900D01*
X0365000Y0287100D01*
X0365000Y0281000D01*
X0356000Y0280000D02*
X0356000Y0275000D01*
X0346000Y0275000D01*
X0346000Y0280000D01*
X0336000Y0280000D01*
X0336000Y0275000D01*
X0346000Y0275000D01*
X0346000Y0280000D01*
X0356000Y0280000D01*
X0340000Y0290000D02*
X0330000Y0290000D01*
X0330000Y0295000D01*
X0340000Y0295000D01*
X0340000Y0290000D01*
X0335000Y0290000D02*
X0335000Y0285000D01*
X0325000Y0285000D01*
X0325000Y0290000D01*
X0335000Y0290000D01*
X0335000Y0285000D02*
X0325000Y0285000D01*
X0325000Y0280000D01*
X0335000Y0280000D01*
X0335000Y0285000D01*
X0336000Y0280000D02*
X0326000Y0280000D01*
X0326000Y0275000D01*
X0316000Y0275000D01*
X0316000Y0280000D01*
X0326000Y0280000D01*
X0326000Y0275000D01*
X0336000Y0275000D01*
X0336000Y0280000D01*
X0324000Y0280000D02*
X0317000Y0280000D01*
X0317000Y0290000D01*
X0324000Y0290000D01*
X0324000Y0280000D01*
X0316000Y0279000D02*
X0311000Y0274000D01*
X0316000Y0274000D01*
X0316000Y0279000D01*
X0316000Y0278929D02*
X0315929Y0278929D01*
X0316000Y0278430D02*
X0315430Y0278430D01*
X0314932Y0277932D02*
X0316000Y0277932D01*
X0316000Y0277433D02*
X0314433Y0277433D01*
X0313934Y0276934D02*
X0316000Y0276934D01*
X0316000Y0276436D02*
X0313436Y0276436D01*
X0312937Y0275937D02*
X0316000Y0275937D01*
X0316000Y0275439D02*
X0312439Y0275439D01*
X0311940Y0274940D02*
X0316000Y0274940D01*
X0316000Y0274442D02*
X0311442Y0274442D01*
X0316000Y0274000D02*
X0316000Y0326000D01*
X0321000Y0326000D01*
X0321000Y0321000D01*
X0331000Y0321000D01*
X0331000Y0326000D01*
X0321000Y0326000D01*
X0321000Y0316000D01*
X0316000Y0316000D01*
X0316000Y0326000D01*
X0264000Y0326000D01*
X0264000Y0274000D01*
X0316000Y0274000D01*
X0316000Y0290000D02*
X0316000Y0306000D01*
X0330000Y0306000D01*
X0330000Y0290000D01*
X0316000Y0290000D01*
X0330000Y0295000D02*
X0330000Y0300000D01*
X0340000Y0300000D01*
X0340000Y0295000D01*
X0330000Y0295000D01*
X0330200Y0301000D02*
X0330200Y0306000D01*
X0343200Y0306000D01*
X0343200Y0301000D01*
X0330200Y0301000D01*
X0328000Y0308000D02*
X0323000Y0308000D01*
X0323000Y0321000D01*
X0328000Y0321000D01*
X0328000Y0308000D01*
X0329000Y0311500D02*
X0329000Y0315500D01*
X0333500Y0311500D01*
X0329000Y0311500D01*
X0329000Y0315500D01*
X0341000Y0315500D01*
X0341000Y0311500D01*
X0329000Y0311500D01*
X0329000Y0311830D02*
X0333128Y0311830D01*
X0332568Y0312329D02*
X0329000Y0312329D01*
X0329000Y0312827D02*
X0332007Y0312827D01*
X0331446Y0313326D02*
X0329000Y0313326D01*
X0329000Y0313824D02*
X0330885Y0313824D01*
X0330324Y0314323D02*
X0329000Y0314323D01*
X0329000Y0314821D02*
X0329763Y0314821D01*
X0329203Y0315320D02*
X0329000Y0315320D01*
X0323000Y0316000D02*
X0323000Y0306000D01*
X0318000Y0306000D01*
X0318000Y0316000D01*
X0323000Y0316000D01*
X0342000Y0320000D02*
X0342000Y0325000D01*
X0352000Y0325000D01*
X0362000Y0325000D01*
X0362000Y0320000D01*
X0352000Y0320000D01*
X0352000Y0325000D01*
X0352000Y0320000D01*
X0342000Y0320000D01*
X0358000Y0320000D02*
X0358000Y0307000D01*
X0365000Y0307000D01*
X0363800Y0307000D01*
X0365000Y0308200D01*
X0365000Y0307000D01*
X0365000Y0320000D01*
X0358000Y0320000D01*
X0361900Y0320000D02*
X0361900Y0325000D01*
X0371900Y0325000D01*
X0371900Y0320000D01*
X0361900Y0320000D01*
X0362750Y0319250D02*
X0363750Y0319250D01*
X0363250Y0318750D02*
X0363250Y0319750D01*
X0365300Y0320000D02*
X0375300Y0320000D01*
X0375300Y0310000D01*
X0365300Y0310000D02*
X0365300Y0320000D01*
X0380000Y0325000D02*
X0380000Y0335000D01*
X0390000Y0335000D01*
X0390000Y0325000D01*
X0380000Y0325000D01*
X0190000Y0325000D01*
X0190000Y0335000D01*
X0380000Y0335000D01*
X0365000Y0307842D02*
X0364642Y0307842D01*
X0365000Y0307344D02*
X0364144Y0307344D01*
X0365000Y0307000D02*
X0365000Y0297000D01*
X0360000Y0297000D01*
X0355000Y0297000D01*
X0355000Y0307000D01*
X0360000Y0307000D01*
X0360000Y0297000D01*
X0360000Y0307000D01*
X0365000Y0307000D01*
X0263500Y0315000D02*
X0253500Y0315000D01*
X0248500Y0315000D01*
X0248500Y0325000D01*
X0248500Y0320000D01*
X0238500Y0320000D01*
X0238500Y0325000D01*
X0248500Y0325000D01*
X0253500Y0325000D01*
X0253500Y0315000D01*
X0253500Y0320000D01*
X0263500Y0320000D01*
X0263500Y0315000D01*
X0259500Y0315000D02*
X0259500Y0310000D01*
X0249500Y0310000D01*
X0249500Y0315000D01*
X0259500Y0315000D01*
X0264000Y0320000D02*
X0254000Y0320000D01*
X0254000Y0325000D01*
X0264000Y0325000D01*
X0264000Y0320000D01*
X0249000Y0311000D02*
X0249000Y0285000D01*
X0244000Y0285000D01*
X0244000Y0277000D01*
X0230000Y0277000D01*
X0230000Y0285000D01*
X0244000Y0285000D01*
X0244000Y0275000D01*
X0249000Y0275000D01*
X0249000Y0285000D01*
X0235000Y0285000D01*
X0235000Y0311000D01*
X0249000Y0311000D01*
X0243500Y0312000D02*
X0243500Y0313000D01*
X0243500Y0312000D02*
X0233500Y0312000D01*
X0233500Y0313000D01*
X0236500Y0313500D02*
X0240500Y0315500D01*
X0236500Y0317500D01*
X0236500Y0313500D01*
X0236500Y0313824D02*
X0237149Y0313824D01*
X0236500Y0314323D02*
X0238146Y0314323D01*
X0239143Y0314821D02*
X0236500Y0314821D01*
X0236500Y0315320D02*
X0240140Y0315320D01*
X0239863Y0315818D02*
X0236500Y0315818D01*
X0236500Y0316317D02*
X0238866Y0316317D01*
X0237869Y0316815D02*
X0236500Y0316815D01*
X0236500Y0317314D02*
X0236872Y0317314D01*
X0238500Y0320000D02*
X0228500Y0320000D01*
X0228500Y0325000D01*
X0238500Y0325000D01*
X0238500Y0320000D01*
X0233500Y0319000D02*
X0233500Y0318000D01*
X0233500Y0319000D02*
X0243500Y0319000D01*
X0243500Y0318000D01*
X0225000Y0312000D02*
X0225000Y0307000D01*
X0215000Y0307000D01*
X0215000Y0312000D01*
X0225000Y0312000D01*
X0223000Y0313000D02*
X0219000Y0313000D01*
X0223000Y0317500D01*
X0223000Y0313000D01*
X0219000Y0313000D01*
X0219000Y0325000D01*
X0223000Y0325000D01*
X0223000Y0313000D01*
X0223000Y0313326D02*
X0219290Y0313326D01*
X0219733Y0313824D02*
X0223000Y0313824D01*
X0223000Y0314323D02*
X0220176Y0314323D01*
X0220619Y0314821D02*
X0223000Y0314821D01*
X0223000Y0315320D02*
X0221062Y0315320D01*
X0221505Y0315818D02*
X0223000Y0315818D01*
X0223000Y0316317D02*
X0221948Y0316317D01*
X0222391Y0316815D02*
X0223000Y0316815D01*
X0223000Y0317314D02*
X0222835Y0317314D01*
X0225000Y0306800D02*
X0215000Y0306800D01*
X0215000Y0301800D01*
X0215000Y0296800D01*
X0225000Y0296800D01*
X0225000Y0301800D01*
X0215000Y0301800D01*
X0225000Y0301800D01*
X0225000Y0306800D01*
X0225000Y0296500D02*
X0220000Y0296500D01*
X0220000Y0286500D01*
X0225000Y0286500D01*
X0225000Y0296500D01*
X0220000Y0296500D02*
X0215000Y0296500D01*
X0215000Y0286500D01*
X0220000Y0286500D01*
X0220000Y0296500D01*
X0220000Y0285000D02*
X0225000Y0285000D01*
X0230000Y0285000D01*
X0230000Y0275000D01*
X0225000Y0275000D01*
X0225000Y0285000D01*
X0225000Y0275000D01*
X0220000Y0275000D01*
X0220000Y0285000D01*
X0219500Y0285000D02*
X0219500Y0275000D01*
X0214500Y0275000D01*
X0214500Y0285000D01*
X0219500Y0285000D01*
X0215000Y0275000D02*
X0215000Y0325000D01*
X0185000Y0325000D01*
X0249000Y0286000D02*
X0254000Y0286000D01*
X0254000Y0276000D01*
X0249000Y0276000D01*
X0249000Y0286000D01*
X0254000Y0286000D02*
X0254000Y0281000D01*
X0264000Y0281000D01*
X0264000Y0286000D01*
X0254000Y0286000D01*
X0254000Y0281000D02*
X0264000Y0281000D01*
X0264000Y0276000D01*
X0254000Y0276000D01*
X0254000Y0281000D01*
X0215000Y0275000D02*
X0185000Y0275000D01*
D13*
X0226500Y0312000D02*
X0226502Y0312044D01*
X0226508Y0312088D01*
X0226518Y0312131D01*
X0226531Y0312173D01*
X0226548Y0312214D01*
X0226569Y0312253D01*
X0226593Y0312290D01*
X0226620Y0312325D01*
X0226650Y0312357D01*
X0226683Y0312387D01*
X0226719Y0312413D01*
X0226756Y0312437D01*
X0226796Y0312456D01*
X0226837Y0312473D01*
X0226880Y0312485D01*
X0226923Y0312494D01*
X0226967Y0312499D01*
X0227011Y0312500D01*
X0227055Y0312497D01*
X0227099Y0312490D01*
X0227142Y0312479D01*
X0227184Y0312465D01*
X0227224Y0312447D01*
X0227263Y0312425D01*
X0227299Y0312401D01*
X0227333Y0312373D01*
X0227365Y0312342D01*
X0227394Y0312308D01*
X0227420Y0312272D01*
X0227442Y0312234D01*
X0227461Y0312194D01*
X0227476Y0312152D01*
X0227488Y0312110D01*
X0227496Y0312066D01*
X0227500Y0312022D01*
X0227500Y0311978D01*
X0227496Y0311934D01*
X0227488Y0311890D01*
X0227476Y0311848D01*
X0227461Y0311806D01*
X0227442Y0311766D01*
X0227420Y0311728D01*
X0227394Y0311692D01*
X0227365Y0311658D01*
X0227333Y0311627D01*
X0227299Y0311599D01*
X0227263Y0311575D01*
X0227224Y0311553D01*
X0227184Y0311535D01*
X0227142Y0311521D01*
X0227099Y0311510D01*
X0227055Y0311503D01*
X0227011Y0311500D01*
X0226967Y0311501D01*
X0226923Y0311506D01*
X0226880Y0311515D01*
X0226837Y0311527D01*
X0226796Y0311544D01*
X0226756Y0311563D01*
X0226719Y0311587D01*
X0226683Y0311613D01*
X0226650Y0311643D01*
X0226620Y0311675D01*
X0226593Y0311710D01*
X0226569Y0311747D01*
X0226548Y0311786D01*
X0226531Y0311827D01*
X0226518Y0311869D01*
X0226508Y0311912D01*
X0226502Y0311956D01*
X0226500Y0312000D01*
X0327500Y0307500D02*
X0327502Y0307544D01*
X0327508Y0307588D01*
X0327518Y0307631D01*
X0327531Y0307673D01*
X0327548Y0307714D01*
X0327569Y0307753D01*
X0327593Y0307790D01*
X0327620Y0307825D01*
X0327650Y0307857D01*
X0327683Y0307887D01*
X0327719Y0307913D01*
X0327756Y0307937D01*
X0327796Y0307956D01*
X0327837Y0307973D01*
X0327880Y0307985D01*
X0327923Y0307994D01*
X0327967Y0307999D01*
X0328011Y0308000D01*
X0328055Y0307997D01*
X0328099Y0307990D01*
X0328142Y0307979D01*
X0328184Y0307965D01*
X0328224Y0307947D01*
X0328263Y0307925D01*
X0328299Y0307901D01*
X0328333Y0307873D01*
X0328365Y0307842D01*
X0328394Y0307808D01*
X0328420Y0307772D01*
X0328442Y0307734D01*
X0328461Y0307694D01*
X0328476Y0307652D01*
X0328488Y0307610D01*
X0328496Y0307566D01*
X0328500Y0307522D01*
X0328500Y0307478D01*
X0328496Y0307434D01*
X0328488Y0307390D01*
X0328476Y0307348D01*
X0328461Y0307306D01*
X0328442Y0307266D01*
X0328420Y0307228D01*
X0328394Y0307192D01*
X0328365Y0307158D01*
X0328333Y0307127D01*
X0328299Y0307099D01*
X0328263Y0307075D01*
X0328224Y0307053D01*
X0328184Y0307035D01*
X0328142Y0307021D01*
X0328099Y0307010D01*
X0328055Y0307003D01*
X0328011Y0307000D01*
X0327967Y0307001D01*
X0327923Y0307006D01*
X0327880Y0307015D01*
X0327837Y0307027D01*
X0327796Y0307044D01*
X0327756Y0307063D01*
X0327719Y0307087D01*
X0327683Y0307113D01*
X0327650Y0307143D01*
X0327620Y0307175D01*
X0327593Y0307210D01*
X0327569Y0307247D01*
X0327548Y0307286D01*
X0327531Y0307327D01*
X0327518Y0307369D01*
X0327508Y0307412D01*
X0327502Y0307456D01*
X0327500Y0307500D01*
X0344500Y0308500D02*
X0355500Y0308500D01*
X0355500Y0319500D02*
X0344500Y0319500D01*
X0344500Y0291500D02*
X0355500Y0291500D01*
X0355500Y0280500D02*
X0344500Y0280500D01*
D14*
X0361500Y0280500D03*
D15*
X0241000Y0315500D03*
M02*
