%
M48
M72
T01C0.01200
T02C0.03150
T03C0.04000
%
T01
X190000Y260000
X200000Y260000
X210000Y260000
X220000Y260000
X219800Y268800
X218600Y273600
X213200Y276600
X213500Y279600
X211400Y280300
X214100Y286200
X207800Y289200
X207800Y291700
X213800Y304800
X211400Y307800
X211400Y310200
X214800Y310800
X226400Y312000
X230600Y311400
X233000Y311400
X237600Y320000
X246200Y319200
X249800Y324300
X254000Y317400
X248000Y312000
X245000Y309000
X262400Y307200
X273200Y302400
X273200Y296400
X274400Y293400
X276200Y290400
X279200Y290400
X278600Y287400
X275600Y287400
X275800Y284400
X272900Y285600
X273200Y282600
X273200Y279600
X278000Y282000
X281600Y286200
X282200Y291000
X281600Y296400
X281600Y299400
X281600Y302400
X295400Y298200
X295600Y295000
X300000Y300000
X307400Y299400
X307400Y303600
X307400Y307200
X307400Y310200
X307400Y313800
X309800Y317400
X312800Y316800
X312400Y320400
X322000Y317400
X329500Y309500
X331400Y315600
X332200Y322200
X339800Y328200
X340400Y333600
X340000Y340000
X350000Y340000
X360000Y340000
X360000Y330000
X370000Y330000
X370000Y340000
X380000Y340000
X390000Y340000
X390800Y331800
X390800Y329400
X386600Y322200
X386600Y319800
X386600Y302400
X386600Y300000
X382200Y299600
X386400Y291800
X383400Y277400
X377000Y274800
X380000Y260000
X370000Y260000
X360000Y260000
X350000Y260000
X340000Y260000
X340000Y270000
X330800Y274200
X324000Y284800
X325100Y288100
X312200Y282000
X305600Y284400
X302000Y284400
X298700Y284400
X295400Y284400
X293600Y282000
X291200Y284400
X288800Y282000
X290000Y270000
X280000Y270000
X280000Y260000
X290000Y260000
X300000Y260000
X300000Y270000
X310000Y270000
X310000Y260000
X320000Y260000
X330000Y260000
X360000Y270000
X350000Y285000
X350000Y290000
X350000Y295000
X350000Y300000
X350000Y305000
X349400Y313200
X349400Y315600
X341700Y311000
X337000Y300500
X355000Y295000
X330000Y330000
X330000Y340000
X320000Y340000
X310000Y340000
X310000Y330000
X300000Y330000
X300000Y340000
X290000Y340000
X290000Y330000
X280000Y330000
X280000Y340000
X270000Y340000
X270000Y330000
X260000Y340000
X250000Y340000
X240000Y340000
X230000Y340000
X220000Y340000
X210000Y340000
X210000Y330000
X200000Y334000
X200000Y340000
X190000Y340000
X229800Y294000
X233000Y293400
X235900Y285600
X243600Y293400
X256800Y286200
X258000Y280800
X250000Y270000
X250000Y260000
X260000Y260000
X270000Y260000
X270000Y270000
X240000Y260000
X230000Y260000
X230000Y270000
X225200Y276600
X200000Y270000
X261600Y293400
X270400Y317200
X277400Y317400
X280900Y318600
X285200Y317400
X288200Y317900
X290600Y315600
X295200Y315300
X296600Y318000
X299000Y316200
X295400Y310800
X296800Y307600
X307400Y294600
X308000Y289800
X390000Y260000
T02
X191890Y280906
X204882Y280906
X204882Y319094
X191890Y319094
T03
X195000Y270000
X205000Y270000
X215000Y270000
X225000Y270000
X235000Y270000
X245000Y270000
X255000Y270000
X265000Y270000
X275000Y270000
X285000Y270000
X295000Y270000
X305000Y270000
X315000Y270000
X325000Y270000
X335000Y270000
X345000Y270000
X355000Y270000
X365000Y270000
X375000Y270000
X385000Y270000
X370300Y285000
X370300Y295000
X370300Y305000
X370300Y315000
X375000Y330000
X385000Y330000
X365000Y330000
X355000Y330000
X345000Y330000
X335000Y330000
X325000Y330000
X315000Y330000
X305000Y330000
X295000Y330000
X285000Y330000
X275000Y330000
X265000Y330000
X255000Y330000
X245000Y330000
X235000Y330000
X225000Y330000
X215000Y330000
X205000Y330000
X195000Y330000
M30
